<svg xmlns="http://www.w3.org/2000/svg" xmlns:xlink="http://www.w3.org/1999/xlink" width="103" height="103" viewBox="0 0 103 103">
  <defs>
    <filter id="Trazado_978624" x="0" y="0" width="103" height="103" filterUnits="userSpaceOnUse">
      <feOffset dy="3" input="SourceAlpha"/>
      <feGaussianBlur stdDeviation="3" result="blur"/>
      <feFlood flood-opacity="0.161"/>
      <feComposite operator="in" in2="blur"/>
      <feComposite in="SourceGraphic"/>
    </filter>
  </defs>
  <g id="Grupo_1182731" data-name="Grupo 1182731" transform="translate(-191 -313)">
    <g id="Grupo_1179559" data-name="Grupo 1179559" transform="translate(200 319)">
      <g id="Grupo_1144531" data-name="Grupo 1144531">
        <g transform="matrix(1, 0, 0, 1, -9, -6)" filter="url(#Trazado_978624)">
          <g id="Trazado_978624-2" data-name="Trazado 978624" transform="translate(9 6)" fill="#effbfe">
            <path d="M 42.5 83.5 C 36.96437835693359 83.5 31.59512901306152 82.41617584228516 26.54141235351562 80.27863311767578 C 21.65934181213379 78.21369171142578 17.27447128295898 75.25723266601562 13.50862312316895 71.49137878417969 C 9.742764472961426 67.72553253173828 6.786305904388428 63.34066009521484 4.721364498138428 58.45858764648438 C 2.583823442459106 53.40486907958984 1.5 48.03562164306641 1.5 42.5 C 1.5 36.96437835693359 2.583823442459106 31.59512901306152 4.721364498138428 26.54141235351562 C 6.786305904388428 21.65934181213379 9.742764472961426 17.27447128295898 13.50862312316895 13.50862312316895 C 17.27447128295898 9.742764472961426 21.65934181213379 6.786305904388428 26.54141235351562 4.721364498138428 C 31.59512901306152 2.583823442459106 36.96437835693359 1.5 42.5 1.5 C 48.03562164306641 1.5 53.40486907958984 2.583823442459106 58.45858764648438 4.721364498138428 C 63.34066009521484 6.786305904388428 67.72553253173828 9.742764472961426 71.49137878417969 13.50862312316895 C 75.25723266601562 17.27447128295898 78.21369171142578 21.65934181213379 80.27863311767578 26.54141235351562 C 82.41617584228516 31.59512901306152 83.5 36.96437835693359 83.5 42.5 C 83.5 48.03562164306641 82.41617584228516 53.40486907958984 80.27863311767578 58.45858764648438 C 78.21369171142578 63.34066009521484 75.25723266601562 67.72553253173828 71.49137878417969 71.49137878417969 C 67.72553253173828 75.25723266601562 63.34066009521484 78.21369171142578 58.45858764648438 80.27863311767578 C 53.40486907958984 82.41617584228516 48.03562164306641 83.5 42.5 83.5 Z" stroke="none"/>
            <path d="M 42.5 3 C 37.16621398925781 3 31.99356079101562 4.043960571289062 27.125732421875 6.102882385253906 C 22.42246627807617 8.092185974121094 18.19785308837891 10.94070434570312 14.56928253173828 14.56928253173828 C 10.94070434570312 18.19785308837891 8.092185974121094 22.42246627807617 6.102882385253906 27.125732421875 C 4.043960571289062 31.99356079101562 3 37.16621398925781 3 42.5 C 3 47.83378601074219 4.043960571289062 53.00643920898438 6.102882385253906 57.87425231933594 C 8.092185974121094 62.57753372192383 10.94070434570312 66.80213165283203 14.56928253173828 70.43071746826172 C 18.19786834716797 74.05929565429688 22.42246627807617 76.90781402587891 27.125732421875 78.89711761474609 C 31.99356079101562 80.95603942871094 37.16621398925781 82 42.5 82 C 47.83378601074219 82 53.00642395019531 80.95603942871094 57.87425231933594 78.89711761474609 C 62.57753372192383 76.90781402587891 66.80213165283203 74.05929565429688 70.43071746826172 70.43071746826172 C 74.05929565429688 66.80213165283203 76.90781402587891 62.57753372192383 78.89711761474609 57.87425231933594 C 80.95603942871094 53.00642395019531 82 47.83378601074219 82 42.5 C 82 37.16621398925781 80.95603942871094 31.99356079101562 78.89711761474609 27.125732421875 C 76.90781402587891 22.42246627807617 74.05929565429688 18.19786834716797 70.43071746826172 14.56928253173828 C 66.80213165283203 10.94070434570312 62.57753372192383 8.092185974121094 57.87425231933594 6.102882385253906 C 53.00643920898438 4.043960571289062 47.83378601074219 3 42.5 3 M 42.5 0 C 65.97209167480469 0 85 19.02789306640625 85 42.5 C 85 65.97209167480469 65.97209167480469 85 42.5 85 C 19.02789306640625 85 0 65.97209167480469 0 42.5 C 0 19.02789306640625 19.02789306640625 0 42.5 0 Z" stroke="none" fill="#397b86"/>
          </g>
        </g>
      </g>
    </g>
    <g id="pintar" transform="translate(213.436 331.709)">
      <path id="Trazado_1042891" data-name="Trazado 1042891" d="M44.268,73.8l13.644-6.816a6.286,6.286,0,0,0,3.448-5.056q.11-1.222.112-2.474A26.986,26.986,0,1,0,34.485,86.441h.06A6.2,6.2,0,0,0,40.682,80.7l.132-1.752A6.276,6.276,0,0,1,44.268,73.8Zm0,0" transform="translate(-6.626 -28.691)" fill="#efedee"/>
      <path id="Trazado_1042892" data-name="Trazado 1042892" d="M10.991,59.455A26.988,26.988,0,0,1,36.233,32.524q-.692-.044-1.393-.053a26.986,26.986,0,1,0-.355,53.97h.06a6.064,6.064,0,0,0,1.093-.1A26.987,26.987,0,0,1,10.991,59.455Zm0,0" transform="translate(-6.626 -28.691)" fill="#e0e0e0"/>
      <path id="Trazado_1042893" data-name="Trazado 1042893" d="M349.523,298.125l1.058,20.9a3.284,3.284,0,0,0,6.56,0l1.06-20.9Zm0,0" transform="translate(-308.847 -263.432)" fill="#d28654"/>
      <path id="Trazado_1042894" data-name="Trazado 1042894" d="M344.5,199.145l.584,11.519a12.954,12.954,0,0,0,8.678,0l.584-11.519Zm0,0" transform="translate(-304.412 -175.97)" fill="#b0bec5"/>
      <path id="Trazado_1042895" data-name="Trazado 1042895" d="M353.862,322.128a3.239,3.239,0,0,0,1.746-.489,3.28,3.28,0,0,1-1.534-2.615l-1.058-20.9h-3.491l.146,2.883s.912,18.014.912,18.016a3.262,3.262,0,0,0,3.28,3.1Zm0,0" transform="translate(-308.848 -263.432)" fill="#b67248"/>
      <path id="Trazado_1042896" data-name="Trazado 1042896" d="M345.088,210.663a12.8,12.8,0,0,0,3.528.721l-.036-.721-.584-11.519H344.5Zm0,0" transform="translate(-304.412 -175.97)" fill="#90a4ae"/>
      <path id="Trazado_1042897" data-name="Trazado 1042897" d="M244.24,99.946a5.54,5.54,0,1,1-5.54-5.54A5.54,5.54,0,0,1,244.24,99.946Zm0,0" transform="translate(-206.026 -83.421)" fill="#33c0ff"/>
      <path id="Trazado_1042898" data-name="Trazado 1042898" d="M241.028,105.4a5.539,5.539,0,0,1-3.571-9.774,5.539,5.539,0,1,0,4.814,9.632,5.544,5.544,0,0,1-1.243.142Zm0,0" transform="translate(-206.026 -84.497)" fill="#029be5"/>
      <path id="Trazado_1042899" data-name="Trazado 1042899" d="M328.875,15.186a17.514,17.514,0,0,1-3.987-6.136,2.137,2.137,0,0,0-3.524-.95,20.125,20.125,0,0,0-6.4,13.911,9.018,9.018,0,0,0,2.3,6.749,7.93,7.93,0,0,0,11.412.586,9.019,9.019,0,0,0,2.98-6.478c0-.021,0-.042,0-.062a10.211,10.211,0,0,0-2.785-7.619Zm0,0" transform="translate(-278.297 -6.631)" fill="#546e7a"/>
      <path id="Trazado_1042900" data-name="Trazado 1042900" d="M320.756,28.762a9.018,9.018,0,0,1-2.3-6.75A20.114,20.114,0,0,1,324.539,8.4a2.087,2.087,0,0,0-3.175-.3,20.123,20.123,0,0,0-6.4,13.911,9.018,9.018,0,0,0,2.3,6.75,7.937,7.937,0,0,0,7.725,2.529,8.162,8.162,0,0,1-4.234-2.529Zm0,0" transform="translate(-278.296 -6.632)" fill="#455a64"/>
      <path id="Trazado_1042901" data-name="Trazado 1042901" d="M108.443,107.766a5.54,5.54,0,1,1-5.54-5.54A5.54,5.54,0,0,1,108.443,107.766Zm0,0" transform="translate(-86.032 -90.331)" fill="#fc5659"/>
      <path id="Trazado_1042902" data-name="Trazado 1042902" d="M103.079,112.8a5.539,5.539,0,0,1-1.434-9.344,5.539,5.539,0,1,0,4.818,9.63A5.511,5.511,0,0,1,103.079,112.8Zm0,0" transform="translate(-86.02 -91.414)" fill="#f24447"/>
      <path id="Trazado_1042903" data-name="Trazado 1042903" d="M62.189,243.29a5.54,5.54,0,1,1-5.54-5.54A5.54,5.54,0,0,1,62.189,243.29Zm0,0" transform="translate(-45.161 -210.083)" fill="#ffd54f"/>
      <path id="Trazado_1042904" data-name="Trazado 1042904" d="M55.031,247.085a5.54,5.54,0,0,1,.057-7.834c.1-.1.21-.2.32-.289a5.539,5.539,0,1,0,4.81,9.634A5.535,5.535,0,0,1,55.031,247.085Zm0,0" transform="translate(-45.162 -211.153)" fill="#fabc36"/>
      <path id="Trazado_1042905" data-name="Trazado 1042905" d="M155.1,357.071a5.54,5.54,0,1,1-5.54-5.54A5.54,5.54,0,0,1,155.1,357.071Zm0,0" transform="translate(-127.263 -310.623)" fill="#80c56e"/>
      <path id="Trazado_1042906" data-name="Trazado 1042906" d="M146.736,359.037a5.541,5.541,0,0,1,1.57-6.3,5.608,5.608,0,0,0-.82.258,5.54,5.54,0,1,0,5.635,9.376A5.542,5.542,0,0,1,146.736,359.037Zm0,0" transform="translate(-127.249 -311.689)" fill="#68b65c"/>
      <path id="Trazado_1042907" data-name="Trazado 1042907" d="M98.749,95.217a6.413,6.413,0,1,0,3.44,8.391,6.374,6.374,0,0,0-3.44-8.391Zm1.83,7.717a4.67,4.67,0,1,1-2.5-6.107A4.659,4.659,0,0,1,100.578,102.935Zm0,0" transform="translate(-79.403 -83.697)"/>
      <path id="Trazado_1042908" data-name="Trazado 1042908" d="M45.477,241.167a6.413,6.413,0,1,0,.066-9.069,6.366,6.366,0,0,0-.066,9.069ZM50.045,232a4.667,4.667,0,1,1-3.276,1.343A4.634,4.634,0,0,1,50.045,232Zm0,0" transform="translate(-38.557 -203.459)"/>
      <path id="Trazado_1042909" data-name="Trazado 1042909" d="M140.545,344.483a6.407,6.407,0,1,0,2.387-.463A6.42,6.42,0,0,0,140.545,344.483Zm6.72,4.213a4.663,4.663,0,1,1-4.333-2.93,4.672,4.672,0,0,1,4.333,2.93Zm0,0" transform="translate(-120.633 -303.985)"/>
      <path id="Trazado_1042910" data-name="Trazado 1042910" d="M182.7,255.829V254.5a.873.873,0,0,0-1.746,0v1.331a.873.873,0,0,0,1.746,0Zm0,0" transform="translate(-159.898 -224.111)"/>
      <path id="Trazado_1042911" data-name="Trazado 1042911" d="M309.121,255.829V254.5a.873.873,0,0,0-1.746,0v1.331a.873.873,0,0,0,1.746,0Zm0,0" transform="translate(-271.604 -224.111)"/>
      <path id="Trazado_1042912" data-name="Trazado 1042912" d="M231.254,266.817a3.276,3.276,0,0,0,2.473-1.1.873.873,0,1,0-1.314-1.149,1.581,1.581,0,0,1-2.317,0,.873.873,0,0,0-1.314,1.149A3.275,3.275,0,0,0,231.254,266.817Zm0,0" transform="translate(-201.966 -233.515)"/>
      <path id="Trazado_1042913" data-name="Trazado 1042913" d="M37.54,15.374a19.275,19.275,0,0,1,2.485-8.66c.012-.021.022-.042.032-.064a19.442,19.442,0,0,1,3.606-4.542,1.21,1.21,0,0,1,1.125-.331,1.434,1.434,0,0,1,.986.947,17.949,17.949,0,0,0,3.2,5.366A.873.873,0,0,0,50.3,6.959,16.21,16.21,0,0,1,47.41,2.116,3.191,3.191,0,0,0,45.189.078a2.944,2.944,0,0,0-2.717.754,21.272,21.272,0,0,0-3.566,4.335A27.87,27.87,0,0,0,6.249,48.345a.873.873,0,0,0,1.353-1.1A26.136,26.136,0,0,1,38.046,6.7a20.661,20.661,0,0,0-1.677,4.59,6.413,6.413,0,1,0,.773,9.834,10.013,10.013,0,0,0,2.1,2.483l.975,19.244-2.963,1.48a7.184,7.184,0,0,0-3.934,5.859l-.132,1.752a5.341,5.341,0,0,1-5.27,4.938h-.057A26,26,0,0,1,9.9,49.722a.873.873,0,0,0-1.2,1.267,27.742,27.742,0,0,0,19.158,7.634h.062a7.1,7.1,0,0,0,7.006-6.552l.132-1.752a5.43,5.43,0,0,1,2.973-4.428l2.279-1.139.551,10.884a4.157,4.157,0,0,0,8.3,0l.8-15.7,1.714-.856A7.113,7.113,0,0,0,55.6,33.317c.076-.843.115-1.7.115-2.553A27.77,27.77,0,0,0,53.484,19.79,11.438,11.438,0,0,0,52.62,9.77a.873.873,0,0,0-1.489.911,9.639,9.639,0,0,1,.606,8.746,7.651,7.651,0,0,1-6.974,4.556c-4.51-.125-7.39-4.379-7.222-8.609Zm-4.866,5.819A4.667,4.667,0,1,1,36,13.251a1.323,1.323,0,0,1-.043.323,12.635,12.635,0,0,0,.389,5.836,4.651,4.651,0,0,1-3.669,1.784Zm18.12,2.318c.057-.049.115-.1.171-.148a10.1,10.1,0,0,0,1.428-1.595,26.085,26.085,0,0,1,1.579,9c0,.8-.036,1.6-.108,2.395A5.379,5.379,0,0,1,50.9,37.514l-.833.416ZM47.422,55.548a2.411,2.411,0,0,1-4.816,0l-1-19.657c.148.038.3.072.445.105a13.83,13.83,0,0,0,2.958.319c.179,0,.356,0,.534-.011a13.761,13.761,0,0,0,2.871-.412Zm-6.328-30.72a8.676,8.676,0,0,0,5.537.739,8.893,8.893,0,0,0,2.322-.811l.031-.016-.472,9.311a12.081,12.081,0,0,1-6.995,0l-.469-9.246.046.022Zm0,0" transform="translate(0 0)"/>
    </g>
  </g>
</svg>
