<svg xmlns="http://www.w3.org/2000/svg" xmlns:xlink="http://www.w3.org/1999/xlink" width="93.934" height="93.934" viewBox="0 0 93.934 93.934">
  <defs>
    <filter id="Trazado_982547" x="0" y="0" width="93.934" height="93.934" filterUnits="userSpaceOnUse">
      <feOffset dy="3" input="SourceAlpha"/>
      <feGaussianBlur stdDeviation="3" result="blur"/>
      <feFlood flood-opacity="0.161"/>
      <feComposite operator="in" in2="blur"/>
      <feComposite in="SourceGraphic"/>
    </filter>
  </defs>
  <g id="Grupo_1183396" data-name="Grupo 1183396" transform="translate(-190.815 -3887)">
    <g id="Grupo_1182033" data-name="Grupo 1182033" transform="translate(7.749 1760.467)">
      <g id="Grupo_1175227" data-name="Grupo 1175227" transform="translate(-5.967 140.533)">
        <g id="Grupo_1167337" data-name="Grupo 1167337" transform="translate(198.033 1992)">
          <g id="Grupo_1166720" data-name="Grupo 1166720">
            <g id="Grupo_1164305" data-name="Grupo 1164305">
              <g id="Grupo_1163948" data-name="Grupo 1163948">
                <g id="Grupo_1158168" data-name="Grupo 1158168">
                  <g id="Grupo_1152576" data-name="Grupo 1152576">
                    <g id="Grupo_1148633" data-name="Grupo 1148633">
                      <g id="Grupo_1148525" data-name="Grupo 1148525">
                        <g transform="matrix(1, 0, 0, 1, -9, -6)" filter="url(#Trazado_982547)">
                          <g id="Trazado_982547-2" data-name="Trazado 982547" transform="translate(9 6)" fill="#fdfbec">
                            <path d="M 37.966796875 74.43359375 C 33.04315185546875 74.43359375 28.26757431030273 73.46962738037109 23.77274131774902 71.56847381591797 C 19.43047523498535 69.73184967041016 15.53040790557861 67.10224914550781 12.18087482452393 63.75271987915039 C 8.831341743469238 60.4031867980957 6.201741218566895 56.50312042236328 4.365118980407715 52.16086196899414 C 2.463963508605957 47.66601943969727 1.499996900558472 42.89044189453125 1.499996900558472 37.966796875 C 1.499996900558472 33.04315185546875 2.463963508605957 28.26757431030273 4.365118980407715 23.77274131774902 C 6.201741218566895 19.43047523498535 8.831341743469238 15.53040790557861 12.18087482452393 12.18087482452393 C 15.53040790557861 8.831341743469238 19.43047523498535 6.201741218566895 23.77274131774902 4.365118980407715 C 28.26757431030273 2.463963508605957 33.04315185546875 1.499996900558472 37.966796875 1.499996900558472 C 42.89044189453125 1.499996900558472 47.66601943969727 2.463963508605957 52.16086196899414 4.365118980407715 C 56.50312042236328 6.201741218566895 60.4031867980957 8.831341743469238 63.75271987915039 12.18087482452393 C 67.10224914550781 15.53040790557861 69.73184967041016 19.43047523498535 71.56847381591797 23.77274131774902 C 73.46962738037109 28.26757431030273 74.43359375 33.04315185546875 74.43359375 37.966796875 C 74.43359375 42.89044189453125 73.46962738037109 47.66601943969727 71.56847381591797 52.16086196899414 C 69.73184967041016 56.50313186645508 67.10224914550781 60.4031867980957 63.75271987915039 63.75271987915039 C 60.4031867980957 67.10224914550781 56.50313186645508 69.73184967041016 52.16086196899414 71.56847381591797 C 47.66601943969727 73.46962738037109 42.89044189453125 74.43359375 37.966796875 74.43359375 Z" stroke="none"/>
                            <path d="M 37.966796875 3 C 33.2449836730957 3 28.66600799560547 3.924095153808594 24.35705947875977 5.746635437011719 C 20.19359588623047 7.507637023925781 16.45379638671875 10.02928161621094 13.24153518676758 13.24153518676758 C 10.02927398681641 16.45379638671875 7.507621765136719 20.19359588623047 5.746635437011719 24.35705947875977 C 3.924095153808594 28.66600799560547 3 33.2449836730957 3 37.966796875 C 3 42.6886100769043 3.924095153808594 47.26758575439453 5.746635437011719 51.57653427124023 C 7.507621765136719 55.73999786376953 10.02927398681641 59.47979736328125 13.24153518676758 62.69205856323242 C 16.45379638671875 65.90431976318359 20.19359588623047 68.42597198486328 24.35705947875977 70.18695831298828 C 28.66600799560547 72.00949859619141 33.2449836730957 72.93359375 37.966796875 72.93359375 C 42.6886100769043 72.93359375 47.26758575439453 72.00949859619141 51.57653427124023 70.18695831298828 C 55.73999786376953 68.42597198486328 59.47979736328125 65.90431976318359 62.69205856323242 62.69205856323242 C 65.90431976318359 59.47979736328125 68.42597198486328 55.73999786376953 70.18695831298828 51.57653427124023 C 72.00949859619141 47.26758575439453 72.93359375 42.6886100769043 72.93359375 37.966796875 C 72.93359375 33.2449836730957 72.00949859619141 28.66600799560547 70.18695831298828 24.35705947875977 C 68.42597198486328 20.19359588623047 65.90431976318359 16.45379638671875 62.69205856323242 13.24153518676758 C 59.47979736328125 10.02928161621094 55.73999786376953 7.507637023925781 51.57653427124023 5.746635437011719 C 47.26758575439453 3.924095153808594 42.6886100769043 3 37.966796875 3 M 37.966796875 0 C 58.93528366088867 0 75.93359375 16.99832153320312 75.93359375 37.966796875 C 75.93359375 58.93528366088867 58.93528366088867 75.93359375 37.966796875 75.93359375 C 16.99831008911133 75.93359375 0 58.93528366088867 0 37.966796875 C 0 16.99832153320312 16.99831008911133 0 37.966796875 0 Z" stroke="none" fill="#84792b"/>
                          </g>
                        </g>
                      </g>
                    </g>
                  </g>
                </g>
              </g>
            </g>
          </g>
        </g>
      </g>
    </g>
    <g id="chat_1_" data-name="chat (1)" transform="translate(215.102 3908.12)">
      <path id="Trazado_1045268" data-name="Trazado 1045268" d="M267.824,36.137c-6,0-10.863,3.171-10.863,9.29a10.864,10.864,0,1,0,21.724,0C278.685,39.308,273.822,36.137,267.824,36.137Zm0,0" transform="translate(-233.995 -32.907)" fill="#fbc4ac"/>
      <path id="Trazado_1045269" data-name="Trazado 1045269" d="M259.11,27.214A11,11,0,0,1,268.9,16.19q-.529-.053-1.072-.054a11.079,11.079,0,0,0,0,22.154q.542,0,1.072-.054a11,11,0,0,1-9.79-11.023Zm0,0" transform="translate(-233.998 -14.695)" fill="#e3b098"/>
      <path id="Trazado_1045270" data-name="Trazado 1045270" d="M429.4,170.915h-1.533a.67.67,0,0,1,0-1.341H429.4a.67.67,0,0,1,0,1.341Zm0,0" transform="translate(-389.017 -154.418)" fill="#f98084"/>
      <path id="Trazado_1045271" data-name="Trazado 1045271" d="M299.836,170.915H298.3a.67.67,0,0,1,0-1.341h1.534a.67.67,0,0,1,0,1.341Zm0,0" transform="translate(-271.031 -154.418)" fill="#f98084"/>
      <path id="Trazado_1045272" data-name="Trazado 1045272" d="M278.165,15.959c-.746-9.081-4.408-7.683-10.342-7.683a26.951,26.951,0,0,1-7.559-.735.786.786,0,0,0-.937.393,25.447,25.447,0,0,0-2.367,11.419s2.6-4.678,10.862-4.678c3.845,0,3.523,1.284,10.342,1.284Zm0,0" transform="translate(-233.995 -6.835)" fill="#c86d5c"/>
      <path id="Trazado_1045273" data-name="Trazado 1045273" d="M261.473,7.934a.8.8,0,0,1,.058-.094,10.846,10.846,0,0,1-1.266-.3.786.786,0,0,0-.937.393,25.447,25.447,0,0,0-2.367,11.419,7.872,7.872,0,0,1,2.223-2.262,24.1,24.1,0,0,1,2.29-9.158Zm0,0" transform="translate(-233.994 -6.834)" fill="#ad4f3d"/>
      <path id="Trazado_1045274" data-name="Trazado 1045274" d="M7.59,375.762V382.9a3.491,3.491,0,0,0,3.106,3.47l5.132.571Zm0,0" transform="translate(-6.911 -342.178)" fill="#3a484a"/>
      <path id="Trazado_1045275" data-name="Trazado 1045275" d="M166.536,375.762V382.9a3.492,3.492,0,0,1-3.106,3.47l-5.133.571Zm0,0" transform="translate(-144.149 -342.178)" fill="#3a484a"/>
      <path id="Trazado_1045276" data-name="Trazado 1045276" d="M29.217,290.316h0L18.121,281.93,7.51,290.317h0c-.005.143-.008.285-.008.429a10.971,10.971,0,0,0,10.862,11.077,10.971,10.971,0,0,0,10.862-11.077c0-.143,0-.286-.008-.429Zm0,0" transform="translate(-6.83 -256.732)" fill="#fbc4ac"/>
      <path id="Trazado_1045277" data-name="Trazado 1045277" d="M9.3,371.813a11.284,11.284,0,0,1-1.8.354h0c-.005.142-.008.285-.008.428a10.971,10.971,0,0,0,10.862,11.078c.31,0,.617-.014.92-.04-5.394-.493-9.678-5.541-9.977-11.819Zm0,0" transform="translate(-6.829 -338.582)" fill="#e3b098"/>
      <path id="Trazado_1045278" data-name="Trazado 1045278" d="M50.375,411.4H48.842a.67.67,0,1,1,0-1.341h1.533a.67.67,0,1,1,0,1.341Zm0,0" transform="translate(-43.866 -373.41)" fill="#f98084"/>
      <path id="Trazado_1045279" data-name="Trazado 1045279" d="M179.942,411.4h-1.533a.67.67,0,1,1,0-1.341h1.533a.67.67,0,1,1,0,1.341Zm0,0" transform="translate(-161.853 -373.41)" fill="#f98084"/>
      <path id="Trazado_1045280" data-name="Trazado 1045280" d="M7.59,267.273h0C13.42,266.629,18.444,261,18.444,261s5.024,5.631,10.853,6.276h0a10.961,10.961,0,0,0-10.854-10.648A10.961,10.961,0,0,0,7.59,267.273Zm0,0" transform="translate(-6.911 -233.689)" fill="#3a484a"/>
      <path id="Trazado_1045281" data-name="Trazado 1045281" d="M19.382,256.667c-.309-.027-.622-.042-.938-.042A10.961,10.961,0,0,0,7.59,267.273h0a10.142,10.142,0,0,0,1.8-.354,11.1,11.1,0,0,1,10-10.254Zm0,0" transform="translate(-6.911 -233.689)" fill="#323e40"/>
      <path id="Trazado_1045282" data-name="Trazado 1045282" d="M25.089,64.1V57.4a4.331,4.331,0,0,0-4.331-4.331H11.831A4.331,4.331,0,0,0,7.5,57.4V63.52a4.331,4.331,0,0,0,4.331,4.331H27.164Zm0,0" transform="translate(-6.83 -48.327)" fill="#58b78c"/>
      <path id="Trazado_1045283" data-name="Trazado 1045283" d="M282.093,308.9v-6.7a4.331,4.331,0,0,1,4.331-4.331h8.927a4.331,4.331,0,0,1,4.331,4.331v6.119a4.331,4.331,0,0,1-4.331,4.331H280.019Zm0,0" transform="translate(-254.992 -271.252)" fill="#f2c42c"/>
      <path id="Trazado_1045284" data-name="Trazado 1045284" d="M436.447,140.935a.67.67,0,0,0,.67-.67V139.14a.67.67,0,1,0-1.341,0v1.126A.67.67,0,0,0,436.447,140.935Zm0,0" transform="translate(-396.829 -126.094)"/>
      <path id="Trazado_1045285" data-name="Trazado 1045285" d="M306.877,140.935a.67.67,0,0,0,.67-.67V139.14a.67.67,0,1,0-1.341,0v1.126A.67.67,0,0,0,306.877,140.935Zm0,0" transform="translate(-278.839 -126.094)"/>
      <path id="Trazado_1045286" data-name="Trazado 1045286" d="M362.589,163.907a.67.67,0,0,0-.946.064.73.73,0,0,1-1.062,0,.671.671,0,1,0-1.01.883,2.07,2.07,0,0,0,3.081,0,.67.67,0,0,0-.064-.946Zm0,0" transform="translate(-327.284 -149.107)"/>
      <path id="Trazado_1045287" data-name="Trazado 1045287" d="M57.42,381.416a.671.671,0,0,0,.67-.67V379.62a.67.67,0,0,0-1.341,0v1.126A.67.67,0,0,0,57.42,381.416Zm0,0" transform="translate(-51.678 -345.081)"/>
      <path id="Trazado_1045288" data-name="Trazado 1045288" d="M186.986,381.416a.67.67,0,0,0,.67-.67V379.62a.67.67,0,1,0-1.341,0v1.126A.67.67,0,0,0,186.986,381.416Zm0,0" transform="translate(-169.664 -345.081)"/>
      <path id="Trazado_1045289" data-name="Trazado 1045289" d="M111.121,404.453a.67.67,0,0,0-1.01.882,2.069,2.069,0,0,0,3.081,0,.67.67,0,1,0-1.009-.882.73.73,0,0,1-1.062,0Zm0,0" transform="translate(-100.119 -368.096)"/>
      <path id="Trazado_1045290" data-name="Trazado 1045290" d="M5,61.7H20.334a.677.677,0,0,0,.587-.995L18.93,57.1V50.575a5.007,5.007,0,0,0-5-5H5a5.007,5.007,0,0,0-5,5v6.119a5.007,5.007,0,0,0,5,5ZM1.341,50.575A3.665,3.665,0,0,1,5,46.915h8.927a3.665,3.665,0,0,1,3.661,3.661v6.7a.667.667,0,0,0,.084.324L19.2,60.355H5a3.665,3.665,0,0,1-3.661-3.661Zm0,0" transform="translate(0 -41.501)"/>
      <path id="Trazado_1045291" data-name="Trazado 1045291" d="M46.76,95.372h9.35a.67.67,0,0,0,0-1.341H46.76a.67.67,0,0,0,0,1.341Zm0,0" transform="translate(-41.97 -85.627)"/>
      <path id="Trazado_1045292" data-name="Trazado 1045292" d="M46.76,129.6h9.35a.67.67,0,1,0,0-1.341H46.76a.67.67,0,1,0,0,1.341Zm0,0" transform="translate(-41.97 -116.799)"/>
      <path id="Trazado_1045293" data-name="Trazado 1045293" d="M46.76,163.833h5.831a.67.67,0,0,0,0-1.341H46.76a.67.67,0,1,0,0,1.341Zm0,0" transform="translate(-41.97 -147.969)"/>
      <path id="Trazado_1045294" data-name="Trazado 1045294" d="M273.215,306.5h15.332a5.007,5.007,0,0,0,5-5v-6.119a5.007,5.007,0,0,0-5-5H279.62a5.007,5.007,0,0,0-5,5V301.9l-1.99,3.6a.677.677,0,0,0,.587.994Zm2.661-4.1a.672.672,0,0,0,.083-.324v-6.7a3.665,3.665,0,0,1,3.661-3.661h8.927a3.665,3.665,0,0,1,3.661,3.661V301.5a3.665,3.665,0,0,1-3.661,3.661h-14.2Zm0,0" transform="translate(-248.188 -264.423)"/>
      <path id="Trazado_1045295" data-name="Trazado 1045295" d="M342.486,340.177h9.35a.67.67,0,0,0,0-1.341h-9.35a.67.67,0,0,0,0,1.341Zm0,0" transform="translate(-311.266 -308.552)"/>
      <path id="Trazado_1045296" data-name="Trazado 1045296" d="M352.508,373.733a.67.67,0,0,0-.67-.67h-9.35a.67.67,0,0,0,0,1.341h9.35A.67.67,0,0,0,352.508,373.733Zm0,0" transform="translate(-311.267 -339.72)"/>
      <path id="Trazado_1045297" data-name="Trazado 1045297" d="M388.364,407.963a.67.67,0,0,0-.67-.67h-5.831a.67.67,0,1,0,0,1.341h5.831A.67.67,0,0,0,388.364,407.963Zm0,0" transform="translate(-347.122 -370.891)"/>
      <path id="Trazado_1045298" data-name="Trazado 1045298" d="M260.993,24.267a11.655,11.655,0,0,0,11.532-11.747A11.945,11.945,0,0,0,272,9c-.33-3.925-1.222-6.188-2.888-7.331C267.536.594,265.467.657,263.071.73c-.665.02-1.353.042-2.078.042a26.354,26.354,0,0,1-7.359-.705A1.454,1.454,0,0,0,251.9.8a20.347,20.347,0,0,0-1.468,3.945.67.67,0,0,0,1.295.347A19.005,19.005,0,0,1,253.1,1.4a.115.115,0,0,1,.14-.058,27.579,27.579,0,0,0,7.758.766c.745,0,1.443-.021,2.118-.042,2.25-.069,4.028-.123,5.239.707s1.921,2.635,2.247,5.671a27.752,27.752,0,0,1-3.022-.176,21.387,21.387,0,0,1-2.87-.574,12.479,12.479,0,0,0-3.713-.529A19.029,19.029,0,0,0,256.4,7.7a13.546,13.546,0,0,0-3.67,1.5,10.911,10.911,0,0,0-1.848,1.387l-.023.021a29.438,29.438,0,0,1,.327-2.98.67.67,0,0,0-1.323-.215,31.912,31.912,0,0,0-.4,5.105,11.655,11.655,0,0,0,11.533,11.747Zm0-1.341A10.309,10.309,0,0,1,250.8,12.709c0-.006.015-.022.018-.027a8.166,8.166,0,0,1,2.444-2.227,14.616,14.616,0,0,1,9.094-1.876c1.5.166,2.936.719,4.432.939a29.178,29.178,0,0,0,3.926.272h.114a10.627,10.627,0,0,1,.354,2.727,10.313,10.313,0,0,1-10.192,10.407Zm0,0" transform="translate(-227.164 0)"/>
      <path id="Trazado_1045299" data-name="Trazado 1045299" d="M.013,267.584a4.158,4.158,0,0,0,3.7,4.136l5.1.567a11.343,11.343,0,0,0,5.449,0l5.1-.567a4.158,4.158,0,0,0,3.7-4.136v-6.3c0-.289.01-.577,0-.867a11.782,11.782,0,0,0-3.513-8,11.394,11.394,0,0,0-17.162,1.3.67.67,0,1,0,1.07.807,10.054,10.054,0,0,1,15.152-1.153,10.431,10.431,0,0,1,3.052,6.278q-.247-.048-.491-.107a16.275,16.275,0,0,1-5.415-2.608l-.005,0a25.572,25.572,0,0,1-2.937-2.427c-.216-.208-.429-.42-.636-.638a1.074,1.074,0,0,0-.43-.339.655.655,0,0,0-.418,0,1.339,1.339,0,0,0-.49.4c-.41.428-.841.837-1.284,1.231A25.483,25.483,0,0,1,7.3,256.953a15.593,15.593,0,0,1-5.89,2.7A10.474,10.474,0,0,1,2.2,256.7a.67.67,0,1,0-1.232-.529,11.845,11.845,0,0,0-.952,4.245c-.011.289-.01.577,0,.866Zm4.935,2.925-1.084-.121a2.819,2.819,0,0,1-2.51-2.8v-1.191a11.864,11.864,0,0,0,1.263,1.923,11.645,11.645,0,0,0,2.17,2.074l.161.118Zm16.773-2.925a2.819,2.819,0,0,1-2.51,2.8l-1.084.12.162-.12a11.636,11.636,0,0,0,2.168-2.072,11.856,11.856,0,0,0,1.263-1.923Zm-10.043-12.3a21.969,21.969,0,0,0,7.467,5.035,13.254,13.254,0,0,0,2.583.713c0,.072,0,.143-.006.215a.047.047,0,0,1,0,.007,10.514,10.514,0,0,1-3.7,7.644l-.01.008A10.008,10.008,0,0,1,5.054,268.9a10.515,10.515,0,0,1-3.7-7.644.039.039,0,0,1,0-.007c0-.072,0-.144-.006-.215.061-.01.123-.023.184-.034a14.087,14.087,0,0,0,1.879-.491,18.042,18.042,0,0,0,4.606-2.4l0,0a25.254,25.254,0,0,0,3.517-2.959l.141.14Zm0,0" transform="translate(-0.004 -226.859)"/>
    </g>
  </g>
</svg>
