<svg xmlns="http://www.w3.org/2000/svg" xmlns:xlink="http://www.w3.org/1999/xlink" width="93.934" height="93.934" viewBox="0 0 93.934 93.934">
  <defs>
    <filter id="Trazado_982547" x="0" y="0" width="93.934" height="93.934" filterUnits="userSpaceOnUse">
      <feOffset dy="3" input="SourceAlpha"/>
      <feGaussianBlur stdDeviation="3" result="blur"/>
      <feFlood flood-opacity="0.161"/>
      <feComposite operator="in" in2="blur"/>
      <feComposite in="SourceGraphic"/>
    </filter>
  </defs>
  <g id="Grupo_1183411" data-name="Grupo 1183411" transform="translate(-610.815 -3887)">
    <g id="Grupo_1182034" data-name="Grupo 1182034" transform="translate(427.749 1760.467)">
      <g id="Grupo_1175227" data-name="Grupo 1175227" transform="translate(-5.967 140.533)">
        <g id="Grupo_1167337" data-name="Grupo 1167337" transform="translate(198.033 1992)">
          <g id="Grupo_1166720" data-name="Grupo 1166720">
            <g id="Grupo_1164305" data-name="Grupo 1164305">
              <g id="Grupo_1163948" data-name="Grupo 1163948">
                <g id="Grupo_1158168" data-name="Grupo 1158168">
                  <g id="Grupo_1152576" data-name="Grupo 1152576">
                    <g id="Grupo_1148633" data-name="Grupo 1148633">
                      <g id="Grupo_1148525" data-name="Grupo 1148525">
                        <g transform="matrix(1, 0, 0, 1, -9, -6)" filter="url(#Trazado_982547)">
                          <g id="Trazado_982547-2" data-name="Trazado 982547" transform="translate(9 6)" fill="#fdfbec">
                            <path d="M 37.966796875 74.43359375 C 33.04315185546875 74.43359375 28.26757431030273 73.46962738037109 23.77274131774902 71.56847381591797 C 19.43047523498535 69.73184967041016 15.53040790557861 67.10224914550781 12.18087482452393 63.75271987915039 C 8.831341743469238 60.4031867980957 6.201741218566895 56.50312042236328 4.365118980407715 52.16086196899414 C 2.463963508605957 47.66601943969727 1.499996900558472 42.89044189453125 1.499996900558472 37.966796875 C 1.499996900558472 33.04315185546875 2.463963508605957 28.26757431030273 4.365118980407715 23.77274131774902 C 6.201741218566895 19.43047523498535 8.831341743469238 15.53040790557861 12.18087482452393 12.18087482452393 C 15.53040790557861 8.831341743469238 19.43047523498535 6.201741218566895 23.77274131774902 4.365118980407715 C 28.26757431030273 2.463963508605957 33.04315185546875 1.499996900558472 37.966796875 1.499996900558472 C 42.89044189453125 1.499996900558472 47.66601943969727 2.463963508605957 52.16086196899414 4.365118980407715 C 56.50312042236328 6.201741218566895 60.4031867980957 8.831341743469238 63.75271987915039 12.18087482452393 C 67.10224914550781 15.53040790557861 69.73184967041016 19.43047523498535 71.56847381591797 23.77274131774902 C 73.46962738037109 28.26757431030273 74.43359375 33.04315185546875 74.43359375 37.966796875 C 74.43359375 42.89044189453125 73.46962738037109 47.66601943969727 71.56847381591797 52.16086196899414 C 69.73184967041016 56.50313186645508 67.10224914550781 60.4031867980957 63.75271987915039 63.75271987915039 C 60.4031867980957 67.10224914550781 56.50313186645508 69.73184967041016 52.16086196899414 71.56847381591797 C 47.66601943969727 73.46962738037109 42.89044189453125 74.43359375 37.966796875 74.43359375 Z" stroke="none"/>
                            <path d="M 37.966796875 3 C 33.2449836730957 3 28.66600799560547 3.924095153808594 24.35705947875977 5.746635437011719 C 20.19359588623047 7.507637023925781 16.45379638671875 10.02928161621094 13.24153518676758 13.24153518676758 C 10.02927398681641 16.45379638671875 7.507621765136719 20.19359588623047 5.746635437011719 24.35705947875977 C 3.924095153808594 28.66600799560547 3 33.2449836730957 3 37.966796875 C 3 42.6886100769043 3.924095153808594 47.26758575439453 5.746635437011719 51.57653427124023 C 7.507621765136719 55.73999786376953 10.02927398681641 59.47979736328125 13.24153518676758 62.69205856323242 C 16.45379638671875 65.90431976318359 20.19359588623047 68.42597198486328 24.35705947875977 70.18695831298828 C 28.66600799560547 72.00949859619141 33.2449836730957 72.93359375 37.966796875 72.93359375 C 42.6886100769043 72.93359375 47.26758575439453 72.00949859619141 51.57653427124023 70.18695831298828 C 55.73999786376953 68.42597198486328 59.47979736328125 65.90431976318359 62.69205856323242 62.69205856323242 C 65.90431976318359 59.47979736328125 68.42597198486328 55.73999786376953 70.18695831298828 51.57653427124023 C 72.00949859619141 47.26758575439453 72.93359375 42.6886100769043 72.93359375 37.966796875 C 72.93359375 33.2449836730957 72.00949859619141 28.66600799560547 70.18695831298828 24.35705947875977 C 68.42597198486328 20.19359588623047 65.90431976318359 16.45379638671875 62.69205856323242 13.24153518676758 C 59.47979736328125 10.02928161621094 55.73999786376953 7.507637023925781 51.57653427124023 5.746635437011719 C 47.26758575439453 3.924095153808594 42.6886100769043 3 37.966796875 3 M 37.966796875 0 C 58.93528366088867 0 75.93359375 16.99832153320312 75.93359375 37.966796875 C 75.93359375 58.93528366088867 58.93528366088867 75.93359375 37.966796875 75.93359375 C 16.99831008911133 75.93359375 0 58.93528366088867 0 37.966796875 C 0 16.99832153320312 16.99831008911133 0 37.966796875 0 Z" stroke="none" fill="#84792b"/>
                          </g>
                        </g>
                      </g>
                    </g>
                  </g>
                </g>
              </g>
            </g>
          </g>
        </g>
      </g>
    </g>
    <g id="idea" transform="translate(546.956 3905.135)">
      <g id="Grupo_1183410" data-name="Grupo 1183410" transform="translate(96.388 0.757)">
        <g id="Grupo_1183402" data-name="Grupo 1183402" transform="translate(4.78)">
          <g id="Grupo_1183401" data-name="Grupo 1183401">
            <g id="Grupo_1183400" data-name="Grupo 1183400">
              <g id="Grupo_1183399" data-name="Grupo 1183399">
                <g id="Grupo_1183398" data-name="Grupo 1183398">
                  <g id="Grupo_1183397" data-name="Grupo 1183397">
                    <path id="Trazado_1045300" data-name="Trazado 1045300" d="M175.021,29.951V28.771a7.59,7.59,0,0,1,2.013-5.181,9.512,9.512,0,0,0,2.566-6.507A9.621,9.621,0,0,0,170.076,7.5a9.722,9.722,0,0,0-9.79,9.466,9.512,9.512,0,0,0,2.577,6.638,7.5,7.5,0,0,1,2,5.132v1.218h10.156Z" transform="translate(-160.285 -7.496)" fill="#f4eb59"/>
                  </g>
                </g>
              </g>
            </g>
            <path id="Trazado_1045301" data-name="Trazado 1045301" d="M168.918,23.6c-1.058-1.556-2.048-2.194-2.561-3.906a7.265,7.265,0,0,1-.1-3.482c.828-4.729,5.976-7.785,6.743-8.227a9.674,9.674,0,0,0-12.711,8.977,9.512,9.512,0,0,0,2.577,6.638,7.5,7.5,0,0,1,2,5.132v1.218h6.054V28.734a12.864,12.864,0,0,0-2-5.132Z" transform="translate(-160.286 -7.496)" fill="#fdcf5e"/>
          </g>
        </g>
        <g id="Grupo_1183409" data-name="Grupo 1183409" transform="translate(0 19.255)">
          <path id="Trazado_1045302" data-name="Trazado 1045302" d="M136.9,229.216H117.8a4.885,4.885,0,0,1-4.885-4.885V212.76a14.438,14.438,0,0,1,28.876,0v11.571A4.885,4.885,0,0,1,136.9,229.216Z" transform="translate(-112.911 -198.322)" fill="#5c576e"/>
          <path id="Trazado_1045303" data-name="Trazado 1045303" d="M119.911,224.261c-3.236-6.17-2.824-14.928,2.314-20.64a17.421,17.421,0,0,1,8.151-4.98,14.447,14.447,0,0,0-17.465,14.119v11.571a4.885,4.885,0,0,0,4.885,4.885h6.054a17.213,17.213,0,0,1-3.939-4.955Z" transform="translate(-112.911 -198.322)" fill="#4f4c5e"/>
          <g id="Grupo_1183408" data-name="Grupo 1183408" transform="translate(0 7.253)">
            <g id="Grupo_1183405" data-name="Grupo 1183405">
              <g id="Grupo_1183403" data-name="Grupo 1183403" transform="translate(0 4.019)">
                <path id="Trazado_1045304" data-name="Trazado 1045304" d="M116.05,316.311h1.112v-6.281H116.05a3.14,3.14,0,1,0,0,6.281Z" transform="translate(-112.91 -310.031)" fill="#f7bbb0"/>
                <path id="Trazado_1045305" data-name="Trazado 1045305" d="M358.058,316.311h-1.112v-6.281h1.112a3.14,3.14,0,1,1,0,6.281Z" transform="translate(-332.322 -310.031)" fill="#fdc9bc"/>
              </g>
              <g id="Grupo_1183404" data-name="Grupo 1183404" transform="translate(3.626)">
                <path id="Trazado_1045306" data-name="Trazado 1045306" d="M159.615,290.8a10.888,10.888,0,0,1-10.774-10.93v-5.649a23.833,23.833,0,0,0,8.977-1.709,23.5,23.5,0,0,0,4.212-2.218.563.563,0,0,1,.756.128,9.79,9.79,0,0,0,7.68,3.8v5.767A10.813,10.813,0,0,1,159.615,290.8Z" transform="translate(-148.841 -270.202)" fill="#ffdbcd"/>
              </g>
              <path id="Trazado_1045307" data-name="Trazado 1045307" d="M154.9,302.6a24.068,24.068,0,0,1-6.056.751V309a10.819,10.819,0,0,0,13.849,10.5A10.944,10.944,0,0,1,154.9,309Z" transform="translate(-145.215 -299.33)" fill="#fdc9bc"/>
            </g>
            <g id="Grupo_1183407" data-name="Grupo 1183407" transform="translate(6.013 7.956)">
              <g id="Grupo_1183406" data-name="Grupo 1183406">
                <ellipse id="Elipse_12555" data-name="Elipse 12555" cx="2.271" cy="1.808" rx="2.271" ry="1.808" fill="#fd9faa"/>
                <ellipse id="Elipse_12556" data-name="Elipse 12556" cx="2.271" cy="1.808" rx="2.271" ry="1.808" transform="translate(12.308)" fill="#fd9faa"/>
              </g>
            </g>
          </g>
        </g>
      </g>
      <path id="Trazado_1045308" data-name="Trazado 1045308" d="M115.657,33.6a.757.757,0,0,0-.757.757v.928a.757.757,0,0,0,1.514,0V34.36A.757.757,0,0,0,115.657,33.6ZM97.983,15.319a.757.757,0,1,0-.757-1.311l-2,1.157a.757.757,0,1,0,.757,1.311ZM97.6,11.458a.757.757,0,0,0,0-1.514H95.291a.757.757,0,0,0,0,1.514ZM124.049,7.5a.753.753,0,0,0,.378-.1l2-1.157a.757.757,0,1,0-.757-1.311l-2,1.157a.757.757,0,0,0,.379,1.412ZM95.222,6.238l2,1.157a.757.757,0,0,0,.757-1.311l-2-1.157a.757.757,0,0,0-.757,1.311ZM112.6,34.69a.757.757,0,0,0-1.068.073.931.931,0,0,1-1.406,0,.757.757,0,0,0-1.141.994,2.445,2.445,0,0,0,3.688,0A.757.757,0,0,0,112.6,34.69ZM106,33.6a.757.757,0,0,0-.757.757v.928a.757.757,0,0,0,1.514,0V34.36A.757.757,0,0,0,106,33.6ZM126.43,15.165l-2-1.157a.757.757,0,1,0-.757,1.311l2,1.157a.757.757,0,1,0,.757-1.311Zm-.069-5.22h-2.313a.757.757,0,0,0,0,1.514h2.313a.757.757,0,1,0,0-1.514Zm-.343,24.373A15.094,15.094,0,0,0,123.25,25.7a.757.757,0,0,0-1.237.873,13.585,13.585,0,0,1,2.069,4.484,3.871,3.871,0,0,0-1.957-.53,9.066,9.066,0,0,1-7.568-3.5,1.326,1.326,0,0,0-1.773-.294,22.792,22.792,0,0,1-4.076,2.146,24.476,24.476,0,0,1-9.179,1.653,3.87,3.87,0,0,0-1.957.529,13.683,13.683,0,0,1,22.195-6.962.757.757,0,0,0,.99-1.145,15.163,15.163,0,0,0-3.923-2.455,6.7,6.7,0,0,1,1.639-3.127,10.291,10.291,0,0,0-.236-14.291,10.4,10.4,0,0,0-14.677-.083,10.222,10.222,0,0,0-.365,14.387,6.639,6.639,0,0,1,1.633,3.112,15.217,15.217,0,0,0-9.194,13.892c0,.014,0,5.529,0,5.529a.757.757,0,0,0,1.514,0V37.507a3.858,3.858,0,0,0,2.194.81,11.637,11.637,0,0,0,11.447,10.3h.041a11.57,11.57,0,0,0,11.5-10.3,3.859,3.859,0,0,0,2.181-.809v8.514a4.133,4.133,0,0,1-4.128,4.128H101.273a4.133,4.133,0,0,1-4.128-4.128V43.444a.757.757,0,0,0-1.514,0v2.577a5.648,5.648,0,0,0,5.642,5.642h19.106a5.648,5.648,0,0,0,5.642-5.642c.028-.074,0-11.63,0-11.7ZM108.788,13.153h-.73a.73.73,0,1,1,.73-.73Zm2.563,6.112c-.175-.006-.349-.01-.525-.01s-.35,0-.525.01v-4.6h1.049Zm-7.052-2.92a8.708,8.708,0,0,1,.316-12.27,8.884,8.884,0,0,1,12.548.066,8.778,8.778,0,0,1,.2,12.192,8.191,8.191,0,0,0-1.962,3.627,15.2,15.2,0,0,0-2.538-.569V14.666h.73a2.243,2.243,0,1,0-2.243-2.243v.73H110.3v-.73a2.243,2.243,0,1,0-2.243,2.243h.73v4.726a15.079,15.079,0,0,0-2.533.566,8.135,8.135,0,0,0-1.957-3.613Zm8.566-3.192v-.73a.73.73,0,1,1,.73.73ZM99.257,36.792a2.384,2.384,0,0,1-2.111-2.383,2.387,2.387,0,0,1,2.111-2.353v4.736Zm21.625.259a10.056,10.056,0,0,1-10.091,10.056,10.133,10.133,0,0,1-10.02-10.173v-4.9a24.406,24.406,0,0,0,8.5-1.755,24.3,24.3,0,0,0,4.2-2.19,10.538,10.538,0,0,0,7.413,3.92Zm2.927-.941a2.36,2.36,0,0,1-1.413.682V32.056a2.384,2.384,0,0,1,1.413,4.054Z" transform="translate(0 0)"/>
    </g>
  </g>
</svg>
