<svg xmlns="http://www.w3.org/2000/svg" xmlns:xlink="http://www.w3.org/1999/xlink" width="400" height="389" viewBox="0 0 400 389">
  <defs>
    <clipPath id="clip-path">
      <rect id="Rectángulo_416050" data-name="Rectángulo 416050" width="400" height="389" transform="translate(1019.749 1392.541)" fill="#fff" stroke="#707070" stroke-width="1"/>
    </clipPath>
    <clipPath id="clip-path-2">
      <rect id="Rectángulo_416049" data-name="Rectángulo 416049" width="379.954" height="370.328" fill="none"/>
    </clipPath>
    <clipPath id="clip-path-4">
      <rect id="Rectángulo_416038" data-name="Rectángulo 416038" width="38.666" height="28.819" fill="none"/>
    </clipPath>
    <clipPath id="clip-path-5">
      <rect id="Rectángulo_416039" data-name="Rectángulo 416039" width="16.461" height="19.613" fill="none"/>
    </clipPath>
    <clipPath id="clip-path-6">
      <rect id="Rectángulo_416040" data-name="Rectángulo 416040" width="16.462" height="19.613" fill="none"/>
    </clipPath>
    <clipPath id="clip-path-7">
      <rect id="Rectángulo_416041" data-name="Rectángulo 416041" width="63.054" height="35.326" fill="none"/>
    </clipPath>
    <clipPath id="clip-path-8">
      <rect id="Rectángulo_416042" data-name="Rectángulo 416042" width="9.325" height="19.789" fill="none"/>
    </clipPath>
    <clipPath id="clip-path-11">
      <rect id="Rectángulo_416045" data-name="Rectángulo 416045" width="52.021" height="31.687" fill="none"/>
    </clipPath>
    <clipPath id="clip-path-12">
      <rect id="Rectángulo_416046" data-name="Rectángulo 416046" width="17.243" height="20.544" fill="none"/>
    </clipPath>
    <clipPath id="clip-path-13">
      <rect id="Rectángulo_416047" data-name="Rectángulo 416047" width="17.242" height="19.939" fill="none"/>
    </clipPath>
  </defs>
  <g id="Enmascarar_grupo_1098834" data-name="Enmascarar grupo 1098834" transform="translate(-1019.749 -1392.541)" clip-path="url(#clip-path)">
    <g id="Grupo_1183305" data-name="Grupo 1183305" transform="translate(1029.663 1413.838)">
      <ellipse id="Elipse_12545" data-name="Elipse 12545" cx="190.5" cy="202.5" rx="190.5" ry="202.5" transform="translate(-0.413 25.703)" fill="#dce8fa"/>
      <g id="Grupo_1183304" data-name="Grupo 1183304" transform="translate(0.298)">
        <g id="Grupo_1183303" data-name="Grupo 1183303" clip-path="url(#clip-path-2)">
          <path id="Trazado_1044921" data-name="Trazado 1044921" d="M116.029,110.086l-3.8,29.474,31.839,15.021,12.641,186.357L32.057,284.449,47.374,154.354l32.187-13.372-2.2-25.184Z" transform="translate(-6.679 -18.32)" fill="#96b572"/>
          <g id="Grupo_1183302" data-name="Grupo 1183302">
            <g id="Grupo_1183301" data-name="Grupo 1183301" clip-path="url(#clip-path-2)">
              <path id="Trazado_1044922" data-name="Trazado 1044922" d="M173.543,163.464s12.81,2.234,18.345,17.014,9.963,112.853,9.963,112.853h-19.5Z" transform="translate(-36.156 -27.203)" fill="#ffd5b8"/>
              <path id="Trazado_1044923" data-name="Trazado 1044923" d="M85.272,143.216a19.5,19.5,0,0,0,7.287,6.888c7.551,4.015,16.8,3.007,24.578.3a45.525,45.525,0,0,0,13.555-7.365l-7.378-3.481,3.8-29.474L88.451,115.8l2.2,25.184Z" transform="translate(-17.766 -18.32)" fill="#ffd5b8"/>
              <g id="Grupo_1183273" data-name="Grupo 1183273" transform="translate(70.685 91.766)" opacity="0.5">
                <g id="Grupo_1183272" data-name="Grupo 1183272">
                  <g id="Grupo_1183271" data-name="Grupo 1183271" clip-path="url(#clip-path-4)">
                    <path id="Trazado_1044924" data-name="Trazado 1044924" d="M121.332,131.408c1.332-.342,2.666-.671,4-1l2.621-20.318L89.287,115.8,91.3,138.9c10.088-2.081,20.065-4.938,30.029-7.5" transform="translate(-89.287 -110.086)" fill="#f7b589"/>
                  </g>
                </g>
              </g>
              <path id="Trazado_1044925" data-name="Trazado 1044925" d="M65.834,63.852A7.182,7.182,0,0,1,60.917,61.8a9.831,9.831,0,0,1-3.259-5.7,7.075,7.075,0,0,1,1.914-6.184c-1.379-.117-2.131-1.818-2.707-3.143-.675-1.555-1.133-3.575-.025-4.826.9-1.016,2.4-1.014,3.721-.938-.606-.739-1.283-1.427-1.825-2.221a8.749,8.749,0,0,1-1.436-2.94,5.18,5.18,0,0,1,1.374-4.731,4.582,4.582,0,0,1,4.588-1.067c-.681-1.737-1.2-4.161-.443-5.862a4.222,4.222,0,0,1,4.712-2.121,10.259,10.259,0,0,1,.8-7.794,9.607,9.607,0,0,1,6.2-4.554,8.468,8.468,0,0,1,2.544-.152A8.363,8.363,0,0,1,82.6,12.48a3.566,3.566,0,0,1,2-3.275,5.538,5.538,0,0,1,4.895-.213,6.017,6.017,0,0,1,3.253,3.858,10.524,10.524,0,0,1,3.635-7.336,7.383,7.383,0,0,1,7.629-1.1,9.505,9.505,0,0,1,3.171,2.616,18.64,18.64,0,0,1,3.259,6.044,2.13,2.13,0,0,1,.869-2.136,5.093,5.093,0,0,1,2.381-.914,5.288,5.288,0,0,1,3.741.488c1.675,1.074,2.142,3.376,2.37,5.427a8.062,8.062,0,0,1,8.338-.35c2.568,1.463,3.974,5.14,2.584,7.843,1.627-.533,3.467.692,4.4,2.193a5.541,5.541,0,0,1,.193,5.141c3.073-.541,6.54,2.114,7.182,5.324a6.706,6.706,0,0,1-4.471,7.566c.985-.126,1.412.648,1.887,1.565a4.72,4.72,0,0,1,.248,4.046,2.854,2.854,0,0,1-3.309,1.667c2.24,1.929,1.76,5.667.169,8.212a10.1,10.1,0,0,1-7.354,4.3,32.081,32.081,0,0,1-8.64-.48c-17.945-2.491-37.105.117-55.191.889" transform="translate(-11.703 -0.632)" fill="#563935"/>
              <path id="Trazado_1044926" data-name="Trazado 1044926" d="M99.448,18.776c-18.98,0-34.366,13.947-34.366,33.7,0,0,.012,27.974,6,41.6s28.368,19.938,28.368,19.938,22.382-6.315,28.368-19.938,6-41.6,6-41.6c0-19.749-15.386-33.7-34.366-33.7" transform="translate(-13.559 -3.125)" fill="#ffd5b8"/>
              <path id="Trazado_1044927" data-name="Trazado 1044927" d="M52.286,63.381c8.086-1.59,9.094,6.809,9.094,6.809l.88,10.026S61.23,85,54.068,84.648c-4.683-.228-6.933-3.975-7.829-7.4-.02-.109-.041-.22-.059-.328a12.437,12.437,0,0,1-.222-1.482S44.2,64.971,52.286,63.381" transform="translate(-9.542 -10.514)" fill="#ffd5b8"/>
              <g id="Grupo_1183276" data-name="Grupo 1183276" transform="translate(36.257 54.539)" opacity="0.5">
                <g id="Grupo_1183275" data-name="Grupo 1183275">
                  <g id="Grupo_1183274" data-name="Grupo 1183274" clip-path="url(#clip-path-5)">
                    <path id="Trazado_1044928" data-name="Trazado 1044928" d="M53.86,78.8a7.391,7.391,0,0,1-6.294-6.7,11.689,11.689,0,0,1,.741-5.826,6.5,6.5,0,0,1,.431-.848c-3.944,3.434-2.777,10.385-2.777,10.385a12.517,12.517,0,0,0,.221,1.482c.018.108.04.218.059.328.9,3.424,3.146,7.172,7.83,7.4,7.161.348,8.191-4.432,8.191-4.432l-.429-4.9A8.382,8.382,0,0,1,53.86,78.8" transform="translate(-45.799 -65.427)" fill="#f7b589"/>
                  </g>
                </g>
              </g>
              <path id="Trazado_1044929" data-name="Trazado 1044929" d="M55.789,82.629a5.107,5.107,0,0,1-1.085-.117,6.1,6.1,0,0,1-4.6-6.344,4.494,4.494,0,0,1,1.825-3.273,4.933,4.933,0,0,1,4.879-.061.464.464,0,0,1,.207.6.42.42,0,0,1-.572.218,4.109,4.109,0,0,0-4.044,0,3.575,3.575,0,0,0-1.44,2.607,4.957,4.957,0,0,0,.763,3.048,5.053,5.053,0,0,0,3.16,2.318,4.279,4.279,0,0,0,3.673-.924,5.521,5.521,0,0,0,1.695-3.581,10.376,10.376,0,0,0-.534-4.185A10.905,10.905,0,0,0,57.886,69.3a5.9,5.9,0,0,0-3.16-2.125,4.913,4.913,0,0,0-4.429,1.26,6.02,6.02,0,0,0-1.792,4.518.443.443,0,0,1-.415.467.427.427,0,0,1-.443-.437,6.957,6.957,0,0,1,2.076-5.222,5.757,5.757,0,0,1,5.192-1.47,6.75,6.75,0,0,1,3.628,2.424,11.765,11.765,0,0,1,1.985,3.936,11.278,11.278,0,0,1,.572,4.566,6.442,6.442,0,0,1-2,4.178,5.03,5.03,0,0,1-3.312,1.232" transform="translate(-9.926 -11.01)" fill="#efad81"/>
              <path id="Trazado_1044930" data-name="Trazado 1044930" d="M159.931,63.381c-8.086-1.59-9.093,6.809-9.093,6.809l-.88,10.026s1.03,4.78,8.191,4.432c4.683-.228,6.933-3.975,7.829-7.4.02-.109.041-.22.059-.328a12.437,12.437,0,0,0,.222-1.482s1.759-10.467-6.327-12.057" transform="translate(-31.242 -10.514)" fill="#ffd5b8"/>
              <g id="Grupo_1183279" data-name="Grupo 1183279" transform="translate(118.716 54.539)" opacity="0.5">
                <g id="Grupo_1183278" data-name="Grupo 1183278">
                  <g id="Grupo_1183277" data-name="Grupo 1183277" clip-path="url(#clip-path-6)">
                    <path id="Trazado_1044931" data-name="Trazado 1044931" d="M158.359,78.8a7.391,7.391,0,0,0,6.294-6.7,11.689,11.689,0,0,0-.741-5.826,6.5,6.5,0,0,0-.431-.848c3.944,3.434,2.777,10.385,2.777,10.385a12.518,12.518,0,0,1-.221,1.482c-.018.108-.04.218-.059.328-.9,3.424-3.146,7.172-7.83,7.4-7.161.348-8.19-4.432-8.19-4.432l.429-4.9a8.383,8.383,0,0,0,7.971,3.111" transform="translate(-149.958 -65.427)" fill="#f7b589"/>
                  </g>
                </g>
              </g>
              <path id="Trazado_1044932" data-name="Trazado 1044932" d="M157.207,82.629a5.107,5.107,0,0,0,1.085-.117,6.1,6.1,0,0,0,4.6-6.344,4.494,4.494,0,0,0-1.825-3.273,4.933,4.933,0,0,0-4.879-.061.464.464,0,0,0-.207.6.42.42,0,0,0,.572.218,4.109,4.109,0,0,1,4.044,0,3.575,3.575,0,0,1,1.44,2.607,4.957,4.957,0,0,1-.763,3.048,5.053,5.053,0,0,1-3.16,2.318,4.279,4.279,0,0,1-3.673-.924,5.521,5.521,0,0,1-1.695-3.581,10.376,10.376,0,0,1,.534-4.185A10.9,10.9,0,0,1,155.11,69.3a5.9,5.9,0,0,1,3.16-2.125,4.913,4.913,0,0,1,4.429,1.26,6.02,6.02,0,0,1,1.792,4.518.443.443,0,0,0,.415.467.427.427,0,0,0,.443-.437,6.957,6.957,0,0,0-2.076-5.222,5.757,5.757,0,0,0-5.192-1.47,6.75,6.75,0,0,0-3.628,2.424,11.765,11.765,0,0,0-1.985,3.936,11.278,11.278,0,0,0-.572,4.566,6.442,6.442,0,0,0,2,4.178,5.03,5.03,0,0,0,3.312,1.232" transform="translate(-31.636 -11.01)" fill="#efad81"/>
              <path id="Trazado_1044933" data-name="Trazado 1044933" d="M88.6,84.51c0,3.116-4.35,5.642-9.717,5.642s-9.717-2.526-9.717-5.642,4.351-5.642,9.717-5.642S88.6,81.394,88.6,84.51" transform="translate(-14.411 -13.125)" fill="#dd9f8a"/>
              <path id="Trazado_1044934" data-name="Trazado 1044934" d="M142.78,84.51c0,3.116-4.35,5.642-9.717,5.642s-9.716-2.526-9.716-5.642,4.35-5.642,9.716-5.642,9.717,2.526,9.717,5.642" transform="translate(-25.698 -13.125)" fill="#dd9f8a"/>
              <path id="Trazado_1044935" data-name="Trazado 1044935" d="M84.9,63.052a.421.421,0,0,1-.335-.168,4.124,4.124,0,0,0-3.16-1.6,3.888,3.888,0,0,0-3.126,1.6.413.413,0,0,1-.606.057.468.468,0,0,1-.053-.637,4.772,4.772,0,0,1,3.793-1.926,4.924,4.924,0,0,1,3.821,1.932.469.469,0,0,1-.065.637.412.412,0,0,1-.269.1" transform="translate(-16.15 -10.049)" fill="#563935"/>
              <path id="Trazado_1044936" data-name="Trazado 1044936" d="M84.213,74.136c0,2.5-1.066,4.526-2.381,4.526s-2.38-2.026-2.38-4.526,1.066-4.526,2.38-4.526,2.381,2.026,2.381,4.526" transform="translate(-16.553 -11.584)" fill="#563935"/>
              <path id="Trazado_1044937" data-name="Trazado 1044937" d="M136.293,74.136c0,2.5-1.066,4.526-2.381,4.526s-2.379-2.026-2.379-4.526,1.065-4.526,2.379-4.526,2.381,2.026,2.381,4.526" transform="translate(-27.404 -11.584)" fill="#563935"/>
              <path id="Trazado_1044938" data-name="Trazado 1044938" d="M136.98,63.052a.421.421,0,0,1-.335-.168,4.125,4.125,0,0,0-3.161-1.6,3.888,3.888,0,0,0-3.125,1.6.414.414,0,0,1-.606.057.468.468,0,0,1-.053-.637,4.816,4.816,0,0,1,3.792-1.926,4.921,4.921,0,0,1,3.822,1.932.469.469,0,0,1-.065.637.412.412,0,0,1-.269.1" transform="translate(-27.001 -10.049)" fill="#563935"/>
              <path id="Trazado_1044939" data-name="Trazado 1044939" d="M109.685,65.717C107.61,61.348,105.9,61.6,105.9,61.6s-1.708-.257-3.783,4.113c-1.913,4.029-12.643,22.365.036,26.716a11.565,11.565,0,0,0,7.495,0c12.679-4.351,1.949-22.688.036-26.716" transform="translate(-20.013 -10.252)" fill="#f4a88e"/>
              <path id="Trazado_1044940" data-name="Trazado 1044940" d="M65.414,61.651a31.619,31.619,0,0,0,8.416-10.5A20.282,20.282,0,0,0,75.4,37.7c9.918,4.836,22.606,1.343,29.852-7.273A18.482,18.482,0,0,0,114.8,40.612a17.129,17.129,0,0,0,13.593.081A14.285,14.285,0,0,0,133.534,55.5s5.883-37.285-32.389-38.737c-47.378-1.8-35.731,44.884-35.731,44.884" transform="translate(-13.365 -2.782)" fill="#563935"/>
              <path id="Trazado_1044941" data-name="Trazado 1044941" d="M45.7,163.192s-13.1,6.268-17.461,19.222-10.86,61.376,13.024,68.3l-1.331-38.525Z" transform="translate(-5.001 -27.158)" fill="#ffd5b8"/>
              <path id="Trazado_1044942" data-name="Trazado 1044942" d="M99.237,110.523c-2.093.229-4.668,6.232-4.668,6.232s5.193-13.7,2.66-14.427a3.846,3.846,0,0,0-3.992,1.048s.887-5.86-1.188-6.282-5.76,6.478-5.76,6.478c1.308-3.636-.956-5.053-.956-5.053-3.063.054-11.1,16.522-15.655,26.4l0,0s-5.211-10.9-6.393-9.274,3.129,16.542,3.129,16.542L69.024,156.3a481.764,481.764,0,0,0-28.477,48.111c-15.04,28.85,6.1,37.017,6.1,37.017,36.1,4.35,34.31-81.375,34.31-81.375l10.892-18.413L94.44,130.43s6.89-20.135,4.8-19.907" transform="translate(-7.322 -16.155)" fill="#ffd5b8"/>
              <path id="Trazado_1044943" data-name="Trazado 1044943" d="M68.527,167.744a487.27,487.27,0,0,0-28.51,48.166c-5.9,11.317-7.039,20.849-3.388,28.327a.458.458,0,0,0,.411.264.438.438,0,0,0,.21-.054.5.5,0,0,0,.2-.654c-3.5-7.174-2.367-16.4,3.376-27.417a486.491,486.491,0,0,1,28.444-48.058.5.5,0,0,0-.1-.679.447.447,0,0,0-.644.1" transform="translate(-7.196 -27.882)" fill="#563935"/>
              <path id="Trazado_1044944" data-name="Trazado 1044944" d="M109.679,110.237a.7.7,0,0,0-.656-.293,4.343,4.343,0,0,0-2.495,1.957c1.1-3.523,2.176-7.864,1.436-9.429a1.24,1.24,0,0,0-.78-.709,4.3,4.3,0,0,0-3.526.423c.158-1.878.177-5.286-1.689-5.665-1.574-.322-3.648,2.427-4.991,4.556A3.975,3.975,0,0,0,95.4,98a.449.449,0,0,0-.243-.068c-.8.014-3.231.057-12.766,19.7a.5.5,0,0,0,.2.653.451.451,0,0,0,.621-.212c7.974-16.423,10.874-18.936,11.83-19.152.393.327,1.632,1.625.652,4.366l-9.089,19.593a.5.5,0,0,0,.212.649.44.44,0,0,0,.2.049.458.458,0,0,0,.414-.273l9.093-19.6c1.464-2.738,4.061-6.464,5.268-6.234,1.219.248,1.089,3.872.83,5.658l-9.505,20.311a.5.5,0,0,0,.21.65.45.45,0,0,0,.2.05.461.461,0,0,0,.414-.271l9.507-20.314a3.39,3.39,0,0,1,3.488-.859c.055.016.127.053.2.205.8,1.692-1.51,9.206-3.158,13.557L98.372,128.4a.5.5,0,0,0,.209.65.442.442,0,0,0,.2.051.459.459,0,0,0,.413-.271l5.617-11.955,0-.009,0-.007c.923-2.152,2.836-5.577,4.167-5.925.4,1.469-2.26,10.792-5.164,19.286l-2.574,11.137L90.4,159.7a.5.5,0,0,0,.148.669.437.437,0,0,0,.243.073.454.454,0,0,0,.391-.229L102.073,141.8a.487.487,0,0,0,.056-.142l2.578-11.163c1.482-4.33,6.218-18.586,4.972-20.261" transform="translate(-17.155 -16.058)" fill="#563935"/>
              <path id="Trazado_1044945" data-name="Trazado 1044945" d="M395.979,82.9l-8.51,43.684,23.965,13.559,11.732,123.206-53.881.146-47.674-.146,11.733-123.206L357.31,126.58,348.8,82.9Z" transform="translate(-67.005 -13.795)" fill="#935f5f"/>
              <path id="Trazado_1044946" data-name="Trazado 1044946" d="M397.626,111.176l5.509-28.28h-47.18l6.57,33.722c11.722-1.656,23.418-3.5,35.1-5.442" transform="translate(-74.16 -13.795)" fill="#825555"/>
              <path id="Trazado_1044947" data-name="Trazado 1044947" d="M435.074,151.567s11.735,3.27,16.911,18.969,15.439,116.931,15.439,116.931l-20.617-12.694Z" transform="translate(-90.644 -25.223)" fill="#935f5f"/>
              <path id="Trazado_1044948" data-name="Trazado 1044948" d="M443.4,209.715a92.5,92.5,0,0,1,15.832,3.414c-2.517-18.932-5.209-36.415-7.246-42.593-5.176-15.7-16.911-18.969-16.911-18.969l5.5,57.782c.941.119,1.883.235,2.822.366" transform="translate(-90.644 -25.223)" fill="#825555"/>
              <path id="Trazado_1044949" data-name="Trazado 1044949" d="M328.143,151.567s-11.735,3.27-16.911,18.969-14.586,104.382-14.586,104.382l19.765-.145Z" transform="translate(-61.804 -25.223)" fill="#935f5f"/>
              <path id="Trazado_1044950" data-name="Trazado 1044950" d="M321.4,207.7c1.131-.264,2.266-.5,3.4-.729l5.276-55.4s-11.736,3.27-16.911,18.968c-2.034,6.169-4.721,23.608-7.235,42.507A74.981,74.981,0,0,1,321.4,207.7" transform="translate(-63.738 -25.223)" fill="#825555"/>
              <path id="Trazado_1044951" data-name="Trazado 1044951" d="M303.054,203.473h21.481l4.943-51.906c-22.991,6.026-26.424,51.906-26.424,51.906" transform="translate(-63.139 -25.223)" fill="#cc6560"/>
              <path id="Trazado_1044952" data-name="Trazado 1044952" d="M437.859,201.293s-3.433-45.88-26.424-51.906l-19.3-10.92c-5.477,4.785-13.1,7.027-19.985,7.494-7.429.5-15.823-1.075-21.48-6.375l-17.324,9.8L321.612,272.593l47.674.145,53.881-.145-6.789-71.3Z" transform="translate(-67.005 -23.043)" fill="#acd384"/>
              <path id="Trazado_1044953" data-name="Trazado 1044953" d="M377.341,0c-19.108,0-34.6,14.041-34.6,33.923,0,0,.012,28.163,6.038,41.878s28.559,20.072,28.559,20.072S399.874,89.514,405.9,75.8s6.038-41.878,6.038-41.878c0-19.882-15.49-33.923-34.6-33.923" transform="translate(-71.408)" fill="#935f5f"/>
              <path id="Trazado_1044954" data-name="Trazado 1044954" d="M366.424,66.177c0,3.137-4.379,5.679-9.782,5.679s-9.783-2.542-9.783-5.679,4.379-5.679,9.783-5.679,9.782,2.542,9.782,5.679" transform="translate(-72.265 -10.068)" fill="#8c4d4d"/>
              <path id="Trazado_1044955" data-name="Trazado 1044955" d="M362.7,44.574a.423.423,0,0,1-.337-.169,4.151,4.151,0,0,0-3.181-1.607,3.917,3.917,0,0,0-3.148,1.613.417.417,0,0,1-.61.057.471.471,0,0,1-.054-.641,4.806,4.806,0,0,1,3.818-1.94,4.956,4.956,0,0,1,3.847,1.946.474.474,0,0,1-.065.641.419.419,0,0,1-.272.1" transform="translate(-74.018 -6.971)" fill="#563935"/>
              <path id="Trazado_1044956" data-name="Trazado 1044956" d="M362.01,55.733c0,2.517-1.073,4.556-2.4,4.556s-2.4-2.04-2.4-4.556,1.073-4.556,2.4-4.556,2.4,2.04,2.4,4.556" transform="translate(-74.423 -8.517)" fill="#563935"/>
              <path id="Trazado_1044957" data-name="Trazado 1044957" d="M420.965,66.177c0,3.137-4.379,5.679-9.782,5.679s-9.783-2.542-9.783-5.679,4.379-5.679,9.783-5.679,9.782,2.542,9.782,5.679" transform="translate(-83.628 -10.068)" fill="#8c4d4d"/>
              <path id="Trazado_1044958" data-name="Trazado 1044958" d="M414.441,55.733c0,2.517-1.073,4.556-2.4,4.556s-2.4-2.04-2.4-4.556,1.073-4.556,2.4-4.556,2.4,2.04,2.4,4.556" transform="translate(-85.346 -8.517)" fill="#563935"/>
              <path id="Trazado_1044959" data-name="Trazado 1044959" d="M415.132,44.574a.423.423,0,0,1-.337-.169,4.152,4.152,0,0,0-3.182-1.607,3.917,3.917,0,0,0-3.147,1.613.417.417,0,0,1-.61.057.471.471,0,0,1-.054-.641,4.85,4.85,0,0,1,3.817-1.94,4.957,4.957,0,0,1,3.848,1.946.474.474,0,0,1-.065.641.419.419,0,0,1-.272.1" transform="translate(-84.941 -6.971)" fill="#563935"/>
              <path id="Trazado_1044960" data-name="Trazado 1044960" d="M394.24,89.117A21.82,21.82,0,0,1,375.2,92.591a4.877,4.877,0,0,0,2.023,3.014,13.256,13.256,0,0,0,7.948,2.447,9.961,9.961,0,0,0,4.225-.648c2.775-1.206,4.46-5.152,4.848-8.287" transform="translate(-78.169 -14.831)" fill="#fff"/>
              <path id="Trazado_1044961" data-name="Trazado 1044961" d="M369.364,90.739a3.2,3.2,0,0,0,.058,2.024,2.274,2.274,0,0,0,2.487,1.124,6.044,6.044,0,0,0,2.557-1.385,5.447,5.447,0,0,0,5.068,2.771,5.559,5.559,0,0,0,4.594-3.572,4.413,4.413,0,0,0,4.683,1.773,4.7,4.7,0,0,0,3.279-3.943c1.921.507,3.959,1.012,5.848.387s3.447-2.845,2.707-4.779c-.552-1.44-2.08-2.145-3.49-2.6-7.724-2.489-25.262-2.906-27.79,8.2" transform="translate(-76.926 -13.495)" fill="#563935"/>
              <path id="Trazado_1044962" data-name="Trazado 1044962" d="M387.741,50.441c-2.25-4.738-4.1-4.46-4.1-4.46s-1.853-.278-4.1,4.46c-2.074,4.368-13.708,24.25.04,28.967a12.53,12.53,0,0,0,8.126,0c13.748-4.717,2.114-24.6.04-28.967" transform="translate(-77.704 -7.652)" fill="#7c4a4a"/>
              <path id="Trazado_1044963" data-name="Trazado 1044963" d="M335.538,39.1a7.4,7.4,0,0,1-1.112-4.734c.288-1.633,1.752-3.115,3.308-2.843a11.636,11.636,0,0,1-2.473-7.306c.165-2.635,1.924-5.267,4.4-5.693a9.995,9.995,0,0,1-.07-7.271,5.121,5.121,0,0,1,1.387-2.118,4.744,4.744,0,0,1,2.523-.962,8.856,8.856,0,0,1,4.689.734,5.736,5.736,0,0,1,1.882-6.01,5.069,5.069,0,0,1,6.011-.029,5.732,5.732,0,0,1,1.934,5.993,9.971,9.971,0,0,1,7.119-.312,6.194,6.194,0,0,1,3.992,5.79,7.672,7.672,0,0,1-2.016,4.419,14.167,14.167,0,0,1-11.836,5c1.359,0,2.278,1.7,2,3.1a5.433,5.433,0,0,1-2.525,3.225,13.207,13.207,0,0,1-7.976,2.237,7.829,7.829,0,0,1,1.07,6.16,5.546,5.546,0,0,1-4.3,4.1c1.845.769-1.57,2.764-3.023,2.108-2.041-.921-3.9-3.648-4.976-5.593" transform="translate(-69.66 -0.315)" fill="#563935"/>
              <path id="Trazado_1044964" data-name="Trazado 1044964" d="M329.863,44.9c8.141-1.6,9.155,6.855,9.155,6.855l.885,10.094s-1.037,4.811-8.246,4.461c-4.715-.228-6.981-4-7.882-7.449-.02-.11-.041-.222-.059-.331a12.363,12.363,0,0,1-.224-1.491s-1.77-10.539,6.37-12.139" transform="translate(-67.363 -7.439)" fill="#935f5f"/>
              <path id="Trazado_1044965" data-name="Trazado 1044965" d="M331.445,60.431a7.443,7.443,0,0,1-6.336-6.747,11.776,11.776,0,0,1,.747-5.866,6.537,6.537,0,0,1,.434-.853c-3.971,3.457-2.8,10.455-2.8,10.455a12.644,12.644,0,0,0,.223,1.491c.017.109.04.221.059.331.9,3.448,3.167,7.22,7.882,7.45,7.209.349,8.246-4.462,8.246-4.462L339.47,57.3a8.439,8.439,0,0,1-8.024,3.132" transform="translate(-67.363 -7.816)" fill="#825555"/>
              <path id="Trazado_1044966" data-name="Trazado 1044966" d="M333.389,64.283a5.115,5.115,0,0,1-1.092-.118,6.148,6.148,0,0,1-4.635-6.387,4.528,4.528,0,0,1,1.838-3.3,4.965,4.965,0,0,1,4.911-.061.466.466,0,0,1,.207.606.423.423,0,0,1-.576.219,4.135,4.135,0,0,0-4.071,0,3.6,3.6,0,0,0-1.449,2.625,4.993,4.993,0,0,0,.768,3.068,5.086,5.086,0,0,0,3.181,2.333,4.3,4.3,0,0,0,3.7-.93,5.557,5.557,0,0,0,1.706-3.605,10.435,10.435,0,0,0-.538-4.212,10.966,10.966,0,0,0-1.837-3.659,5.925,5.925,0,0,0-3.18-2.139,4.944,4.944,0,0,0-4.459,1.268,6.063,6.063,0,0,0-1.8,4.548.445.445,0,0,1-.417.47.431.431,0,0,1-.447-.439,7.005,7.005,0,0,1,2.091-5.257,5.794,5.794,0,0,1,5.226-1.48,6.794,6.794,0,0,1,3.653,2.44,11.872,11.872,0,0,1,2,3.963,11.382,11.382,0,0,1,.576,4.6,6.49,6.49,0,0,1-2.013,4.205,5.064,5.064,0,0,1-3.334,1.24" transform="translate(-67.75 -7.938)" fill="#563935"/>
              <path id="Trazado_1044967" data-name="Trazado 1044967" d="M429.262,39.1a7.4,7.4,0,0,0,1.112-4.734c-.288-1.633-1.752-3.115-3.308-2.843a11.636,11.636,0,0,0,2.473-7.306c-.165-2.635-1.924-5.267-4.4-5.693a9.995,9.995,0,0,0,.07-7.271,5.121,5.121,0,0,0-1.387-2.118,4.744,4.744,0,0,0-2.523-.962,8.856,8.856,0,0,0-4.689.734,5.735,5.735,0,0,0-1.882-6.01,5.069,5.069,0,0,0-6.011-.029,5.732,5.732,0,0,0-1.934,5.993,9.971,9.971,0,0,0-7.119-.312,6.194,6.194,0,0,0-3.992,5.79,7.672,7.672,0,0,0,2.016,4.419,14.167,14.167,0,0,0,11.836,5c-1.359,0-2.278,1.7-2,3.1a5.433,5.433,0,0,0,2.525,3.225,13.207,13.207,0,0,0,7.976,2.237,7.829,7.829,0,0,0-1.07,6.16,5.546,5.546,0,0,0,4.3,4.1c-1.845.769,1.57,2.764,3.023,2.108,2.041-.921,3.9-3.648,4.976-5.593" transform="translate(-82.434 -0.315)" fill="#563935"/>
              <path id="Trazado_1044968" data-name="Trazado 1044968" d="M438.607,44.9c-8.141-1.6-9.156,6.855-9.156,6.855l-.886,10.094s1.037,4.811,8.247,4.461c4.715-.228,6.981-4,7.882-7.449.02-.11.041-.222.059-.331a12.773,12.773,0,0,0,.224-1.491s1.769-10.539-6.37-12.139" transform="translate(-89.288 -7.439)" fill="#935f5f"/>
              <path id="Trazado_1044969" data-name="Trazado 1044969" d="M442.768,47.663a9.965,9.965,0,0,1,1.4,6.513c-.461,3.1-2.694,6.086-5.658,6.824a8.6,8.6,0,0,1-9.414-4.65l-.526,6s1.037,4.812,8.246,4.462c4.715-.228,6.98-4,7.882-7.449.02-.11.041-.222.059-.331a12.515,12.515,0,0,0,.222-1.492s1.05-6.272-2.209-9.873" transform="translate(-89.288 -7.932)" fill="#825555"/>
              <path id="Trazado_1044970" data-name="Trazado 1044970" d="M435.864,64.283a5.065,5.065,0,0,1-3.334-1.24,6.492,6.492,0,0,1-2.013-4.205,11.381,11.381,0,0,1,.576-4.6,11.88,11.88,0,0,1,2-3.963,6.794,6.794,0,0,1,3.653-2.44,5.786,5.786,0,0,1,5.226,1.48,7,7,0,0,1,2.091,5.257.444.444,0,0,1-.432.44h-.015a.446.446,0,0,1-.418-.47,6.055,6.055,0,0,0-1.8-4.548,4.944,4.944,0,0,0-4.46-1.268,5.926,5.926,0,0,0-3.179,2.139,10.967,10.967,0,0,0-1.838,3.659,10.447,10.447,0,0,0-.537,4.212,5.557,5.557,0,0,0,1.706,3.605,4.31,4.31,0,0,0,3.7.93,5.082,5.082,0,0,0,3.181-2.333,4.992,4.992,0,0,0,.769-3.069,3.6,3.6,0,0,0-1.45-2.624,4.14,4.14,0,0,0-4.071,0,.425.425,0,0,1-.576-.219.466.466,0,0,1,.208-.606,4.961,4.961,0,0,1,4.911.061,4.527,4.527,0,0,1,1.837,3.3,6.146,6.146,0,0,1-4.634,6.387,5.122,5.122,0,0,1-1.092.118" transform="translate(-89.685 -7.938)" fill="#563935"/>
              <path id="Trazado_1044971" data-name="Trazado 1044971" d="M112.952,181.454c3.409,10.631,10.876,19.783,12.347,30.9,1.36,10.277-2.951,20.956-10.326,27.838s-17.492,10.092-27.339,9.7a11.13,11.13,0,0,1-5.877-1.495c-1.909-1.285-3.053-3.5-3.984-5.669a59.949,59.949,0,0,1-2.532-39.342c1.984-7.045,5.421-13.847,10.865-18.446s13.11-6.653,19.632-4.039" transform="translate(-15.22 -29.913)" fill="#563935"/>
              <path id="Trazado_1044972" data-name="Trazado 1044972" d="M136.38,298.472s11.561,3.222,16.66,18.688S167.411,420,167.411,420l-19.472-.143Z" transform="translate(-28.414 -49.671)" fill="#935f5f"/>
              <path id="Trazado_1044973" data-name="Trazado 1044973" d="M97.864,230.816,89.48,273.854l23.61,13.358L124.65,408.6l-53.084.143L24.6,408.6,36.156,287.212l23.611-13.358-8.384-43.038Z" transform="translate(-5.125 -38.412)" fill="#935f5f"/>
              <path id="Trazado_1044974" data-name="Trazado 1044974" d="M99.255,259.862l5.658-29.044H58.432L65.7,268.131c11.287-2.244,22.446-5.149,33.554-8.269" transform="translate(-12.174 -38.412)" fill="#825555"/>
              <path id="Trazado_1044975" data-name="Trazado 1044975" d="M31.031,298.472s-11.561,3.222-16.66,18.688S0,420,0,420l19.472-.143Z" transform="translate(0 -49.671)" fill="#935f5f"/>
              <path id="Trazado_1044976" data-name="Trazado 1044976" d="M73.172,316.888c-11.781-4.642-23.212-12.251-29.109-23.783l-7.907,4.474L24.6,418.962l46.969.143,53.084-.143-8.913-93.6c-14.494-.708-29.067-3.153-42.564-8.472" transform="translate(-5.125 -48.778)" fill="#eddb72"/>
              <path id="Trazado_1044977" data-name="Trazado 1044977" d="M41.369,203.575a78.79,78.79,0,0,0-9.742,31.218,36.326,36.326,0,0,0,.635,12.655c1.083,4.094,3.414,7.952,6.906,10.081A21.712,21.712,0,0,0,26,267a30.619,30.619,0,0,0-4.717,16.216,18.229,18.229,0,0,0,1.5,8.313c2.274,4.65,7.146,7.092,11.69,9.2-3.485,2.565-7.141,5.345-8.794,9.47-2.328,5.808.3,13,5.224,16.59s11.55,3.9,17.225,1.895c4.043-1.431,8.065-4.486,8.712-8.925,6.834,2.306,15.034-2.827,16.372-10.251s-4.5-15.365-11.663-15.858A16.843,16.843,0,0,0,67.2,282.9c.383-4.181-1.293-8.64-4.61-10.975l-3.52-2.606-5.3-27.206s-8.153-5.683-10.178-17.991a165.356,165.356,0,0,1-2.229-20.548" transform="translate(-4.432 -33.878)" fill="#563935"/>
              <path id="Trazado_1044978" data-name="Trazado 1044978" d="M79.5,149.147c-18.825,0-34.086,13.833-34.086,33.421,0,0,.012,27.747,5.949,41.257S79.5,243.6,79.5,243.6s22.2-6.264,28.136-19.775,5.949-41.257,5.949-41.257c0-19.588-15.261-33.421-34.086-33.421" transform="translate(-9.462 -24.821)" fill="#935f5f"/>
              <path id="Trazado_1044979" data-name="Trazado 1044979" d="M139.861,193.387c-8.02-1.576-9.019,6.753-9.019,6.753l-.872,9.945s1.022,4.741,8.124,4.4c4.645-.226,6.877-3.943,7.765-7.34.019-.108.04-.218.058-.326a12.393,12.393,0,0,0,.22-1.47s1.744-10.382-6.275-11.959" transform="translate(-27.078 -32.15)" fill="#935f5f"/>
              <path id="Trazado_1044980" data-name="Trazado 1044980" d="M143.96,196.105a9.815,9.815,0,0,1,1.376,6.417c-.454,3.052-2.654,6-5.575,6.722a8.474,8.474,0,0,1-9.273-4.581l-.519,5.908s1.022,4.741,8.124,4.4c4.645-.225,6.877-3.943,7.765-7.339.019-.108.04-.218.058-.326a12.394,12.394,0,0,0,.22-1.47s1.035-6.179-2.176-9.727" transform="translate(-27.078 -32.635)" fill="#825555"/>
              <path id="Trazado_1044981" data-name="Trazado 1044981" d="M137.158,212.479a4.99,4.99,0,0,1-3.285-1.222,6.4,6.4,0,0,1-1.983-4.144,11.2,11.2,0,0,1,.568-4.528,11.679,11.679,0,0,1,1.97-3.9,6.687,6.687,0,0,1,3.6-2.4,5.7,5.7,0,0,1,5.148,1.457,6.9,6.9,0,0,1,2.06,5.179.437.437,0,0,1-.426.434h-.014a.44.44,0,0,1-.412-.463,5.966,5.966,0,0,0-1.776-4.481,4.868,4.868,0,0,0-4.395-1.25,5.842,5.842,0,0,0-3.133,2.107,10.807,10.807,0,0,0-1.811,3.605,10.3,10.3,0,0,0-.53,4.15,5.471,5.471,0,0,0,1.681,3.551,4.247,4.247,0,0,0,3.642.917,5,5,0,0,0,3.133-2.3,4.912,4.912,0,0,0,.758-3.023,3.544,3.544,0,0,0-1.428-2.585,4.081,4.081,0,0,0-4.011,0,.417.417,0,0,1-.567-.216.459.459,0,0,1,.206-.6,4.886,4.886,0,0,1,4.839.06,4.459,4.459,0,0,1,1.81,3.247,6.056,6.056,0,0,1-4.565,6.293,5.08,5.08,0,0,1-1.077.116" transform="translate(-27.469 -32.641)" fill="#563935"/>
              <path id="Trazado_1044982" data-name="Trazado 1044982" d="M32.724,193.387c8.02-1.576,9.019,6.753,9.019,6.753l.872,9.945s-1.021,4.741-8.124,4.4c-4.645-.226-6.877-3.943-7.765-7.34-.019-.108-.04-.218-.058-.326a12.391,12.391,0,0,1-.22-1.47s-1.744-10.382,6.275-11.959" transform="translate(-5.477 -32.15)" fill="#935f5f"/>
              <path id="Trazado_1044983" data-name="Trazado 1044983" d="M34.285,208.684a7.331,7.331,0,0,1-6.242-6.647,11.6,11.6,0,0,1,.735-5.779,6.44,6.44,0,0,1,.427-.84c-3.912,3.405-2.755,10.3-2.755,10.3a12.267,12.267,0,0,0,.219,1.47c.018.108.04.218.059.326.888,3.4,3.12,7.114,7.765,7.339,7.1.345,8.124-4.4,8.124-4.4L42.19,205.6a8.315,8.315,0,0,1-7.906,3.085" transform="translate(-5.477 -32.521)" fill="#825555"/>
              <path id="Trazado_1044984" data-name="Trazado 1044984" d="M36.2,212.479a5.076,5.076,0,0,1-1.077-.116,6.058,6.058,0,0,1-4.566-6.293,4.465,4.465,0,0,1,1.811-3.247,4.89,4.89,0,0,1,4.839-.06.459.459,0,0,1,.205.6.416.416,0,0,1-.567.216,4.073,4.073,0,0,0-4.011,0,3.544,3.544,0,0,0-1.428,2.585,4.914,4.914,0,0,0,.757,3.023,5.007,5.007,0,0,0,3.133,2.3,4.242,4.242,0,0,0,3.643-.917,5.475,5.475,0,0,0,1.681-3.551,10.273,10.273,0,0,0-.53-4.15,10.8,10.8,0,0,0-1.81-3.605,5.841,5.841,0,0,0-3.133-2.107,4.872,4.872,0,0,0-4.394,1.25,5.971,5.971,0,0,0-1.777,4.481.439.439,0,0,1-.412.463.424.424,0,0,1-.439-.433,6.9,6.9,0,0,1,2.059-5.179,5.708,5.708,0,0,1,5.149-1.457,6.691,6.691,0,0,1,3.6,2.4,11.677,11.677,0,0,1,1.97,3.9,11.2,11.2,0,0,1,.568,4.528,6.393,6.393,0,0,1-1.983,4.144,4.99,4.99,0,0,1-3.285,1.222" transform="translate(-5.859 -32.641)" fill="#563935"/>
              <path id="Trazado_1044985" data-name="Trazado 1044985" d="M81.418,249.244a.407.407,0,0,1-.26-.093.465.465,0,0,1-.078-.629A19.075,19.075,0,0,1,96.7,240.687a.44.44,0,0,1,.416.46.42.42,0,0,1-.437.438,18.261,18.261,0,0,0-14.921,7.485.418.418,0,0,1-.338.175" transform="translate(-16.874 -40.053)" fill="#563935"/>
              <path id="Trazado_1044986" data-name="Trazado 1044986" d="M68.747,214.345c0,3.09-4.315,5.595-9.638,5.595s-9.637-2.5-9.637-5.595,4.315-5.6,9.637-5.6,9.638,2.5,9.638,5.6" transform="translate(-10.307 -34.74)" fill="#8c4d4d"/>
              <path id="Trazado_1044987" data-name="Trazado 1044987" d="M65.078,193.061a.419.419,0,0,1-.333-.167,4.092,4.092,0,0,0-3.134-1.583,3.856,3.856,0,0,0-3.1,1.589.409.409,0,0,1-.6.056.465.465,0,0,1-.054-.632,4.737,4.737,0,0,1,3.762-1.911,4.888,4.888,0,0,1,3.791,1.916.468.468,0,0,1-.065.632.411.411,0,0,1-.267.1" transform="translate(-12.033 -31.688)" fill="#563935"/>
              <path id="Trazado_1044988" data-name="Trazado 1044988" d="M64.4,204.056c0,2.479-1.057,4.49-2.361,4.49s-2.361-2.011-2.361-4.49,1.057-4.49,2.361-4.49,2.361,2.011,2.361,4.49" transform="translate(-12.433 -33.211)" fill="#563935"/>
              <path id="Trazado_1044989" data-name="Trazado 1044989" d="M122.481,214.345c0,3.09-4.315,5.595-9.638,5.595s-9.637-2.5-9.637-5.595,4.315-5.6,9.637-5.6,9.638,2.5,9.638,5.6" transform="translate(-21.502 -34.74)" fill="#8c4d4d"/>
              <path id="Trazado_1044990" data-name="Trazado 1044990" d="M116.051,204.056c0,2.479-1.057,4.49-2.361,4.49s-2.361-2.011-2.361-4.49,1.057-4.49,2.361-4.49,2.361,2.011,2.361,4.49" transform="translate(-23.195 -33.211)" fill="#563935"/>
              <path id="Trazado_1044991" data-name="Trazado 1044991" d="M116.734,193.061a.419.419,0,0,1-.333-.167,4.09,4.09,0,0,0-3.135-1.583,3.855,3.855,0,0,0-3.1,1.589.411.411,0,0,1-.6.056.465.465,0,0,1-.053-.632,4.779,4.779,0,0,1,3.761-1.911,4.883,4.883,0,0,1,3.791,1.916.467.467,0,0,1-.064.632.413.413,0,0,1-.268.1" transform="translate(-22.795 -31.688)" fill="#563935"/>
              <path id="Trazado_1044992" data-name="Trazado 1044992" d="M89.2,198.306c-1.189-5.007-2.168-4.713-2.168-4.713s-.978-.294-2.168,4.713c-.713,3-3.567,12.955-3.47,20.911.094,7.685,11.181,7.685,11.275,0,.1-7.957-2.756-17.907-3.469-20.911" transform="translate(-16.956 -32.217)" fill="#7c4a4a"/>
              <path id="Trazado_1044993" data-name="Trazado 1044993" d="M79.487,147.674v-.065c-.141.009-.275.023-.414.033-.14-.009-.273-.023-.414-.033v.065c-45.026,3.372-32.969,47.8-32.969,47.8a16.258,16.258,0,0,1,6.239-10.938c5.4-4,12.652-3.766,18.431-7.093a19.189,19.189,0,0,0,8.713-11.769,19.189,19.189,0,0,0,8.713,11.769c5.779,3.327,13.034,3.093,18.431,7.093a16.258,16.258,0,0,1,6.239,10.938s12.058-44.427-32.969-47.8" transform="translate(-9.213 -24.565)" fill="#563935"/>
              <path id="Trazado_1044994" data-name="Trazado 1044994" d="M177.9,116.058c.3.2.615.383.921.577l12.018-25.829L176.889,82.28s-6.363,8.949-14.641,20.84A73.034,73.034,0,0,0,177.9,116.058" transform="translate(-33.803 -13.693)" fill="#ffd5b8"/>
              <path id="Trazado_1044995" data-name="Trazado 1044995" d="M191.211,81.109s4.064-19.8-5.523-28.647l-8.05-2.793L171.2,39.742s7.935-14.367,6.62-15.66-13.8,15.858-13.8,15.858l13.051,32.914Z" transform="translate(-34.171 -3.996)" fill="#ffd5b8"/>
              <path id="Trazado_1044996" data-name="Trazado 1044996" d="M175.578,42.838l3.753-9.168s11.133-10.555,12.211-9.206-8.724,12.073-8.724,12.073-2.46,8.938.43,14.3l-3.327,2.216Z" transform="translate(-36.58 -4.051)" fill="#ffd5b8"/>
              <path id="Trazado_1044997" data-name="Trazado 1044997" d="M185.266,52.152l1.193-11.666s8.814-9.435,10.827-8.1-6.112,9.645-6.112,9.645l.69,13.856Z" transform="translate(-38.599 -5.368)" fill="#ffd5b8"/>
              <path id="Trazado_1044998" data-name="Trazado 1044998" d="M188.906,53.833a13.655,13.655,0,0,0-4.328-3.151,14.3,14.3,0,0,0-4.967-1.3c-2.061-3.235-4.175-6.432-6.275-9.638.652-1.2,1.321-2.384,1.932-3.607.654-1.27,1.288-2.554,1.885-3.858s1.168-2.621,1.651-3.977a21.3,21.3,0,0,0,.641-2.065,7.945,7.945,0,0,0,.208-1.065,2.277,2.277,0,0,0-.039-1.074,2.248,2.248,0,0,1-.028,1.063,9.444,9.444,0,0,1-.264,1.039,20.772,20.772,0,0,1-.73,2.012c-.549,1.316-1.151,2.609-1.787,3.883s-1.3,2.535-1.985,3.779L172.748,39.6l-.093.167.1.16c2.133,3.318,4.25,6.649,6.427,9.937l.088.133.162.008a13.713,13.713,0,0,1,4.919,1.221,13.924,13.924,0,0,1,4.242,2.937,15.191,15.191,0,0,1,2.966,4.378,22.113,22.113,0,0,1,1.592,5.175,20.663,20.663,0,0,0-1.347-5.293,14.835,14.835,0,0,0-2.9-4.589" transform="translate(-35.971 -4.01)" fill="#563935"/>
              <path id="Trazado_1044999" data-name="Trazado 1044999" d="M183.612,45.11c.009-.954.026-1.907.126-2.856a37.75,37.75,0,0,1,.959-5.529c.835-.891,1.665-1.789,2.453-2.727.821-.947,1.624-1.912,2.4-2.9s1.5-2.031,2.178-3.1a15.349,15.349,0,0,0,.922-1.67,3.622,3.622,0,0,0,.492-1.836,1.856,1.856,0,0,1-.227.905,6.84,6.84,0,0,1-.432.833c-.31.543-.679,1.049-1.037,1.56-.727,1.014-1.5,1.991-2.315,2.936-.786.966-1.6,1.91-2.434,2.835l-2.5,2.777-.059.064-.017.073a29.122,29.122,0,0,0-.831,5.749,19.059,19.059,0,0,0,.532,5.753,22.169,22.169,0,0,1-.21-2.863" transform="translate(-38.181 -4.075)" fill="#563935"/>
              <path id="Trazado_1045000" data-name="Trazado 1045000" d="M198.755,32.41a1.538,1.538,0,0,1,.119,1.412,5.838,5.838,0,0,1-.621,1.336,15.793,15.793,0,0,1-1.743,2.38c-.637.75-1.29,1.49-1.983,2.188-.671.723-1.412,1.371-2.1,2.081l-.114.118.01.148c.117,1.773.189,3.549.344,5.32.136,1.772.29,3.544.5,5.311.036-1.781.013-3.559-.027-5.337-.021-1.727-.12-3.45-.18-5.175.68-.652,1.347-1.318,1.986-2.016a28.459,28.459,0,0,0,1.955-2.282,16.273,16.273,0,0,0,1.634-2.564,5.84,5.84,0,0,0,.507-1.461,1.537,1.537,0,0,0-.295-1.457" transform="translate(-40.067 -5.394)" fill="#563935"/>
              <path id="Trazado_1045001" data-name="Trazado 1045001" d="M288.3,81.109s-7.285-23.209,5.523-28.647l8.05-2.793,6.441-9.928s-7.935-14.367-6.62-15.66S315.5,39.94,315.5,39.94L302.448,72.854Z" transform="translate(-59.636 -3.996)" fill="#ffd5b8"/>
              <path id="Trazado_1045002" data-name="Trazado 1045002" d="M307.413,42.838,303.66,33.67s-11.133-10.555-12.211-9.206,8.724,12.073,8.724,12.073,2.46,8.938-.43,14.3l3.327,2.216Z" transform="translate(-60.704 -4.051)" fill="#ffd5b8"/>
              <path id="Trazado_1045003" data-name="Trazado 1045003" d="M298.7,52.152l-1.193-11.666s-8.814-9.435-10.827-8.1,6.112,9.645,6.112,9.645l-.629,12.644Z" transform="translate(-59.661 -5.368)" fill="#ffd5b8"/>
              <path id="Trazado_1045004" data-name="Trazado 1045004" d="M316.568,101.869C308.72,90.608,302.8,82.279,302.8,82.279l-13.953,8.527L300.1,114.988c5.446-4.437,10.9-8.859,16.471-13.119" transform="translate(-60.178 -13.693)" fill="#ffd5b8"/>
              <path id="Trazado_1045005" data-name="Trazado 1045005" d="M308.985,39.6l-2.075-3.728c-.687-1.245-1.355-2.5-1.984-3.779s-1.238-2.567-1.788-3.883a21,21,0,0,1-.73-2.012,9.619,9.619,0,0,1-.264-1.039,2.25,2.25,0,0,1-.028-1.064,2.28,2.28,0,0,0-.039,1.074,7.829,7.829,0,0,0,.209,1.065,20.87,20.87,0,0,0,.641,2.065c.483,1.356,1.041,2.682,1.651,3.977s1.231,2.587,1.886,3.858c.61,1.223,1.279,2.41,1.932,3.606-2.1,3.207-4.215,6.4-6.275,9.639a14.3,14.3,0,0,0-4.968,1.3,13.656,13.656,0,0,0-4.328,3.151,14.835,14.835,0,0,0-2.9,4.589,20.694,20.694,0,0,0-1.347,5.293,22.076,22.076,0,0,1,1.593-5.175,15.172,15.172,0,0,1,2.965-4.378,13.924,13.924,0,0,1,4.242-2.937A13.713,13.713,0,0,1,302.3,50L302.46,50l.088-.133c2.176-3.288,4.293-6.619,6.427-9.937l.1-.16Z" transform="translate(-60.123 -4.01)" fill="#563935"/>
              <path id="Trazado_1045006" data-name="Trazado 1045006" d="M292.8,28c.681,1.069,1.412,2.1,2.178,3.1s1.579,1.956,2.4,2.9c.789.939,1.619,1.836,2.453,2.728a37.509,37.509,0,0,1,.959,5.528c.1.949.117,1.9.127,2.856a22.019,22.019,0,0,1-.211,2.863,19.057,19.057,0,0,0,.533-5.752,29.173,29.173,0,0,0-.831-5.75l-.018-.073-.058-.064-2.5-2.776c-.832-.926-1.647-1.869-2.434-2.836-.811-.944-1.587-1.921-2.314-2.936-.359-.51-.727-1.016-1.037-1.559a6.9,6.9,0,0,1-.432-.834,1.848,1.848,0,0,1-.228-.905,3.638,3.638,0,0,0,.492,1.836A15.357,15.357,0,0,0,292.8,28" transform="translate(-60.704 -4.075)" fill="#563935"/>
              <path id="Trazado_1045007" data-name="Trazado 1045007" d="M290.388,40.175c.639.7,1.306,1.365,1.986,2.016-.059,1.726-.158,3.449-.18,5.176-.04,1.777-.062,3.555-.027,5.337.213-1.768.367-3.539.5-5.312.155-1.771.227-3.547.344-5.32l.01-.148-.114-.118c-.685-.71-1.426-1.359-2.1-2.081-.694-.7-1.347-1.438-1.983-2.188a15.74,15.74,0,0,1-1.743-2.379,5.86,5.86,0,0,1-.621-1.337,1.538,1.538,0,0,1,.119-1.412,1.537,1.537,0,0,0-.294,1.457,5.843,5.843,0,0,0,.507,1.462,16.264,16.264,0,0,0,1.634,2.563,28.174,28.174,0,0,0,1.955,2.282" transform="translate(-59.635 -5.394)" fill="#563935"/>
              <path id="Trazado_1045008" data-name="Trazado 1045008" d="M258.494,244.1l-.392-23.853-19.356-.535V219.7l-.123,0-.124,0v.007L220.856,222.2l-1.207,19.293c12.006,5.628,25.825,5.342,38.845,2.607" transform="translate(-45.762 -36.562)" fill="#ffd5b8"/>
              <path id="Trazado_1045009" data-name="Trazado 1045009" d="M320.743,163.6c-3.011-9.52-42.164-63.769-42.164-63.769l-19.324,16.866,24.259,49.872-38.1,75.82-7.622-3.634-.4-21.18-21.246-.65v-.007l-.123,0-.123,0v.007l-20.37.615-1.279,21.206-7.623,3.63L148.56,166.538l24.278-49.862L153.52,99.8s-39.172,54.233-42.187,63.752,50.4,104.21,50.4,104.21L150.4,386.318l65.469.013h.246l65.469.013L270.3,267.786s53.454-94.669,50.442-104.19" transform="translate(-23.17 -16.609)" fill="#e86a3d"/>
              <path id="Trazado_1045010" data-name="Trazado 1045010" d="M153,112.189a.43.43,0,0,0,.058.07.4.4,0,0,0,.052.065l21.63,17.824c.006.006.016,0,.023.008s.028.028.045.038a.4.4,0,0,0,.4-.009,8.107,8.107,0,0,1,.137-.116.385.385,0,0,0,.023-.048c.006-.01.017-.014.021-.025l6.429-13.2c.006-.013.006-.028.011-.041a.526.526,0,0,0,.023-.086.458.458,0,0,0,.008-.087.412.412,0,0,0-.01-.083.431.431,0,0,0-.024-.085.531.531,0,0,0-.038-.073.442.442,0,0,0-.055-.073c-.009-.01-.014-.023-.025-.032l-13.154-11.49a.34.34,0,0,0-.035-.042.242.242,0,0,0-.032-.017L166.568,103a.449.449,0,0,0-.128-.2.409.409,0,0,0-.192-.085l-3.85-3.363s-.007,0-.01-.006l-.007-.008a.34.34,0,0,0-.06-.03.43.43,0,0,0-.087-.044.408.408,0,0,0-.063-.007.382.382,0,0,0-.1-.005.357.357,0,0,0-.064.02.4.4,0,0,0-.092.033.546.546,0,0,0-.062.053.438.438,0,0,0-.063.053l0,.011-.008.007-8.735,12.245-.006.007a.447.447,0,0,0-.036.08.442.442,0,0,0-.036.079.46.46,0,0,0-.006.1.476.476,0,0,0,0,.075.487.487,0,0,0,.028.093.553.553,0,0,0,.024.073m.979-.308,8.212-11.511,1.041.909-8.275,11.408Zm1.66,1.368,8.26-11.387,1.629,1.423-8.388,11.2Zm2.185,1.8,8.372-11.181,1.461,1.276-8.2,11.253Zm2.319,1.911,8.182-11.233,1.391,1.215-7.913,11.386Zm2.343,1.931,7.9-11.364,1.562,1.365L164.3,120.379Zm2.491,2.053,7.638-11.468,1.531,1.337L166.5,122.194Zm2.2,1.815,7.636-11.361,1.514,1.321-7.318,11.549Zm2.517,2.074L177,113.3l1.537,1.342-6.686,11.959Zm2.843,2.342,6.673-11.937,1.679,1.466-6.03,12.384Z" transform="translate(-31.866 -16.518)" fill="#cc512b"/>
              <path id="Trazado_1045011" data-name="Trazado 1045011" d="M259.949,262.144a.528.528,0,0,0,.016-.093c0-.006,0-.011,0-.017l-.394-21.18c0-.016-.009-.028-.011-.044a.439.439,0,0,0-.41-.4l-21.369-.654-.013,0-.013,0-14.808.447a.414.414,0,0,0-.278-.125h-.013a.419.419,0,0,0-.312.143l-2.4.072a.425.425,0,0,0-.338-.217.411.411,0,0,0-.4.239l-1.939.058a.413.413,0,0,0-.1.024.316.316,0,0,0-.04.009.423.423,0,0,0-.112.069c-.01.008-.021.014-.03.023a.48.48,0,0,0-.067.089.4.4,0,0,0-.033.057.447.447,0,0,0-.025.093.409.409,0,0,0-.017.063l-1.279,21.206,0,.01a.449.449,0,0,0,.013.1.526.526,0,0,0,.013.073.418.418,0,0,0,.04.072.443.443,0,0,0,.047.077,2.225,2.225,0,0,0,.136.105l.008.006c.041.019.926.422,2.517.968a.413.413,0,0,0,.131.044c.891.3,1.991.645,3.278.989a.4.4,0,0,0,.2.067h.013c.007,0,.013,0,.02,0,.826.217,1.729.433,2.7.639a.4.4,0,0,0,.2.067h.015a.5.5,0,0,0,.051-.01c1.04.217,2.157.42,3.343.6a.409.409,0,0,0,.2.059h0a.432.432,0,0,0,.08-.017c1.03.151,2.109.284,3.237.39a.407.407,0,0,0,.184.049h0a.413.413,0,0,0,.105-.022c1.226.11,2.506.187,3.834.223a.406.406,0,0,0,.2.056h0a.4.4,0,0,0,.178-.045c.448.01.9.017,1.359.017.61,0,1.237-.018,1.864-.037a.4.4,0,0,0,.141.03.425.425,0,0,0,.169-.036c1.252-.043,2.541-.135,3.857-.263a.407.407,0,0,0,.1.021h.017a.42.42,0,0,0,.179-.051c1.077-.111,2.171-.25,3.285-.425a.375.375,0,0,0,.053.011.13.13,0,0,0,.025,0,.419.419,0,0,0,.164-.045q1.936-.313,3.939-.769l.01,0,.038,0a.417.417,0,0,0,.169-.054q1.478-.344,2.988-.778h.026a.4.4,0,0,0,.195-.066c.849-.247,1.7-.512,2.563-.8a.416.416,0,0,0,.152-.053c.69-.235,1.378-.466,2.076-.731,0,0,.007-.006.012-.008a.42.42,0,0,0,.086-.054.489.489,0,0,0,.057-.042.45.45,0,0,0,.052-.076.265.265,0,0,0,.061-.148m-16.628-21.307,2.218.068,1.342,24.007c-.9.138-1.786.249-2.662.343Zm.033,24.5q-1.655.154-3.243.215l.006-24.817,2.333.072Zm3.055-24.41,2.7.083,1.906,23.119c-1.106.248-2.194.455-3.27.635Zm3.569.109,3.236.1a.5.5,0,0,0-.013.1l1.024,22.076q-1.19.336-2.36.616Zm4.088.153c0-.01-.006-.018-.006-.027l2.115.065a.454.454,0,0,0-.019.128l.791,21.123c-.625.208-1.248.408-1.866.592Zm2.957.128a.436.436,0,0,0-.015-.065l1.705.052.381,20.412c-.431.162-.861.313-1.29.463Zm-39.338-.048,1.433-.043-.976,21.158c-.805-.287-1.379-.518-1.691-.651Zm2.3-.069,2.219-.067-.659,22.321c-.975-.269-1.826-.534-2.552-.775Zm3.088-.093,2.2-.067-.8,23.137c-.732-.161-1.426-.327-2.072-.493Zm3.072-.093,1.876-.057.032,23.892c-.953-.15-1.858-.315-2.713-.489Zm2.744-.083,2.907-.088-.231,24.456c-.912-.091-1.8-.2-2.643-.317Zm3.775-.114,2.8-.085.225,24.84c-1.124-.037-2.21-.1-3.259-.192Zm3.895,24.774-.226-24.885,1.435-.043,1.481.045-.006,24.876c-.915.023-1.809.023-2.685.008" transform="translate(-44.911 -39.899)" fill="#cc512b"/>
              <path id="Trazado_1045012" data-name="Trazado 1045012" d="M292.153,439.633a.419.419,0,0,0,.04-.075.478.478,0,0,0,.017-.089.527.527,0,0,0,.013-.069c0-.007,0-.013,0-.02s0-.013,0-.02l-1.7-20.309a.416.416,0,0,0-.018-.061.447.447,0,0,0-.028-.1.506.506,0,0,0-.032-.049.479.479,0,0,0-.073-.092.388.388,0,0,0-.038-.027.4.4,0,0,0-.1-.058.347.347,0,0,0-.07-.015.361.361,0,0,0-.072-.016l-127.546-.027a.409.409,0,0,0-.055.012.474.474,0,0,0-.09.019.426.426,0,0,0-.08.046.379.379,0,0,0-.056.039.8.8,0,0,0-.1.138.477.477,0,0,0-.031.1.419.419,0,0,0-.017.057l-1.941,20.308a.451.451,0,0,0,.388.5l.044,0a.385.385,0,0,0,.076-.015.4.4,0,0,0,.071.015l131.037.027.038,0a.333.333,0,0,0,.063-.019.454.454,0,0,0,.084-.026.447.447,0,0,0,.068-.048.457.457,0,0,0,.064-.055.4.4,0,0,0,.046-.073M162.938,419.521h3.1l-1.853,19.395h-3.1Zm3.971,0h3.1l-1.853,19.395h-3.1Zm3.973,0h3.1l-1.855,19.395h-3.1Zm3.973,0h3.1L176.1,438.919H173Zm3.971,0h3.1l-1.854,19.395h-3.1Zm3.973,0h3.1l-1.854,19.395h-3.1Zm3.972,0h3.1l-1.854,19.4h-3.1Zm3.973,0h3.1l-1.853,19.395h-3.1Zm3.971,0h3.1l-1.855,19.4h-3.1Zm3.973,0h3.1l-1.854,19.395h-3.1Zm3.972,0h3.1L203.9,438.925h-3.1Zm3.972,0h3.1l-1.853,19.4h-3.1Zm3.972,0h3.059l-1.853,19.4h-3.059Zm3.93,0h3.059l-1.854,19.395h-3.058Zm3.931,0h3.058l-1.854,19.395h-3.059Zm3.929,0h1.694l1.621,19.4-5.17,0Zm2.565,0h2.5l1.621,19.4h-2.5Zm3.369,0h2.5l1.621,19.4h-2.5Zm3.369,0h2.5l1.621,19.4h-2.5Zm3.369,0h2.5l1.621,19.4h-2.5Zm3.369,0h2.853l1.621,19.4h-2.853Zm3.724,0h2.854l1.621,19.4h-2.853Zm3.724,0h2.853l1.621,19.4H247.5Zm3.724,0h2.853l1.621,19.4h-2.852Zm3.724,0h2.852l1.621,19.4h-2.853Zm3.723,0h2.854l1.621,19.4h-2.854Zm3.724,0h2.853l1.621,19.4H262.4Zm3.724,0h2.853l1.621,19.4H266.12Zm3.724,0h2.853l1.621,19.4h-2.852Zm3.724,0H274.8l1.622,19.4h-2.854Zm3.723,0h2.854l1.621,19.4h-2.853Zm3.725,0h2.852l1.621,19.4h-2.853Zm3.723,0h2.853l1.621,19.4h-2.853Zm3.724,0h2.852l1.622,19.4h-2.853Z" transform="translate(-33.37 -69.663)" fill="#cc512b"/>
              <path id="Trazado_1045013" data-name="Trazado 1045013" d="M326.564,112.151a.491.491,0,0,0,.029-.093.479.479,0,0,0,0-.075.466.466,0,0,0-.006-.1.505.505,0,0,0-.036-.079.377.377,0,0,0-.036-.08l0-.007-8.731-12.248-.007-.007-.006-.01a.347.347,0,0,0-.062-.053.243.243,0,0,0-.154-.087.365.365,0,0,0-.065-.02.377.377,0,0,0-.1.006.321.321,0,0,0-.063.007.343.343,0,0,0-.087.043.417.417,0,0,0-.061.03l-.006.008-.01.005-3.851,3.362a.415.415,0,0,0-.192.085.439.439,0,0,0-.129.2l-1.927,1.682a.243.243,0,0,0-.032.017.341.341,0,0,0-.035.042l-13.158,11.484c-.01.009-.015.023-.025.033a.472.472,0,0,0-.055.072.459.459,0,0,0-.038.073.434.434,0,0,0-.024.085.488.488,0,0,0-.01.083.468.468,0,0,0,.009.088.418.418,0,0,0,.023.086.235.235,0,0,0,.011.04l6.424,13.2c0,.011.016.014.021.024s.012.034.023.049a.463.463,0,0,0,.082.068.429.429,0,0,0,.055.047.4.4,0,0,0,.4.01.507.507,0,0,0,.045-.038c.007-.006.017,0,.023-.008l21.638-17.815a.449.449,0,0,0,.052-.064.427.427,0,0,0,.057-.07.483.483,0,0,0,.024-.073m-1.979.568-8.271-11.411,1.041-.909,8.207,11.514Zm-2.186,1.8-8.383-11.205,1.629-1.422,8.256,11.39Zm-2.32,1.911-8.193-11.257,1.461-1.276,8.368,11.185Zm-2.343,1.929-7.908-11.389,1.391-1.214,8.177,11.236Zm-2.491,2.051L307.6,108.917l1.563-1.364,7.893,11.368Zm-2.2,1.814L305.4,110.838l1.532-1.337,7.634,11.472Zm-2.516,2.071-7.313-11.55,1.514-1.321,7.632,11.364Zm-2.84,2.339L301,114.671l1.537-1.342,7.3,11.53Zm-3.011,2.479-6.025-12.385,1.679-1.465L307,127.2Z" transform="translate(-62.018 -16.524)" fill="#cc512b"/>
              <path id="Trazado_1045014" data-name="Trazado 1045014" d="M202.237,187.9s-8.706,19.349-4.748,19.61,4.748-2.345,4.748-2.345-2.5,9.638,5.9,5.47-5.9-22.735-5.9-22.735" transform="translate(-40.93 -31.27)" fill="#cc6560"/>
              <path id="Trazado_1045015" data-name="Trazado 1045015" d="M283.651,187.9s8.706,19.349,4.748,19.61-4.748-2.345-4.748-2.345,2.5,9.638-5.9,5.47,5.9-22.735,5.9-22.735" transform="translate(-57.316 -31.27)" fill="#cc6560"/>
              <g id="Grupo_1183282" data-name="Grupo 1183282" transform="translate(88.025 128.004)" opacity="0.5">
                <g id="Grupo_1183281" data-name="Grupo 1183281">
                  <g id="Grupo_1183280" data-name="Grupo 1183280" clip-path="url(#clip-path-7)">
                    <path id="Trazado_1045016" data-name="Trazado 1045016" d="M123.672,158.51c.3,0,.587.025.88.047a8.314,8.314,0,0,1,15.416.42,8.358,8.358,0,0,1,16.018,1.293,6.783,6.783,0,0,1,5.654-3.118,7.075,7.075,0,0,1,6.885,7.25,7.392,7.392,0,0,1-2.395,5.489,4.454,4.454,0,0,1,2.367,3.514l5.748,4.18-6.83-.678a4.13,4.13,0,0,1-3.127,1.459,4.021,4.021,0,0,1-1.194-.183,7.036,7.036,0,0,1-6.857,6.653,6.733,6.733,0,0,1-5.258-2.576,11.347,11.347,0,0,1-20.457.373,11.974,11.974,0,0,1-6.849,2.161c-6.893,0-12.481-5.884-12.481-13.142s5.588-13.142,12.481-13.142" transform="translate(-111.191 -153.559)" fill="#606060"/>
                  </g>
                </g>
              </g>
              <path id="Trazado_1045017" data-name="Trazado 1045017" d="M198.583,167.494c4.581-1.6,5.151,6.87,5.151,6.87l.5,10.116s-.583,4.823-4.64,4.472c-2.653-.229-3.927-4.011-4.435-7.466-.011-.111-.023-.223-.033-.332-.1-.89-.125-1.5-.125-1.5s-1-10.562,3.584-12.166" transform="translate(-40.607 -27.84)" fill="#ffd5b8"/>
              <g id="Grupo_1183285" data-name="Grupo 1183285" transform="translate(154.301 141.342)" opacity="0.5">
                <g id="Grupo_1183284" data-name="Grupo 1183284">
                  <g id="Grupo_1183283" data-name="Grupo 1183283" clip-path="url(#clip-path-8)">
                    <path id="Trazado_1045018" data-name="Trazado 1045018" d="M199.474,183.056c-1.944-.532-3.305-3.124-3.566-6.763a20.474,20.474,0,0,1,.42-5.878c.071-.309.154-.589.244-.855-2.234,3.464-1.574,10.478-1.574,10.478s.024.606.126,1.5c.01.11.022.221.033.332.507,3.455,1.782,7.237,4.435,7.466,4.056.351,4.64-4.472,4.64-4.472l-.243-4.942c-1.031,2.52-2.878,3.588-4.516,3.139" transform="translate(-194.908 -169.559)" fill="#f7b589"/>
                  </g>
                </g>
              </g>
              <path id="Trazado_1045019" data-name="Trazado 1045019" d="M200.568,186.917a1.71,1.71,0,0,1-.615-.118,4.315,4.315,0,0,1-2.1-2.735,9.841,9.841,0,0,1-.509-3.667,5.986,5.986,0,0,1,1.034-3.3,1.792,1.792,0,0,1,2.764-.061.673.673,0,0,1,.117.608c-.057.228-.2.328-.324.219a1.49,1.49,0,0,0-2.29,0,4.766,4.766,0,0,0-.816,2.631,8.233,8.233,0,0,0,.432,3.076,3.69,3.69,0,0,0,1.79,2.339,1.747,1.747,0,0,0,2.08-.933,7.9,7.9,0,0,0,.96-3.614,18.24,18.24,0,0,0-.3-4.222,15.51,15.51,0,0,0-1.034-3.668,4.01,4.01,0,0,0-1.789-2.144c-.867-.362-1.829.124-2.51,1.271a9.064,9.064,0,0,0-1.015,4.559c0,.252-.1.463-.235.471s-.247-.188-.251-.441a10.459,10.459,0,0,1,1.176-5.268c.8-1.34,1.923-1.908,2.941-1.483a4.574,4.574,0,0,1,2.055,2.446,16.786,16.786,0,0,1,1.125,3.972,19.854,19.854,0,0,1,.324,4.607,9.176,9.176,0,0,1-1.133,4.215,2.325,2.325,0,0,1-1.875,1.243" transform="translate(-40.825 -28.34)" fill="#efad81"/>
              <g id="Grupo_1183288" data-name="Grupo 1183288" transform="translate(237.206 128.004)" opacity="0.5">
                <g id="Grupo_1183287" data-name="Grupo 1183287">
                  <g id="Grupo_1183286" data-name="Grupo 1183286" clip-path="url(#clip-path-7)">
                    <path id="Trazado_1045020" data-name="Trazado 1045020" d="M350.2,158.51c-.3,0-.587.025-.88.047a8.314,8.314,0,0,0-15.416.42,8.358,8.358,0,0,0-16.018,1.293,6.783,6.783,0,0,0-5.654-3.118,7.075,7.075,0,0,0-6.885,7.25,7.392,7.392,0,0,0,2.395,5.489,4.454,4.454,0,0,0-2.367,3.514l-5.748,4.18,6.83-.678a4.13,4.13,0,0,0,3.127,1.459,4.021,4.021,0,0,0,1.194-.183,7.036,7.036,0,0,0,6.857,6.653,6.733,6.733,0,0,0,5.258-2.576,11.347,11.347,0,0,0,20.457.373,11.973,11.973,0,0,0,6.849,2.161c6.893,0,12.481-5.884,12.481-13.142S357.1,158.51,350.2,158.51" transform="translate(-299.632 -153.559)" fill="#606060"/>
                  </g>
                </g>
              </g>
              <path id="Trazado_1045021" data-name="Trazado 1045021" d="M288.637,167.494c-4.581-1.6-5.151,6.87-5.151,6.87l-.5,10.116s.583,4.823,4.64,4.472c2.653-.229,3.927-4.011,4.435-7.466.011-.111.023-.223.033-.332.1-.89.125-1.5.125-1.5s1-10.562-3.584-12.166" transform="translate(-58.958 -27.84)" fill="#ffd5b8"/>
              <g id="Grupo_1183291" data-name="Grupo 1183291" transform="translate(224.03 141.342)" opacity="0.5">
                <g id="Grupo_1183290" data-name="Grupo 1183290">
                  <g id="Grupo_1183289" data-name="Grupo 1183289" clip-path="url(#clip-path-8)">
                    <path id="Trazado_1045022" data-name="Trazado 1045022" d="M287.747,183.056c1.944-.532,3.305-3.124,3.566-6.763a20.47,20.47,0,0,0-.42-5.878c-.071-.309-.155-.589-.244-.855,2.234,3.464,1.573,10.478,1.573,10.478s-.023.606-.125,1.5c-.01.11-.022.221-.033.332-.507,3.455-1.782,7.237-4.435,7.466-4.056.351-4.64-4.472-4.64-4.472l.243-4.942c1.031,2.52,2.878,3.588,4.516,3.139" transform="translate(-282.988 -169.559)" fill="#f7b589"/>
                  </g>
                </g>
              </g>
              <path id="Trazado_1045023" data-name="Trazado 1045023" d="M287.094,186.917a1.71,1.71,0,0,0,.615-.118,4.316,4.316,0,0,0,2.1-2.735,9.825,9.825,0,0,0,.509-3.667,5.986,5.986,0,0,0-1.034-3.3,1.792,1.792,0,0,0-2.764-.061.673.673,0,0,0-.117.608c.057.228.2.328.324.219a1.49,1.49,0,0,1,2.29,0,4.766,4.766,0,0,1,.816,2.631,8.234,8.234,0,0,1-.432,3.076,3.69,3.69,0,0,1-1.79,2.339,1.747,1.747,0,0,1-2.081-.933,7.9,7.9,0,0,1-.96-3.614,18.236,18.236,0,0,1,.3-4.222,15.508,15.508,0,0,1,1.034-3.668,4.01,4.01,0,0,1,1.789-2.144c.867-.362,1.829.124,2.51,1.271a9.064,9.064,0,0,1,1.015,4.559c0,.252.1.463.235.471s.247-.188.251-.441a10.467,10.467,0,0,0-1.176-5.268c-.8-1.34-1.923-1.908-2.941-1.483a4.574,4.574,0,0,0-2.055,2.446,16.785,16.785,0,0,0-1.125,3.972,19.857,19.857,0,0,0-.324,4.607,9.177,9.177,0,0,0,1.133,4.215,2.325,2.325,0,0,0,1.875,1.243" transform="translate(-59.181 -28.34)" fill="#efad81"/>
              <path id="Trazado_1045024" data-name="Trazado 1045024" d="M235.949,122.485c-19.152,0-34.677,14.073-34.677,34,0,0,.013,28.228,6.052,41.973s28.625,20.118,28.625,20.118,22.584-6.372,28.625-20.118,6.052-41.973,6.052-41.973c0-19.928-15.525-34-34.677-34" transform="translate(-41.933 -20.384)" fill="#ffd5b8"/>
              <path id="Trazado_1045025" data-name="Trazado 1045025" d="M235.949,122.485c-19.152,0-34.677,14.073-34.677,34,0,0,0,1.1.048,2.964,1.594-2.2,9.527-13.418,11.64-21.56,0,0,14.322.259,19.481-10.089,0,0,14.745,16.557,28.87,10.089,0,0-1.066,20.914,9.252,22.1.061-2.188.063-3.5.063-3.5,0-19.928-15.526-34-34.677-34" transform="translate(-41.933 -20.384)" fill="#cc6560"/>
              <path id="Trazado_1045026" data-name="Trazado 1045026" d="M235.175,169.216s2.291-14.746,7.032-15.024,7.032,15.024,7.032,15.024Z" transform="translate(-48.997 -25.66)" fill="#f4a88e"/>
              <path id="Trazado_1045027" data-name="Trazado 1045027" d="M249.239,171.324c0,2.468-3.148,2.09-7.032,2.09s-7.032.378-7.032-2.09,3.148-4.47,7.032-4.47,7.032,2,7.032,4.47" transform="translate(-48.997 -27.767)" fill="#e58d76"/>
              <path id="Trazado_1045028" data-name="Trazado 1045028" d="M234.414,181.938a27.442,27.442,0,0,0-2.048,8.862,7.036,7.036,0,0,0,.88,4.4,5.854,5.854,0,0,0,2.143,1.716,13.842,13.842,0,0,0,11.743.477,5.686,5.686,0,0,0,2.465-1.768,6.325,6.325,0,0,0,.959-2.573,21.319,21.319,0,0,0,.171-6.4,11.447,11.447,0,0,0-2.211-6.051c-3.5-4.2-12.23-3.361-14.1,1.335" transform="translate(-48.407 -29.603)" fill="#563935"/>
              <path id="Trazado_1045029" data-name="Trazado 1045029" d="M249.689,181.341a7.561,7.561,0,0,0-.534-.737c-3.322-3.985-11.329-3.429-13.748.642a54.063,54.063,0,0,1,14.282.1" transform="translate(-49.045 -29.603)" fill="#fff"/>
              <path id="Trazado_1045030" data-name="Trazado 1045030" d="M232.473,191.247c-.047.445-.086.891-.108,1.34a7.03,7.03,0,0,0,.881,4.4,5.847,5.847,0,0,0,2.143,1.716,13.837,13.837,0,0,0,11.743.477,5.684,5.684,0,0,0,2.466-1.768,6.347,6.347,0,0,0,.959-2.573,20.785,20.785,0,0,0,.255-5.389,27.024,27.024,0,0,0-18.339,1.8" transform="translate(-48.407 -31.391)" fill="#e87c7c"/>
              <path id="Trazado_1045031" data-name="Trazado 1045031" d="M277.56,168.7c-.758,3.041-5.618,4.332-10.856,2.885s-8.868-5.087-8.111-8.127,5.618-4.332,10.856-2.885,8.869,5.087,8.111,8.127" transform="translate(-53.855 -26.623)" fill="#dd9f8a"/>
              <path id="Trazado_1045032" data-name="Trazado 1045032" d="M273.96,163.856a.42.42,0,0,1-.231-.07l-6.617-4.387a.468.468,0,0,1-.189-.5.44.44,0,0,1,.393-.343l7.643-.516a.439.439,0,0,1,.461.426.45.45,0,0,1-.405.485l-6.306.426,5.484,3.634a.473.473,0,0,1,.135.63.427.427,0,0,1-.367.213" transform="translate(-55.608 -26.301)" fill="#563935"/>
              <path id="Trazado_1045033" data-name="Trazado 1045033" d="M267.208,155.071a.463.463,0,0,1,.119-.872l10.36-1.386a.44.44,0,0,1,.485.4.453.453,0,0,1-.376.511l-10.36,1.387a.422.422,0,0,1-.228-.035" transform="translate(-55.616 -25.43)" fill="#b25252"/>
              <path id="Trazado_1045034" data-name="Trazado 1045034" d="M205.716,168.7c.758,3.041,5.618,4.332,10.856,2.885s8.868-5.087,8.111-8.127-5.618-4.332-10.856-2.885-8.869,5.087-8.111,8.127" transform="translate(-42.838 -26.623)" fill="#dd9f8a"/>
              <path id="Trazado_1045035" data-name="Trazado 1045035" d="M211.875,163.856a.419.419,0,0,0,.231-.07l6.617-4.387a.468.468,0,0,0,.189-.5.44.44,0,0,0-.393-.343l-7.643-.516a.439.439,0,0,0-.461.426.449.449,0,0,0,.405.485l6.306.426-5.484,3.634a.473.473,0,0,0-.135.63.427.427,0,0,0,.367.213" transform="translate(-43.838 -26.301)" fill="#563935"/>
              <path id="Trazado_1045036" data-name="Trazado 1045036" d="M217.912,155.071a.463.463,0,0,0-.119-.872l-10.36-1.386a.44.44,0,0,0-.485.4.453.453,0,0,0,.376.511l10.36,1.387a.423.423,0,0,0,.228-.035" transform="translate(-43.115 -25.43)" fill="#b25252"/>
              <path id="Trazado_1045037" data-name="Trazado 1045037" d="M418.914,165.522a62.8,62.8,0,0,0,25.627,18.732c6.161,2.4,13.238,4.192,16.852,9.967,2.967,4.741,2.651,11.232.056,16.209s-7.161,8.56-12.1,10.847c-6.231,2.887-14.187,3.627-19.291-1.116,2.411,3.06,2.131,8.411-.069,11.644s-5.827,5.093-9.5,6.029c-3.592.915-7.54,1.023-10.827-.754-5.179-2.8-7.345-9.385-8.127-15.461-2.592-20.125,5.256-40.295,17.373-56.1" transform="translate(-83.554 -27.546)" fill="#cc6560"/>
              <path id="Trazado_1045038" data-name="Trazado 1045038" d="M328.55,165.522a62.8,62.8,0,0,1-25.627,18.732c-6.161,2.4-13.237,4.192-16.852,9.967-2.967,4.741-2.651,11.232-.056,16.209s7.161,8.56,12.1,10.847c6.231,2.887,14.187,3.627,19.291-1.116-2.411,3.06-2.131,8.411.069,11.644s5.827,5.093,9.5,6.029c3.592.915,7.54,1.023,10.827-.754,5.179-2.8,7.345-9.385,8.127-15.461,2.592-20.125-5.256-40.295-17.373-56.1" transform="translate(-59.16 -27.546)" fill="#cc6560"/>
              <path id="Trazado_1045039" data-name="Trazado 1045039" d="M329.339,243.76a8.165,8.165,0,0,1-5.637-1.229,13.446,13.446,0,0,1-4.193-4.291,27.688,27.688,0,0,1-2.662-5.522,7.539,7.539,0,0,1-.382-3.121,10.875,10.875,0,0,1,.8-3.023c.394-.959.823-1.869,1.294-2.792a4.188,4.188,0,0,1,2.218-2.212,2.469,2.469,0,0,1,1.61.081,1.786,1.786,0,0,1,1.1,1.314,2.094,2.094,0,0,1-.441,1.672,4.49,4.49,0,0,1-1.189,1.056,25.578,25.578,0,0,1-22.9.775,27.282,27.282,0,0,1-9.482-7.25,28.761,28.761,0,0,1-3.387-5.067,14.93,14.93,0,0,1-1.786-5.894,13.01,13.01,0,0,1,4.686-10.836,12.879,12.879,0,0,0-4.379,10.811,14.6,14.6,0,0,0,1.826,5.716,28.243,28.243,0,0,0,3.4,4.931,27.461,27.461,0,0,0,9.348,7.037,25.559,25.559,0,0,0,22.375-.737c.771-.48,1.55-1.255,1.378-2.1-.131-.84-1.209-1.207-2.016-.959a3.719,3.719,0,0,0-1.907,1.933c-.463.878-.915,1.8-1.307,2.72a10.416,10.416,0,0,0-.808,2.871,7.071,7.071,0,0,0,.321,2.941,27.785,27.785,0,0,0,2.541,5.475,13.256,13.256,0,0,0,4.017,4.331,8.1,8.1,0,0,0,5.559,1.367" transform="translate(-59.228 -32.854)" fill="#9e4141"/>
              <path id="Trazado_1045040" data-name="Trazado 1045040" d="M466.275,208.525a19.259,19.259,0,0,1-3.1,10.459,22.2,22.2,0,0,1-7.874,7.326,28.475,28.475,0,0,1-10.064,3.359,19.434,19.434,0,0,1-10.491-1.223,12.64,12.64,0,0,1-4.341-3.294,3.533,3.533,0,0,1-.77-1.265,1.734,1.734,0,0,1,.287-1.59,2.327,2.327,0,0,1,2.748-.644,3.777,3.777,0,0,1,1.75,2.275,11.862,11.862,0,0,1,.511,2.783,17.164,17.164,0,0,1-.429,5.582,15.464,15.464,0,0,1-5.888,9.059,13.343,13.343,0,0,1-10.075,2.363,13.222,13.222,0,0,0,9.9-2.63,15.1,15.1,0,0,0,5.593-8.913,17.876,17.876,0,0,0,.357-5.409,11.348,11.348,0,0,0-.494-2.636,3.211,3.211,0,0,0-1.461-1.926,1.784,1.784,0,0,0-2.056.485,1.073,1.073,0,0,0-.175,1.011,2.982,2.982,0,0,0,.654,1.035A12.055,12.055,0,0,0,435,227.838a18.873,18.873,0,0,0,10.169,1.232,29.037,29.037,0,0,0,9.91-3.209,21.826,21.826,0,0,0,7.848-7.06,19.053,19.053,0,0,0,3.347-10.276" transform="translate(-87.2 -34.702)" fill="#9e4141"/>
              <path id="Trazado_1045041" data-name="Trazado 1045041" d="M399.1,219.5l-10.52,41.275,39.064,18.915L410.4,391.779H328.844L317.186,276.493l38.362-15.471L347.081,229.3Z" transform="translate(-66.083 -36.528)" fill="#ffd5b8"/>
              <g id="Grupo_1183294" data-name="Grupo 1183294" transform="translate(280.998 182.969)" opacity="0.5">
                <g id="Grupo_1183293" data-name="Grupo 1183293">
                  <g id="Grupo_1183292" data-name="Grupo 1183292" clip-path="url(#clip-path-11)">
                    <path id="Trazado_1045042" data-name="Trazado 1045042" d="M398.894,251.184,406.97,219.5l-52.022,9.8,2.264,8.485c13.572,5.811,27.524,9.181,41.682,13.4" transform="translate(-354.948 -219.497)" fill="#f7b589"/>
                  </g>
                </g>
              </g>
              <path id="Trazado_1045043" data-name="Trazado 1045043" d="M427.648,288.1l-37.287-18.055c-12.249,23.934-20.285,52.786-20.285,52.786,0-7.822-11.109-32.055-20.43-51.015L317.187,284.9,328.6,397.732l-8.215,17.4h96.943L410.4,400.191Z" transform="translate(-66.083 -44.94)" fill="#819fcc"/>
              <path id="Trazado_1045044" data-name="Trazado 1045044" d="M325.985,175.626c8.346-1.664,9.385,7.13,9.385,7.13l.908,10.5s-1.063,5-8.454,4.641c-4.833-.238-7.156-4.162-8.08-7.747-.021-.115-.043-.231-.061-.344a13.153,13.153,0,0,1-.228-1.551s-1.815-10.962,6.53-12.625" transform="translate(-66.521 -29.192)" fill="#ffd5b8"/>
              <g id="Grupo_1183297" data-name="Grupo 1183297" transform="translate(252.768 148.201)" opacity="0.5">
                <g id="Grupo_1183296" data-name="Grupo 1183296">
                  <g id="Grupo_1183295" data-name="Grupo 1183295" clip-path="url(#clip-path-12)">
                    <path id="Trazado_1045045" data-name="Trazado 1045045" d="M327.733,191.8a7.743,7.743,0,0,1-6.593-7.02,12.248,12.248,0,0,1,.777-6.1,6.658,6.658,0,0,1,.451-.888c-4.132,3.6-2.91,10.877-2.91,10.877a13.1,13.1,0,0,0,.233,1.553c.018.113.04.229.061.343.938,3.587,3.295,7.513,8.2,7.751,7.5.364,8.581-4.643,8.581-4.643l-.45-5.13a8.782,8.782,0,0,1-8.35,3.258" transform="translate(-319.289 -177.788)" fill="#f7b589"/>
                  </g>
                </g>
              </g>
              <path id="Trazado_1045046" data-name="Trazado 1045046" d="M326.2,186.405a3.739,3.739,0,0,0-1.508,2.731,5.189,5.189,0,0,0,.8,3.193,5.288,5.288,0,0,0,3.31,2.427,4.482,4.482,0,0,0,3.847-.968,5.786,5.786,0,0,0,1.775-3.751,10.844,10.844,0,0,0-.56-4.383,11.41,11.41,0,0,0-1.911-3.808,6.176,6.176,0,0,0-3.309-2.226,5.148,5.148,0,0,0-4.641,1.32,6.308,6.308,0,0,0-1.876,4.732.465.465,0,0,1-.435.489.449.449,0,0,1-.465-.458,7.288,7.288,0,0,1,2.175-5.469,6.028,6.028,0,0,1,5.438-1.54,7.069,7.069,0,0,1,3.8,2.538,12.354,12.354,0,0,1,2.08,4.124,11.825,11.825,0,0,1,.6,4.783,6.751,6.751,0,0,1-2.095,4.376,5.314,5.314,0,0,1-4.606,1.168,6.4,6.4,0,0,1-4.822-6.645,4.709,4.709,0,0,1,1.912-3.429,5.167,5.167,0,0,1,5.11-.063.483.483,0,0,1,.216.63.439.439,0,0,1-.6.228,4.3,4.3,0,0,0-4.235,0" transform="translate(-66.924 -29.714)" fill="#efad81"/>
              <path id="Trazado_1045047" data-name="Trazado 1045047" d="M437.468,175.626c-8.346-1.664-9.385,7.13-9.385,7.13l-.908,10.5s1.063,5,8.454,4.641c4.833-.238,7.156-4.162,8.08-7.747.021-.115.043-.231.061-.344a13.148,13.148,0,0,0,.228-1.551s1.815-10.962-6.53-12.625" transform="translate(-88.998 -29.192)" fill="#ffd5b8"/>
              <g id="Grupo_1183300" data-name="Grupo 1183300" transform="translate(338.051 148.806)" opacity="0.5">
                <g id="Grupo_1183299" data-name="Grupo 1183299">
                  <g id="Grupo_1183298" data-name="Grupo 1183298" clip-path="url(#clip-path-13)">
                    <path id="Trazado_1045048" data-name="Trazado 1045048" d="M441.792,178.514a10.372,10.372,0,0,1,1.454,6.777c-.48,3.223-2.8,6.332-5.888,7.1a8.949,8.949,0,0,1-9.794-4.838l-.548,6.239s1.079,5.007,8.58,4.642c4.906-.238,7.263-4.164,8.2-7.751.02-.114.043-.23.061-.344a12.96,12.96,0,0,0,.232-1.552s1.092-6.526-2.3-10.273" transform="translate(-427.016 -178.514)" fill="#f7b589"/>
                  </g>
                </g>
              </g>
              <path id="Trazado_1045049" data-name="Trazado 1045049" d="M434.609,195.807a5.272,5.272,0,0,1-3.469-1.29,6.752,6.752,0,0,1-2.094-4.376,11.824,11.824,0,0,1,.6-4.783,12.357,12.357,0,0,1,2.08-4.123,7.065,7.065,0,0,1,3.8-2.539,6.022,6.022,0,0,1,5.438,1.54,7.291,7.291,0,0,1,2.175,5.469.463.463,0,0,1-.45.458h-.015a.465.465,0,0,1-.435-.489,6.3,6.3,0,0,0-1.876-4.732,5.143,5.143,0,0,0-4.641-1.32,6.177,6.177,0,0,0-3.308,2.226,11.411,11.411,0,0,0-1.913,3.808,10.873,10.873,0,0,0-.56,4.383,5.787,5.787,0,0,0,1.776,3.751,4.486,4.486,0,0,0,3.847.968,5.288,5.288,0,0,0,3.31-2.427,5.2,5.2,0,0,0,.8-3.194,3.748,3.748,0,0,0-1.509-2.73,4.308,4.308,0,0,0-4.236,0,.442.442,0,0,1-.6-.228.485.485,0,0,1,.217-.63,5.16,5.16,0,0,1,5.11.063,4.707,4.707,0,0,1,1.912,3.429,6.394,6.394,0,0,1-4.822,6.646,5.317,5.317,0,0,1-1.137.123" transform="translate(-89.378 -29.714)" fill="#efad81"/>
              <path id="Trazado_1045050" data-name="Trazado 1045050" d="M374.66,128.92c-19.589,0-35.469,14.6-35.469,35.283,0,0,.013,29.292,6.191,43.556s29.278,20.876,29.278,20.876,23.1-6.612,29.278-20.876,6.191-43.556,6.191-43.556c0-20.68-15.88-35.283-35.469-35.283" transform="translate(-70.667 -21.454)" fill="#ffd5b8"/>
              <path id="Trazado_1045051" data-name="Trazado 1045051" d="M403.312,143.2v-.005s-8.818-13.65-25.773-14.294a45.21,45.21,0,0,0-9.74.316c-.655.1-1.175.309-2.05.492a34.832,34.832,0,0,0-27.213,34.444s.756,5.63,1.28,13.111c5.922-2.657,11.5-5.988,15.991-11.047A35.814,35.814,0,0,0,361.714,157a35.146,35.146,0,0,0,13.579,2.353,47.862,47.862,0,0,0,12.654-1.512,35.644,35.644,0,0,0,5.527,8.377c4.493,5.059,10.069,8.389,15.992,11.047.524-7.481.526-13.066.526-13.066a35.087,35.087,0,0,0-6.68-21" transform="translate(-70.531 -21.433)" fill="#cc6560"/>
              <path id="Trazado_1045052" data-name="Trazado 1045052" d="M385.64,179.652c-1.17-4.93-2.134-4.64-2.134-4.64s-.964-.29-2.134,4.64c-.7,2.958-3.512,12.754-3.416,20.587.093,7.566,11.008,7.566,11.1,0,.1-7.833-2.713-17.629-3.415-20.587" transform="translate(-78.743 -29.125)" fill="#f4a88e"/>
              <path id="Trazado_1045053" data-name="Trazado 1045053" d="M364.063,196.846c0,3.263-4.557,5.909-10.178,5.909s-10.178-2.646-10.178-5.909,4.557-5.909,10.178-5.909,10.178,2.646,10.178,5.909" transform="translate(-71.608 -31.775)" fill="#f4b69d"/>
              <path id="Trazado_1045054" data-name="Trazado 1045054" d="M360.254,175.3a.44.44,0,0,1-.351-.177,4.325,4.325,0,0,0-3.31-1.671,4.075,4.075,0,0,0-3.276,1.678.433.433,0,0,1-.633.059.491.491,0,0,1-.056-.668A5,5,0,0,1,356.6,172.5a5.157,5.157,0,0,1,4,2.024.492.492,0,0,1-.067.667.433.433,0,0,1-.283.105" transform="translate(-73.445 -28.708)" fill="#231f1e"/>
              <path id="Trazado_1045055" data-name="Trazado 1045055" d="M359.535,186.91c0,2.618-1.116,4.741-2.494,4.741s-2.493-2.123-2.493-4.741,1.116-4.741,2.493-4.741,2.494,2.123,2.494,4.741" transform="translate(-73.867 -30.316)" fill="#231f1e"/>
              <path id="Trazado_1045056" data-name="Trazado 1045056" d="M420.859,196.846c0,3.263-4.557,5.909-10.178,5.909S400.5,200.11,400.5,196.846s4.557-5.909,10.178-5.909,10.178,2.646,10.178,5.909" transform="translate(-83.441 -31.775)" fill="#f4b69d"/>
              <path id="Trazado_1045057" data-name="Trazado 1045057" d="M414.089,186.91c0,2.618-1.116,4.741-2.494,4.741s-2.493-2.123-2.493-4.741,1.116-4.741,2.493-4.741,2.494,2.123,2.494,4.741" transform="translate(-85.233 -30.316)" fill="#231f1e"/>
              <path id="Trazado_1045058" data-name="Trazado 1045058" d="M414.808,175.3a.44.44,0,0,1-.351-.177,4.323,4.323,0,0,0-3.311-1.671,4.074,4.074,0,0,0-3.275,1.678.433.433,0,0,1-.633.059.491.491,0,0,1-.056-.668,5.047,5.047,0,0,1,3.973-2.017,5.156,5.156,0,0,1,4,2.024.492.492,0,0,1-.067.667.433.433,0,0,1-.283.105" transform="translate(-84.811 -28.708)" fill="#231f1e"/>
              <path id="Trazado_1045059" data-name="Trazado 1045059" d="M387.6,225.212c0,3.045-1.6,5.513-3.567,5.513s-3.567-2.468-3.567-5.513,1.6-5.513,3.567-5.513,3.567,2.468,3.567,5.513" transform="translate(-79.266 -36.562)" fill="#231f1e"/>
              <path id="Trazado_1045060" data-name="Trazado 1045060" d="M313.937,287.871s-13.4,12.96-12.28,23.944,8.673,58.18,8.673,58.18l17.033-16.6Z" transform="translate(-62.834 -47.907)" fill="#ffd5b8"/>
              <path id="Trazado_1045061" data-name="Trazado 1045061" d="M336.932,262.363l-1.507-30.133,3.919-4.762,3.015-10.477s14.774-8.254,15.678-6.667-11.306,9.525-11.306,9.525l.024,6.985,11.331-.953,7.49,10.362s2.714,7.417,1.507,8.687-7.236-8.687-7.236-8.687l1.809,9.957s-1.809,8.254-3.317,8.254c0,0-2.111-.635-1.206-4.445a2.334,2.334,0,0,1-3.317.953l.6,4.445-8.744,17.143s3.317,90.483-17.488,93.657-20.8-24.763-13.267-44.447,22.01-59.4,22.01-59.4" transform="translate(-64.652 -34.968)" fill="#ffd5b8"/>
              <path id="Trazado_1045062" data-name="Trazado 1045062" d="M310.223,345.833a.382.382,0,0,1-.371-.389,69.144,69.144,0,0,1,4.627-23.895c7.292-19.042,21.255-57.323,21.98-59.313l-1.5-30.05a.407.407,0,0,1,.09-.277l3.868-4.7,2.992-10.4a.387.387,0,0,1,.181-.232c5.633-3.148,15.225-8.178,16.171-6.523S351.7,216.943,347.005,220l.022,6.344,10.93-.919a.362.362,0,0,1,.325.153l7.49,10.361a.4.4,0,0,1,.051.1c.467,1.278,2.734,7.723,1.423,9.1a.71.71,0,0,1-.627.221c-1.4-.162-4.463-4.664-6.155-7.319l1.457,8.018a.408.408,0,0,1,0,.161c-.564,2.573-2.051,8.558-3.679,8.558a.355.355,0,0,1-.1-.015c-.088-.027-1.925-.618-1.681-3.6a2.387,2.387,0,0,1-2.278.372l.508,3.745a.4.4,0,0,1-.04.24l-5.8,11.376a.36.36,0,0,1-.5.16.4.4,0,0,1-.152-.529l5.745-11.263-.586-4.318a.4.4,0,0,1,.159-.378.356.356,0,0,1,.393-.016,1.938,1.938,0,0,0,2.811-.809.363.363,0,0,1,.461-.167.4.4,0,0,1,.221.457c-.724,3.052.591,3.819.894,3.952.659-.172,1.983-3.764,2.89-7.864l-1.795-9.876a.4.4,0,0,1,.228-.437.362.362,0,0,1,.45.153c2.935,4.846,5.975,8.782,6.668,8.618.7-.744-.494-5.233-1.58-8.215l-7.335-10.148-11.128.936a.359.359,0,0,1-.281-.1.4.4,0,0,1-.12-.287l-.024-6.985a.4.4,0,0,1,.177-.334c5.493-3.571,11.329-8.028,11.178-9-.815-.542-8.422,3.057-15.045,6.749l-2.97,10.321a.4.4,0,0,1-.075.143l-3.821,4.643,1.5,29.977a.408.408,0,0,1-.024.16c-.145.4-14.56,39.94-22.013,59.4a68.3,68.3,0,0,0-4.573,23.6.382.382,0,0,1-.37.393Z" transform="translate(-64.555 -34.903)" fill="#563935"/>
              <path id="Trazado_1045063" data-name="Trazado 1045063" d="M368.922,240.895a.361.361,0,0,1-.273-.127l-3.713-4.256H354.25a.391.391,0,0,1,0-.782H365.1a.36.36,0,0,1,.273.127l3.823,4.383a.4.4,0,0,1-.022.552.358.358,0,0,1-.251.1" transform="translate(-73.728 -39.229)" fill="#563935"/>
              <path id="Trazado_1045064" data-name="Trazado 1045064" d="M366.018,255.724a.344.344,0,0,1-.065-.006.389.389,0,0,1-.3-.453l.829-4.945-4.462-7.413-8.679.107a.391.391,0,0,1-.376-.387.382.382,0,0,1,.367-.4l8.886-.109a.34.34,0,0,1,.317.182l4.649,7.726a.406.406,0,0,1,.052.277l-.854,5.094a.377.377,0,0,1-.365.323" transform="translate(-73.537 -40.293)" fill="#563935"/>
              <path id="Trazado_1045065" data-name="Trazado 1045065" d="M362.7,257.829a.375.375,0,0,1-.362-.306l-1.254-5.912-7.828-1.8a.392.392,0,0,1-.284-.465.374.374,0,0,1,.443-.3l8.059,1.851a.379.379,0,0,1,.283.3l1.306,6.155a.377.377,0,0,1-.363.476" transform="translate(-73.537 -41.445)" fill="#563935"/>
              <path id="Trazado_1045066" data-name="Trazado 1045066" d="M357.056,267.231a.342.342,0,0,1-.077-.008.391.391,0,0,1-.287-.463c1.988-9.945-3.521-14.357-3.577-14.4a.406.406,0,0,1-.079-.547.359.359,0,0,1,.519-.083c.059.046,5.955,4.731,3.863,15.192a.376.376,0,0,1-.363.31" transform="translate(-73.537 -41.879)" fill="#563935"/>
              <path id="Trazado_1045067" data-name="Trazado 1045067" d="M454,291.7s9.071,3.389,14.441,16.213-2.308,110.819-2.308,110.819H443.678l4.775-89.164Z" transform="translate(-92.436 -48.544)" fill="#ffd5b8"/>
            </g>
          </g>
        </g>
      </g>
    </g>
  </g>
</svg>
