<svg xmlns="http://www.w3.org/2000/svg" xmlns:xlink="http://www.w3.org/1999/xlink" width="400" height="285" viewBox="0 0 400 285">
  <defs>
    <clipPath id="clip-path">
      <rect id="Rectángulo_416051" data-name="Rectángulo 416051" width="400" height="285" transform="translate(1019.749 3469)" fill="#fff" stroke="#707070" stroke-width="1"/>
    </clipPath>
    <radialGradient id="radial-gradient" cx="0.5" cy="0.5" r="0.743" gradientTransform="matrix(-0.622, 0.033, 0.015, 0.739, 17.688, -0.34)" gradientUnits="objectBoundingBox">
      <stop offset="0.145" stop-color="#de564c"/>
      <stop offset="1" stop-color="#ebbbb0"/>
    </radialGradient>
    <radialGradient id="radial-gradient-2" cx="0.5" cy="0.5" r="0.695" gradientTransform="matrix(-0.659, -0.264, -0.133, 0.714, 23.335, 6.473)" xlink:href="#radial-gradient"/>
    <clipPath id="clip-path-2">
      <path id="Trazado_1045141" data-name="Trazado 1045141" d="M240.315,249.8a75.959,75.959,0,0,1,14.529-2.849,2.484,2.484,0,0,1,2.738,2.312c.081,3.025-1.33,8.228-7.256,9.554a9.4,9.4,0,0,1-11.113-5.737C238.67,251.676,238.869,250.246,240.315,249.8Z"/>
    </clipPath>
    <clipPath id="clip-path-5">
      <path id="Trazado_1045157" data-name="Trazado 1045157" d="M158.612,205.923s.138-.012.37-.039c-.038-.046-.068-.1-.1-.142-3.847.14-13.363-.067-26.736-4.126,0,0,2.068,20.045,6.947,30.526,3.115,6.692,6.481,16.1,8.889,23.238,5.56-2.421,10.911-4.389,14.08-4.636a69.855,69.855,0,0,1,13.263-.085S158.661,213.5,158.612,205.923Z"/>
    </clipPath>
    <clipPath id="clip-path-11">
      <path id="Trazado_1045207" data-name="Trazado 1045207" d="M344.9,301.191s-.133-.038-.356-.109c.046-.038.085-.082.13-.119,3.748.879,13.125,2.511,27.03,1.107,0,0-5.894,19.27-12.7,28.614-4.347,5.966-9.464,14.546-13.2,21.088-4.989-3.447-9.86-6.411-12.922-7.264a69.779,69.779,0,0,0-13-2.641S343.39,308.618,344.9,301.191Z"/>
    </clipPath>
    <clipPath id="clip-path-18">
      <path id="Trazado_1045265" data-name="Trazado 1045265" d="M379,272.572s24.324-18.518,28.4-16.02c1.9,1.168-15.576,30.643-15.576,30.643S382.442,282.14,379,272.572Z"/>
    </clipPath>
  </defs>
  <g id="Enmascarar_grupo_1098835" data-name="Enmascarar grupo 1098835" transform="translate(-1019.749 -3469)" clip-path="url(#clip-path)">
    <g id="Grupo_1183395" data-name="Grupo 1183395" transform="translate(-5750.815 107.148)">
      <ellipse id="Elipse_12546" data-name="Elipse 12546" cx="167.436" cy="163.967" rx="167.436" ry="163.967" transform="translate(6803.128 3365.572)" fill="#cbddf7"/>
      <g id="Grupo_1183306" data-name="Grupo 1183306" transform="translate(6713 3247)">
        <path id="Trazado_1045068" data-name="Trazado 1045068" d="M163.22,368.953l7.115-2.9-6.931-3.073-2.9-7.115-3.073,6.933-7.115,2.893,6.931,3.07,2.9,7.118Z" fill="#fff"/>
        <path id="Trazado_1045069" data-name="Trazado 1045069" d="M367.5,196.082l7.115-2.9-6.931-3.073L364.792,183l-3.073,6.933-7.115,2.893,6.931,3.07,2.895,7.118Z" fill="#fff"/>
        <path id="Trazado_1045070" data-name="Trazado 1045070" d="M175.852,142.848l7.115-2.9-6.931-3.073-2.9-7.115-3.073,6.933-7.115,2.893,6.931,3.071,2.9,7.118Z" fill="#fff"/>
        <path id="Trazado_1045071" data-name="Trazado 1045071" d="M116.76,343.112l4.776-1.944-4.652-2.063-1.943-4.775-2.062,4.653-4.776,1.942,4.652,2.061,1.943,4.777Z" fill="#fff"/>
        <path id="Trazado_1045072" data-name="Trazado 1045072" d="M380.544,373.3l4.776-1.944-4.652-2.063-1.943-4.775-2.062,4.653-4.776,1.942,4.652,2.061,1.943,4.777Z" fill="#fff"/>
        <path id="Trazado_1045073" data-name="Trazado 1045073" d="M379.281,236.885l4.776-1.944-4.652-2.063-1.943-4.775-2.062,4.653-4.776,1.942,4.652,2.061,1.943,4.777Z" fill="#fff"/>
        <path id="Trazado_1045074" data-name="Trazado 1045074" d="M106.778,288.583l4.776-1.944-4.652-2.063-1.943-4.775-2.062,4.653L98.121,286.4l4.652,2.061,1.943,4.777Z" fill="#fff"/>
        <path id="Trazado_1045075" data-name="Trazado 1045075" d="M135.12,317.105a2.843,2.843,0,1,1-2.843-2.843A2.843,2.843,0,0,1,135.12,317.105Z" fill="#fff"/>
        <path id="Trazado_1045076" data-name="Trazado 1045076" d="M394.879,209.2a2.843,2.843,0,1,1-2.843-2.843A2.843,2.843,0,0,1,394.879,209.2Z" fill="#fff"/>
        <path id="Trazado_1045077" data-name="Trazado 1045077" d="M365.826,385.72a2.843,2.843,0,1,1-2.843-2.843A2.843,2.843,0,0,1,365.826,385.72Z" fill="#fff"/>
        <path id="Trazado_1045078" data-name="Trazado 1045078" d="M218.037,117.614a2.843,2.843,0,1,1-2.843-2.843A2.843,2.843,0,0,1,218.037,117.614Z" fill="#fff"/>
        <path id="Trazado_1045079" data-name="Trazado 1045079" d="M369.616,154.246a2.843,2.843,0,1,1-2.843-2.843A2.843,2.843,0,0,1,369.616,154.246Z" fill="#fff"/>
      </g>
      <path id="Trazado_1045080" data-name="Trazado 1045080" d="M407.861,275.469l.076-2a55.205,55.205,0,0,1-8.647-.995c1.2-2.62,1.816-4.444,1.372-4.716-1.291-.792-4.62.531-8.561,2.7-.2-.074-.4-.15-.6-.226a24.526,24.526,0,0,0-1.17-3.943,24.3,24.3,0,0,0-5.233.994c-.05-.027-.1-.05-.15-.078l-.083.149a26.175,26.175,0,0,0-13.4,10.3,48.432,48.432,0,0,0-25.687-4.552c-.011-.026-.029-.063-.036-.083-11.133,1.429-22.531,8.776-22.828,19.544-.255,9.221,5.619,15.242,11.784,18.395a107.837,107.837,0,0,0-6.507,17.838,6.992,6.992,0,0,0-4.708,1.728,7.684,7.684,0,0,0-1.323,9.412c-.434.648-.863,1.286-1.282,1.908-3.121-10.182-13.384-36.853-35.815-39.2-9.692-.932-18.791-1.193-25.878-1.2V293.3c.406-.065.809-.137,1.211-.209,12.833.4,24.938-1.662,34.586-7.549a33,33,0,0,0,6.42-3.08,33.978,33.978,0,0,0,4.051-3,19.969,19.969,0,0,0,9.706,2.5,20.322,20.322,0,0,0,13.61-35.271q1.791-3.864,3.149-7.72c4.3-12.205,5.325-24.518,2.957-35.606a51.639,51.639,0,0,0-1.636-5.879c-1.867-11.562-5.555-21.032-23.135-25.416a22.6,22.6,0,0,0-5.147-1.488,40.517,40.517,0,0,0,3.208-5.493,5.666,5.666,0,0,0,.746-2.7,2.138,2.138,0,0,0-1.615-2.06c-1.31-.194-2.245,1.2-2.827,2.385q-1.85,3.783-3.7,7.566c-.29.006-.565.016-.822.03-.214-.024-.42-.051-.636-.075a55.971,55.971,0,0,0,.511-13.066,7,7,0,0,0-.6-2.688,2.318,2.318,0,0,0-4.357.045,7.122,7.122,0,0,0-.561,2.753,67.071,67.071,0,0,0-.057,6.932,46.684,46.684,0,0,0-9.955-11.575c-7.112-5.967-19.574-12.737-38.552-11.1-31.66,2.727-64.671,10.989-69.463,51.6-.949,8.039-1.6,15.37-1.951,22.048a20.371,20.371,0,0,0-3.168,1.047,65.445,65.445,0,0,0-3.125-8.623,18.644,18.644,0,0,0,2.642-6.989c1.784-10.623-7.983-20.029-18.632-23.579-.011.019-.035.051-.051.075a48.429,48.429,0,0,0-25.9-.532c-2.737-2.44-15.4-13.377-19.273-10.487-.674.5,1.269,12.277,2.332,18.407-6.233-.378-14.652-.269-15.723,2.929-.2.609,4.594,5.746,8.819,10.114a35.383,35.383,0,0,0-1.075,3.938C96.2,205.348,88.85,211.8,90.319,215.146c.218.5,5.255.987,10.469,1.364.109.792.244,1.6.394,2.427-4.4,4.346-11.83,12.438-9.825,15.764.349.579,8.112.188,14.368-.224.147.43.291.848.436,1.27-4.409,4.362-11.746,12.383-9.751,15.691.362.6,8.726.157,15.09-.273,4.145,11.848,6.838,19.234,8.176,22.847-.094.124-.148.2-.155.211a.5.5,0,0,0,.411.783.469.469,0,0,0,.1-.025c.43,1.154.645,1.718.645,1.718l.081-.044A29.561,29.561,0,0,0,134.122,279l1.531,3c.634,1.214,1.225,2.446,1.9,3.645l2.058,3.58,4.147,7.163,4.523,7.006a219.521,219.521,0,0,0,13.26,17.931c-2.535,2.118-4.479,3.644-5.3,4.246a1.714,1.714,0,0,0-.393,2.372s1.969,4.019,4.088,3.461c6.5,5.354,24.664,20.128,37.235,28.461l-4.146,50.581s1.209.547,3.415,1.384c-.58,13.243-1.6,20.59.178,50.651,8.415,5.837,28.746,5.414,42.21,5.555l-.278,11.051c6.459.117,13.449-.025,20.917-.538l-1.661-9.515c13.071-.637,31.861-1.563,43.98-5.946-1.371-31.424-5.477-38.339-7.346-51.353,1.989-.785,3.062-1.289,3.062-1.289l-3.4-41.46,6.935,15.611a14.956,14.956,0,0,0,2.208,5.287,17.819,17.819,0,0,0,14.98,10.775,17.28,17.28,0,0,0,15.23-6.4,19.1,19.1,0,0,0,1.867-2.727L347.7,369.279c5.423,4.13,9.587,7.585,9.587,7.585s.32-.512.965-1.562a.518.518,0,0,0,.1.044.5.5,0,0,0,.555-.69c-.005-.01-.043-.1-.111-.237,3.068-5.02,10.924-18.042,24.408-41.472a58.16,58.16,0,0,0,6.969-17.814c14.424-.4,17.551-16.735,17.551-16.735a23.748,23.748,0,0,0-10.033-3.008,41.859,41.859,0,0,1-9.177-2.872c.815-1.416,1.723-3.006,2.668-4.683a72.132,72.132,0,0,0,11.184,3.465l.434-1.953a70.04,70.04,0,0,1-10.63-3.271c1-1.8,2.024-3.65,3-5.458,3.434.856,6.765,1.444,9.99,1.928l.3-1.978c-3.227-.485-6.306-1.044-9.32-1.768.83-1.574,1.6-3.082,2.272-4.452A56.683,56.683,0,0,0,407.861,275.469Zm-18.752,20.793c-.189-.541-.385-1.067-.59-1.569.918.386,1.845.749,2.786,1.073C390.539,295.906,389.808,296.076,389.109,296.262Zm-70.775,60.166-.359-.664a7.2,7.2,0,0,0,1.758-1.633l.432.093ZM158.917,237.406a20.427,20.427,0,0,0,.646,3.235q-.532-1.32-1.056-2.644c.007-.16.013-.321.017-.484Zm-.146-3.068-.293.08c-.044-.84-.108-1.7-.19-2.562.248-.035.5-.077.746-.114A20.051,20.051,0,0,0,158.771,234.338Zm2.645,10.834.09-.013a19.971,19.971,0,0,0,6.706,6.938q-1.853-.017-3.822.143C163.467,250.08,162.456,247.684,161.416,245.172Zm19.19,13.012a36.834,36.834,0,0,0,4.785,7.855v.577a30.449,30.449,0,0,1-5.927-9.059Q180.049,257.852,180.606,258.184ZM157.94,228.872c-.265-1.977-.589-3.909-.918-5.662a64.822,64.822,0,0,0,7.015-1.919,20.4,20.4,0,0,0-3.554,5.469c-.266.6-.495,1.216-.7,1.83Q158.861,228.744,157.94,228.872Zm4.781-15.818c.45,1.459.9,3.154,1.3,5.071a60.828,60.828,0,0,1-7.582,2.128c-.371-1.76-.692-3.124-.873-3.863A24.471,24.471,0,0,0,162.721,213.054Zm5.437,48.764c.283.028.43.047.43.047s-.254-.568-.7-1.568a.482.482,0,0,0,.114-.225.5.5,0,0,0-.4-.583c-.025-.005-.051-.007-.076-.011-.493-1.12-1.14-2.6-1.884-4.319a27.561,27.561,0,0,1,13.137,2.058,31.027,31.027,0,0,0,6.608,10.122v3.548h4.3q1.262.921,2.527,1.772a55.464,55.464,0,0,0,10.923,6.363,57.37,57.37,0,0,0,23.216,12.386v9.005a155.3,155.3,0,0,0-18.277.649c-5.775.6-11.746-6.232-14.621-7.529a1.921,1.921,0,0,0-.558-.32l-3.19-1.14a1.807,1.807,0,0,0-1.976.509c-3.269-3.472-6.428-7.127-9.478-10.906l-4.335-5.532-4.083-5.8-2.048-2.9c-.673-.978-1.279-2.01-1.923-3.012l-.214-.339c1.721-1.236,2.7-2.005,2.7-2.005Zm132.978,20.219a31.94,31.94,0,0,1-4.032,2.126,39.44,39.44,0,0,0,6.473-5.63l.139-.153c.417.29.852.553,1.291.811A33.457,33.457,0,0,1,301.136,282.037Zm33.251-78.569c2.35,11,1.333,23.219-2.94,35.338q-1.328,3.767-3.066,7.532a20.208,20.208,0,0,0-1.69-1.337c6.555-13.646,9.489-26.778,7.978-37.2-.346-2.389-.634-4.733-.945-7.011C333.962,201.671,334.193,202.559,334.387,203.468ZM199.222,154.755c10.815-6.88,25.609-10.924,46.558-12.729,18.793-1.617,31.133,5.074,38.171,10.973A45.418,45.418,0,0,1,294.3,165.3c.02.344.045.688.07,1.032-.382-.47-.789-.959-1.247-1.48-4.67-8.559-18.362-24.733-54.219-20.956-34.2,3.6-53.747,15.211-60.494,40.28C181.68,171.232,188.536,161.552,199.222,154.755Zm-23.384,47.087c-.042.913-.084,1.826-.1,2.764-.079,3.57-.159,7-.215,10.3-.233.042-.461.1-.692.152Q175.156,208.84,175.838,201.842Z" transform="translate(6713 3247)" fill="#fae690" opacity="0.27"/>
      <g id="Grupo_1183394" data-name="Grupo 1183394" transform="translate(6713 3247)">
        <path id="Trazado_1045081" data-name="Trazado 1045081" d="M127.4,265.4a29.845,29.845,0,0,0,24.316-.316,132.615,132.615,0,0,0,23.368-14.211l-6.316-8.526L127.4,255.3Z" fill="#79a89f"/>
        <g id="Grupo_1183308" data-name="Grupo 1183308">
          <path id="Trazado_1045082" data-name="Trazado 1045082" d="M205.634,342.517l-1.112-.549-.7-.384-1.3-.732c-.811-.475-1.5-.915-2.246-1.379s-1.43-.918-2.089-1.374l-2-1.376c-2.55-1.86-5.029-3.73-7.3-5.686a155.432,155.432,0,0,1-12.87-12.145,200.849,200.849,0,0,1-20.992-26.7l-4.523-7.006-4.147-7.163-2.058-3.58c-.672-1.2-1.263-2.431-1.9-3.645l-3.729-7.3-.924-1.826-.838-1.858-1.672-3.714-3.33-7.419-5.914-15.042L155.1,221.583l6.528,13.028,3.551,6.3,1.768,3.148.882,1.573.955,1.521,3.823,6.064c.644,1,1.25,2.035,1.923,3.012l2.048,2.9,4.083,5.8,4.335,5.532a162.416,162.416,0,0,0,18.8,19.964,114.043,114.043,0,0,0,10.243,8.039c1.723,1.239,3.457,2.281,5.139,3.3.81.424,1.7.98,2.424,1.311l1.085.527.4.158c.044.016.177.08.148.058q-.12-.074-.246-.135Z" fill="#eabaaf"/>
          <path id="Trazado_1045083" data-name="Trazado 1045083" d="M125.982,233.632s-6.591-18.466-6.8-18.967c-1.31-3.176-5.963-14.971-3.6-16.78,2.741-2.1,8.771,13.221,8.771,13.221s-7.069-17.866-3.674-19.6,9.688,16.821,9.688,16.821-7.017-20.79-3.986-21.722c4.6-1.414,9.62,19.392,9.62,19.392s-4.908-16.863-1.736-18.785,12.479,21.308,12.479,21.308,2.712-16.1,4.962-13.992,2.634,18.668,3.382,27.052" fill="#eabaaf"/>
          <g id="Grupo_1183307" data-name="Grupo 1183307">
            <path id="Trazado_1045084" data-name="Trazado 1045084" d="M123.3,215.789a24.556,24.556,0,0,1,10.037-6.362,26.4,26.4,0,0,1,5.858-1.3c1-.086,1.995-.144,2.99-.154a24.2,24.2,0,0,1,2.975.272l.009,0a.05.05,0,0,1-.008.1,37.2,37.2,0,0,0-21.8,7.528.05.05,0,0,1-.067-.073Z" fill="#84332d"/>
          </g>
        </g>
        <g id="Grupo_1183309" data-name="Grupo 1183309">
          <path id="Trazado_1045085" data-name="Trazado 1045085" d="M325.323,386.389c-4.666,0-12.858-3.383-15.234-7.775l-14.647-32.97a13.129,13.129,0,1,1,23.093-12.5l18.323,33.861a13.135,13.135,0,0,1-11.535,19.38Z" fill="#eabaaf"/>
        </g>
        <g id="Grupo_1183312" data-name="Grupo 1183312">
          <g id="Grupo_1183310" data-name="Grupo 1183310">
            <path id="Trazado_1045086" data-name="Trazado 1045086" d="M257.088,438.326c-3.654-.059-7.2,0-10.47.113l-.016,1.083-1.324,52.622c6.459.117,13.449-.025,20.917-.538l-9.09-52.084Z" fill="none"/>
          </g>
          <path id="Trazado_1045087" data-name="Trazado 1045087" d="M300.223,394.194,279.6,398.37l-56.736-.251-19.382-3.926s-2.463,42-.138,81.345c8.845,6.135,30.861,5.353,44.223,5.582l-.967-39.939.016-1.083c3.271-.115,6.816-.172,10.47-.114l.017,1.2,4.7,41.045c13.06-.656,33.721-1.382,46.711-6.081C306.718,434.963,300.223,394.194,300.223,394.194Z" fill="#97d6ed"/>
          <path id="Trazado_1045088" data-name="Trazado 1045088" d="M302.72,411.923c-1.409-10.893-2.5-17.729-2.5-17.729L279.6,398.37l-56.736-.251-19.382-3.926s-.5,8.534-.836,21.492C235.263,420.681,271.343,421.8,302.72,411.923Z" fill="#97d6ed" opacity="0.43"/>
          <g id="Grupo_1183311" data-name="Grupo 1183311">
            <path id="Trazado_1045089" data-name="Trazado 1045089" d="M231.668,439.565c3.382-.259,6.767-.4,10.152-.53,3.386-.087,6.773-.193,10.161-.2,6.775-.061,13.555-.025,20.331.313a.3.3,0,0,1-.011.608l-20.3.355-10.154.133c-3.385.007-6.772.009-10.16-.073a.3.3,0,0,1-.016-.609Z" fill="#97d6ed"/>
            <path id="Trazado_1045090" data-name="Trazado 1045090" d="M251.864,389.137c.126,3.387.17,6.773.213,10.158l.027,10.154.022,10.151c.031,3.382.018,6.767.152,10.14a.3.3,0,0,1-.289.319.308.308,0,0,1-.318-.274c-.665-6.77-.77-13.554-.843-20.33-.051-3.389,0-6.778.038-10.166.077-3.388.176-6.775.39-10.161a.3.3,0,0,1,.608.009Z" fill="#97d6ed"/>
            <path id="Trazado_1045091" data-name="Trazado 1045091" d="M251.976,427.152a2.657,2.657,0,0,0,2.731-1,7.839,7.839,0,0,0,1.37-2.994,40.168,40.168,0,0,0,.944-6.927c.313-4.714.382-9.469.47-14.219a.3.3,0,0,1,.3-.3.31.31,0,0,1,.3.28,105.819,105.819,0,0,1,.2,14.325,32.209,32.209,0,0,1-1.054,7.182,8.459,8.459,0,0,1-1.8,3.33,3.309,3.309,0,0,1-3.709.881.3.3,0,0,1,.21-.567Z" fill="#97d6ed"/>
            <path id="Trazado_1045092" data-name="Trazado 1045092" d="M205.249,419.059a20.74,20.74,0,0,0,4.914-3.467,19.248,19.248,0,0,0,3.71-4.68,11.879,11.879,0,0,0,.679-1.336,8.768,8.768,0,0,0,.579-1.383l.5-1.42.359-1.467a26.621,26.621,0,0,0,.492-2.994c.1-1.011.092-2.033.172-3.058l0-.039a.3.3,0,0,1,.6.007c.057,1.042.136,2.094.126,3.146l-.112,1.579a8.977,8.977,0,0,1-.213,1.572l-.3,1.566-.486,1.523a9.745,9.745,0,0,1-.592,1.486,13.122,13.122,0,0,1-.7,1.441,17.453,17.453,0,0,1-4.016,4.96,15.993,15.993,0,0,1-5.52,3.139.3.3,0,0,1-.227-.561Z" fill="#97d6ed"/>
            <path id="Trazado_1045093" data-name="Trazado 1045093" d="M300.024,419.633a15.977,15.977,0,0,1-5.52-3.139,17.453,17.453,0,0,1-4.016-4.96,12.943,12.943,0,0,1-.7-1.441,9.748,9.748,0,0,1-.592-1.486l-.486-1.523-.3-1.566a8.978,8.978,0,0,1-.213-1.572l-.112-1.579c-.01-1.052.069-2.1.126-3.146a.3.3,0,0,1,.6-.007l0,.039c.079,1.025.068,2.047.172,3.058a26.617,26.617,0,0,0,.492,2.994l.36,1.467.5,1.42a8.92,8.92,0,0,0,.579,1.383,11.72,11.72,0,0,0,.679,1.336,19.247,19.247,0,0,0,3.71,4.68,20.72,20.72,0,0,0,4.914,3.467l.027.014a.3.3,0,0,1-.229.561Z" fill="#97d6ed"/>
          </g>
        </g>
        <g id="Grupo_1183317" data-name="Grupo 1183317">
          <path id="Trazado_1045094" data-name="Trazado 1045094" d="M300.085,348.658c13.682.829,28.607-14.1,28.607-14.1s-9.121-40.216-36.9-43.118a281.262,281.262,0,0,0-39.4-.877c-3.954-.207-18.65-2.532-37.573-.712-6.944.725-14.179-9.315-15.962-7.532-17.413,17.413-34.619,35.863-34.619,35.863s24.116,20.167,39.663,30.473l-4.146,60.581A141.005,141.005,0,0,0,251.991,419.6v.009c.139,0,.275,0,.415,0s.275,0,.415,0V419.6c29.834-.188,51.41-10.356,51.41-10.356Z" fill="#8076ad"/>
          <g id="Grupo_1183313" data-name="Grupo 1183313">
            <path id="Trazado_1045095" data-name="Trazado 1045095" d="M299.91,351.925c-.079-1.948-.109-3.892-.147-5.837l-.045-5.836c-.018-3.892-.028-7.789.13-11.687l.463,0q.294,5.836.378,11.68c.047,1.948.021,3.9,0,5.848-.053,1.95-.133,3.9-.313,5.845Z" fill="#504d7a"/>
          </g>
          <g id="Grupo_1183314" data-name="Grupo 1183314">
            <path id="Trazado_1045096" data-name="Trazado 1045096" d="M231.44,292c-5.34.932-5.312,5.17-5.312,5.17A16.527,16.527,0,0,0,242.655,313.7h11.132c10.532,0,19.183-7.436,19.183-17.968h0s.424-4.662-5.17-4.662C260.683,291.066,247.2,289.247,231.44,292Z" fill="#dd8868"/>
          </g>
          <g id="Grupo_1183315" data-name="Grupo 1183315">
            <path id="Trazado_1045097" data-name="Trazado 1045097" d="M162.576,316.736a1.714,1.714,0,0,1,.392-2.372c3.471-2.527,26.512-21.223,31.2-32.511a1.8,1.8,0,0,1,2.28-.987l3.19,1.14a1.781,1.781,0,0,1,1.117,2.316c-5.4,13.158-29.555,32.462-33.371,35.515C165.014,321.732,162.576,316.736,162.576,316.736Z" fill="#dd8868"/>
          </g>
          <g id="Grupo_1183316" data-name="Grupo 1183316">
            <path id="Trazado_1045098" data-name="Trazado 1045098" d="M329.579,334.944a1.714,1.714,0,0,0-2.29-.464c-3.494,2.16-14.579,8.242-26.448,8.484a1.7,1.7,0,0,0-1.684,1.648l-.067,3.16a1.711,1.711,0,0,0,1.717,1.757c13.812-.225,25.836-7.073,29.926-9.354C333.274,338.759,329.579,334.944,329.579,334.944Z" fill="#dd8868"/>
          </g>
        </g>
        <g id="Grupo_1183342" data-name="Grupo 1183342">
          <path id="Trazado_1045099" data-name="Trazado 1045099" d="M302.009,158.653s-8.124-31.046-56.371-25.964c-42.4,4.467-62.294,21.226-63.172,60.71s-1.821,62.3,29.417,75.3,76.572,22.352,98.427-1.372S344.158,215.6,341.4,196.591,339.643,161.436,302.009,158.653Z" fill="#a06d4a"/>
          <g id="Grupo_1183318" data-name="Grupo 1183318">
            <path id="Trazado_1045100" data-name="Trazado 1045100" d="M284.207,276.876c-4.192,0-8.566-.277-13.108-.628l.039-.5c14.035,1.085,26.488,1.464,36.73-4.923,5.069-3.161,9-7.719,12.5-12.172,8.389-10.691,14.216-20.851,17.815-31.059,4.272-12.119,5.289-24.339,2.939-35.338a44.117,44.117,0,0,0-11.7-22.353,32.351,32.351,0,0,0-22.893-9.693l-.008-.5c.151,0,.3,0,.456,0a32.866,32.866,0,0,1,22.8,9.84,44.615,44.615,0,0,1,11.832,22.6c2.368,11.088,1.346,23.4-2.957,35.606-3.616,10.261-9.469,20.466-17.892,31.2-3.523,4.489-7.489,9.085-12.624,12.287C301.1,275.64,293.059,276.876,284.207,276.876Z" fill="#a06d4a"/>
          </g>
          <g id="Grupo_1183319" data-name="Grupo 1183319">
            <path id="Trazado_1045101" data-name="Trazado 1045101" d="M225.268,273.423a89.517,89.517,0,0,1-30.79-15.212c-13.137-10.277-16.568-33.093-11.471-76.29,4.792-40.609,37.8-48.872,69.463-51.6,18.978-1.635,31.44,5.135,38.552,11.1a44.071,44.071,0,0,1,11.006,13.494l-.451.209a43.578,43.578,0,0,0-10.893-13.336c-7.038-5.9-19.378-12.59-38.171-10.973-20.949,1.8-35.743,5.849-46.558,12.729-13.036,8.292-20.381,20.864-22.455,38.433-5.074,43-1.7,65.683,11.283,75.839a88.928,88.928,0,0,0,30.6,15.12Z" fill="#a06d4a"/>
          </g>
          <g id="Grupo_1183320" data-name="Grupo 1183320">
            <path id="Trazado_1045102" data-name="Trazado 1045102" d="M249.951,307.2h-.894c-8.817,0-15.964-2.792-15.964-11.609v-26.6a15.964,15.964,0,0,1,15.964-15.964h.894a15.964,15.964,0,0,1,15.964,15.964v26.6C265.915,304.406,258.768,307.2,249.951,307.2Z" fill="#eabaaf"/>
          </g>
          <g id="Grupo_1183321" data-name="Grupo 1183321">
            <path id="Trazado_1045103" data-name="Trazado 1045103" d="M265.915,286.75V268.988a15.964,15.964,0,0,0-15.964-15.964h-.894a15.964,15.964,0,0,0-15.964,15.964v20.421A76.519,76.519,0,0,0,265.915,286.75Z" fill="#84332d" opacity="0.2"/>
          </g>
          <g id="Grupo_1183322" data-name="Grupo 1183322">
            <path id="Trazado_1045104" data-name="Trazado 1045104" d="M301.7,250.45a20.177,20.177,0,1,0,20.166-20.325A20.247,20.247,0,0,0,301.7,250.45Z" fill="#daa297"/>
            <path id="Trazado_1045105" data-name="Trazado 1045105" d="M304.746,256.94c0,7.325,7.061,13.26,15.762,13.255s15.751-5.947,15.748-13.272-7.061-13.26-15.762-13.255S304.742,249.615,304.746,256.94Z" fill="#84332d" opacity="0.2"/>
            <path id="Trazado_1045106" data-name="Trazado 1045106" d="M304.746,256.94c0,7.325,7.061,13.26,15.762,13.255s15.751-5.947,15.748-13.272-7.061-13.26-15.762-13.255S304.742,249.615,304.746,256.94Z" fill="#84332d" opacity="0.2"/>
            <path id="Trazado_1045107" data-name="Trazado 1045107" d="M338.691,253.464a22.767,22.767,0,0,0-3.338-3.408,27.323,27.323,0,0,0-3.87-2.771A25.359,25.359,0,0,0,322.529,244a23.918,23.918,0,0,0-4.8-.32l-2.393.261a15.664,15.664,0,0,0-2.341.51,23.577,23.577,0,0,0-4.486,1.606,15.284,15.284,0,0,0-2.085,1.125l-2.039,1.2a.655.655,0,0,0,.633,1.146l.074-.039,2.009-1.048a14.128,14.128,0,0,1,2.032-.974A26.073,26.073,0,0,1,313.4,246.1a21.116,21.116,0,0,1,8.814-.253,25.893,25.893,0,0,1,8.317,3.068,36.736,36.736,0,0,1,7.154,5.389l.033.033a.656.656,0,0,0,.973-.877Z" fill="#84332d" opacity="0.5"/>
            <path id="Trazado_1045108" data-name="Trazado 1045108" d="M324.338,257.5a18.218,18.218,0,0,0-5.486-4.986,19.939,19.939,0,0,0-7.03-2.549,17.81,17.81,0,0,0-3.762-.229,18.828,18.828,0,0,0-3.7.642,17.621,17.621,0,0,0-3.484,1.3,36.188,36.188,0,0,0-3.17,1.872.506.506,0,0,0,.468.9l.08-.036c1.076-.481,2.082-1.092,3.169-1.5a21.279,21.279,0,0,1,3.309-1,16.636,16.636,0,0,1,6.782-.133,19.82,19.82,0,0,1,6.379,2.385,37.288,37.288,0,0,1,5.665,3.995l.033.028a.51.51,0,0,0,.746-.683Z" fill="#84332d" opacity="0.5"/>
          </g>
          <g id="Grupo_1183323" data-name="Grupo 1183323">
            <ellipse id="Elipse_12547" data-name="Elipse 12547" cx="20.315" cy="20.177" rx="20.315" ry="20.177" transform="translate(159.034 234.128) rotate(-66.247)" fill="#daa297"/>
            <path id="Trazado_1045109" data-name="Trazado 1045109" d="M198.758,236.517c-2.949,6.705-11.8,9.3-19.761,5.8s-12.031-11.779-9.081-18.484,11.8-9.3,19.761-5.8S201.708,229.812,198.758,236.517Z" fill="#84332d" opacity="0.2"/>
            <path id="Trazado_1045110" data-name="Trazado 1045110" d="M169.077,219.684a22.7,22.7,0,0,1,4.427-1.778,27.366,27.366,0,0,1,4.657-.981,25.36,25.36,0,0,1,9.521.59,23.866,23.866,0,0,1,4.52,1.636l2.086,1.2a15.62,15.62,0,0,1,1.938,1.408,23.535,23.535,0,0,1,3.462,3.274,15.206,15.206,0,0,1,1.456,1.869l1.386,1.915a.655.655,0,0,1-1.04.795l-.052-.065-1.418-1.768a14.134,14.134,0,0,0-1.469-1.709,26.02,26.02,0,0,0-3.359-2.956,21.12,21.12,0,0,0-7.968-3.776,25.9,25.9,0,0,0-8.849-.536,36.771,36.771,0,0,0-8.717,2.057l-.044.016a.655.655,0,0,1-.537-1.192Z" fill="#84332d" opacity="0.5"/>
            <path id="Trazado_1045111" data-name="Trazado 1045111" d="M180.6,229.148a18.221,18.221,0,0,1,7.028-2.359,19.972,19.972,0,0,1,7.462.493,17.758,17.758,0,0,1,3.536,1.3,18.887,18.887,0,0,1,3.128,2.075,17.678,17.678,0,0,1,2.668,2.591,36.227,36.227,0,0,1,2.15,2.989.506.506,0,0,1-.789.631l-.059-.065c-.792-.873-1.467-1.836-2.3-2.647a21.224,21.224,0,0,0-2.628-2.246,16.644,16.644,0,0,0-6.156-2.849,19.839,19.839,0,0,0-6.8-.382,37.445,37.445,0,0,0-6.793,1.379l-.041.012a.509.509,0,0,1-.409-.925Z" fill="#84332d" opacity="0.5"/>
          </g>
          <path id="Trazado_1045112" data-name="Trazado 1045112" d="M189.813,210.383c-2.147,36.573,15.3,70.082,60.166,72.507,42.018,2.271,67.645-28.3,69.793-64.876s-25.2-67.929-61.091-70.037S191.961,173.811,189.813,210.383Z" fill="#eabaaf"/>
          <path id="Trazado_1045113" data-name="Trazado 1045113" d="M252.837,256c0,7.364,9.6,13.329,21.442,13.323s21.432-5.981,21.428-13.345-9.6-13.329-21.442-13.323S252.833,248.635,252.837,256Z" opacity="0.4" fill="url(#radial-gradient)"/>
          <path id="Trazado_1045114" data-name="Trazado 1045114" d="M194.312,237.064c-2.187,7.032,5.2,15.583,16.507,19.1s22.241.667,24.429-6.365-5.2-15.583-16.507-19.1S196.5,230.032,194.312,237.064Z" opacity="0.4" fill="url(#radial-gradient-2)"/>
          <g id="Grupo_1183324" data-name="Grupo 1183324">
            <path id="Trazado_1045115" data-name="Trazado 1045115" d="M263.922,233.357a14.512,14.512,0,1,0,13.842-15.283A14.581,14.581,0,0,0,263.922,233.357Z"/>
            <path id="Trazado_1045115_-_Contorno" data-name="Trazado 1045115 - Contorno" d="M278.421,247.746h0a14.766,14.766,0,0,1-10.281-4.161,15.137,15.137,0,0,1-.722-21.026,14.733,14.733,0,0,1,10.329-4.872c.223-.01.448-.015.67-.015a14.765,14.765,0,0,1,10.281,4.161,15.137,15.137,0,0,1,.721,21.027,14.733,14.733,0,0,1-10.329,4.872C278.868,247.741,278.642,247.746,278.421,247.746Zm0-29.3c-.211,0-.425,0-.636.014a13.962,13.962,0,0,0-9.789,4.618,14.3,14.3,0,0,0,10.427,23.89h0c.21,0,.424,0,.635-.014a14.265,14.265,0,0,0-.639-28.508Z"/>
            <path id="Trazado_1045116" data-name="Trazado 1045116" d="M263.648,234.528a14.423,14.423,0,1,0,13.757-15.189A14.491,14.491,0,0,0,263.648,234.528Z" fill="#fff"/>
            <path id="Trazado_1045117" data-name="Trazado 1045117" d="M264.7,231.407a9.369,9.369,0,1,0,8.937-9.868A9.412,9.412,0,0,0,264.7,231.407Z"/>
            <path id="Trazado_1045118" data-name="Trazado 1045118" d="M279.391,229.24c.056,1.258,1.616,2.21,3.484,2.127s3.337-1.171,3.281-2.429-1.616-2.21-3.484-2.127S279.334,227.982,279.391,229.24Z" fill="#fff"/>
          </g>
          <g id="Grupo_1183325" data-name="Grupo 1183325">
            <path id="Trazado_1045119" data-name="Trazado 1045119" d="M236.622,225.022a14.511,14.511,0,1,1-8.818-18.639A14.579,14.579,0,0,1,236.622,225.022Z"/>
            <path id="Trazado_1045119_-_Contorno" data-name="Trazado 1045119 - Contorno" d="M222.851,235.226a14.816,14.816,0,0,1-13.386-8.5,15.107,15.107,0,0,1,13.557-21.552,14.813,14.813,0,0,1,13.384,8.5,15.107,15.107,0,0,1-13.556,21.552Zm.172-29.276a14.331,14.331,0,0,0-12.856,20.443,14.04,14.04,0,0,0,12.684,8.056,14.331,14.331,0,0,0,12.854-20.444,14.037,14.037,0,0,0-12.683-8.056Z"/>
            <path id="Trazado_1045120" data-name="Trazado 1045120" d="M236.545,226.222a14.423,14.423,0,1,1-8.764-18.525A14.491,14.491,0,0,1,236.545,226.222Z" fill="#fff"/>
            <path id="Trazado_1045121" data-name="Trazado 1045121" d="M228.351,222.495a9.369,9.369,0,1,1-5.693-12.033A9.414,9.414,0,0,1,228.351,222.495Z"/>
            <path id="Trazado_1045122" data-name="Trazado 1045122" d="M215.223,217.008c-.419,1.188-2.188,1.647-3.951,1.025s-2.854-2.088-2.436-3.276,2.188-1.647,3.951-1.026S215.641,215.82,215.223,217.008Z" fill="#fff"/>
          </g>
          <path id="Trazado_1045123" data-name="Trazado 1045123" d="M305.209,166.677a40.581,40.581,0,0,0,9.687-12.795,5.666,5.666,0,0,0,.746-2.7,2.138,2.138,0,0,0-1.615-2.06c-1.31-.194-2.245,1.2-2.827,2.385l-6.214,12.7a55.974,55.974,0,0,0,1.566-18.249,7,7,0,0,0-.6-2.688,2.318,2.318,0,0,0-4.357.045,7.122,7.122,0,0,0-.561,2.753,67.115,67.115,0,0,0,1.7,19.638" fill="#a06d4a"/>
          <path id="Trazado_1045124" data-name="Trazado 1045124" d="M302.167,213.79s-14.7-21.3-22.631-16.66,9.433,17.534,12.131,19.115S305.878,222.534,302.167,213.79Z" fill="#8c5d3e"/>
          <path id="Trazado_1045125" data-name="Trazado 1045125" d="M209.035,195.244s23.051-11.768,27.827-3.918-16.626,10.953-19.751,11.064S201.618,201.178,209.035,195.244Z" fill="#8c5d3e"/>
          <path id="Trazado_1045126" data-name="Trazado 1045126" d="M248.787,232.1c-4.16-.229-9.266-7.678-12.058-.5s7.38,11.913,7.38,11.913" fill="#eabaaf"/>
          <g id="Grupo_1183326" data-name="Grupo 1183326">
            <path id="Trazado_1045127" data-name="Trazado 1045127" d="M254.653,210.277a107.392,107.392,0,0,1-1.44,13.235A30.75,30.75,0,0,1,251.442,230a7.716,7.716,0,0,1-.867,1.542,2.287,2.287,0,0,1-1.748,1.028,7.809,7.809,0,0,1-3.339-1.125c-1-.536-1.919-1.148-2.871-1.65a5.252,5.252,0,0,0-2.866-.818,2.959,2.959,0,0,0-2.123,1.766,6.381,6.381,0,0,0-.6,1.448l-.224.746c-.046.253-.054.512-.085.768a6.4,6.4,0,0,0,.056,1.544,7.661,7.661,0,0,0,.482,1.487,9.568,9.568,0,0,0,1.766,2.646,18.943,18.943,0,0,0,5.17,3.94l.011.006a.2.2,0,0,1-.182.362,19.443,19.443,0,0,1-5.513-3.829,10.279,10.279,0,0,1-1.968-2.8,8.5,8.5,0,0,1-.578-1.649,7.267,7.267,0,0,1-.112-1.759c.026-.293.033-.592.079-.882l.232-.85a7.231,7.231,0,0,1,.654-1.617,5.589,5.589,0,0,1,1.082-1.449,3.134,3.134,0,0,1,1.73-.818,6.09,6.09,0,0,1,3.441.9c1.008.527,1.946,1.119,2.894,1.643a7.013,7.013,0,0,0,2.877,1.03,1.38,1.38,0,0,0,.979-.645,6.811,6.811,0,0,0,.762-1.341,33.271,33.271,0,0,0,1.793-6.271c.441-2.155.782-4.336,1.083-6.523s.581-4.381.79-6.579a.2.2,0,0,1,.219-.186A.206.206,0,0,1,254.653,210.277Z" fill="#84332d"/>
          </g>
          <path id="Trazado_1045128" data-name="Trazado 1045128" d="M190.183,201.22s26.01-1.943,44.1-16.865c2.59-2.136-2.253,14.778,20.313,11.115,15.3-2.483,23.168-6.108,42.226-11.77,0,0,7.643,41.829,20.426,47.5s23.088-32.213,14.092-54.18-27.186-17.606-27.186-17.606S287.1,128.9,242.126,134.572,186.88,172.025,190.183,201.22Z" fill="#a06d4a"/>
          <g id="Grupo_1183327" data-name="Grupo 1183327">
            <path id="Trazado_1045129" data-name="Trazado 1045129" d="M245.31,197.066a18.081,18.081,0,0,1-8.665-1.837c-3.647-1.954-6.546-6.645-4.868-10.814l.464.186c-1.574,3.913,1.183,8.335,4.64,10.187,3.68,1.972,8.041,1.937,12.2,1.606A99.987,99.987,0,0,0,297.649,179.2l.283.412a100.469,100.469,0,0,1-48.809,17.281C247.863,196.993,246.584,197.066,245.31,197.066Z" fill="#a06d4a"/>
          </g>
          <g id="Grupo_1183328" data-name="Grupo 1183328">
            <path id="Trazado_1045130" data-name="Trazado 1045130" d="M321.852,233.146a12.075,12.075,0,0,1-5.468-1.355c-4.1-2.078-6.913-5.964-8.9-9.117a70.421,70.421,0,0,1-10.537-43.624l.5.045A69.913,69.913,0,0,0,307.9,222.407c1.957,3.1,4.715,6.915,8.708,8.938,3.455,1.75,8.552,1.936,11.605-1.1l.352.354A9.607,9.607,0,0,1,321.852,233.146Z" fill="#a06d4a"/>
          </g>
          <g id="Grupo_1183329" data-name="Grupo 1183329">
            <path id="Trazado_1045131" data-name="Trazado 1045131" d="M256.443,187.824a13.254,13.254,0,0,1-4.564-.744,9.2,9.2,0,0,1-5.035-4.6,6.109,6.109,0,0,1-.3-4.767l.469.174a5.623,5.623,0,0,0,.282,4.383,8.679,8.679,0,0,0,4.752,4.343c3.639,1.325,7.732.549,11.283-.283a142.741,142.741,0,0,0,46.811-20.3l.277.416a143.244,143.244,0,0,1-46.975,20.373A31.194,31.194,0,0,1,256.443,187.824Z" fill="#8c5d3e"/>
          </g>
          <g id="Grupo_1183330" data-name="Grupo 1183330">
            <path id="Trazado_1045132" data-name="Trazado 1045132" d="M195.107,189.717c-.325-11.652,5.535-23.625,15.676-32.027,8.528-7.065,20.176-11.793,33.684-13.671,11.276-1.568,27.634-1.64,41.533,6.913l-.262.426c-13.774-8.476-30.009-8.4-41.2-6.844-13.416,1.865-24.977,6.555-33.434,13.561-10.024,8.305-15.816,20.128-15.495,31.628Z" fill="#8c5d3e"/>
          </g>
          <g id="Grupo_1183331" data-name="Grupo 1183331">
            <path id="Trazado_1045133" data-name="Trazado 1045133" d="M332.516,224.031l-.476-.149a60.218,60.218,0,0,0-8.832-52.773l.4-.3A60.717,60.717,0,0,1,332.516,224.031Z" fill="#8c5d3e"/>
          </g>
          <g id="Grupo_1183332" data-name="Grupo 1183332">
            <path id="Trazado_1045134" data-name="Trazado 1045134" d="M321.418,216.257a3.221,3.221,0,0,1-.381-.022c-2.646-.313-3.844-3.333-4.384-5.811a76.418,76.418,0,0,1-.566-29.329l.492.087a75.931,75.931,0,0,0,.562,29.135c.505,2.319,1.6,5.142,3.954,5.421a4.042,4.042,0,0,0,3.565-1.859,12.4,12.4,0,0,0,1.627-4.06l.483.13a12.94,12.94,0,0,1-1.7,4.22A4.682,4.682,0,0,1,321.418,216.257Z" fill="#8c5d3e"/>
          </g>
          <g id="Grupo_1183333" data-name="Grupo 1183333">
            <path id="Trazado_1045135" data-name="Trazado 1045135" d="M327.408,203.076l-.49-.1a32.261,32.261,0,0,0-2.8-20.873l.447-.226A32.791,32.791,0,0,1,327.408,203.076Z" fill="#8c5d3e"/>
          </g>
          <g id="Grupo_1183334" data-name="Grupo 1183334">
            <path id="Trazado_1045136" data-name="Trazado 1045136" d="M208.875,181.839l-.479-.142a34.863,34.863,0,0,1,24.447-23.5l.123.484A34.356,34.356,0,0,0,208.875,181.839Z" fill="#8c5d3e"/>
          </g>
          <g id="Grupo_1183335" data-name="Grupo 1183335">
            <path id="Trazado_1045137" data-name="Trazado 1045137" d="M268.366,173.859l-.072-.495a55.2,55.2,0,0,0,23.974-9.643l.291.407A55.719,55.719,0,0,1,268.366,173.859Z" fill="#8c5d3e"/>
          </g>
          <g id="Grupo_1183336" data-name="Grupo 1183336">
            <path id="Trazado_1045138" data-name="Trazado 1045138" d="M255.73,258.375a7.515,7.515,0,0,1-3.572,2.536,8.171,8.171,0,0,1-4.368.339.12.12,0,0,1,.043-.237,8.554,8.554,0,0,0,4.2-.443,9.484,9.484,0,0,0,3.512-2.349.12.12,0,0,1,.183.154Z" fill="#84332d"/>
          </g>
          <g id="Grupo_1183341" data-name="Grupo 1183341">
            <path id="Trazado_1045139" data-name="Trazado 1045139" d="M240.315,249.8a75.959,75.959,0,0,1,14.529-2.849,2.484,2.484,0,0,1,2.738,2.312c.081,3.025-1.33,8.228-7.256,9.554a9.4,9.4,0,0,1-11.113-5.737C238.67,251.676,238.869,250.246,240.315,249.8Z"/>
            <g id="Grupo_1183340" data-name="Grupo 1183340">
              <g id="Grupo_1183337" data-name="Grupo 1183337" clip-path="url(#clip-path-2)">
                <path id="Trazado_1045140" data-name="Trazado 1045140" d="M240.112,247.419s.856,5.22,2.12,5.8a5.559,5.559,0,0,0,4.783-.759c.383-.384-1.3-7.308-1.3-7.308Z" fill="#fff"/>
              </g>
              <g id="Grupo_1183338" data-name="Grupo 1183338" clip-path="url(#clip-path-2)">
                <path id="Trazado_1045142" data-name="Trazado 1045142" d="M248.182,245.289s.8,4.869,1.977,5.411a5.183,5.183,0,0,0,4.461-.708c.358-.359-1.209-6.816-1.209-6.816Z" fill="#fff"/>
              </g>
              <g id="Grupo_1183339" data-name="Grupo 1183339" clip-path="url(#clip-path-2)">
                <path id="Trazado_1045144" data-name="Trazado 1045144" d="M244.508,259.9a12.559,12.559,0,0,1,4.361-5.024,8.428,8.428,0,0,1,6.445-1.184,6.371,6.371,0,0,1,4.635,4.431" fill="#d36954"/>
              </g>
            </g>
          </g>
        </g>
        <path id="Trazado_1045146" data-name="Trazado 1045146" d="M320.008,341.99a29.844,29.844,0,0,0,15.323,18.883c12.735,6.439,28.284,4.636,28.284,4.636l.128-5.353-35.806-24.431Z" fill="#efe0d8"/>
        <g id="Grupo_1183346" data-name="Grupo 1183346">
          <g id="Grupo_1183343" data-name="Grupo 1183343">
            <path id="Trazado_1045147" data-name="Trazado 1045147" d="M345.1,321.082,312.64,360.194a17.9,17.9,0,1,0,27.545,22.861,19.1,19.1,0,0,0,1.867-2.727l24.716-44.413A13.185,13.185,0,0,0,345.1,321.082Z" fill="#eabaaf"/>
          </g>
          <g id="Grupo_1183345" data-name="Grupo 1183345">
            <path id="Trazado_1045148" data-name="Trazado 1045148" d="M312.892,359.793a47.627,47.627,0,0,1,5.588-7.811c1.056-1.2,2.112-2.393,3.27-3.5l1.74-1.663c.627-.515,1.21-1.067,1.875-1.548l.01-.007a.05.05,0,0,1,.067.072l-6.2,7.3-6.275,7.231a.05.05,0,0,1-.081-.056Z" fill="#84332d"/>
          </g>
        </g>
        <g id="Grupo_1183372" data-name="Grupo 1183372">
          <path id="Trazado_1045149" data-name="Trazado 1045149" d="M122.686,173.931s-20.8-2.865-22.524,2.286c-.362,1.08,15.019,16.415,15.019,16.415Z" fill="#e7c164"/>
          <path id="Trazado_1045150" data-name="Trazado 1045150" d="M133.359,165.849s-15.451-14.215-19.806-10.967c-.913.681,2.976,22.049,2.976,22.049Z" fill="#e7c164"/>
          <path id="Trazado_1045151" data-name="Trazado 1045151" d="M112.193,187.106s-17.325,11.859-15.14,16.833c.458,1.042,22.154,2.058,22.154,2.058Z" fill="#e7c164"/>
          <path id="Trazado_1045152" data-name="Trazado 1045152" d="M110.947,204.857s-15.66,13.983-12.855,18.636c.588.975,22.235-.8,22.235-.8Z" fill="#e7c164"/>
          <path id="Trazado_1045153" data-name="Trazado 1045153" d="M116,221.594s-15.66,13.983-12.855,18.636c.588.975,22.235-.8,22.235-.8Z" fill="#e7c164"/>
          <g id="Grupo_1183354" data-name="Grupo 1183354">
            <path id="Trazado_1045154" data-name="Trazado 1045154" d="M132.142,201.615c13.373,4.06,22.889,4.267,26.736,4.126-7.291-9-6.053-23.793-1.843-34.951a39.039,39.039,0,0,1,2.252-4.724c-12.165-3.968-27.74-2.742-38.795,4.732,0,0-21.621,12.575-10.034,46.606s16.958,48.088,16.958,48.088,10.616-5.783,20.563-10.113c-2.408-7.14-5.774-16.546-8.889-23.238C134.21,221.66,132.142,201.615,132.142,201.615Z" fill="#97c6bd"/>
            <path id="Trazado_1045155" data-name="Trazado 1045155" d="M158.612,205.923s.138-.012.37-.039c-.038-.046-.068-.1-.1-.142-3.847.14-13.363-.067-26.736-4.126,0,0,2.068,20.045,6.947,30.526,3.115,6.692,6.481,16.1,8.889,23.238,5.56-2.421,10.911-4.389,14.08-4.636a69.855,69.855,0,0,1,13.263-.085S158.661,213.5,158.612,205.923Z" fill="#e7c164"/>
            <g id="Grupo_1183353" data-name="Grupo 1183353">
              <g id="Grupo_1183347" data-name="Grupo 1183347" clip-path="url(#clip-path-5)">
                <path id="Trazado_1045156" data-name="Trazado 1045156" d="M150.394,213.409a64.944,64.944,0,0,1-8.785-.6,52.9,52.9,0,0,1-13.561-3.515l1.238-2.733-.619,1.366.618-1.367a51.115,51.115,0,0,0,12.844,3.291,61.667,61.667,0,0,0,30.52-3.638l1.089,2.8a64.257,64.257,0,0,1-17.626,4.143Q153.265,213.409,150.394,213.409Z" fill="#d187b4"/>
              </g>
              <g id="Grupo_1183348" data-name="Grupo 1183348" clip-path="url(#clip-path-5)">
                <path id="Trazado_1045158" data-name="Trazado 1045158" d="M162.142,204.563s-16.015.441-26.534-2.306,17.271,31.779,25.692,31.779S162.142,204.563,162.142,204.563Z" fill="#97c6bd" opacity="0.52"/>
              </g>
              <g id="Grupo_1183349" data-name="Grupo 1183349" clip-path="url(#clip-path-5)">
                <path id="Trazado_1045160" data-name="Trazado 1045160" d="M120.389,224.729l-.869-2.871c8.942-2.707,18.392-2.913,27.53-3.113,2.443-.053,4.969-.109,7.434-.211,10.033-.418,22.74-1.848,32.02-9.256l1.872,2.345a41.492,41.492,0,0,1-16.065,7.609,85.846,85.846,0,0,1-17.7,2.3c-2.494.1-5.036.16-7.493.213C138.179,221.939,128.938,222.141,120.389,224.729Z" fill="#d187b4"/>
              </g>
              <g id="Grupo_1183350" data-name="Grupo 1183350" clip-path="url(#clip-path-5)">
                <path id="Trazado_1045162" data-name="Trazado 1045162" d="M130.543,233.193l-.4-2.973a281.51,281.51,0,0,0,44.37-9.65l.873,2.87A284.518,284.518,0,0,1,130.543,233.193Z" fill="#d187b4"/>
              </g>
              <g id="Grupo_1183351" data-name="Grupo 1183351" clip-path="url(#clip-path-5)">
                <path id="Trazado_1045164" data-name="Trazado 1045164" d="M133.036,244.736l-1.364-2.672a109.606,109.606,0,0,1,53.6-11.845l-.111,3c-1.294-.048-2.592-.072-3.885-.072A106.3,106.3,0,0,0,133.036,244.736Z" fill="#d187b4"/>
              </g>
              <g id="Grupo_1183352" data-name="Grupo 1183352" clip-path="url(#clip-path-5)">
                <path id="Trazado_1045166" data-name="Trazado 1045166" d="M137.137,250.549h0v-3h0c6.169,0,12.351-1.68,18.329-3.3,2.611-.71,5.311-1.443,8-2.038a47.906,47.906,0,0,1,14.161-1.19,24.97,24.97,0,0,1,13.271,4.729l-1.813,2.391c-5.772-4.377-14.174-5.386-24.972-3-2.62.579-5.285,1.3-7.862,2C150.085,248.816,143.706,250.549,137.137,250.549Z" fill="#d187b4"/>
              </g>
            </g>
          </g>
          <path id="Trazado_1045168" data-name="Trazado 1045168" d="M167.2,196.021a50.136,50.136,0,0,1,4.551,18.206l2.835-5.069,4.916,3.764a59.714,59.714,0,0,0-7.019-21.187Z" fill="#cb6038"/>
          <g id="Grupo_1183356" data-name="Grupo 1183356">
            <g id="Grupo_1183355" data-name="Grupo 1183355">
              <path id="Trazado_1045169" data-name="Trazado 1045169" d="M168.916,198.108c-.254-.579-.418-.892-.419-.9l-.048-.091.855-.695.158.194-.7.566c.066.133.2.408.38.819Z" fill="#e7c164"/>
              <path id="Trazado_1045170" data-name="Trazado 1045170" d="M171.856,208.963c-.084-.619-.181-1.244-.291-1.859l.246-.044c.11.618.208,1.246.292,1.869Zm-.659-3.7c-.136-.612-.286-1.227-.447-1.828l.242-.065c.161.6.313,1.223.449,1.838Zm-.973-3.634c-.191-.606-.4-1.2-.608-1.779l.234-.087c.214.578.42,1.18.612,1.79Z" fill="#e7c164"/>
              <path id="Trazado_1045171" data-name="Trazado 1045171" d="M172.18,212.256l-.03-.417c-.024-.333-.051-.667-.081-.994l.249-.023c.018.193.034.389.05.585l.285-.511.218.122Z" fill="#e7c164"/>
              <path id="Trazado_1045172" data-name="Trazado 1045172" d="M174.181,208.678l-.218-.122.558-1,.909.7-.152.2-.679-.52Z" fill="#e7c164"/>
              <path id="Trazado_1045173" data-name="Trazado 1045173" d="M178.67,211.049l-1.018-.779.152-.2.564.432c-.019-.165-.048-.4-.091-.7l.247-.036c.092.636.122.982.123,1Z" fill="#e7c164"/>
              <path id="Trazado_1045174" data-name="Trazado 1045174" d="M177.973,208.055c-.112-.568-.241-1.153-.382-1.74l.243-.058c.142.59.271,1.179.384,1.75Zm-.831-3.465c-.158-.566-.33-1.141-.511-1.709l.238-.076c.181.57.354,1.148.513,1.717Zm-1.08-3.4c-.2-.556-.409-1.118-.627-1.669l.233-.092c.219.554.43,1.118.629,1.677Zm-1.309-3.317c-.236-.543-.484-1.089-.737-1.624l.226-.107c.255.537.5,1.086.741,1.632Z" fill="#e7c164"/>
              <path id="Trazado_1045175" data-name="Trazado 1045175" d="M173.221,194.642c-.125-.243-.257-.494-.394-.749l-.66.535-.157-.194.894-.725.072.133c.163.3.321.6.468.886Z" fill="#e7c164"/>
              <path id="Línea_696" data-name="Línea 696" d="M.529.829.372.634l.9-.731L1.431.1Z" transform="translate(169.834 195.062)" fill="#e7c164"/>
            </g>
          </g>
          <path id="Trazado_1045176" data-name="Trazado 1045176" d="M177.4,189.4c1.784-10.623-7.983-20.03-18.632-23.579-.845,1.5-18.21,18.316-5.789,40.21C160.371,207.059,175.089,203.194,177.4,189.4Z" fill="#d187b4"/>
          <path id="Trazado_1045177" data-name="Trazado 1045177" d="M158.693,206.266a34.159,34.159,0,0,1-6.812.019,65.164,65.164,0,0,1-6.723-.955c-2.224-.415-4.427-.926-6.609-1.511-1.089-.3-2.176-.606-3.256-.931l-3.218-1.052a.231.231,0,0,1-.148-.292.235.235,0,0,1,.283-.151c2.176.569,4.358,1.1,6.541,1.619,2.192.475,4.376.986,6.584,1.363s4.414.758,6.638.992a54,54,0,0,0,6.671.438h.019a.231.231,0,0,1,.03.461Z" fill="#4a817d"/>
          <g id="Grupo_1183357" data-name="Grupo 1183357">
            <path id="Trazado_1045178" data-name="Trazado 1045178" d="M145.194,185.227a4.9,4.9,0,1,1-4.9-4.9A4.9,4.9,0,0,1,145.194,185.227Z" fill="#676193"/>
            <path id="Trazado_1045179" data-name="Trazado 1045179" d="M145.12,184.457a4.533,4.533,0,1,1-4.533-4.533A4.533,4.533,0,0,1,145.12,184.457Z" fill="#8076ad"/>
            <path id="Trazado_1045180" data-name="Trazado 1045180" d="M140.587,180.956a3.5,3.5,0,1,1-3.5,3.5A3.5,3.5,0,0,1,140.587,180.956Zm0,6.752a3.251,3.251,0,1,0-3.251-3.251A3.255,3.255,0,0,0,140.587,187.708Z" fill="#d187b4"/>
            <circle id="Elipse_12548" data-name="Elipse 12548" cx="0.709" cy="0.709" r="0.709" transform="translate(139.643 182.09)" fill="#222221"/>
            <circle id="Elipse_12549" data-name="Elipse 12549" cx="0.709" cy="0.709" r="0.709" transform="translate(141.472 183.367)" fill="#222221"/>
            <path id="Trazado_1045181" data-name="Trazado 1045181" d="M139.641,184.694a.709.709,0,1,1-.709-.709A.709.709,0,0,1,139.641,184.694Z" fill="#222221"/>
            <circle id="Elipse_12550" data-name="Elipse 12550" cx="0.709" cy="0.709" r="0.709" transform="translate(140.09 185.38)" fill="#222221"/>
            <path id="Trazado_1045182" data-name="Trazado 1045182" d="M140.664,186.221l-.734-3.153.738-.174.592,3.142Z" fill="#4a817d"/>
            <path id="Trazado_1045183" data-name="Trazado 1045183" d="M138.693,184.41l3.514-.624.118.749-3.493.484Z" fill="#4a817d"/>
          </g>
          <g id="Grupo_1183358" data-name="Grupo 1183358">
            <path id="Trazado_1045184" data-name="Trazado 1045184" d="M151.865,170.491a4.9,4.9,0,1,1-4.9-4.9A4.9,4.9,0,0,1,151.865,170.491Z" fill="#676193"/>
            <path id="Trazado_1045185" data-name="Trazado 1045185" d="M151.791,169.72a4.533,4.533,0,1,1-4.533-4.533A4.532,4.532,0,0,1,151.791,169.72Z" fill="#8076ad"/>
            <path id="Trazado_1045186" data-name="Trazado 1045186" d="M147.258,166.219a3.5,3.5,0,1,1-3.5,3.5A3.5,3.5,0,0,1,147.258,166.219Zm0,6.752a3.251,3.251,0,1,0-3.251-3.251A3.255,3.255,0,0,0,147.258,172.971Z" fill="#d187b4"/>
            <circle id="Elipse_12551" data-name="Elipse 12551" cx="0.709" cy="0.709" r="0.709" transform="translate(146.314 167.354)" fill="#222221"/>
            <circle id="Elipse_12552" data-name="Elipse 12552" cx="0.709" cy="0.709" r="0.709" transform="translate(148.143 168.63)" fill="#222221"/>
            <circle id="Elipse_12553" data-name="Elipse 12553" cx="0.709" cy="0.709" r="0.709" transform="translate(144.893 169.248)" fill="#222221"/>
            <circle id="Elipse_12554" data-name="Elipse 12554" cx="0.709" cy="0.709" r="0.709" transform="translate(146.761 170.643)" fill="#222221"/>
            <path id="Trazado_1045187" data-name="Trazado 1045187" d="M147.335,171.484l-.734-3.153.738-.174.592,3.142Z" fill="#4a817d"/>
            <path id="Trazado_1045188" data-name="Trazado 1045188" d="M145.364,169.673l3.514-.624.118.75-3.493.483Z" fill="#4a817d"/>
          </g>
          <g id="Grupo_1183362" data-name="Grupo 1183362">
            <g id="Grupo_1183359" data-name="Grupo 1183359">
              <path id="Trazado_1045189" data-name="Trazado 1045189" d="M126.667,263.8a.5.5,0,0,1-.411-.783,17.471,17.471,0,0,1,1.669-1.963.5.5,0,1,1,.721.693,16.591,16.591,0,0,0-1.566,1.837A.5.5,0,0,1,126.667,263.8Z" fill="#4a817d"/>
            </g>
            <g id="Grupo_1183360" data-name="Grupo 1183360">
              <path id="Trazado_1045190" data-name="Trazado 1045190" d="M132.192,258.525a.5.5,0,0,1-.4-.207.5.5,0,0,1,.111-.7,33.421,33.421,0,0,1,4.476-2.729.5.5,0,0,1,.453.891,32.569,32.569,0,0,0-4.342,2.648A.509.509,0,0,1,132.192,258.525Zm9.172-4.681a.5.5,0,0,1-.158-.975l.471-.153c1.471-.471,2.97-.934,4.486-1.377a.5.5,0,1,1,.282.959c-1.508.441-3,.9-4.465,1.372l-.456.148A.5.5,0,0,1,141.364,253.844Zm9.926-2.882a.5.5,0,0,1-.121-.985c1.751-.437,3.457-.815,5.073-1.125a.5.5,0,0,1,.188.982c-1.6.307-3.287.681-5.02,1.113A.488.488,0,0,1,151.29,250.962Zm10.154-1.915a.5.5,0,0,1-.057-1c1.8-.21,3.553-.332,5.2-.363a.492.492,0,0,1,.509.49.5.5,0,0,1-.491.51c-1.619.03-3.337.15-5.106.357Z" fill="#4a817d"/>
            </g>
            <g id="Grupo_1183361" data-name="Grupo 1183361">
              <path id="Trazado_1045191" data-name="Trazado 1045191" d="M174.247,249.273a.486.486,0,0,1-.092-.009c-.789-.148-1.608-.269-2.436-.359a.5.5,0,0,1-.442-.552.494.494,0,0,1,.552-.442c.852.094,1.7.219,2.51.371a.5.5,0,0,1-.092.991Z" fill="#4a817d"/>
            </g>
          </g>
          <g id="Grupo_1183363" data-name="Grupo 1183363">
            <path id="Trazado_1045192" data-name="Trazado 1045192" d="M171.141,194.984c-1.106.294-4.1-2.047-4.1-2.047a.6.6,0,0,1-.211-.9l.191-.254a.6.6,0,0,1,.79-.153s3.706,1.273,3.957,2.4A1.169,1.169,0,0,1,171.141,194.984Z" fill="#4a817d"/>
            <path id="Trazado_1045193" data-name="Trazado 1045193" d="M173.215,192.459c-.891-.719-.769-4.513-.769-4.513a.6.6,0,0,1,.6-.7l.318,0a.6.6,0,0,1,.59.547s1.164,3.741.4,4.611A1.172,1.172,0,0,1,173.215,192.459Z" fill="#4a817d"/>
          </g>
          <g id="Grupo_1183364" data-name="Grupo 1183364">
            <path id="Trazado_1045194" data-name="Trazado 1045194" d="M132.029,221.279a20.337,20.337,0,0,1,4,.513,36,36,0,0,1,3.9,1.025l-.089.455a36.041,36.041,0,0,1-4-.513,20.316,20.316,0,0,1-3.9-1.025Z" fill="#4a817d"/>
          </g>
          <g id="Grupo_1183365" data-name="Grupo 1183365">
            <path id="Trazado_1045195" data-name="Trazado 1045195" d="M133.1,224.509a19.7,19.7,0,0,1,3.968.04,34.788,34.788,0,0,1,3.929.561l-.035.462a34.765,34.765,0,0,1-3.968-.04,19.7,19.7,0,0,1-3.929-.561Z" fill="#4a817d"/>
          </g>
          <g id="Grupo_1183366" data-name="Grupo 1183366">
            <path id="Trazado_1045196" data-name="Trazado 1045196" d="M156.4,165.989a11.406,11.406,0,0,1,1.465,2.315,12.924,12.924,0,0,1,1.015,2.58l-.418.2a24.1,24.1,0,0,1-1.465-2.315,8.2,8.2,0,0,1-1.015-2.58Z" fill="#4a817d"/>
          </g>
          <g id="Grupo_1183367" data-name="Grupo 1183367">
            <path id="Trazado_1045197" data-name="Trazado 1045197" d="M154.439,168.773a12.967,12.967,0,0,1,1.607,1.8,7.807,7.807,0,0,1,1.239,2.181l-.392.247c-.295-.293-.561-.6-.82-.9l-.788-.9a5.486,5.486,0,0,1-1.239-2.181Z" fill="#4a817d"/>
          </g>
          <path id="Trazado_1045198" data-name="Trazado 1045198" d="M114.036,185.615l12.842,7.579-5.684,13.053s-9.474-4.632-12.211-8.842C108.984,197.4,111.51,189.615,114.036,185.615Z" fill="#79a89f"/>
          <g id="Grupo_1183368" data-name="Grupo 1183368">
            <path id="Trazado_1045199" data-name="Trazado 1045199" d="M121.074,199.061a12.632,12.632,0,0,1,3.053.881,22.25,22.25,0,0,1,2.867,1.369l-.165.433a22.258,22.258,0,0,1-3.053-.881,12.63,12.63,0,0,1-2.867-1.369Z" fill="#4a817d"/>
          </g>
          <g id="Grupo_1183369" data-name="Grupo 1183369">
            <path id="Trazado_1045200" data-name="Trazado 1045200" d="M122.135,196.463a10.392,10.392,0,0,1,2.807.624,18.167,18.167,0,0,1,2.647,1.121l-.141.441a18.243,18.243,0,0,1-2.807-.624,10.38,10.38,0,0,1-2.648-1.121Z" fill="#4a817d"/>
          </g>
          <g id="Grupo_1183370" data-name="Grupo 1183370">
            <path id="Trazado_1045201" data-name="Trazado 1045201" d="M113.242,191.143a12.132,12.132,0,0,1-1.217-2.858,21.306,21.306,0,0,1-.721-3.022l.44-.145a21.343,21.343,0,0,1,1.217,2.858,12.12,12.12,0,0,1,.721,3.022Z" fill="#4a817d"/>
          </g>
          <g id="Grupo_1183371" data-name="Grupo 1183371">
            <path id="Trazado_1045202" data-name="Trazado 1045202" d="M115.906,189.686a13.727,13.727,0,0,1-1.2-3.081,24.012,24.012,0,0,1-.7-3.232l.444-.134a24.212,24.212,0,0,1,1.2,3.081,13.729,13.729,0,0,1,.7,3.232Z" fill="#4a817d"/>
          </g>
        </g>
        <g id="Grupo_1183391" data-name="Grupo 1183391">
          <g id="Grupo_1183381" data-name="Grupo 1183381">
            <path id="Trazado_1045203" data-name="Trazado 1045203" d="M375.7,270.864s5.86-14.542,21.362-15.777c0,0,8.507,20.14-11.721,26.807Z" fill="#fcf3ed"/>
            <path id="Trazado_1045204" data-name="Trazado 1045204" d="M371.7,302.069c-13.9,1.4-23.282-.227-27.03-1.107,8.889-7.425,10.527-22.18,8.548-33.94a38.855,38.855,0,0,0-1.3-5.069c12.7-1.548,27.748,2.659,37.155,12.123,0,0,18.79,16.508.858,47.666s-25.912,43.915-25.912,43.915-9.3-7.721-18.227-13.889c3.74-6.541,8.856-15.122,13.2-21.088C365.809,321.339,371.7,302.069,371.7,302.069Z" fill="#fcf3ed"/>
            <path id="Trazado_1045205" data-name="Trazado 1045205" d="M344.9,301.191s-.133-.038-.356-.109c.046-.038.085-.082.13-.119,3.748.879,13.125,2.511,27.03,1.107,0,0-5.894,19.27-12.7,28.614-4.347,5.966-9.464,14.546-13.2,21.088-4.989-3.447-9.86-6.411-12.922-7.264a69.779,69.779,0,0,0-13-2.641S343.39,308.618,344.9,301.191Z" fill="#8076ad"/>
            <g id="Grupo_1183380" data-name="Grupo 1183380">
              <g id="Grupo_1183373" data-name="Grupo 1183373" clip-path="url(#clip-path-11)">
                <path id="Trazado_1045206" data-name="Trazado 1045206" d="M341.7,299.176s15.629,3.521,26.48,2.854-23.074,27.853-31.337,26.229S341.7,299.176,341.7,299.176Z" fill="#efe2da"/>
              </g>
              <g id="Grupo_1183374" data-name="Grupo 1183374" clip-path="url(#clip-path-11)">
                <path id="Trazado_1045208" data-name="Trazado 1045208" d="M375.664,310.611c-.28,4.613-3.859,8.149-7.994,7.9s-7.259-4.2-6.978-8.808,3.86-8.149,7.994-7.9S375.944,306,375.664,310.611Z" fill="#d187b4"/>
              </g>
              <g id="Grupo_1183375" data-name="Grupo 1183375" clip-path="url(#clip-path-11)">
                <path id="Trazado_1045210" data-name="Trazado 1045210" d="M356.99,310.742c-.281,4.613-3.859,8.149-7.994,7.9s-7.259-4.2-6.978-8.808,3.859-8.149,7.994-7.9S357.27,306.129,356.99,310.742Z" fill="#d187b4"/>
              </g>
              <g id="Grupo_1183376" data-name="Grupo 1183376" clip-path="url(#clip-path-11)">
                <path id="Trazado_1045212" data-name="Trazado 1045212" d="M361.325,329.932c1.126,4.482-1.217,8.934-5.234,9.944s-8.187-1.806-9.313-6.288,1.217-8.935,5.234-9.944S360.2,325.45,361.325,329.932Z" fill="#d187b4"/>
              </g>
              <g id="Grupo_1183377" data-name="Grupo 1183377" clip-path="url(#clip-path-11)">
                <path id="Trazado_1045214" data-name="Trazado 1045214" d="M345.945,345.621c1.126,4.482-1.217,8.934-5.234,9.944s-8.187-1.806-9.313-6.288,1.217-8.934,5.234-9.944S344.818,341.139,345.945,345.621Z" fill="#d187b4"/>
              </g>
              <g id="Grupo_1183378" data-name="Grupo 1183378" clip-path="url(#clip-path-11)">
                <path id="Trazado_1045216" data-name="Trazado 1045216" d="M327.894,335.507c1.127,4.482-1.217,8.934-5.234,9.944s-8.187-1.806-9.314-6.288,1.217-8.934,5.234-9.944S326.767,331.025,327.894,335.507Z" fill="#d187b4"/>
              </g>
              <g id="Grupo_1183379" data-name="Grupo 1183379" clip-path="url(#clip-path-11)">
                <path id="Trazado_1045218" data-name="Trazado 1045218" d="M341.376,320.614c3.064,3.46,3.033,8.491-.068,11.237s-8.1,2.167-11.163-1.294-3.033-8.491.068-11.237S338.312,317.154,341.376,320.614Z" fill="#d187b4"/>
              </g>
            </g>
          </g>
          <path id="Trazado_1045220" data-name="Trazado 1045220" d="M329.645,281.36c.3-10.768,11.7-18.114,22.828-19.544.541,1.631,14.337,21.483-2.073,40.572C342.955,301.968,329.258,295.337,329.645,281.36Z" fill="#8076ad"/>
          <path id="Trazado_1045221" data-name="Trazado 1045221" d="M344.754,301.513a34.147,34.147,0,0,0,6.68,1.332,65.158,65.158,0,0,0,6.781.359c2.262.022,4.523-.055,6.777-.208,1.126-.084,2.252-.175,3.375-.286l3.36-.411a.232.232,0,0,0,.2-.258.236.236,0,0,0-.248-.2c-2.245.138-4.488.241-6.73.327-2.243.044-4.484.123-6.724.068s-4.477-.107-6.7-.306a54.225,54.225,0,0,1-6.631-.856l-.018,0a.231.231,0,0,0-.12.446Z" fill="#504d7a"/>
          <g id="Grupo_1183382" data-name="Grupo 1183382">
            <path id="Trazado_1045222" data-name="Trazado 1045222" d="M365.888,285a4.9,4.9,0,1,0,4.946-4.862A4.9,4.9,0,0,0,365.888,285Z" fill="#7da89f"/>
            <path id="Trazado_1045223" data-name="Trazado 1045223" d="M365.969,284.227a4.533,4.533,0,1,0,4.572-4.494A4.532,4.532,0,0,0,365.969,284.227Z" fill="#97c6bd"/>
            <path id="Trazado_1045224" data-name="Trazado 1045224" d="M370.5,280.765h.031a3.5,3.5,0,0,1-.03,7h-.031a3.5,3.5,0,0,1,.029-7Zm0,6.752a3.251,3.251,0,0,0,.027-6.5H370.5a3.251,3.251,0,0,0-.027,6.5Z" fill="#d187b4"/>
            <path id="Trazado_1045225" data-name="Trazado 1045225" d="M370.042,282.6a.709.709,0,1,0,.715-.7A.71.71,0,0,0,370.042,282.6Z" fill="#222221"/>
            <path id="Trazado_1045226" data-name="Trazado 1045226" d="M368.2,283.865a.71.71,0,1,0,.716-.7A.71.71,0,0,0,368.2,283.865Z" fill="#222221"/>
            <path id="Trazado_1045227" data-name="Trazado 1045227" d="M371.446,284.511a.71.71,0,1,0,.716-.7A.709.709,0,0,0,371.446,284.511Z" fill="#222221"/>
            <path id="Trazado_1045228" data-name="Trazado 1045228" d="M369.566,285.89a.71.71,0,1,0,.716-.7A.708.708,0,0,0,369.566,285.89Z" fill="#222221"/>
            <path id="Trazado_1045229" data-name="Trazado 1045229" d="M370.41,286.029l.761-3.146-.736-.181-.62,3.137Z" fill="#504d7a"/>
            <path id="Trazado_1045230" data-name="Trazado 1045230" d="M372.4,284.235l-3.509-.654-.123.748,3.488.513Z" fill="#504d7a"/>
          </g>
          <g id="Grupo_1183383" data-name="Grupo 1183383">
            <path id="Trazado_1045231" data-name="Trazado 1045231" d="M358.633,270.254a4.9,4.9,0,1,0,4.946-4.861A4.9,4.9,0,0,0,358.633,270.254Z" fill="#7da89f"/>
            <path id="Trazado_1045232" data-name="Trazado 1045232" d="M358.714,269.485a4.533,4.533,0,1,0,4.572-4.494A4.532,4.532,0,0,0,358.714,269.485Z" fill="#97c6bd"/>
            <path id="Trazado_1045233" data-name="Trazado 1045233" d="M363.245,266.023h.033a3.5,3.5,0,0,1-.03,7h-.031a3.5,3.5,0,0,1,.028-7Zm0,6.752a3.251,3.251,0,0,0,.027-6.5h-.03a3.251,3.251,0,0,0-.026,6.5Z" fill="#d187b4"/>
            <path id="Trazado_1045234" data-name="Trazado 1045234" d="M362.787,267.862a.709.709,0,1,0,.715-.7A.708.708,0,0,0,362.787,267.862Z" fill="#222221"/>
            <path id="Trazado_1045235" data-name="Trazado 1045235" d="M360.947,269.122a.709.709,0,1,0,.715-.7A.709.709,0,0,0,360.947,269.122Z" fill="#222221"/>
            <path id="Trazado_1045236" data-name="Trazado 1045236" d="M364.192,269.769a.709.709,0,1,0,.715-.7A.708.708,0,0,0,364.192,269.769Z" fill="#222221"/>
            <path id="Trazado_1045237" data-name="Trazado 1045237" d="M362.311,271.147a.71.71,0,1,0,.716-.7A.709.709,0,0,0,362.311,271.147Z" fill="#222221"/>
            <path id="Trazado_1045238" data-name="Trazado 1045238" d="M363.155,271.287l.761-3.147-.736-.18-.619,3.137Z" fill="#504d7a"/>
            <path id="Trazado_1045239" data-name="Trazado 1045239" d="M365.141,269.493l-3.508-.654-.124.748L365,270.1Z" fill="#504d7a"/>
          </g>
          <g id="Grupo_1183387" data-name="Grupo 1183387">
            <g id="Grupo_1183384" data-name="Grupo 1183384">
              <path id="Trazado_1045240" data-name="Trazado 1045240" d="M365.085,364.142a.5.5,0,0,0,.555-.69,17.447,17.447,0,0,0-1.26-2.248.5.5,0,1,0-.841.541,16.7,16.7,0,0,1,1.183,2.105A.5.5,0,0,0,365.085,364.142Z" fill="#504d7a"/>
            </g>
            <g id="Grupo_1183385" data-name="Grupo 1183385">
              <path id="Trazado_1045241" data-name="Trazado 1045241" d="M360.412,357.751a32.5,32.5,0,0,0-3.75-3.436.5.5,0,1,1,.616-.786,33.435,33.435,0,0,1,3.865,3.54.5.5,0,1,1-.731.682Zm-7.979-6.267-.419-.234q-2.022-1.116-4.117-2.207a.5.5,0,0,1,.461-.887c1.4.727,2.783,1.471,4.136,2.216l.432.241a.5.5,0,0,1-.343.926A.514.514,0,0,1,352.433,351.484Zm-9.15-4.724c-1.617-.759-3.2-1.451-4.711-2.06a.5.5,0,1,1,.374-.928c1.526.616,3.128,1.316,4.761,2.082a.5.5,0,0,1-.424.906Zm-9.535-3.813c-1.7-.544-3.359-.994-4.942-1.335a.5.5,0,0,1-.383-.6.493.493,0,0,1,.594-.383c1.614.349,3.308.806,5.036,1.36a.5.5,0,0,1-.249.968Z" fill="#504d7a"/>
            </g>
            <g id="Grupo_1183386" data-name="Grupo 1183386">
              <path id="Trazado_1045242" data-name="Trazado 1045242" d="M321.2,340.713a.47.47,0,0,0,.092.009c.8.007,1.63.047,2.459.117a.5.5,0,0,0,.54-.456.5.5,0,0,0-.456-.54c-.854-.072-1.707-.113-2.534-.12a.5.5,0,0,0-.1.99Z" fill="#504d7a"/>
            </g>
          </g>
          <g id="Grupo_1183388" data-name="Grupo 1183388">
            <path id="Trazado_1045243" data-name="Trazado 1045243" d="M334.714,288.042c1.029.5,4.413-1.219,4.413-1.219a.6.6,0,0,0,.38-.838l-.138-.286a.6.6,0,0,0-.746-.3s-3.882.534-4.346,1.594A1.174,1.174,0,0,0,334.714,288.042Z" fill="#504d7a"/>
            <path id="Trazado_1045244" data-name="Trazado 1045244" d="M333.167,285.165c1.013-.533,1.625-4.28,1.625-4.28a.6.6,0,0,0-.451-.8l-.312-.058a.6.6,0,0,0-.685.423s-1.864,3.447-1.283,4.448A1.172,1.172,0,0,0,333.167,285.165Z" fill="#504d7a"/>
          </g>
          <path id="Trazado_1045245" data-name="Trazado 1045245" d="M368.022,321.849A20.406,20.406,0,0,1,364,322.1a36.013,36.013,0,0,1-4.025-.268.233.233,0,0,1,0-.463,35.784,35.784,0,0,1,4.026-.254,20.329,20.329,0,0,1,4.025.268.235.235,0,0,1,0,.463Z" fill="#504d7a"/>
          <path id="Trazado_1045246" data-name="Trazado 1045246" d="M366.293,324.808a19.763,19.763,0,0,1-3.963-.207,34.667,34.667,0,0,1-3.9-.726.234.234,0,0,1,.055-.46,34.843,34.843,0,0,1,3.963.207,19.631,19.631,0,0,1,3.9.726.236.236,0,0,1-.055.46Z" fill="#504d7a"/>
          <path id="Trazado_1045247" data-name="Trazado 1045247" d="M355.146,262.711a8.207,8.207,0,0,1-1.493,2.336,24.473,24.473,0,0,1-1.884,1.989.235.235,0,0,1-.371-.276,12.967,12.967,0,0,1,1.493-2.336,11.445,11.445,0,0,1,1.884-1.989.24.24,0,0,1,.337.04A.245.245,0,0,1,355.146,262.711Z" fill="#504d7a"/>
          <path id="Trazado_1045248" data-name="Trazado 1045248" d="M356.494,265.862a5.5,5.5,0,0,1-1.636,1.9l-.945.727c-.312.249-.633.5-.979.73a.238.238,0,0,1-.33-.061.243.243,0,0,1-.008-.257,7.786,7.786,0,0,1,1.636-1.9,13,13,0,0,1,1.924-1.457.243.243,0,0,1,.338.318Z" fill="#504d7a"/>
          <path id="Trazado_1045249" data-name="Trazado 1045249" d="M373.223,332.028l-14.063,4.96,3.061,13.9s10.189-2.718,13.686-6.322C375.908,344.571,374.931,336.44,373.223,332.028Z" fill="#e7c164"/>
          <path id="Trazado_1045250" data-name="Trazado 1045250" d="M363.8,344.321a12.609,12.609,0,0,1-3.077.79,22.356,22.356,0,0,1-3.165.276.235.235,0,0,1-.078-.457,22.376,22.376,0,0,1,3.077-.79,12.655,12.655,0,0,1,3.165-.276.238.238,0,0,1,.078.457Z" fill="#504d7a"/>
          <path id="Trazado_1045251" data-name="Trazado 1045251" d="M363.238,341.571a10.381,10.381,0,0,1-2.814.59,18.228,18.228,0,0,1-2.874.071.235.235,0,0,1-.054-.46,18.363,18.363,0,0,1,2.814-.59,10.381,10.381,0,0,1,2.874-.071.239.239,0,0,1,.054.46Z" fill="#504d7a"/>
          <path id="Trazado_1045252" data-name="Trazado 1045252" d="M372.533,337.378a12.125,12.125,0,0,1,1.29-2.826,21.286,21.286,0,0,1,1.745-2.57.235.235,0,0,1,.4.227,21.355,21.355,0,0,1-1.29,2.826,12.064,12.064,0,0,1-1.745,2.57.239.239,0,0,1-.337.013A.242.242,0,0,1,372.533,337.378Z" fill="#504d7a"/>
          <path id="Trazado_1045253" data-name="Trazado 1045253" d="M370.2,335.446a13.676,13.676,0,0,1,1.311-3.036,24.145,24.145,0,0,1,1.773-2.792.234.234,0,0,1,.409.216,24.144,24.144,0,0,1-1.311,3.036,13.7,13.7,0,0,1-1.773,2.792.238.238,0,0,1-.335.026A.234.234,0,0,1,370.2,335.446Z" fill="#504d7a"/>
          <path id="Trazado_1045254" data-name="Trazado 1045254" d="M379,272.572s24.324-18.518,28.4-16.02c1.9,1.168-15.576,30.643-15.576,30.643S382.442,282.14,379,272.572Z" fill="#e7c164"/>
          <path id="Trazado_1045255" data-name="Trazado 1045255" d="M387.931,288.457s12.947-8.842,26.526-1.263c0,0-4.105,21.474-24.632,15.789Z" fill="#fcf3ed"/>
          <path id="Trazado_1045256" data-name="Trazado 1045256" d="M391.089,291.163s7.4-5.053,15.158-.722c0,0-2.346,12.271-14.075,9.022Z" fill="#8076ad"/>
          <path id="Trazado_1045257" data-name="Trazado 1045257" d="M394.757,287.64a3.665,3.665,0,0,1,1.345,1.032,6.4,6.4,0,0,1,.967,1.392.243.243,0,0,1-.11.325.247.247,0,0,1-.225-.005,6.4,6.4,0,0,1-1.345-1.032,3.664,3.664,0,0,1-.967-1.392.253.253,0,0,1,.152-.324A.246.246,0,0,1,394.757,287.64Z" fill="#504d7a"/>
          <path id="Trazado_1045258" data-name="Trazado 1045258" d="M396.95,286.832a4.508,4.508,0,0,1,1.409,1.252,7.9,7.9,0,0,1,1.012,1.59.24.24,0,0,1-.118.319.242.242,0,0,1-.235-.019,7.867,7.867,0,0,1-1.409-1.252,4.517,4.517,0,0,1-1.012-1.59.249.249,0,0,1,.156-.316A.258.258,0,0,1,396.95,286.832Z" fill="#504d7a"/>
          <path id="Trazado_1045259" data-name="Trazado 1045259" d="M400.141,295.882a5.757,5.757,0,0,1,1.893.983,10.1,10.1,0,0,1,1.6,1.414.239.239,0,0,1-.262.382,10.1,10.1,0,0,1-1.893-.983,5.764,5.764,0,0,1-1.6-1.414.246.246,0,0,1,.053-.343A.249.249,0,0,1,400.141,295.882Z" fill="#504d7a"/>
          <path id="Trazado_1045260" data-name="Trazado 1045260" d="M402.29,294.911a10.89,10.89,0,0,1,1.7.792l1.673.843a.24.24,0,0,1-.094.454,4.4,4.4,0,0,1-2.01-.41,3.281,3.281,0,0,1-1.566-1.324.247.247,0,0,1,.292-.357Z" fill="#504d7a"/>
          <g id="Grupo_1183390" data-name="Grupo 1183390">
            <g id="Grupo_1183389" data-name="Grupo 1183389" clip-path="url(#clip-path-18)">
              <path id="Trazado_1045261" data-name="Trazado 1045261" d="M404.918,286.319a43.69,43.69,0,0,1-8.783-2.448,45.572,45.572,0,0,1-15.2-9.888,43.7,43.7,0,0,1-5.8-7.035l1.669-1.1a43.239,43.239,0,0,0,28.447,18.5Z" fill="#dd8868"/>
              <path id="Trazado_1045262" data-name="Trazado 1045262" d="M409.1,280.094a72.729,72.729,0,0,1-30.143-14.621l1.266-1.549a70.72,70.72,0,0,0,29.311,14.217Z" fill="#dd8868"/>
              <path id="Trazado_1045263" data-name="Trazado 1045263" d="M411.887,271.341a93.817,93.817,0,0,1-14.5-3.193,65.34,65.34,0,0,1-13.851-6.225l1.022-1.719c9.359,5.561,17.813,7.683,27.628,9.159Z" fill="#dd8868"/>
              <path id="Trazado_1045264" data-name="Trazado 1045264" d="M414.6,264.261a51.659,51.659,0,0,1-23.885-6.508l.967-1.751a49.73,49.73,0,0,0,22.993,6.26Z" fill="#dd8868"/>
            </g>
          </g>
        </g>
        <g id="Grupo_1183392" data-name="Grupo 1183392">
          <path id="Trazado_1045266" data-name="Trazado 1045266" d="M203.061,358.542c-.058-2.792-.039-5.583-.013-8.373.056-2.789.092-5.579.193-8.367.16-5.578.37-11.154.688-16.727l.463.012c.029,5.582-.051,11.162-.18,16.74-.044,2.79-.152,5.578-.241,8.366-.118,2.788-.245,5.575-.447,8.361Z" fill="#504d7a"/>
        </g>
        <g id="Grupo_1183393" data-name="Grupo 1183393">
          <path id="Trazado_1045267" data-name="Trazado 1045267" d="M203.3,348.441a108.09,108.09,0,0,1-2.94-10.966c-.814-3.689-1.658-7.363-2.441-11.065l.448-.117c1.126,3.613,2.089,7.28,2.94,10.966l1.273,5.518c.4,1.844.819,3.686,1.168,5.548Z" fill="#504d7a"/>
        </g>
      </g>
    </g>
  </g>
</svg>
