<svg xmlns="http://www.w3.org/2000/svg" xmlns:xlink="http://www.w3.org/1999/xlink" width="93.934" height="93.934" viewBox="0 0 93.934 93.934">
  <defs>
    <filter id="Trazado_982547" x="0" y="0" width="93.934" height="93.934" filterUnits="userSpaceOnUse">
      <feOffset dy="3" input="SourceAlpha"/>
      <feGaussianBlur stdDeviation="3" result="blur"/>
      <feFlood flood-opacity="0.161"/>
      <feComposite operator="in" in2="blur"/>
      <feComposite in="SourceGraphic"/>
    </filter>
  </defs>
  <g id="Grupo_1182807" data-name="Grupo 1182807" transform="translate(-191.066 -2589)">
    <g id="Grupo_1179594" data-name="Grupo 1179594" transform="translate(8 462.467)">
      <g id="Grupo_1175227" data-name="Grupo 1175227" transform="translate(-5.967 140.533)">
        <g id="Grupo_1167337" data-name="Grupo 1167337" transform="translate(198.033 1992)">
          <g id="Grupo_1166720" data-name="Grupo 1166720">
            <g id="Grupo_1164305" data-name="Grupo 1164305">
              <g id="Grupo_1163948" data-name="Grupo 1163948">
                <g id="Grupo_1158168" data-name="Grupo 1158168">
                  <g id="Grupo_1152576" data-name="Grupo 1152576">
                    <g id="Grupo_1148633" data-name="Grupo 1148633">
                      <g id="Grupo_1148525" data-name="Grupo 1148525">
                        <g transform="matrix(1, 0, 0, 1, -9, -6)" filter="url(#Trazado_982547)">
                          <g id="Trazado_982547-2" data-name="Trazado 982547" transform="translate(9 6)" fill="#fdfbec">
                            <path d="M 37.966796875 74.43359375 C 33.04315185546875 74.43359375 28.26757431030273 73.46962738037109 23.77274131774902 71.56847381591797 C 19.43047523498535 69.73184967041016 15.53040790557861 67.10224914550781 12.18087482452393 63.75271987915039 C 8.831341743469238 60.4031867980957 6.201741218566895 56.50312042236328 4.365118980407715 52.16086196899414 C 2.463963508605957 47.66601943969727 1.499996900558472 42.89044189453125 1.499996900558472 37.966796875 C 1.499996900558472 33.04315185546875 2.463963508605957 28.26757431030273 4.365118980407715 23.77274131774902 C 6.201741218566895 19.43047523498535 8.831341743469238 15.53040790557861 12.18087482452393 12.18087482452393 C 15.53040790557861 8.831341743469238 19.43047523498535 6.201741218566895 23.77274131774902 4.365118980407715 C 28.26757431030273 2.463963508605957 33.04315185546875 1.499996900558472 37.966796875 1.499996900558472 C 42.89044189453125 1.499996900558472 47.66601943969727 2.463963508605957 52.16086196899414 4.365118980407715 C 56.50312042236328 6.201741218566895 60.4031867980957 8.831341743469238 63.75271987915039 12.18087482452393 C 67.10224914550781 15.53040790557861 69.73184967041016 19.43047523498535 71.56847381591797 23.77274131774902 C 73.46962738037109 28.26757431030273 74.43359375 33.04315185546875 74.43359375 37.966796875 C 74.43359375 42.89044189453125 73.46962738037109 47.66601943969727 71.56847381591797 52.16086196899414 C 69.73184967041016 56.50313186645508 67.10224914550781 60.4031867980957 63.75271987915039 63.75271987915039 C 60.4031867980957 67.10224914550781 56.50313186645508 69.73184967041016 52.16086196899414 71.56847381591797 C 47.66601943969727 73.46962738037109 42.89044189453125 74.43359375 37.966796875 74.43359375 Z" stroke="none"/>
                            <path d="M 37.966796875 3 C 33.2449836730957 3 28.66600799560547 3.924095153808594 24.35705947875977 5.746635437011719 C 20.19359588623047 7.507637023925781 16.45379638671875 10.02928161621094 13.24153518676758 13.24153518676758 C 10.02927398681641 16.45379638671875 7.507621765136719 20.19359588623047 5.746635437011719 24.35705947875977 C 3.924095153808594 28.66600799560547 3 33.2449836730957 3 37.966796875 C 3 42.6886100769043 3.924095153808594 47.26758575439453 5.746635437011719 51.57653427124023 C 7.507621765136719 55.73999786376953 10.02927398681641 59.47979736328125 13.24153518676758 62.69205856323242 C 16.45379638671875 65.90431976318359 20.19359588623047 68.42597198486328 24.35705947875977 70.18695831298828 C 28.66600799560547 72.00949859619141 33.2449836730957 72.93359375 37.966796875 72.93359375 C 42.6886100769043 72.93359375 47.26758575439453 72.00949859619141 51.57653427124023 70.18695831298828 C 55.73999786376953 68.42597198486328 59.47979736328125 65.90431976318359 62.69205856323242 62.69205856323242 C 65.90431976318359 59.47979736328125 68.42597198486328 55.73999786376953 70.18695831298828 51.57653427124023 C 72.00949859619141 47.26758575439453 72.93359375 42.6886100769043 72.93359375 37.966796875 C 72.93359375 33.2449836730957 72.00949859619141 28.66600799560547 70.18695831298828 24.35705947875977 C 68.42597198486328 20.19359588623047 65.90431976318359 16.45379638671875 62.69205856323242 13.24153518676758 C 59.47979736328125 10.02928161621094 55.73999786376953 7.507637023925781 51.57653427124023 5.746635437011719 C 47.26758575439453 3.924095153808594 42.6886100769043 3 37.966796875 3 M 37.966796875 0 C 58.93528366088867 0 75.93359375 16.99832153320312 75.93359375 37.966796875 C 75.93359375 58.93528366088867 58.93528366088867 75.93359375 37.966796875 75.93359375 C 16.99831008911133 75.93359375 0 58.93528366088867 0 37.966796875 C 0 16.99832153320312 16.99831008911133 0 37.966796875 0 Z" stroke="none" fill="#84792b"/>
                          </g>
                        </g>
                      </g>
                    </g>
                  </g>
                </g>
              </g>
            </g>
          </g>
        </g>
      </g>
    </g>
    <g id="pintor" transform="translate(208.698 2601.056)">
      <g id="Grupo_1182805" data-name="Grupo 1182805" transform="translate(7.499 7.498)">
        <path id="Trazado_1043303" data-name="Trazado 1043303" d="M369.7,327.483l-4.733,14.056a1.346,1.346,0,0,0,2.49,1.014l6.43-13.365-1.623-2.009Z" transform="translate(-330.276 -296.22)" fill="#e4996d"/>
        <path id="Trazado_1043304" data-name="Trazado 1043304" d="M428.189,218.28c-6.32,2.492-4.477,6.169-4.477,6.169l2.211,2.42,3.273-.188s3.888-1.345,1.1-7.542A1.649,1.649,0,0,0,428.189,218.28Z" transform="translate(-383.18 -197.763)" fill="#fcec78"/>
        <path id="Trazado_1043305" data-name="Trazado 1043305" d="M415.833,280.167l-1.222,4.857,4.187,1.7,2.518-4.329Z" transform="translate(-375.186 -253.761)" fill="#7a8fa5"/>
        <path id="Trazado_1043306" data-name="Trazado 1043306" d="M52.451,46.129a16.042,16.042,0,1,1,32.083,0C84.534,67.352,52.451,67.352,52.451,46.129Z" transform="translate(-48.098 -27.899)" fill="#7a8fa5"/>
        <circle id="Elipse_12487" data-name="Elipse 12487" cx="2.917" cy="2.917" r="2.917" transform="translate(32.061 19.687)" fill="#ffbf9d"/>
        <circle id="Elipse_12488" data-name="Elipse 12488" cx="2.917" cy="2.917" r="2.917" transform="translate(2.895 19.687)" fill="#ffd4bd"/>
        <path id="Trazado_1043307" data-name="Trazado 1043307" d="M120.959,387.377a1.453,1.453,0,0,1-1.453,1.453h-2.9l-.726-.476-.726.476H99.079a1.452,1.452,0,0,1-1.453-1.453,10.932,10.932,0,0,1,5.1-9.256c2.816-1.783,5.192-1.687,7.285-1.687A10.944,10.944,0,0,1,120.959,387.377Z" transform="translate(-88.898 -340.704)" fill="#cacafd"/>
        <path id="Trazado_1043308" data-name="Trazado 1043308" d="M143.452,368.911H129.99a2.108,2.108,0,0,0-2.019,2.188,2.032,2.032,0,0,0,2.928,1.953.713.713,0,0,1,.912.184,1.914,1.914,0,0,0,2.454.545.713.713,0,0,1,.912.184,1.921,1.921,0,0,0,3.089,0,.713.713,0,0,1,.912-.184,1.914,1.914,0,0,0,2.454-.545.713.713,0,0,1,.912-.184,2.032,2.032,0,0,0,2.928-1.953A2.108,2.108,0,0,0,143.452,368.911Z" transform="translate(-116.304 -333.911)" fill="#dbdafd"/>
        <path id="Trazado_1043309" data-name="Trazado 1043309" d="M145.622,180.382l-6.991,6.359a14.633,14.633,0,0,1-8.149,1c-12.276-10.135-4.165-20.643-4.018-20.831l0,0a2.59,2.59,0,0,1,3.417-.3c2.463,1.821,7.283,4.262,15.642,4.568a1.975,1.975,0,0,1,1.9,1.948A14.531,14.531,0,0,1,145.622,180.382Z" transform="translate(-112.447 -150.747)" fill="#ffd4bd"/>
        <path id="Trazado_1043310" data-name="Trazado 1043310" d="M79.91,195.246a14.573,14.573,0,0,1-8.935-5.169l-3.269-9.953q.032-.673.125-1.328a1.979,1.979,0,0,1,1.716-1.69c3.41-.421,5.3-1.591,6.347-2.693C75.894,174.412,69.815,187.2,79.91,195.246Z" transform="translate(-61.875 -158.248)" fill="#ffbf9d"/>
        <path id="Trazado_1043311" data-name="Trazado 1043311" d="M72.834,240.043a5.622,5.622,0,0,1-2.047,3.29,14.527,14.527,0,0,1-3.269-9.953l1.451.241A4.933,4.933,0,0,1,72.834,240.043Z" transform="translate(-61.688 -211.504)" fill="#2ecefb"/>
        <path id="Trazado_1043312" data-name="Trazado 1043312" d="M335.665,463.638h-3.418a1.208,1.208,0,0,1-1.208-1.208v-.251a2.917,2.917,0,0,1,2.917-2.917h0a2.917,2.917,0,0,1,2.917,2.917v.251A1.208,1.208,0,0,1,335.665,463.638Z" transform="translate(-299.707 -415.513)" fill="#ffd4bd"/>
        <path id="Trazado_1043313" data-name="Trazado 1043313" d="M86.957,13.312a1.443,1.443,0,0,1-1.445-1.441,1.5,1.5,0,0,0-1.5-1.492,1.441,1.441,0,1,1,0-2.881A4.385,4.385,0,0,1,88.4,11.871,1.443,1.443,0,0,1,86.957,13.312Z" transform="translate(-75.299 -7.498)" fill="#e92740"/>
        <path id="Trazado_1043314" data-name="Trazado 1043314" d="M146.149,13.285c-.162,3.414-3.825,5.977-7.811,5.138a12.314,12.314,0,0,0-7.708.947c-7.577-3.088-.467-10.379-.467-10.379a25.743,25.743,0,0,1,9.454-1.477l.492.017C143.589,7.66,146.293,10.235,146.149,13.285Z" transform="translate(-115.552 -7.5)" fill="#ff6e80"/>
        <path id="Trazado_1043315" data-name="Trazado 1043315" d="M63.179,33.291a11.4,11.4,0,0,0-2.446,1.537,5.411,5.411,0,0,1-6.941-.173,3.912,3.912,0,0,1-.444-5.434,21,21,0,0,1,9.365-6.308C61.51,25.213,59.774,29.888,63.179,33.291Z" transform="translate(-48.1 -21.419)" fill="#f9475e"/>
        <path id="Trazado_1043316" data-name="Trazado 1043316" d="M54.221,333.184a9.441,9.441,0,0,1-5.684,3.692,7.247,7.247,0,0,1-7.094-3.755,5.311,5.311,0,0,1,1.1-6.589l8.279-7.391A9.5,9.5,0,0,1,54.221,333.184Z" transform="translate(-37.532 -288.961)" fill="#e4996d"/>
        <path id="Trazado_1043317" data-name="Trazado 1043317" d="M20.791,313.3a3.269,3.269,0,0,0-1.331,2.414,5.106,5.106,0,0,1-4.7,4.723,3.612,3.612,0,0,0-3.014,5,9.493,9.493,0,0,0,6.753,5.6,9.485,9.485,0,0,1-10.723-5.6,3.612,3.612,0,0,1,3.014-5,5.106,5.106,0,0,0,4.7-4.723,3.238,3.238,0,0,1,4.327-2.84A9.41,9.41,0,0,1,20.791,313.3Z" transform="translate(-7.499 -283.122)" fill="#d97c41"/>
        <circle id="Elipse_12489" data-name="Elipse 12489" cx="1.458" cy="1.458" r="1.458" transform="translate(12.524 35.437)" fill="#fcec78"/>
        <circle id="Elipse_12490" data-name="Elipse 12490" cx="1.458" cy="1.458" r="1.458" transform="translate(10.774 41.416)" fill="#83deff"/>
        <circle id="Elipse_12491" data-name="Elipse 12491" cx="1.458" cy="1.458" r="1.458" transform="translate(4.478 41.255)" fill="#e92740"/>
        <path id="Trazado_1043318" data-name="Trazado 1043318" d="M270.649,310.063a14.64,14.64,0,0,1-6.991,6.359l-1.078-1.616a2.658,2.658,0,0,1,2.857-4.053l.371.092a1.07,1.07,0,0,0,1.217-.56,1.071,1.071,0,0,1,1.109-.581Z" transform="translate(-237.475 -280.429)" fill="#ff9a5c"/>
      </g>
      <g id="Grupo_1182806" data-name="Grupo 1182806" transform="translate(7.499 7.498)">
        <line id="Línea_659" data-name="Línea 659" y1="5.018" x2="2.414" transform="translate(41.198 32.967)" fill="none" stroke="#000" stroke-linecap="round" stroke-linejoin="round" stroke-miterlimit="10" stroke-width="1"/>
        <path id="Trazado_1043319" data-name="Trazado 1043319" d="M391.135,435.681c.012-.019.021-.039.031-.059l2.595-5.394" transform="translate(-353.983 -389.29)" fill="none" stroke="#000" stroke-linecap="round" stroke-linejoin="round" stroke-miterlimit="10" stroke-width="1"/>
        <line id="Línea_660" data-name="Línea 660" x1="4.255" y2="12.637" transform="translate(35.17 31.262)" fill="none" stroke="#000" stroke-linecap="round" stroke-linejoin="round" stroke-miterlimit="10" stroke-width="1"/>
        <path id="Trazado_1043320" data-name="Trazado 1043320" d="M429.146,226.683l.05,0s3.887-1.345,1.1-7.542a1.648,1.648,0,0,0-2.111-.86c-6.32,2.492-4.477,6.17-4.477,6.17l.034.037" transform="translate(-383.18 -197.761)" fill="none" stroke="#000" stroke-linecap="round" stroke-linejoin="round" stroke-miterlimit="10" stroke-width="1"/>
        <path id="Trazado_1043321" data-name="Trazado 1043321" d="M415.832,280.165l-1.222,4.857,4.187,1.7,2.518-4.329Z" transform="translate(-375.185 -253.76)" fill="none" stroke="#000" stroke-linecap="round" stroke-linejoin="round" stroke-miterlimit="10" stroke-width="1"/>
        <path id="Trazado_1043322" data-name="Trazado 1043322" d="M52.552,147.01a16.071,16.071,0,0,1,.839-7.21" transform="translate(-48.099 -126.988)" fill="none" stroke="#000" stroke-linecap="round" stroke-linejoin="round" stroke-miterlimit="10" stroke-width="1"/>
        <path id="Trazado_1043323" data-name="Trazado 1043323" d="M377.676,151.151a16.134,16.134,0,0,1,.488,6.112" transform="translate(-341.828 -137.24)" fill="none" stroke="#000" stroke-linecap="round" stroke-linejoin="round" stroke-miterlimit="10" stroke-width="1"/>
        <path id="Trazado_1043324" data-name="Trazado 1043324" d="M323.415,67.87a16.105,16.105,0,0,1,4.138,5.18" transform="translate(-292.821 -62.024)" fill="none" stroke="#000" stroke-linecap="round" stroke-linejoin="round" stroke-miterlimit="10" stroke-width="1"/>
        <path id="Trazado_1043325" data-name="Trazado 1043325" d="M348.565,211.535a2.917,2.917,0,1,1,1.66,5.073" transform="translate(-315.536 -191.101)" fill="none" stroke="#000" stroke-linecap="round" stroke-linejoin="round" stroke-miterlimit="10" stroke-width="1"/>
        <path id="Trazado_1043326" data-name="Trazado 1043326" d="M40.6,216.608a2.917,2.917,0,1,1,.168-5.783" transform="translate(-34.5 -191.102)" fill="none" stroke="#000" stroke-linecap="round" stroke-linejoin="round" stroke-miterlimit="10" stroke-width="1"/>
        <path id="Trazado_1043327" data-name="Trazado 1043327" d="M109.255,500.51a1.477,1.477,0,0,0,.326.038h20.428a1.448,1.448,0,0,0,1.019-.417" transform="translate(-99.401 -452.423)" fill="none" stroke="#000" stroke-linecap="round" stroke-linejoin="round" stroke-miterlimit="10" stroke-width="1"/>
        <path id="Trazado_1043328" data-name="Trazado 1043328" d="M302.915,407.07a10.919,10.919,0,0,1,3.311,6.215" transform="translate(-274.307 -368.375)" fill="none" stroke="#000" stroke-linecap="round" stroke-linejoin="round" stroke-miterlimit="10" stroke-width="1"/>
        <path id="Trazado_1043329" data-name="Trazado 1043329" d="M207.2,370.33a2.188,2.188,0,0,1,1.312,2.05,2.032,2.032,0,0,1-2.928,1.953.713.713,0,0,0-.911.184,1.916,1.916,0,0,1-2.454.545.713.713,0,0,0-.911.184,1.921,1.921,0,0,1-3.089,0,.715.715,0,0,0-.445-.266" transform="translate(-179.349 -335.193)" fill="none" stroke="#000" stroke-linecap="round" stroke-linejoin="round" stroke-miterlimit="10" stroke-width="1"/>
        <path id="Trazado_1043330" data-name="Trazado 1043330" d="M80.041,187.79a14.585,14.585,0,0,0,16.622-14.661,1.975,1.975,0,0,0-1.9-1.948c-8.359-.306-13.179-2.747-15.642-4.568a2.59,2.59,0,0,0-3.417.3c-1.046,1.1-2.937,2.272-6.347,2.693a1.979,1.979,0,0,0-1.716,1.69,14.56,14.56,0,0,0,2.55,10.5" transform="translate(-61.686 -150.745)" fill="none" stroke="#000" stroke-linecap="round" stroke-linejoin="round" stroke-miterlimit="10" stroke-width="1"/>
        <path id="Trazado_1043331" data-name="Trazado 1043331" d="M67.705,233.38l1.451.241a4.934,4.934,0,0,1,3.866,6.423c-.338,1.016-.313.943-.351,1.043" transform="translate(-61.875 -211.505)" fill="none" stroke="#000" stroke-linecap="round" stroke-linejoin="round" stroke-miterlimit="10" stroke-width="1"/>
        <line id="Línea_661" data-name="Línea 661" y2="1.162" transform="translate(14.347 24.791)" fill="none" stroke="#000" stroke-linecap="round" stroke-linejoin="round" stroke-miterlimit="10" stroke-width="1"/>
        <line id="Línea_662" data-name="Línea 662" y2="1.162" transform="translate(26.442 24.791)" fill="none" stroke="#000" stroke-linecap="round" stroke-linejoin="round" stroke-miterlimit="10" stroke-width="1"/>
        <path id="Trazado_1043332" data-name="Trazado 1043332" d="M201.633,275.139a2.113,2.113,0,0,0,3.189,0" transform="translate(-182.833 -249.22)" fill="none" stroke="#000" stroke-linecap="round" stroke-linejoin="round" stroke-miterlimit="10" stroke-width="1"/>
        <path id="Trazado_1043333" data-name="Trazado 1043333" d="M335.664,463.636h-3.418a1.208,1.208,0,0,1-1.208-1.208v-.251a2.917,2.917,0,1,1,5.833,0v.251A1.208,1.208,0,0,1,335.664,463.636Z" transform="translate(-299.706 -415.512)" fill="none" stroke="#000" stroke-linecap="round" stroke-linejoin="round" stroke-miterlimit="10" stroke-width="1"/>
        <path id="Trazado_1043334" data-name="Trazado 1043334" d="M85.33,11.167a1.5,1.5,0,0,0-1.319-.786,1.441,1.441,0,1,1,0-2.881A4.392,4.392,0,0,1,87.88,9.812" transform="translate(-75.296 -7.5)" fill="none" stroke="#000" stroke-linecap="round" stroke-linejoin="round" stroke-miterlimit="10" stroke-width="1"/>
        <path id="Trazado_1043335" data-name="Trazado 1043335" d="M53.344,15.434c3.622-4.51,10.713-8.08,19.311-7.768,3.479.126,6.183,2.7,6.039,5.752-.161,3.414-3.825,5.977-7.811,5.138A12.354,12.354,0,0,0,60.729,21.04a5.408,5.408,0,0,1-6.94-.173A3.911,3.911,0,0,1,53.344,15.434Z" transform="translate(-48.097 -7.633)" fill="none" stroke="#000" stroke-linecap="round" stroke-linejoin="round" stroke-miterlimit="10" stroke-width="1"/>
        <line id="Línea_663" data-name="Línea 663" transform="translate(20.416 43.749)" fill="none" stroke="#000" stroke-linecap="round" stroke-linejoin="round" stroke-miterlimit="10" stroke-width="1"/>
        <line id="Línea_664" data-name="Línea 664" transform="translate(20.416 45.937)" fill="none" stroke="#000" stroke-linecap="round" stroke-linejoin="round" stroke-miterlimit="10" stroke-width="1"/>
        <line id="Línea_665" data-name="Línea 665" y1="2.917" transform="translate(26.979 45.208)" fill="none" stroke="#000" stroke-linecap="round" stroke-linejoin="round" stroke-miterlimit="10" stroke-width="1"/>
        <path id="Trazado_1043336" data-name="Trazado 1043336" d="M15.491,315.716a3.238,3.238,0,0,1,4.327-2.84A9.48,9.48,0,1,1,7.783,325.434a3.612,3.612,0,0,1,3.014-5A5.106,5.106,0,0,0,15.491,315.716Z" transform="translate(-7.501 -283.122)" fill="none" stroke="#000" stroke-linecap="round" stroke-linejoin="round" stroke-miterlimit="10" stroke-width="1"/>
        <circle id="Elipse_12492" data-name="Elipse 12492" cx="1.458" cy="1.458" r="1.458" transform="translate(4.503 41.27)" fill="none" stroke="#000" stroke-linecap="round" stroke-linejoin="round" stroke-miterlimit="10" stroke-width="1"/>
        <circle id="Elipse_12493" data-name="Elipse 12493" cx="1.458" cy="1.458" r="1.458" transform="translate(12.524 35.436)" fill="none" stroke="#000" stroke-linecap="round" stroke-linejoin="round" stroke-miterlimit="10" stroke-width="1"/>
        <circle id="Elipse_12494" data-name="Elipse 12494" cx="1.458" cy="1.458" r="1.458" transform="translate(10.774 41.416)" fill="none" stroke="#000" stroke-linecap="round" stroke-linejoin="round" stroke-miterlimit="10" stroke-width="1"/>
        <path id="Trazado_1043337" data-name="Trazado 1043337" d="M263.6,316.42l-1.078-1.616a2.661,2.661,0,0,1,2.857-4.053l.371.092a1.069,1.069,0,0,0,1.217-.56,1.071,1.071,0,0,1,1.109-.581l2.515.359" transform="translate(-237.419 -280.427)" fill="none" stroke="#000" stroke-linecap="round" stroke-linejoin="round" stroke-miterlimit="10" stroke-width="1"/>
      </g>
    </g>
  </g>
</svg>
