<svg xmlns="http://www.w3.org/2000/svg" xmlns:xlink="http://www.w3.org/1999/xlink" width="93.934" height="93.934" viewBox="0 0 93.934 93.934">
  <defs>
    <filter id="Trazado_982547" x="0" y="0" width="93.934" height="93.934" filterUnits="userSpaceOnUse">
      <feOffset dy="3" input="SourceAlpha"/>
      <feGaussianBlur stdDeviation="3" result="blur"/>
      <feFlood flood-opacity="0.161"/>
      <feComposite operator="in" in2="blur"/>
      <feComposite in="SourceGraphic"/>
    </filter>
  </defs>
  <g id="Grupo_1182812" data-name="Grupo 1182812" transform="translate(-611.066 -2589)">
    <g id="Grupo_1179595" data-name="Grupo 1179595" transform="translate(428 462.467)">
      <g id="Grupo_1175227" data-name="Grupo 1175227" transform="translate(-5.967 140.533)">
        <g id="Grupo_1167337" data-name="Grupo 1167337" transform="translate(198.033 1992)">
          <g id="Grupo_1166720" data-name="Grupo 1166720">
            <g id="Grupo_1164305" data-name="Grupo 1164305">
              <g id="Grupo_1163948" data-name="Grupo 1163948">
                <g id="Grupo_1158168" data-name="Grupo 1158168">
                  <g id="Grupo_1152576" data-name="Grupo 1152576">
                    <g id="Grupo_1148633" data-name="Grupo 1148633">
                      <g id="Grupo_1148525" data-name="Grupo 1148525">
                        <g transform="matrix(1, 0, 0, 1, -9, -6)" filter="url(#Trazado_982547)">
                          <g id="Trazado_982547-2" data-name="Trazado 982547" transform="translate(9 6)" fill="#fdfbec">
                            <path d="M 37.966796875 74.43359375 C 33.04315185546875 74.43359375 28.26757431030273 73.46962738037109 23.77274131774902 71.56847381591797 C 19.43047523498535 69.73184967041016 15.53040790557861 67.10224914550781 12.18087482452393 63.75271987915039 C 8.831341743469238 60.4031867980957 6.201741218566895 56.50312042236328 4.365118980407715 52.16086196899414 C 2.463963508605957 47.66601943969727 1.499996900558472 42.89044189453125 1.499996900558472 37.966796875 C 1.499996900558472 33.04315185546875 2.463963508605957 28.26757431030273 4.365118980407715 23.77274131774902 C 6.201741218566895 19.43047523498535 8.831341743469238 15.53040790557861 12.18087482452393 12.18087482452393 C 15.53040790557861 8.831341743469238 19.43047523498535 6.201741218566895 23.77274131774902 4.365118980407715 C 28.26757431030273 2.463963508605957 33.04315185546875 1.499996900558472 37.966796875 1.499996900558472 C 42.89044189453125 1.499996900558472 47.66601943969727 2.463963508605957 52.16086196899414 4.365118980407715 C 56.50312042236328 6.201741218566895 60.4031867980957 8.831341743469238 63.75271987915039 12.18087482452393 C 67.10224914550781 15.53040790557861 69.73184967041016 19.43047523498535 71.56847381591797 23.77274131774902 C 73.46962738037109 28.26757431030273 74.43359375 33.04315185546875 74.43359375 37.966796875 C 74.43359375 42.89044189453125 73.46962738037109 47.66601943969727 71.56847381591797 52.16086196899414 C 69.73184967041016 56.50313186645508 67.10224914550781 60.4031867980957 63.75271987915039 63.75271987915039 C 60.4031867980957 67.10224914550781 56.50313186645508 69.73184967041016 52.16086196899414 71.56847381591797 C 47.66601943969727 73.46962738037109 42.89044189453125 74.43359375 37.966796875 74.43359375 Z" stroke="none"/>
                            <path d="M 37.966796875 3 C 33.2449836730957 3 28.66600799560547 3.924095153808594 24.35705947875977 5.746635437011719 C 20.19359588623047 7.507637023925781 16.45379638671875 10.02928161621094 13.24153518676758 13.24153518676758 C 10.02927398681641 16.45379638671875 7.507621765136719 20.19359588623047 5.746635437011719 24.35705947875977 C 3.924095153808594 28.66600799560547 3 33.2449836730957 3 37.966796875 C 3 42.6886100769043 3.924095153808594 47.26758575439453 5.746635437011719 51.57653427124023 C 7.507621765136719 55.73999786376953 10.02927398681641 59.47979736328125 13.24153518676758 62.69205856323242 C 16.45379638671875 65.90431976318359 20.19359588623047 68.42597198486328 24.35705947875977 70.18695831298828 C 28.66600799560547 72.00949859619141 33.2449836730957 72.93359375 37.966796875 72.93359375 C 42.6886100769043 72.93359375 47.26758575439453 72.00949859619141 51.57653427124023 70.18695831298828 C 55.73999786376953 68.42597198486328 59.47979736328125 65.90431976318359 62.69205856323242 62.69205856323242 C 65.90431976318359 59.47979736328125 68.42597198486328 55.73999786376953 70.18695831298828 51.57653427124023 C 72.00949859619141 47.26758575439453 72.93359375 42.6886100769043 72.93359375 37.966796875 C 72.93359375 33.2449836730957 72.00949859619141 28.66600799560547 70.18695831298828 24.35705947875977 C 68.42597198486328 20.19359588623047 65.90431976318359 16.45379638671875 62.69205856323242 13.24153518676758 C 59.47979736328125 10.02928161621094 55.73999786376953 7.507637023925781 51.57653427124023 5.746635437011719 C 47.26758575439453 3.924095153808594 42.6886100769043 3 37.966796875 3 M 37.966796875 0 C 58.93528366088867 0 75.93359375 16.99832153320312 75.93359375 37.966796875 C 75.93359375 58.93528366088867 58.93528366088867 75.93359375 37.966796875 75.93359375 C 16.99831008911133 75.93359375 0 58.93528366088867 0 37.966796875 C 0 16.99832153320312 16.99831008911133 0 37.966796875 0 Z" stroke="none" fill="#84792b"/>
                          </g>
                        </g>
                      </g>
                    </g>
                  </g>
                </g>
              </g>
            </g>
          </g>
        </g>
      </g>
    </g>
    <g id="guitarra-rockera" transform="translate(633.299 2609.308)">
      <g id="Grupo_1182810" data-name="Grupo 1182810" transform="translate(0.722 1.279)">
        <path id="Trazado_1043338" data-name="Trazado 1043338" d="M47.158,91.607a2.155,2.155,0,0,1-.633,1.528L44.7,94.959a10.381,10.381,0,0,1-5.956,2.983,9.346,9.346,0,0,1-.969.08,2.681,2.681,0,0,0-2.566,2.79,11.87,11.87,0,0,1-3.361,8.908c-4.979,4.979-13.266,4.218-18.854-.78q-.352-.314-.689-.651c-5.615-5.615-6.581-14.391-1.43-19.541A11.921,11.921,0,0,1,20.1,85.4a2.691,2.691,0,0,0,2.85-2.718c0-.042,0-.085,0-.126a9.651,9.651,0,0,1,2.85-6.828l3.578-3.578a2.129,2.129,0,0,1,2.9-.121,2.085,2.085,0,0,1,.7,1.428,2.111,2.111,0,0,1-.418,1.412,10.959,10.959,0,0,0-2.083,4.73,8.64,8.64,0,0,0,2.793,7.719c2.756,2.756,7.3,4.351,10.625,2.425a2.161,2.161,0,0,1,3.255,1.865Z" transform="translate(-7.504 -65.925)" fill="#ffca8b"/>
        <path id="Trazado_1043339" data-name="Trazado 1043339" d="M32.569,74.867a10.959,10.959,0,0,0-2.083,4.73c-1.5.8-3.26,2.488-3.718,6.049C26.336,89,23.825,90.681,21.5,91.524c-6.623,2.4-10.19,9.937-8.51,17.415q-.352-.314-.689-.651c-5.615-5.615-6.581-14.391-1.43-19.541A11.921,11.921,0,0,1,20.1,85.4a2.691,2.691,0,0,0,2.85-2.718c0-.042,0-.085,0-.126a9.651,9.651,0,0,1,2.85-6.828l3.578-3.578a2.129,2.129,0,0,1,2.9-.121,2.085,2.085,0,0,1,.7,1.428A2.111,2.111,0,0,1,32.569,74.867Z" transform="translate(-7.504 -65.924)" fill="#ffb25a"/>
        <path id="Trazado_1043340" data-name="Trazado 1043340" d="M196.922,59.212l-6.646,6.646-1.847.393-.2,1.653-3.069,3.069h0l-1.514.723-.531,1.322-3.068,3.069h0l-1.992.736L178,78.13l-4.6,4.6-2.4-2.4-1.687-1.687,4.6-4.6,1.521-.506.524-1.54,3.069-3.069,1.556-.2.489-1.847,3.069-3.068,1.469-.626.575-1.418,5.1-5.1,1.548-1.548Z" transform="translate(-153.771 -51.107)" fill="#827f97"/>
        <path id="Trazado_1043341" data-name="Trazado 1043341" d="M191.688,74.407,171,94.9l-1.687-1.687,4.6-4.6,1.521-.506.524-1.54,3.069-3.069,1.556-.2.489-1.847,3.069-3.068,1.469-.626.575-1.418,5.1-5.1Z" transform="translate(-153.771 -65.678)" fill="#68647d"/>
        <path id="Trazado_1043342" data-name="Trazado 1043342" d="M391.46,18.53l-2.688,4.819a2.478,2.478,0,0,1-1.839,1.249l-.437.058a2.478,2.478,0,0,1-2.076-.7l-1.9-1.9-.733-1.566-1-.268a2.472,2.472,0,0,1-.344-1.617l.058-.438a2.475,2.475,0,0,1,1.143-1.775l.765-.133.541-.6,1.318-.736.944-.075.364-.655.994-.554a2.477,2.477,0,0,1,2.958.412l.66.66.862.862A2.479,2.479,0,0,1,391.46,18.53Z" transform="translate(-344.604 -13.324)" fill="#ffca8b"/>
        <path id="Trazado_1043343" data-name="Trazado 1043343" d="M390.185,14.708a2.659,2.659,0,0,0-1.955.519l-4.734,3.59a2.667,2.667,0,0,0-1.055,2.148l0,.475a2.648,2.648,0,0,0,.077.612l-1.376-1.376a2.477,2.477,0,0,1-.7-2.075l.058-.438a2.478,2.478,0,0,1,1.249-1.838l4.819-2.688a2.477,2.477,0,0,1,2.958.412Z" transform="translate(-344.604 -13.322)" fill="#ffb25a"/>
        <path id="Trazado_1043344" data-name="Trazado 1043344" d="M134.985,264.666l-1.03,1.031a1.44,1.44,0,0,1-2.037,0l-9.212-9.212a1.442,1.442,0,0,1,0-2.037l1.031-1.031a1.441,1.441,0,0,1,2.038,0l1.308,1.309,7.9,7.9A1.44,1.44,0,0,1,134.985,264.666Z" transform="translate(-111.26 -229.977)" fill="#ffb25a"/>
        <path id="Trazado_1043345" data-name="Trazado 1043345" d="M127.081,254.727a10.727,10.727,0,0,1-1.821.85,12.538,12.538,0,0,0-2.333,1.131l-.223-.223a1.442,1.442,0,0,1,0-2.037l1.031-1.031a1.441,1.441,0,0,1,2.038,0Z" transform="translate(-111.26 -229.978)" fill="#ff9c20"/>
        <path id="Trazado_1043346" data-name="Trazado 1043346" d="M346.4,145.062l-2.046,2.046-2.332-2.333.336-1.22,1.718-.815Z" transform="translate(-309.894 -130.311)" fill="#f3f5fc"/>
        <path id="Trazado_1043347" data-name="Trazado 1043347" d="M327.524,126.1l-2.054,2.035-1.759-1.758,2.045-2.045Z" transform="translate(-293.342 -113.67)" fill="#d7ddf5"/>
        <path id="Trazado_1043348" data-name="Trazado 1043348" d="M292.922,198.076l-2.045,2.046-2.357-2.357.57-1.516,1.485-.52Z" transform="translate(-261.532 -178.211)" fill="#f3f5fc"/>
        <path id="Trazado_1043349" data-name="Trazado 1043349" d="M272.516,177.57l1.744,1.744-2.055,2.035-1.734-1.734Z" transform="translate(-245.215 -161.796)" fill="#d7ddf5"/>
        <path id="Trazado_1043350" data-name="Trazado 1043350" d="M239.167,251.081l-2.045,2.046-2.382-2.381-.03-1.284,2.085-.752Z" transform="translate(-212.89 -226.103)" fill="#f3f5fc"/>
        <path id="Trazado_1043351" data-name="Trazado 1043351" d="M219.267,230.81l1.719,1.719-2.055,2.036-1.71-1.71Z" transform="translate(-197.08 -209.922)" fill="#d7ddf5"/>
        <g id="Grupo_1182809" data-name="Grupo 1182809" transform="translate(2.982 28.187)">
          <g id="Grupo_1182808" data-name="Grupo 1182808">
            <path id="Trazado_1043352" data-name="Trazado 1043352" d="M43.114,311.387a2.91,2.91,0,0,1-4-4.019,2.91,2.91,0,0,1,4,4.019Z" transform="translate(-38.551 -306.813)" fill="#fff"/>
            <ellipse id="Elipse_12495" data-name="Elipse 12495" cx="2.258" cy="2.836" rx="2.258" ry="2.836" transform="translate(9.83 13.049) rotate(-44.879)" fill="#fff"/>
          </g>
        </g>
      </g>
      <g id="Grupo_1182811" data-name="Grupo 1182811" transform="translate(0.002 0)">
        <path id="Trazado_1043353" data-name="Trazado 1043353" d="M67.3,9.415,65.893,8.009l.654-1.173a3.21,3.21,0,0,0-.532-3.818L64.493,1.5A3.21,3.21,0,0,0,60.675.964L59.5,1.618,58.095.211A.72.72,0,0,0,57.076,1.23l1.118,1.118-1.318.735L55.538,1.745a.72.72,0,0,0-1.019,1.019l1.062,1.062a3.212,3.212,0,0,0-1.338,2.2l-.058.437a3.2,3.2,0,0,0,.188,1.563L43.247,19.151c-1.586-3.741.455-7.151,1.457-8.5a2.808,2.808,0,0,0-.386-3.811,2.848,2.848,0,0,0-3.889.152l-3.578,3.578a10.434,10.434,0,0,0-3.061,7.337v.136A1.97,1.97,0,0,1,31.7,20.033,12.432,12.432,0,0,0,20.412,25.44a.72.72,0,1,0,1.2.8,10.922,10.922,0,0,1,10.008-4.764,3.412,3.412,0,0,0,3.61-3.447,8.981,8.981,0,0,1,2.639-6.434l3.577-3.577a1.4,1.4,0,0,1,1.917-.091,1.377,1.377,0,0,1,.185,1.87c-1.2,1.619-3.7,5.823-1.387,10.444l-6.026,6.025-2.051-2.051a2.164,2.164,0,0,0-3.057,0L30,25.242A2.165,2.165,0,0,0,30,28.3l5.279,5.279A.72.72,0,0,0,36.3,32.558l-5.279-5.279a.722.722,0,0,1,0-1.019l1.03-1.03a.72.72,0,0,1,1.019,0l9.212,9.213a.719.719,0,0,1,0,1.018l-1.031,1.031a.719.719,0,0,1-1.018,0l-1.553-1.553a.72.72,0,0,0-1.019,1.019l1.553,1.553a2.159,2.159,0,0,0,3.056,0l1.03-1.03a2.159,2.159,0,0,0,0-3.056l-2.051-2.051,6.021-6.021a11.391,11.391,0,0,0,2.914,1.09.72.72,0,0,0,.31-1.407,9.8,9.8,0,0,1-2.153-.754L59.481,13.137a3.586,3.586,0,0,0,2,.131,3.207,3.207,0,0,0,1.72-.8l1.029,1.03a.72.72,0,0,0,1.019-1.019l-1.191-1.191,1.1-1.975,1.117,1.117A.72.72,0,1,0,67.3,9.415Zm-11.731,5.6L52.5,11.941l2.7-2.7,3.072,3.072Zm-2.045,2.045L50.45,13.986l1.027-1.026,3.072,3.072Zm-3.068,3.068-3.072-3.072L49.431,15,52.5,18.077Zm-2.045,2.045L45.337,19.1l1.027-1.027,3.072,3.072Zm-3.068,3.068-3.072-3.072,2.049-2.049L47.39,23.19ZM43.3,27.285l-3.072-3.072,1.027-1.027,3.072,3.072Zm-6.14,0L39.2,25.231,42.277,28.3l-2.05,2.05ZM61.3,11.84l-.438.058a1.766,1.766,0,0,1-1.472-.5L56.112,8.124a1.767,1.767,0,0,1-.5-1.472l.058-.437a1.764,1.764,0,0,1,.886-1.3l4.82-2.688a1.764,1.764,0,0,1,2.1.292L65,4.037a1.763,1.763,0,0,1,.292,2.1L62.6,10.954A1.765,1.765,0,0,1,61.3,11.84Z" transform="translate(-18.342 0)"/>
        <path id="Trazado_1043354" data-name="Trazado 1043354" d="M36.76,251.14a5.453,5.453,0,0,1-1.559.6.72.72,0,0,0,.311,1.407,6.893,6.893,0,0,0,1.97-.763,1.441,1.441,0,0,1,1.752,2.26l-1.824,1.824a9.631,9.631,0,0,1-6.438,2.852,3.4,3.4,0,0,0-3.264,3.533,11.156,11.156,0,0,1-3.151,8.375c-5,5-13.36,3.733-18.524-1.431-3.885-3.885-5.493-9.4-4.1-14.044a.72.72,0,0,0-1.38-.415c-1.547,5.147.2,11.222,4.458,15.477a16.638,16.638,0,0,0,11.643,5.016,12.258,12.258,0,0,0,12.49-13.025,1.959,1.959,0,0,1,1.867-2.047,11.084,11.084,0,0,0,7.414-3.273l1.824-1.824a2.882,2.882,0,0,0-3.492-4.526Z" transform="translate(-0.002 -226.667)"/>
        <path id="Trazado_1043355" data-name="Trazado 1043355" d="M83.509,317.729l-.815.815a.72.72,0,1,0,1.019,1.019l.815-.815a.72.72,0,0,0-1.019-1.019Z" transform="translate(-74.562 -287.023)"/>
        <path id="Trazado_1043356" data-name="Trazado 1043356" d="M172.022,407.879l.815-.815a.72.72,0,1,0-1.019-1.019l-.815.815a.72.72,0,0,0,1.019,1.019Z" transform="translate(-154.388 -366.857)"/>
        <path id="Trazado_1043357" data-name="Trazado 1043357" d="M98.681,355.115a.72.72,0,0,0-1.019,0,2.105,2.105,0,0,0,1.353,3.592,2.105,2.105,0,0,0,3.592,1.353.72.72,0,1,0-1.019-1.019.668.668,0,0,1-.945-.945.72.72,0,0,0-1.019-1.019.668.668,0,1,1-.945-.945A.721.721,0,0,0,98.681,355.115Z" transform="translate(-87.726 -320.819)"/>
      </g>
    </g>
  </g>
</svg>
