<svg xmlns="http://www.w3.org/2000/svg" xmlns:xlink="http://www.w3.org/1999/xlink" width="110" height="110" viewBox="0 0 110 110">
  <defs>
    <filter id="Trazado_982547" x="0" y="0" width="110" height="110" filterUnits="userSpaceOnUse">
      <feOffset dy="3" input="SourceAlpha"/>
      <feGaussianBlur stdDeviation="3" result="blur"/>
      <feFlood flood-opacity="0.161"/>
      <feComposite operator="in" in2="blur"/>
      <feComposite in="SourceGraphic"/>
    </filter>
  </defs>
  <g id="Grupo_1182850" data-name="Grupo 1182850" transform="translate(-175.804 -4301.032)">
    <g id="Grupo_1179605" data-name="Grupo 1179605" transform="translate(-937.196 79.275)">
      <g id="Grupo_1172349" data-name="Grupo 1172349" transform="translate(1122 4227.757)">
        <g id="Grupo_1164700" data-name="Grupo 1164700" transform="translate(0 0)">
          <g id="Grupo_1160931" data-name="Grupo 1160931" transform="translate(0 0)">
            <g id="Grupo_1160749" data-name="Grupo 1160749" transform="translate(0 0)">
              <g id="Grupo_1158891" data-name="Grupo 1158891" transform="translate(0 0)">
                <g id="Grupo_1157406" data-name="Grupo 1157406" transform="translate(0 0)">
                  <g id="Grupo_1155793" data-name="Grupo 1155793">
                    <g id="Grupo_1154704" data-name="Grupo 1154704">
                      <g id="Grupo_1150790" data-name="Grupo 1150790">
                        <g id="Grupo_1154214" data-name="Grupo 1154214">
                          <g id="Grupo_1152583" data-name="Grupo 1152583">
                            <g id="Grupo_1146973" data-name="Grupo 1146973">
                              <g id="Grupo_1146954" data-name="Grupo 1146954">
                                <g transform="matrix(1, 0, 0, 1, -9, -6)" filter="url(#Trazado_982547)">
                                  <g id="Trazado_982547-2" data-name="Trazado 982547" transform="translate(9 6)" fill="#effbfe">
                                    <path d="M 46.00000762939453 90.49987030029297 C 39.99188613891602 90.49987030029297 34.16427612304688 89.32350921630859 28.67906188964844 87.00345611572266 C 23.38020706176758 84.76224517822266 18.62104797363281 81.55341339111328 14.53375434875488 77.46613311767578 C 10.44647407531738 73.37885284423828 7.237647533416748 68.61969757080078 4.996420860290527 63.32085418701172 C 2.676367521286011 57.83565521240234 1.500007629394531 52.008056640625 1.500007629394531 45.99993515014648 C 1.500007629394531 39.99181365966797 2.676367521286011 34.16421508789062 4.996420860290527 28.67901420593262 C 7.237647533416748 23.38017463684082 10.44647407531738 18.62101554870605 14.53375434875488 14.53373527526855 C 18.62104797363281 10.44645500183105 23.38020706176758 7.23762845993042 28.67906188964844 4.996415138244629 C 34.16427612304688 2.676361799240112 39.99188613891602 1.500001788139343 46.00000762939453 1.500001788139343 C 52.00812911987305 1.500001788139343 57.83573913574219 2.676361799240112 63.32095336914062 4.996415138244629 C 68.61980438232422 7.23762845993042 73.37896728515625 10.44645500183105 77.46626281738281 14.53373527526855 C 81.55354309082031 18.62101554870605 84.76236724853516 23.38017463684082 87.00359344482422 28.67901420593262 C 89.32364654541016 34.16421508789062 90.50000762939453 39.99181365966797 90.50000762939453 45.99993515014648 C 90.50000762939453 52.008056640625 89.32364654541016 57.83565521240234 87.00359344482422 63.32085418701172 C 84.76236724853516 68.61969757080078 81.55354309082031 73.37885284423828 77.46626281738281 77.46613311767578 C 73.37896728515625 81.55341339111328 68.61980438232422 84.76224517822266 63.32095336914062 87.00345611572266 C 57.83573913574219 89.32350921630859 52.00812911987305 90.49987030029297 46.00000762939453 90.49987030029297 Z" stroke="none"/>
                                    <path d="M 46.00000762939453 2.999992370605469 C 40.19372177124023 2.999992370605469 34.56270599365234 4.136489868164062 29.26339340209961 6.377906799316406 C 24.14333343505859 8.543502807617188 19.54443359375 11.64437866210938 15.59442138671875 15.59437561035156 C 11.6444091796875 19.54439544677734 8.543533325195312 24.14329528808594 6.377937316894531 29.26333618164062 C 4.136505126953125 34.56264877319336 3.000007629394531 40.19366455078125 3.000007629394531 45.99993515014648 C 3.000007629394531 51.80620574951172 4.136505126953125 57.43720626831055 6.377937316894531 62.73651885986328 C 8.543533325195312 67.8565673828125 11.6444091796875 72.45545959472656 15.59442138671875 76.40547943115234 C 19.54443359375 80.35547637939453 24.14333343505859 83.45635223388672 29.26339340209961 85.6219482421875 C 34.56270599365234 87.86336517333984 40.19372177124023 88.99986267089844 46.00000762939453 88.99986267089844 C 51.80629348754883 88.99986267089844 57.43730926513672 87.86336517333984 62.73663711547852 85.6219482421875 C 67.85668182373047 83.45635223388672 72.45559692382812 80.35547637939453 76.40560913085938 76.40547943115234 C 80.35560607910156 72.45545959472656 83.45649719238281 67.8565673828125 85.62209320068359 62.73651885986328 C 87.86351013183594 57.43720626831055 89.00000762939453 51.80620574951172 89.00000762939453 45.99993515014648 C 89.00000762939453 40.19366455078125 87.86351013183594 34.56264877319336 85.62209320068359 29.26333618164062 C 83.45649719238281 24.14329528808594 80.35560607910156 19.54439544677734 76.40560913085938 15.59437561035156 C 72.45559692382812 11.64437866210938 67.85668182373047 8.543502807617188 62.73663711547852 6.377906799316406 C 57.43730926513672 4.136489868164062 51.80629348754883 2.999992370605469 46.00000762939453 2.999992370605469 M 46.00000762939453 -7.62939453125e-06 C 71.40510559082031 -7.62939453125e-06 92.00000762939453 20.59486389160156 92.00000762939453 45.99993515014648 C 92.00000762939453 71.40499114990234 71.40510559082031 91.99986267089844 46.00000762939453 91.99986267089844 C 20.59492492675781 91.99986267089844 7.62939453125e-06 71.40499114990234 7.62939453125e-06 45.99993515014648 C 7.62939453125e-06 20.59486389160156 20.59492492675781 -7.62939453125e-06 46.00000762939453 -7.62939453125e-06 Z" stroke="none" fill="#397b86"/>
                                  </g>
                                </g>
                              </g>
                            </g>
                          </g>
                        </g>
                      </g>
                    </g>
                  </g>
                </g>
              </g>
            </g>
          </g>
        </g>
      </g>
    </g>
    <g id="Layer_35" transform="translate(196.447 4317.618)">
      <g id="Grupo_1182849" data-name="Grupo 1182849" transform="translate(4.966 9.3)">
        <g id="Grupo_1182829" data-name="Grupo 1182829" transform="translate(9.518 11.356)">
          <path id="Trazado_1043439" data-name="Trazado 1043439" d="M19.8,33.993v7.443H41.23V33.993A7.01,7.01,0,0,0,34.237,27H26.794A6.969,6.969,0,0,0,19.8,33.993Z" transform="translate(-19.8 -26.999)" fill="#fdcd56" fill-rule="evenodd"/>
        </g>
        <g id="Grupo_1182830" data-name="Grupo 1182830" transform="translate(14.33 0.962)">
          <path id="Trazado_1043440" data-name="Trazado 1043440" d="M27.3,16.7v.77a5.954,5.954,0,0,0,5.9,5.9,5.783,5.783,0,0,0,4.556-2.182,5.875,5.875,0,0,0,1.347-3.721V16.7a5.9,5.9,0,0,0-11.806,0Z" transform="translate(-27.3 -10.8)" fill="#ffd6c7" fill-rule="evenodd"/>
        </g>
        <g id="Grupo_1182831" data-name="Grupo 1182831" transform="translate(18.565 0.962)">
          <path id="Trazado_1043441" data-name="Trazado 1043441" d="M38.2,16.7v.77a5.773,5.773,0,0,1-1.283,3.657.063.063,0,0,1-.064.064A6.094,6.094,0,0,1,33.9,23.119a6.965,6.965,0,0,0,1.6.257,5.783,5.783,0,0,0,4.556-2.182,5.875,5.875,0,0,0,1.347-3.721V16.7a5.887,5.887,0,0,0-5.9-5.9,4.43,4.43,0,0,0-1.6.257A5.909,5.909,0,0,1,38.2,16.7Z" transform="translate(-33.9 -10.8)" fill="#e0bcaf" fill-rule="evenodd"/>
        </g>
        <g id="Grupo_1182832" data-name="Grupo 1182832" transform="translate(24.019 11.421)">
          <path id="Trazado_1043442" data-name="Trazado 1043442" d="M42.4,27.87a7.074,7.074,0,0,1,3.657,6.16v7.443H49.33V34.03a7,7,0,0,0-6.16-6.93l-.77.77Z" transform="translate(-42.4 -27.1)" fill="#e8bb4b" fill-rule="evenodd"/>
        </g>
        <g id="Grupo_1182833" data-name="Grupo 1182833" transform="translate(31.654 0.962)">
          <path id="Trazado_1043443" data-name="Trazado 1043443" d="M54.3,17.473a5.954,5.954,0,0,0,5.9,5.9,5.783,5.783,0,0,0,4.556-2.182,5.875,5.875,0,0,0,1.347-3.721V16.7a5.9,5.9,0,0,0-11.806,0Z" transform="translate(-54.3 -10.8)" fill="#ffd6c7" fill-rule="evenodd"/>
        </g>
        <g id="Grupo_1182834" data-name="Grupo 1182834" transform="translate(26.842 11.421)">
          <path id="Trazado_1043444" data-name="Trazado 1043444" d="M46.8,34.03v7.443H68.23V34.03a7,7,0,0,0-6.16-6.93,5.879,5.879,0,0,1-4.556,2.182A5.783,5.783,0,0,1,52.96,27.1a6.954,6.954,0,0,0-6.16,6.93Z" transform="translate(-46.8 -27.1)" fill="#cff797" fill-rule="evenodd"/>
        </g>
        <g id="Grupo_1182835" data-name="Grupo 1182835" transform="translate(41.343 11.421)">
          <path id="Trazado_1043445" data-name="Trazado 1043445" d="M69.4,27.87a7.074,7.074,0,0,1,3.657,6.16v7.443H76.33V34.03a7,7,0,0,0-6.16-6.93,4.356,4.356,0,0,1-.77.77Z" transform="translate(-69.4 -27.1)" fill="#bade88" fill-rule="evenodd"/>
        </g>
        <g id="Grupo_1182836" data-name="Grupo 1182836" transform="translate(35.953 0.962)">
          <path id="Trazado_1043446" data-name="Trazado 1043446" d="M61,11.057A5.987,5.987,0,0,1,65.3,16.7v.77a5.773,5.773,0,0,1-1.283,3.657.063.063,0,0,1-.064.064A6.094,6.094,0,0,1,61,23.119a6.965,6.965,0,0,0,1.6.257,5.757,5.757,0,0,0,3.786-1.412,8.709,8.709,0,0,0,.77-.77,5.875,5.875,0,0,0,1.347-3.721V16.7a5.887,5.887,0,0,0-5.9-5.9A6.965,6.965,0,0,0,61,11.057Z" transform="translate(-61 -10.8)" fill="#e0bcaf" fill-rule="evenodd"/>
        </g>
        <g id="Grupo_1182837" data-name="Grupo 1182837" transform="translate(18.18 19.12)">
          <path id="Trazado_1043447" data-name="Trazado 1043447" d="M33.3,46.094v7.443H54.73V46.094A7.01,7.01,0,0,0,47.737,39.1H40.294A7.01,7.01,0,0,0,33.3,46.094Z" transform="translate(-33.3 -39.1)" fill="#baabf5" fill-rule="evenodd"/>
        </g>
        <g id="Grupo_1182838" data-name="Grupo 1182838" transform="translate(22.992 8.79)">
          <path id="Trazado_1043448" data-name="Trazado 1043448" d="M46.7,23a5.887,5.887,0,0,0-5.9,5.9v.77a5.954,5.954,0,0,0,5.9,5.9,5.783,5.783,0,0,0,4.556-2.182,5.875,5.875,0,0,0,1.347-3.721V28.9A5.929,5.929,0,0,0,46.7,23Z" transform="translate(-40.8 -23)" fill="#ffd6c7" fill-rule="evenodd"/>
        </g>
        <g id="Grupo_1182839" data-name="Grupo 1182839" transform="translate(27.291 8.79)">
          <path id="Trazado_1043449" data-name="Trazado 1043449" d="M47.5,23.257A5.987,5.987,0,0,1,51.8,28.9v.77a5.773,5.773,0,0,1-1.283,3.657.063.063,0,0,1-.064.064A6.094,6.094,0,0,1,47.5,35.319a6.965,6.965,0,0,0,1.6.257,5.783,5.783,0,0,0,4.556-2.182,5.875,5.875,0,0,0,1.347-3.721V28.9A5.887,5.887,0,0,0,49.1,23,4.43,4.43,0,0,0,47.5,23.257Z" transform="translate(-47.5 -23)" fill="#e0bcaf" fill-rule="evenodd"/>
        </g>
        <g id="Grupo_1182840" data-name="Grupo 1182840" transform="translate(32.681 19.185)">
          <path id="Trazado_1043450" data-name="Trazado 1043450" d="M55.9,39.97a7.074,7.074,0,0,1,3.657,6.16v7.443H62.83V46.13a7,7,0,0,0-6.16-6.93A2.926,2.926,0,0,1,55.9,39.97Z" transform="translate(-55.9 -39.2)" fill="#9f92d4" fill-rule="evenodd"/>
        </g>
        <g id="Grupo_1182841" data-name="Grupo 1182841" transform="translate(28.895 9.579)">
          <path id="Trazado_1043451" data-name="Trazado 1043451" d="M50,51.223v6.031H63.859c3.016-1.6,6.224-4.748,9.368-13.282l4.427-15.4a6.374,6.374,0,0,0,.257-1.8c0-3.85-4.812-3.336-6.8,1.54L66.233,40.251c-.962-1.732-4.556-2.759-7.122-1.091L56.8,40.636C53.4,42.818,50,44.871,50,51.223Z" transform="translate(-50 -24.229)" fill="#ffba9f" fill-rule="evenodd"/>
        </g>
        <g id="Grupo_1182842" data-name="Grupo 1182842" transform="translate(28.895 42.604)">
          <path id="Trazado_1043452" data-name="Trazado 1043452" d="M50,84.362H69.762V75.7H50Z" transform="translate(-50 -75.7)" fill="#66d4f1" fill-rule="evenodd"/>
        </g>
        <g id="Grupo_1182843" data-name="Grupo 1182843" transform="translate(45.193 42.604)">
          <path id="Trazado_1043453" data-name="Trazado 1043453" d="M75.4,75.7h3.4v8.662H75.4Z" transform="translate(-75.4 -75.7)" fill="#53bad6" fill-rule="evenodd"/>
        </g>
        <g id="Grupo_1182844" data-name="Grupo 1182844" transform="translate(39.354 9.603)">
          <path id="Trazado_1043454" data-name="Trazado 1043454" d="M69.7,57.267c3.016-1.6,6.224-4.748,9.368-13.282l4.427-15.4a6.374,6.374,0,0,0,.257-1.8c0-2.5-2.053-3.144-4.042-1.925a2.888,2.888,0,0,1,.642,1.925,6.7,6.7,0,0,1-.257,1.8l-4.427,15.4c-3.144,8.534-6.352,11.678-9.368,13.282Z" transform="translate(-66.3 -24.266)" fill="#e0a58d" fill-rule="evenodd"/>
        </g>
        <g id="Grupo_1182845" data-name="Grupo 1182845" transform="translate(0.985 9.579)">
          <path id="Trazado_1043455" data-name="Trazado 1043455" d="M34.411,51.223v6.031H20.552c-3.016-1.6-6.224-4.748-9.368-13.282l-4.427-15.4a6.374,6.374,0,0,1-.257-1.8c0-3.85,4.812-3.336,6.8,1.54l4.876,11.934c.962-1.732,4.556-2.759,7.122-1.091l2.31,1.476C31.01,42.818,34.411,44.871,34.411,51.223Z" transform="translate(-6.5 -24.229)" fill="#ffba9f" fill-rule="evenodd"/>
        </g>
        <g id="Grupo_1182846" data-name="Grupo 1182846" transform="translate(9.133 42.604)">
          <path id="Trazado_1043456" data-name="Trazado 1043456" d="M19.2,84.362H38.962V75.7H19.2Z" transform="translate(-19.2 -75.7)" fill="#66d4f1" fill-rule="evenodd"/>
        </g>
        <g id="Grupo_1182847" data-name="Grupo 1182847" transform="translate(25.495 42.604)">
          <path id="Trazado_1043457" data-name="Trazado 1043457" d="M44.7,75.7h3.4v8.662H44.7Z" transform="translate(-44.7 -75.7)" fill="#53bad6" fill-rule="evenodd"/>
        </g>
        <g id="Grupo_1182848" data-name="Grupo 1182848" transform="translate(15.036 23.724)">
          <path id="Trazado_1043458" data-name="Trazado 1043458" d="M32.057,48.537c2.823,1.8,5.646,3.529,6.545,7.571a14.021,14.021,0,0,1,.321,3.016v6.031h3.336V59.124a14.021,14.021,0,0,0-.321-3.016c-.9-4.106-3.721-5.775-6.545-7.571l-.321-.192-1.925-1.219a5.247,5.247,0,0,0-1.219-.577,6.611,6.611,0,0,0-3.529-.064,4.3,4.3,0,0,1,1.347.642l1.861,1.155.128.064Z" transform="translate(-28.4 -46.275)" fill="#e0a58d" fill-rule="evenodd"/>
        </g>
        <path id="Trazado_1043459" data-name="Trazado 1043459" d="M60.681,18.09c-2.053-.706-5.069.77-6.609,4.491l-.642,1.6a8.247,8.247,0,0,0-4.748-4.171,7.009,7.009,0,0,0,.706-3.08v-.77a6.865,6.865,0,0,0-13.731,0v1.219a7.574,7.574,0,0,0-1.8-.257A5.933,5.933,0,0,0,32,17.384V16.165a6.833,6.833,0,1,0-13.667,0v.77a7.221,7.221,0,0,0,.706,3.08,7.668,7.668,0,0,0-4.748,4.171l-.642-1.6c-1.54-3.721-4.556-5.2-6.609-4.491-1.476.513-2.695,2.182-1.732,5.39l4.427,15.4v.064c2.438,6.609,4.941,10.009,7.186,12H14.163a.987.987,0,0,0-.962.962v8.662a.987.987,0,0,0,.962.962h39.46a.987.987,0,0,0,.962-.962V51.9a.987.987,0,0,0-.962-.962H50.864c2.246-1.925,4.748-5.325,7.186-12v-.064l4.427-15.4c.834-3.208-.385-4.876-1.8-5.39Zm-8.405,8.983-2.438,6.1a6.645,6.645,0,0,0-2.053-.9,7.636,7.636,0,0,0-2.951-.128,7.856,7.856,0,0,0-4.812-4.235,7.052,7.052,0,0,0,.77-3.08V23.608a5.933,5.933,0,0,0,1.861.257,6.992,6.992,0,0,0,4.941-2.117,6.09,6.09,0,0,1,4.684,5.325ZM33.861,31.629A6.992,6.992,0,0,0,38.8,29.511a6.054,6.054,0,0,1,4.171,3.208c-.192.064-.321.192-.513.257l-2.5,1.6c-2.374,1.54-4.812,3.08-6.1,6.031-1.283-2.951-3.721-4.556-6.1-6.031l-2.5-1.6a1.921,1.921,0,0,0-.513-.257,6.233,6.233,0,0,1,4.171-3.208,6.992,6.992,0,0,0,4.941,2.117Zm3.721-14.693v-.77a4.941,4.941,0,1,1,9.881,0v.77a4.984,4.984,0,0,1-4.941,4.941,5.052,5.052,0,0,1-2.374-.642,6.634,6.634,0,0,0-2.31-2.823A5.466,5.466,0,0,1,37.582,16.935ZM38.8,23.993v.77a4.941,4.941,0,0,1-9.881,0v-.77a4.941,4.941,0,0,1,9.881,0ZM20.258,16.165a4.941,4.941,0,0,1,9.881,0v.77a3.978,3.978,0,0,1-.257,1.476,6.634,6.634,0,0,0-2.31,2.823,5.052,5.052,0,0,1-2.374.642,4.943,4.943,0,0,1-4.941-4.941Zm0,5.518A6.878,6.878,0,0,0,25.2,23.8a6.2,6.2,0,0,0,1.861-.257v1.219a6.269,6.269,0,0,0,.77,3.08,8.258,8.258,0,0,0-4.812,4.235,6.567,6.567,0,0,0-2.951.128,6.645,6.645,0,0,0-2.053.9l-2.567-6.031a6.21,6.21,0,0,1,4.812-5.39ZM11.6,38.3,7.169,22.9c-.449-1.6-.257-2.759.513-3.016,1.027-.385,3.08.642,4.171,3.4l4.684,11.549c-.642,1.668.128,3.529,2.117,4.812l6.224,3.978a.772.772,0,0,0,.513.128.935.935,0,0,0,.834-.449.95.95,0,0,0-.257-1.347l-6.224-3.914c-.449-.321-1.989-1.412-1.283-2.695a3.286,3.286,0,0,1,1.989-1.283,4.835,4.835,0,0,1,3.786.577l2.5,1.6c3.272,2.117,6.16,3.914,6.16,9.624v5.069H20.258C17.82,49.594,14.676,46.835,11.6,38.3Zm3.465,14.565H32.834V59.6H15.061ZM52.66,59.6H34.823V52.866H52.6V59.6Zm7.892-36.637-4.427,15.4c-3.08,8.469-6.224,11.228-8.662,12.576H34.823V45.873c0-5.71,2.823-7.507,6.16-9.624l2.5-1.6a4.835,4.835,0,0,1,3.786-.577A2.94,2.94,0,0,1,49.26,35.35c.706,1.283-.834,2.374-1.283,2.695l-6.224,3.978A.94.94,0,0,0,41.5,43.37a1.1,1.1,0,0,0,.834.449,1.209,1.209,0,0,0,.513-.128l6.224-3.978c1.989-1.283,2.759-3.144,2.117-4.812l4.684-11.549c1.155-2.759,3.144-3.721,4.171-3.4.77.192.962,1.412.513,3.016Z" transform="translate(-4.966 -9.3)"/>
      </g>
    </g>
  </g>
</svg>
