<svg xmlns="http://www.w3.org/2000/svg" xmlns:xlink="http://www.w3.org/1999/xlink" width="400" height="404" viewBox="0 0 400 404">
  <defs>
    <clipPath id="clip-path">
      <rect id="Rectángulo_416035" data-name="Rectángulo 416035" width="400" height="404" transform="translate(180 5986)" fill="#fff" stroke="#707070" stroke-width="1"/>
    </clipPath>
  </defs>
  <g id="Enmascarar_grupo_1098830" data-name="Enmascarar grupo 1098830" transform="translate(-180 -5986)" clip-path="url(#clip-path)">
    <g id="Grupo_1183148" data-name="Grupo 1183148" transform="translate(191.902 5996.336)">
      <path id="Trazado_1044501" data-name="Trazado 1044501" d="M353.354,30.963c37.387-5.939,76.808,22.657,82.893,60.13,1.24,7.636,1.472,16,6.33,22.007,4.081,5.048,10.558,7.308,16.421,10.074,32.344,15.262,51.711,54.1,44.488,89.212-1.74,8.457-4.964,16.824-10.767,23.2-5.015,5.512-11.636,9.225-17.666,13.6-13.814,10.012-25.362,25.475-24.6,42.552.655,14.7,10.056,27.324,15.39,41.027a77.325,77.325,0,0,1-.825,57.474c-5.555,13.141-17.312,25.778-31.491,24.568-18.053-1.542-27.542-23.526-44.652-29.5-18.465-6.452-36.986,7.5-54.1,16.993-20.941,11.612-45.451,17.215-69.17,14.052s-46.435-15.437-60.756-34.665c-10-13.422-16.486-30.481-30.872-38.995-6.063-3.588-13.037-5.3-19.389-8.345-19.737-9.464-31.769-32.874-28.005-54.489,3.9-22.405,22.573-41.605,20.777-64.279-1.758-22.189-23.085-42.259-16.171-63.41,7.064-21.607,37.468-25.023,50.71-43.481a34.231,34.231,0,0,0,1.954-35.9c-2.574-4.566-6.38-9.541-4.574-14.464a14.343,14.343,0,0,1,3.873-5.069c9.37-9.049,20.163-18.7,33.17-18.57,17.235.169,30.9,17.59,48.129,17.159,15.439-.386,26.444-14.589,39.929-22.139a50.3,50.3,0,0,1,49.053.492" transform="translate(-125.897 -23.552)" fill="#ebe9f0" opacity="0.76"/>
      <g id="Grupo_1183147" data-name="Grupo 1183147" transform="translate(26.168)">
        <path id="Trazado_1044502" data-name="Trazado 1044502" d="M784.4,445.143s8.826,0,11.348,8.325-3.993,18.038-3.993,18.038,6.514-6.938,13.449,0,3.152,19.426,3.152,19.426,12.609-6.938,15.13,2.775-3.782,13.1,0,17.653,20.173-5.165,21.434,7.323-12.609,23.588-12.609,23.588,8.826,11.1,0,18.038-13.1,0-13.1,0,.49,19.426-14.64,22.2-42.869-1.387-51.694,5.55-49.173,20.813-64.3,8.326c0,0-20.173,9.713-30.26-1.387s0-22.2-1.261-20.813-16.391,4.162-22.7-4.162,8.826-27.751,7.565-26.363-6.3,9.713-16.391-4.163,1.261-26.363,11.348-27.751c0,0-2.522-12.488,5.043-13.875s15.13,2.775,15.13,2.775S653.271,485.383,665.88,484c0,0,5.043-15.263,13.869-18.038,0,0-11.207-16.651,3.853-20.813,0,0-.07-16.651,10.017-15.263,0,0,6.3,0,8.826,4.163,0,0,0-19.426,12.608-18.038s16.391,8.325,16.391,8.325.841-9.855,9.877-8.4,7.775,7.009,7.775,7.009,6.3-9.713,13.869-4.163,3.782,9.713,3.782,9.713,13.869-9.713,17.652,0S784.4,445.143,784.4,445.143Z" transform="translate(-576.993 -382.01)" fill="#632a26"/>
        <path id="Trazado_1044503" data-name="Trazado 1044503" d="M750.262,1110.11c-1.261,0,5.043,0,22.7,12.488s17.652,24.976,13.869,29.138-32.782,38.851-34.043,38.851S742.7,1189.2,742.7,1189.2l18.913-43.014s-23.956-11.1-30.26-16.651S750.262,1110.11,750.262,1110.11Z" transform="translate(-550.421 -887.408)" fill="#f9b1a0"/>
        <path id="Trazado_1044504" data-name="Trazado 1044504" d="M1059.9,1175.564c0,2.775,0,27.751-3.782,36.076s-29,45.789-29,45.789-11.348-6.938-11.348-5.55,6.3-27.751,17.652-40.239c0,0-3.782-33.3,0-44.4S1059.9,1175.564,1059.9,1175.564Z" transform="translate(-899.145 -926.499)" fill="#f9b1a0"/>
        <path id="Trazado_1044505" data-name="Trazado 1044505" d="M905.255,1044.632c.564,1.241,5.043,8.325,15.13,13.875,0,0-7.565,16.651-29,26.364l-8.826-5.55h-5.043s1.261,10.792,0,10.252-22.7,2.235-32.782-7.477c0,0-2.148-26.363,3.339-37.464S901.472,1036.306,905.255,1044.632Z" transform="translate(-712.978 -834.417)" fill="#92adad"/>
        <path id="Trazado_1044506" data-name="Trazado 1044506" d="M1258.808,587.172s-2.825-15.245-5.347-16.633-.911,4.531-.911,4.531c-.351,1.02-5.394-7.306-7.915-5.918s1.471,5.918,1.471,5.918-5.253-5.918-6.514-3.143,2.522,5.55,2.522,5.55-2.522-2.775-3.782-1.388,3.292,4.713,3.292,4.713-4.553-3.325-4.553-.55,10.087,13.875,10.087,13.875Z" transform="translate(-1158.269 -493.529)" fill="#f9b1a0"/>
        <path id="Trazado_1044507" data-name="Trazado 1044507" d="M699.308,611.985s5.2-14.469,7.9-15.35.178,4.636.178,4.636c.183,1.071,6.47-6.158,8.732-4.307s-2.387,5.545-2.387,5.545,6.112-4.818,6.913-1.844-3.363,4.98-3.363,4.98,2.923-2.248,3.945-.64-3.989,4.008-3.989,4.008,5.01-2.4,4.57.333-12.133,11.725-12.133,11.725Z" transform="translate(-474.973 -513.58)" fill="#f9b1a0"/>
        <g id="Grupo_1183117" data-name="Grupo 1183117" transform="translate(5.04 55.502)">
          <g id="Grupo_1183112" data-name="Grupo 1183112" transform="translate(0 0)">
            <g id="Grupo_1183109" data-name="Grupo 1183109" transform="translate(10.731 0.384)">
              <path id="Trazado_1044508" data-name="Trazado 1044508" d="M1533,498.7c1.289,6.011,2.239,12.592.153,18.525a2.057,2.057,0,0,1-2.478,1.583,2.331,2.331,0,0,1-1.407-2.789c1.835-5.217.982-10.825-.153-16.114a2.361,2.361,0,0,1,1.407-2.789A2.022,2.022,0,0,1,1533,498.7Z" transform="translate(-1529.057 -497.038)" fill="#b72525"/>
            </g>
            <g id="Grupo_1183110" data-name="Grupo 1183110" transform="translate(9.832 17.557)">
              <path id="Trazado_1044509" data-name="Trazado 1044509" d="M1512.019,560.273a18.1,18.1,0,0,1,4.7,2.951,8.511,8.511,0,0,1,2.922,5.287,3.574,3.574,0,0,1-1.593,3.431,4.241,4.241,0,0,1-3.361.12,11.157,11.157,0,0,1-4.694-2.7,9.159,9.159,0,0,1-1.829-2.5,4.471,4.471,0,0,1-.551-2.306,3.342,3.342,0,0,1,1.367-2.579c1.487-1.045,3.451.687,2.959,2.56q-.084.362,0-.2.005.372-.049-.187a1.756,1.756,0,0,0,.043.2q.067.247-.095-.211c-.054-.016.424.557.1.246-.26-.254.123.134.172.188.09.1.187.186.279.281q.249.226-.115-.093.112.1.224.189.366.3.748.583a27.545,27.545,0,0,0,3.383,2.074l-2.959,1.355q-.01.463-.02.925l.518,1-.056-.073a2.527,2.527,0,0,1,0-3.206,1.882,1.882,0,0,1,2.849,0,2.96,2.96,0,0,1,.594,2.559,2.121,2.121,0,0,1-1.167,1.469,1.858,1.858,0,0,1-1.793-.114,25.083,25.083,0,0,1-3.96-2.518,8.753,8.753,0,0,1-2.058-2.155,4.645,4.645,0,0,1-.53-3.526l2.96,2.56a1.491,1.491,0,0,0,.617-1.223c0,.076.011.276-.019-.049-.042-.452.133.222-.035-.162-.139-.318.077.141.124.23q.118.225.251.44a1.562,1.562,0,0,1,.136.211c-.013-.035-.315-.429-.1-.153.089.114.176.229.268.34a7.654,7.654,0,0,0,.63.668,2.036,2.036,0,0,1,.18.164c-.023-.028-.4-.327-.129-.119.112.087.223.175.337.258a8.819,8.819,0,0,0,.813.524c.122.07.248.133.371.2.317.172-.408-.18.008,0q.44.193.894.341.4.129.8.224c.075.018.153.029.228.051.208.059-.263-.031-.25-.032.1,0,.675-.016.305.038l-.157.023q.231-.078-.033.035a2.115,2.115,0,0,0-.367.278c.224-.245-.112.171-.123.194-.022.041-.136.551-.094.231,0-.028-.022.555-.037.319,0-.076,0-.16,0-.237.005-.226.012.31.035.3a2.608,2.608,0,0,0-.07-.3c-.025-.091-.124-.358.005-.019s.045.117.013.05c-.076-.156-.147-.313-.228-.465q-.106-.2-.223-.387c-.033-.054-.067-.107-.1-.161-.233-.375.225.295.065.1a17.766,17.766,0,0,0-1.3-1.418c-.011-.011.351.291.172.153-.081-.063-.16-.132-.241-.2q-.2-.154-.4-.3c-.287-.206-.581-.4-.88-.581s-.606-.354-.915-.516q-.218-.114-.438-.223c-.071-.035-.15-.067-.22-.107l.261.125-.22-.1a2.266,2.266,0,0,1-1.2-1.042,2.572,2.572,0,0,1-.2-1.747c.3-1.057,1.434-2.062,2.479-1.584Z" transform="translate(-1507.605 -560.151)" fill="#b72525"/>
            </g>
            <g id="Grupo_1183111" data-name="Grupo 1183111" transform="translate(0)">
              <path id="Trazado_1044510" data-name="Trazado 1044510" d="M1549.342,499.478c-.106.1-.195.218-.3.316-.216.2.263-.4-.043.053a8.845,8.845,0,0,1-.678.935,5.352,5.352,0,0,1-1.452,1.146,9.082,9.082,0,0,1-3.565.931c-2.411.209-5.267-.059-6.89-2.367l3.164-2.747c.21.482.421.963.653,1.431.129.26.264.517.408.766.057.1.119.2.177.294.208.355-.143-.167.016.032s.3.4.472.577c.041.044.363.379.147.164-.191-.19.063.046.109.08.115.085.234.157.352.236.163.108.177.091-.005.015a6.091,6.091,0,0,0,.838.27c.205.053.174.024-.015.007.146.013.292.028.438.035a6.053,6.053,0,0,0,.739-.012c.047,0,.268-.06.3-.031q-.391.063-.161.02c.05-.009.1-.019.149-.031a5.726,5.726,0,0,0,.66-.187c.12-.042.237-.1.356-.139.259-.094-.418.245,0-.007a6.767,6.767,0,0,0,.581-.376c.048-.035.3-.265.1-.068-.226.221.09-.1.133-.147.071-.077.137-.159.207-.238.342-.386-.228.382.052-.067a1.934,1.934,0,0,1,2.757-.813,2.462,2.462,0,0,1,.723,3.1,7.4,7.4,0,0,1-7.74,3.39,6.368,6.368,0,0,1-3.782-2.243,15.528,15.528,0,0,1-2.139-3.771,2.491,2.491,0,0,1,.519-2.924,1.831,1.831,0,0,1,2.646.177,6.426,6.426,0,0,0,.419.513q.256.243-.042-.032c.085.066.174.128.264.186s.183.113.277.164q-.365-.162-.047-.025c.2.069.4.144.6.2.121.031.244.057.367.079q-.341-.049.021-.007c.25.01.5.031.748.032.477,0,.956-.027,1.431-.068a4.034,4.034,0,0,0,.618-.068c-.554.138.128-.035.233-.06a5.851,5.851,0,0,0,.6-.173q.145-.051.287-.111-.372.186-.068.027c.143-.092.411-.189.51-.342q-.314.281-.062.036.11-.117.209-.245.216-.3-.008.019.206-.3.415-.607a3.528,3.528,0,0,1,.456-.53,1.9,1.9,0,0,1,2.849,0,2.5,2.5,0,0,1,0,3.206Z" transform="translate(-1535.85 -495.627)" fill="#b72525"/>
            </g>
          </g>
          <g id="Grupo_1183116" data-name="Grupo 1183116" transform="translate(0 0)">
            <g id="Grupo_1183113" data-name="Grupo 1183113" transform="translate(10.731 0.384)">
              <path id="Trazado_1044511" data-name="Trazado 1044511" d="M1533,498.7c1.289,6.011,2.239,12.592.153,18.525a2.057,2.057,0,0,1-2.478,1.583,2.331,2.331,0,0,1-1.407-2.789c1.835-5.217.982-10.825-.153-16.114a2.361,2.361,0,0,1,1.407-2.789A2.022,2.022,0,0,1,1533,498.7Z" transform="translate(-1529.057 -497.038)" fill="#2d1b1b"/>
            </g>
            <g id="Grupo_1183114" data-name="Grupo 1183114" transform="translate(9.832 17.557)">
              <path id="Trazado_1044512" data-name="Trazado 1044512" d="M1512.019,560.273a18.1,18.1,0,0,1,4.7,2.951,8.511,8.511,0,0,1,2.922,5.287,3.574,3.574,0,0,1-1.593,3.431,4.241,4.241,0,0,1-3.361.12,11.157,11.157,0,0,1-4.694-2.7,9.159,9.159,0,0,1-1.829-2.5,4.471,4.471,0,0,1-.551-2.306,3.342,3.342,0,0,1,1.367-2.579c1.487-1.045,3.451.687,2.959,2.56q-.084.362,0-.2.005.372-.049-.187a1.756,1.756,0,0,0,.043.2q.067.247-.095-.211c-.054-.016.424.557.1.246-.26-.254.123.134.172.188.09.1.187.186.279.281q.249.226-.115-.093.112.1.224.189.366.3.748.583a27.545,27.545,0,0,0,3.383,2.074l-2.959,1.355q-.01.463-.02.925l.518,1-.056-.073a2.527,2.527,0,0,1,0-3.206,1.882,1.882,0,0,1,2.849,0,2.96,2.96,0,0,1,.594,2.559,2.121,2.121,0,0,1-1.167,1.469,1.858,1.858,0,0,1-1.793-.114,25.083,25.083,0,0,1-3.96-2.518,8.753,8.753,0,0,1-2.058-2.155,4.645,4.645,0,0,1-.53-3.526l2.96,2.56a1.491,1.491,0,0,0,.617-1.223c0,.076.011.276-.019-.049-.042-.452.133.222-.035-.162-.139-.318.077.141.124.23q.118.225.251.44a1.562,1.562,0,0,1,.136.211c-.013-.035-.315-.429-.1-.153.089.114.176.229.268.34a7.654,7.654,0,0,0,.63.668,2.036,2.036,0,0,1,.18.164c-.023-.028-.4-.327-.129-.119.112.087.223.175.337.258a8.819,8.819,0,0,0,.813.524c.122.07.248.133.371.2.317.172-.408-.18.008,0q.44.193.894.341.4.129.8.224c.075.018.153.029.228.051.208.059-.263-.031-.25-.032.1,0,.675-.016.305.038l-.157.023q.231-.078-.033.035a2.115,2.115,0,0,0-.367.278c.224-.245-.112.171-.123.194-.022.041-.136.551-.094.231,0-.028-.022.555-.037.319,0-.076,0-.16,0-.237.005-.226.012.31.035.3a2.608,2.608,0,0,0-.07-.3c-.025-.091-.124-.358.005-.019s.045.117.013.05c-.076-.156-.147-.313-.228-.465q-.106-.2-.223-.387c-.033-.054-.067-.107-.1-.161-.233-.375.225.295.065.1a17.766,17.766,0,0,0-1.3-1.418c-.011-.011.351.291.172.153-.081-.063-.16-.132-.241-.2q-.2-.154-.4-.3c-.287-.206-.581-.4-.88-.581s-.606-.354-.915-.516q-.218-.114-.438-.223c-.071-.035-.15-.067-.22-.107l.261.125-.22-.1a2.266,2.266,0,0,1-1.2-1.042,2.572,2.572,0,0,1-.2-1.747c.3-1.057,1.434-2.062,2.479-1.584Z" transform="translate(-1507.605 -560.151)" fill="#2d1b1b"/>
            </g>
            <g id="Grupo_1183115" data-name="Grupo 1183115" transform="translate(0)">
              <path id="Trazado_1044513" data-name="Trazado 1044513" d="M1549.342,499.478c-.106.1-.195.218-.3.316-.216.2.263-.4-.043.053a8.845,8.845,0,0,1-.678.935,5.352,5.352,0,0,1-1.452,1.146,9.082,9.082,0,0,1-3.565.931c-2.411.209-5.267-.059-6.89-2.367l3.164-2.747c.21.482.421.963.653,1.431.129.26.264.517.408.766.057.1.119.2.177.294.208.355-.143-.167.016.032s.3.4.472.577c.041.044.363.379.147.164-.191-.19.063.046.109.08.115.085.234.157.352.236.163.108.177.091-.005.015a6.091,6.091,0,0,0,.838.27c.205.053.174.024-.015.007.146.013.292.028.438.035a6.053,6.053,0,0,0,.739-.012c.047,0,.268-.06.3-.031q-.391.063-.161.02c.05-.009.1-.019.149-.031a5.726,5.726,0,0,0,.66-.187c.12-.042.237-.1.356-.139.259-.094-.418.245,0-.007a6.767,6.767,0,0,0,.581-.376c.048-.035.3-.265.1-.068-.226.221.09-.1.133-.147.071-.077.137-.159.207-.238.342-.386-.228.382.052-.067a1.934,1.934,0,0,1,2.757-.813,2.462,2.462,0,0,1,.723,3.1,7.4,7.4,0,0,1-7.74,3.39,6.368,6.368,0,0,1-3.782-2.243,15.528,15.528,0,0,1-2.139-3.771,2.491,2.491,0,0,1,.519-2.924,1.831,1.831,0,0,1,2.646.177,6.426,6.426,0,0,0,.419.513q.256.243-.042-.032c.085.066.174.128.264.186s.183.113.277.164q-.365-.162-.047-.025c.2.069.4.144.6.2.121.031.244.057.367.079q-.341-.049.021-.007c.25.01.5.031.748.032.477,0,.956-.027,1.431-.068a4.034,4.034,0,0,0,.618-.068c-.554.138.128-.035.233-.06a5.851,5.851,0,0,0,.6-.173q.145-.051.287-.111-.372.186-.068.027c.143-.092.411-.189.51-.342q-.314.281-.062.036.11-.117.209-.245.216-.3-.008.019.206-.3.415-.607a3.528,3.528,0,0,1,.456-.53,1.9,1.9,0,0,1,2.849,0,2.5,2.5,0,0,1,0,3.206Z" transform="translate(-1535.85 -495.627)" fill="#2d1b1b"/>
            </g>
          </g>
        </g>
        <g id="Grupo_1183126" data-name="Grupo 1183126" transform="translate(289.991 166.507)">
          <g id="Grupo_1183121" data-name="Grupo 1183121" transform="translate(0 0)">
            <g id="Grupo_1183118" data-name="Grupo 1183118" transform="translate(10.73 0.384)">
              <path id="Trazado_1044514" data-name="Trazado 1044514" d="M485.769,906.653c1.289,6.011,2.239,12.592.153,18.525a2.057,2.057,0,0,1-2.478,1.583,2.331,2.331,0,0,1-1.407-2.789c1.835-5.217.982-10.825-.153-16.115a2.361,2.361,0,0,1,1.407-2.789,2.023,2.023,0,0,1,2.478,1.584Z" transform="translate(-481.824 -904.994)" fill="#ff527f"/>
            </g>
            <g id="Grupo_1183119" data-name="Grupo 1183119" transform="translate(9.831 17.556)">
              <path id="Trazado_1044515" data-name="Trazado 1044515" d="M464.785,968.229a18.092,18.092,0,0,1,4.7,2.951,8.512,8.512,0,0,1,2.922,5.287,3.574,3.574,0,0,1-1.593,3.431,4.241,4.241,0,0,1-3.361.12,11.161,11.161,0,0,1-4.693-2.7,9.152,9.152,0,0,1-1.829-2.5,4.468,4.468,0,0,1-.551-2.306,3.342,3.342,0,0,1,1.367-2.579c1.487-1.045,3.451.687,2.96,2.56q-.084.362,0-.2,0,.372-.05-.187a1.731,1.731,0,0,0,.043.2q.067.247-.094-.211c-.054-.016.424.558.1.246-.26-.254.123.134.172.188.09.1.187.186.279.281q.249.227-.115-.092.111.1.224.189.366.3.748.583a27.524,27.524,0,0,0,3.383,2.074l-2.96,1.355q-.01.462-.02.925l.518,1-.056-.073a2.527,2.527,0,0,1,0-3.206,1.882,1.882,0,0,1,2.849,0,2.959,2.959,0,0,1,.594,2.559,2.122,2.122,0,0,1-1.166,1.469,1.858,1.858,0,0,1-1.793-.114,25.1,25.1,0,0,1-3.96-2.518,8.75,8.75,0,0,1-2.058-2.155,4.644,4.644,0,0,1-.53-3.526l2.96,2.56a1.49,1.49,0,0,0,.617-1.223c0,.077.011.276-.019-.049-.042-.452.133.222-.035-.162-.139-.319.078.141.124.23q.118.225.251.44a1.6,1.6,0,0,1,.135.211c-.013-.035-.315-.429-.1-.153.089.114.176.229.268.34a7.626,7.626,0,0,0,.63.668,2.041,2.041,0,0,1,.18.164c-.023-.028-.4-.327-.129-.119.112.086.223.175.337.258a8.726,8.726,0,0,0,.813.524c.122.07.248.133.371.2.316.172-.408-.18.008,0,.293.129.592.243.894.341q.4.129.8.224c.076.018.153.029.228.051.208.059-.263-.031-.25-.032.1-.005.675-.016.305.038l-.157.023q.231-.077-.033.035a2.117,2.117,0,0,0-.367.278c.225-.245-.112.172-.123.194-.022.041-.136.551-.094.231,0-.028-.022.555-.037.319,0-.076,0-.16,0-.237,0-.226.012.31.035.3a2.634,2.634,0,0,0-.07-.3c-.025-.091-.124-.358.005-.019s.045.117.013.05c-.076-.156-.147-.313-.228-.465q-.106-.2-.222-.387c-.033-.054-.067-.107-.1-.161-.233-.375.225.295.065.1a17.813,17.813,0,0,0-1.3-1.418c-.011-.011.351.291.172.153-.081-.063-.16-.131-.241-.2q-.2-.154-.4-.3c-.287-.206-.581-.4-.88-.581s-.606-.354-.915-.516q-.218-.114-.438-.223c-.072-.035-.15-.067-.22-.107l.261.125-.22-.1a2.265,2.265,0,0,1-1.2-1.042,2.57,2.57,0,0,1-.2-1.747c.3-1.057,1.434-2.062,2.479-1.584Z" transform="translate(-460.371 -968.106)" fill="#ff527f"/>
            </g>
            <g id="Grupo_1183120" data-name="Grupo 1183120" transform="translate(0)">
              <path id="Trazado_1044516" data-name="Trazado 1044516" d="M502.1,907.435c-.106.1-.195.218-.3.316-.215.2.263-.4-.043.053a8.848,8.848,0,0,1-.678.935,5.357,5.357,0,0,1-1.452,1.146,9.085,9.085,0,0,1-3.565.931c-2.411.209-5.267-.059-6.89-2.367l3.164-2.747c.209.482.421.963.653,1.431.129.26.264.517.408.766.057.1.119.2.177.294.208.355-.143-.167.016.032s.3.4.472.577c.041.044.363.379.147.164-.191-.19.063.046.109.08.114.085.234.157.352.236.163.108.177.09-.005.015a6.1,6.1,0,0,0,.839.27c.205.053.174.024-.015.007.146.013.292.028.438.034a6.032,6.032,0,0,0,.739-.012c.047,0,.268-.06.3-.031q-.391.063-.161.02c.05-.009.1-.019.149-.031a5.754,5.754,0,0,0,.66-.187c.12-.042.237-.1.356-.139.259-.094-.418.245,0-.007a6.707,6.707,0,0,0,.581-.376c.047-.036.3-.265.1-.068-.226.221.09-.1.133-.147.071-.077.137-.159.207-.238.342-.386-.227.382.052-.067a1.934,1.934,0,0,1,2.757-.813,2.462,2.462,0,0,1,.723,3.1,7.4,7.4,0,0,1-7.74,3.39A6.368,6.368,0,0,1,491,911.761a15.524,15.524,0,0,1-2.139-3.771,2.491,2.491,0,0,1,.519-2.925,1.831,1.831,0,0,1,2.645.177,6.491,6.491,0,0,0,.42.513q.255.243-.042-.031.128.1.264.187c.09.058.183.113.277.163q-.365-.162-.047-.025c.2.069.4.144.6.2q.183.046.367.079-.341-.049.021-.007c.25.01.5.031.748.032.477,0,.956-.027,1.431-.068a4.029,4.029,0,0,0,.619-.068c-.554.138.128-.035.233-.06a5.846,5.846,0,0,0,.6-.173q.145-.051.287-.111-.372.186-.068.027c.143-.092.411-.189.51-.342q-.314.281-.063.036.11-.117.21-.245.215-.3-.008.019.206-.305.415-.607a3.544,3.544,0,0,1,.456-.53,1.9,1.9,0,0,1,2.849,0,2.5,2.5,0,0,1,0,3.206Z" transform="translate(-488.612 -903.584)" fill="#ff527f"/>
            </g>
          </g>
          <g id="Grupo_1183125" data-name="Grupo 1183125" transform="translate(0 0)">
            <g id="Grupo_1183122" data-name="Grupo 1183122" transform="translate(10.73 0.384)">
              <path id="Trazado_1044517" data-name="Trazado 1044517" d="M485.769,906.653c1.289,6.011,2.239,12.592.153,18.525a2.057,2.057,0,0,1-2.478,1.583,2.331,2.331,0,0,1-1.407-2.789c1.835-5.217.982-10.825-.153-16.115a2.361,2.361,0,0,1,1.407-2.789,2.023,2.023,0,0,1,2.478,1.584Z" transform="translate(-481.824 -904.994)" fill="#2d1b1b"/>
            </g>
            <g id="Grupo_1183123" data-name="Grupo 1183123" transform="translate(9.831 17.556)">
              <path id="Trazado_1044518" data-name="Trazado 1044518" d="M464.785,968.229a18.092,18.092,0,0,1,4.7,2.951,8.512,8.512,0,0,1,2.922,5.287,3.574,3.574,0,0,1-1.593,3.431,4.241,4.241,0,0,1-3.361.12,11.161,11.161,0,0,1-4.693-2.7,9.152,9.152,0,0,1-1.829-2.5,4.468,4.468,0,0,1-.551-2.306,3.342,3.342,0,0,1,1.367-2.579c1.487-1.045,3.451.687,2.96,2.56q-.084.362,0-.2,0,.372-.05-.187a1.731,1.731,0,0,0,.043.2q.067.247-.094-.211c-.054-.016.424.558.1.246-.26-.254.123.134.172.188.09.1.187.186.279.281q.249.227-.115-.092.111.1.224.189.366.3.748.583a27.524,27.524,0,0,0,3.383,2.074l-2.96,1.355q-.01.462-.02.925l.518,1-.056-.073a2.527,2.527,0,0,1,0-3.206,1.882,1.882,0,0,1,2.849,0,2.959,2.959,0,0,1,.594,2.559,2.122,2.122,0,0,1-1.166,1.469,1.858,1.858,0,0,1-1.793-.114,25.1,25.1,0,0,1-3.96-2.518,8.75,8.75,0,0,1-2.058-2.155,4.644,4.644,0,0,1-.53-3.526l2.96,2.56a1.49,1.49,0,0,0,.617-1.223c0,.077.011.276-.019-.049-.042-.452.133.222-.035-.162-.139-.319.078.141.124.23q.118.225.251.44a1.6,1.6,0,0,1,.135.211c-.013-.035-.315-.429-.1-.153.089.114.176.229.268.34a7.626,7.626,0,0,0,.63.668,2.041,2.041,0,0,1,.18.164c-.023-.028-.4-.327-.129-.119.112.086.223.175.337.258a8.726,8.726,0,0,0,.813.524c.122.07.248.133.371.2.316.172-.408-.18.008,0,.293.129.592.243.894.341q.4.129.8.224c.076.018.153.029.228.051.208.059-.263-.031-.25-.032.1-.005.675-.016.305.038l-.157.023q.231-.077-.033.035a2.117,2.117,0,0,0-.367.278c.225-.245-.112.172-.123.194-.022.041-.136.551-.094.231,0-.028-.022.555-.037.319,0-.076,0-.16,0-.237,0-.226.012.31.035.3a2.634,2.634,0,0,0-.07-.3c-.025-.091-.124-.358.005-.019s.045.117.013.05c-.076-.156-.147-.313-.228-.465q-.106-.2-.222-.387c-.033-.054-.067-.107-.1-.161-.233-.375.225.295.065.1a17.813,17.813,0,0,0-1.3-1.418c-.011-.011.351.291.172.153-.081-.063-.16-.131-.241-.2q-.2-.154-.4-.3c-.287-.206-.581-.4-.88-.581s-.606-.354-.915-.516q-.218-.114-.438-.223c-.072-.035-.15-.067-.22-.107l.261.125-.22-.1a2.265,2.265,0,0,1-1.2-1.042,2.57,2.57,0,0,1-.2-1.747c.3-1.057,1.434-2.062,2.479-1.584Z" transform="translate(-460.371 -968.106)" fill="#2d1b1b"/>
            </g>
            <g id="Grupo_1183124" data-name="Grupo 1183124" transform="translate(0)">
              <path id="Trazado_1044519" data-name="Trazado 1044519" d="M502.1,907.435c-.106.1-.195.218-.3.316-.215.2.263-.4-.043.053a8.848,8.848,0,0,1-.678.935,5.357,5.357,0,0,1-1.452,1.146,9.085,9.085,0,0,1-3.565.931c-2.411.209-5.267-.059-6.89-2.367l3.164-2.747c.209.482.421.963.653,1.431.129.26.264.517.408.766.057.1.119.2.177.294.208.355-.143-.167.016.032s.3.4.472.577c.041.044.363.379.147.164-.191-.19.063.046.109.08.114.085.234.157.352.236.163.108.177.09-.005.015a6.1,6.1,0,0,0,.839.27c.205.053.174.024-.015.007.146.013.292.028.438.034a6.032,6.032,0,0,0,.739-.012c.047,0,.268-.06.3-.031q-.391.063-.161.02c.05-.009.1-.019.149-.031a5.754,5.754,0,0,0,.66-.187c.12-.042.237-.1.356-.139.259-.094-.418.245,0-.007a6.707,6.707,0,0,0,.581-.376c.047-.036.3-.265.1-.068-.226.221.09-.1.133-.147.071-.077.137-.159.207-.238.342-.386-.227.382.052-.067a1.934,1.934,0,0,1,2.757-.813,2.462,2.462,0,0,1,.723,3.1,7.4,7.4,0,0,1-7.74,3.39A6.368,6.368,0,0,1,491,911.761a15.524,15.524,0,0,1-2.139-3.771,2.491,2.491,0,0,1,.519-2.925,1.831,1.831,0,0,1,2.645.177,6.491,6.491,0,0,0,.42.513q.255.243-.042-.031.128.1.264.187c.09.058.183.113.277.163q-.365-.162-.047-.025c.2.069.4.144.6.2q.183.046.367.079-.341-.049.021-.007c.25.01.5.031.748.032.477,0,.956-.027,1.431-.068a4.029,4.029,0,0,0,.619-.068c-.554.138.128-.035.233-.06a5.846,5.846,0,0,0,.6-.173q.145-.051.287-.111-.372.186-.068.027c.143-.092.411-.189.51-.342q-.314.281-.063.036.11-.117.21-.245.215-.3-.008.019.206-.305.415-.607a3.544,3.544,0,0,1,.456-.53,1.9,1.9,0,0,1,2.849,0,2.5,2.5,0,0,1,0,3.206Z" transform="translate(-488.612 -903.584)" fill="#2d1b1b"/>
            </g>
          </g>
        </g>
        <g id="Grupo_1183135" data-name="Grupo 1183135" transform="translate(233.253)">
          <g id="Grupo_1183130" data-name="Grupo 1183130" transform="translate(0 0)">
            <g id="Grupo_1183127" data-name="Grupo 1183127" transform="translate(7.639 0.241)">
              <path id="Trazado_1044520" data-name="Trazado 1044520" d="M710.142,293.575c.918,3.768,1.595,7.894.109,11.614a1.48,1.48,0,0,1-1.765.993,1.43,1.43,0,0,1-1-1.748c1.306-3.271.7-6.786-.109-10.1a1.434,1.434,0,0,1,2.766-.756Z" transform="translate(-707.333 -292.535)" fill="#b72525"/>
            </g>
            <g id="Grupo_1183128" data-name="Grupo 1183128" transform="translate(6.999 11.007)">
              <path id="Trazado_1044521" data-name="Trazado 1044521" d="M695.2,332.179a13.249,13.249,0,0,1,3.347,1.85,5.208,5.208,0,0,1,2.08,3.314,2.155,2.155,0,0,1-1.134,2.151,3.4,3.4,0,0,1-2.393.075,8.26,8.26,0,0,1-3.342-1.694,5.846,5.846,0,0,1-1.3-1.565,2.534,2.534,0,0,1-.392-1.446,2.04,2.04,0,0,1,.973-1.617,1.446,1.446,0,0,1,2.107,1.605q-.06.227,0-.122,0,.233-.035-.117a.939.939,0,0,0,.031.128q.048.155-.067-.132c-.038-.01.3.349.074.154-.185-.159.088.084.123.118.064.062.133.116.2.176q.178.142-.081-.058l.16.119c.174.127.352.248.532.366a20.216,20.216,0,0,0,2.408,1.3l-2.107.85q-.007.29-.014.58l.369.627-.04-.046a1.441,1.441,0,0,1,0-2.01,1.462,1.462,0,0,1,2.029,0,1.692,1.692,0,0,1,.423,1.6,1.378,1.378,0,0,1-.83.921,1.48,1.48,0,0,1-1.277-.072,18.377,18.377,0,0,1-2.82-1.579,5.866,5.866,0,0,1-1.465-1.351,2.615,2.615,0,0,1-.377-2.211l2.107,1.605a.9.9,0,0,0,.439-.767c0,.048.008.173-.013-.031-.03-.283.095.139-.025-.1-.1-.2.055.088.089.144q.084.141.178.276a.973.973,0,0,1,.1.133c-.01-.022-.224-.269-.071-.1.063.072.125.144.191.213a5.169,5.169,0,0,0,.449.419,1.4,1.4,0,0,1,.128.1c-.017-.018-.284-.205-.092-.075.08.054.159.11.24.162a6.367,6.367,0,0,0,.579.329c.087.044.177.084.264.126.225.108-.29-.113.005,0q.313.121.636.214.281.081.568.141c.054.011.109.018.162.032.148.037-.187-.02-.178-.02.07,0,.48-.01.217.024l-.112.014q.165-.049-.024.022a1.5,1.5,0,0,0-.261.174c.16-.153-.079.107-.088.121s-.1.345-.067.145c0-.018-.016.348-.026.2,0-.048,0-.1,0-.148,0-.142.009.194.025.189a1.48,1.48,0,0,0-.05-.188c-.018-.057-.088-.224,0-.011s.032.073.009.031c-.054-.1-.1-.2-.163-.291s-.1-.164-.158-.243l-.072-.1c-.166-.235.16.185.047.06a11.806,11.806,0,0,0-.927-.889c-.008-.007.25.183.123.1-.058-.039-.114-.082-.172-.122q-.139-.1-.282-.187c-.2-.129-.413-.25-.626-.364s-.431-.222-.652-.324q-.155-.071-.312-.14c-.051-.022-.107-.042-.156-.067l.186.078-.157-.063a1.571,1.571,0,0,1-.857-.653,1.424,1.424,0,0,1,1.621-2.089Z" transform="translate(-692.059 -332.102)" fill="#b72525"/>
            </g>
            <g id="Grupo_1183129" data-name="Grupo 1183129">
              <path id="Trazado_1044522" data-name="Trazado 1044522" d="M721.77,294.063c-.075.062-.138.137-.212.2-.153.128.188-.249-.031.033a5.625,5.625,0,0,1-.483.586,3.773,3.773,0,0,1-1.034.719,7.175,7.175,0,0,1-2.538.584c-1.716.131-3.75-.037-4.905-1.484l2.253-1.722c.149.3.3.6.465.9.092.163.188.324.291.48.041.062.084.122.126.184.148.222-.1-.1.011.02s.216.248.336.362c.029.028.258.238.1.1-.136-.119.045.029.078.05.081.053.166.1.25.148.116.068.126.057,0,.009a4.821,4.821,0,0,0,.6.169c.146.033.124.015-.011,0,.1.008.208.018.312.022a4.917,4.917,0,0,0,.526-.007c.033,0,.191-.038.214-.02q-.278.039-.115.012l.106-.019a4.583,4.583,0,0,0,.47-.117c.086-.026.168-.06.254-.087.184-.059-.3.153,0,0,.141-.075.28-.148.414-.236.034-.022.212-.166.068-.043-.161.138.064-.063.094-.092.051-.048.1-.1.147-.149.244-.242-.162.239.038-.042a1.473,1.473,0,0,1,1.963-.51,1.431,1.431,0,0,1,.515,1.944,5.581,5.581,0,0,1-5.511,2.125,4.686,4.686,0,0,1-2.693-1.406,9.507,9.507,0,0,1-1.523-2.364,1.432,1.432,0,0,1,2.253-1.722,4.176,4.176,0,0,0,.3.322q.182.153-.03-.02.091.062.188.117c.065.037.13.071.2.1q-.259-.1-.033-.016c.143.044.282.09.428.123.087.019.174.036.261.05q-.243-.031.015,0c.178.006.354.02.533.02.34,0,.68-.017,1.019-.043a3.213,3.213,0,0,0,.44-.043c-.395.086.091-.022.166-.038.143-.03.285-.065.424-.108q.1-.032.2-.069-.265.117-.048.017c.1-.058.292-.118.363-.214q-.224.176-.044.023a2.118,2.118,0,0,0,.149-.153q.153-.185-.006.012.146-.191.3-.381a2.307,2.307,0,0,1,.325-.332,1.478,1.478,0,0,1,2.029,0,1.43,1.43,0,0,1,0,2.011Z" transform="translate(-712.164 -291.648)" fill="#b72525"/>
            </g>
          </g>
          <g id="Grupo_1183134" data-name="Grupo 1183134" transform="translate(0 0)">
            <g id="Grupo_1183131" data-name="Grupo 1183131" transform="translate(7.639 0.241)">
              <path id="Trazado_1044523" data-name="Trazado 1044523" d="M710.142,293.575c.918,3.768,1.595,7.894.109,11.614a1.48,1.48,0,0,1-1.765.993,1.43,1.43,0,0,1-1-1.748c1.306-3.271.7-6.786-.109-10.1a1.434,1.434,0,0,1,2.766-.756Z" transform="translate(-707.333 -292.535)" fill="#2d1b1b"/>
            </g>
            <g id="Grupo_1183132" data-name="Grupo 1183132" transform="translate(6.999 11.007)">
              <path id="Trazado_1044524" data-name="Trazado 1044524" d="M695.2,332.179a13.249,13.249,0,0,1,3.347,1.85,5.208,5.208,0,0,1,2.08,3.314,2.155,2.155,0,0,1-1.134,2.151,3.4,3.4,0,0,1-2.393.075,8.26,8.26,0,0,1-3.342-1.694,5.846,5.846,0,0,1-1.3-1.565,2.534,2.534,0,0,1-.392-1.446,2.04,2.04,0,0,1,.973-1.617,1.446,1.446,0,0,1,2.107,1.605q-.06.227,0-.122,0,.233-.035-.117a.939.939,0,0,0,.031.128q.048.155-.067-.132c-.038-.01.3.349.074.154-.185-.159.088.084.123.118.064.062.133.116.2.176q.178.142-.081-.058l.16.119c.174.127.352.248.532.366a20.216,20.216,0,0,0,2.408,1.3l-2.107.85q-.007.29-.014.58l.369.627-.04-.046a1.441,1.441,0,0,1,0-2.01,1.462,1.462,0,0,1,2.029,0,1.692,1.692,0,0,1,.423,1.6,1.378,1.378,0,0,1-.83.921,1.48,1.48,0,0,1-1.277-.072,18.377,18.377,0,0,1-2.82-1.579,5.866,5.866,0,0,1-1.465-1.351,2.615,2.615,0,0,1-.377-2.211l2.107,1.605a.9.9,0,0,0,.439-.767c0,.048.008.173-.013-.031-.03-.283.095.139-.025-.1-.1-.2.055.088.089.144q.084.141.178.276a.973.973,0,0,1,.1.133c-.01-.022-.224-.269-.071-.1.063.072.125.144.191.213a5.169,5.169,0,0,0,.449.419,1.4,1.4,0,0,1,.128.1c-.017-.018-.284-.205-.092-.075.08.054.159.11.24.162a6.367,6.367,0,0,0,.579.329c.087.044.177.084.264.126.225.108-.29-.113.005,0q.313.121.636.214.281.081.568.141c.054.011.109.018.162.032.148.037-.187-.02-.178-.02.07,0,.48-.01.217.024l-.112.014q.165-.049-.024.022a1.5,1.5,0,0,0-.261.174c.16-.153-.079.107-.088.121s-.1.345-.067.145c0-.018-.016.348-.026.2,0-.048,0-.1,0-.148,0-.142.009.194.025.189a1.48,1.48,0,0,0-.05-.188c-.018-.057-.088-.224,0-.011s.032.073.009.031c-.054-.1-.1-.2-.163-.291s-.1-.164-.158-.243l-.072-.1c-.166-.235.16.185.047.06a11.806,11.806,0,0,0-.927-.889c-.008-.007.25.183.123.1-.058-.039-.114-.082-.172-.122q-.139-.1-.282-.187c-.2-.129-.413-.25-.626-.364s-.431-.222-.652-.324q-.155-.071-.312-.14c-.051-.022-.107-.042-.156-.067l.186.078-.157-.063a1.571,1.571,0,0,1-.857-.653,1.424,1.424,0,0,1,1.621-2.089Z" transform="translate(-692.059 -332.102)" fill="#2d1b1b"/>
            </g>
            <g id="Grupo_1183133" data-name="Grupo 1183133">
              <path id="Trazado_1044525" data-name="Trazado 1044525" d="M721.77,294.063c-.075.062-.138.137-.212.2-.153.128.188-.249-.031.033a5.625,5.625,0,0,1-.483.586,3.773,3.773,0,0,1-1.034.719,7.175,7.175,0,0,1-2.538.584c-1.716.131-3.75-.037-4.905-1.484l2.253-1.722c.149.3.3.6.465.9.092.163.188.324.291.48.041.062.084.122.126.184.148.222-.1-.1.011.02s.216.248.336.362c.029.028.258.238.1.1-.136-.119.045.029.078.05.081.053.166.1.25.148.116.068.126.057,0,.009a4.821,4.821,0,0,0,.6.169c.146.033.124.015-.011,0,.1.008.208.018.312.022a4.917,4.917,0,0,0,.526-.007c.033,0,.191-.038.214-.02q-.278.039-.115.012l.106-.019a4.583,4.583,0,0,0,.47-.117c.086-.026.168-.06.254-.087.184-.059-.3.153,0,0,.141-.075.28-.148.414-.236.034-.022.212-.166.068-.043-.161.138.064-.063.094-.092.051-.048.1-.1.147-.149.244-.242-.162.239.038-.042a1.473,1.473,0,0,1,1.963-.51,1.431,1.431,0,0,1,.515,1.944,5.581,5.581,0,0,1-5.511,2.125,4.686,4.686,0,0,1-2.693-1.406,9.507,9.507,0,0,1-1.523-2.364,1.432,1.432,0,0,1,2.253-1.722,4.176,4.176,0,0,0,.3.322q.182.153-.03-.02.091.062.188.117c.065.037.13.071.2.1q-.259-.1-.033-.016c.143.044.282.09.428.123.087.019.174.036.261.05q-.243-.031.015,0c.178.006.354.02.533.02.34,0,.68-.017,1.019-.043a3.213,3.213,0,0,0,.44-.043c-.395.086.091-.022.166-.038.143-.03.285-.065.424-.108q.1-.032.2-.069-.265.117-.048.017c.1-.058.292-.118.363-.214q-.224.176-.044.023a2.118,2.118,0,0,0,.149-.153q.153-.185-.006.012.146-.191.3-.381a2.307,2.307,0,0,1,.325-.332,1.478,1.478,0,0,1,2.029,0,1.43,1.43,0,0,1,0,2.011Z" transform="translate(-712.164 -291.648)" fill="#2d1b1b"/>
            </g>
          </g>
        </g>
        <g id="Grupo_1183144" data-name="Grupo 1183144" transform="translate(0 159.568)">
          <g id="Grupo_1183139" data-name="Grupo 1183139" transform="translate(0 0)">
            <g id="Grupo_1183136" data-name="Grupo 1183136" transform="translate(7.637 0.241)">
              <path id="Trazado_1044526" data-name="Trazado 1044526" d="M1567.391,880.011c.918,3.768,1.594,7.894.109,11.614a1.48,1.48,0,0,1-1.765.992,1.429,1.429,0,0,1-1-1.748c1.306-3.271.7-6.786-.109-10.1a1.434,1.434,0,0,1,2.767-.756Z" transform="translate(-1564.582 -878.971)" fill="#b72525"/>
            </g>
            <g id="Grupo_1183137" data-name="Grupo 1183137" transform="translate(6.999 11.007)">
              <path id="Trazado_1044527" data-name="Trazado 1044527" d="M1552.446,918.615a13.257,13.257,0,0,1,3.347,1.85,5.21,5.21,0,0,1,2.08,3.315,2.155,2.155,0,0,1-1.134,2.151,3.4,3.4,0,0,1-2.393.075,8.258,8.258,0,0,1-3.342-1.694,5.842,5.842,0,0,1-1.3-1.564,2.534,2.534,0,0,1-.392-1.446,2.04,2.04,0,0,1,.973-1.617,1.446,1.446,0,0,1,2.107,1.605q-.06.227,0-.123,0,.233-.035-.117a.944.944,0,0,0,.031.128q.048.155-.067-.132c-.038-.01.3.349.075.154-.186-.159.088.084.123.117.064.061.133.117.2.176q.177.142-.082-.058l.16.119q.261.19.532.366a20.234,20.234,0,0,0,2.408,1.3l-2.107.849q-.007.29-.015.58l.369.627-.04-.046a1.441,1.441,0,0,1,0-2.01,1.462,1.462,0,0,1,2.028,0,1.692,1.692,0,0,1,.423,1.6,1.377,1.377,0,0,1-.83.921,1.481,1.481,0,0,1-1.277-.072,18.391,18.391,0,0,1-2.82-1.579,5.863,5.863,0,0,1-1.465-1.351,2.613,2.613,0,0,1-.377-2.21l2.107,1.605a.9.9,0,0,0,.439-.767c0,.048.008.173-.013-.031-.03-.283.094.139-.025-.1-.1-.2.055.088.088.145q.085.141.179.276a.973.973,0,0,1,.1.132c-.01-.022-.224-.269-.071-.1.063.072.125.144.191.213a5.2,5.2,0,0,0,.449.419,1.338,1.338,0,0,1,.128.1c-.016-.018-.284-.205-.092-.074.08.054.159.11.24.162a6.371,6.371,0,0,0,.579.329c.087.044.176.083.264.126.225.108-.29-.113.006,0q.313.121.636.214.281.081.568.141c.054.011.109.019.163.032.148.037-.187-.02-.178-.02.07,0,.48-.01.217.024l-.111.014c.11-.032.1-.025-.024.022a1.51,1.51,0,0,0-.261.174c.16-.153-.08.108-.088.121s-.1.345-.067.145c0-.018-.016.348-.026.2a1.464,1.464,0,0,1,0-.148c0-.142.009.194.025.189a1.544,1.544,0,0,0-.05-.188c-.019-.057-.088-.225,0-.011s.032.073.009.031c-.054-.1-.1-.2-.162-.291s-.1-.164-.158-.243l-.072-.1c-.166-.235.16.185.046.06a11.841,11.841,0,0,0-.927-.889c-.008-.007.25.183.123.1-.058-.039-.114-.082-.171-.122-.093-.064-.187-.127-.282-.187-.2-.129-.413-.25-.627-.364s-.431-.222-.652-.324q-.155-.071-.312-.139c-.051-.022-.107-.042-.156-.067l.186.078-.157-.063a1.572,1.572,0,0,1-.858-.653,1.424,1.424,0,0,1,1.621-2.088Z" transform="translate(-1549.304 -918.538)" fill="#b72525"/>
            </g>
            <g id="Grupo_1183138" data-name="Grupo 1183138">
              <path id="Trazado_1044528" data-name="Trazado 1044528" d="M1579.012,880.5c-.075.062-.138.137-.212.2-.153.128.187-.249-.031.033a5.636,5.636,0,0,1-.483.586,3.779,3.779,0,0,1-1.034.719,7.175,7.175,0,0,1-2.538.584c-1.716.131-3.75-.037-4.905-1.484l2.253-1.722c.149.3.3.6.465.9.092.163.188.324.291.48.041.062.084.123.126.184.148.222-.1-.1.012.02s.216.248.336.362c.029.028.259.238.1.1-.136-.119.045.029.077.05.081.053.167.1.25.148.116.068.126.057,0,.009a4.827,4.827,0,0,0,.6.169c.146.033.124.015-.011,0,.1.008.208.018.312.022a4.909,4.909,0,0,0,.526-.007c.034,0,.191-.038.214-.02q-.278.039-.115.013l.106-.019a4.55,4.55,0,0,0,.47-.117c.086-.026.168-.06.254-.087.184-.059-.3.153,0,0,.141-.075.28-.148.413-.236.034-.022.212-.166.068-.043-.161.138.064-.063.094-.092.051-.048.1-.1.147-.149.243-.242-.162.24.037-.042a1.473,1.473,0,0,1,1.963-.51,1.431,1.431,0,0,1,.515,1.944,5.581,5.581,0,0,1-5.511,2.125,4.686,4.686,0,0,1-2.693-1.406,9.5,9.5,0,0,1-1.523-2.364,1.432,1.432,0,0,1,2.253-1.722,4.183,4.183,0,0,0,.3.322q.182.153-.03-.02.092.062.188.117t.2.1q-.259-.1-.033-.016c.143.044.283.09.429.123.086.019.174.036.262.049q-.243-.031.015,0c.178.006.354.02.533.02.34,0,.68-.017,1.019-.043a3.207,3.207,0,0,0,.44-.043c-.395.086.091-.022.166-.038.143-.03.285-.065.424-.108.069-.021.137-.044.2-.069q-.265.117-.049.017c.1-.058.293-.118.363-.214q-.224.176-.044.023.078-.073.149-.153.153-.185-.006.012.146-.191.3-.381a2.314,2.314,0,0,1,.324-.332,1.478,1.478,0,0,1,2.029,0,1.429,1.429,0,0,1,0,2.01Z" transform="translate(-1569.407 -878.085)" fill="#b72525"/>
            </g>
          </g>
          <g id="Grupo_1183143" data-name="Grupo 1183143" transform="translate(0 0)">
            <g id="Grupo_1183140" data-name="Grupo 1183140" transform="translate(7.637 0.241)">
              <path id="Trazado_1044529" data-name="Trazado 1044529" d="M1567.391,880.011c.918,3.768,1.594,7.894.109,11.614a1.48,1.48,0,0,1-1.765.992,1.429,1.429,0,0,1-1-1.748c1.306-3.271.7-6.786-.109-10.1a1.434,1.434,0,0,1,2.767-.756Z" transform="translate(-1564.582 -878.971)" fill="#2d1b1b"/>
            </g>
            <g id="Grupo_1183141" data-name="Grupo 1183141" transform="translate(6.999 11.007)">
              <path id="Trazado_1044530" data-name="Trazado 1044530" d="M1552.446,918.615a13.257,13.257,0,0,1,3.347,1.85,5.21,5.21,0,0,1,2.08,3.315,2.155,2.155,0,0,1-1.134,2.151,3.4,3.4,0,0,1-2.393.075,8.258,8.258,0,0,1-3.342-1.694,5.842,5.842,0,0,1-1.3-1.564,2.534,2.534,0,0,1-.392-1.446,2.04,2.04,0,0,1,.973-1.617,1.446,1.446,0,0,1,2.107,1.605q-.06.227,0-.123,0,.233-.035-.117a.944.944,0,0,0,.031.128q.048.155-.067-.132c-.038-.01.3.349.075.154-.186-.159.088.084.123.117.064.061.133.117.2.176q.177.142-.082-.058l.16.119q.261.19.532.366a20.234,20.234,0,0,0,2.408,1.3l-2.107.849q-.007.29-.015.58l.369.627-.04-.046a1.441,1.441,0,0,1,0-2.01,1.462,1.462,0,0,1,2.028,0,1.692,1.692,0,0,1,.423,1.6,1.377,1.377,0,0,1-.83.921,1.481,1.481,0,0,1-1.277-.072,18.391,18.391,0,0,1-2.82-1.579,5.863,5.863,0,0,1-1.465-1.351,2.613,2.613,0,0,1-.377-2.21l2.107,1.605a.9.9,0,0,0,.439-.767c0,.048.008.173-.013-.031-.03-.283.094.139-.025-.1-.1-.2.055.088.088.145q.085.141.179.276a.973.973,0,0,1,.1.132c-.01-.022-.224-.269-.071-.1.063.072.125.144.191.213a5.2,5.2,0,0,0,.449.419,1.338,1.338,0,0,1,.128.1c-.016-.018-.284-.205-.092-.074.08.054.159.11.24.162a6.371,6.371,0,0,0,.579.329c.087.044.176.083.264.126.225.108-.29-.113.006,0q.313.121.636.214.281.081.568.141c.054.011.109.019.163.032.148.037-.187-.02-.178-.02.07,0,.48-.01.217.024l-.111.014c.11-.032.1-.025-.024.022a1.51,1.51,0,0,0-.261.174c.16-.153-.08.108-.088.121s-.1.345-.067.145c0-.018-.016.348-.026.2a1.464,1.464,0,0,1,0-.148c0-.142.009.194.025.189a1.544,1.544,0,0,0-.05-.188c-.019-.057-.088-.225,0-.011s.032.073.009.031c-.054-.1-.1-.2-.162-.291s-.1-.164-.158-.243l-.072-.1c-.166-.235.16.185.046.06a11.841,11.841,0,0,0-.927-.889c-.008-.007.25.183.123.1-.058-.039-.114-.082-.171-.122-.093-.064-.187-.127-.282-.187-.2-.129-.413-.25-.627-.364s-.431-.222-.652-.324q-.155-.071-.312-.139c-.051-.022-.107-.042-.156-.067l.186.078-.157-.063a1.572,1.572,0,0,1-.858-.653,1.424,1.424,0,0,1,1.621-2.088Z" transform="translate(-1549.304 -918.538)" fill="#2d1b1b"/>
            </g>
            <g id="Grupo_1183142" data-name="Grupo 1183142">
              <path id="Trazado_1044531" data-name="Trazado 1044531" d="M1579.012,880.5c-.075.062-.138.137-.212.2-.153.128.187-.249-.031.033a5.636,5.636,0,0,1-.483.586,3.779,3.779,0,0,1-1.034.719,7.175,7.175,0,0,1-2.538.584c-1.716.131-3.75-.037-4.905-1.484l2.253-1.722c.149.3.3.6.465.9.092.163.188.324.291.48.041.062.084.123.126.184.148.222-.1-.1.012.02s.216.248.336.362c.029.028.259.238.1.1-.136-.119.045.029.077.05.081.053.167.1.25.148.116.068.126.057,0,.009a4.827,4.827,0,0,0,.6.169c.146.033.124.015-.011,0,.1.008.208.018.312.022a4.909,4.909,0,0,0,.526-.007c.034,0,.191-.038.214-.02q-.278.039-.115.013l.106-.019a4.55,4.55,0,0,0,.47-.117c.086-.026.168-.06.254-.087.184-.059-.3.153,0,0,.141-.075.28-.148.413-.236.034-.022.212-.166.068-.043-.161.138.064-.063.094-.092.051-.048.1-.1.147-.149.243-.242-.162.24.037-.042a1.473,1.473,0,0,1,1.963-.51,1.431,1.431,0,0,1,.515,1.944,5.581,5.581,0,0,1-5.511,2.125,4.686,4.686,0,0,1-2.693-1.406,9.5,9.5,0,0,1-1.523-2.364,1.432,1.432,0,0,1,2.253-1.722,4.183,4.183,0,0,0,.3.322q.182.153-.03-.02.092.062.188.117t.2.1q-.259-.1-.033-.016c.143.044.283.09.429.123.086.019.174.036.262.049q-.243-.031.015,0c.178.006.354.02.533.02.34,0,.68-.017,1.019-.043a3.207,3.207,0,0,0,.44-.043c-.395.086.091-.022.166-.038.143-.03.285-.065.424-.108.069-.021.137-.044.2-.069q-.265.117-.049.017c.1-.058.293-.118.363-.214q-.224.176-.044.023.078-.073.149-.153.153-.185-.006.012.146-.191.3-.381a2.314,2.314,0,0,1,.324-.332,1.478,1.478,0,0,1,2.029,0,1.429,1.429,0,0,1,0,2.01Z" transform="translate(-1569.407 -878.085)" fill="#2d1b1b"/>
            </g>
          </g>
        </g>
        <path id="Trazado_1044532" data-name="Trazado 1044532" d="M926.168,520.708s7.565,8.325,7.565,16.651-1.261,12.488,2.522,20.813-.763,31.091-23.707,33.584-39.335-3.058-49.422-11.383-10.927-33.3-7.355-41.626,16.181-31.914,35.093-30.526S919.865,513.77,926.168,520.708Z" transform="translate(-732.632 -449.249)" fill="#f9b1a0"/>
        <g id="Grupo_1183145" data-name="Grupo 1183145" transform="translate(172.453 108.923)" opacity="0.53">
          <path id="Trazado_1044533" data-name="Trazado 1044533" d="M949.609,691.957c-1.855,2.559.331,4.472,2.725,4.5.487.052,1.505.02,1.844.364a1.442,1.442,0,0,1-.239.58,10.435,10.435,0,0,1-4.33,3.575,5.809,5.809,0,0,0,3.728-1.305c1.238-.739,3.265-3.165,1.155-4.249-2.227-.728-5.948.647-4.882-3.465Z" transform="translate(-948.914 -691.957)" fill="#a4281a"/>
        </g>
        <path id="Trazado_1044534" data-name="Trazado 1044534" d="M950.875,532.71A19.852,19.852,0,0,0,947.329,536a10.391,10.391,0,0,0-2.583,5.179c-.269,1.978.451,4.216,2.06,5.147a2.983,2.983,0,0,0,4.33-1.984,4,4,0,0,1-.552,4.556,5.727,5.727,0,0,1-4.131,1.738c-4.183.171-8.273-2.769-10.016-6.957a14.58,14.58,0,0,1,1.273-13.12,9.578,9.578,0,0,1,3.861-3.573,5.54,5.54,0,0,1,4.954.034c2.077,1.135,3.192,3.678,3.773,6.148" transform="translate(-769.007 -462.541)" fill="#632a26"/>
        <path id="Trazado_1044535" data-name="Trazado 1044535" d="M1123.7,1487.661a78.09,78.09,0,0,1,6.817,10.6c.567,1.059,1.049,2.582.19,3.367a2.048,2.048,0,0,1-1.3.426,17.033,17.033,0,0,1-7.5-1.748,75.95,75.95,0,0,1-12.331-6.594c-1.2-.789-2.506-1.842-2.591-3.375a4.953,4.953,0,0,1,.642-2.359,36.935,36.935,0,0,1,4.5-7.185c4.511,1.181,9.468,2.7,11.962,7" transform="translate(-995.234 -1157.233)" fill="#421717"/>
        <path id="Trazado_1044536" data-name="Trazado 1044536" d="M842.837,1393.518a20.253,20.253,0,0,0,3.887-.312,15.755,15.755,0,0,1,12.03,4.17,2.152,2.152,0,0,1,.766,1.113,2.309,2.309,0,0,1-1.095,2.137,13.548,13.548,0,0,1-7.457,2.777,19.738,19.738,0,0,1-7.778-1.21,4.186,4.186,0,0,1-2.885-2.38,4.974,4.974,0,0,1,1.006-4.319,8.849,8.849,0,0,1,1.832-1.866" transform="translate(-651.005 -1093.423)" fill="#421717"/>
        <path id="Trazado_1044537" data-name="Trazado 1044537" d="M886.279,613.879a17.393,17.393,0,0,0-8.959-3.113,5.934,5.934,0,0,0-3.536.5,1.959,1.959,0,0,0-1.082,1.965,2.259,2.259,0,0,0,.757,1.111,15.857,15.857,0,0,0,11.005,3.874,4.19,4.19,0,0,0,1.854-.324,1.929,1.929,0,0,0,1.1-1.563c.035-.693-.526-1.406-1.15-1.307" transform="translate(-687.73 -523.894)" fill="#632a26"/>
        <path id="Trazado_1044538" data-name="Trazado 1044538" d="M1033.644,616.052a5.391,5.391,0,0,1,2.859-2,20.183,20.183,0,0,1,5.346-1.612,6.814,6.814,0,0,1,5.261,1.448,1.587,1.587,0,0,1,.489.642c.283.8-.495,1.554-1.189,1.953a16.961,16.961,0,0,1-10.654,2.134A2.2,2.2,0,0,1,1034.3,618c-.363-.426-.356-1.256.131-1.487" transform="translate(-891.767 -525.115)" fill="#632a26"/>
        <g id="Grupo_1183146" data-name="Grupo 1183146" transform="translate(163.277 122.798)" opacity="0.53">
          <path id="Trazado_1044539" data-name="Trazado 1044539" d="M982.7,746.743c-3.33.432-6.319-1.648-8.9-3.791,1.127,3.555,5.922,6.311,8.9,3.791Z" transform="translate(-973.808 -742.952)" fill="#a4281a"/>
        </g>
        <path id="Trazado_1044540" data-name="Trazado 1044540" d="M892.088,666.46a8.324,8.324,0,0,1-3.285,3.722,10.938,10.938,0,0,1-4.075,1.281c-2.817.411-5.633-.4-9.031-2.228a8.716,8.716,0,0,0,3.533,4.956,8.535,8.535,0,0,0,5.938,1.4,9.218,9.218,0,0,0,2.953-.9,7.692,7.692,0,0,0,2.576-2A6.632,6.632,0,0,0,892.088,666.46Z" transform="translate(-693.507 -564.475)" fill="#491d1d"/>
        <path id="Trazado_1044541" data-name="Trazado 1044541" d="M1034.938,675.954a7.859,7.859,0,0,1-3.918,2.885,10.7,10.7,0,0,1-4.229.317c-2.833-.246-5.434-1.681-8.409-4.255a9.161,9.161,0,0,0,2.514,5.659,8.853,8.853,0,0,0,5.541,2.739,9.024,9.024,0,0,0,3.059-.2,7.3,7.3,0,0,0,2.9-1.368A6.421,6.421,0,0,0,1034.938,675.954Z" transform="translate(-874.945 -570.618)" fill="#491d1d"/>
        <path id="Trazado_1044542" data-name="Trazado 1044542" d="M908.913,404.274c-.6-9.061-11.3-12.631-17.279-7.288a15.668,15.668,0,0,1,5.151-1.28,11.828,11.828,0,0,1,12.128,8.569Z" transform="translate(-714.381 -366.502)" fill="#632a26"/>
        <path id="Trazado_1044543" data-name="Trazado 1044543" d="M1095.493,383.786c-9.453-7.814-23.677-3.353-29.674,7.329-.858,1.489-1.648,3.005-2.369,4.566a46.508,46.508,0,0,1,6.078-7.907c6.942-6.981,17.559-8.971,25.964-3.988Z" transform="translate(-947.711 -355.838)" fill="#632a26"/>
        <path id="Trazado_1044544" data-name="Trazado 1044544" d="M1329.476,676.8A24.535,24.535,0,0,0,1314,667.331c-8.7-1.72-11.778,3.9-8.461,12.432l.972-.74c-2.682-2.82-6.493-5.358-10.389-4.083-4.066,1.239-5.482,6.691-4.285,10.7a23.964,23.964,0,0,0,15.737,15.87,24.754,24.754,0,0,1-14.734-16.169c-1.653-6.318,2.865-11.51,8.537-8.6,2.28,1.088,4.384,3.341,6.252,5.193-1.152-3.5-3.471-7.985-1.5-11.517,1.682-2.581,5.106-2.406,7.751-2.1a25.375,25.375,0,0,1,15.589,8.493Z" transform="translate(-1243.727 -564.883)" fill="#632a26"/>
        <path id="Trazado_1044545" data-name="Trazado 1044545" d="M600.895,696.372c4.841-2.075,11.573-2.353,14.543,3.095,1.7,2.768.066,5.741,1.2,8.817a3.3,3.3,0,0,0,4.112,2c2.028-.538,4.053-1.2,6.028-1.815,1-.237,2.523-1.113,3.261-.26,4.075,9.441-3.373,20.074-12.854,18.536,9.483,2.509,17.739-8.119,14.307-18.128-.67-2.871-3.163-2.1-5.049-1.454l-1.995.6c-1.847.418-3.831,1.684-5.655,1.214-1.817-.927-1.48-3.355-1.409-5.422.347-5.017-4.174-8.973-8.4-9.145a15.658,15.658,0,0,0-8.09,1.963Z" transform="translate(-358.639 -584.8)" fill="#632a26"/>
        <path id="Trazado_1044546" data-name="Trazado 1044546" d="M633.548,888.54c3.5,7.825,3.032,11.995-2.479,18.321a12.567,12.567,0,0,1-5.282,3.568c5.456-.5,10.084-6.165,11.137-11.911.413-3.728-1.475-7.164-3.376-9.978Z" transform="translate(-370.112 -726.127)" fill="#632a26"/>
        <path id="Trazado_1044547" data-name="Trazado 1044547" d="M998.094,801.784c-.625,2.03-1.886,8.967,2.527,13.824,0,0-5.357,11.874-14.971.733a37.63,37.63,0,0,0,.472-13.915Z" transform="translate(-831.671 -662.978)" fill="#f9b1a0"/>
        <path id="Trazado_1044548" data-name="Trazado 1044548" d="M940.913,516.862c.432,1.9,4.343,8.325-5.394,6.938s-12.258-12.488-12.258-12.488-2.382,6.938-8.756,0-5.114-11.1-5.114-11.1,0,12.488-10.087,15.263-13.869-1.387-13.869-1.387,2.1,5.915-3.993,9.9-9.246,0-9.246,0,3.128,19.506-15.773,20.068-8.813-32.739-10.075-31.351,32.782-23.589,49.173-24.976S937.131,500.211,940.913,516.862Z" transform="translate(-734.768 -434.303)" fill="#632a26"/>
        <path id="Trazado_1044549" data-name="Trazado 1044549" d="M816.049,683.7c-1.259.081-7.285,6.938-17.021-.694-13.2-10.345-16.391-18.038-23.956-30.526s-13.869-31.914-27.739-31.914-17.875,8.937-13.869,16.651c5.043,9.713,7.565,9.713,11.348,15.263s44.13,52.727,44.13,52.727-13.714,37.926-14.422,39.083,33.335,12.257,54.769,5.319c12.877-4.168,18.018-5.331,20.07-5.6a.957.957,0,0,0,.642-1.4l-19.451-38.8s59.259-48.564,54.216-62.44-5.043-19.426-12.608-18.038S826.766,683,816.049,683.7Z" transform="translate(-647.099 -531.068)" fill="#fceadb"/>
        <path id="Trazado_1044550" data-name="Trazado 1044550" d="M1243.671,784.687a9.688,9.688,0,0,0-13.641,1.738,5.69,5.69,0,0,0-1.431,3.968c.726,4.244,5.078,6.7,8.544,7.712,0,0,.081-1.178.081-1.178-3.045.233-6.311.882-8.881,3.141-4.233,3.618-4.217,11.465,1.578,13.079,4.665,1.549,9.249-1.7,13.567-2.526l-.413-1.068c-2.845,2.292-6.518,6.111-5.144,10.528a7.488,7.488,0,0,0,9.614,4.645,16.1,16.1,0,0,0,6.319-4.2,16.564,16.564,0,0,1-6.421,3.77c-4.392,1.568-10.627-2.691-8.531-8.143,1.189-3.026,4.188-5.047,6.544-7.092l-2.14.378c-5.306.965-12.322,5.953-16.217-.21-1.332-2.692-.1-6.308,1.985-8.161,2.228-2.013,5.261-2.7,8.218-2.951l3.582-.3-3.5-.876c-3.122-.907-7.16-2.895-7.981-6.641a4.865,4.865,0,0,1,1.169-3.383,9.535,9.535,0,0,1,13.1-2.229Z" transform="translate(-1150.135 -649.03)" fill="#4c1918"/>
        <path id="Trazado_1044551" data-name="Trazado 1044551" d="M708.383,807.81a25.618,25.618,0,0,1,12.529,4.258,7.052,7.052,0,0,1,2.84,3.248c1.007,3.622-3.314,3.745-5.6,3.206a49.95,49.95,0,0,1-9.97-2.662,34.568,34.568,0,0,1,2.762,7.445c.426,2.047.964,4.344.186,5.963-.709,1.637-2.976.31-4.335-.892a9.515,9.515,0,0,1-2.881-5.2l-.765.433c.856.887.56,2.653-.333,3.638-2.1,2.234-5.519-.078-6.559-2.615a10.844,10.844,0,0,1-.967-4.534,10.445,10.445,0,0,0,.691,4.679c1.027,2.97,4.837,5.621,7.357,3.05,1.168-1.232,1.67-3.465.455-4.907l-1.014-1.182a11.5,11.5,0,0,0,3.319,7.551c1.288,1.075,2.8,2.293,4.547,1.906,4.306-1.746.8-11.383-.7-14.506l-.727.959c3.49.943,13.4,4.627,15.374.094,2.112-6.914-11.825-10.329-16.211-9.93Z" transform="translate(-476.845 -667.341)" fill="#4c1918"/>
        <path id="Trazado_1044552" data-name="Trazado 1044552" d="M767.429,1032.17c-3.539,7.828-14.7,8.033-21.178,4.745a13.88,13.88,0,0,0,5.563,2.88c5.631,1.452,14.206-.51,15.615-7.626Z" transform="translate(-533.339 -830.675)" fill="#632a26"/>
        <path id="Trazado_1044553" data-name="Trazado 1044553" d="M1192.907,1054.487c-1.714,12.033-15.444,16.77-21.822,6.088-2.1-3.724-1.521-8.634-1.157-12.929-2.161,3.44-4.547,7.012-7.743,9.273-3.694,2.77-9.032,3.395-12.691.281-3.75-3.01-3.363-10.639,1.2-12.515-3.248.98-4.706,5.138-4.148,8.57.918,5.706,7.107,8.065,11.762,6.829,4.819-1.222,8.513-5.347,11.3-9.568l-1.127-.462a29.735,29.735,0,0,0-.03,5.682c.4,5.915,4.979,10.854,10.22,11.684,7.028,1.382,13.825-5.344,14.238-12.933Z" transform="translate(-1067.704 -839.785)" fill="#632a26"/>
        <path id="Trazado_1044554" data-name="Trazado 1044554" d="M947.15,487.634c3.41,2.561,5.337,6.626,6.594,10.813,1.613,4.37-.808,8.459-3.795,11.318,2.731-1.582,5.343-4.53,5.5-8.183-.222-5.612-3.453-11.821-8.3-13.948Z" transform="translate(-776.022 -434.307)" fill="#4c1918"/>
        <path id="Trazado_1044555" data-name="Trazado 1044555" d="M952.893,545.876c-2.912,5.317-3.157,14.356,2.8,17.292,2.365,1.576,5.326.79,7.775,1.643-1.846-1.178-4.118-1.188-5.942-1.932-6.392-2.668-6.278-10.826-4.635-17Z" transform="translate(-785.063 -476.702)" fill="#4c1918"/>
        <path id="Trazado_1044556" data-name="Trazado 1044556" d="M1071.7,551.106c5.422,6.3,3.085,17.044-4.447,19.647-3.65,1.294-4.71-.407-5.994-3.957a6.549,6.549,0,0,1-.426-4.353l-1.131-.292c-.244,3.271,1.381,6.9-1.284,8.946-2.584,1.215-5.975-.453-7.567-2.9a7.267,7.267,0,0,1-.683-6.278,7.373,7.373,0,0,0,.256,6.58c1.922,3.955,9.25,6.257,10.452.556.549-2.454-.218-4.743-.005-6.782l.511-4.9-1.643,4.607c-.907,2.782.3,5.3,1.341,7.652,2.016,4.867,7.881,2.51,10.6-.324,4.862-4.611,4.856-13.654.024-18.2Z" transform="translate(-923.752 -480.508)" fill="#4c1918"/>
        <path id="Trazado_1044557" data-name="Trazado 1044557" d="M845.917,549.632c4.158,3.125,7.133,8.8,6.568,14.329-.262,2.738-2.473,4.516-4.9,4-2.332-.394-4.14-2.663-5.058-5.16l-1.068.554c.618.993,1.1,2.925-.352,2.811-4.282-1.483-5.607-7.432-7.918-11.219.573,1.546,1.189,3.077,1.8,4.617,1.247,3.1,2.649,6.626,5.941,7.731,1,.349,2.181-.67,2.242-1.805a4.883,4.883,0,0,0-.671-2.757l-1.068.555c.992,2.827,3.065,5.559,5.963,6.031,5.33.876,7.252-4.917,5.8-9.674a15.884,15.884,0,0,0-7.273-10.013Z" transform="translate(-643.226 -479.435)" fill="#4c1918"/>
        <path id="Trazado_1044558" data-name="Trazado 1044558" d="M975.843,906.117c.631-.08.928-.881,1.1-1.555a8.228,8.228,0,0,0,.327-3.934c-.32-1.287-1.542-2.4-2.7-2a3.264,3.264,0,0,0-1.613,1.841,17.22,17.22,0,0,0-1.6,6.423,7.417,7.417,0,0,0-6.711-4.073c-1.712.078-3.7,1.351-3.514,3.226a4.06,4.06,0,0,0,2.13,2.765,22.824,22.824,0,0,0,6.128,2.828,10.1,10.1,0,0,0-5.872,7,4.305,4.305,0,0,0,.126,2.952c.86,1.658,3.111,1.593,4.664.742,2.792-1.531,4.523-4.647,6.106-7.606.571,3.584,3.757,5.932,6.879,7.131a5.043,5.043,0,0,0,2.992.425,2.383,2.383,0,0,0,1.82-2.347,3.509,3.509,0,0,0-.766-1.717,20.571,20.571,0,0,0-7.151-6.3,5.33,5.33,0,0,0,6.393-2.13,3.28,3.28,0,0,0,.577-1.556,3.55,3.55,0,0,0-1.6-2.829,6.041,6.041,0,0,0-3.849-1.417,4.077,4.077,0,0,0-3.453,2.122" transform="translate(-810.484 -733.41)" fill="#ff527f" opacity="0.54"/>
        <path id="Trazado_1044559" data-name="Trazado 1044559" d="M1002.6,814l-11.264-1.25s5.669,11.365,12.891,8.674A21.616,21.616,0,0,1,1002.6,814Z" transform="translate(-836.826 -670.963)" fill="#a4281a" opacity="0.31"/>
        <ellipse id="Elipse_12514" data-name="Elipse 12514" cx="92.672" cy="11.794" rx="92.672" ry="11.794" transform="translate(66.823 352.439)" fill="#c6c0d6" opacity="0.67"/>
      </g>
    </g>
  </g>
</svg>
