<svg xmlns="http://www.w3.org/2000/svg" xmlns:xlink="http://www.w3.org/1999/xlink" width="93.934" height="93.934" viewBox="0 0 93.934 93.934">
  <defs>
    <filter id="Trazado_982547" x="0" y="0" width="93.934" height="93.934" filterUnits="userSpaceOnUse">
      <feOffset dy="3" input="SourceAlpha"/>
      <feGaussianBlur stdDeviation="3" result="blur"/>
      <feFlood flood-opacity="0.161"/>
      <feComposite operator="in" in2="blur"/>
      <feComposite in="SourceGraphic"/>
    </filter>
  </defs>
  <g id="Grupo_1183190" data-name="Grupo 1183190" transform="translate(-611.066 -6850)">
    <g id="Grupo_1179611" data-name="Grupo 1179611" transform="translate(428 4723.467)">
      <g id="Grupo_1175227" data-name="Grupo 1175227" transform="translate(-5.967 140.533)">
        <g id="Grupo_1167337" data-name="Grupo 1167337" transform="translate(198.033 1992)">
          <g id="Grupo_1166720" data-name="Grupo 1166720">
            <g id="Grupo_1164305" data-name="Grupo 1164305">
              <g id="Grupo_1163948" data-name="Grupo 1163948">
                <g id="Grupo_1158168" data-name="Grupo 1158168">
                  <g id="Grupo_1152576" data-name="Grupo 1152576">
                    <g id="Grupo_1148633" data-name="Grupo 1148633">
                      <g id="Grupo_1148525" data-name="Grupo 1148525">
                        <g transform="matrix(1, 0, 0, 1, -9, -6)" filter="url(#Trazado_982547)">
                          <g id="Trazado_982547-2" data-name="Trazado 982547" transform="translate(9 6)" fill="#fdfbec">
                            <path d="M 37.966796875 74.43359375 C 33.04315185546875 74.43359375 28.26757431030273 73.46962738037109 23.77274131774902 71.56847381591797 C 19.43047523498535 69.73184967041016 15.53040790557861 67.10224914550781 12.18087482452393 63.75271987915039 C 8.831341743469238 60.4031867980957 6.201741218566895 56.50312042236328 4.365118980407715 52.16086196899414 C 2.463963508605957 47.66601943969727 1.499996900558472 42.89044189453125 1.499996900558472 37.966796875 C 1.499996900558472 33.04315185546875 2.463963508605957 28.26757431030273 4.365118980407715 23.77274131774902 C 6.201741218566895 19.43047523498535 8.831341743469238 15.53040790557861 12.18087482452393 12.18087482452393 C 15.53040790557861 8.831341743469238 19.43047523498535 6.201741218566895 23.77274131774902 4.365118980407715 C 28.26757431030273 2.463963508605957 33.04315185546875 1.499996900558472 37.966796875 1.499996900558472 C 42.89044189453125 1.499996900558472 47.66601943969727 2.463963508605957 52.16086196899414 4.365118980407715 C 56.50312042236328 6.201741218566895 60.4031867980957 8.831341743469238 63.75271987915039 12.18087482452393 C 67.10224914550781 15.53040790557861 69.73184967041016 19.43047523498535 71.56847381591797 23.77274131774902 C 73.46962738037109 28.26757431030273 74.43359375 33.04315185546875 74.43359375 37.966796875 C 74.43359375 42.89044189453125 73.46962738037109 47.66601943969727 71.56847381591797 52.16086196899414 C 69.73184967041016 56.50313186645508 67.10224914550781 60.4031867980957 63.75271987915039 63.75271987915039 C 60.4031867980957 67.10224914550781 56.50313186645508 69.73184967041016 52.16086196899414 71.56847381591797 C 47.66601943969727 73.46962738037109 42.89044189453125 74.43359375 37.966796875 74.43359375 Z" stroke="none"/>
                            <path d="M 37.966796875 3 C 33.2449836730957 3 28.66600799560547 3.924095153808594 24.35705947875977 5.746635437011719 C 20.19359588623047 7.507637023925781 16.45379638671875 10.02928161621094 13.24153518676758 13.24153518676758 C 10.02927398681641 16.45379638671875 7.507621765136719 20.19359588623047 5.746635437011719 24.35705947875977 C 3.924095153808594 28.66600799560547 3 33.2449836730957 3 37.966796875 C 3 42.6886100769043 3.924095153808594 47.26758575439453 5.746635437011719 51.57653427124023 C 7.507621765136719 55.73999786376953 10.02927398681641 59.47979736328125 13.24153518676758 62.69205856323242 C 16.45379638671875 65.90431976318359 20.19359588623047 68.42597198486328 24.35705947875977 70.18695831298828 C 28.66600799560547 72.00949859619141 33.2449836730957 72.93359375 37.966796875 72.93359375 C 42.6886100769043 72.93359375 47.26758575439453 72.00949859619141 51.57653427124023 70.18695831298828 C 55.73999786376953 68.42597198486328 59.47979736328125 65.90431976318359 62.69205856323242 62.69205856323242 C 65.90431976318359 59.47979736328125 68.42597198486328 55.73999786376953 70.18695831298828 51.57653427124023 C 72.00949859619141 47.26758575439453 72.93359375 42.6886100769043 72.93359375 37.966796875 C 72.93359375 33.2449836730957 72.00949859619141 28.66600799560547 70.18695831298828 24.35705947875977 C 68.42597198486328 20.19359588623047 65.90431976318359 16.45379638671875 62.69205856323242 13.24153518676758 C 59.47979736328125 10.02928161621094 55.73999786376953 7.507637023925781 51.57653427124023 5.746635437011719 C 47.26758575439453 3.924095153808594 42.6886100769043 3 37.966796875 3 M 37.966796875 0 C 58.93528366088867 0 75.93359375 16.99832153320312 75.93359375 37.966796875 C 75.93359375 58.93528366088867 58.93528366088867 75.93359375 37.966796875 75.93359375 C 16.99831008911133 75.93359375 0 58.93528366088867 0 37.966796875 C 0 16.99832153320312 16.99831008911133 0 37.966796875 0 Z" stroke="none" fill="#84792b"/>
                          </g>
                        </g>
                      </g>
                    </g>
                  </g>
                </g>
              </g>
            </g>
          </g>
        </g>
      </g>
    </g>
    <g id="inteligencia_1_" data-name="inteligencia (1)" transform="translate(630.452 6866.693)">
      <g id="Grupo_1183188" data-name="Grupo 1183188" transform="translate(0.799 0.799)">
        <path id="Trazado_1044604" data-name="Trazado 1044604" d="M60.45,31.564v4.821a2.659,2.659,0,0,1-2.659,2.659h-.013A24.184,24.184,0,0,1,54.39,47.22l.01.01a2.66,2.66,0,0,1,0,3.761L50.991,54.4a2.66,2.66,0,0,1-3.761,0l-.01-.01a24.185,24.185,0,0,1-8.175,3.388v.013a2.659,2.659,0,0,1-2.659,2.659H31.564a2.659,2.659,0,0,1-2.659-2.659v-.013A24.184,24.184,0,0,1,20.73,54.39l-.01.01a2.66,2.66,0,0,1-3.761,0L13.55,50.991a2.66,2.66,0,0,1,0-3.761l.01-.01a24.185,24.185,0,0,1-3.388-8.175h-.013A2.659,2.659,0,0,1,7.5,36.386V31.564a2.659,2.659,0,0,1,2.659-2.659h.013A24.184,24.184,0,0,1,13.56,20.73l-.01-.01a2.66,2.66,0,0,1,0-3.761l3.409-3.409a2.66,2.66,0,0,1,3.761,0l.01.01a24.185,24.185,0,0,1,8.175-3.388v-.013A2.659,2.659,0,0,1,31.564,7.5h4.821a2.659,2.659,0,0,1,2.659,2.659v.013A24.184,24.184,0,0,1,47.22,13.56l.01-.01a2.66,2.66,0,0,1,3.761,0L54.4,16.959a2.66,2.66,0,0,1,0,3.761l-.01.01a24.185,24.185,0,0,1,3.388,8.175h.013A2.659,2.659,0,0,1,60.45,31.564Z" transform="translate(-7.5 -7.5)" fill="#93ecdd"/>
        <path id="Trazado_1044605" data-name="Trazado 1044605" d="M270.237,31.564v4.821a2.659,2.659,0,0,1-2.659,2.659h-.013a24.184,24.184,0,0,1-3.388,8.175l.01.01a2.66,2.66,0,0,1,0,3.761L260.779,54.4a2.66,2.66,0,0,1-3.761,0l-.01-.01a24.185,24.185,0,0,1-8.175,3.388v.013a2.659,2.659,0,0,1-2.659,2.659H242.3a2.685,2.685,0,0,0,2.52-2.68V56.393a22.57,22.57,0,0,0,0-44.836V10.18A2.685,2.685,0,0,0,242.3,7.5h3.87a2.659,2.659,0,0,1,2.659,2.659v.013a24.184,24.184,0,0,1,8.175,3.388l.01-.01a2.66,2.66,0,0,1,3.761,0l3.409,3.409a2.66,2.66,0,0,1,0,3.761l-.01.01a24.185,24.185,0,0,1,3.388,8.175h.013a2.659,2.659,0,0,1,2.659,2.659Z" transform="translate(-217.287 -7.5)" fill="#00ddc4"/>
        <circle id="Elipse_12522" data-name="Elipse 12522" cx="20" cy="20" r="20" transform="translate(6.21 6.276)" fill="#fff"/>
        <g id="Grupo_1183186" data-name="Grupo 1183186" transform="translate(11.829 12.956)">
          <g id="Grupo_1183185" data-name="Grupo 1183185">
            <path id="Trazado_1044606" data-name="Trazado 1044606" d="M133.178,151.394a4.493,4.493,0,0,1-4.18,4.75,4.2,4.2,0,0,1-3.833-2.854,3.71,3.71,0,0,1-.91.114,4.493,4.493,0,0,1-4.18-4.75,5.256,5.256,0,0,1,.457-2.159,4.914,4.914,0,0,1-2-4.052,5.021,5.021,0,0,1,1.489-3.634,5.239,5.239,0,0,1-.525-2.3,4.493,4.493,0,0,1,4.18-4.75,3.728,3.728,0,0,1,1.453.3A4.218,4.218,0,0,1,129,129.106a4.493,4.493,0,0,1,4.18,4.75,4.493,4.493,0,0,1,4.18-4.75,4.218,4.218,0,0,1,3.867,2.944,3.728,3.728,0,0,1,1.453-.3,4.493,4.493,0,0,1,4.18,4.75,5.239,5.239,0,0,1-.525,2.3,5.02,5.02,0,0,1,1.489,3.634,4.914,4.914,0,0,1-2,4.052,5.256,5.256,0,0,1,.457,2.159,4.493,4.493,0,0,1-4.18,4.75,3.71,3.71,0,0,1-.91-.114,4.2,4.2,0,0,1-3.833,2.854,4.493,4.493,0,0,1-4.18-4.75Z" transform="translate(-118.532 -129.106)" fill="#ffa1ac"/>
          </g>
        </g>
        <g id="Grupo_1183187" data-name="Grupo 1183187" transform="translate(14.872 23.954)">
          <ellipse id="Elipse_12523" data-name="Elipse 12523" cx="3.127" cy="2.491" rx="3.127" ry="2.491" fill="#fff"/>
          <ellipse id="Elipse_12524" data-name="Elipse 12524" cx="3.127" cy="2.491" rx="3.127" ry="2.491" transform="translate(16.952)" fill="#fff"/>
        </g>
      </g>
      <g id="Grupo_1183189" data-name="Grupo 1183189" transform="translate(0 0)">
        <path id="Trazado_1044607" data-name="Trazado 1044607" d="M51.73,21.465a24.893,24.893,0,0,0-3.056-7.374,3.464,3.464,0,0,0-.409-4.4L44.855,6.284a3.464,3.464,0,0,0-4.4-.409,24.888,24.888,0,0,0-7.374-3.056A3.464,3.464,0,0,0,29.684,0H24.864a3.464,3.464,0,0,0-3.4,2.818,24.888,24.888,0,0,0-7.374,3.056,3.464,3.464,0,0,0-4.4.409L6.284,9.693a3.461,3.461,0,0,0-.41,4.4,24.89,24.89,0,0,0-3.056,7.373A3.464,3.464,0,0,0,0,24.864v4.821a3.464,3.464,0,0,0,2.818,3.4,24.891,24.891,0,0,0,3.056,7.373,3.461,3.461,0,0,0,.41,4.4l3.409,3.409a3.464,3.464,0,0,0,4.4.409,24.888,24.888,0,0,0,7.374,3.056,3.464,3.464,0,0,0,3.4,2.818h4.821a3.464,3.464,0,0,0,3.4-2.818c.565-.134,1.128-.288,1.679-.46a.8.8,0,1,0-.476-1.526c-.69.215-1.4.4-2.109.551a.8.8,0,0,0-.633.782v.013a1.862,1.862,0,0,1-1.86,1.86H24.864A1.862,1.862,0,0,1,23,51.089v-.013a.8.8,0,0,0-.633-.782,23.32,23.32,0,0,1-7.905-3.277.8.8,0,0,0-1,.1l-.011.011a1.862,1.862,0,0,1-2.631,0L7.414,43.725a1.86,1.86,0,0,1,0-2.634l.01-.011a.8.8,0,0,0,.1-1,23.322,23.322,0,0,1-3.276-7.905.8.8,0,0,0-.782-.633H3.459a1.862,1.862,0,0,1-1.86-1.86V24.863A1.862,1.862,0,0,1,3.459,23h.013a.8.8,0,0,0,.782-.633A23.322,23.322,0,0,1,7.53,14.464a.8.8,0,0,0-.1-1l-.013-.013a1.86,1.86,0,0,1,0-2.631l3.409-3.409a1.862,1.862,0,0,1,2.631,0l.011.011a.8.8,0,0,0,1,.1A23.322,23.322,0,0,1,22.37,4.253.8.8,0,0,0,23,3.471V3.458a1.862,1.862,0,0,1,1.86-1.86h4.821a1.862,1.862,0,0,1,1.86,1.86v.013a.8.8,0,0,0,.633.782,23.32,23.32,0,0,1,7.905,3.277.8.8,0,0,0,1-.1l.011-.011a1.862,1.862,0,0,1,2.631,0l3.409,3.409a1.862,1.862,0,0,1,0,2.631l-.011.011a.8.8,0,0,0-.1,1A23.32,23.32,0,0,1,50.3,22.37a.8.8,0,0,0,.782.633h.013a1.862,1.862,0,0,1,1.86,1.86v4.821a1.862,1.862,0,0,1-1.86,1.86h-.013a.8.8,0,0,0-.782.633,23.321,23.321,0,0,1-3.277,7.905.8.8,0,0,0,.1,1l.011.011a1.862,1.862,0,0,1,0,2.631l-3.409,3.409a1.862,1.862,0,0,1-2.631,0l-.011-.011a.8.8,0,0,0-1-.1,23.577,23.577,0,0,1-2.27,1.3.8.8,0,1,0,.717,1.428c.655-.328,1.3-.689,1.927-1.076a3.464,3.464,0,0,0,4.4-.409l3.409-3.409a3.464,3.464,0,0,0,.409-4.4,24.887,24.887,0,0,0,3.056-7.374,3.464,3.464,0,0,0,2.818-3.4V24.864a3.464,3.464,0,0,0-2.818-3.4Z" transform="translate(0 0)"/>
        <path id="Trazado_1044608" data-name="Trazado 1044608" d="M96.594,68.6a.8.8,0,0,0,.2-1.113,20.952,20.952,0,1,0,2.084,3.735.8.8,0,1,0-1.468.632A19.47,19.47,0,1,1,95.481,68.4a.8.8,0,0,0,1.113.2Z" transform="translate(-52.267 -52.267)"/>
        <path id="Trazado_1044609" data-name="Trazado 1044609" d="M141.922,135.742a5.9,5.9,0,0,0-1.349-3.8,6.128,6.128,0,0,0,.384-2.139,5.293,5.293,0,0,0-4.979-5.549,4.5,4.5,0,0,0-1.011.115,4.727,4.727,0,0,0-8.489-.227,4.727,4.727,0,0,0-8.489.227,4.531,4.531,0,0,0-3.068.379.8.8,0,1,0,.721,1.426,2.931,2.931,0,0,1,2.479-.089.8.8,0,0,0,1.062-.464,3.414,3.414,0,0,1,3.116-2.417,3.7,3.7,0,0,1,3.381,3.951.8.8,0,1,0,1.6,0,3.7,3.7,0,0,1,3.381-3.951,3.414,3.414,0,0,1,3.116,2.417.8.8,0,0,0,1.062.464,2.928,2.928,0,0,1,1.143-.233,3.7,3.7,0,0,1,3.381,3.951,4.464,4.464,0,0,1-.443,1.953.8.8,0,0,0,.165.928,4.225,4.225,0,0,1,1.243,3.057,4.149,4.149,0,0,1-1.657,3.4.8.8,0,0,0-.272.984,4.429,4.429,0,0,1,.387,1.831A3.7,3.7,0,0,1,135.4,145.9a2.926,2.926,0,0,1-.714-.09.8.8,0,0,0-.942.489,3.41,3.41,0,0,1-3.087,2.342,3.7,3.7,0,0,1-3.381-3.951.8.8,0,0,0-1.6,0,3.7,3.7,0,0,1-3.381,3.951,3.41,3.41,0,0,1-3.087-2.342.8.8,0,0,0-.942-.489,2.921,2.921,0,0,1-.714.09,3.7,3.7,0,0,1-3.381-3.951,4.429,4.429,0,0,1,.387-1.831.8.8,0,0,0-.272-.984,4.149,4.149,0,0,1-1.657-3.4,4.225,4.225,0,0,1,1.243-3.057.8.8,0,0,0,.165-.928,4.464,4.464,0,0,1-.443-1.953,4.552,4.552,0,0,1,.154-1.182.8.8,0,0,0-1.543-.415,6.171,6.171,0,0,0,.175,3.736,5.9,5.9,0,0,0-1.349,3.8,5.777,5.777,0,0,0,1.841,4.311,6.067,6.067,0,0,0-.3,1.9,5.293,5.293,0,0,0,4.98,5.549c.145,0,.291-.007.436-.022a4.727,4.727,0,0,0,8.488.225,4.727,4.727,0,0,0,8.488-.225q.218.021.436.022a5.293,5.293,0,0,0,4.98-5.549,6.066,6.066,0,0,0-.3-1.9A5.777,5.777,0,0,0,141.922,135.742Z" transform="translate(-99.204 -108.651)"/>
        <path id="Trazado_1044610" data-name="Trazado 1044610" d="M186.851,216.5a.8.8,0,0,0,.8-.8v-1.278a.8.8,0,1,0-1.6,0V215.7A.8.8,0,0,0,186.851,216.5Z" transform="translate(-166.23 -190.861)"/>
        <path id="Trazado_1044611" data-name="Trazado 1044611" d="M312.546,215.7v-1.278a.8.8,0,0,0-1.6,0V215.7a.8.8,0,0,0,1.6,0Z" transform="translate(-277.82 -190.861)"/>
        <path id="Trazado_1044612" data-name="Trazado 1044612" d="M234.588,227.659a3.125,3.125,0,0,0,2.356-1.073.8.8,0,0,0-1.2-1.05,1.526,1.526,0,0,1-2.3,0,.8.8,0,0,0-1.2,1.05,3.126,3.126,0,0,0,2.357,1.073Z" transform="translate(-207.314 -201.263)"/>
      </g>
    </g>
  </g>
</svg>
