<svg xmlns="http://www.w3.org/2000/svg" xmlns:xlink="http://www.w3.org/1999/xlink" width="93.934" height="93.934" viewBox="0 0 93.934 93.934">
  <defs>
    <filter id="Trazado_982547" x="0" y="0" width="93.934" height="93.934" filterUnits="userSpaceOnUse">
      <feOffset dy="3" input="SourceAlpha"/>
      <feGaussianBlur stdDeviation="3" result="blur"/>
      <feFlood flood-opacity="0.161"/>
      <feComposite operator="in" in2="blur"/>
      <feComposite in="SourceGraphic"/>
    </filter>
  </defs>
  <g id="Grupo_1183184" data-name="Grupo 1183184" transform="translate(-1031.066 -6850)">
    <g id="Grupo_1179612" data-name="Grupo 1179612" transform="translate(848 4723.467)">
      <g id="Grupo_1175227" data-name="Grupo 1175227" transform="translate(-5.967 140.533)">
        <g id="Grupo_1167337" data-name="Grupo 1167337" transform="translate(198.033 1992)">
          <g id="Grupo_1166720" data-name="Grupo 1166720">
            <g id="Grupo_1164305" data-name="Grupo 1164305">
              <g id="Grupo_1163948" data-name="Grupo 1163948">
                <g id="Grupo_1158168" data-name="Grupo 1158168">
                  <g id="Grupo_1152576" data-name="Grupo 1152576">
                    <g id="Grupo_1148633" data-name="Grupo 1148633">
                      <g id="Grupo_1148525" data-name="Grupo 1148525">
                        <g transform="matrix(1, 0, 0, 1, -9, -6)" filter="url(#Trazado_982547)">
                          <g id="Trazado_982547-2" data-name="Trazado 982547" transform="translate(9 6)" fill="#fdfbec">
                            <path d="M 37.966796875 74.43359375 C 33.04315185546875 74.43359375 28.26757431030273 73.46962738037109 23.77274131774902 71.56847381591797 C 19.43047523498535 69.73184967041016 15.53040790557861 67.10224914550781 12.18087482452393 63.75271987915039 C 8.831341743469238 60.4031867980957 6.201741218566895 56.50312042236328 4.365118980407715 52.16086196899414 C 2.463963508605957 47.66601943969727 1.499996900558472 42.89044189453125 1.499996900558472 37.966796875 C 1.499996900558472 33.04315185546875 2.463963508605957 28.26757431030273 4.365118980407715 23.77274131774902 C 6.201741218566895 19.43047523498535 8.831341743469238 15.53040790557861 12.18087482452393 12.18087482452393 C 15.53040790557861 8.831341743469238 19.43047523498535 6.201741218566895 23.77274131774902 4.365118980407715 C 28.26757431030273 2.463963508605957 33.04315185546875 1.499996900558472 37.966796875 1.499996900558472 C 42.89044189453125 1.499996900558472 47.66601943969727 2.463963508605957 52.16086196899414 4.365118980407715 C 56.50312042236328 6.201741218566895 60.4031867980957 8.831341743469238 63.75271987915039 12.18087482452393 C 67.10224914550781 15.53040790557861 69.73184967041016 19.43047523498535 71.56847381591797 23.77274131774902 C 73.46962738037109 28.26757431030273 74.43359375 33.04315185546875 74.43359375 37.966796875 C 74.43359375 42.89044189453125 73.46962738037109 47.66601943969727 71.56847381591797 52.16086196899414 C 69.73184967041016 56.50313186645508 67.10224914550781 60.4031867980957 63.75271987915039 63.75271987915039 C 60.4031867980957 67.10224914550781 56.50313186645508 69.73184967041016 52.16086196899414 71.56847381591797 C 47.66601943969727 73.46962738037109 42.89044189453125 74.43359375 37.966796875 74.43359375 Z" stroke="none"/>
                            <path d="M 37.966796875 3 C 33.2449836730957 3 28.66600799560547 3.924095153808594 24.35705947875977 5.746635437011719 C 20.19359588623047 7.507637023925781 16.45379638671875 10.02928161621094 13.24153518676758 13.24153518676758 C 10.02927398681641 16.45379638671875 7.507621765136719 20.19359588623047 5.746635437011719 24.35705947875977 C 3.924095153808594 28.66600799560547 3 33.2449836730957 3 37.966796875 C 3 42.6886100769043 3.924095153808594 47.26758575439453 5.746635437011719 51.57653427124023 C 7.507621765136719 55.73999786376953 10.02927398681641 59.47979736328125 13.24153518676758 62.69205856323242 C 16.45379638671875 65.90431976318359 20.19359588623047 68.42597198486328 24.35705947875977 70.18695831298828 C 28.66600799560547 72.00949859619141 33.2449836730957 72.93359375 37.966796875 72.93359375 C 42.6886100769043 72.93359375 47.26758575439453 72.00949859619141 51.57653427124023 70.18695831298828 C 55.73999786376953 68.42597198486328 59.47979736328125 65.90431976318359 62.69205856323242 62.69205856323242 C 65.90431976318359 59.47979736328125 68.42597198486328 55.73999786376953 70.18695831298828 51.57653427124023 C 72.00949859619141 47.26758575439453 72.93359375 42.6886100769043 72.93359375 37.966796875 C 72.93359375 33.2449836730957 72.00949859619141 28.66600799560547 70.18695831298828 24.35705947875977 C 68.42597198486328 20.19359588623047 65.90431976318359 16.45379638671875 62.69205856323242 13.24153518676758 C 59.47979736328125 10.02928161621094 55.73999786376953 7.507637023925781 51.57653427124023 5.746635437011719 C 47.26758575439453 3.924095153808594 42.6886100769043 3 37.966796875 3 M 37.966796875 0 C 58.93528366088867 0 75.93359375 16.99832153320312 75.93359375 37.966796875 C 75.93359375 58.93528366088867 58.93528366088867 75.93359375 37.966796875 75.93359375 C 16.99831008911133 75.93359375 0 58.93528366088867 0 37.966796875 C 0 16.99832153320312 16.99831008911133 0 37.966796875 0 Z" stroke="none" fill="#84792b"/>
                          </g>
                        </g>
                      </g>
                    </g>
                  </g>
                </g>
              </g>
            </g>
          </g>
        </g>
      </g>
    </g>
    <g id="emocional" transform="translate(1032.418 6871.217)">
      <g id="Grupo_1183182" data-name="Grupo 1183182" transform="translate(25.85 0.664)">
        <g id="Grupo_1183177" data-name="Grupo 1183177" transform="translate(0)">
          <g id="Grupo_1183175" data-name="Grupo 1183175">
            <path id="Trazado_1044584" data-name="Trazado 1044584" d="M67.7,50.462a29.53,29.53,0,0,1-1.77-8.473A6.688,6.688,0,0,1,67.5,37.171c6.556-7.666,6.567-17.253.828-23.345-2.669-2.834-4.915-4.771-8.187-5.583-.239-.059-.6-.242-.842-.293a25.415,25.415,0,0,0-10.775.231,15.571,15.571,0,0,0-9.733,6.467,10.653,10.653,0,0,0-1.807,6.033c-.1,1.56-.74,1.906-.987,3.141a2.626,2.626,0,0,0,.383,1.858,2.028,2.028,0,0,1,.22,1.552c-.065.251-.145.522-.244.809a12.132,12.132,0,0,1-2.372,4.2,1.557,1.557,0,0,0,.294,2.318A2.668,2.668,0,0,0,35.392,35l1.492.218a.088.088,0,0,1,.072.062,1.94,1.94,0,0,1-.331,1.92.824.824,0,0,0-.09,1.257,2.338,2.338,0,0,0,.553.508.089.089,0,0,1,0,.148,1,1,0,0,0,.166,1.786,4.957,4.957,0,0,1,.614.307,1.142,1.142,0,0,1,.015,1.378,2.394,2.394,0,0,0-.449,2.064c.523,1.917,2.67,2.4,4.667,2.064,1.616-.269,2.872-1.167,4.039-.269.828.637,1.8,1.72,1.961,4.867a.356.356,0,0,0,.355.339H66.177l1.19-.708a.355.355,0,0,0,.334-.476Z" transform="translate(-33.595 -7.477)" fill="#f4aa73"/>
          </g>
          <g id="Grupo_1183176" data-name="Grupo 1183176" transform="translate(25.705 0.473)">
            <path id="Trazado_1044585" data-name="Trazado 1044585" d="M332.289,56.02a.355.355,0,0,1-.334.476h-2.248a45.808,45.808,0,0,1-2.514-10.473,6.8,6.8,0,0,1,1.619-4.876c6.505-7.656,6.536-17.7.812-23.775a18.232,18.232,0,0,0-6.8-4.571,18.467,18.467,0,0,1,9.817,5.46c5.724,6.077,5.693,16.119-.812,23.775a6.8,6.8,0,0,0-1.619,4.876,34.179,34.179,0,0,0,2.074,9.108Z" transform="translate(-322.83 -12.801)" fill="#ea9f6c"/>
          </g>
        </g>
        <g id="Grupo_1183181" data-name="Grupo 1183181" transform="translate(9.322 6.51)">
          <g id="Grupo_1183178" data-name="Grupo 1183178" transform="translate(5.421 11.064)">
            <path id="Trazado_1044586" data-name="Trazado 1044586" d="M212.326,211.891a6,6,0,0,1-6.172,6.354,6.584,6.584,0,0,1-6.249-4.03,6.3,6.3,0,0,1-.417-2.324,6.665,6.665,0,0,1,11.848-4.191s.142.276.228.4A6.26,6.26,0,0,1,212.326,211.891Z" transform="translate(-199.489 -205.226)" fill="#ffe077"/>
            <path id="Trazado_1044587" data-name="Trazado 1044587" d="M217.093,237.262a6.666,6.666,0,0,1-12.914,2.324,6.667,6.667,0,0,0,11.431-6.515A6.633,6.633,0,0,1,217.093,237.262Z" transform="translate(-203.762 -230.596)" fill="#ffd05b"/>
          </g>
          <g id="Grupo_1183179" data-name="Grupo 1183179" transform="translate(11.464 3.155)">
            <path id="Trazado_1044588" data-name="Trazado 1044588" d="M280.326,122.891a6,6,0,0,1-6.172,6.354,6.584,6.584,0,0,1-6.249-4.03,6.3,6.3,0,0,1-.417-2.324,6.665,6.665,0,0,1,11.848-4.191s.142.276.228.4A6.26,6.26,0,0,1,280.326,122.891Z" transform="translate(-267.489 -116.226)" fill="#bbf39b"/>
            <path id="Trazado_1044589" data-name="Trazado 1044589" d="M285.093,148.262a6.666,6.666,0,0,1-12.914,2.324,6.667,6.667,0,0,0,11.431-6.515A6.633,6.633,0,0,1,285.093,148.262Z" transform="translate(-271.762 -141.596)" fill="#9ae59c"/>
          </g>
          <g id="Grupo_1183180" data-name="Grupo 1183180">
            <path id="Trazado_1044590" data-name="Trazado 1044590" d="M151.326,87.391a6,6,0,0,1-6.172,6.354,6.584,6.584,0,0,1-6.249-4.03,6.3,6.3,0,0,1-.417-2.324A6.665,6.665,0,0,1,150.337,83.2s.142.276.228.4A6.26,6.26,0,0,1,151.326,87.391Z" transform="translate(-138.489 -80.726)" fill="#fe8991"/>
            <path id="Trazado_1044591" data-name="Trazado 1044591" d="M156.093,112.762a6.666,6.666,0,0,1-12.914,2.324,6.667,6.667,0,0,0,11.431-6.515A6.633,6.633,0,0,1,156.093,112.762Z" transform="translate(-142.762 -106.096)" fill="#fe646f"/>
          </g>
        </g>
      </g>
      <g id="Grupo_1183183" data-name="Grupo 1183183" transform="translate(25.095 -0.001)">
        <path id="Trazado_1044592" data-name="Trazado 1044592" d="M38.712,89.929c-1.095-.842-2.215-.505-3.3-.18a10.209,10.209,0,0,1-1.256.32c-1.611.268-3.485-.006-3.915-1.582a1.852,1.852,0,0,1,.384-1.558,1.736,1.736,0,0,0-.213-2.256,4.383,4.383,0,0,0-.686-.351c-.107-.056-.286-.175-.287-.348a.407.407,0,0,1,.246-.332.667.667,0,0,0,.012-1.172,1.762,1.762,0,0,1-.464-.4c-.163-.217-.133-.243-.005-.354a2.562,2.562,0,0,0,.506-2.694.667.667,0,0,0-.534-.442l-1.548-.226a2.014,2.014,0,0,1-.836-.325.89.89,0,0,1-.169-1.325,12.9,12.9,0,0,0,2.5-4.428c.1-.281.184-.57.259-.86a2.713,2.713,0,0,0-.294-2.063,1.982,1.982,0,0,1-.3-1.383,4.25,4.25,0,0,1,.4-1.089,5.18,5.18,0,0,0,.6-2.14,10.067,10.067,0,0,1,1.7-5.7,14.154,14.154,0,0,1,1.739-2.111.666.666,0,1,0-.942-.943,15.5,15.5,0,0,0-1.9,2.31,11.356,11.356,0,0,0-1.919,6.362,3.885,3.885,0,0,1-.47,1.649,5.547,5.547,0,0,0-.506,1.4,3.288,3.288,0,0,0,.465,2.331,1.371,1.371,0,0,1,.146,1.043c-.066.255-.143.51-.228.757a11.6,11.6,0,0,1-2.241,3.981,2.224,2.224,0,0,0,.419,3.311,3.356,3.356,0,0,0,1.392.541l1.094.16a1.022,1.022,0,0,1-.2.879,1.479,1.479,0,0,0-.185,2.159,2.487,2.487,0,0,0,.2.231,1.625,1.625,0,0,0-.258.877,1.743,1.743,0,0,0,1,1.525c.111.058.265.137.472.221a.773.773,0,0,1-.114.543,3.064,3.064,0,0,0-.513,2.57c.547,2,2.674,3,5.42,2.546a11.39,11.39,0,0,0,1.421-.358c1.018-.306,1.574-.447,2.1-.04.795.611,1.62,1.648,1.715,4.7a.667.667,0,0,0,.666.646H40.3a.667.667,0,0,0,.646-.687C40.834,92.036,39.754,90.73,38.712,89.929Z" transform="translate(-25.095 -50.829)"/>
        <path id="Trazado_1044593" data-name="Trazado 1044593" d="M132.412,4.212a16.137,16.137,0,0,1,5.267-2.195C142.356.952,151.169.188,157.638,7.054c5.393,5.725,5.3,15.033-.223,22.132a.666.666,0,1,0,1.052.818,20.674,20.674,0,0,0,4.507-12.536A16.388,16.388,0,0,0,158.608,6.14a19.108,19.108,0,0,0-10.366-5.7,26.188,26.188,0,0,0-10.859.274,17.466,17.466,0,0,0-5.7,2.378.667.667,0,0,0,.729,1.116Z" transform="translate(-121.935 0.001)"/>
        <path id="Trazado_1044594" data-name="Trazado 1044594" d="M398.592,357.94a6.092,6.092,0,0,1,.472-2.794.667.667,0,1,0-1.227-.521,7.432,7.432,0,0,0-.574,3.409,35.622,35.622,0,0,0,2.294,9.775.667.667,0,0,0,1.246-.473A34.276,34.276,0,0,1,398.592,357.94Z" transform="translate(-364.171 -322.738)"/>
        <path id="Trazado_1044595" data-name="Trazado 1044595" d="M242.656,245.226a.667.667,0,0,0-.667.667v1.777a.667.667,0,1,0,1.333,0v-1.777A.667.667,0,0,0,242.656,245.226Z" transform="translate(-222.713 -223.432)"/>
        <path id="Trazado_1044596" data-name="Trazado 1044596" d="M247.194,297.976a.666.666,0,0,0,.943,0,1.848,1.848,0,0,1,2.611,0,.666.666,0,1,0,.943-.943,3.183,3.183,0,0,0-4.5,0A.667.667,0,0,0,247.194,297.976Z" transform="translate(-227.278 -269.788)"/>
        <path id="Trazado_1044597" data-name="Trazado 1044597" d="M157.116,83.715a7.362,7.362,0,0,0-4.79-6.879.667.667,0,0,0-.462,1.25,6,6,0,1,1-7.887,7.134,7.328,7.328,0,0,0,1.591-5.771,5.984,5.984,0,0,1,3.562-1.7.667.667,0,1,0-.144-1.325,7.31,7.31,0,0,0-3.8,1.576,7.331,7.331,0,1,0-7.729,9.838,7.342,7.342,0,0,0-.518,6.536.667.667,0,1,0,1.235-.5,6.006,6.006,0,0,1,.9-6.023,7.3,7.3,0,0,0,3.835-1.583A7.336,7.336,0,0,0,145.3,89.5v1.454a.667.667,0,0,0,1.333,0v-.631a7.289,7.289,0,0,0,3.083.718c.018.192.028.386.028.579a6,6,0,0,1-9.947,4.517.667.667,0,0,0-.878,1,7.332,7.332,0,0,0,12.158-5.52c0-.23-.011-.459-.032-.688A7.343,7.343,0,0,0,157.116,83.715Zm-18.8,2.844a6,6,0,1,1,6-6A6.006,6.006,0,0,1,138.32,86.559Z" transform="translate(-121.577 -66.72)"/>
        <path id="Trazado_1044598" data-name="Trazado 1044598" d="M311.322,158.67v-1.777a.667.667,0,1,0-1.333,0v1.777a.667.667,0,0,0,1.333,0Z" transform="translate(-284.67 -142.342)"/>
        <path id="Trazado_1044599" data-name="Trazado 1044599" d="M361.322,158.67v-1.777a.667.667,0,1,0-1.333,0v1.777a.667.667,0,1,0,1.333,0Z" transform="translate(-330.227 -142.342)"/>
        <path id="Trazado_1044600" data-name="Trazado 1044600" d="M317.442,211.153a3.169,3.169,0,0,0,2.248-.93.666.666,0,0,0-.943-.943,1.848,1.848,0,0,1-2.611,0,.666.666,0,1,0-.943.943A3.169,3.169,0,0,0,317.442,211.153Z" transform="translate(-289.235 -190.504)"/>
        <path id="Trazado_1044601" data-name="Trazado 1044601" d="M178.194,124.431a.666.666,0,0,0,0-.943l-1.066-1.066a.666.666,0,0,0-.943.943l.6.6-.6.6a.666.666,0,1,0,.943.943Z" transform="translate(-162.579 -111.364)"/>
        <path id="Trazado_1044602" data-name="Trazado 1044602" d="M226.193,122.421a.666.666,0,0,0-.943,0l-1.066,1.066a.666.666,0,0,0,0,.943l1.066,1.066a.666.666,0,0,0,.943-.943l-.6-.6.6-.6A.666.666,0,0,0,226.193,122.421Z" transform="translate(-206.313 -111.364)"/>
        <path id="Trazado_1044603" data-name="Trazado 1044603" d="M186.193,174.533a.666.666,0,1,0,.943.943,1.848,1.848,0,0,1,2.611,0,.666.666,0,1,0,.943-.943A3.183,3.183,0,0,0,186.193,174.533Z" transform="translate(-171.699 -158.175)"/>
      </g>
    </g>
  </g>
</svg>
