<svg xmlns="http://www.w3.org/2000/svg" xmlns:xlink="http://www.w3.org/1999/xlink" width="93.934" height="93.934" viewBox="0 0 93.934 93.934">
  <defs>
    <filter id="Trazado_982547" x="0" y="0" width="93.934" height="93.934" filterUnits="userSpaceOnUse">
      <feOffset dy="3" input="SourceAlpha"/>
      <feGaussianBlur stdDeviation="3" result="blur"/>
      <feFlood flood-opacity="0.161"/>
      <feComposite operator="in" in2="blur"/>
      <feComposite in="SourceGraphic"/>
    </filter>
  </defs>
  <g id="Grupo_1183174" data-name="Grupo 1183174" transform="translate(-191.066 -6994)">
    <g id="Grupo_1179613" data-name="Grupo 1179613" transform="translate(8 4867.467)">
      <g id="Grupo_1175227" data-name="Grupo 1175227" transform="translate(-5.967 140.533)">
        <g id="Grupo_1167337" data-name="Grupo 1167337" transform="translate(198.033 1992)">
          <g id="Grupo_1166720" data-name="Grupo 1166720">
            <g id="Grupo_1164305" data-name="Grupo 1164305">
              <g id="Grupo_1163948" data-name="Grupo 1163948">
                <g id="Grupo_1158168" data-name="Grupo 1158168">
                  <g id="Grupo_1152576" data-name="Grupo 1152576">
                    <g id="Grupo_1148633" data-name="Grupo 1148633">
                      <g id="Grupo_1148525" data-name="Grupo 1148525">
                        <g transform="matrix(1, 0, 0, 1, -9, -6)" filter="url(#Trazado_982547)">
                          <g id="Trazado_982547-2" data-name="Trazado 982547" transform="translate(9 6)" fill="#fdfbec">
                            <path d="M 37.966796875 74.43359375 C 33.04315185546875 74.43359375 28.26757431030273 73.46962738037109 23.77274131774902 71.56847381591797 C 19.43047523498535 69.73184967041016 15.53040790557861 67.10224914550781 12.18087482452393 63.75271987915039 C 8.831341743469238 60.4031867980957 6.201741218566895 56.50312042236328 4.365118980407715 52.16086196899414 C 2.463963508605957 47.66601943969727 1.499996900558472 42.89044189453125 1.499996900558472 37.966796875 C 1.499996900558472 33.04315185546875 2.463963508605957 28.26757431030273 4.365118980407715 23.77274131774902 C 6.201741218566895 19.43047523498535 8.831341743469238 15.53040790557861 12.18087482452393 12.18087482452393 C 15.53040790557861 8.831341743469238 19.43047523498535 6.201741218566895 23.77274131774902 4.365118980407715 C 28.26757431030273 2.463963508605957 33.04315185546875 1.499996900558472 37.966796875 1.499996900558472 C 42.89044189453125 1.499996900558472 47.66601943969727 2.463963508605957 52.16086196899414 4.365118980407715 C 56.50312042236328 6.201741218566895 60.4031867980957 8.831341743469238 63.75271987915039 12.18087482452393 C 67.10224914550781 15.53040790557861 69.73184967041016 19.43047523498535 71.56847381591797 23.77274131774902 C 73.46962738037109 28.26757431030273 74.43359375 33.04315185546875 74.43359375 37.966796875 C 74.43359375 42.89044189453125 73.46962738037109 47.66601943969727 71.56847381591797 52.16086196899414 C 69.73184967041016 56.50313186645508 67.10224914550781 60.4031867980957 63.75271987915039 63.75271987915039 C 60.4031867980957 67.10224914550781 56.50313186645508 69.73184967041016 52.16086196899414 71.56847381591797 C 47.66601943969727 73.46962738037109 42.89044189453125 74.43359375 37.966796875 74.43359375 Z" stroke="none"/>
                            <path d="M 37.966796875 3 C 33.2449836730957 3 28.66600799560547 3.924095153808594 24.35705947875977 5.746635437011719 C 20.19359588623047 7.507637023925781 16.45379638671875 10.02928161621094 13.24153518676758 13.24153518676758 C 10.02927398681641 16.45379638671875 7.507621765136719 20.19359588623047 5.746635437011719 24.35705947875977 C 3.924095153808594 28.66600799560547 3 33.2449836730957 3 37.966796875 C 3 42.6886100769043 3.924095153808594 47.26758575439453 5.746635437011719 51.57653427124023 C 7.507621765136719 55.73999786376953 10.02927398681641 59.47979736328125 13.24153518676758 62.69205856323242 C 16.45379638671875 65.90431976318359 20.19359588623047 68.42597198486328 24.35705947875977 70.18695831298828 C 28.66600799560547 72.00949859619141 33.2449836730957 72.93359375 37.966796875 72.93359375 C 42.6886100769043 72.93359375 47.26758575439453 72.00949859619141 51.57653427124023 70.18695831298828 C 55.73999786376953 68.42597198486328 59.47979736328125 65.90431976318359 62.69205856323242 62.69205856323242 C 65.90431976318359 59.47979736328125 68.42597198486328 55.73999786376953 70.18695831298828 51.57653427124023 C 72.00949859619141 47.26758575439453 72.93359375 42.6886100769043 72.93359375 37.966796875 C 72.93359375 33.2449836730957 72.00949859619141 28.66600799560547 70.18695831298828 24.35705947875977 C 68.42597198486328 20.19359588623047 65.90431976318359 16.45379638671875 62.69205856323242 13.24153518676758 C 59.47979736328125 10.02928161621094 55.73999786376953 7.507637023925781 51.57653427124023 5.746635437011719 C 47.26758575439453 3.924095153808594 42.6886100769043 3 37.966796875 3 M 37.966796875 0 C 58.93528366088867 0 75.93359375 16.99832153320312 75.93359375 37.966796875 C 75.93359375 58.93528366088867 58.93528366088867 75.93359375 37.966796875 75.93359375 C 16.99831008911133 75.93359375 0 58.93528366088867 0 37.966796875 C 0 16.99832153320312 16.99831008911133 0 37.966796875 0 Z" stroke="none" fill="#84792b"/>
                          </g>
                        </g>
                      </g>
                    </g>
                  </g>
                </g>
              </g>
            </g>
          </g>
        </g>
      </g>
    </g>
    <g id="justicia-social" transform="translate(213.825 7000.276)">
      <g id="Grupo_1183172" data-name="Grupo 1183172" transform="translate(0.645 15.585)">
        <g id="Grupo_1183167" data-name="Grupo 1183167" transform="translate(1.773)">
          <g id="Grupo_1183166" data-name="Grupo 1183166">
            <g id="Grupo_1183159" data-name="Grupo 1183159" transform="translate(0 0.979)">
              <ellipse id="Elipse_12521" data-name="Elipse 12521" cx="21.79" cy="21.616" rx="21.79" ry="21.616" fill="#26a6fe"/>
            </g>
            <g id="Grupo_1183160" data-name="Grupo 1183160" transform="translate(13.134 14.407)">
              <path id="Trazado_1044570" data-name="Trazado 1044570" d="M155.483,144.409a19.592,19.592,0,0,1-25.9,24.852,19.584,19.584,0,0,0,27.569-26.516Z" transform="translate(-129.579 -142.745)" fill="#0593fc"/>
            </g>
            <path id="Trazado_1044571" data-name="Trazado 1044571" d="M260.371,27.066l-4.349-4.349a.946.946,0,0,0-1.338,0l-6.969,6.969a1.492,1.492,0,0,1-1.176.432l-1.231-.1a4.732,4.732,0,0,0-3.731,1.37l-3.854,3.854a1.4,1.4,0,0,1,1.722,2.177l1.288-1.288a1.4,1.4,0,0,1,1.977,1.977l-1.288,1.288a1.4,1.4,0,0,1,1.976,1.977l-4.7,4.7,0,0a2.059,2.059,0,0,1,.206-.16l.088-.058a2.051,2.051,0,0,1,2.525.3.741.741,0,0,1,0,1.049l1.4-1.342a1.4,1.4,0,0,0,1.977,1.976l6.683-6.683a4.732,4.732,0,0,0,1.385-3.46l-.029-1.194a1.491,1.491,0,0,1,.436-1.091l7.006-7.006a.947.947,0,0,0,0-1.338Z" transform="translate(-215.295 -22.44)" fill="#ffcebf"/>
            <g id="Grupo_1183161" data-name="Grupo 1183161" transform="translate(0 5.411)">
              <path id="Trazado_1044572" data-name="Trazado 1044572" d="M28.134,100.551a19.5,19.5,0,0,0,1.9,8.427L33.7,105.3a1.584,1.584,0,0,0,.461-1.153l-.029-1.194a4.666,4.666,0,0,1,1.359-3.4l6.683-6.683a1.319,1.319,0,0,1,.134-.115,1.751,1.751,0,0,0-1.043-.347H39.733a1.752,1.752,0,0,1-1.239-2.991l.253-.253a1.752,1.752,0,0,0,0-2.478l-.773-.773a1.752,1.752,0,0,0-1.239-.513H35.31A19.542,19.542,0,0,0,28.134,100.551Z" transform="translate(-28.134 -85.401)" fill="#a2e62e"/>
            </g>
            <g id="Grupo_1183163" data-name="Grupo 1183163" transform="translate(0.693 14.11)">
              <g id="Grupo_1183162" data-name="Grupo 1183162">
                <path id="Trazado_1044573" data-name="Trazado 1044573" d="M48.64,162.513H47.1a1.751,1.751,0,0,1-1.133-.417l-5.779,5.779a4.666,4.666,0,0,0-1.359,3.4l.029,1.194a1.584,1.584,0,0,1-.461,1.153l-2.2,2.208a19.452,19.452,0,0,0,1.209,3.254l3.669-3.679a1.584,1.584,0,0,0,.461-1.153l-.029-1.194a4.666,4.666,0,0,1,1.359-3.4l6.683-6.683a1.32,1.32,0,0,1,.134-.115A1.75,1.75,0,0,0,48.64,162.513Z" transform="translate(-36.196 -162.096)" fill="#97d729"/>
              </g>
            </g>
            <g id="Grupo_1183164" data-name="Grupo 1183164" transform="translate(28.652 28.03)">
              <path id="Trazado_1044574" data-name="Trazado 1044574" d="M324.788,301.271H320.9a2.232,2.232,0,0,0-1.579.654l-.805.805a2.232,2.232,0,0,1-1.579.654h-2.425a2.232,2.232,0,0,0-1.579.654l-2.122,2.122a2.232,2.232,0,0,0,0,3.157l2.947,2.947a2.232,2.232,0,0,0,1.579.654h2.7A19.563,19.563,0,0,0,324.788,301.271Z" transform="translate(-310.154 -301.271)" fill="#a2e62e"/>
            </g>
            <g id="Grupo_1183165" data-name="Grupo 1183165" transform="translate(32.02 28.03)">
              <path id="Trazado_1044575" data-name="Trazado 1044575" d="M356.865,301.271a19.61,19.61,0,0,1-7.524,10.76l.233.233a2.232,2.232,0,0,0,1.579.654h2.7a19.563,19.563,0,0,0,6.756-11.646Z" transform="translate(-349.341 -301.271)" fill="#97d729"/>
            </g>
          </g>
        </g>
        <g id="Grupo_1183171" data-name="Grupo 1183171">
          <g id="Grupo_1183170" data-name="Grupo 1183170">
            <g id="Grupo_1183168" data-name="Grupo 1183168" transform="translate(28.992)">
              <path id="Trazado_1044576" data-name="Trazado 1044576" d="M311.334,27.066l-4.349-4.349a.946.946,0,0,0-1.338,0l-1.168,1.168,2.529,2.529a.946.946,0,0,1,0,1.338L301.263,33.5a1.491,1.491,0,0,0-.436,1.091l.061,3.343a2.149,2.149,0,0,1-.63,1.56L293.9,45.834a1.424,1.424,0,0,0-.074,1.956,1.4,1.4,0,0,0,2.023.049l6.683-6.683a4.732,4.732,0,0,0,1.385-3.46l-.029-1.194a1.491,1.491,0,0,1,.436-1.091l7.006-7.006a.947.947,0,0,0,0-1.338Z" transform="translate(-293.476 -22.44)" fill="#ffb09e"/>
            </g>
            <path id="Trazado_1044577" data-name="Trazado 1044577" d="M32.96,171.4a1.4,1.4,0,0,0-1.976,0l1.288-1.288a1.4,1.4,0,0,0-1.977-1.977l-1.288,1.288a1.4,1.4,0,0,0-1.977-1.977l-1.8,1.8a1.4,1.4,0,0,0-1.977-1.977l-2.319,2.319-4.364,4.365a4.732,4.732,0,0,0-1.385,3.46l.029,1.194a1.492,1.492,0,0,1-.436,1.091l-7.006,7.025a.946.946,0,0,0,0,1.338l4.349,4.349a.946.946,0,0,0,1.338,0l6.969-6.989a1.492,1.492,0,0,1,1.176-.432l1.231.1a4.732,4.732,0,0,0,3.731-1.37l.067-.067,4.44-4.44a.741.741,0,0,0,0-1.049,2.052,2.052,0,0,0-2.819-.077l0,0,4.7-4.7A1.4,1.4,0,0,0,32.96,171.4Z" transform="translate(-7.5 -150.376)" fill="#f89580"/>
            <g id="Grupo_1183169" data-name="Grupo 1183169" transform="translate(0 27.183)">
              <path id="Trazado_1044578" data-name="Trazado 1044578" d="M31.081,292.017a2.052,2.052,0,0,0-2.819-.077h0l-1.99,1.984h0a4.73,4.73,0,0,1-3.627,1.271l-1.231-.1a1.492,1.492,0,0,0-1.176.432l-6.969,6.989a.946.946,0,0,1-1.338,0l-3.047-3.047-1.1,1.106a.946.946,0,0,0,0,1.338l4.349,4.349a.946.946,0,0,0,1.338,0l6.969-6.989a1.492,1.492,0,0,1,1.176-.432l1.231.1a4.732,4.732,0,0,0,3.731-1.37l.067-.067,4.44-4.44A.741.741,0,0,0,31.081,292.017Z" transform="translate(-7.501 -291.417)" fill="#ec806b"/>
            </g>
          </g>
        </g>
      </g>
      <g id="Grupo_1183173" data-name="Grupo 1183173" transform="translate(0 14.94)">
        <path id="Trazado_1044579" data-name="Trazado 1044579" d="M191.182,411.5h-1.031a.645.645,0,0,0,0,1.289h1.031a.645.645,0,1,0,0-1.289Z" transform="translate(-171.496 -373.353)"/>
        <path id="Trazado_1044580" data-name="Trazado 1044580" d="M246.577,56.312h-1.031a.645.645,0,1,0,0,1.289h1.031a.645.645,0,0,0,0-1.289Z" transform="translate(-221.626 -52.757)"/>
        <path id="Trazado_1044581" data-name="Trazado 1044581" d="M203.4,101.885h-1.031a.645.645,0,0,0,0,1.289H203.4a.645.645,0,0,0,0-1.289Z" transform="translate(-182.555 -93.656)"/>
        <path id="Trazado_1044582" data-name="Trazado 1044582" d="M265.182,425.5h-1.031a.645.645,0,0,0,0,1.289h1.031a.645.645,0,0,0,0-1.289Z" transform="translate(-238.463 -386.15)"/>
        <path id="Trazado_1044583" data-name="Trazado 1044583" d="M48.416,21.463a1.734,1.734,0,0,0-.513-1.235l-4.786-4.776a1.753,1.753,0,0,0-2.476,0L36.425,19.66a22.275,22.275,0,0,0-32.8,10.095.709.709,0,0,0,1.311.54,20.77,20.77,0,0,1,5.871-8h1.313a1.212,1.212,0,0,1,.862.356l.851.849a1.215,1.215,0,0,1,0,1.72l-.279.278a2.632,2.632,0,0,0,1.865,4.493h1.355l-6.585,6.572a5.924,5.924,0,0,0-1.731,4.317l.032,1.312a.933.933,0,0,1-.273.681L4.942,46.156A20.572,20.572,0,0,1,3.37,38.227a20.858,20.858,0,0,1,.581-4.893A.709.709,0,0,0,2.572,33a22.274,22.274,0,0,0-.621,5.225,21.978,21.978,0,0,0,1.91,9.011L.513,50.589a1.745,1.745,0,0,0,0,2.471L5.3,57.836a1.755,1.755,0,0,0,2.476,0l2.381-2.383a22.288,22.288,0,0,0,29.79-1.518A22.184,22.184,0,0,0,43.48,27.113L47.9,22.7a1.734,1.734,0,0,0,.513-1.235ZM6.771,56.835a.333.333,0,0,1-.47,0L1.516,52.059a.331.331,0,0,1,0-.469l7.708-7.714a2.354,2.354,0,0,0,.688-1.715l-.032-1.312A4.5,4.5,0,0,1,11.2,37.567l4.34-4.331,3.014-3.008a.828.828,0,1,1,1.172,1.17l-3.336,3.329h0a.708.708,0,0,0,1,1h0l5.311-5.3a.828.828,0,1,1,1.172,1.17l-5.3,5.293a.708.708,0,1,0,1,1l6.721-6.708a.828.828,0,1,1,1.172,1.17l-6.721,6.708a.708.708,0,0,0,1,1l5.3-5.293a.828.828,0,0,1,1.172,1.17L20.86,43.284a.708.708,0,0,0,1,1l2.1-2.093a1.555,1.555,0,0,1,2.193,0,.107.107,0,0,1,0,.151l-4.959,4.949a4.5,4.5,0,0,1-3.546,1.3l-1.355-.111a2.35,2.35,0,0,0-1.854.68ZM45.046,38.228a21.062,21.062,0,0,1-.218,3.027H41.149a3.148,3.148,0,0,0-2.238.925l-.886.884a1.738,1.738,0,0,1-1.235.511H34.12a3.148,3.148,0,0,0-2.238.925l-2.335,2.33a3.14,3.14,0,0,0-.33,4.08.709.709,0,0,0,1.15-.828,1.733,1.733,0,0,1,.183-2.251l2.335-2.33a1.738,1.738,0,0,1,1.235-.511h2.668a3.148,3.148,0,0,0,2.238-.925l.886-.884a1.738,1.738,0,0,1,1.235-.511h3.423a20.644,20.644,0,0,1-5.628,10.263q-.583.582-1.2,1.111H35.028a1.737,1.737,0,0,1-1.235-.511l-1.181-1.179a.708.708,0,1,0-1,1l1.181,1.179a3.148,3.148,0,0,0,2.238.925h.855a20.883,20.883,0,0,1-24.719-1.016l4.28-4.283a.931.931,0,0,1,.735-.269L17.533,50a5.912,5.912,0,0,0,4.665-1.71l5-4.994a2.251,2.251,0,0,0,3.671.742L38.222,36.7a5.924,5.924,0,0,0,1.731-4.317l-.032-1.312a.933.933,0,0,1,.273-.68l2.245-2.241a20.733,20.733,0,0,1,2.607,10.076ZM46.9,21.7l-7.709,7.694a2.354,2.354,0,0,0-.688,1.715l.032,1.312A4.5,4.5,0,0,1,37.219,35.7L29.865,43.04a.828.828,0,1,1-1.172-1.17l3.336-3.329a.708.708,0,0,0-1-1L27.69,40.869a2.233,2.233,0,0,0-.379.506,1.506,1.506,0,0,0-.155-.184,2.951,2.951,0,0,0-1.405-.786l3.474-3.467a2.237,2.237,0,0,0-.7-3.644,2.225,2.225,0,0,0-.324-3.339l1.546.247a3.327,3.327,0,0,0,2.867-.927.708.708,0,0,0-1-1,1.9,1.9,0,0,1-1.639.53L28.06,28.5a1.724,1.724,0,0,0-1.508.482l-1.2,1.144A2.255,2.255,0,0,0,24.22,28.97l.767-.766a.708.708,0,0,0-1-1L21.2,29.924a2.227,2.227,0,0,0-.473-.7,2.252,2.252,0,0,0-2.566-.431,2.632,2.632,0,0,0-1.044-.217H15.424a1.216,1.216,0,0,1-.862-2.076l.279-.278a2.628,2.628,0,0,0,0-3.722l-.851-.849a2.62,2.62,0,0,0-1.354-.722A20.878,20.878,0,0,1,35.4,20.683l-2.427,2.422a.931.931,0,0,1-.735.269l-1.355-.111a5.93,5.93,0,0,0-4.541,1.592.708.708,0,1,0,.974,1.029,4.51,4.51,0,0,1,3.452-1.211l1.355.111a2.351,2.351,0,0,0,1.854-.679l7.669-7.654a.332.332,0,0,1,.47,0L46.9,21.229a.331.331,0,0,1,0,.469Z" transform="translate(0 -14.94)"/>
      </g>
    </g>
  </g>
</svg>
