<svg xmlns="http://www.w3.org/2000/svg" xmlns:xlink="http://www.w3.org/1999/xlink" width="108" height="108" viewBox="0 0 108 108">
  <defs>
    <filter id="Trazado_904820" x="0" y="0" width="108" height="108" filterUnits="userSpaceOnUse">
      <feOffset dy="3" input="SourceAlpha"/>
      <feGaussianBlur stdDeviation="3" result="blur"/>
      <feFlood flood-opacity="0.161"/>
      <feComposite operator="in" in2="blur"/>
      <feComposite in="SourceGraphic"/>
    </filter>
  </defs>
  <g id="Grupo_1182736" data-name="Grupo 1182736" transform="translate(-200.227 -778.67)">
    <g id="Grupo_1179560" data-name="Grupo 1179560" transform="translate(-0.227 23)">
      <g id="Grupo_1173787" data-name="Grupo 1173787" transform="translate(209.455 761.67)">
        <g id="Grupo_1171910" data-name="Grupo 1171910" transform="translate(0)">
          <g id="Grupo_1167341" data-name="Grupo 1167341">
            <g id="Grupo_1166792" data-name="Grupo 1166792">
              <g transform="matrix(1, 0, 0, 1, -9, -6)" filter="url(#Trazado_904820)">
                <g id="Trazado_904820-2" data-name="Trazado 904820" transform="translate(9 6)" fill="#fdfbec">
                  <path d="M 44.99999618530273 88.50003051757812 C 39.12687301635742 88.50003051757812 33.43022155761719 87.35010528564453 28.06829643249512 85.08219909667969 C 22.88852119445801 82.89134216308594 18.23629570007324 79.75461578369141 14.24084663391113 75.75916290283203 C 10.24540901184082 71.76371765136719 7.108683586120605 67.11150360107422 4.917821407318115 61.93172836303711 C 2.649921178817749 56.56978988647461 1.499996185302734 50.87313842773438 1.499996185302734 45.00001525878906 C 1.499996185302734 39.12689208984375 2.649921178817749 33.43024063110352 4.917821407318115 28.06831550598145 C 7.108683586120605 22.88854026794434 10.24540901184082 18.23631477355957 14.24084663391113 14.24086570739746 C 18.23629570007324 10.24541568756104 22.88852119445801 7.10869026184082 28.06829643249512 4.917840480804443 C 33.43022155761719 2.649927854537964 39.12687301635742 1.50000274181366 44.99999618530273 1.50000274181366 C 50.87311935424805 1.50000274181366 56.56977081298828 2.649927854537964 61.93169784545898 4.917840480804443 C 67.11147308349609 7.10869026184082 71.76369476318359 10.24541568756104 75.75914764404297 14.24086570739746 C 79.75458526611328 18.23631477355957 82.89131164550781 22.88854026794434 85.08216857910156 28.06831550598145 C 87.35007476806641 33.43024063110352 88.5 39.12689208984375 88.5 45.00001525878906 C 88.5 50.87313842773438 87.35007476806641 56.56978988647461 85.08216857910156 61.93172836303711 C 82.89131164550781 67.11150360107422 79.75458526611328 71.76371765136719 75.75914764404297 75.75916290283203 C 71.76369476318359 79.75461578369141 67.11147308349609 82.89134216308594 61.93169784545898 85.08219909667969 C 56.56977081298828 87.35010528564453 50.87311935424805 88.50003051757812 44.99999618530273 88.50003051757812 Z" stroke="none"/>
                  <path d="M 44.99999618530273 3 C 39.32870864868164 3 33.82865142822266 4.110061645507812 28.65262603759766 6.299346923828125 C 23.65165710449219 8.414573669433594 19.15968322753906 11.44334411621094 15.301513671875 15.301513671875 C 11.44333648681641 19.15968322753906 8.414566040039062 23.65165710449219 6.299339294433594 28.65262985229492 C 4.110054016113281 33.82867050170898 2.999992370605469 39.32872772216797 2.999992370605469 45.00001525878906 C 2.999992370605469 50.67130279541016 4.110054016113281 56.17136001586914 6.299339294433594 61.34738922119141 C 8.414566040039062 66.34837341308594 11.44333648681641 70.84033203125 15.301513671875 74.69850158691406 C 19.15968322753906 78.55668640136719 23.65165710449219 81.58545684814453 28.65262603759766 83.70068359375 C 33.82865142822266 85.88996887207031 39.32870864868164 87.00003051757812 44.99999618530273 87.00003051757812 C 50.67128372192383 87.00003051757812 56.17134094238281 85.88996887207031 61.34736633300781 83.70068359375 C 66.34834289550781 81.58545684814453 70.84030914306641 78.55668640136719 74.69847869873047 74.69850158691406 C 78.55665588378906 70.84033203125 81.58542633056641 66.34837341308594 83.70065307617188 61.34738922119141 C 85.88993835449219 56.17136001586914 87 50.67130279541016 87 45.00001525878906 C 87 39.32872772216797 85.88993835449219 33.82867050170898 83.70065307617188 28.65262985229492 C 81.58542633056641 23.65165710449219 78.55665588378906 19.15968322753906 74.69847869873047 15.301513671875 C 70.84030914306641 11.44334411621094 66.34834289550781 8.414573669433594 61.34736633300781 6.299346923828125 C 56.17134094238281 4.110061645507812 50.67128372192383 3 44.99999618530273 3 M 44.99999618530273 0 C 69.85281372070312 0 90 20.14718627929688 90 45.00001525878906 C 90 69.85282897949219 69.85281372070312 90.00003051757812 44.99999618530273 90.00003051757812 C 20.14717864990234 90.00003051757812 -7.62939453125e-06 69.85282897949219 -7.62939453125e-06 45.00001525878906 C -7.62939453125e-06 20.14718627929688 20.14717864990234 0 44.99999618530273 0 Z" stroke="none" fill="#84792b"/>
                </g>
              </g>
            </g>
          </g>
        </g>
      </g>
    </g>
    <g id="preguntas-frecuentes" transform="translate(207.38 794.416)">
      <g id="Grupo_1182734" data-name="Grupo 1182734" transform="translate(18.804 0.912)">
        <path id="Trazado_1042914" data-name="Trazado 1042914" d="M166.915,7.5c11.213,0,20.3,7.962,20.3,17.783a16.142,16.142,0,0,1-3.183,9.563l3.773,6.008a.961.961,0,0,1-1.325,1.325l-5.928-3.724a21.906,21.906,0,0,1-13.64,4.611c-11.213,0-20.3-7.962-20.3-17.783S155.7,7.5,166.915,7.5Z" transform="translate(-131.868 -7.5)" fill="#f7e477"/>
        <g id="Grupo_1182732" data-name="Grupo 1182732" transform="translate(14.743)">
          <path id="Trazado_1042915" data-name="Trazado 1042915" d="M150.259,25.282c0-9.283,8.121-16.9,18.48-17.711-.6-.047-1.209-.072-1.824-.072-11.213,0-20.3,7.962-20.3,17.783s9.09,17.783,20.3,17.783q.924,0,1.827-.072C158.381,42.187,150.259,34.566,150.259,25.282Z" transform="translate(-146.611 -7.499)" fill="#f2be63"/>
        </g>
        <path id="Trazado_1042916" data-name="Trazado 1042916" d="M46.4,211.99c-11.213,0-20.3,7.962-20.3,17.783a16.142,16.142,0,0,0,3.183,9.563L25.5,245.344a.961.961,0,0,0,1.325,1.325l5.928-3.724a21.906,21.906,0,0,0,13.64,4.611c11.213,0,20.3-7.962,20.3-17.783S57.61,211.99,46.4,211.99Z" transform="translate(-25.356 -187.126)" fill="#ff9bca"/>
        <g id="Grupo_1182733" data-name="Grupo 1182733" transform="translate(14.793 31.043)">
          <path id="Trazado_1042917" data-name="Trazado 1042917" d="M156.1,273.409c-1.676,1.31-1.707,2.225-1.707,3.809,0,.579-.3,1.249-1.8,1.249-1.249,0-1.676-.457-1.676-2.042a5.578,5.578,0,0,1,2.042-4.632c1.006-.853,2.712-1.8,2.712-3.444,0-1.4-1.219-2.072-2.743-2.072-3.108,0-2.438,2.346-4.084,2.346a1.748,1.748,0,0,1-1.828-1.737c0-1.646,1.889-4.084,6-4.084,3.9,0,6.491,2.164,6.491,5.028S156.927,272.769,156.1,273.409Zm-1.128,10.133a2.367,2.367,0,0,1-2.347,2.346,2.347,2.347,0,0,1,0-4.693A2.367,2.367,0,0,1,154.977,283.542Z" transform="translate(-147.023 -262.804)" fill="#ededed"/>
        </g>
      </g>
      <g id="Grupo_1182735" data-name="Grupo 1182735" transform="translate(17.897 0)">
        <path id="Trazado_1042918" data-name="Trazado 1042918" d="M227.088,121.612v1.738a.912.912,0,1,0,1.824,0v-1.738a.912.912,0,0,0-1.824,0Z" transform="translate(-201.652 -106.024)"/>
        <path id="Trazado_1042919" data-name="Trazado 1042919" d="M385.055,121.612v1.738a.912.912,0,0,0,1.824,0v-1.738a.912.912,0,0,0-1.824,0Z" transform="translate(-340.412 -106.024)"/>
        <path id="Trazado_1042920" data-name="Trazado 1042920" d="M291.542,134.311a2.292,2.292,0,0,1-3.367,0,.912.912,0,0,0-1.373,1.2,4.115,4.115,0,0,0,6.114,0,.912.912,0,1,0-1.373-1.2Z" transform="translate(-253.908 -117.707)"/>
        <path id="Trazado_1042921" data-name="Trazado 1042921" d="M169.8,406.562a3.258,3.258,0,1,0,3.258,3.258A3.247,3.247,0,0,0,169.8,406.562Zm0,4.693a1.435,1.435,0,0,1,0-2.869,1.435,1.435,0,1,1,0,2.869Z" transform="translate(-148.491 -357.128)"/>
        <path id="Trazado_1042922" data-name="Trazado 1042922" d="M150.054,267.54c1.718-1.336,3.765-3.513,3.765-6.3,0-3.442-3.113-5.94-7.4-5.94a7.816,7.816,0,0,0-5.125,1.634,4.557,4.557,0,0,0-1.79,3.362,2.545,2.545,0,0,0,.945,2.024,2.905,2.905,0,0,0,1.8.625,2.378,2.378,0,0,0,2.057-1.3,1.952,1.952,0,0,1,2.027-1.048c.55,0,1.831.113,1.831,1.16,0,.9-.891,1.581-1.752,2.242-.225.173-.438.337-.644.511a6.516,6.516,0,0,0-2.358,5.323c0,1.375.294,2.954,2.588,2.954,2.514,0,2.71-1.654,2.71-2.161C148.7,269.152,148.7,268.6,150.054,267.54Zm-3.179,3.089c0,.13-.032.159-.042.168a1.454,1.454,0,0,1-.844.169c-.413,0-.577-.064-.609-.1s-.155-.245-.155-1.028a4.693,4.693,0,0,1,1.72-3.937c.166-.141.362-.291.569-.45,1.04-.8,2.465-1.893,2.465-3.689,0-1.813-1.435-2.984-3.655-2.984a3.7,3.7,0,0,0-3.536,1.849c-.338.5-.378.5-.547.5-.009,0-.917-.009-.917-.825,0-1.106,1.493-3.172,5.092-3.172,3.285,0,5.579,1.693,5.579,4.116,0,1.13-.531,2.889-3.063,4.859A4.723,4.723,0,0,0,146.876,270.63Z" transform="translate(-124.715 -224.261)"/>
        <path id="Trazado_1042923" data-name="Trazado 1042923" d="M19.346,61.459a1.868,1.868,0,0,0,1.412-.232l5.39-3.386a22.953,22.953,0,0,0,13.693,4.413c11.7,0,21.215-8.387,21.215-18.7a16.677,16.677,0,0,0-1.48-6.861,22.293,22.293,0,0,0,7.963-3.721l5.39,3.386a1.873,1.873,0,0,0,2.582-.59,1.886,1.886,0,0,0,0-1.993l-3.45-5.494a17,17,0,0,0,3-9.592A17.52,17.52,0,0,0,69,5.6a.912.912,0,0,0-1.219,1.357,15.719,15.719,0,0,1,5.463,11.733,15.253,15.253,0,0,1-3.008,9.025.912.912,0,0,0-.035,1.023l3.772,6.006a.052.052,0,0,1,0,.054.049.049,0,0,1-.068.016l-5.928-3.724a.912.912,0,0,0-1.052.058,20.417,20.417,0,0,1-8.2,3.874,19.807,19.807,0,0,0-7.379-7.18,23.578,23.578,0,0,0-13.821-2.871q-.8.076-1.582.2a14.856,14.856,0,0,1-1.487-6.485c0-9.3,8.7-16.871,19.392-16.871a21.31,21.31,0,0,1,11.1,3.041A.912.912,0,0,0,65.9,3.307,23.133,23.133,0,0,0,53.848,0c-11.7,0-21.215,8.387-21.215,18.7A16.628,16.628,0,0,0,34.11,25.56a21.768,21.768,0,0,0-10.254,5.7.912.912,0,0,0,1.3,1.284,20.736,20.736,0,0,1,14.69-5.861c6.907,0,14.052,3.389,17.477,9.564a15,15,0,0,1,1.915,7.308c0,9.3-8.7,16.871-19.392,16.871a21.031,21.031,0,0,1-13.073-4.413.912.912,0,0,0-1.052-.058l-5.928,3.723a.05.05,0,0,1-.068-.068l3.773-6.007a.912.912,0,0,0-.036-1.023,15.019,15.019,0,0,1-.5-17.331.912.912,0,0,0-1.528-1,16.824,16.824,0,0,0,.192,18.894l-3.451,5.5A1.888,1.888,0,0,0,19.346,61.459Z" transform="translate(-17.897 0)"/>
      </g>
    </g>
  </g>
</svg>
