<svg xmlns="http://www.w3.org/2000/svg" xmlns:xlink="http://www.w3.org/1999/xlink" width="103" height="103" viewBox="0 0 103 103">
  <defs>
    <filter id="Trazado_978624" x="0" y="0" width="103" height="103" filterUnits="userSpaceOnUse">
      <feOffset dy="3" input="SourceAlpha"/>
      <feGaussianBlur stdDeviation="3" result="blur"/>
      <feFlood flood-opacity="0.161"/>
      <feComposite operator="in" in2="blur"/>
      <feComposite in="SourceGraphic"/>
    </filter>
  </defs>
  <g id="Grupo_1183251" data-name="Grupo 1183251" transform="translate(-171 -3631)">
    <g id="Grupo_1164359" data-name="Grupo 1164359" transform="translate(180 3637)">
      <g id="Grupo_1144531" data-name="Grupo 1144531">
        <g transform="matrix(1, 0, 0, 1, -9, -6)" filter="url(#Trazado_978624)">
          <g id="Trazado_978624-2" data-name="Trazado 978624" transform="translate(9 6)" fill="#fdfbec">
            <path d="M 42.5 83.5 C 36.96437835693359 83.5 31.59512901306152 82.41617584228516 26.54141235351562 80.27863311767578 C 21.65934181213379 78.21369171142578 17.27447128295898 75.25723266601562 13.50862312316895 71.49137878417969 C 9.742764472961426 67.72553253173828 6.786305904388428 63.34066009521484 4.721364498138428 58.45858764648438 C 2.583823442459106 53.40486907958984 1.5 48.03562164306641 1.5 42.5 C 1.5 36.96437835693359 2.583823442459106 31.59512901306152 4.721364498138428 26.54141235351562 C 6.786305904388428 21.65934181213379 9.742764472961426 17.27447128295898 13.50862312316895 13.50862312316895 C 17.27447128295898 9.742764472961426 21.65934181213379 6.786305904388428 26.54141235351562 4.721364498138428 C 31.59512901306152 2.583823442459106 36.96437835693359 1.5 42.5 1.5 C 48.03562164306641 1.5 53.40486907958984 2.583823442459106 58.45858764648438 4.721364498138428 C 63.34066009521484 6.786305904388428 67.72553253173828 9.742764472961426 71.49137878417969 13.50862312316895 C 75.25723266601562 17.27447128295898 78.21369171142578 21.65934181213379 80.27863311767578 26.54141235351562 C 82.41617584228516 31.59512901306152 83.5 36.96437835693359 83.5 42.5 C 83.5 48.03562164306641 82.41617584228516 53.40486907958984 80.27863311767578 58.45858764648438 C 78.21369171142578 63.34066009521484 75.25723266601562 67.72553253173828 71.49137878417969 71.49137878417969 C 67.72553253173828 75.25723266601562 63.34066009521484 78.21369171142578 58.45858764648438 80.27863311767578 C 53.40486907958984 82.41617584228516 48.03562164306641 83.5 42.5 83.5 Z" stroke="none"/>
            <path d="M 42.5 3 C 37.16621398925781 3 31.99356079101562 4.043960571289062 27.125732421875 6.102882385253906 C 22.42246627807617 8.092185974121094 18.19785308837891 10.94070434570312 14.56928253173828 14.56928253173828 C 10.94070434570312 18.19785308837891 8.092185974121094 22.42246627807617 6.102882385253906 27.125732421875 C 4.043960571289062 31.99356079101562 3 37.16621398925781 3 42.5 C 3 47.83378601074219 4.043960571289062 53.00643920898438 6.102882385253906 57.87425231933594 C 8.092185974121094 62.57753372192383 10.94070434570312 66.80213165283203 14.56928253173828 70.43071746826172 C 18.19786834716797 74.05929565429688 22.42246627807617 76.90781402587891 27.125732421875 78.89711761474609 C 31.99356079101562 80.95603942871094 37.16621398925781 82 42.5 82 C 47.83378601074219 82 53.00642395019531 80.95603942871094 57.87425231933594 78.89711761474609 C 62.57753372192383 76.90781402587891 66.80213165283203 74.05929565429688 70.43071746826172 70.43071746826172 C 74.05929565429688 66.80213165283203 76.90781402587891 62.57753372192383 78.89711761474609 57.87425231933594 C 80.95603942871094 53.00642395019531 82 47.83378601074219 82 42.5 C 82 37.16621398925781 80.95603942871094 31.99356079101562 78.89711761474609 27.125732421875 C 76.90781402587891 22.42246627807617 74.05929565429688 18.19786834716797 70.43071746826172 14.56928253173828 C 66.80213165283203 10.94070434570312 62.57753372192383 8.092185974121094 57.87425231933594 6.102882385253906 C 53.00643920898438 4.043960571289062 47.83378601074219 3 42.5 3 M 42.5 0 C 65.97209167480469 0 85 19.02789306640625 85 42.5 C 85 65.97209167480469 65.97209167480469 85 42.5 85 C 19.02789306640625 85 0 65.97209167480469 0 42.5 C 0 19.02789306640625 19.02789306640625 0 42.5 0 Z" stroke="none" fill="#84792b"/>
          </g>
        </g>
      </g>
    </g>
    <g id="dibujar_2_" data-name="dibujar (2)" transform="translate(195.164 3652.163)">
      <g id="Grupo_1183249" data-name="Grupo 1183249" transform="translate(0.801 0.977)">
        <path id="Trazado_1044866" data-name="Trazado 1044866" d="M28.515,53.532,11.208,36.245a.427.427,0,0,1,0-.6L24.877,21.988l3.634-2.54a.427.427,0,0,1,.6,0l17.3,16.2a.427.427,0,0,1,0,.6l-17.3,17.279A.427.427,0,0,1,28.515,53.532Z" transform="translate(-10.7 -18.237)" fill="#eef5f6"/>
        <path id="Trazado_1044867" data-name="Trazado 1044867" d="M161.8,27.166l-4.24,4.236a2.437,2.437,0,0,0-.058-3.39L143.043,13.568a3.443,3.443,0,0,0-2.783-.666l3.631-3.626a.427.427,0,0,1,.6,0L161.8,26.562A.428.428,0,0,1,161.8,27.166Z" transform="translate(-126.083 -9.15)" fill="#deecf1"/>
        <path id="Trazado_1044868" data-name="Trazado 1044868" d="M230.728,214.013l-2.731,1.6-19.545,7.521a.427.427,0,0,1-.552-.245l-8.8-22.806a.427.427,0,0,1,.245-.552l19.451-7.485,3.223-.53a.427.427,0,0,1,.552.245l8.4,21.7A.427.427,0,0,1,230.728,214.013Z" transform="translate(-178.614 -172.016)" fill="#ade194"/>
        <path id="Trazado_1044869" data-name="Trazado 1044869" d="M396.28,207.886l-4,1.538a1.649,1.649,0,0,0,.947-2.135l-7.919-20.523a2.439,2.439,0,0,0-1.523-1.182l3.383-1.3a.428.428,0,0,1,.552.246l8.8,22.806A.427.427,0,0,1,396.28,207.886Z" transform="translate(-343.609 -165.556)" fill="#97da7b"/>
        <path id="Trazado_1044870" data-name="Trazado 1044870" d="M31.865,292.278l-4.448.644H7.927a.427.427,0,0,1-.427-.427v-24.44a.427.427,0,0,1,.427-.427H32.4a.427.427,0,0,1,.427.427l-.534,23.8A.427.427,0,0,1,31.865,292.278Z" transform="translate(-7.5 -240.027)" fill="#8ac9fe"/>
        <path id="Trazado_1044871" data-name="Trazado 1044871" d="M193.712,268.057V292.5a.427.427,0,0,1-.427.427h-5.6a1.754,1.754,0,0,0,1.754-1.754V280.556l-1.821-2.412,1.821-10.514h3.844A.427.427,0,0,1,193.712,268.057Z" transform="translate(-168.386 -240.029)" fill="#60b7ff"/>
        <path id="Trazado_1044872" data-name="Trazado 1044872" d="M293.215,288.055l-1.493.576a6.8,6.8,0,0,0-12.693,4.9l-1.493.576a1.144,1.144,0,0,1-1.527-.8,9.629,9.629,0,0,1,17.8-6.87A1.146,1.146,0,0,1,293.215,288.055Z" transform="translate(-247.102 -252.373)" fill="#fe7ab6"/>
        <path id="Trazado_1044873" data-name="Trazado 1044873" d="M315.351,312.264h0l-1.864.719a1.138,1.138,0,0,1-1.351-.41,3.793,3.793,0,0,0-6.889,2.658,1.139,1.139,0,0,1-.726,1.212l-1.863.72a6.8,6.8,0,0,1,12.693-4.9Z" transform="translate(-270.73 -276.007)" fill="#8ac9fe"/>
        <path id="Trazado_1044874" data-name="Trazado 1044874" d="M55.605,324.054c-.838.238-1.833-.926-2.659-.957-.856-.032-1.937,1.043-2.724.753s-.921-1.816-1.587-2.339-2.171-.278-2.648-.989c-.46-.686.33-1.988.092-2.826s-1.593-1.531-1.562-2.357c.032-.856,1.445-1.445,1.735-2.232s-.4-2.158.124-2.824,2-.312,2.713-.788c.686-.46.923-1.972,1.761-2.21s1.833.926,2.659.957c.856.032,1.937-1.043,2.724-.753s.921,1.816,1.587,2.339,2.171.278,2.648.989c.46.686-.33,1.988-.092,2.826s1.593,1.531,1.562,2.357c-.032.856-1.445,1.445-1.735,2.232s.4,2.158-.124,2.824-2,.312-2.713.788C56.68,322.3,56.443,323.817,55.605,324.054Z" transform="translate(-40.565 -275.423)" fill="#fece85"/>
        <circle id="Elipse_12540" data-name="Elipse 12540" cx="3.74" cy="3.74" r="3.74" transform="translate(8.923 36.508)" fill="#fec165"/>
        <path id="Trazado_1044875" data-name="Trazado 1044875" d="M140.1,264.587l-2.818-2.817-.989.469-2.516.8a8.375,8.375,0,0,0-5.341,6.165l2.327.509a2.325,2.325,0,0,1,2.326,2.326l.494.309A13.539,13.539,0,0,0,140.1,264.587Z" transform="translate(-115.517 -234.794)" fill="#d78878"/>
        <path id="Trazado_1044876" data-name="Trazado 1044876" d="M129.156,336.469c-.086.019-.468-.257-.555-.241l-3.216.563A1.449,1.449,0,0,1,123.6,335l-.137-.959.519-2.571c0-.017.007-.034.012-.051H126.8a2.325,2.325,0,0,1,2.326,2.326Z" transform="translate(-111.077 -297.007)" fill="#fec165"/>
        <path id="Trazado_1044877" data-name="Trazado 1044877" d="M174.845,265.385l-.418,1.04-.774,2.4a8.383,8.383,0,0,1-6.106,5.434l-1.107-1.628a11.591,11.591,0,0,0,1.041-1.514,8.085,8.085,0,0,0,3.813-6.969,8.511,8.511,0,0,0-.311-2.287l.245-.089Z" transform="translate(-149.468 -234.794)" fill="#ca6e59"/>
        <path id="Trazado_1044878" data-name="Trazado 1044878" d="M126.844,352.422c-.087.019-.173.037-.259.053l-3.719.7A1.68,1.68,0,0,1,120.9,351.2l.242-1.2a7,7,0,0,0,5.631-.715,2.346,2.346,0,0,1,.037.419Z" transform="translate(-108.764 -312.96)" fill="#fdb441"/>
        <path id="Trazado_1044879" data-name="Trazado 1044879" d="M206.2,224.633l-.709-.056a3.775,3.775,0,0,1-3.479-3.763v-.366l5.133-5.123a1.172,1.172,0,0,1,1.656,0l2.533,2.531a1.169,1.169,0,0,1,0,1.654Z" transform="translate(-181.245 -193.003)" fill="#deecf1"/>
        <path id="Trazado_1044880" data-name="Trazado 1044880" d="M239.637,43.056l-1.24-.8a3.164,3.164,0,0,1-.229-4.222l2.68-3.331a36.135,36.135,0,0,1,6.228-6.071l14.1-10.766a1.985,1.985,0,0,1,1.525-.42c1.25.788,1.445,1.836.376,3.23L252.768,34.017a33.674,33.674,0,0,1-5.668,6.191l-3.236,3.08a3.174,3.174,0,0,1-4.227-.232Z" transform="translate(-212.912 -16.545)" fill="#7a8c98"/>
        <path id="Trazado_1044881" data-name="Trazado 1044881" d="M269.618,20.913,258.827,34.99a36.113,36.113,0,0,1-6.083,6.216l-3.337,2.674a3.173,3.173,0,0,1-4.228-.232l-1.208-1.207a3.118,3.118,0,0,1-.262-.3,3.174,3.174,0,0,0,3.937-.025l3.337-2.674a36.081,36.081,0,0,0,6.083-6.217l10.79-14.076a1.976,1.976,0,0,0,.421-1.523A2.052,2.052,0,0,1,269.618,20.913Z" transform="translate(-218.487 -16.724)" fill="#687c87"/>
        <path id="Trazado_1044882" data-name="Trazado 1044882" d="M124.663,108.883a2.861,2.861,0,0,0-3.844.108,2.832,2.832,0,0,0-.265.295.315.315,0,0,1-.485.009q-.08-.091-.167-.178a3.73,3.73,0,0,0-6.268,3.495.322.322,0,0,1-.231.388,2.129,2.129,0,0,0-.963.555,2.153,2.153,0,0,0,.167,3.178.311.311,0,0,1,.057.438,2.846,2.846,0,0,0,4.237,3.788l7.912-7.912A2.847,2.847,0,0,0,124.663,108.883Z" transform="translate(-100.679 -97.467)" fill="#8ac9fe"/>
      </g>
      <g id="Grupo_1183250" data-name="Grupo 1183250" transform="translate(0 0)">
        <path id="Trazado_1044883" data-name="Trazado 1044883" d="M34.806,49.633,30.7,51.213l-3.772-9.774V32.573l2.95-2.944a3.964,3.964,0,0,0,2.344-.872l3.337-2.674a36.97,36.97,0,0,0,3.922-3.642L44.3,20.586l.882,2.285a.8.8,0,1,0,1.494-.577l-1.17-3.031a.8.8,0,0,0-1.035-.459L41.653,19.89,52.567,5.652a2.781,2.781,0,0,0-.244-3.734,2.787,2.787,0,0,0-3.741-.252L42.21,6.531A.8.8,0,1,0,43.182,7.8L49.554,2.94a1.194,1.194,0,0,1,1.636.11A1.174,1.174,0,0,1,51.3,4.678L40.507,18.755a35.38,35.38,0,0,1-5.949,6.078l-3.337,2.674a2.37,2.37,0,0,1-3.161-.173l-1.208-1.207a2.36,2.36,0,0,1-.171-3.154l2.68-3.331a35.378,35.378,0,0,1,6.09-5.937l4.759-3.633A.8.8,0,1,0,39.238,8.8l-4.759,3.633q-.789.6-1.543,1.246L19.476.235a.8.8,0,0,0-1.132,0L6.474,12.091a.8.8,0,1,0,1.132,1.133L18.91,1.933,31.738,14.746a36.956,36.956,0,0,0-3.625,3.893l-2.68,3.331a3.955,3.955,0,0,0-.875,2.341l-3.252,3.246-.608.221H11.244l-9.1-9.094,2.822-2.818a.8.8,0,1,0-1.132-1.133L.44,18.117a.8.8,0,0,0,0,1.133l8.538,8.527H.8a.8.8,0,0,0-.8.8V53.872a.8.8,0,0,0,.8.8H26.127a.8.8,0,0,0,.8-.8V45.887l2.566,6.648A.8.8,0,0,0,30.528,53l4.853-1.867a.8.8,0,1,0-.575-1.495Zm-13.991-8.8a2.732,2.732,0,0,1,.558.693c-.014.141-.432.511-.633.69a3.454,3.454,0,0,0-1.053,1.3,3.484,3.484,0,0,0-.04,1.683,2.646,2.646,0,0,1,.04.92,2.63,2.63,0,0,1-.9.179,3.516,3.516,0,0,0-1.636.441,3.358,3.358,0,0,0-1,1.314c-.129.244-.4.751-.535.79s-.633-.252-.87-.392a3.357,3.357,0,0,0-1.54-.595,3.494,3.494,0,0,0-1.624.483,2.719,2.719,0,0,1-.852.319,2.582,2.582,0,0,1-.453-.806,3.481,3.481,0,0,0-.918-1.412,3.455,3.455,0,0,0-1.576-.55,2.664,2.664,0,0,1-.9-.249A2.638,2.638,0,0,1,7,44.748a3.554,3.554,0,0,0,.086-1.715,3.553,3.553,0,0,0-.974-1.414,2.731,2.731,0,0,1-.558-.693c.014-.141.432-.511.633-.69a3.455,3.455,0,0,0,1.053-1.3,3.483,3.483,0,0,0,.04-1.684,2.648,2.648,0,0,1-.04-.92,2.629,2.629,0,0,1,.9-.179,3.516,3.516,0,0,0,1.636-.441,3.358,3.358,0,0,0,1-1.314c.129-.244.4-.751.535-.79s.633.252.87.392a5.41,5.41,0,0,0,.943.476c-.079.263-.147.531-.2.8l-.3,1.48a4.541,4.541,0,0,0-.3,8.855,4.567,4.567,0,0,0,1.155.149,4.513,4.513,0,0,0,2.287-.625A4.564,4.564,0,0,0,18,41.425l.771-.146a9.145,9.145,0,0,0,1.914-.586l.132.138Zm-2.764-1.046-3.3.623a.879.879,0,0,1-1.027-1.036l.642-3.182h2.157a1.527,1.527,0,0,1,1.526,1.524Zm-5.229,1.5a2.481,2.481,0,0,0,2.228.695l1.306-.247a2.953,2.953,0,0,1-1.407,2.026,2.939,2.939,0,1,1-2.691-5.216l-.1.51A2.476,2.476,0,0,0,12.822,41.287Zm6.831-1.906V37.716a3.13,3.13,0,0,0-3.127-3.126H14.768a7.633,7.633,0,0,1,4.562-4.61l1.488-.541a4.607,4.607,0,0,0,3.9,3.883l-.493,1.422a7.6,7.6,0,0,1-4.576,4.638Zm7.275-10.914a3.975,3.975,0,0,0,1.079.767L25.455,31.78a3.03,3.03,0,0,1-3.083-3.026l2.578-2.573a3.974,3.974,0,0,0,.768,1.079ZM1.6,53.072V29.379H16.96a9.286,9.286,0,0,0-3.246,3.609,3.62,3.62,0,0,1-.726-.364,2.747,2.747,0,0,0-2.12-.553,2.747,2.747,0,0,0-1.515,1.583,2.75,2.75,0,0,1-.473.732,2.725,2.725,0,0,1-.9.178,2.708,2.708,0,0,0-1.994.782,2.722,2.722,0,0,0-.288,2.135,2.708,2.708,0,0,1,.043.906,2.763,2.763,0,0,1-.612.65,2.73,2.73,0,0,0-1.172,1.828A2.649,2.649,0,0,0,4.96,42.731a2.724,2.724,0,0,1,.586.739,2.728,2.728,0,0,1-.11.937,2.648,2.648,0,0,0,.123,2.116,2.73,2.73,0,0,0,1.957.941,2.76,2.76,0,0,1,.862.232,2.709,2.709,0,0,1,.439.794,2.722,2.722,0,0,0,1.366,1.666,2.706,2.706,0,0,0,2.107-.381,2.675,2.675,0,0,1,.863-.323,2.747,2.747,0,0,1,.787.374,3.414,3.414,0,0,0,1.666.615,1.657,1.657,0,0,0,.454-.063A2.748,2.748,0,0,0,17.574,48.8a2.747,2.747,0,0,1,.473-.732,2.725,2.725,0,0,1,.9-.178,2.708,2.708,0,0,0,1.994-.781,2.722,2.722,0,0,0,.288-2.135,2.708,2.708,0,0,1-.043-.906,2.763,2.763,0,0,1,.612-.65,2.73,2.73,0,0,0,1.172-1.828,2.365,2.365,0,0,0-.83-1.682,9.208,9.208,0,0,0,3.182-3.636v16.8Z" transform="translate(0 0)"/>
        <path id="Trazado_1044884" data-name="Trazado 1044884" d="M370.664,254.224l-6.593-17.085a.8.8,0,1,0-1.494.577l6.3,16.337-14.54,5.6a.8.8,0,1,0,.575,1.495L370.2,255.26a.8.8,0,0,0,.46-1.036Z" transform="translate(-316.045 -211.358)"/>
        <path id="Trazado_1044885" data-name="Trazado 1044885" d="M277.607,281.645a2.977,2.977,0,0,1,3.546,1.1,1.931,1.931,0,0,0,2.3.706l3.357-1.3a1.946,1.946,0,0,0,1.011-2.748,10.429,10.429,0,0,0-19.284,7.442,1.948,1.948,0,0,0,2.595,1.357l3.356-1.3a1.93,1.93,0,0,0,1.23-2.069A2.977,2.977,0,0,1,277.607,281.645Zm-7.051,5.068a.347.347,0,0,1-.289-.017.333.333,0,0,1-.171-.218,8.828,8.828,0,0,1,16.322-6.3.333.333,0,0,1,.02.276.347.347,0,0,1-.2.207l-.785.3a7.6,7.6,0,0,0-14.109,5.445Zm3.577-1.65a.34.34,0,0,1-.221.355l-1.066.412a6,6,0,0,1,11.1-4.283l-1.066.411a.34.34,0,0,1-.4-.115,4.594,4.594,0,0,0-8.343,3.22Z" transform="translate(-239.61 -244.752)"/>
        <path id="Trazado_1044886" data-name="Trazado 1044886" d="M105.053,110.345a3.648,3.648,0,0,0,5.69,4.482l7.912-7.912a3.647,3.647,0,0,0-5.085-5.228,4.5,4.5,0,0,0-3.029-1.161h0a4.534,4.534,0,0,0-4.49,5.15,2.937,2.937,0,0,0-1,4.668Zm1.229-2.922a1.321,1.321,0,0,1,.8-.384.8.8,0,0,0,.676-1.051,2.93,2.93,0,0,1,2.778-3.86h0a2.91,2.91,0,0,1,2.071.858,3.017,3.017,0,0,1,.337.4.8.8,0,0,0,1.352-.065,2.045,2.045,0,1,1,3.221,2.461l-7.912,7.912a2.045,2.045,0,0,1-2.894-2.891l.013-.013a.8.8,0,0,0-.171-1.264,1.287,1.287,0,0,1-.276-.211,1.339,1.339,0,0,1,0-1.892Z" transform="translate(-93.154 -89.792)"/>
      </g>
    </g>
  </g>
</svg>
