<svg xmlns="http://www.w3.org/2000/svg" xmlns:xlink="http://www.w3.org/1999/xlink" width="295" height="225" viewBox="0 0 295 225">
  <defs>
    <clipPath id="clip-path">
      <rect id="Rectángulo_415937" data-name="Rectángulo 415937" width="295" height="225" transform="translate(180 5707)" fill="#fff" stroke="#707070" stroke-width="1" opacity="0.82"/>
    </clipPath>
  </defs>
  <g id="Enmascarar_grupo_1098832" data-name="Enmascarar grupo 1098832" transform="translate(-180 -5707)" clip-path="url(#clip-path)">
    <g id="Grupo_1183258" data-name="Grupo 1183258" transform="translate(9.133 24.722)">
      <circle id="Elipse_12482" data-name="Elipse 12482" cx="135.367" cy="135.367" r="135.367" transform="translate(183 5705.773)" fill="#ebe9f0" opacity="0.47"/>
      <g id="Grupo_1182794" data-name="Grupo 1182794" transform="translate(231.153 5682.425)">
        <g id="Grupo_1182785" data-name="Grupo 1182785" transform="translate(88.069 337.166)">
          <path id="Trazado_1043148" data-name="Trazado 1043148" d="M2717.879,1545.994c2.256.373,4.911,1.427,4.7,3.223a2.019,2.019,0,0,1-.6,1.179c-1.285,1.333-.072,3.2,2.045,3.228,9.558.147,18.859-.705,27.955,1.544,1.576.39,3.3.944,3.4,2.508a2.687,2.687,0,0,1-.987,2.109c-3.016,2.76-7.893,3.067-12.327,3.237l-16.436.63c-1.711.066-2.012,1.951-.362,2.269l.057.011c1.892.364,4.586,1.533,4.423,3.318-.2,2.212-3.708,2.85-5.9,3.336a89.658,89.658,0,0,1-12.658,1.5,82.728,82.728,0,0,1-12.041.541c-3.652-.26-5.1-3.664-2.542-5.767.336-.277.519-.531.481-.74-.221-1.216-1.614-2.126-3.132-2.462a15.029,15.029,0,0,0-4.736-.039,116.64,116.64,0,0,1-12.914,1.085l-.364,0c-4.007-.072-5.075-4.214-1.474-5.662l.136-.055c1.444-.587,1.192-2.237-.374-2.5l-12.98-2.161a2.4,2.4,0,0,1-1.164-.5c-1.069-.915.091-2.078,1.277-2.666,4.067-2.012,9.248-1.623,13.924-1.009a47.555,47.555,0,0,0,10.243.646c1.068-.1,1.177-1.284.135-1.46-1-.169-3.888-.653-2.215-2.116,2.347-2.053,5.55-2.389,8.537-2.654a72.773,72.773,0,0,1,7.671.121c2.823.026,5.717-.947,8.581-1.142A42.006,42.006,0,0,1,2717.879,1545.994Z" transform="translate(-2659.659 -1545.449)" fill="#a57bb7"/>
          <path id="Trazado_1043149" data-name="Trazado 1043149" d="M2680.071,1577.25c0,.652.652.978.978,1.3,6.2,1.957,13.046-3.262,18.592,1.3,1.957,1.957,0,5.219,1.957,6.523,5.545,3.588,15.656,1.63,15.33-6.523,0-3.262,4.893-2.936,7.828-3.262,9.917-.708,20.517,1.487,30.192-.462a3.543,3.543,0,0,1-.548.636c-3.016,2.76-7.893,3.066-12.326,3.237l-16.436.631c-1.711.066-2.012,1.951-.362,2.269l.056.011c1.893.364,4.587,1.533,4.424,3.318-.2,2.212-3.708,2.85-5.9,3.336a89.583,89.583,0,0,1-12.658,1.5,82.682,82.682,0,0,1-12.041.541c-3.653-.26-5.1-3.664-2.542-5.767.336-.277.519-.531.481-.74-.221-1.216-1.614-2.126-3.132-2.462a15.033,15.033,0,0,0-4.735-.039,116.581,116.581,0,0,1-12.914,1.085l-.365,0c-4.006-.072-5.075-4.214-1.474-5.662l.136-.055c1.443-.587,1.192-2.237-.374-2.5l-12.981-2.161a2.407,2.407,0,0,1-1.165-.5c-1.069-.915.092-2.078,1.278-2.666.027-.013.054-.024.081-.037a45.733,45.733,0,0,0,16.344,2.573C2680.395,1572.685,2680.395,1574.969,2680.071,1577.25Z" transform="translate(-2659.662 -1562.437)" opacity="0.1"/>
        </g>
        <path id="Trazado_1043150" data-name="Trazado 1043150" d="M2511.03,1540.146a79.084,79.084,0,0,0-.375,14.568c9.615.849,19.458.77,29.107.795a1.338,1.338,0,0,0,1.643-1.6,11.814,11.814,0,0,0-4.256-8.6,23.225,23.225,0,0,0-8.555-4.372C2523.061,1539.222,2516.778,1540.709,2511.03,1540.146Z" transform="translate(-2468.832 -1204.585)" fill="#e7363e"/>
        <path id="Trazado_1043151" data-name="Trazado 1043151" d="M2574.8,1555.1a26.915,26.915,0,0,1,2.08-2.558,6.006,6.006,0,0,1,1.182-.969,2.9,2.9,0,0,1,1.452-.494.342.342,0,0,1,.293.169.36.36,0,0,1,.044.15c.024.272-.3.4-.485.526a6.4,6.4,0,0,0-.554.394,8.466,8.466,0,0,0-1.054,1.053,25.236,25.236,0,0,1-2.094,2.593.611.611,0,1,1-.864-.865Z" transform="translate(-2513.017 -1212.162)" fill="#bc1723"/>
        <path id="Trazado_1043152" data-name="Trazado 1043152" d="M2565.918,1549.931a13.222,13.222,0,0,1,2.174-3.178,7.621,7.621,0,0,1,1.334-1.11,3.41,3.41,0,0,1,1.616-.64.247.247,0,0,1,.173.418c-.385.364-.839.654-1.229,1.014a9.768,9.768,0,0,0-1.075,1.2c-.715.919-1.262,1.967-1.91,2.934A.627.627,0,0,1,2565.918,1549.931Z" transform="translate(-2506.968 -1207.976)" fill="#bc1723"/>
        <path id="Trazado_1043153" data-name="Trazado 1043153" d="M2504.882,1499.721c6.773,1.178,13.706,2.355,20.7,3.343l-2.785,9.593a11.739,11.739,0,0,1-6.62,1.54,53.467,53.467,0,0,1-9.1-1.291s-.968-5.371-2.309-13.207C2504.8,1499.709,2504.842,1499.715,2504.882,1499.721Z" transform="translate(-2464.899 -1176.771)" fill="#e8a987"/>
        <path id="Trazado_1043154" data-name="Trazado 1043154" d="M2506.509,1509.737c-.413-2.337-1.025-5.829-1.744-10.032l.116.022c6.773,1.178,13.706,2.355,20.7,3.343l-1.5,5.166A58.5,58.5,0,0,1,2506.509,1509.737Z" transform="translate(-2464.9 -1176.775)" opacity="0.2"/>
        <path id="Trazado_1043155" data-name="Trazado 1043155" d="M2786.28,1526.86a79.153,79.153,0,0,0,5.691,13.415c9.1-3.209,18.031-7.357,26.823-11.331a1.338,1.338,0,0,0,.834-2.135,11.809,11.809,0,0,0-7.434-6.062,23.211,23.211,0,0,0-9.6-.436C2796.848,1521.034,2791.745,1524.993,2786.28,1526.86Z" transform="translate(-2658.806 -1190.767)" fill="#e7363e"/>
        <path id="Trazado_1043156" data-name="Trazado 1043156" d="M2782.949,1495.5s-.555.666-4,2.665a38.613,38.613,0,0,1-7.994,3.22s-3.391-5.385-7.292-11.561a77.974,77.974,0,0,0,16.95-7.337C2781.99,1489.844,2782.949,1495.5,2782.949,1495.5Z" transform="translate(-2643.229 -1164.913)" fill="#e8a987"/>
        <path id="Trazado_1043157" data-name="Trazado 1043157" d="M2780.614,1482.49c.569,3.047,1.067,5.8,1.455,7.983a54.307,54.307,0,0,1-12.589,8.573c-1.353-2.147-3.495-5.543-5.816-9.219A77.986,77.986,0,0,0,2780.614,1482.49Z" transform="translate(-2643.228 -1164.917)" opacity="0.2"/>
        <path id="Trazado_1043158" data-name="Trazado 1043158" d="M2864.222,1528.275c.4-1.033.648-2.125,1.143-3.122a4.937,4.937,0,0,1,.872-1.257,3.128,3.128,0,0,1,.589-.493,1.644,1.644,0,0,1,.735-.309.312.312,0,0,1,.258.506c-.139.172-.353.275-.509.434a4.832,4.832,0,0,0-.454.521,5.47,5.47,0,0,0-.635,1.2c-.4.979-.575,2.022-1.025,2.983a.54.54,0,1,1-.975-.464Z" transform="translate(-2712.461 -1192.885)" fill="#bc1723"/>
        <path id="Trazado_1043159" data-name="Trazado 1043159" d="M2853.323,1525.034a27.036,27.036,0,0,1,.833-3.189,6,6,0,0,1,.675-1.372,2.9,2.9,0,0,1,1.118-1.051.341.341,0,0,1,.336.032.354.354,0,0,1,.1.118c.135.238-.106.488-.224.68a6.206,6.206,0,0,0-.341.588,8.493,8.493,0,0,0-.523,1.4,25.221,25.221,0,0,1-.833,3.228.612.612,0,1,1-1.146-.429Z" transform="translate(-2704.967 -1190.335)" fill="#bc1723"/>
        <path id="Trazado_1043160" data-name="Trazado 1043160" d="M2843.789,1523.73a13.214,13.214,0,0,1,.662-3.793,7.627,7.627,0,0,1,.755-1.563,3.408,3.408,0,0,1,1.205-1.252.247.247,0,0,1,.331.308c-.2.49-.493.942-.7,1.432a9.794,9.794,0,0,0-.483,1.533c-.27,1.132-.334,2.313-.523,3.461A.627.627,0,0,1,2843.789,1523.73Z" transform="translate(-2698.418 -1188.755)" fill="#bc1723"/>
        <path id="Trazado_1043161" data-name="Trazado 1043161" d="M2583.8,1563.041c.792-.774,1.471-1.666,2.334-2.368a4.952,4.952,0,0,1,1.315-.783,3.152,3.152,0,0,1,.74-.2,1.646,1.646,0,0,1,.8.023.312.312,0,0,1,.025.568c-.2.1-.435.1-.643.184a4.768,4.768,0,0,0-.629.286,5.441,5.441,0,0,0-1.075.831c-.764.728-1.361,1.6-2.169,2.29a.54.54,0,0,1-.7-.827Z" transform="translate(-2519.209 -1218.063)" fill="#bc1723"/>
        <path id="Trazado_1043162" data-name="Trazado 1043162" d="M2479.069,1276.944c1.435,13.229,6.706,52.209,6.744,52.215,6.774,1.177,18.572,2.5,24.818.166l14.655-40.888s4.664-.251,6.663-.417,5.994-.832,5.994-.832,7.968,13.294,11.964,19.292c1.324,1.986,9.52,13.924,14.1,21.178,7.883.333,20.734-3.663,25.065-8.216-3.5-19.6-11.386-45.34-13.45-50.747-.144-.372-.284-.747-.427-1.119-3.513-9.188-7-18.2-7-18.2l-13.212-.395-1.631-.049-74.205-2.221S2476.822,1256.211,2479.069,1276.944Z" transform="translate(-2446.527 -1002.516)" fill="#75bcbc"/>
        <path id="Trazado_1043163" data-name="Trazado 1043163" d="M2598.393,1278.37a108.342,108.342,0,0,0,14.082-.22c.295-.025.59-.056.885-.084q1.351-.187,2.691-.418c.153-2.658.453-5.307.667-7.96q.349-4.328.458-8.671a162.912,162.912,0,0,0-.478-17.279c-.264-3.255-.642-6.5-1.048-9.741-.086-.685,1.1-.852,1.214-.165a136.944,136.944,0,0,1,1.542,17.384,152.838,152.838,0,0,1-.494,17.439,71.1,71.1,0,0,1-1.168,8.87,46.862,46.862,0,0,0,4.968-1.178,50.609,50.609,0,0,0,9.2-3.794c.826-.439,1.644-.9,2.452-1.369s1.6-1.061,2.449-1.5a.288.288,0,0,1,.347.45,15.989,15.989,0,0,1-2.023,1.539c-.71.5-1.432.977-2.177,1.421a42.546,42.546,0,0,1-4.532,2.378c-.395.175-.791.343-1.19.507a.124.124,0,0,1,.013.012l.061-.013c2.579-.591,5.131-1.278,7.689-1.954a.281.281,0,0,1,.149.541,59.973,59.973,0,0,1-7.155,2.32q5.093,6.26,10.1,12.587,5.334,6.743,10.528,13.6c1.966,2.577,3.846,5.217,5.7,7.878.233.335-.307.759-.571.44-3.625-4.387-7.124-8.869-10.656-13.331q-5.328-6.735-10.734-13.407-2.987-3.689-6.005-7.354-2.42.577-4.856,1.027a92.921,92.921,0,0,1-14.1,1.485c-2.674.085-5.339.045-8.008-.136C2597.565,1279.612,2597.55,1278.333,2598.393,1278.37Z" transform="translate(-2528.958 -993.339)" fill="#52a8a5"/>
        <path id="Trazado_1043164" data-name="Trazado 1043164" d="M2507.856,1294.983q.46-7.859,1.451-15.674c.665-5.239,1.536-10.452,2.578-15.63q1.551-7.714,3.781-15.267.278-.934.562-1.866a.3.3,0,0,1,.577.159c-1.242,5.075-2.338,10.186-3.344,15.313-.369,1.881-.7,3.769-1.025,5.658a.615.615,0,0,1,.275.033,16.252,16.252,0,0,0,7.628.811,17.856,17.856,0,0,0,7.138-2.7,26.745,26.745,0,0,0,9.45-11.533,71.43,71.43,0,0,0,3.191-8.861.306.306,0,0,1,.59.163,35.461,35.461,0,0,1-6.378,15.555,21.946,21.946,0,0,1-12.923,8.629,15.784,15.784,0,0,1-9.2-.742q-.687,4.2-1.24,8.423-1.014,7.763-1.5,15.584t-.448,15.652q.041,7.831.6,15.649c.046.646.042,1.3.058,1.942.019.775-1.28.992-1.389.188-.354-2.615-.477-5.251-.6-7.887q-.181-3.93-.213-7.866Q2507.395,1302.847,2507.856,1294.983Z" transform="translate(-2466.757 -1001.478)" fill="#52a8a5"/>
        <path id="Trazado_1043165" data-name="Trazado 1043165" d="M2719.488,1249.937c.042.215.084.427.134.639a23.289,23.289,0,0,0,3.105,7.117,29.8,29.8,0,0,0,11.562,10.447,17.243,17.243,0,0,0,7.6,2.2c-.143-.372-.284-.747-.427-1.119a18.345,18.345,0,0,1-7.573-2.841,29.757,29.757,0,0,1-5.862-4.54,26.272,26.272,0,0,1-6.774-11.21c-.111-.346-.215-.7-.313-1.04a.779.779,0,0,0-.927-.467A.682.682,0,0,0,2719.488,1249.937Z" transform="translate(-2612.79 -1004.155)" fill="#52a8a5"/>
        <path id="Trazado_1043166" data-name="Trazado 1043166" d="M2767.206,1453.155s2.748,9.41,2.5,10.076-5.829,4.663-10.826,6.412-14.823,3-15.655,2.415-4.747-8.411-4.831-8.91,11.742-2.831,17.239-5S2767.038,1452.573,2767.206,1453.155Z" transform="translate(-2625.821 -1144.666)" fill="#bae8e7"/>
        <path id="Trazado_1043167" data-name="Trazado 1043167" d="M2527.748,1481.315s-2.831,9.91-3.248,10.243-8.91,1.832-14.906,1.249-11.326-1.582-11.575-2.415-1-10.326-1-10.326,11.409,1.249,15.739,1.332S2527.748,1481.315,2527.748,1481.315Z" transform="translate(-2459.564 -1163.247)" fill="#bae8e7"/>
        <path id="Trazado_1043168" data-name="Trazado 1043168" d="M2553.447,1248.933l1.631.049,13.213.394s1.526,3.948,3.576,9.281c-15.764.595-30.58,6.433-46.783,9.728-8.154,1.957-15.982.979-23.81-1.3-8.205-2.507-15.3-6.765-23.054-9.883a55.666,55.666,0,0,1,1.021-10.486Z" transform="translate(-2446.615 -1002.514)" opacity="0.3"/>
        <path id="Trazado_1043169" data-name="Trazado 1043169" d="M2690.2,999.276a46.979,46.979,0,0,0,2.8,8.585,134.565,134.565,0,0,0,12.838,21.974c1.64.577,6.833-.868,13.607-3.986.1-.042.2-.088.293-.134,6.921-3.21,13.464-9.87,14.224-11.573s-4.286-10.117-12.456-22.375c-6.973-10.457-15.591-14.025-22.835-13.056-.5.065-.985.153-1.468.261a.013.013,0,0,0-.01,0,16.1,16.1,0,0,0-2.12.623,6.185,6.185,0,0,0-.6.255s-.006,0-.01.007a7.692,7.692,0,0,0-3.493,3.421C2688.867,987.13,2688.839,993.152,2690.2,999.276Z" transform="translate(-2591.984 -817.811)" fill="#bc1723"/>
        <path id="Trazado_1043170" data-name="Trazado 1043170" d="M2690.96,983.492a7.691,7.691,0,0,1,3.494-3.421c0-.006.006-.006.01-.006a6.185,6.185,0,0,1,.6-.255,16.151,16.151,0,0,1,2.121-.623.011.011,0,0,1,.009,0c.483-.108.972-.2,1.468-.261.166-.022.334-.039.5-.057a60.57,60.57,0,0,0,13.917,17.618c6.287,5.568,13.069,11.927,20.617,15.973a2.992,2.992,0,0,1,.255,1.9c-.759,1.7-7.3,8.363-14.224,11.572-.1.046-.2.091-.293.134-6.774,3.118-11.967,4.563-13.608,3.986a134.555,134.555,0,0,1-12.837-21.974,47.03,47.03,0,0,1-2.795-8.584C2688.838,993.363,2688.866,987.341,2690.96,983.492Z" transform="translate(-2591.984 -818.022)" opacity="0.3"/>
        <path id="Trazado_1043171" data-name="Trazado 1043171" d="M2837.168,1120.04s.458.666-.583,2.124-3.5,1.041-3.5,1.041a4.922,4.922,0,0,1-1.375,3.04c-2.04,1.666-4.413-1.207-4.413-1.207l3.331-6.537Z" transform="translate(-2687.06 -914.201)" fill="#e8a987"/>
        <path id="Trazado_1043172" data-name="Trazado 1043172" d="M2470.666,1063.649c7.8,6.213,17.985,8.813,27.949,9.109s19.86-1.533,29.665-3.35,19.707-3.624,29.671-3.284a33.33,33.33,0,0,0,8.2-.232c2.542-.55,2.675-50.491-8.405-76.2-.979-2.273-4.754-9.542-5.971-11.7-9.076-.958-12.5.262-20.61.213a174.6,174.6,0,0,0-24.814,1.161,118.181,118.181,0,0,0-15.848,3.167l-.7.2-.447.134c-.1.029-.205.062-.31.095a.012.012,0,0,0-.01,0c-.542.163-1.08.333-1.621.509-.254.082-.509.166-.763.255l-.2.068c-.046.017-.088.033-.134.046,0,0-.006,0-.01.006a7.693,7.693,0,0,0-3.493,3.421q-.088,8-.763,15.995a223.555,223.555,0,0,1-9.931,49.71C2470.956,1056.6,2469.443,1060.052,2470.666,1063.649Z" transform="translate(-2441.1 -817.17)" fill="#e7363e"/>
        <path id="Trazado_1043173" data-name="Trazado 1043173" d="M2584.307,979.43a9.944,9.944,0,0,0,.943.754,12.589,12.589,0,0,0,2.6,1.426q.661.261,1.34.475c.346.116.7.216,1.049.314a26.769,26.769,0,0,0,4.458.776c.345.031.689.056,1.035.077a38.516,38.516,0,0,0,5.311-.076c.365-.03.73-.063,1.092-.1a56.183,56.183,0,0,0,5.563-.862l.225-.045c.216-.045.43-.091.652-.139a14.864,14.864,0,0,0,6.172-2.618c.044-.03.085-.07.13-.106a3.694,3.694,0,0,0,.394-.4,3.363,3.363,0,0,0-.449-4.825,6.558,6.558,0,0,0-.908-.641s0,0-.007,0a8.252,8.252,0,0,0-1.435-.684,18.184,18.184,0,0,0-3.819-.874c-.285-.04-.573-.078-.855-.118a57.234,57.234,0,0,0-7.683-.525,63.108,63.108,0,0,0-9.538.73c-2.122.32-4.482.294-6.434,1.3a3.444,3.444,0,0,0-.757.512,2.637,2.637,0,0,0-.733,1.023c-.035.089-.063.182-.089.269C2582.085,976.727,2582.994,978.241,2584.307,979.43Z" transform="translate(-2518.399 -812.767)" fill="#bc1723"/>
        <path id="Trazado_1043174" data-name="Trazado 1043174" d="M2671.137,976.794s0,0-.007,0a7.932,7.932,0,0,0-.991.216,6.538,6.538,0,0,0-2.185,1.09,14.526,14.526,0,0,1,4.54,4.16,3.714,3.714,0,0,1-.394.4c-.045.036-.086.076-.13.106a15.484,15.484,0,0,0-6.184-4.736c-.512-.221-.25-1.035.287-.832.31.12.615.254.917.393a.511.511,0,0,1,.164-.232,6.372,6.372,0,0,1,2.542-1.251Z" transform="translate(-2575.62 -816.124)" fill="#e7363e"/>
        <path id="Trazado_1043175" data-name="Trazado 1043175" d="M2654.909,986.914a20.319,20.319,0,0,1,2.645,5.526l.225-.045c.215-.045.43-.091.652-.139a17.11,17.11,0,0,0-2.8-5.984C2655.264,985.763,2654.57,986.409,2654.909,986.914Z" transform="translate(-2568.255 -822.995)" fill="#e7363e"/>
        <path id="Trazado_1043176" data-name="Trazado 1043176" d="M2640.688,985.631c.1,1.7.247,3.4.364,5.094.046.673.077,1.348.116,2.02.364-.03.729-.062,1.092-.1-.008-.667-.035-1.336-.059-2a46.979,46.979,0,0,0-.431-5.089C2641.681,984.945,2640.654,985.015,2640.688,985.631Z" transform="translate(-2558.522 -822.337)" fill="#e7363e"/>
        <path id="Trazado_1043177" data-name="Trazado 1043177" d="M2621.84,992.028c.344.031.689.056,1.035.077.207-.82.434-1.637.687-2.444.543-1.747,1.214-3.447,1.88-5.148.132-.335-.394-.6-.564-.28a36.027,36.027,0,0,0-2.193,5.125C2622.375,990.238,2622.089,991.128,2621.84,992.028Z" transform="translate(-2545.54 -821.619)" fill="#e7363e"/>
        <path id="Trazado_1043178" data-name="Trazado 1043178" d="M2604.14,992.218c.346.116.7.216,1.049.313.284-.643.582-1.284.889-1.915.718-1.462,1.669-2.831,2.313-4.324a.264.264,0,0,0-.421-.281,17.887,17.887,0,0,0-2.8,4.156C2604.8,990.84,2604.457,991.521,2604.14,992.218Z" transform="translate(-2533.349 -822.899)" fill="#e7363e"/>
        <path id="Trazado_1043179" data-name="Trazado 1043179" d="M2588.45,985.58a9.947,9.947,0,0,0,.943.754,13.816,13.816,0,0,1,1.092-1.919,14.508,14.508,0,0,1,1.763-2.142c.331-.329.69-.637,1.009-.983a.823.823,0,0,0,.2-.981c-.157-.264-.6-.138-.525.183.036.153-.9.677-1.039.8q-.521.433-1,.915a13.583,13.583,0,0,0-1.674,2.063A13.842,13.842,0,0,0,2588.45,985.58Z" transform="translate(-2522.541 -818.917)" fill="#e7363e"/>
        <path id="Trazado_1043180" data-name="Trazado 1043180" d="M2582.85,980.147c.568-.151,1.145-.279,1.722-.377a16.729,16.729,0,0,1,1.85-.215,8.5,8.5,0,0,1,1.972.024c.4.074.51-.573.138-.694a9.9,9.9,0,0,0-4.033-.142c-.276.029-.553.067-.827.112a2.639,2.639,0,0,0-.733,1.023C2582.906,979.967,2582.878,980.06,2582.85,980.147Z" transform="translate(-2518.684 -817.843)" fill="#e7363e"/>
        <g id="Grupo_1182786" data-name="Grupo 1182786" transform="translate(67.432 143.762)">
          <path id="Trazado_1043181" data-name="Trazado 1043181" d="M2593.4,942.44c-.024.44-.045.876-.059,1.31a17.553,17.553,0,0,0,1.67.793c.4.165.814.322,1.226.465a25.76,25.76,0,0,0,3.076.847c.4.087.8.164,1.2.231.566.1,1.133.178,1.7.242.366.045.733.085,1.1.11.9.075,1.774.116,2.619.123.611.005,1.243-.011,1.883-.053.361-.02.726-.05,1.09-.086,1.062-.1,2.144-.263,3.206-.468.314-.062.626-.128.934-.2.964-.215,1.908-.473,2.8-.768.262-.131.526-.265.783-.4.294-.155.582-.32.87-.489.411-.242.815-.5,1.21-.762q-.467-2.127-.8-4.278c-.029-.168-.055-.333-.077-.5a76.231,76.231,0,0,1-.821-8.7,207.849,207.849,0,0,0-20.741-5.879l.157.745a68.578,68.578,0,0,0-2.7,13.584C2593.576,939.693,2593.47,941.074,2593.4,942.44Z" transform="translate(-2593.343 -923.977)" fill="#e8a987"/>
          <path id="Trazado_1043182" data-name="Trazado 1043182" d="M2595.42,936.012a66.009,66.009,0,0,1,2.429-11.29l-.156-.745a207.851,207.851,0,0,1,20.74,5.879c.065,1.781.2,3.559.392,5.332C2611.061,936.832,2603.069,937.5,2595.42,936.012Z" transform="translate(-2594.773 -923.976)" opacity="0.2"/>
        </g>
        <g id="Grupo_1182787" data-name="Grupo 1182787" transform="translate(124.361 72.55)">
          <path id="Trazado_1043183" data-name="Trazado 1043183" d="M2779.375,701.6a13.609,13.609,0,0,1,7.041-5.981,11.558,11.558,0,0,1,11.61,3.272,15.431,15.431,0,0,1,3.829,11.749,23.482,23.482,0,0,1-4.61,11.692,17.1,17.1,0,0,1-5.542,5.228,8.956,8.956,0,0,1-7.409.709c-3.451-1.36-5.878-5.5-6.981-8.889a22.077,22.077,0,0,1-.519-11.425A20.436,20.436,0,0,1,2779.375,701.6Z" transform="translate(-2776.277 -695.148)" fill="#e8a987"/>
          <path id="Trazado_1043184" data-name="Trazado 1043184" d="M2810.547,735.721c1.154-1.277,2.78-2.4,4.474-2.093,1.861.336,3.013,2.257,3.449,4.1a11.362,11.362,0,0,1-7.333,13.349,3.762,3.762,0,0,1-1.775.261c-2.6-.4-2.466-5.973-2.248-7.863A14,14,0,0,1,2810.547,735.721Z" transform="translate(-2797.443 -721.618)" fill="#d17656"/>
          <path id="Trazado_1043185" data-name="Trazado 1043185" d="M2815.024,733.629c-1.694-.306-3.319.816-4.474,2.093a14,14,0,0,0-3.433,7.75c-.168,1.457-.283,5.1.862,6.879a26.909,26.909,0,0,1,.427-4.159,11.573,11.573,0,0,1,10.058-8.5C2818.021,735.862,2816.873,733.962,2815.024,733.629Z" transform="translate(-2797.446 -721.618)" opacity="0.2"/>
          <path id="Trazado_1043186" data-name="Trazado 1043186" d="M2777.31,719.395a22.067,22.067,0,0,1-.52-11.425,20.434,20.434,0,0,1,2.582-6.357,13.613,13.613,0,0,1,7.042-5.981,10.117,10.117,0,0,1,4.138-.413c-1.841,8.924,1.85,18.944,6.9,26.829-.069.1-.138.2-.208.3a17.108,17.108,0,0,1-5.542,5.228,8.957,8.957,0,0,1-7.409.709C2780.842,726.922,2778.415,722.786,2777.31,719.395Z" transform="translate(-2776.275 -695.159)" opacity="0.2"/>
        </g>
        <path id="Trazado_1043187" data-name="Trazado 1043187" d="M2430.76,640.87c1,15.388,2.188,31,7.43,45.5s15.115,28.008,29.225,34.228c13.937,6.145,30.027,4.514,44.909,1.252,9.983-2.189,19.987-5.137,28.526-10.754s15.522-14.256,17.172-24.341c.033-.2.062-.395.088-.594.121-.845.205-1.693.254-2.538.417-7.061-1.553-14.1-4.192-20.848q-.645-1.649-1.333-3.278c-.454-1.076-.92-2.143-1.386-3.2-.6-1.36-1.21-2.73-1.81-4.1-3.634-8.291-7.016-16.836-6.811-25.8,0-.075,0-.146,0-.222-17.72-6.2-40.77-6.729-59.186-3.089S2447.926,633.277,2430.76,640.87Z" transform="translate(-2413.925 -571.391)" fill="#e8a987"/>
        <path id="Trazado_1043188" data-name="Trazado 1043188" d="M2602.541,732.255c1.785-2.43,4.5-4.364,7.509-4.47a3.563,3.563,0,0,1,3.442,1.615c.585,1.228-.033,2.685-.8,3.812a26.805,26.805,0,0,1-8.462,7.462,7.6,7.6,0,0,1-2.333,1.032c-1.632.336-3.019-.386-2.792-2.162C2599.417,737.131,2601.125,734.182,2602.541,732.255Z" transform="translate(-2529.867 -645.076)" fill="#472209"/>
        <path id="Trazado_1043189" data-name="Trazado 1043189" d="M2564.916,794.918a11.926,11.926,0,0,1,4.08,12.963c-2.184,6.416-10.255,10.388-17.583,8.172a16.65,16.65,0,0,1-11.4-13.167c-1.421-11.249,14.1-13.98,23.042-9.189A12.488,12.488,0,0,1,2564.916,794.918Z" transform="translate(-2489.116 -688.923)" fill="#e7363e" opacity="0.2"/>
        <path id="Trazado_1043190" data-name="Trazado 1043190" d="M2798.919,766.427a12.273,12.273,0,0,0,10.215,2.821c.417-7.061-1.552-14.1-4.191-20.848q-.646-1.649-1.333-3.278a16.142,16.142,0,0,0-7.577,7,10.858,10.858,0,0,0-.737,1.826A12.386,12.386,0,0,0,2798.919,766.427Z" transform="translate(-2664.696 -657.02)" fill="#e7363e" opacity="0.2"/>
        <path id="Trazado_1043191" data-name="Trazado 1043191" d="M2713.7,781.937a10.292,10.292,0,0,1,8.621.24,8.1,8.1,0,0,1,4.456,6.383,6.518,6.518,0,0,1-1.124,4.375.546.546,0,0,1-.912-.6,6.266,6.266,0,0,0-.13-6.625,8.355,8.355,0,0,0-6.1-3.538,14.213,14.213,0,0,0-4.643.248C2713.589,782.483,2713.416,782.047,2713.7,781.937Z" transform="translate(-2608.712 -681.808)" fill="#d17656"/>
        <path id="Trazado_1043192" data-name="Trazado 1043192" d="M2486.853,861.648a76.394,76.394,0,0,0,29.668,5.218c19.353-1.158,42.849-9.1,54.487-22.795a42.232,42.232,0,0,1-13.179,13.549c-8.537,5.618-18.542,8.564-28.526,10.753-14.881,3.262-30.969,4.893-44.909-1.253-13.9-6.13-23.687-19.325-28.985-33.584C2464.3,844.249,2472.853,856.014,2486.853,861.648Z" transform="translate(-2430.903 -717.919)" opacity="0.1"/>
        <path id="Trazado_1043193" data-name="Trazado 1043193" d="M2745.393,751.9a3.157,3.157,0,0,1,2.948-.777,6.425,6.425,0,0,1,2.923,1.85,9.57,9.57,0,0,1,1.234,1.486c.265.4.864,1.116.567,1.6a.344.344,0,0,1-.3.173.422.422,0,0,1-.371-.221.323.323,0,0,1-.04-.189c-.052-.068-.12-.167-.138-.193-.089-.129-.18-.257-.276-.382-.166-.216-.339-.428-.516-.636a10.482,10.482,0,0,0-1.233-1.229c-.825-.7-1.991-1.443-3.116-1.1a2.447,2.447,0,0,0-1.508,2.027,7.859,7.859,0,0,0,.738,3.514c.234.7-.812,1.114-1.176.5C2743.993,756.4,2743.623,753.591,2745.393,751.9Z" transform="translate(-2629.801 -661.092)" fill="#472209"/>
        <path id="Trazado_1043194" data-name="Trazado 1043194" d="M2635.785,774.987a3.237,3.237,0,0,0-3.068,1.289,6.921,6.921,0,0,0-1.106,3.688,11.136,11.136,0,0,0,.054,2.205c.074.551.094,1.614.706,1.861a.37.37,0,0,0,.385-.046.455.455,0,0,0,.151-.456.413.413,0,0,0-.106-.2c-.006-.1-.022-.235-.026-.272-.02-.179-.037-.359-.048-.539-.019-.312-.029-.625-.033-.935a11.836,11.836,0,0,1,.135-1.968c.185-1.2.619-2.68,1.825-3.128a2.869,2.869,0,0,1,2.773.839,9.959,9.959,0,0,1,1.972,3.734.706.706,0,0,0,1.361-.343C2640.3,778.173,2638.533,775.335,2635.785,774.987Z" transform="translate(-2552.249 -677.571)" fill="#472209"/>
        <path id="Trazado_1043195" data-name="Trazado 1043195" d="M2654.618,842.41a12.913,12.913,0,0,1,1.448-1.376q.412-.327.834-.642c.132-.1.272-.182.412-.269a1,1,0,0,1,.538-.226.331.331,0,0,1,.313.411,1.037,1.037,0,0,1-.317.465c-.1.118-.2.242-.312.355-.043.045-.084.09-.128.134.007.008.015.013.022.021a26.285,26.285,0,0,0,4.5,4.551,20.084,20.084,0,0,0,5.682,2.956,19.723,19.723,0,0,0,13.536-.536,19.982,19.982,0,0,0,3.412-1.808,9.554,9.554,0,0,0,2.873-2.762.312.312,0,0,1,.539.315,12.435,12.435,0,0,1-5.313,4.853,20.642,20.642,0,0,1-7.16,2.241,20.424,20.424,0,0,1-13.745-3.2,17.766,17.766,0,0,1-5.5-5.412c-.258.263-.517.525-.774.789a.605.605,0,0,1-.856-.856Z" transform="translate(-2567.999 -722.301)" fill="#d17656"/>
        <g id="Grupo_1182788" data-name="Grupo 1182788" transform="translate(115.604 148.362)">
          <path id="Trazado_1043196" data-name="Trazado 1043196" d="M2766.005,1066.81c-8.257,12.186-12.681,26.513-16.584,40.706-.758,2.755-1.507,5.589-1.219,8.432.113,1.113.615,2.432,1.724,2.577a2.537,2.537,0,0,0,2-.989,20.911,20.911,0,0,0,3.464-5.409c6.653-13.433,11.372-27.724,16.068-41.959A18.063,18.063,0,0,0,2766.005,1066.81Z" transform="translate(-2748.139 -1026.959)" fill="#af5231"/>
          <path id="Trazado_1043197" data-name="Trazado 1043197" d="M2763.19,1094.74c-5.145,10.058-8.47,21.074-11.479,32.015q-.126.457-.25.918c2.428-2.27,5.871-3.031,9.294-2.864,3.194-7.192,5.941-14.579,8.515-22.031A24.836,24.836,0,0,1,2763.19,1094.74Z" transform="translate(-2750.428 -1046.197)" opacity="0.2"/>
          <path id="Trazado_1043198" data-name="Trazado 1043198" d="M2800.037,1078.115q1.33-3.969,2.635-7.944a18.017,18.017,0,0,0-5.456-3.358c-1.354,2-2.6,4.053-3.764,6.156a8.962,8.962,0,0,0,1.091,1.562A15.037,15.037,0,0,0,2800.037,1078.115Z" transform="translate(-2779.351 -1026.961)" opacity="0.2"/>
          <path id="Trazado_1043199" data-name="Trazado 1043199" d="M2804.607,1025.09a88.327,88.327,0,0,0-9.716,15.1,9.548,9.548,0,0,0,4.195,4.2,9.887,9.887,0,0,0,6,.768c1.489-5.813,2.99-11.8,4.479-17.612C2807.921,1026.833,2806.247,1025.806,2804.607,1025.09Z" transform="translate(-2780.342 -998.223)" fill="#bae8e7"/>
          <path id="Trazado_1043200" data-name="Trazado 1043200" d="M2822.9,968.885a28.526,28.526,0,0,0-6.385,7.565,12.072,12.072,0,0,0-1.048,9.607c1.137,3.116,4.319,5.565,7.619,5.231,2.935-.3,5.3-2.578,6.9-5.054A22.37,22.37,0,0,0,2833.528,973,51.325,51.325,0,0,0,2822.9,968.885Z" transform="translate(-2794.118 -959.509)" fill="#dd916f"/>
          <path id="Trazado_1043201" data-name="Trazado 1043201" d="M2798.039,1055.44q-1.672,2.77-3.141,5.656a9.552,9.552,0,0,0,4.195,4.2,9.889,9.889,0,0,0,6,.768c.16-.625.321-1.26.482-1.889a11.411,11.411,0,0,1-3.245-1.911A13.764,13.764,0,0,1,2798.039,1055.44Z" transform="translate(-2780.346 -1019.127)" opacity="0.2"/>
          <path id="Trazado_1043202" data-name="Trazado 1043202" d="M2830.58,966.084a27.938,27.938,0,0,0-8.272,14.15,17.551,17.551,0,0,0-.6,4.593c.008.247.41.348.459.073.234-1.309.39-2.628.681-3.928a27.906,27.906,0,0,1,5.146-10.951,29.484,29.484,0,0,1,3.087-3.4A.368.368,0,0,0,2830.58,966.084Z" transform="translate(-2798.809 -957.512)" fill="#c46f4e"/>
          <path id="Trazado_1043203" data-name="Trazado 1043203" d="M2839.8,977.3c-1.211,2.48-2.369,4.987-3.508,7.5s-2.384,5-3.312,7.6a.256.256,0,0,0,.46.209c1.392-2.381,2.5-4.942,3.693-7.427s2.365-4.989,3.486-7.511C2840.827,977.208,2840.027,976.84,2839.8,977.3Z" transform="translate(-2806.569 -965.159)" fill="#c46f4e"/>
          <path id="Trazado_1043204" data-name="Trazado 1043204" d="M2850.487,976.747c.077-.53-.829-.677-.937-.149a46.024,46.024,0,0,1-2.043,7.244,39.735,39.735,0,0,1-3.4,6.741c-.755,1.211-1.63,2.339-2.406,3.534a.241.241,0,0,0,.366.3,19.845,19.845,0,0,0,2.436-2.977,32.677,32.677,0,0,0,2.031-3.26,37.39,37.39,0,0,0,2.984-7.129A30.223,30.223,0,0,0,2850.487,976.747Z" transform="translate(-2812.557 -964.594)" fill="#c46f4e"/>
          <path id="Trazado_1043205" data-name="Trazado 1043205" d="M2819.7,988.4c-1.811-1.907-2-4.688-.214-7.217a2.324,2.324,0,0,1,2.156-.373,11.826,11.826,0,0,0,10.063,2.218,22.376,22.376,0,0,0,1.826-10.03,51.394,51.394,0,0,0-10.623-4.116,28.524,28.524,0,0,0-6.386,7.565,12.073,12.073,0,0,0-1.048,9.607c1.138,3.116,4.318,5.565,7.619,5.23a6.577,6.577,0,0,0,1.289-.269A8.9,8.9,0,0,1,2819.7,988.4Z" transform="translate(-2794.123 -959.505)" opacity="0.2"/>
          <path id="Trazado_1043206" data-name="Trazado 1043206" d="M2828.244,945.075c-.976.747-2.06,1.34-3.049,2.07a6.6,6.6,0,0,0-2.348,2.777,3.306,3.306,0,0,0,.519,3.45,2.237,2.237,0,0,0,3.247-.027,3.928,3.928,0,0,0,.925,4.223,2.611,2.611,0,0,0,3.916-.653,1.923,1.923,0,0,0,.7,2.937,2.955,2.955,0,0,0,3.227-.815,6.752,6.752,0,0,0,1.5-3.17c.047,1.426.813,3.109,2.238,3.179a2.308,2.308,0,0,0,1.926-1.076,5.345,5.345,0,0,0,.755-2.158,16.481,16.481,0,0,0-1.552-10.176c-1.288-2.526-3.659-5.579-6.361-6.712-1.719-.721-1.682,1.027-2.371,2.3A12.084,12.084,0,0,1,2828.244,945.075Z" transform="translate(-2799.42 -938.756)" fill="#a57bb7"/>
          <path id="Trazado_1043207" data-name="Trazado 1043207" d="M2831.169,969.266a10.815,10.815,0,0,1-4.55-6.628c-.48.309-.96.618-1.419.957a6.6,6.6,0,0,0-2.348,2.777,3.306,3.306,0,0,0,.519,3.45,2.237,2.237,0,0,0,3.247-.027,3.928,3.928,0,0,0,.925,4.223,2.722,2.722,0,0,0,3.592-.162,1.376,1.376,0,0,1,.324-.491,1.932,1.932,0,0,1-.324.491,2.031,2.031,0,0,0,1.02,2.446,2.956,2.956,0,0,0,3.228-.814,6.755,6.755,0,0,0,1.5-3.17c.047,1.426.813,3.109,2.238,3.179a2.307,2.307,0,0,0,1.926-1.076,5.338,5.338,0,0,0,.755-2.158,16.015,16.015,0,0,0,.192-1.675A12.688,12.688,0,0,1,2831.169,969.266Z" transform="translate(-2799.423 -955.206)" opacity="0.2"/>
          <path id="Trazado_1043208" data-name="Trazado 1043208" d="M2855.73,950.028a2.45,2.45,0,0,0-.886-.44.973.973,0,0,0-.918.25,1.441,1.441,0,0,0-.013,1.456,17.367,17.367,0,0,0,5.6,7.522,2.909,2.909,0,0,0,.926.531,1.052,1.052,0,0,0,1.083-.274c.68-.839-.392-2.285-.841-3.019C2859.324,953.843,2857.88,951.538,2855.73,950.028Z" transform="translate(-2820.863 -946.201)" fill="#fff" opacity="0.2"/>
        </g>
        <g id="Grupo_1182789" data-name="Grupo 1182789" transform="translate(113.849 163.015)">
          <path id="Trazado_1043209" data-name="Trazado 1043209" d="M2773,1082.64c-11.243,9.5-19.376,22.1-26.97,34.707-1.474,2.448-2.961,4.974-3.452,7.788-.192,1.1-.066,2.508.963,2.947a2.538,2.538,0,0,0,2.2-.41,20.915,20.915,0,0,0,4.8-4.271c10.037-11.135,18.442-23.618,26.812-36.054A17.925,17.925,0,0,0,2773,1082.64Z" transform="translate(-2742.499 -1052.517)" fill="#af5231"/>
          <path id="Trazado_1043210" data-name="Trazado 1043210" d="M2773,1082.64c-11.243,9.5-19.376,22.1-26.97,34.707-1.474,2.448-2.961,4.974-3.452,7.788-.192,1.1-.066,2.508.963,2.947a2.538,2.538,0,0,0,2.2-.41,20.915,20.915,0,0,0,4.8-4.271c10.037-11.135,18.442-23.618,26.812-36.054A17.925,17.925,0,0,0,2773,1082.64Z" transform="translate(-2742.499 -1052.517)" opacity="0.2"/>
          <path id="Trazado_1043211" data-name="Trazado 1043211" d="M2841.842,1048.02a88.367,88.367,0,0,0-13.436,11.913,9.546,9.546,0,0,0,2.9,5.179,9.887,9.887,0,0,0,5.566,2.36c3.006-5.194,6.068-10.551,9.073-15.746C2844.559,1050.594,2843.227,1049.153,2841.842,1048.02Z" transform="translate(-2801.672 -1028.67)" fill="#bae8e7"/>
          <path id="Trazado_1043212" data-name="Trazado 1043212" d="M2874.588,997.838a28.527,28.527,0,0,0-8.193,5.557,12.072,12.072,0,0,0-3.6,8.965c.253,3.308,2.654,6.525,5.922,7.1,2.906.507,5.8-1.051,8.009-3a22.366,22.366,0,0,0,6.983-11.783A51.639,51.639,0,0,0,2874.588,997.838Z" transform="translate(-2825.336 -994.105)" fill="#dd916f"/>
          <path id="Trazado_1043213" data-name="Trazado 1043213" d="M2832.954,1071.54q-2.358,2.214-4.552,4.6a9.546,9.546,0,0,0,2.9,5.179,9.887,9.887,0,0,0,5.566,2.36l.975-1.688a11.406,11.406,0,0,1-2.608-2.718A13.793,13.793,0,0,1,2832.954,1071.54Z" transform="translate(-2801.668 -1044.871)" opacity="0.2"/>
          <path id="Trazado_1043214" data-name="Trazado 1043214" d="M2880.546,997.848a27.932,27.932,0,0,0-11.789,11.387,17.542,17.542,0,0,0-1.819,4.26c-.059.24.3.446.422.194.579-1.2,1.085-2.425,1.718-3.6a27.882,27.882,0,0,1,7.914-9.153,29.494,29.494,0,0,1,3.891-2.439A.367.367,0,0,0,2880.546,997.848Z" transform="translate(-2828.207 -994.083)" fill="#c46f4e"/>
          <path id="Trazado_1043215" data-name="Trazado 1043215" d="M2888.445,1009.97c-1.836,2.06-3.629,4.161-5.405,6.273s-3.648,4.174-5.243,6.422a.256.256,0,0,0,.386.325c1.984-1.916,3.744-4.081,5.563-6.153s3.625-4.164,5.386-6.289C2889.457,1010.16,2888.785,1009.588,2888.445,1009.97Z" transform="translate(-2835.662 -1002.375)" fill="#c46f4e"/>
          <path id="Trazado_1043216" data-name="Trazado 1043216" d="M2897.341,1013.006c.217-.49-.615-.876-.863-.4a45.967,45.967,0,0,1-3.925,6.422,39.833,39.833,0,0,1-5.1,5.571c-1.054.962-2.2,1.811-3.271,2.752a.241.241,0,0,0,.27.391,19.813,19.813,0,0,0,3.15-2.207,32.616,32.616,0,0,0,2.837-2.591,37.388,37.388,0,0,0,4.8-6.057A30.528,30.528,0,0,0,2897.341,1013.006Z" transform="translate(-2840.039 -1004.128)" fill="#c46f4e"/>
          <path id="Trazado_1043217" data-name="Trazado 1043217" d="M2866.22,1015.767c-1.228-2.325-.655-5.053,1.745-7.006a2.325,2.325,0,0,1,2.177.223,11.825,11.825,0,0,0,9.088,4.856,22.371,22.371,0,0,0,4.469-9.163,51.413,51.413,0,0,0-9.115-6.834,28.532,28.532,0,0,0-8.193,5.557,12.074,12.074,0,0,0-3.605,8.966c.253,3.308,2.654,6.525,5.922,7.1a6.554,6.554,0,0,0,1.313.089A8.956,8.956,0,0,1,2866.22,1015.767Z" transform="translate(-2825.333 -994.108)" opacity="0.2"/>
          <path id="Trazado_1043218" data-name="Trazado 1043218" d="M2889.218,986.065c2.85-.519,6.232-.245,7.988,2.06,1.65,2.166,1.193,5.31-.024,7.746a15.515,15.515,0,0,0-1.83,4.142c-.566,3.319,2.163,6.765.948,9.905a2.536,2.536,0,0,1-2.716,1.783c-1.258-.324-1.719-1.869-1.76-3.167s.075-2.743-.761-3.737c-.888-1.057-2.451-1.134-3.828-1.248s-2.983-.532-3.463-1.828.328-3.076-.763-3.908c-1.124-.857-2.663.495-4.073.406a2.723,2.723,0,0,1-2.209-1.9c-1.122-3.1,1.777-5.094,4.048-6.7A21.363,21.363,0,0,1,2889.218,986.065Z" transform="translate(-2834.782 -985.843)" fill="#cbd86f"/>
          <path id="Trazado_1043219" data-name="Trazado 1043219" d="M2896.245,1009.969A23.037,23.037,0,0,1,2885,998.49a14.185,14.185,0,0,1-1.052-6.427,21.626,21.626,0,0,0-3.175,1.851c-2.271,1.6-5.17,3.593-4.047,6.7a2.72,2.72,0,0,0,2.209,1.9c1.41.088,2.949-1.263,4.073-.406,1.09.832.287,2.622.763,3.908s2.086,1.714,3.463,1.828,2.94.191,3.829,1.248c.835.994.72,2.439.761,3.737s.5,2.843,1.76,3.167a2.537,2.537,0,0,0,2.716-1.783A6.861,6.861,0,0,0,2896.245,1009.969Z" transform="translate(-2834.784 -990.127)" opacity="0.2"/>
          <path id="Trazado_1043220" data-name="Trazado 1043220" d="M2927.167,995.567a6.142,6.142,0,0,0-1.27-5.366,4.179,4.179,0,0,0-5.195-.821,1.858,1.858,0,0,0-.87,2.205c.421.828,1.565.9,2.337,1.413a3.542,3.542,0,0,1,1.167,3.345,10.114,10.114,0,0,0-.15,2.417c.2,1.366,1.167,2.119,2.053.917A10.637,10.637,0,0,0,2927.167,995.567Z" transform="translate(-2864.556 -987.881)" fill="#fff" opacity="0.3"/>
        </g>
        <g id="Grupo_1182790" data-name="Grupo 1182790" transform="translate(82.227 182.045)">
          <path id="Trazado_1043221" data-name="Trazado 1043221" d="M2654.561,1057.46l.053.1,2.178,3.333-5.685,2.788-1.447-4.077Z" transform="translate(-2646.93 -1054.202)" fill="#90d1ce"/>
          <path id="Trazado_1043222" data-name="Trazado 1043222" d="M2660.313,1106.693c-4.592-9.323-14.584-31.524-15.484-34.982-1.145-4.4,2.756-5.937,4.807-7.045s6.261-3.26,8.494-.045c4.247,6.118,14.7,24.144,19.108,32.715A59.063,59.063,0,0,1,2660.313,1106.693Z" transform="translate(-2643.459 -1057.968)" fill="#bae8e7"/>
          <path id="Trazado_1043223" data-name="Trazado 1043223" d="M2711.966,1173.49c1.344,2.615,2.124,4.35,1.993,4.6-.563,1.061-15.917,8.849-16.661,8.873a22.274,22.274,0,0,1-2.259-4.115A59,59,0,0,0,2711.966,1173.49Z" transform="translate(-2678.186 -1134.123)" fill="#90d1ce"/>
          <path id="Trazado_1043224" data-name="Trazado 1043224" d="M2681.288,1108.161c2.943,6,2.844,12.011-.79,13.793s-8.4-1.992-11.347-7.994-2.941-11.959.693-13.74S2678.344,1102.158,2681.288,1108.161Z" transform="translate(-2658.89 -1083.346)" fill="#cbd86f"/>
          <path id="Trazado_1043225" data-name="Trazado 1043225" d="M2648.962,1047.075s1.667,3.232,1.5,3.573-7.4,3.935-7.705,3.783a22.255,22.255,0,0,1-1.865-3.22C2640.551,1050.513,2648.492,1046.353,2648.962,1047.075Z" transform="translate(-2640.885 -1046.991)" fill="#c8a9d8"/>
          <path id="Trazado_1043226" data-name="Trazado 1043226" d="M2664.136,1079.177c-4.223-5.921-11.018-10.764-18.543-10.594.841-2.114,3.247-3.126,4.712-3.917,2.052-1.108,6.262-3.26,8.494-.045,4.248,6.118,14.7,24.144,19.109,32.715,1.344,2.615,2.124,4.35,1.993,4.6-.293.553-4.605,2.934-8.773,5.09C2673.47,1097.731,2669.748,1087.044,2664.136,1079.177Z" transform="translate(-2644.128 -1057.968)" opacity="0.2"/>
          <path id="Trazado_1043227" data-name="Trazado 1043227" d="M2669.5,1118.613a4.011,4.011,0,0,1,.134,1.914c-.755,2.438-3.482-.331-4.247-1.763-3.089-5.782-6.159-11.78-7.778-18.17-.255-1-.441-2.429.882-2.709s2.264,1.12,2.8,2.125C2662.172,1101.655,2669.352,1117.909,2669.5,1118.613Z" transform="translate(-2652.278 -1082.022)" fill="#fff" opacity="0.4"/>
        </g>
        <g id="Grupo_1182791" data-name="Grupo 1182791" transform="translate(105.53 169.597)">
          <path id="Trazado_1043228" data-name="Trazado 1043228" d="M2743.32,1016.913c.016-3.128,1.625-5.513,4.042-7.5a10.848,10.848,0,0,1,8.806-2.237,8.517,8.517,0,0,1,6.7,5.7c.939,3.431-.813,7.437,1.013,10.49.807,1.349,2.2,2.269,2.995,3.627a4.933,4.933,0,0,1-3.015,7.253,5.881,5.881,0,0,1-5.345-1.507,8.823,8.823,0,0,1-2.541-5.09,18.061,18.061,0,0,1,.167-5.766,21.285,21.285,0,0,0,.517-4.892,5.268,5.268,0,0,0-2.218-4.2,3.284,3.284,0,0,0-4.415.328c-1.469,1.271-1.4,2.3-1.749,4.205C2747.276,1017.025,2744.319,1017.218,2743.32,1016.913Z" transform="translate(-2734.746 -1006.992)" fill="#a57bb7"/>
          <path id="Trazado_1043229" data-name="Trazado 1043229" d="M2746.107,1039.632v.112l.333,3.968-6.33-.249.666-4.273Z" transform="translate(-2732.534 -1029.17)" fill="#90d1ce"/>
          <path id="Trazado_1043230" data-name="Trazado 1043230" d="M2716.01,1090.117c.182-4.843,2.871-12.533,3.418-19.9.626-8.431-.871-16.385-.416-18.237,1.083-4.413,5.246-3.914,7.578-3.914s7.059.108,7.495,4c.441,3.933-1.151,11.749-.916,19.57.207,6.9,2.274,13.781,2.181,18.3A58.966,58.966,0,0,1,2716.01,1090.117Z" transform="translate(-2715.934 -1035.272)" fill="#bae8e7"/>
          <path id="Trazado_1043231" data-name="Trazado 1043231" d="M2735.184,1182.63c-.061,2.939-.2,4.837-.432,4.993-1,.666-18.21.222-18.876-.111a22.354,22.354,0,0,1-.031-4.694A59.072,59.072,0,0,0,2735.184,1182.63Z" transform="translate(-2715.767 -1127.971)" fill="#90d1ce"/>
          <path id="Trazado_1043232" data-name="Trazado 1043232" d="M2743.437,1096.758c-.263,6.679-1.124,11.753-5.168,11.594s-2.923-6.5-2.659-13.176-.431-11.17,3.613-11.011S2743.7,1090.079,2743.437,1096.758Z" transform="translate(-2729.198 -1060.146)" fill="#a57bb7"/>
          <path id="Trazado_1043233" data-name="Trazado 1043233" d="M2747.494,1034.589a7.031,7.031,0,0,1-.208,1.666c-.146.083-5.725-.292-5.809-.354a7.2,7.2,0,0,1-.094-1.707C2741.435,1033.839,2747.494,1034.163,2747.494,1034.589Z" transform="translate(-2733.402 -1025.624)" fill="#bae8e7"/>
          <path id="Trazado_1043234" data-name="Trazado 1043234" d="M2760.011,1053.68a3.744,3.744,0,0,1,1.026,2.264c.44,3.933-1.151,11.749-.916,19.57.207,6.9,2.274,13.781,2.181,18.3a46.365,46.365,0,0,1-7.165.843,17.949,17.949,0,0,0,2.236-6.62C2759.575,1076.731,2756.192,1064.034,2760.011,1053.68Z" transform="translate(-2742.884 -1039.151)" opacity="0.2"/>
          <path id="Trazado_1043235" data-name="Trazado 1043235" d="M2741.542,1183.465a46.216,46.216,0,0,0,7.165-.843c-.061,2.94-.2,4.838-.432,4.993-.625.416-7.58.4-12.872.246a11.669,11.669,0,0,0,2.831-1.232A8.9,8.9,0,0,0,2741.542,1183.465Z" transform="translate(-2729.292 -1127.966)" opacity="0.2"/>
          <path id="Trazado_1043236" data-name="Trazado 1043236" d="M2734.868,1054.8a4.759,4.759,0,0,0-3.93,2.073c-.8,1.347-.608,3.032-.395,4.582q.843,6.14,1.686,12.28c.059.429.235.97.668.981.3.008.529-.27.683-.532a9.032,9.032,0,0,0,.735-5.936c-.309-2.01-.912-3.98-1.021-6.011a4.069,4.069,0,0,1,1.207-3.569,4.587,4.587,0,0,1,1.909-.684,5.355,5.355,0,0,0,1.933-.625c.791-.511,1.354-1.664.208-2A11.414,11.414,0,0,0,2734.868,1054.8Z" transform="translate(-2725.817 -1039.919)" fill="#fff" opacity="0.4"/>
          <path id="Trazado_1043237" data-name="Trazado 1043237" d="M2745.973,1021.735c3.261-2.609,7.272-4.983,10.534-1.395,3.588,3.914,2.186,8.244,2.512,13.137a3.868,3.868,0,0,0,6.523,2.609,8.794,8.794,0,0,0,1.152-1.429c.061.091.125.18.181.275a4.934,4.934,0,0,1-3.015,7.253,5.882,5.882,0,0,1-5.345-1.507,8.824,8.824,0,0,1-2.541-5.09,18.056,18.056,0,0,1,.167-5.767,21.281,21.281,0,0,0,.517-4.892,5.269,5.269,0,0,0-2.218-4.2,3.284,3.284,0,0,0-4.415.328c-1.469,1.271-1.4,2.295-1.749,4.205-1-.306-3.955-.111-4.955-.417a8.415,8.415,0,0,1,.39-2.508A2.324,2.324,0,0,0,2745.973,1021.735Z" transform="translate(-2734.747 -1014.929)" opacity="0.2"/>
          <path id="Trazado_1043238" data-name="Trazado 1043238" d="M2763.794,1009.123a9.062,9.062,0,0,1,6.1,2.055,4.731,4.731,0,0,1,1.5,1.944.951.951,0,0,1-.128,1.065.724.724,0,0,1-.628.1,2.016,2.016,0,0,1-.588-.294,15.747,15.747,0,0,0-4.3-2.393c-3.537-.959-5.664.592-6.792.835-.382.082-1.021.077-1.026-.463-.005-.483.592-.866.929-1.112a9.116,9.116,0,0,1,3.048-1.452A8.906,8.906,0,0,1,2763.794,1009.123Z" transform="translate(-2744.807 -1008.455)" fill="#fff" opacity="0.2"/>
        </g>
        <path id="Trazado_1043239" data-name="Trazado 1043239" d="M2524.84,1067.12a287.725,287.725,0,0,0,14.844,25.477q1.179,1.791,2.411,3.565c7.573,10.923,16.291,20.881,23.2,21.465,6.964.587,34.994-13.931,35.936-13.516,3.832,1.68,7.156,4.344,11.259,3.519,1.432-.29,3.024-.907,3.5-2.29a3.2,3.2,0,0,0-.724-2.974,9.431,9.431,0,0,0-2.534-1.927,8.518,8.518,0,0,0,5.6-3.314,4.36,4.36,0,0,0,.962-3.056,3.914,3.914,0,0,0-2.137-2.743,11.617,11.617,0,0,0-3.451-1c1.236-.978,2.747-2.019,2.75-3.594a4.212,4.212,0,0,0-2.639-3.686,6.922,6.922,0,0,0-4.707-.072,20.617,20.617,0,0,0-4.309,2.091c.277-1.412.728-3.379.245-4.736a3.638,3.638,0,0,0-3.161-2.541c-1.494-.013-2.727,1.154-3.6,2.364a15.752,15.752,0,0,0-2.958,9.4l-1.009.293c-.361.1-.727.209-1.092.307-.731.209-1.468.408-2.2.6-.355.1-.711.189-1.067.281q-2.24.577-4.51,1.09a146.092,146.092,0,0,1-14.854,2.564l-10.747-16.882-1.63-2.56-19.283-6.23Z" transform="translate(-2478.727 -878.811)" fill="#e8a987"/>
        <path id="Trazado_1043240" data-name="Trazado 1043240" d="M2842.9,1095.95a4.445,4.445,0,0,0-2.541.037,2.059,2.059,0,0,0-1.4,1.955,2.33,2.33,0,0,0,.879,1.494c.449.387.973.678,1.442,1.04,1.306,1.009,2.282,2.619,3.9,2.939a2.869,2.869,0,0,0,2.993-1.408C2849.983,1098.686,2845.365,1096.5,2842.9,1095.95Z" transform="translate(-2695.092 -898.554)" fill="#e8a987"/>
        <path id="Trazado_1043241" data-name="Trazado 1043241" d="M2833,1106.232a2.794,2.794,0,0,0-1.851.233,2.1,2.1,0,0,0-.923,1.568,4,4,0,0,0,.3,1.843,7.521,7.521,0,0,0,3.4,3.913,4.525,4.525,0,0,0,3.451.529c2.094-.657,2.353-2.76,1.335-4.353A8.329,8.329,0,0,0,2833,1106.232Z" transform="translate(-2689.064 -905.715)" fill="#e8a987"/>
        <path id="Trazado_1043242" data-name="Trazado 1043242" d="M2822.336,1121.725a3.691,3.691,0,0,0-1.848-.571,1.784,1.784,0,0,0-1.6.934,2.449,2.449,0,0,0,.166,1.932,9.5,9.5,0,0,0,3,3.875,3.084,3.084,0,0,0,2.127.788C2828.834,1128.149,2824.035,1122.693,2822.336,1121.725Z" transform="translate(-2681.169 -916.03)" fill="#e8a987"/>
        <path id="Trazado_1043243" data-name="Trazado 1043243" d="M2572.54,1116.234q1.179,1.791,2.41,3.565c3.663.231,8.272-2.384,14.005-1.686,7.12.871,8.549,10.884,22.3,7.808,8.05-1.8,13.086-5.669,15.927-12.44,0,0,0,0,0-.006l-1.1.313q-1.1.308-2.2.6c-.356.095-.711.189-1.067.28q-2.241.577-4.511,1.09a146.088,146.088,0,0,1-14.854,2.564l-10.747-16.882a25.98,25.98,0,0,1-9.247,2.486C2584.051,1104.408,2575.776,1112.465,2572.54,1116.234Z" transform="translate(-2511.583 -902.45)" opacity="0.2"/>
        <path id="Trazado_1043244" data-name="Trazado 1043244" d="M2752.984,1122.26q-.223.864-.477,1.716A16.518,16.518,0,0,1,2752.984,1122.26Z" transform="translate(-2635.544 -916.791)" opacity="0.1"/>
        <path id="Trazado_1043245" data-name="Trazado 1043245" d="M2506.181,1014.176a46.977,46.977,0,0,0,2.8,8.584,134.524,134.524,0,0,0,12.837,21.974c1.641.577,6.833-.868,13.608-3.986.1-.042.2-.088.293-.134,6.921-3.21,13.464-9.869,14.224-11.572s-4.286-10.118-12.456-22.375c-6.973-10.457-15.59-14.025-22.834-13.056q-.744.1-1.467.261a.012.012,0,0,0-.01,0,16.153,16.153,0,0,0-2.12.623,6.19,6.19,0,0,0-.6.255.009.009,0,0,0-.01.006,7.692,7.692,0,0,0-3.493,3.421C2504.853,1002.027,2504.822,1008.049,2506.181,1014.176Z" transform="translate(-2465.234 -828.074)" fill="#bc1723"/>
        <path id="Trazado_1043246" data-name="Trazado 1043246" d="M2515.034,1078c10.1,9.237,27.869,11.574,38.378,2.72,1.273,2.477,1.842,4.128,1.552,4.782-.76,1.7-7.3,8.363-14.224,11.572-.1.046-.2.091-.294.134-6.774,3.118-11.967,4.563-13.607,3.986A134.539,134.539,0,0,1,2514,1079.215c-.539-1.231-1.025-2.5-1.458-3.793C2513.339,1076.3,2514.167,1077.161,2515.034,1078Z" transform="translate(-2470.257 -884.53)" opacity="0.3"/>
        <path id="Trazado_1043247" data-name="Trazado 1043247" d="M2532.357,1182.8c-.561,2.722-2.166,5.089-3.514,7.52-1.033,1.862-2.167,4-4.228,4.536-1.956.51-3.926-.656-5.558-1.849-2.174-1.588-4.466-3.881-3.963-6.526a18.272,18.272,0,0,1,1.322-3.127c.648-1.647.6-3.489,1.143-5.174a7.9,7.9,0,0,1,5.262-5.094C2528.738,1171.406,2533.527,1177.125,2532.357,1182.8Z" transform="translate(-2471.966 -951.597)" fill="#f797a5"/>
        <path id="Trazado_1043248" data-name="Trazado 1043248" d="M2528.772,1393.4a12.226,12.226,0,0,1-.609,9.012,13.291,13.291,0,0,1-6.675,7.239c-3.1,1.311-7.079.783-9.267-1.773-1.133-1.323-1.705-3.029-2.664-4.484a46.334,46.334,0,0,0-3-3.592,7.282,7.282,0,0,1-1.889-4.2,3.459,3.459,0,0,1,2.438-3.556c1.72-.356,3.372,1.024,5.128.952a5.347,5.347,0,0,0,3.437-1.927c2.171-2.268,3.757-4,6.953-2.775C2525.3,1389.332,2527.68,1390.537,2528.772,1393.4Z" transform="translate(-2464.827 -1099.761)" fill="#f7d772"/>
        <path id="Trazado_1043249" data-name="Trazado 1043249" d="M2788.475,1337.757a71.324,71.324,0,0,0,1.558,6.971c.672,2.021,1.714,3.914,2.254,5.974s.5,4.437-.831,6.1-4.215,2.095-5.549.434c-.807-1-.847-2.4-1.017-3.674s-.648-2.708-1.845-3.186c-1.254-.5-2.7.287-4.013-.023-1.921-.452-2.562-2.933-2.228-4.878.614-3.57,1.3-5.471-.059-8.973-.869-2.245-1.113-4.59.976-6.248C2783.041,1326.034,2787.488,1333.363,2788.475,1337.757Z" transform="translate(-2651.798 -1059.187)" fill="#a57bb7"/>
        <path id="Trazado_1043250" data-name="Trazado 1043250" d="M2678.073,1144.02a6.682,6.682,0,0,1,5.563,1.686c1.352,1.457,1.491,3.53,1.565,5.444.11,2.807.195,5.734-1.083,8.284a5.45,5.45,0,0,1-2.911,2.806,3.293,3.293,0,0,1-3.8-1.036c-.58-.948-.362-2.162-.866-3.145-1.055-2.054-4.355-1.92-6.252-3.375a4.383,4.383,0,0,1-1.364-4.732C2670.013,1146.335,2674.289,1144.427,2678.073,1144.02Z" transform="translate(-2577.832 -931.745)" fill="#f7d772"/>
        <path id="Trazado_1043251" data-name="Trazado 1043251" d="M2776.746,1336.857c-.869-2.245-1.113-4.59.976-6.248a5.861,5.861,0,0,1,2.085-1.1,23.164,23.164,0,0,0,1.669,16.131c.6,1.28,2.075.98,3.164.593,1.028-.365,2.514-1.021,3.427-.056a3.918,3.918,0,0,1,.651,1.189,8.05,8.05,0,0,0,1.544,2.368c.4.412,1.992,1.151,2.115,1.7a6.811,6.811,0,0,1-.923,5.726c-1.327,1.666-4.215,2.095-5.549.433-.807-1-.848-2.4-1.017-3.674s-.649-2.708-1.846-3.186c-1.254-.5-2.7.287-4.012-.023-1.921-.453-2.562-2.933-2.228-4.878C2777.419,1342.263,2778.1,1340.361,2776.746,1336.857Z" transform="translate(-2651.799 -1059.541)" opacity="0.1"/>
        <path id="Trazado_1043252" data-name="Trazado 1043252" d="M2798.187,1341.464c.075.567.037,1.282-.483,1.523s-1.1-.209-1.5-.64a22.958,22.958,0,0,1-5.37-9.086c-.507-1.96,1.41-1.459,2.367-.681a14.016,14.016,0,0,1,4.982,8.885Z" transform="translate(-2661.887 -1061.186)" fill="#fff" opacity="0.2"/>
        <path id="Trazado_1043253" data-name="Trazado 1043253" d="M2505.991,1402.96c1.759,5.343,4.422,10.422,10.236,12.515,6.268,1.907,10.713-3.244,13.148-8.6a14.159,14.159,0,0,1-1.209,5.918,13.291,13.291,0,0,1-6.675,7.239c-3.1,1.311-7.079.783-9.268-1.773-1.133-1.323-1.7-3.03-2.664-4.484a46.227,46.227,0,0,0-3.005-3.592,7.279,7.279,0,0,1-1.889-4.2A3.79,3.79,0,0,1,2505.991,1402.96Z" transform="translate(-2464.829 -1110.137)" opacity="0.2"/>
        <path id="Trazado_1043254" data-name="Trazado 1043254" d="M2526.655,1394.108a5.453,5.453,0,0,0-3.156,1.733,12.478,12.478,0,0,1-2.81,2.341,7.5,7.5,0,0,1-4.25.5,3.744,3.744,0,0,0-1.144-.031,1.117,1.117,0,0,0-.873.664,1.506,1.506,0,0,0,.413,1.333,6.815,6.815,0,0,0,4.378,2.67,5.009,5.009,0,0,0,4.655-1.856,8.178,8.178,0,0,1,1.547-2.094,3.878,3.878,0,0,1,2.016-.547,5.655,5.655,0,0,0,2.07-.373C2532.475,1397.03,2528.572,1393.956,2526.655,1394.108Z" transform="translate(-2471.52 -1104.036)" fill="#fff" opacity="0.2"/>
        <path id="Trazado_1043255" data-name="Trazado 1043255" d="M2535.243,1181.918c0-3.823-2.213-6.816-5.2-8.8.03-.009.059-.02.09-.029,5.918-1.685,10.706,4.036,9.536,9.715-.561,2.722-2.166,5.09-3.514,7.52-1.033,1.862-2.167,4-4.229,4.536-1.956.51-3.926-.656-5.557-1.849-.244-.178-.489-.366-.732-.562a9.363,9.363,0,0,0,5.364-1.727A12,12,0,0,0,2535.243,1181.918Z" transform="translate(-2479.277 -951.597)" opacity="0.2"/>
        <path id="Trazado_1043256" data-name="Trazado 1043256" d="M2520.457,1195.855a10.534,10.534,0,0,1,1.035-3.5,11.84,11.84,0,0,0,1.1-3.481c.09-.921.031-2.022.78-2.566a1.753,1.753,0,0,1,2.241.451,3.466,3.466,0,0,1,.508,3.192,12.08,12.08,0,0,1-1.539,2.983,7.864,7.864,0,0,0-1.3,3.077c-.11.864.026,2.957-1.377,2.881C2520.677,1198.827,2520.4,1196.751,2520.457,1195.855Z" transform="translate(-2475.703 -960.742)" fill="#fff" opacity="0.2"/>
        <path id="Trazado_1043257" data-name="Trazado 1043257" d="M2668.923,1152.053c.731-2.424,2.894-4.08,5.381-5.032a3.471,3.471,0,0,0-1.953,4.087,2.034,2.034,0,0,0,.436.8,2.456,2.456,0,0,0,.478.352,15.23,15.23,0,0,1,6.846,8.649c.664,1.825,2.171,1.708,3.835.939a5.286,5.286,0,0,1-2.74,2.495,3.293,3.293,0,0,1-3.8-1.036c-.58-.948-.362-2.162-.867-3.145-1.055-2.054-4.355-1.92-6.252-3.375A4.382,4.382,0,0,1,2668.923,1152.053Z" transform="translate(-2577.832 -933.847)" opacity="0.2"/>
        <path id="Trazado_1043258" data-name="Trazado 1043258" d="M2689.515,1147.6a9.249,9.249,0,0,1,4.159.434,4.969,4.969,0,0,1,2.771,6.2,1.822,1.822,0,0,1-.362.667.815.815,0,0,1-.682.277c-.36-.05-.6-.387-.788-.7a9.544,9.544,0,0,0-2.784-3.374c-1.284-.794-2.88-.857-4.295-1.385-.594-.222-1.319-.944-.677-1.543C2687.477,1147.6,2688.731,1147.643,2689.515,1147.6Z" transform="translate(-2590.152 -934.211)" fill="#fff" opacity="0.2"/>
        <path id="Trazado_1043259" data-name="Trazado 1043259" d="M2430.76,640.872c17.166-7.593,34.475-14.152,52.89-17.792s41.465-3.108,59.186,3.089c0,.075,0,.147,0,.222-.172,7.479,2.156,14.666,5.041,21.658-2.168,4.438-21.161,4.789-29.594-.559-6.2,14.677-23.928,11.041-36,5.17a8.026,8.026,0,0,1-6.523,8.154c-6.523,1.631-12.721-.978-18.592-3.262,1.305,10.111-3.261,20.548-10.437,28.05a28.91,28.91,0,0,0-5.444,8.091,74.435,74.435,0,0,1-3.1-7.324C2432.948,671.867,2431.762,656.26,2430.76,640.872Z" transform="translate(-2413.925 -571.393)" opacity="0.2"/>
        <g id="Grupo_1182792" data-name="Grupo 1182792" transform="translate(0 0)">
          <path id="Trazado_1043260" data-name="Trazado 1043260" d="M2724.243,692.41c-2.606-1.515-5.865-2.205-8.669-1.1a3.56,3.56,0,0,0-2.51,2.855c-.046,1.36,1.1,2.448,2.251,3.177,3.169,2.013,6.948,2.781,10.63,3.513,1.928.383,6.064-.267,4.354-3.132C2729.054,695.634,2726.31,693.611,2724.243,692.41Z" transform="translate(-2608.373 -619.58)" fill="#472209"/>
          <path id="Trazado_1043261" data-name="Trazado 1043261" d="M2411.942,571.566q-.22,11.013-.44,22.024c-.023,1.207-.11,2.559-1.007,3.369-3.951,3.569-11.077-4.472-13.664-6.859a52.5,52.5,0,0,1-13.983-20.033,111.179,111.179,0,0,1-4.485-14.4c-2.161-9.453-2.876-19.86,1.588-28.756,3.237-6.45,9.338-12.861,16.434-15.032-2.822-9.634-1.452-20.956,2.647-30.12a14.825,14.825,0,0,1,3.406-5.143,6.521,6.521,0,0,1,5.723-1.711,4.239,4.239,0,0,1,3.256,4.6c3.311-4.119,6.667-8.282,10.88-11.472s9.44-5.356,14.7-4.887,10.414,4.017,11.738,9.133a46.428,46.428,0,0,1,17.012-9.2c6.3-1.836,13.51-1.426,18.889,2.329s8.283,11.244,5.684,17.268c4.77-2.4,9.012-4.282,14.323-4.856a24.311,24.311,0,0,1,15.419,3.113c4.533,2.826,7.873,7.764,8.1,13.1s-3.03,10.831-8.072,12.591c4.936.889,9.76,3.212,12.857,7.156s4.167,9.638,1.929,14.127c-2.274,4.562-7.455,7.1-12.531,7.568s-10.136-.8-15.066-2.1c1.477.879,1.052,2.271-.189,3.46s-3.077,1.47-4.792,1.585a41.748,41.748,0,0,1-31.36-11.453c2.181.29,4.035,3.995,3.943,6.193a7.331,7.331,0,0,1-3.313,5.44,18.936,18.936,0,0,1-6.065,2.508c-8.829,2.391-18.809,3.395-26.654-1.308a3.34,3.34,0,0,1-.24,4.258,7.873,7.873,0,0,1-4.262,1.718c-7.27,1.136-14.633-.78-21.742-2.679a87.139,87.139,0,0,1-.423,32.726Z" transform="translate(-2376.662 -462.019)" fill="#663612"/>
          <path id="Trazado_1043262" data-name="Trazado 1043262" d="M2712.3,625.851a.8.8,0,0,1,1.108,0,31.015,31.015,0,0,0,5.742,3.626,26.818,26.818,0,0,0,3.176,1.314,10.149,10.149,0,0,0,3.4.717,3.7,3.7,0,0,0,3.487-2.845,6.222,6.222,0,0,0-.649-4.927,19.136,19.136,0,0,0-4.96-5.11c-.605-.487.166-1.36.8-1.033a92.656,92.656,0,0,0,20.922,7.826,31.443,31.443,0,0,0,5.39,1c1.564.1,3.576-.024,4.791-1.156,1.367-1.273.069-3.07-.815-4.206a26.6,26.6,0,0,0-3.292-3.487,25.57,25.57,0,0,0-9.414-5.33.293.293,0,0,1,.156-.565,26.409,26.409,0,0,1,9.1,4.592,24.753,24.753,0,0,1,3.693,3.545c1.06,1.25,2.436,2.831,2.17,4.6s-2.167,2.624-3.726,2.942a14.818,14.818,0,0,1-5.8-.243,87.356,87.356,0,0,1-11.475-3.127q-4.109-1.41-8.076-3.2a13.22,13.22,0,0,1,1.482,1.88,7.807,7.807,0,0,1,1.173,5.872,5.483,5.483,0,0,1-3.456,4.186,7.183,7.183,0,0,1-3.986-.063,25.582,25.582,0,0,1-3.622-1.226,27.709,27.709,0,0,1-7.316-4.473A.793.793,0,0,1,2712.3,625.851Z" transform="translate(-2607.694 -565.092)" fill="#472209"/>
          <path id="Trazado_1043263" data-name="Trazado 1043263" d="M2499.932,659.292a.747.747,0,0,1,1.011-.265c2.815,1.779,6.072,4.053,9.579,3.148a4.5,4.5,0,0,0,3.18-2.584,7.646,7.646,0,0,0-.09-4.657,30,30,0,0,1-1.242-5.956.755.755,0,0,1,1.128-.647,62.892,62.892,0,0,0,18.052,7.639,19.222,19.222,0,0,0,8.123.678,7.246,7.246,0,0,0,3.388-1.529,6.517,6.517,0,0,0,2.016-3.2c.82-2.908.083-6.119-1.012-8.852-.13-.326.425-.562.57-.241a15.549,15.549,0,0,1,1.615,8.287,7.68,7.68,0,0,1-4.718,6.243c-2.68,1.1-5.746.871-8.527.331a58.164,58.164,0,0,1-9.76-2.874,64.076,64.076,0,0,1-9.213-4.415c.246,1.4.707,2.761,1.054,4.132a9.3,9.3,0,0,1,.135,5.42c-1.309,3.592-5.515,4.635-8.907,3.7a19.237,19.237,0,0,1-6.116-3.342A.763.763,0,0,1,2499.932,659.292Z" transform="translate(-2461.503 -586.451)" fill="#472209"/>
          <path id="Trazado_1043264" data-name="Trazado 1043264" d="M2467.855,742.587a132.882,132.882,0,0,0,1.67-25.522c-.087-2.435-.2-4.869-.4-7.3-.029-.353.577-.442.626-.085a108.216,108.216,0,0,1,.326,25.977c-.256,2.432-.589,4.85-1.029,7.256a.623.623,0,0,1-.76.432A.634.634,0,0,1,2467.855,742.587Z" transform="translate(-2439.468 -632.452)" fill="#472209"/>
          <path id="Trazado_1043265" data-name="Trazado 1043265" d="M2445.269,724.087c-.068-.442.587-.647.689-.189a109.7,109.7,0,0,1,2.486,21.052c.048,2.024.01,4.048-.068,6.07a.688.688,0,0,1-1.376,0,144.46,144.46,0,0,0-.96-21.036C2445.8,728.015,2445.571,726.048,2445.269,724.087Z" transform="translate(-2423.915 -642.222)" fill="#472209"/>
          <path id="Trazado_1043266" data-name="Trazado 1043266" d="M2647.86,502.39a23.692,23.692,0,0,1,13.73-9.474,12.761,12.761,0,0,1,7.832.365,5.234,5.234,0,0,1,2.558,2.194,4.792,4.792,0,0,1-.062,4.05c-1.284,3.414-2.626,6.808-3.948,10.209a50.15,50.15,0,0,1,20.116-2.22c1.8.144,3.595.365,5.377.653a13.385,13.385,0,0,1,4.809,1.474,5.774,5.774,0,0,1,2.744,3.575,4.649,4.649,0,0,1-1.415,4.276,14.161,14.161,0,0,1-4.62,2.964,16.457,16.457,0,0,1-5.614,1.284c-.866.044-.85-1.271,0-1.338a16.047,16.047,0,0,0,8.533-3.206,3.947,3.947,0,0,0,1.866-3.328,4.331,4.331,0,0,0-2.29-3.139,12.834,12.834,0,0,0-4.367-1.274q-2.5-.405-5.022-.611a56.013,56.013,0,0,0-10.013.053,45.291,45.291,0,0,0-11,2.455.617.617,0,0,1-.755-.755l3.809-9.512c.31-.773.645-1.541.917-2.329a3.941,3.941,0,0,0,.264-2.007,3.455,3.455,0,0,0-1.809-2.256c-2.092-1.2-4.726-1.136-7.031-.729a20.524,20.524,0,0,0-7.353,2.932,28.175,28.175,0,0,0-6.74,6.093C2648.146,503.081,2647.638,502.7,2647.86,502.39Z" transform="translate(-2563.425 -483.001)" fill="#472209"/>
          <path id="Trazado_1043267" data-name="Trazado 1043267" d="M2445.386,518.117q.495-2.177,1.2-4.3a14.055,14.055,0,0,1,1.692-3.926,2.937,2.937,0,0,1,3.239-1.238c1.372.5,1.521,2,1.641,3.251a40.058,40.058,0,0,1,.064,6.8c2.343-5.14,5.371-10.065,9.663-13.751a23.64,23.64,0,0,1,4.192-2.906,15.379,15.379,0,0,1,4.651-1.766c1.492-.244,3.258-.157,4.354,1.03,1.332,1.443.945,3.5.336,5.178a57.642,57.642,0,0,1-6.522,12.683c-.375.551-1.272.04-.9-.527a63.364,63.364,0,0,0,5.66-10.681,24.654,24.654,0,0,0,.973-2.646,4.222,4.222,0,0,0,.1-2.461c-.49-1.45-2.139-1.686-3.464-1.531a13.03,13.03,0,0,0-4.311,1.521,21.964,21.964,0,0,0-3.918,2.59,31.536,31.536,0,0,0-6.32,7.3,56.41,56.41,0,0,0-4.981,9.937.556.556,0,0,1-1.071-.3,39.734,39.734,0,0,0,.5-8.66q-.057-1.1-.175-2.2a2.711,2.711,0,0,0-.463-1.539,1.214,1.214,0,0,0-1.3-.226,2.358,2.358,0,0,0-1.224,1.1,17.427,17.427,0,0,0-1.434,3.628q-.632,1.946-1.084,3.945a46.367,46.367,0,0,0-1.084,8.1,48,48,0,0,0,.486,9.3c.08.539-.728.786-.836.23A43.529,43.529,0,0,1,2445.386,518.117Z" transform="translate(-2423.236 -488.298)" fill="#472209"/>
        </g>
        <g id="Grupo_1182793" data-name="Grupo 1182793" transform="translate(17.725 94.731)">
          <path id="Trazado_1043268" data-name="Trazado 1043268" d="M2448.186,766.708a13.61,13.61,0,0,0-9.16,1.2,11.558,11.558,0,0,0-5.374,10.8,15.431,15.431,0,0,0,6.133,10.728,23.475,23.475,0,0,0,11.758,4.438,17.1,17.1,0,0,0,7.6-.594,8.953,8.953,0,0,0,5.5-5.013c1.311-3.471-.123-8.047-1.9-11.142a22.077,22.077,0,0,0-8.115-8.059A20.424,20.424,0,0,0,2448.186,766.708Z" transform="translate(-2433.617 -766.422)" fill="#e8a987"/>
          <path id="Trazado_1043269" data-name="Trazado 1043269" d="M2465.856,807.667c-1.721,0-3.644.448-4.556,1.908-1,1.6-.352,3.748.719,5.307a11.361,11.361,0,0,0,14.814,3.534,3.755,3.755,0,0,0,1.386-1.14c1.451-2.19-2.769-5.839-4.315-6.947A14,14,0,0,0,2465.856,807.667Z" transform="translate(-2452.343 -794.831)" fill="#d17656"/>
          <path id="Trazado_1043270" data-name="Trazado 1043270" d="M2461.308,809.575c.911-1.46,2.834-1.911,4.555-1.908a13.994,13.994,0,0,1,8.048,2.662c1.193.854,3.971,3.217,4.519,5.259a26.863,26.863,0,0,0-3.368-2.477,11.573,11.573,0,0,0-13.053,1.741C2460.947,813.3,2460.312,811.17,2461.308,809.575Z" transform="translate(-2452.347 -794.831)" opacity="0.2"/>
        </g>
      </g>
    </g>
  </g>
</svg>
