<svg xmlns="http://www.w3.org/2000/svg" xmlns:xlink="http://www.w3.org/1999/xlink" width="93.934" height="93.934" viewBox="0 0 93.934 93.934">
  <defs>
    <filter id="Trazado_982547" x="0" y="0" width="93.934" height="93.934" filterUnits="userSpaceOnUse">
      <feOffset dy="3" input="SourceAlpha"/>
      <feGaussianBlur stdDeviation="3" result="blur"/>
      <feFlood flood-opacity="0.161"/>
      <feComposite operator="in" in2="blur"/>
      <feComposite in="SourceGraphic"/>
    </filter>
  </defs>
  <g id="Grupo_1183243" data-name="Grupo 1183243" transform="translate(-609 -1304)">
    <g id="Grupo_1181744" data-name="Grupo 1181744" transform="translate(0 569)">
      <g id="Grupo_1175134" data-name="Grupo 1175134" transform="translate(419.967 -1251)">
        <g id="Grupo_1167337" data-name="Grupo 1167337" transform="translate(198.033 1992)">
          <g id="Grupo_1166720" data-name="Grupo 1166720">
            <g id="Grupo_1164305" data-name="Grupo 1164305">
              <g id="Grupo_1163948" data-name="Grupo 1163948">
                <g id="Grupo_1158168" data-name="Grupo 1158168">
                  <g id="Grupo_1152576" data-name="Grupo 1152576">
                    <g id="Grupo_1148633" data-name="Grupo 1148633">
                      <g id="Grupo_1148525" data-name="Grupo 1148525">
                        <g transform="matrix(1, 0, 0, 1, -9, -6)" filter="url(#Trazado_982547)">
                          <g id="Trazado_982547-2" data-name="Trazado 982547" transform="translate(9 6)" fill="#fdfbec">
                            <path d="M 37.966796875 74.43359375 C 33.04315185546875 74.43359375 28.26757431030273 73.46962738037109 23.77274131774902 71.56847381591797 C 19.43047523498535 69.73184967041016 15.53040790557861 67.10224914550781 12.18087482452393 63.75271987915039 C 8.831341743469238 60.4031867980957 6.201741218566895 56.50312042236328 4.365118980407715 52.16086196899414 C 2.463963508605957 47.66601943969727 1.499996900558472 42.89044189453125 1.499996900558472 37.966796875 C 1.499996900558472 33.04315185546875 2.463963508605957 28.26757431030273 4.365118980407715 23.77274131774902 C 6.201741218566895 19.43047523498535 8.831341743469238 15.53040790557861 12.18087482452393 12.18087482452393 C 15.53040790557861 8.831341743469238 19.43047523498535 6.201741218566895 23.77274131774902 4.365118980407715 C 28.26757431030273 2.463963508605957 33.04315185546875 1.499996900558472 37.966796875 1.499996900558472 C 42.89044189453125 1.499996900558472 47.66601943969727 2.463963508605957 52.16086196899414 4.365118980407715 C 56.50312042236328 6.201741218566895 60.4031867980957 8.831341743469238 63.75271987915039 12.18087482452393 C 67.10224914550781 15.53040790557861 69.73184967041016 19.43047523498535 71.56847381591797 23.77274131774902 C 73.46962738037109 28.26757431030273 74.43359375 33.04315185546875 74.43359375 37.966796875 C 74.43359375 42.89044189453125 73.46962738037109 47.66601943969727 71.56847381591797 52.16086196899414 C 69.73184967041016 56.50313186645508 67.10224914550781 60.4031867980957 63.75271987915039 63.75271987915039 C 60.4031867980957 67.10224914550781 56.50313186645508 69.73184967041016 52.16086196899414 71.56847381591797 C 47.66601943969727 73.46962738037109 42.89044189453125 74.43359375 37.966796875 74.43359375 Z" stroke="none"/>
                            <path d="M 37.966796875 3 C 33.2449836730957 3 28.66600799560547 3.924095153808594 24.35705947875977 5.746635437011719 C 20.19359588623047 7.507637023925781 16.45379638671875 10.02928161621094 13.24153518676758 13.24153518676758 C 10.02927398681641 16.45379638671875 7.507621765136719 20.19359588623047 5.746635437011719 24.35705947875977 C 3.924095153808594 28.66600799560547 3 33.2449836730957 3 37.966796875 C 3 42.6886100769043 3.924095153808594 47.26758575439453 5.746635437011719 51.57653427124023 C 7.507621765136719 55.73999786376953 10.02927398681641 59.47979736328125 13.24153518676758 62.69205856323242 C 16.45379638671875 65.90431976318359 20.19359588623047 68.42597198486328 24.35705947875977 70.18695831298828 C 28.66600799560547 72.00949859619141 33.2449836730957 72.93359375 37.966796875 72.93359375 C 42.6886100769043 72.93359375 47.26758575439453 72.00949859619141 51.57653427124023 70.18695831298828 C 55.73999786376953 68.42597198486328 59.47979736328125 65.90431976318359 62.69205856323242 62.69205856323242 C 65.90431976318359 59.47979736328125 68.42597198486328 55.73999786376953 70.18695831298828 51.57653427124023 C 72.00949859619141 47.26758575439453 72.93359375 42.6886100769043 72.93359375 37.966796875 C 72.93359375 33.2449836730957 72.00949859619141 28.66600799560547 70.18695831298828 24.35705947875977 C 68.42597198486328 20.19359588623047 65.90431976318359 16.45379638671875 62.69205856323242 13.24153518676758 C 59.47979736328125 10.02928161621094 55.73999786376953 7.507637023925781 51.57653427124023 5.746635437011719 C 47.26758575439453 3.924095153808594 42.6886100769043 3 37.966796875 3 M 37.966796875 0 C 58.93528366088867 0 75.93359375 16.99832153320312 75.93359375 37.966796875 C 75.93359375 58.93528366088867 58.93528366088867 75.93359375 37.966796875 75.93359375 C 16.99831008911133 75.93359375 0 58.93528366088867 0 37.966796875 C 0 16.99832153320312 16.99831008911133 0 37.966796875 0 Z" stroke="none" fill="#84792b"/>
                          </g>
                        </g>
                      </g>
                    </g>
                  </g>
                </g>
              </g>
            </g>
          </g>
        </g>
      </g>
    </g>
    <g id="dibujo_3_" data-name="dibujo (3)" transform="translate(633 1308.072)">
      <g id="Grupo_1183241" data-name="Grupo 1183241" transform="translate(0.673 19.601)">
        <path id="Trazado_1044816" data-name="Trazado 1044816" d="M52.095,27.5V57.219A1.077,1.077,0,0,1,51.018,58.3H8.579A1.077,1.077,0,0,1,7.5,57.219V27.5a1.076,1.076,0,0,1,1.077-1.077H51.018A1.076,1.076,0,0,1,52.095,27.5Z" transform="translate(-7.502 -26.428)" fill="#eaf6ff"/>
        <path id="Trazado_1044817" data-name="Trazado 1044817" d="M403.649,128.575H398.9a.718.718,0,0,1-.718-.718v-4.872a3.092,3.092,0,0,1,6.184,0v4.872A.718.718,0,0,1,403.649,128.575Z" transform="translate(-363.129 -111.507)" fill="#ffe177"/>
        <g id="Grupo_1183238" data-name="Grupo 1183238" transform="translate(16.152 8.386)">
          <circle id="Elipse_12536" data-name="Elipse 12536" cx="3.092" cy="3.092" r="3.092" fill="#ffeee6"/>
        </g>
        <circle id="Elipse_12537" data-name="Elipse 12537" cx="1.945" cy="1.945" r="1.945" transform="translate(26.292 15.123)" fill="#ffeee6"/>
        <path id="Trazado_1044818" data-name="Trazado 1044818" d="M400.425,127.857v-4.872A3.093,3.093,0,0,1,402.4,120.1a3.092,3.092,0,0,0-4.214,2.881v4.872a.718.718,0,0,0,.718.718h2.243A.718.718,0,0,1,400.425,127.857Z" transform="translate(-363.129 -111.507)" fill="#ffd15b"/>
        <path id="Trazado_1044819" data-name="Trazado 1044819" d="M404.366,123.011a3.092,3.092,0,0,1-6.185-.043,3.132,3.132,0,0,1,.066-.62,3.092,3.092,0,0,1,6.118.663Z" transform="translate(-363.128 -111.511)" fill="#ffeee6"/>
        <path id="Trazado_1044820" data-name="Trazado 1044820" d="M406.615,217.029h-4.76a.359.359,0,0,1-.345-.459l1.844-6.337a.359.359,0,0,1,.345-.259h1.073a.359.359,0,0,1,.345.259l1.844,6.337A.359.359,0,0,1,406.615,217.029Z" transform="translate(-366.145 -193.506)" fill="#f47c7c"/>
        <path id="Trazado_1044821" data-name="Trazado 1044821" d="M403.753,216.571l1.6-5.509-.241-.827a.359.359,0,0,0-.345-.259H403.7a.359.359,0,0,0-.345.259l-1.844,6.337a.359.359,0,0,0,.345.459H404.1a.359.359,0,0,1-.345-.459Z" transform="translate(-366.145 -193.507)" fill="#ee6161"/>
        <path id="Trazado_1044822" data-name="Trazado 1044822" d="M9.745,57.219V27.5a1.076,1.076,0,0,1,1.077-1.077H8.579A1.076,1.076,0,0,0,7.5,27.5V57.219A1.077,1.077,0,0,0,8.579,58.3h2.243A1.077,1.077,0,0,1,9.745,57.219Z" transform="translate(-7.502 -26.428)" fill="#d8ecfe"/>
        <path id="Trazado_1044823" data-name="Trazado 1044823" d="M52.095,322.208v4.253a1.077,1.077,0,0,1-1.077,1.077H8.579A1.077,1.077,0,0,1,7.5,326.461v-4.253Z" transform="translate(-7.502 -295.67)" fill="#6fd7a3"/>
        <path id="Trazado_1044824" data-name="Trazado 1044824" d="M9.745,326.461v-4.253H7.5v4.253a1.077,1.077,0,0,0,1.077,1.077h2.243A1.077,1.077,0,0,1,9.745,326.461Z" transform="translate(-7.502 -295.67)" fill="#3ec3a4"/>
        <path id="Trazado_1044825" data-name="Trazado 1044825" d="M46.779,102.171H44.336a3.589,3.589,0,0,1-3.589-3.589v-7.23a3.589,3.589,0,0,1,3.589-3.589h2.444a3.589,3.589,0,0,1,3.589,3.589v7.23A3.589,3.589,0,0,1,46.779,102.171Z" transform="translate(-37.764 -82.26)" fill="#6fd7a3"/>
        <path id="Trazado_1044826" data-name="Trazado 1044826" d="M42.99,98.582v-7.23a3.589,3.589,0,0,1,3.589-3.589H44.336a3.589,3.589,0,0,0-3.589,3.589v7.23a3.589,3.589,0,0,0,3.589,3.589h2.243A3.589,3.589,0,0,1,42.99,98.582Z" transform="translate(-37.764 -82.26)" fill="#3ec3a4"/>
        <path id="Trazado_1044827" data-name="Trazado 1044827" d="M400.424,122.968a3.132,3.132,0,0,1,.066-.62,3.1,3.1,0,0,1,1.9-2.24,3.095,3.095,0,0,0-4.148,2.24,3.132,3.132,0,0,0-.066.62,3.092,3.092,0,0,0,4.213,2.9A3.093,3.093,0,0,1,400.424,122.968Z" transform="translate(-363.128 -111.511)" fill="#ffdfcf"/>
        <path id="Trazado_1044828" data-name="Trazado 1044828" d="M404.974,122.347h-6.052a3.094,3.094,0,0,1,6.052,0Z" transform="translate(-363.802 -111.511)" fill="#ffe177"/>
        <path id="Trazado_1044829" data-name="Trazado 1044829" d="M189.761,122.963a3.092,3.092,0,0,1,1.971-2.86,3.092,3.092,0,1,0,0,5.763A3.093,3.093,0,0,1,189.761,122.963Z" transform="translate(-171.366 -111.506)" fill="#ffdfcf"/>
        <path id="Trazado_1044830" data-name="Trazado 1044830" d="M302.781,196.966a1.943,1.943,0,0,1,.823-1.634,1.945,1.945,0,1,0,0,3.178A1.942,1.942,0,0,1,302.781,196.966Z" transform="translate(-274.245 -179.853)" fill="#ffdfcf"/>
        <path id="Trazado_1044831" data-name="Trazado 1044831" d="M403.07,120.107a3.095,3.095,0,0,0-4.148,2.24h2.243A3.1,3.1,0,0,1,403.07,120.107Z" transform="translate(-363.802 -111.511)" fill="#ffd15b"/>
        <g id="Grupo_1183239" data-name="Grupo 1183239" transform="translate(4.678 29.602)">
          <path id="Trazado_1044832" data-name="Trazado 1044832" d="M59.661,361.636l1.019,2.684a.359.359,0,0,0,.463.208l12.35-4.688a.361.361,0,0,0,.1-.061l3.309-2.792a.359.359,0,0,0-.24-.633l-4.328.108a.359.359,0,0,0-.118.023l-12.35,4.688A.359.359,0,0,0,59.661,361.636Z" transform="translate(-59.638 -356.354)" fill="#f47c7c"/>
          <path id="Trazado_1044833" data-name="Trazado 1044833" d="M60.457,363.732a.359.359,0,0,1,.208-.463l12.35-4.688a.358.358,0,0,1,.118-.023l1.968-.049,1.8-1.523a.359.359,0,0,0-.24-.633l-4.328.108a.359.359,0,0,0-.118.023l-12.35,4.688a.359.359,0,0,0-.208.463l1.019,2.684h0Z" transform="translate(-59.638 -356.353)" fill="#ee6161"/>
        </g>
        <g id="Grupo_1183240" data-name="Grupo 1183240" transform="translate(26.617 35.185)">
          <path id="Trazado_1044834" data-name="Trazado 1044834" d="M304.164,421.478l.538,2.82a.359.359,0,0,0,.42.285l12.976-2.473a.358.358,0,0,0,.113-.042l3.744-2.175a.359.359,0,0,0-.127-.665l-4.281-.646a.36.36,0,0,0-.121,0l-12.976,2.473A.359.359,0,0,0,304.164,421.478Z" transform="translate(-304.157 -418.579)" fill="#ffe177"/>
          <path id="Trazado_1044835" data-name="Trazado 1044835" d="M304.583,423.683a.359.359,0,0,1,.285-.42l12.976-2.473a.359.359,0,0,1,.121,0l1.946.293,2.042-1.186a.359.359,0,0,0-.127-.665l-4.281-.645a.358.358,0,0,0-.121,0l-12.976,2.473a.359.359,0,0,0-.285.42l.538,2.82h0Z" transform="translate(-304.156 -418.58)" fill="#ffd15b"/>
        </g>
      </g>
      <g id="Grupo_1183242" data-name="Grupo 1183242" transform="translate(0 18.928)">
        <path id="Trazado_1044836" data-name="Trazado 1044836" d="M315.1,411.74l-4.281-.646a1.036,1.036,0,0,0-.347.007l-12.976,2.473a1.033,1.033,0,0,0-.82,1.207l.537,2.82a1.032,1.032,0,0,0,1.207.82l12.976-2.473a1.029,1.029,0,0,0,.325-.121l3.744-2.175a1.032,1.032,0,0,0-.364-1.912Zm-13.5,4.7-.42-2.2,8.946-1.7.42,2.2Zm-3.546-1.608,1.8-.344.42,2.2-1.8.344Zm13.762-.623-.316-1.656,2.514.379Z" transform="translate(-270.037 -375.897)"/>
        <path id="Trazado_1044837" data-name="Trazado 1044837" d="M44.189,18.928H10.429a.673.673,0,1,0,0,1.346h33.76a.4.4,0,0,1,.4.394v24.8H41.77l-.683-1.67h.055a1.032,1.032,0,0,0,.991-1.32L40.99,38.549,42,39.385a.673.673,0,0,0,.858-1.037l-1.283-1.062a1.392,1.392,0,0,0,1.008-1.336V31.079a3.765,3.765,0,0,0-7.529-.061c0,.011,0,.022,0,.034s0,.01,0,.016,0,.007,0,.011V35.95a1.392,1.392,0,0,0,.926,1.309l-1.31,1.058a.673.673,0,1,0,.845,1.047l1.023-.826-1.146,3.939a1.03,1.03,0,0,0,.965,1.319l-.712,1.671H31.23l-1.521-3.416-.012-.534,2.375-1.059a.673.673,0,1,0-.548-1.229l-1.86.83-.02-.876a2.613,2.613,0,1,0-1.345.032l.02.854-1.847-.722a.673.673,0,1,0-.49,1.253l2.371.927.013.555-1.321,3.384H22.869l-2.341-5.719.014-2.038,2.126,1.82a.673.673,0,1,0,.875-1.023l-2.989-2.558.008-1.161a3.765,3.765,0,0,0-.62-7.474h-.027a3.765,3.765,0,0,0-.7,7.464l-.008,1.161-3.024,2.515a.673.673,0,1,0,.861,1.035L19.2,37.7l-.014,2.038-2.439,5.728H9.277V40.185h.411a4.267,4.267,0,0,0,4.262-4.262v-7.23a4.267,4.267,0,0,0-4.262-4.262H7.245a4.267,4.267,0,0,0-4.262,4.262v7.23a4.267,4.267,0,0,0,4.262,4.262h.686v5.282H1.346V20.678a.4.4,0,0,1,.4-.4H7.288a.673.673,0,0,0,0-1.346H1.75A1.752,1.752,0,0,0,0,20.678V50.392a1.752,1.752,0,0,0,1.75,1.75H8.64l-3.3,1.252a1.033,1.033,0,0,0-.6,1.331h0l1.019,2.684a1.032,1.032,0,0,0,1.331.6l12.349-4.688a1.029,1.029,0,0,0,.3-.176l1.186-1H35.17a.673.673,0,1,0,0-1.346H22.525l.528-.445a1.032,1.032,0,0,0-.691-1.82l-4.328.108a1.028,1.028,0,0,0-.341.067L12.185,50.8H1.75a.4.4,0,0,1-.4-.4v-3.58H44.593v3.57a.4.4,0,0,1-.4.414H38.31a.673.673,0,1,0,0,1.346h5.879a1.757,1.757,0,0,0,1.75-1.759V20.668A1.747,1.747,0,0,0,44.189,18.928ZM7.245,38.839a2.919,2.919,0,0,1-2.916-2.916v-7.23a2.919,2.919,0,0,1,2.916-2.916H9.688A2.919,2.919,0,0,1,12.6,28.693v7.23a2.919,2.919,0,0,1-2.916,2.916H9.277V37.763l2.26-2.26a.673.673,0,0,0-.952-.952L9.277,35.86v-.6h0V29.823a.673.673,0,1,0-1.346,0v3.815L6.623,32.33a.673.673,0,0,0-.952.952l2.26,2.26v1.943h0v1.354H7.245ZM17.6,50.178l.8,2.1L9.886,55.508l-.8-2.1ZM6.911,56.637l-.8-2.1,1.717-.652.8,2.1Zm12.649-5.1-.6-1.576L21.5,49.9ZM36.8,42.451l1.661-5.709h.6l1.661,5.709Zm-.4-8.489a3.752,3.752,0,0,0,1.72.816l0,.625A1.038,1.038,0,0,0,37.29,36h-.847a.044.044,0,0,1-.045-.045Zm4.838-2.851A2.422,2.422,0,0,1,38.818,33.5H38.8a2.422,2.422,0,0,1-2.4-2.388Zm-4.448-1.346a2.419,2.419,0,0,1,4.061,0H36.789ZM40.235,36a1.04,1.04,0,0,0-.774-.585l0-.622a3.753,3.753,0,0,0,1.773-.827v1.99a.045.045,0,0,1-.045.045Zm-2.415,7.8h1.814l.683,1.67H37.108ZM27.638,36.7a1.273,1.273,0,0,1,1.242-1.3h.03a1.272,1.272,0,0,1,.029,2.544,1.272,1.272,0,0,1-1.3-1.242Zm1.442,7.249.676,1.519H28.487ZM17.5,31.062a2.422,2.422,0,0,1,2.419-2.4h.017a2.419,2.419,0,0,1-.017,4.839H19.9a2.422,2.422,0,0,1-2.4-2.436Zm2.345,10.562,1.572,3.842H18.206Z" transform="translate(0 -18.928)"/>
      </g>
    </g>
  </g>
</svg>
