<svg xmlns="http://www.w3.org/2000/svg" xmlns:xlink="http://www.w3.org/1999/xlink" width="103" height="103" viewBox="0 0 103 103">
  <defs>
    <filter id="Trazado_978624" x="0" y="0" width="103" height="103" filterUnits="userSpaceOnUse">
      <feOffset dy="3" input="SourceAlpha"/>
      <feGaussianBlur stdDeviation="3" result="blur"/>
      <feFlood flood-opacity="0.161"/>
      <feComposite operator="in" in2="blur"/>
      <feComposite in="SourceGraphic"/>
    </filter>
  </defs>
  <g id="Grupo_1183428" data-name="Grupo 1183428" transform="translate(-215.058 -4876)">
    <g id="Grupo_1182241" data-name="Grupo 1182241" transform="translate(224.058 4882)">
      <g id="Grupo_1144531" data-name="Grupo 1144531">
        <g transform="matrix(1, 0, 0, 1, -9, -6)" filter="url(#Trazado_978624)">
          <g id="Trazado_978624-2" data-name="Trazado 978624" transform="translate(9 6)" fill="#fdfbec">
            <path d="M 42.5 83.5 C 36.96437835693359 83.5 31.59512901306152 82.41617584228516 26.54141235351562 80.27863311767578 C 21.65934181213379 78.21369171142578 17.27447128295898 75.25723266601562 13.50862312316895 71.49137878417969 C 9.742764472961426 67.72553253173828 6.786305904388428 63.34066009521484 4.721364498138428 58.45858764648438 C 2.583823442459106 53.40486907958984 1.5 48.03562164306641 1.5 42.5 C 1.5 36.96437835693359 2.583823442459106 31.59512901306152 4.721364498138428 26.54141235351562 C 6.786305904388428 21.65934181213379 9.742764472961426 17.27447128295898 13.50862312316895 13.50862312316895 C 17.27447128295898 9.742764472961426 21.65934181213379 6.786305904388428 26.54141235351562 4.721364498138428 C 31.59512901306152 2.583823442459106 36.96437835693359 1.5 42.5 1.5 C 48.03562164306641 1.5 53.40486907958984 2.583823442459106 58.45858764648438 4.721364498138428 C 63.34066009521484 6.786305904388428 67.72553253173828 9.742764472961426 71.49137878417969 13.50862312316895 C 75.25723266601562 17.27447128295898 78.21369171142578 21.65934181213379 80.27863311767578 26.54141235351562 C 82.41617584228516 31.59512901306152 83.5 36.96437835693359 83.5 42.5 C 83.5 48.03562164306641 82.41617584228516 53.40486907958984 80.27863311767578 58.45858764648438 C 78.21369171142578 63.34066009521484 75.25723266601562 67.72553253173828 71.49137878417969 71.49137878417969 C 67.72553253173828 75.25723266601562 63.34066009521484 78.21369171142578 58.45858764648438 80.27863311767578 C 53.40486907958984 82.41617584228516 48.03562164306641 83.5 42.5 83.5 Z" stroke="none"/>
            <path d="M 42.5 3 C 37.16621398925781 3 31.99356079101562 4.043960571289062 27.125732421875 6.102882385253906 C 22.42246627807617 8.092185974121094 18.19785308837891 10.94070434570312 14.56928253173828 14.56928253173828 C 10.94070434570312 18.19785308837891 8.092185974121094 22.42246627807617 6.102882385253906 27.125732421875 C 4.043960571289062 31.99356079101562 3 37.16621398925781 3 42.5 C 3 47.83378601074219 4.043960571289062 53.00643920898438 6.102882385253906 57.87425231933594 C 8.092185974121094 62.57753372192383 10.94070434570312 66.80213165283203 14.56928253173828 70.43071746826172 C 18.19786834716797 74.05929565429688 22.42246627807617 76.90781402587891 27.125732421875 78.89711761474609 C 31.99356079101562 80.95603942871094 37.16621398925781 82 42.5 82 C 47.83378601074219 82 53.00642395019531 80.95603942871094 57.87425231933594 78.89711761474609 C 62.57753372192383 76.90781402587891 66.80213165283203 74.05929565429688 70.43071746826172 70.43071746826172 C 74.05929565429688 66.80213165283203 76.90781402587891 62.57753372192383 78.89711761474609 57.87425231933594 C 80.95603942871094 53.00642395019531 82 47.83378601074219 82 42.5 C 82 37.16621398925781 80.95603942871094 31.99356079101562 78.89711761474609 27.125732421875 C 76.90781402587891 22.42246627807617 74.05929565429688 18.19786834716797 70.43071746826172 14.56928253173828 C 66.80213165283203 10.94070434570312 62.57753372192383 8.092185974121094 57.87425231933594 6.102882385253906 C 53.00643920898438 4.043960571289062 47.83378601074219 3 42.5 3 M 42.5 0 C 65.97209167480469 0 85 19.02789306640625 85 42.5 C 85 65.97209167480469 65.97209167480469 85 42.5 85 C 19.02789306640625 85 0 65.97209167480469 0 42.5 C 0 19.02789306640625 19.02789306640625 0 42.5 0 Z" stroke="none" fill="#84792b"/>
          </g>
        </g>
      </g>
    </g>
    <g id="auricular" transform="translate(235.681 4893.514)">
      <path id="Trazado_1046779" data-name="Trazado 1046779" d="M45.165,33.457a1.9,1.9,0,0,1-.561-1.35V22.6a1.9,1.9,0,0,1,.951-1.647h0v-.255a3.8,3.8,0,0,0-3.8-3.8h0A5.279,5.279,0,0,1,38.136,21.9l-2.093.7h0a8.4,8.4,0,0,0-4.078-7.2l-1.23-.673h0a11.6,11.6,0,0,1-8.776,7.838l-3.989.8v8.751a1.9,1.9,0,0,1-.557,1.345h0a14.251,14.251,0,0,0,27.757,0Z" transform="translate(-0.411 -0.67)" fill="#fcd0ae"/>
      <path id="Trazado_1046780" data-name="Trazado 1046780" d="M41.87,16.889A5.279,5.279,0,0,1,38.256,21.9l-2.093.7a8.4,8.4,0,0,0-4.077-7.2l-1.23-.672a11.6,11.6,0,0,1-8.776,7.838L19.862,23V33.845a11.522,11.522,0,0,0,3.025,7.784,14.232,14.232,0,0,0,22.4-8.174h0a1.9,1.9,0,0,1-.562-1.348V22.6a1.9,1.9,0,0,1,.951-1.647h0v-.255A3.8,3.8,0,0,0,41.87,16.889Z" transform="translate(-0.53 -0.67)" fill="#fbe1ca"/>
      <path id="Trazado_1046781" data-name="Trazado 1046781" d="M46.243,20.072h0A14.268,14.268,0,0,0,31.975,5.8h-1.9A14.268,14.268,0,0,0,15.8,20.072H12A18.072,18.072,0,0,1,30.072,2h1.9A18.072,18.072,0,0,1,50.047,20.072Z" transform="translate(-0.146 -0.049)" fill="#5ed3f2"/>
      <path id="Trazado_1046782" data-name="Trazado 1046782" d="M38.535,48A13.317,13.317,0,0,1,51.852,61.317H10A13.317,13.317,0,0,1,23.317,48Z" transform="translate(-0.049 -2.294)" fill="#6649ea"/>
      <path id="Trazado_1046783" data-name="Trazado 1046783" d="M38.638,48H23.42a13.291,13.291,0,0,0-11.31,6.313,14.245,14.245,0,0,0,12.262,7H51.955A13.317,13.317,0,0,0,38.638,48Z" transform="translate(-0.152 -2.294)" fill="#8f6af4"/>
      <path id="Trazado_1046784" data-name="Trazado 1046784" d="M36.512,45.145v2.716a4.756,4.756,0,0,1-4.756,4.756h0A4.756,4.756,0,0,1,27,47.861V45.145h0a14.312,14.312,0,0,0,9.512,0Z" transform="translate(-0.879 -2.155)" fill="#f2b9a1"/>
      <path id="Trazado_1046785" data-name="Trazado 1046785" d="M36.609,47.861V45.145A14.128,14.128,0,0,1,29,45.661v2.2a4.756,4.756,0,0,0,3.806,4.661,4.756,4.756,0,0,0,3.8-4.661Z" transform="translate(-0.976 -2.155)" fill="#fcd0ae"/>
      <path id="Trazado_1046786" data-name="Trazado 1046786" d="M45.487,20.523a1.886,1.886,0,0,1,.951-.255h0A14.268,14.268,0,0,0,32.17,6h-1.9A14.268,14.268,0,0,0,16,20.268h0a1.9,1.9,0,0,1,1.9,1.9v.761l3.989-.8a11.6,11.6,0,0,0,8.78-7.852l1.225.687a8.4,8.4,0,0,1,4.078,7.2h0l2.093-.7a5.279,5.279,0,0,0,3.614-5.008h0a3.8,3.8,0,0,1,3.8,3.8Z" transform="translate(-0.342 -0.244)" fill="#686868"/>
      <rect id="Rect치ngulo_416055" data-name="Rect치ngulo 416055" width="8" height="13" rx="2" transform="translate(9.754 19.973)" fill="#3d54bd"/>
      <path id="Trazado_1046787" data-name="Trazado 1046787" d="M15.707,21H11.9A1.9,1.9,0,0,0,10,22.9v3.8A7.609,7.609,0,0,0,16.336,34.2a1.9,1.9,0,0,0,1.274-1.787V22.9A1.9,1.9,0,0,0,15.707,21Z" transform="translate(-0.049 -0.976)" fill="#546ded"/>
      <rect id="Rect치ngulo_416056" data-name="Rect치ngulo 416056" width="8" height="13" rx="2" transform="translate(43.754 19.973)" fill="#3d54bd"/>
      <path id="Trazado_1046788" data-name="Trazado 1046788" d="M31.663,40.734a7.072,7.072,0,0,1-6.358-3.928l-.2-.4,1.7-.85.2.4a5.206,5.206,0,0,0,9.312,0l.2-.4,1.7.85-.2.4a7.071,7.071,0,0,1-6.358,3.928Z" transform="translate(-0.786 -1.687)" fill="#f2b9a1"/>
      <path id="Trazado_1046789" data-name="Trazado 1046789" d="M27.26,28.759l-1.052-.526a3.129,3.129,0,0,0-2.753,0l-1.052.526-.85-1.7,1.051-.525a5.069,5.069,0,0,1,4.455,0l1.051.525Z" transform="translate(-0.613 -1.221)" fill="#686868"/>
      <path id="Trazado_1046790" data-name="Trazado 1046790" d="M41.26,28.759l-1.052-.526a3.129,3.129,0,0,0-2.753,0l-1.052.526-.85-1.7,1.051-.525a5.069,5.069,0,0,1,4.455,0l1.051.525Z" transform="translate(-1.296 -1.221)" fill="#686868"/>
      <path id="Trazado_1046791" data-name="Trazado 1046791" d="M51.707,21H47.9A1.9,1.9,0,0,0,46,22.9v3.8A7.609,7.609,0,0,0,52.336,34.2a1.9,1.9,0,0,0,1.274-1.787V22.9A1.9,1.9,0,0,0,51.707,21Z" transform="translate(-1.806 -0.976)" fill="#546ded"/>
      <path id="Trazado_1046792" data-name="Trazado 1046792" d="M45.354,34.181a2.809,2.809,0,0,0,.742.11h3.8a2.854,2.854,0,0,0,2.854-2.854V21.926a2.854,2.854,0,0,0-1.942-2.691A19.03,19.03,0,0,0,31.828,1h-1.9A19.03,19.03,0,0,0,10.942,19.235,2.854,2.854,0,0,0,9,21.926v9.512a2.854,2.854,0,0,0,2.854,2.854h3.8a2.809,2.809,0,0,0,.742-.11,15.1,15.1,0,0,0,8.77,9.461v1.112h-1.9A14.284,14.284,0,0,0,9,59.022a.951.951,0,0,0,.951.951H51.8a.951.951,0,0,0,.951-.951A14.284,14.284,0,0,0,38.487,44.754h-1.9V43.642a15.1,15.1,0,0,0,8.77-9.461ZM29.926,10.512a10.68,10.68,0,0,1-8.561,10.444l-2.466.494a14.584,14.584,0,0,0,2.466-8.084h-1.9a12.657,12.657,0,0,1-1.826,6.512,2.854,2.854,0,0,0-.988-.617A13.317,13.317,0,0,1,29.926,6.707h1.9A13.329,13.329,0,0,1,44.7,16.659a4.742,4.742,0,0,0-3.358-1.392.951.951,0,0,0-.951.951,4.321,4.321,0,0,1-2.959,4.105l-.937.313a9.406,9.406,0,0,0-4.448-6.73l-.6-.359a12.461,12.461,0,0,0,.382-3.037ZM50.852,31.438a.951.951,0,0,1-.951.951H46.1a.951.951,0,0,1-.951-.951V21.926a.951.951,0,0,1,.951-.951h3.8a.951.951,0,0,1,.951.951ZM29.926,2.9h1.9A17.128,17.128,0,0,1,48.9,19.072H47A15.226,15.226,0,0,0,31.828,4.8h-1.9a15.226,15.226,0,0,0-15.17,14.268h-1.9A17.128,17.128,0,0,1,29.926,2.9ZM11.854,32.389a.951.951,0,0,1-.951-.951V21.926a.951.951,0,0,1,.951-.951h3.8a.951.951,0,0,1,.951.951v9.512a.951.951,0,0,1-.951.951ZM18.043,33a2.83,2.83,0,0,0,.469-1.559V23.467l3.225-.646a12.577,12.577,0,0,0,9.086-7.428l.243.146a7.487,7.487,0,0,1,3.616,6.387.952.952,0,0,0,1.252.9l2.093-.7A6.225,6.225,0,0,0,42.192,17.3a2.854,2.854,0,0,1,1.98,2.526,2.837,2.837,0,0,0-.93,2.1v9.512A2.83,2.83,0,0,0,43.711,33a13.284,13.284,0,0,1-25.669,0ZM50.816,58.071H10.939A12.382,12.382,0,0,1,23.268,46.657h1.988a5.7,5.7,0,0,0,11.243,0h1.988A12.382,12.382,0,0,1,50.816,58.071ZM34.682,45.706a3.8,3.8,0,0,1-7.609,0V44.279a15.367,15.367,0,0,0,7.609,0Z"/>
      <path id="Trazado_1046793" data-name="Trazado 1046793" d="M38.021,36.8l.2-.4-1.7-.85-.2.4a5.206,5.206,0,0,1-9.312,0l-.2-.4-1.7.85.2.4a7.108,7.108,0,0,0,12.715,0Z" transform="translate(-0.786 -1.687)"/>
      <path id="Trazado_1046794" data-name="Trazado 1046794" d="M27.26,28.759l.85-1.7-1.051-.525a5.069,5.069,0,0,0-4.455,0l-1.051.525.85,1.7,1.052-.526a3.129,3.129,0,0,1,2.753,0Z" transform="translate(-0.613 -1.221)"/>
      <path id="Trazado_1046795" data-name="Trazado 1046795" d="M37.455,28.228a3.129,3.129,0,0,1,2.753,0l1.052.526.85-1.7-1.051-.525a5.069,5.069,0,0,0-4.455,0l-1.051.525.85,1.7Z" transform="translate(-1.296 -1.221)"/>
    </g>
  </g>
</svg>
