<svg xmlns="http://www.w3.org/2000/svg" xmlns:xlink="http://www.w3.org/1999/xlink" width="295" height="222" viewBox="0 0 295 222">
  <defs>
    <clipPath id="clip-path">
      <rect id="Rectángulo_415937" data-name="Rectángulo 415937" width="295" height="222" transform="translate(180 2045)" fill="#fff" stroke="#707070" stroke-width="1" opacity="0.82"/>
    </clipPath>
  </defs>
  <g id="Grupo_1182796" data-name="Grupo 1182796" transform="translate(-180 -2045)">
    <g id="Enmascarar_grupo_1098826" data-name="Enmascarar grupo 1098826" clip-path="url(#clip-path)">
      <g id="Grupo_1182795" data-name="Grupo 1182795" transform="translate(9.01 21.431)">
        <ellipse id="Elipse_12482" data-name="Elipse 12482" cx="138" cy="138.5" rx="138" ry="138.5" transform="translate(180.49 2071.569)" fill="#ebe9f0" opacity="0.47"/>
        <g id="Grupo_1182776" data-name="Grupo 1182776" transform="translate(203.918 2023.386)">
          <g id="Grupo_1182769" data-name="Grupo 1182769" transform="translate(67.934 360.951)">
            <path id="Trazado_1042932" data-name="Trazado 1042932" d="M1562.589,1569.67c-2.243-.685-4.674-1.716-4.846-3.254-.138-1.24,1.359-2.365,3.171-2.9a22.492,22.492,0,0,1,5.9-.613c8.771-.111,17.561.2,26.263.939a16.09,16.09,0,0,0,3.953.017c1.279-.214,2.467-.856,2.535-1.675a.981.981,0,0,0-.423-.8.92.92,0,0,1,.412-1.6c4.39-1.39,10.184-1.024,15.3-.535l20.258,1.936a7.816,7.816,0,0,1,3.712.962c1.333,1.009.346,2.634-1.433,3.317a8.552,8.552,0,0,1-1.468.406.957.957,0,0,0,.035,1.909c1.12.184,2.282.321,3.381.491,2.9.448,6.15,1.73,5.824,3.557-.331,1.854-3.954,2.6-6.922,2.946-7.146.821-14.287,1.667-21.445,2.4a3.5,3.5,0,0,0-2.241.769.894.894,0,0,0-.087.111,6.1,6.1,0,0,1-2.952,2.441,37.479,37.479,0,0,1-5.932,2.022,43.922,43.922,0,0,1-10.945.439c-4.592-.35-13.8-1.066-15.123-6.042-.372-1.4,2.08-3.254-.23-4.148-1.879-.728-6.106-.672-8.352-1.085A74.853,74.853,0,0,1,1562.589,1569.67Z" transform="translate(-1557.733 -1558.821)" fill="#cbd86f"/>
            <path id="Trazado_1042933" data-name="Trazado 1042933" d="M1639.331,1572.569c-1.1-.17-2.261-.306-3.381-.491a.957.957,0,0,1-.034-1.909,8.57,8.57,0,0,0,1.468-.407c1.779-.682,2.766-2.307,1.433-3.317a7.81,7.81,0,0,0-3.712-.962l-5.479-.523a10.125,10.125,0,0,1,.005,5.642c-.712,3.918-4.274,6.768-7.836,6.411-9.973-.356-13.316,8.526-30.769,6.8-12.247-1.213-3.615-7.106-8.488-8.488-8.124-2.3-21.341-.849-23.926-6.347a2.044,2.044,0,0,0-.873,1.729c.172,1.538,2.6,2.568,4.846,3.254a74.985,74.985,0,0,0,8.339,2.02c2.247.412,6.473.357,8.353,1.085,2.31.895-.142,2.744.23,4.148,1.319,4.976,10.531,5.692,15.122,6.042a43.922,43.922,0,0,0,10.945-.439,37.486,37.486,0,0,0,5.932-2.022,6.1,6.1,0,0,0,2.953-2.441.865.865,0,0,1,.087-.111,3.5,3.5,0,0,1,2.241-.769c7.159-.732,14.3-1.578,21.445-2.4,2.968-.341,6.591-1.092,6.922-2.946C1645.482,1574.3,1642.229,1573.018,1639.331,1572.569Z" transform="translate(-1557.732 -1563.111)" opacity="0.2"/>
            <path id="Trazado_1042934" data-name="Trazado 1042934" d="M1674.5,1562.152a8.257,8.257,0,0,0-3.529.716c-.44.234-.889.668-.767,1.151.141.557.9.69,1.219,1.169a1.2,1.2,0,0,1-.408,1.53,3.484,3.484,0,0,1-1.65.514l-9.851,1.324a4.174,4.174,0,0,0-1.665.467,1.423,1.423,0,0,0-.723,1.46,1.643,1.643,0,0,0,.948.992,7.132,7.132,0,0,0,3.609.405,57.907,57.907,0,0,0,11.257-1.708,4.938,4.938,0,0,0,1.9-.836,1.83,1.83,0,0,0,.692-1.849c-.152-.505-.6-.951-.51-1.471.116-.665.969-.852,1.643-.889l12.078-.67c.556-.031,2.408-.293,1.578-1.271-.546-.643-2.69-.541-3.495-.63a79.107,79.107,0,0,0-7.941-.481Q1676.691,1562.056,1674.5,1562.152Z" transform="translate(-1627.164 -1561.092)" fill="#fff" opacity="0.2"/>
          </g>
          <path id="Trazado_1042935" data-name="Trazado 1042935" d="M1953.63,865.082a162.13,162.13,0,0,0,24.344-4.654c4.028-1.095,6.284-5.5,9.822-7.721,16.137,1.011,11.348,15.743,6.861,19.987-10.286,9.731-21.854,12.286-35.328,16.64Z" transform="translate(-1766.444 -704.451)" fill="#e8a987"/>
          <path id="Trazado_1042936" data-name="Trazado 1042936" d="M1953.63,890.992q4.306-.486,8.58-1.206c4.046,8.324,10.01,15.881,19.088,17.794-6.746,3.155-14.026,5.1-21.969,7.665Z" transform="translate(-1766.444 -730.361)" opacity="0.2"/>
          <path id="Trazado_1042937" data-name="Trazado 1042937" d="M1797.37,897.048l15.825,35.47s6.1-1.033,13.66-2.739c11.879-2.689,27.356-7.052,28.356-11.722,1.492-6.981-4.909-26.646-8.727-30.4a2,2,0,0,0-1-.613C1843.372,886.722,1797.37,897.048,1797.37,897.048Z" transform="translate(-1657.253 -728.441)" fill="#f4dfa4"/>
          <path id="Trazado_1042938" data-name="Trazado 1042938" d="M1382.316,992.089a181.112,181.112,0,0,0-34.248,31.834,22.348,22.348,0,0,0-13.093,3c-1.37.818-2.786,2.032-2.771,3.628a3.485,3.485,0,0,0,1.827,2.8,10.283,10.283,0,0,0,3.309,1.065,9.32,9.32,0,0,0-4.567,5.45,4.746,4.746,0,0,0,.12,3.5,4.274,4.274,0,0,0,3.2,2.047,12.632,12.632,0,0,0,3.917-.217c-.918,1.456-2.092,3.076-1.524,4.7a4.6,4.6,0,0,0,4.058,2.836,7.56,7.56,0,0,0,4.87-1.636,22.469,22.469,0,0,0,3.678-3.721c.227,1.556.48,3.745,1.47,4.966a3.971,3.971,0,0,0,4.178,1.468c1.542-.529,2.388-2.178,2.849-3.743a17.193,17.193,0,0,0-.371-10.759,157.85,157.85,0,0,1,34.043-18.908C1392.211,1010.072,1388.1,1000.707,1382.316,992.089Z" transform="translate(-1332.203 -801.849)" fill="#e8a987"/>
          <path id="Trazado_1042939" data-name="Trazado 1042939" d="M1439.64,1006.534a180.88,180.88,0,0,1,17.753-14.439c5.779,8.618,9.895,17.983,10.941,28.307a152.006,152.006,0,0,0-25.307,12.994A41.564,41.564,0,0,0,1439.64,1006.534Z" transform="translate(-1407.278 -801.853)" opacity="0.2"/>
          <path id="Trazado_1042940" data-name="Trazado 1042940" d="M1520.53,1399.652l16.367,5.275s7.868-11.569,10.96-17.378c.246-.467.463-.9.641-1.279.014-.029.029-.053.039-.078,1.848-3.979,10.55-26.917,10.55-26.917l-34.194-5.457s1.089,18.554-.909,25.828C1522.729,1384.2,1520.53,1399.652,1520.53,1399.652Z" transform="translate(-1463.802 -1054.618)" fill="#e8a987"/>
          <path id="Trazado_1042941" data-name="Trazado 1042941" d="M1595.455,1458.488a30.288,30.288,0,0,0,4.417,1.218c.246-.467.463-.9.641-1.279a44.409,44.409,0,0,1-4.68-1.307C1594.961,1456.823,1594.605,1458.181,1595.455,1458.488Z" transform="translate(-1515.819 -1126.774)" fill="#d17656"/>
          <path id="Trazado_1042942" data-name="Trazado 1042942" d="M1533.412,1353.82l34.194,5.457s-8.066,21.263-10.316,26.394c-7.361-4.2-16.067-6.156-24.567-6.932C1534.418,1370.944,1533.412,1353.82,1533.412,1353.82Z" transform="translate(-1472.323 -1054.619)" opacity="0.2"/>
          <path id="Trazado_1042943" data-name="Trazado 1042943" d="M1743.99,1361.3c.071.431.142.866.21,1.3q.705,4.344,1.3,8.709,1.32,9.665,2.123,19.409.422,5.118.7,10.255.2,3.724.328,7.452c.05,1.514-.285,2.044.962,2.369a13.9,13.9,0,0,0,3.128.028c4.367.043,8.73.111,13.094.132a243.011,243.011,0,0,0,7.227-24.624c.072-.306.146-.613.218-.923q.465-2,.9-4,2.319-10.723,3.683-21.674c.05-.392.1-.787.146-1.183C1766.762,1359.066,1755.231,1360.783,1743.99,1361.3Z" transform="translate(-1619.952 -1057.922)" fill="#e8a987"/>
          <path id="Trazado_1042944" data-name="Trazado 1042944" d="M1822.27,1448.544a.569.569,0,0,0,.549.552,11.511,11.511,0,0,0,4.94-.46c.071-.306.146-.613.217-.922a14.111,14.111,0,0,1-5.157.281A.551.551,0,0,0,1822.27,1448.544Z" transform="translate(-1674.652 -1120.23)" fill="#d17656"/>
          <path id="Trazado_1042945" data-name="Trazado 1042945" d="M1755.562,1538.347a86.4,86.4,0,0,0-.411,15.909c10.5.928,21.25.841,31.788.868a1.461,1.461,0,0,0,1.794-1.745,12.9,12.9,0,0,0-4.648-9.388,25.346,25.346,0,0,0-9.342-4.774C1768.7,1537.338,1761.839,1538.964,1755.562,1538.347Z" transform="translate(-1627.614 -1183.514)" fill="#6f81d8"/>
          <path id="Trazado_1042946" data-name="Trazado 1042946" d="M1837.69,1564.054c.865-.846,1.606-1.819,2.548-2.586a5.4,5.4,0,0,1,1.436-.854,3.44,3.44,0,0,1,.808-.223,1.786,1.786,0,0,1,.871.025.341.341,0,0,1,.027.62c-.216.108-.475.114-.7.2a5.274,5.274,0,0,0-.687.313,5.961,5.961,0,0,0-1.173.907c-.835.8-1.486,1.75-2.369,2.5a.59.59,0,1,1-.759-.9Z" transform="translate(-1685.283 -1198.938)" fill="#445bb2"/>
          <path id="Trazado_1042947" data-name="Trazado 1042947" d="M1827.528,1555.074a29.423,29.423,0,0,1,2.271-2.793,6.556,6.556,0,0,1,1.292-1.059,3.162,3.162,0,0,1,1.586-.539.372.372,0,0,1,.32.184.392.392,0,0,1,.048.165c.026.3-.326.437-.53.574a6.866,6.866,0,0,0-.6.43,9.263,9.263,0,0,0-1.151,1.15,27.577,27.577,0,0,1-2.287,2.832.668.668,0,0,1-.944-.944Z" transform="translate(-1678.193 -1192.183)" fill="#445bb2"/>
          <path id="Trazado_1042948" data-name="Trazado 1042948" d="M1817.514,1549.2a14.442,14.442,0,0,1,2.374-3.47,8.351,8.351,0,0,1,1.457-1.212,3.718,3.718,0,0,1,1.765-.7.27.27,0,0,1,.189.456c-.42.4-.916.714-1.343,1.108a10.655,10.655,0,0,0-1.173,1.305c-.781,1-1.378,2.149-2.085,3.2A.685.685,0,0,1,1817.514,1549.2Z" transform="translate(-1671.27 -1187.388)" fill="#445bb2"/>
          <g id="Grupo_1182770" data-name="Grupo 1182770" transform="translate(125.385 339.238)">
            <path id="Trazado_1042949" data-name="Trazado 1042949" d="M1748.842,1493.951q1.073,4.718,2.146,9.432c.647.31,1.3.591,1.971.837.5.189,1.009.356,1.52.506a22.9,22.9,0,0,0,2.707.623q.734.128,1.473.2a23.553,23.553,0,0,0,3.648.1c.548-.025,1.091-.068,1.635-.132.658-.075,1.313-.174,1.963-.306.508-.1,1.012-.214,1.513-.349.34-.086.676-.185,1.012-.292q.912-.278,1.8-.638c.254-.1.5-.2.751-.31a30.54,30.54,0,0,1,2.75-7.6,18.089,18.089,0,0,0,1.241-2.618,4.609,4.609,0,0,0,.093-2.917,3.2,3.2,0,0,0-.815-1.261,4.168,4.168,0,0,0-.869-.645,7.957,7.957,0,0,0-1.9-.752,30.185,30.185,0,0,0-3.322-.7q-.387-.059-.772-.107a37.9,37.9,0,0,0-4.27-.292c-.354-.007-.708-.007-1.066,0-1.488.007-2.983.082-4.474.192-.318.025-.636.05-.958.078-1.152.1-2.3.214-3.451.339-.35.039-.7.078-1.052.135a6.719,6.719,0,0,0-.837.178,5.149,5.149,0,0,0-.54.182,3.569,3.569,0,0,0-1.91,1.7C1748.194,1490.863,1748.508,1492.493,1748.842,1493.951Z" transform="translate(-1748.463 -1486.735)" fill="#f4dfa4"/>
            <path id="Trazado_1042950" data-name="Trazado 1042950" d="M1814.74,1508.886q.912-.278,1.8-.638c.183-.556.357-1.111.536-1.663a115.489,115.489,0,0,0,3.483-13.04,4.165,4.165,0,0,0-.869-.645l-.365,1.271c-.812,2.807-1.591,5.624-2.464,8.413q-.649,2.073-1.352,4.132C1815.267,1507.44,1815,1508.163,1814.74,1508.886Z" transform="translate(-1794.776 -1491.043)" fill="#f4e9d0"/>
            <path id="Trazado_1042951" data-name="Trazado 1042951" d="M1806.36,1505.917c.508-.1,1.012-.214,1.513-.349.1-.68.186-1.357.264-2.041a104.873,104.873,0,0,0,.483-15.687q-.386-.059-.772-.107c-.043.819-.082,1.635-.122,2.454-.143,3.049-.3,6.094-.554,9.14-.128,1.539-.29,3.078-.5,4.609C1806.574,1504.6,1806.474,1505.257,1806.36,1505.917Z" transform="translate(-1788.92 -1487.432)" fill="#f4e9d0"/>
            <path id="Trazado_1042952" data-name="Trazado 1042952" d="M1793.862,1497.931q.027,2.292.015,4.591c0,.794-.015,1.589-.025,2.383,0,.253-.011.5-.014.755.547-.025,1.091-.068,1.635-.132,0-.356-.007-.712-.007-1.065,0-.855,0-1.706-.014-2.561q-.048-4.685-.333-9.357-.139-2.34-.365-4.673c-.036-.374-.068-.748-.1-1.126-.354-.007-.708-.007-1.066,0,.025.645.061,1.286.079,1.923C1793.75,1491.756,1793.832,1494.84,1793.862,1497.931Z" transform="translate(-1779.994 -1486.739)" fill="#f4e9d0"/>
            <path id="Trazado_1042953" data-name="Trazado 1042953" d="M1775.244,1498.834q.123,2.367.325,4.727c.064.751.132,1.492.211,2.24.49.086.98.153,1.473.2-.021-.175-.046-.349-.064-.52q-.151-1.352-.279-2.711c-.479-5.122-.644-10.255-.733-15.391-.318.025-.636.05-.959.078-.032.6-.061,1.2-.082,1.809C1775.015,1492.457,1775.078,1495.653,1775.244,1498.834Z" transform="translate(-1767.057 -1487.187)" fill="#f4e9d0"/>
            <path id="Trazado_1042954" data-name="Trazado 1042954" d="M1757.807,1490.954a75.519,75.519,0,0,0,.647,9.072c.193,1.507.447,3.01.737,4.5.093.481.19.958.293,1.435.5.189,1.009.356,1.52.506-.015-.068-.032-.132-.046-.2q-.295-1.256-.551-2.518a98.412,98.412,0,0,1-1.759-14.526,6.8,6.8,0,0,0-.837.178C1757.8,1489.918,1757.8,1490.433,1757.807,1490.954Z" transform="translate(-1754.989 -1488.474)" fill="#f4e9d0"/>
            <path id="Trazado_1042955" data-name="Trazado 1042955" d="M1748.831,1491a3.564,3.564,0,0,1,1.91-1.7,5.1,5.1,0,0,1,.54-.182,6.738,6.738,0,0,1,.837-.178c.316-.052.638-.089.958-.124-.327,4.7.854,9.082,5.934,11.2a24.7,24.7,0,0,0,12.863,1.849,31.156,31.156,0,0,0-.894,3.223c-.25.111-.5.214-.751.31q-.891.358-1.8.638c-.336.107-.672.207-1.012.292-.5.135-1,.253-1.512.349-.651.132-1.305.232-1.963.306-.544.064-1.087.107-1.634.131a23.509,23.509,0,0,1-3.648-.1c-.494-.05-.984-.118-1.474-.2a22.878,22.878,0,0,1-2.707-.623c-.511-.15-1.019-.317-1.52-.506-.669-.246-1.323-.527-1.971-.837q-1.073-4.718-2.146-9.432C1748.506,1493.943,1748.193,1492.314,1748.831,1491Z" transform="translate(-1748.461 -1488.186)" opacity="0.4"/>
          </g>
          <path id="Trazado_1042956" data-name="Trazado 1042956" d="M1744.69,1365.34q.705,4.344,1.3,8.709,1.32,9.665,2.123,19.409a56.576,56.576,0,0,1,26.55-9.314q2.319-10.723,3.683-21.674C1767.212,1363.087,1755.853,1364.626,1744.69,1365.34Z" transform="translate(-1620.441 -1060.663)" opacity="0.2"/>
          <path id="Trazado_1042957" data-name="Trazado 1042957" d="M1506.487,1528.42c-1.819,5.82-2.019,14.361-1.637,19.432,10.5.927,21.493.477,32.03.5a1.461,1.461,0,0,0,1.794-1.745,12.9,12.9,0,0,0-4.648-9.388,25.353,25.353,0,0,0-9.342-4.774A90.59,90.59,0,0,0,1506.487,1528.42Z" transform="translate(-1452.732 -1176.626)" fill="#6f81d8"/>
          <path id="Trazado_1042958" data-name="Trazado 1042958" d="M1588.11,1564.464c.865-.846,1.606-1.819,2.548-2.586a5.421,5.421,0,0,1,1.436-.855,3.446,3.446,0,0,1,.808-.223,1.788,1.788,0,0,1,.87.025.341.341,0,0,1,.027.62c-.216.108-.475.114-.7.2a5.263,5.263,0,0,0-.687.313,5.964,5.964,0,0,0-1.174.907c-.835.8-1.486,1.75-2.369,2.5a.59.59,0,1,1-.759-.9Z" transform="translate(-1510.881 -1199.224)" fill="#445bb2"/>
          <path id="Trazado_1042959" data-name="Trazado 1042959" d="M1577.948,1555.474a29.456,29.456,0,0,1,2.271-2.793,6.557,6.557,0,0,1,1.292-1.058,3.165,3.165,0,0,1,1.586-.539.372.372,0,0,1,.32.184.4.4,0,0,1,.049.165c.026.3-.326.437-.53.574a6.9,6.9,0,0,0-.6.43,9.263,9.263,0,0,0-1.151,1.15,27.608,27.608,0,0,1-2.287,2.832.668.668,0,0,1-.945-.944Z" transform="translate(-1503.792 -1192.463)" fill="#445bb2"/>
          <path id="Trazado_1042960" data-name="Trazado 1042960" d="M1567.934,1549.6a14.431,14.431,0,0,1,2.374-3.47,8.318,8.318,0,0,1,1.457-1.213,3.719,3.719,0,0,1,1.765-.7.27.27,0,0,1,.189.456c-.42.4-.916.714-1.343,1.108a10.7,10.7,0,0,0-1.174,1.305c-.78,1-1.378,2.149-2.085,3.2A.685.685,0,0,1,1567.934,1549.6Z" transform="translate(-1496.868 -1187.667)" fill="#445bb2"/>
          <g id="Grupo_1182771" data-name="Grupo 1182771" transform="translate(53.564 337.034)">
            <path id="Trazado_1042961" data-name="Trazado 1042961" d="M1510.04,1485.143q.134,4.836.268,9.669c.575.43,1.162.834,1.77,1.2.454.283.92.546,1.392.792a22.9,22.9,0,0,0,2.534,1.138c.464.179.931.341,1.406.486a23.569,23.569,0,0,0,3.558.812c.542.082,1.083.146,1.629.189.66.055,1.321.084,1.985.081.517,0,1.034-.013,1.552-.048.35-.018.7-.05,1.049-.089.632-.063,1.263-.156,1.892-.275.268-.045.53-.1.8-.158a30.554,30.554,0,0,1,4.177-6.917,18.141,18.141,0,0,0,1.727-2.326,4.609,4.609,0,0,0,.659-2.843,3.2,3.2,0,0,0-.554-1.4,4.165,4.165,0,0,0-.727-.8,7.954,7.954,0,0,0-1.713-1.106,30.073,30.073,0,0,0-3.123-1.331q-.367-.133-.737-.255a38.037,38.037,0,0,0-4.131-1.118c-.346-.076-.693-.145-1.045-.211-1.46-.283-2.941-.5-4.426-.682-.317-.037-.634-.075-.955-.109-1.148-.13-2.3-.239-3.451-.34-.351-.03-.706-.06-1.058-.072a6.78,6.78,0,0,0-.855.012,5.037,5.037,0,0,0-.565.073,3.567,3.567,0,0,0-2.2,1.3C1510.007,1481.986,1510,1483.646,1510.04,1485.143Z" transform="translate(-1510.027 -1479.426)" fill="#f4dfa4"/>
            <path id="Trazado_1042962" data-name="Trazado 1042962" d="M1566.99,1511.512c.632-.063,1.263-.156,1.892-.274.287-.51.567-1.021.85-1.527a115.471,115.471,0,0,0,5.955-12.113,4.166,4.166,0,0,0-.727-.8l-.605,1.176c-1.343,2.595-2.656,5.207-4.055,7.773q-1.04,1.907-2.13,3.79C1567.785,1510.2,1567.378,1510.852,1566.99,1511.512Z" transform="translate(-1549.831 -1491.562)" fill="#f4e9d0"/>
            <path id="Trazado_1042963" data-name="Trazado 1042963" d="M1558.35,1505.406c.517,0,1.034-.013,1.552-.048.231-.648.447-1.295.657-1.95a104.9,104.9,0,0,0,3.527-15.293q-.367-.133-.737-.255c-.2.8-.4,1.588-.6,2.383-.734,2.963-1.481,5.919-2.323,8.857-.426,1.484-.883,2.962-1.392,4.423C1558.817,1504.156,1558.591,1504.782,1558.35,1505.406Z" transform="translate(-1543.794 -1485.318)" fill="#f4e9d0"/>
            <path id="Trazado_1042964" data-name="Trazado 1042964" d="M1547.882,1494.478q-.42,2.253-.88,4.506c-.158.778-.323,1.555-.489,2.332-.053.247-.108.49-.161.738.542.082,1.083.146,1.629.189.069-.349.132-.7.2-1.046.166-.839.329-1.674.484-2.515q.865-4.605,1.5-9.243.318-2.323.552-4.655c.037-.374.079-.747.121-1.124-.346-.076-.693-.145-1.045-.211-.1.637-.191,1.273-.3,1.9C1548.975,1488.4,1548.451,1491.438,1547.882,1494.478Z" transform="translate(-1535.411 -1482.236)" fill="#f4e9d0"/>
            <path id="Trazado_1042965" data-name="Trazado 1042965" d="M1530.7,1491.979q-.34,2.345-.6,4.7c-.083.75-.161,1.49-.229,2.239.464.179.931.341,1.406.486.013-.175.022-.351.038-.523q.115-1.355.254-2.713c.527-5.117,1.365-10.184,2.277-15.239-.317-.038-.634-.075-.955-.11-.149.584-.294,1.169-.433,1.759C1531.722,1485.678,1531.162,1488.829,1530.7,1491.979Z" transform="translate(-1523.896 -1480.398)" fill="#f4e9d0"/>
            <path id="Trazado_1042966" data-name="Trazado 1042966" d="M1518.1,1480.971a75.515,75.515,0,0,0-1.131,9.025c-.1,1.515-.148,3.039-.153,4.556,0,.49,0,.977.008,1.465.454.282.92.546,1.392.792,0-.069-.006-.136-.007-.2q-.044-1.289-.05-2.577a98.443,98.443,0,0,1,1.1-14.59,6.782,6.782,0,0,0-.855.012C1518.294,1479.953,1518.192,1480.459,1518.1,1480.971Z" transform="translate(-1514.769 -1479.426)" fill="#f4e9d0"/>
            <path id="Trazado_1042967" data-name="Trazado 1042967" d="M1510.895,1480.812a3.567,3.567,0,0,1,2.2-1.3,5.111,5.111,0,0,1,.565-.073,6.739,6.739,0,0,1,.856-.012c.32.011.643.037.964.064-1.236,4.548-.93,9.074,3.64,12.14a24.693,24.693,0,0,0,12.257,4.317,31.161,31.161,0,0,0-1.5,2.988c-.267.06-.529.113-.8.158-.629.118-1.26.211-1.892.274-.351.04-.7.072-1.05.089-.517.035-1.035.052-1.552.048-.664,0-1.325-.027-1.985-.082-.545-.043-1.087-.107-1.629-.189a23.566,23.566,0,0,1-3.558-.811c-.474-.145-.942-.307-1.406-.486a22.865,22.865,0,0,1-2.534-1.138c-.472-.246-.938-.509-1.392-.792-.608-.371-1.2-.775-1.77-1.2q-.134-4.837-.268-9.669C1510,1483.641,1510.009,1481.981,1510.895,1480.812Z" transform="translate(-1510.029 -1479.421)" opacity="0.4"/>
          </g>
          <path id="Trazado_1042968" data-name="Trazado 1042968" d="M1507.84,1262.484c14.8,6.9,32.677,10.767,48.745,7.821,1.368-6.194,4.807-19.79,6.175-25.984a55.685,55.685,0,0,0,8.581-.107h0c.11-.011.221-.021.331-.036a.032.032,0,0,0,0,.018,242.723,242.723,0,0,1,1.64,24.654c14.34,2.764,30.2.235,44.38-3.274a276.324,276.324,0,0,0,3.409-30.605c.018-.392.035-.787.046-1.183a235.378,235.378,0,0,0-.453-25.364c-8.107-.506-16.345-.869-24.634-1.051-.556-.014-1.108-.025-1.663-.032a482.313,482.313,0,0,0-50.59,1.528c-.342.029-.684.06-1.026.092-.217.018-.435.039-.656.061-9.656.9-19.537,2.219-28.887-.235-.534,6.558-.98,13.218-1.378,19.9-.032.531-.064,1.065-.1,1.6A273,273,0,0,1,1507.84,1262.484Z" transform="translate(-1454.935 -952.189)" fill="#6f81d8"/>
          <path id="Trazado_1042969" data-name="Trazado 1042969" d="M1795.216,1205.6a.747.747,0,0,0,.078.3,71.242,71.242,0,0,0,4.862,8.567,55.827,55.827,0,0,0,11.569,12.958,37.981,37.981,0,0,0,7.384,4.695,22.025,22.025,0,0,0,2.811,1.108c.018-.392.035-.787.046-1.182a22.2,22.2,0,0,1-3.782-1.81,46.645,46.645,0,0,1-12.5-10.935,84.733,84.733,0,0,1-8.8-13.671c-.089-.167-.178-.331-.267-.5C1796.2,1204.367,1795.165,1204.875,1795.216,1205.6Z" transform="translate(-1655.746 -950.454)" fill="#445bb2"/>
          <path id="Trazado_1042970" data-name="Trazado 1042970" d="M1520.89,1233.895a61.524,61.524,0,0,0,15.391-7.519,92.289,92.289,0,0,0,15.58-13.411.308.308,0,0,0,.046-.388.323.323,0,0,0-.509-.075c-.05.046-.1.093-.146.135-2.714,2.557-5.528,5.019-8.445,7.337a76.109,76.109,0,0,1-17.232,10.608q-2.26.967-4.588,1.717C1520.953,1232.828,1520.923,1233.365,1520.89,1233.895Z" transform="translate(-1464.054 -955.804)" fill="#445bb2"/>
          <path id="Trazado_1042971" data-name="Trazado 1042971" d="M1649.3,1245.939a111.816,111.816,0,0,0,11.761,1.4c1.356-.179,2.726-.276,4.082-.452-.1-1.752-.131-3.511-.151-5.264q-.037-3.268-.006-6.536.064-6.669.427-13.329c.14-2.5.314-5,.552-7.49.072-.759,1.254-.78,1.2,0-.591,8.847-1.064,17.691-1.073,26.561,0,1.973.034,3.948.011,5.922q2.454-.363,4.883-.871a100.735,100.735,0,0,0,10.8-2.93c2.024-.669,4.042-1.355,6.026-2.138.27-.107.453.336.2.468a64.021,64.021,0,0,1-10.517,4.352,74.956,74.956,0,0,1-7.552,1.887c1.6-.039,3.2-.113,4.8-.235,2.39-.182,4.761-.474,7.141-.745.332-.038.4.5.078.579a70.281,70.281,0,0,1-12.87,1.634q-3.839.172-7.683-.011c-.5.022-.991.028-1.483.006a.582.582,0,0,1-.312-.107q-1.687-.114-3.37-.291c-2.453-.26-4.887-.62-7.3-1.12C1648.1,1247.05,1648.466,1245.794,1649.3,1245.939Z" transform="translate(-1553.2 -956.699)" fill="#445bb2"/>
          <path id="Trazado_1042972" data-name="Trazado 1042972" d="M1721.86,1396.537c.2,1.294.254,2.71.453,4a90.638,90.638,0,0,0,45.479-.6l.75-6.424A152.352,152.352,0,0,1,1721.86,1396.537Z" transform="translate(-1604.488 -1082.357)" fill="#445bb2"/>
          <path id="Trazado_1042973" data-name="Trazado 1042973" d="M1505.066,1385.46c-.081,1.5-.4,3.347-.48,4.843a77.442,77.442,0,0,0,50.342,6.317l.8-4.23A108.937,108.937,0,0,1,1505.066,1385.46Z" transform="translate(-1452.661 -1076.729)" fill="#445bb2"/>
          <path id="Trazado_1042974" data-name="Trazado 1042974" d="M1522.534,1208.792c9.35,2.454,19.231,1.136,28.887.235.221-.021.438-.043.656-.06.342-.032.684-.064,1.026-.093a482.309,482.309,0,0,1,50.589-1.528c.556.007,1.108.018,1.663.032,8.289.182,16.527.545,24.634,1.051q.6,8.4.6,16.834c-21.761-2.978-43.728-.312-65.695,5.328a78.276,78.276,0,0,1-43.765-1.486c.008-.139.016-.278.025-.416C1521.552,1222.01,1522,1215.35,1522.534,1208.792Z" transform="translate(-1464.222 -952.193)" opacity="0.2"/>
          <path id="Trazado_1042975" data-name="Trazado 1042975" d="M1613.114,931.405a218.419,218.419,0,0,1,16.622,72.521,13.033,13.033,0,0,1-.524,5.533c-1.107,2.784-3.991,4.525-6.92,5.159s-5.965.356-8.959.254c-10.883-.372-21.693,1.606-32.4,3.588s-21.511,3.983-32.4,3.658-22.005-3.166-30.523-9.95c-1.337-3.93.315-7.7,1.586-11.652a244.285,244.285,0,0,0,11.7-74.072c8.407-3.4,16.955-5.086,25.686-6.311,8.772-1.231,18.243-1.319,27.1-1.267s12.369.176,22.19-1.916C1607.6,919.3,1612.068,928.913,1613.114,931.405Z" transform="translate(-1461.698 -749.342)" fill="#f7d772"/>
          <path id="Trazado_1042976" data-name="Trazado 1042976" d="M1519.6,1015.93a244.271,244.271,0,0,0,11.7-74.072,81.089,81.089,0,0,1,8.38-2.851c.73,10.66,2.747,21.09,7.378,30.772,13.857,30.177,49.809,45.708,81.851,39.007q.543,5.266.831,10.555a13.038,13.038,0,0,1-.524,5.533c-1.107,2.784-3.991,4.526-6.92,5.159s-5.965.356-8.959.254c-10.883-.372-21.694,1.606-32.4,3.588s-21.511,3.983-32.4,3.659-22.005-3.166-30.523-9.95C1516.68,1023.651,1518.331,1019.882,1519.6,1015.93Z" transform="translate(-1461.699 -764.756)" opacity="0.3"/>
          <path id="Trazado_1042977" data-name="Trazado 1042977" d="M1646.179,922.928a10.888,10.888,0,0,0,1.03.824,13.733,13.733,0,0,0,2.841,1.557q.721.285,1.463.519c.378.127.76.236,1.146.342a29.181,29.181,0,0,0,4.869.847c.376.034.753.061,1.13.084a42.005,42.005,0,0,0,5.8-.083c.4-.033.8-.068,1.192-.112a61.279,61.279,0,0,0,6.075-.941l.246-.049.712-.152a16.23,16.23,0,0,0,6.74-2.859c.048-.033.094-.076.143-.116a4.016,4.016,0,0,0,.43-.437,3.672,3.672,0,0,0-.491-5.269,7.181,7.181,0,0,0-.992-.7s0,0-.007,0a9.017,9.017,0,0,0-1.567-.747,19.853,19.853,0,0,0-4.17-.954c-.312-.044-.626-.085-.934-.129a62.453,62.453,0,0,0-8.39-.573,68.924,68.924,0,0,0-10.417.8c-2.316.349-4.895.321-7.026,1.421a3.789,3.789,0,0,0-.827.559,2.885,2.885,0,0,0-.8,1.118c-.038.1-.069.2-.1.294C1643.751,919.976,1644.745,921.63,1646.179,922.928Z" transform="translate(-1550.175 -747.267)" fill="#edbe3a"/>
          <path id="Trazado_1042978" data-name="Trazado 1042978" d="M1744,920.225s0,0-.007,0a8.586,8.586,0,0,0-1.082.236,7.144,7.144,0,0,0-2.386,1.19,15.868,15.868,0,0,1,4.958,4.543,4.047,4.047,0,0,1-.43.437c-.049.04-.094.083-.143.116a16.91,16.91,0,0,0-6.753-5.172c-.56-.242-.273-1.13.313-.908.338.132.671.277,1,.43a.561.561,0,0,1,.18-.253,6.956,6.956,0,0,1,2.775-1.366Z" transform="translate(-1615.667 -751.109)" fill="#f7d772"/>
          <path id="Trazado_1042979" data-name="Trazado 1042979" d="M1725.907,931.64a22.2,22.2,0,0,1,2.888,6.035l.246-.049.713-.152a18.686,18.686,0,0,0-3.053-6.534C1726.293,930.383,1725.533,931.089,1725.907,931.64Z" transform="translate(-1607.246 -758.977)" fill="#f7d772"/>
          <path id="Trazado_1042980" data-name="Trazado 1042980" d="M1709.858,930.2c.107,1.855.27,3.71.4,5.563.051.735.084,1.472.127,2.206.4-.032.8-.068,1.192-.112-.009-.729-.038-1.458-.064-2.188a51.425,51.425,0,0,0-.47-5.557C1710.942,929.454,1709.822,929.532,1709.858,930.2Z" transform="translate(-1596.1 -758.223)" fill="#f7d772"/>
          <path id="Trazado_1042981" data-name="Trazado 1042981" d="M1688.59,937.149c.376.034.753.061,1.13.084.227-.9.475-1.787.751-2.669.593-1.908,1.325-3.765,2.054-5.622.144-.366-.431-.655-.616-.306a39.406,39.406,0,0,0-2.395,5.6C1689.177,935.2,1688.861,936.167,1688.59,937.149Z" transform="translate(-1581.239 -757.399)" fill="#f7d772"/>
          <path id="Trazado_1042982" data-name="Trazado 1042982" d="M1668.63,937.425c.378.127.76.236,1.146.342.311-.7.636-1.4.972-2.092.784-1.6,1.822-3.092,2.526-4.722a.288.288,0,0,0-.459-.307,19.554,19.554,0,0,0-3.058,4.539C1669.35,935.921,1668.976,936.665,1668.63,937.425Z" transform="translate(-1567.292 -758.865)" fill="#f7d772"/>
          <path id="Trazado_1042983" data-name="Trazado 1042983" d="M1650.92,929.969a10.932,10.932,0,0,0,1.03.824,15.078,15.078,0,0,1,1.193-2.1,15.841,15.841,0,0,1,1.926-2.34c.361-.359.753-.7,1.1-1.074a.9.9,0,0,0,.216-1.072c-.171-.289-.658-.151-.573.2.04.167-.981.739-1.135.868-.38.315-.743.65-1.09,1a15.069,15.069,0,0,0-2.669,3.689Z" transform="translate(-1554.916 -754.308)" fill="#f7d772"/>
          <path id="Trazado_1042984" data-name="Trazado 1042984" d="M1644.61,923.979c.621-.165,1.25-.3,1.881-.412a18.292,18.292,0,0,1,2.02-.235,9.283,9.283,0,0,1,2.154.026c.441.081.556-.626.151-.758a10.816,10.816,0,0,0-4.405-.155c-.3.031-.6.073-.9.123a2.882,2.882,0,0,0-.8,1.118C1644.67,923.783,1644.637,923.885,1644.61,923.979Z" transform="translate(-1550.507 -753.079)" fill="#f7d772"/>
          <g id="Grupo_1182772" data-name="Grupo 1182772" transform="translate(97.669 150.651)">
            <path id="Trazado_1042985" data-name="Trazado 1042985" d="M1656.512,880.825c-.026.48-.048.957-.063,1.431a19.287,19.287,0,0,0,1.824.866c.439.181.888.351,1.339.508a28.127,28.127,0,0,0,3.358.925c.437.095.871.179,1.308.252.618.11,1.237.194,1.854.265.4.05.8.093,1.2.121.98.082,1.937.127,2.861.134.667.005,1.357-.012,2.055-.058.394-.022.792-.055,1.191-.094,1.16-.11,2.341-.287,3.5-.511.343-.068.683-.14,1.02-.219,1.053-.235,2.084-.517,3.057-.839.287-.143.575-.289.855-.439.321-.169.635-.35.95-.534q.672-.4,1.322-.832-.509-2.323-.878-4.672c-.031-.184-.06-.364-.084-.548a83.38,83.38,0,0,1-.9-9.5,226.909,226.909,0,0,0-22.649-6.42l.171.814a74.9,74.9,0,0,0-2.949,14.835C1656.7,877.824,1656.588,879.334,1656.512,880.825Z" transform="translate(-1656.449 -860.662)" fill="#e8a987"/>
            <path id="Trazado_1042986" data-name="Trazado 1042986" d="M1658.79,873.8a72.159,72.159,0,0,1,2.653-12.33l-.171-.814a226.991,226.991,0,0,1,22.649,6.42c.072,1.945.22,3.887.428,5.822C1675.869,874.7,1667.143,875.429,1658.79,873.8Z" transform="translate(-1658.085 -860.659)" opacity="0.2"/>
          </g>
          <g id="Grupo_1182773" data-name="Grupo 1182773" transform="translate(160.261 72.331)">
            <path id="Trazado_1042987" data-name="Trazado 1042987" d="M1872.4,604.477a14.863,14.863,0,0,1,9.334-3.829,12.623,12.623,0,0,1,10.949,7.325,16.852,16.852,0,0,1,0,13.5,25.64,25.64,0,0,1-8.741,10.581,18.678,18.678,0,0,1-7.523,3.554,9.78,9.78,0,0,1-7.934-1.77c-3.123-2.58-4.245-7.7-4.242-11.591a24.11,24.11,0,0,1,3.325-12.039A22.363,22.363,0,0,1,1872.4,604.477Z" transform="translate(-1864.245 -600.649)" fill="#e8a987"/>
            <path id="Trazado_1042988" data-name="Trazado 1042988" d="M1899.216,648.425c1.63-.936,3.7-1.55,5.353-.66,1.819.978,2.366,3.362,2.2,5.421a12.407,12.407,0,0,1-12.129,11.381,4.1,4.1,0,0,1-1.932-.33c-2.563-1.29-.541-7.036.325-8.925A15.275,15.275,0,0,1,1899.216,648.425Z" transform="translate(-1883.256 -633.27)" fill="#d17656"/>
            <path id="Trazado_1042989" data-name="Trazado 1042989" d="M1904.573,647.765c-1.655-.89-3.723-.275-5.353.66a15.288,15.288,0,0,0-6.186,6.887c-.667,1.456-2.02,5.2-1.432,7.435a29.391,29.391,0,0,1,1.85-4.174,12.639,12.639,0,0,1,13.319-5.425C1906.931,651.1,1906.38,648.737,1904.573,647.765Z" transform="translate(-1883.26 -633.27)" opacity="0.2"/>
            <path id="Trazado_1042990" data-name="Trazado 1042990" d="M1864.25,622.243a24.109,24.109,0,0,1,3.325-12.039,22.322,22.322,0,0,1,4.831-5.727,14.861,14.861,0,0,1,9.334-3.829,11.05,11.05,0,0,1,4.437.971c-4.93,8.644-4.486,20.3-1.911,30.192-.106.08-.21.161-.317.239a18.678,18.678,0,0,1-7.523,3.554,9.78,9.78,0,0,1-7.934-1.77C1865.367,631.254,1864.247,626.138,1864.25,622.243Z" transform="translate(-1864.248 -600.649)" opacity="0.2"/>
          </g>
          <path id="Trazado_1042991" data-name="Trazado 1042991" d="M1473.01,540.519c1.093,16.8,2.39,33.849,8.114,49.685s16.506,30.586,31.914,37.379c15.22,6.711,32.791,4.93,49.044,1.368,10.9-2.39,21.827-5.61,31.153-11.744s16.951-15.569,18.753-26.582c.036-.217.068-.431.1-.648,1.24-8.641-1.072-17.282-4.3-25.539-.933-2.393-1.945-4.755-2.971-7.077-.656-1.485-1.322-2.981-1.977-4.481-3.968-9.054-7.662-18.386-7.437-28.175,0-.082,0-.16,0-.242-19.352-6.768-44.524-7.348-64.634-3.373S1491.758,532.227,1473.01,540.519Z" transform="translate(-1430.596 -470.991)" fill="#e8a987"/>
          <path id="Trazado_1042992" data-name="Trazado 1042992" d="M1717.884,695.039a2.131,2.131,0,0,1-1.155,1.7c-.808.275-1.64-.355-2.161-1.031a7.368,7.368,0,0,1-1.449-5.407c.264-1.972,2-3.584,3.414-1.634A8.246,8.246,0,0,1,1717.884,695.039Z" transform="translate(-1598.337 -589.203)" fill="#472209"/>
          <path id="Trazado_1042993" data-name="Trazado 1042993" d="M1681.985,632.111c1.949-2.653,4.91-4.766,8.2-4.881,1.466-.052,3.128.44,3.758,1.764.639,1.341-.037,2.932-.869,4.163a29.267,29.267,0,0,1-9.241,8.149,8.286,8.286,0,0,1-2.547,1.127c-1.781.367-3.3-.422-3.049-2.361C1678.575,637.436,1680.439,634.215,1681.985,632.111Z" transform="translate(-1573.986 -546.889)" fill="#472209"/>
          <path id="Trazado_1042994" data-name="Trazado 1042994" d="M1619.337,705.565a13.024,13.024,0,0,1,4.456,14.157c-2.386,7.007-11.2,11.344-19.2,8.924a18.182,18.182,0,0,1-12.446-14.379c-1.552-12.285,15.4-15.267,25.163-10.035A13.666,13.666,0,0,1,1619.337,705.565Z" transform="translate(-1513.775 -598.976)" fill="#e7363e" opacity="0.2"/>
          <path id="Trazado_1042995" data-name="Trazado 1042995" d="M1834.83,677.909a2.132,2.132,0,0,0,1.786,1.01c.846-.111,1.313-1.043,1.481-1.88a7.365,7.365,0,0,0-1.091-5.49c-1.109-1.652-3.376-2.331-3.785.044A8.252,8.252,0,0,0,1834.83,677.909Z" transform="translate(-1682.231 -576.815)" fill="#472209"/>
          <path id="Trazado_1042996" data-name="Trazado 1042996" d="M1820.633,609.4c-2.847-1.654-6.4-2.409-9.468-1.2-1.364.538-2.692,1.652-2.741,3.118-.051,1.485,1.2,2.673,2.459,3.47,3.462,2.2,7.587,3.037,11.609,3.836,2.1.418,6.621-.292,4.755-3.421C1825.887,612.919,1822.89,610.71,1820.633,609.4Z" transform="translate(-1664.976 -533.178)" fill="#472209"/>
          <path id="Trazado_1042997" data-name="Trazado 1042997" d="M1870.123,695.253a13.369,13.369,0,0,0,16.339.941c1.237-8.64-1.074-17.281-4.3-25.539-5.766-.487-12.361,3.529-15.187,8.975a11.549,11.549,0,0,0-.8,2A13.512,13.512,0,0,0,1870.123,695.253Z" transform="translate(-1704.972 -577.208)" fill="#e7363e" opacity="0.2"/>
          <path id="Trazado_1042998" data-name="Trazado 1042998" d="M1772.9,699.166a11.238,11.238,0,0,1,9.414.262,8.847,8.847,0,0,1,4.866,6.971,7.118,7.118,0,0,1-1.227,4.778.6.6,0,0,1-1-.653,6.843,6.843,0,0,0-.143-7.235,9.124,9.124,0,0,0-6.657-3.864,15.524,15.524,0,0,0-5.07.271C1772.788,699.762,1772.6,699.286,1772.9,699.166Z" transform="translate(-1640.047 -596.528)" fill="#d17656"/>
          <path id="Trazado_1042999" data-name="Trazado 1042999" d="M1535.158,789.32a83.428,83.428,0,0,0,32.4,5.7c21.135-1.264,46.793-9.933,59.5-24.893a46.125,46.125,0,0,1-14.393,14.8c-9.323,6.135-20.25,9.353-31.152,11.742-16.251,3.563-33.821,5.344-49.044-1.368-15.182-6.694-25.868-21.1-31.654-36.676C1510.528,770.319,1519.868,783.167,1535.158,789.32Z" transform="translate(-1450.029 -638.705)" opacity="0.1"/>
          <path id="Trazado_1043000" data-name="Trazado 1043000" d="M1473.01,540.518c.794,12.21,8.043,35.7,10.672,47.6,10.757-7.006,12.281-28.809,19.391-39.662.812.492,30.932,9.891,34.2-4.157,8.9,6.411,19.946,13.179,31.345,9.261a5.609,5.609,0,0,0,3.918-6.411,43.917,43.917,0,0,0,14.922,7.356,25.144,25.144,0,0,0,8.2.959c.63-.044,7.654-1.515,7.182-2.591-3.968-9.054-7.662-18.386-7.437-28.175,0-.082,0-.16,0-.242-19.352-6.768-44.524-7.348-64.634-3.373S1491.758,532.226,1473.01,540.518Z" transform="translate(-1430.596 -470.989)" opacity="0.2"/>
          <path id="Trazado_1043001" data-name="Trazado 1043001" d="M1728.831,774.7c-3.66-.052-7.124,1.121-10.823.881a24.51,24.51,0,0,1-9.058-2.356c-2.816-1.363-6.043-2.817-9.325-2.609a8.41,8.41,0,0,0-6.926,5.426c-2.213,6.463,2.484,12.367,8.04,15.678,9.74,5.8,24.488,3.544,31.008-5.846,1.749-2.519,3.767-6.465,1.794-9.314C1732.587,775.178,1730.849,774.726,1728.831,774.7Z" transform="translate(-1583.72 -647.071)" fill="#fff"/>
          <path id="Trazado_1043002" data-name="Trazado 1043002" d="M1692.184,790.371a10.045,10.045,0,0,1,.526-4.1,6.969,6.969,0,0,1,.46-1.036c8.045,6.272,19.4,8.678,29.562,10.64A71.564,71.564,0,0,1,1692.184,790.371Z" transform="translate(-1583.728 -657.302)" fill="#e0e0e0"/>
          <path id="Trazado_1043003" data-name="Trazado 1043003" d="M1721.069,778.814c-5.586-1.937-13.609-7.641-19.519-6.1a7.842,7.842,0,0,1,4.652-2.1c3.282-.208,6.509,1.246,9.325,2.609a24.517,24.517,0,0,0,9.058,2.356c3.7.24,7.164-.933,10.823-.881,2.017.028,3.753.481,4.708,1.86a4.456,4.456,0,0,1,.485.911,6.156,6.156,0,0,0-3.979-.648C1731.292,777.259,1726.575,780.506,1721.069,778.814Z" transform="translate(-1590.295 -647.072)" fill="#e0e0e0"/>
          <path id="Trazado_1043004" data-name="Trazado 1043004" d="M1439.3,486.022c-12.368-4-18.271-8.706-23.964-21.751a74.4,74.4,0,0,1-5.036-42.045,17.424,17.424,0,0,1,9.223-12.622c.84-6.681,1.763-15.007,3.723-21.425s5.116-12.581,9.932-17.047,11.441-7.055,17.778-5.914,12.065,6.445,13.017,13.11a39.007,39.007,0,0,1,29.057-17.672c5.071-.514,10.871.348,13.93,4.618,3,4.192,2.251,10.214.112,14.953A43.077,43.077,0,0,1,1543.8,369.34a30.388,30.388,0,0,1,14.376,6.472,20.96,20.96,0,0,1,7.424,14.125c.38,5.512-2.1,11.315-6.646,14.111,5.094-.359,10.355.629,14.162,4.195s5.706,9.54,3.875,14.536c-1.566,4.273-5.524,7.207-9.728,8.443s-8.667,1.007-13.012.554c1.378.122,1.9,2.312,1,3.411s-2.415,1.337-3.793,1.438a45.63,45.63,0,0,1-31.9-10.2c1.062,2.51,3.162,6.111,1.75,8.423-1.39,2.275-4.4,2.6-6.979,2.481a52.191,52.191,0,0,1-32.006-13.079c1.91,1.763,2.242,6.454.417,8.314s-4.512,2.426-7.053,2.571c-7.971.454-15.8-2.409-22.914-6.212C1451.306,450.564,1445.5,465.323,1439.3,486.022Z" transform="translate(-1386.033 -360.522)" fill="#af5231"/>
          <path id="Trazado_1043005" data-name="Trazado 1043005" d="M1511.707,625.105a65.275,65.275,0,0,0,5.891-27.948,67.883,67.883,0,0,0-.6-8.143c-.062-.449.61-.658.7-.192a61.225,61.225,0,0,1-1.771,29.254,57.221,57.221,0,0,1-3.017,7.731.7.7,0,0,1-.952.249A.712.712,0,0,1,1511.707,625.105Z" transform="translate(-1457.579 -519.87)" fill="#993f23"/>
          <path id="Trazado_1043006" data-name="Trazado 1043006" d="M1495.313,631.168a123.449,123.449,0,0,0,2.679-28.7c-.075-2.733-.23-5.463-.387-8.192-.026-.44.7-.548.779-.105a79.791,79.791,0,0,1,1.148,14.633,106.906,106.906,0,0,1-1.08,14.649q-.6,4.115-1.568,8.151C1496.638,632.624,1495.1,632.188,1495.313,631.168Z" transform="translate(-1446.167 -523.591)" fill="#993f23"/>
          <path id="Trazado_1043007" data-name="Trazado 1043007" d="M1796.164,535.592c3.472,2.054,7.113,4.118,11.152,4.759,2.839.451,7.326.1,8.106-3.35a3.045,3.045,0,0,0-1.441-3.534c-.773-.358-.2-1.464.552-1.309a66.408,66.408,0,0,0,8.086,1.158,28.339,28.339,0,0,0,7.478-.042,7.479,7.479,0,0,0,5.168-3.349,7.063,7.063,0,0,0,.83-5.731,7.717,7.717,0,0,0-4.509-4.864c-.394-.15-.244-.765.177-.644a8.035,8.035,0,0,1,5.191,10.61,8.38,8.38,0,0,1-4.866,4.767c-2.492.947-5.289.837-7.906.711a68.6,68.6,0,0,1-7.728-.821,4.951,4.951,0,0,1,.524,2.285,5.361,5.361,0,0,1-2.444,4.412,9.408,9.408,0,0,1-5.607,1.382,19.7,19.7,0,0,1-6.651-1.521,42.564,42.564,0,0,1-6.842-3.668A.724.724,0,0,1,1796.164,535.592Z" transform="translate(-1655.661 -471.032)" fill="#993f23"/>
          <path id="Trazado_1043008" data-name="Trazado 1043008" d="M1574.137,545.4a.813.813,0,0,1,1.122,0,29.593,29.593,0,0,0,10.958,5.417c1.536.389,3.484.9,5,.169,1.764-.855,1.719-3.353,1.647-5.02a15.425,15.425,0,0,0-1.908-6.767.721.721,0,0,1,.978-.978q8.087,3.758,16.471,6.827,4.211,1.54,8.485,2.9c1.382.439,2.761.9,4.155,1.3a7.51,7.51,0,0,0,3.284.369,2.454,2.454,0,0,0,2.133-2.4,6.329,6.329,0,0,0-1.378-3.7c-.255-.355.338-.82.612-.472,1.409,1.79,2.663,4.731.744,6.64-1.855,1.845-4.871.922-7.044.305a189.921,189.921,0,0,1-18.223-6.263q-4.095-1.627-8.114-3.436a17.209,17.209,0,0,1,1.214,4.9c.2,2.074.232,4.816-1.357,6.4-1.477,1.47-3.754,1.395-5.655,1.054a29.071,29.071,0,0,1-6.531-2.028,28.176,28.176,0,0,1-6.59-4.092A.8.8,0,0,1,1574.137,545.4Z" transform="translate(-1501.101 -484.645)" fill="#993f23"/>
          <path id="Trazado_1043009" data-name="Trazado 1043009" d="M1480.559,424.489a49.475,49.475,0,0,1,6.271-10.641c2.414-3.14,5.269-6.176,9.062-7.593,3.617-1.351,7.879-.947,10.689,1.869a14.4,14.4,0,0,1,3.616,8.1,24.49,24.49,0,0,1,9.145-10.9,22.4,22.4,0,0,1,8.1-3.306c3.136-.578,6.678-.406,9.371,1.482,2.581,1.809,4.323,5.061,3.451,8.227a.557.557,0,0,1-1.073-.3,6.84,6.84,0,0,0-2.73-6.71c-2.364-1.833-5.62-2.073-8.472-1.585a22.853,22.853,0,0,0-17.518,15.892.606.606,0,0,1-1.185-.16c-.219-3.143-.872-6.575-2.871-9.11a7.83,7.83,0,0,0-4.024-2.736,9.842,9.842,0,0,0-5.485.162c-3.659,1.112-6.463,3.983-8.775,6.9a50.1,50.1,0,0,0-6.111,9.943,53.057,53.057,0,0,0-2.423,6.115c-.682,2.112-1.208,4.258-1.753,6.406-.088.348-.679.287-.642-.087A41.131,41.131,0,0,1,1480.559,424.489Z" transform="translate(-1433.525 -389.31)" fill="#993f23"/>
          <path id="Trazado_1043010" data-name="Trazado 1043010" d="M1771.949,424.245a25.89,25.89,0,0,1,20.022-8.544,24,24,0,0,1,10.834,2.74c3.227,1.748,6.178,4.548,7.09,8.213a7.027,7.027,0,0,1-1.3,6.48,13.623,13.623,0,0,1-5.454,3.247c-.649.253-.907-.772-.285-1.033a14.479,14.479,0,0,0,4.56-2.59,5.642,5.642,0,0,0,1.508-5.3c-.667-3.448-3.27-6.085-6.216-7.8-6.112-3.549-13.8-3.592-20.342-1.291a25.884,25.884,0,0,0-9.952,6.337C1772.115,425.013,1771.675,424.56,1771.949,424.245Z" transform="translate(-1639.429 -399.075)" fill="#993f23"/>
          <g id="Grupo_1182774" data-name="Grupo 1182774" transform="translate(33.562 96.56)">
            <path id="Trazado_1043011" data-name="Trazado 1043011" d="M1459.533,681.4a14.863,14.863,0,0,0-10,1.31,12.622,12.622,0,0,0-5.869,11.793,16.85,16.85,0,0,0,6.7,11.716,25.635,25.635,0,0,0,12.841,4.846,18.676,18.676,0,0,0,8.295-.649,9.781,9.781,0,0,0,6.009-5.474c1.431-3.79-.135-8.788-2.071-12.168a24.107,24.107,0,0,0-8.862-8.8A22.334,22.334,0,0,0,1459.533,681.4Z" transform="translate(-1443.623 -681.086)" fill="#e8a987"/>
            <path id="Trazado_1043012" data-name="Trazado 1043012" d="M1479.819,727.622c-1.879,0-3.979.49-4.975,2.084-1.094,1.753-.385,4.093.785,5.8a12.407,12.407,0,0,0,16.178,3.859,4.1,4.1,0,0,0,1.513-1.245c1.584-2.392-3.024-6.377-4.713-7.587A15.287,15.287,0,0,0,1479.819,727.622Z" transform="translate(-1465.06 -713.604)" fill="#d17656"/>
            <path id="Trazado_1043013" data-name="Trazado 1043013" d="M1474.848,729.706c1-1.594,3.1-2.087,4.975-2.084a15.287,15.287,0,0,1,8.789,2.907c1.3.933,4.336,3.514,4.934,5.743a29.323,29.323,0,0,0-3.678-2.7,12.638,12.638,0,0,0-14.255,1.9C1474.454,733.77,1473.761,731.447,1474.848,729.706Z" transform="translate(-1465.063 -713.604)" opacity="0.2"/>
          </g>
          <path id="Trazado_1043014" data-name="Trazado 1043014" d="M1446.734,965.561s10.792-10.064,22.19-16.733,24.979-12.974,29.1-4.85,4.244,23.281-8,33.709-20.735,16.976-22.675,16.369-10-6.851-14.369-13.944S1446.31,967.441,1446.734,965.561Z" transform="translate(-1412.2 -765.549)" fill="#f4dfa4"/>
          <path id="Trazado_1043015" data-name="Trazado 1043015" d="M1895.26,931.219c11.879-2.689,27.356-7.052,28.356-11.722,1.492-6.981-4.909-26.646-8.727-30.4.413,6.868-.1,13.671-2.867,20.242A58.14,58.14,0,0,1,1895.26,931.219Z" transform="translate(-1725.656 -729.882)" opacity="0.2"/>
          <path id="Trazado_1043016" data-name="Trazado 1043016" d="M1448.078,1020.5c.323.324.648.648.984.965,10.093,9.847,24.61,15.609,38.494,14.467-10.912,9.2-18.4,14.843-20.207,14.278-1.94-.606-10-6.851-14.369-13.944s-6.669-12.671-6.245-14.551C1446.735,1021.714,1447.22,1021.265,1448.078,1020.5Z" transform="translate(-1412.201 -821.702)" opacity="0.2"/>
          <path id="Trazado_1043017" data-name="Trazado 1043017" d="M2092.258,889.453s3.577-.849,2.971,2.486-7.821,7.033-7.821,7.033l.727-3.274Z" transform="translate(-1859.926 -730.061)" fill="#e8a987"/>
          <g id="Grupo_1182775" data-name="Grupo 1182775" transform="translate(210.084 81.083)">
            <path id="Trazado_1043018" data-name="Trazado 1043018" d="M2051.915,785.467c-2.646,15.856-.512,32.091,2.077,47.956.5,3.079,1.05,6.234,2.63,8.924.619,1.053,1.718,2.134,2.885,1.773a2.775,2.775,0,0,0,1.538-1.894,22.855,22.855,0,0,0,.975-6.945c.486-16.363-1.339-32.7-3.16-48.966A19.675,19.675,0,0,0,2051.915,785.467Z" transform="translate(-2044.36 -738.515)" fill="#af5231"/>
            <path id="Trazado_1043019" data-name="Trazado 1043019" d="M2050.817,821.938c-.527,12.326,1.191,24.775,3.187,37q.084.512.17,1.025c1.376-3.359,4.448-5.682,7.92-7.076-.1-8.593-.743-17.177-1.582-25.745A27.2,27.2,0,0,1,2050.817,821.938Z" transform="translate(-2044.373 -764.034)" opacity="0.2"/>
            <path id="Trazado_1043020" data-name="Trazado 1043020" d="M2060.512,795.4q-.486-4.546-1-9.085a19.666,19.666,0,0,0-6.944-.848c-.434,2.6-.737,5.208-.933,7.824a9.753,9.753,0,0,0,1.795,1.052A16.408,16.408,0,0,0,2060.512,795.4Z" transform="translate(-2045.011 -738.515)" opacity="0.2"/>
            <path id="Trazado_1043021" data-name="Trazado 1043021" d="M2049.765,733.11A96.436,96.436,0,0,0,2047,752.524a10.429,10.429,0,0,0,6.076,2.26,10.8,10.8,0,0,0,6.3-1.969c-1.169-6.449-2.407-13.073-3.576-19.521C2053.846,733.329,2051.72,733.074,2049.765,733.11Z" transform="translate(-2041.773 -701.96)" fill="#bae8e7"/>
            <path id="Trazado_1043022" data-name="Trazado 1043022" d="M2037.861,666.813a31.153,31.153,0,0,0-2.893,10.417,13.186,13.186,0,0,0,3.335,10.012c2.549,2.575,6.821,3.557,9.945,1.722,2.778-1.632,4.082-4.97,4.547-8.159a24.433,24.433,0,0,0-2.514-14.745A56.171,56.171,0,0,0,2037.861,666.813Z" transform="translate(-2033.349 -655.083)" fill="#dd916f"/>
            <path id="Trazado_1043023" data-name="Trazado 1043023" d="M2047.543,774.185q-.4,3.511-.542,7.044a10.43,10.43,0,0,0,6.077,2.26,10.8,10.8,0,0,0,6.3-1.969c-.126-.694-.255-1.4-.382-2.094a12.468,12.468,0,0,1-4.092-.419A15.039,15.039,0,0,1,2047.543,774.185Z" transform="translate(-2041.774 -730.665)" opacity="0.2"/>
            <path id="Trazado_1043024" data-name="Trazado 1043024" d="M2047.762,660.934A30.509,30.509,0,0,0,2046,678.746a19.157,19.157,0,0,0,1.5,4.832c.121.242.565.159.489-.137-.364-1.406-.81-2.786-1.113-4.209a30.456,30.456,0,0,1,.12-13.213,32.244,32.244,0,0,1,1.515-4.78A.4.4,0,0,0,2047.762,660.934Z" transform="translate(-2040.656 -651.36)" fill="#c46f4e"/>
            <path id="Trazado_1043025" data-name="Trazado 1043025" d="M2063.289,670.061c-.072,3.013-.08,6.029-.066,9.043s-.087,6.053.174,9.053a.28.28,0,0,0,.552,0c.3-3,.232-6.044.283-9.054s.075-6.029.04-9.043C2064.265,669.5,2063.3,669.5,2063.289,670.061Z" transform="translate(-2053.104 -657.613)" fill="#c46f4e"/>
            <path id="Trazado_1043026" data-name="Trazado 1043026" d="M2076.6,663.255c-.165-.561-1.131-.3-1,.279a50.231,50.231,0,0,1,1.272,8.12,43.493,43.493,0,0,1-.306,8.24c-.2,1.546-.552,3.064-.778,4.6a.262.262,0,0,0,.5.134,21.679,21.679,0,0,0,1.063-4.064,35.762,35.762,0,0,0,.531-4.161,40.841,40.841,0,0,0-.285-8.435A32.474,32.474,0,0,0,2076.6,663.255Z" transform="translate(-2061.754 -652.933)" fill="#c46f4e"/>
            <path id="Trazado_1043027" data-name="Trazado 1043027" d="M2043.576,687.648c-2.666-1.068-4.116-3.744-3.5-7.066a2.539,2.539,0,0,1,1.97-1.353,12.913,12.913,0,0,0,11-2.381,24.434,24.434,0,0,0-2.755-10.788,56.168,56.168,0,0,0-12.419.752,31.159,31.159,0,0,0-2.893,10.417,13.187,13.187,0,0,0,3.335,10.012c2.549,2.575,6.821,3.556,9.945,1.722a7.175,7.175,0,0,0,1.156-.854A9.761,9.761,0,0,1,2043.576,687.648Z" transform="translate(-2033.355 -655.084)" opacity="0.2"/>
            <path id="Trazado_1043028" data-name="Trazado 1043028" d="M2032.806,638.384c-.628,1.186-1.435,2.268-2.083,3.443a7.209,7.209,0,0,0-1.066,3.826,3.612,3.612,0,0,0,2.086,3.188,2.443,2.443,0,0,0,3.21-1.506,4.29,4.29,0,0,0,2.841,3.77c1.612.446,3.6-.759,3.589-2.432a2.1,2.1,0,0,0,2.028,2.6,3.226,3.226,0,0,0,2.832-2.278,7.368,7.368,0,0,0,.047-3.831c.7,1.395,2.223,2.715,3.67,2.136a2.523,2.523,0,0,0,1.422-1.945,5.832,5.832,0,0,0-.233-2.486,18,18,0,0,0-6.175-9.394c-2.429-1.92-6.172-3.872-9.371-3.766-2.035.068-1.2,1.785-1.3,3.366A13.188,13.188,0,0,1,2032.806,638.384Z" transform="translate(-2029.648 -629.705)" fill="#a57bb7"/>
            <path id="Trazado_1043029" data-name="Trazado 1043029" d="M2039.231,669.155a11.814,11.814,0,0,1-7.535-4.506c-.335.525-.671,1.051-.973,1.6a7.21,7.21,0,0,0-1.066,3.826,3.612,3.612,0,0,0,2.086,3.188,2.442,2.442,0,0,0,3.21-1.506,4.29,4.29,0,0,0,2.841,3.77,2.973,2.973,0,0,0,3.491-1.8,1.523,1.523,0,0,1,.1-.635,2.1,2.1,0,0,1-.1.635,2.218,2.218,0,0,0,2.126,1.964,3.226,3.226,0,0,0,2.832-2.278,7.375,7.375,0,0,0,.048-3.831c.7,1.395,2.222,2.716,3.669,2.136a2.522,2.522,0,0,0,1.422-1.945,5.832,5.832,0,0,0-.233-2.486,17.38,17.38,0,0,0-.572-1.75A13.854,13.854,0,0,1,2039.231,669.155Z" transform="translate(-2029.649 -654.123)" opacity="0.2"/>
            <path id="Trazado_1043030" data-name="Trazado 1043030" d="M2051.84,640.994a2.671,2.671,0,0,0-1.08-.033,1.063,1.063,0,0,0-.8.666c-.164.534.25,1.061.65,1.451a18.975,18.975,0,0,0,8.98,4.918,3.183,3.183,0,0,0,1.16.105,1.148,1.148,0,0,0,.951-.765c.294-1.143-1.429-2.089-2.209-2.614C2057.144,643.143,2054.662,641.513,2051.84,640.994Z" transform="translate(-2043.818 -637.541)" fill="#fff" opacity="0.2"/>
          </g>
          <path id="Trazado_1043031" data-name="Trazado 1043031" d="M2068.171,850.786a4.858,4.858,0,0,0-1.235,2.485,2.249,2.249,0,0,0,1.2,2.334,2.543,2.543,0,0,0,1.89-.107c.6-.242,1.145-.6,1.731-.879,1.633-.763,3.684-.9,4.8-2.317a3.134,3.134,0,0,0,.131-3.61C2074.366,845.281,2069.933,848.668,2068.171,850.786Z" transform="translate(-1845.609 -700.63)" fill="#e8a987"/>
          <path id="Trazado_1043032" data-name="Trazado 1043032" d="M2073.054,868.1a3.052,3.052,0,0,0-.7,1.914,2.294,2.294,0,0,0,1.061,1.68,4.378,4.378,0,0,0,1.938.632,8.216,8.216,0,0,0,5.5-1.345,4.941,4.941,0,0,0,2.24-3.086c.41-2.362-1.5-3.666-3.558-3.474A9.091,9.091,0,0,0,2073.054,868.1Z" transform="translate(-1849.403 -712.627)" fill="#e8a987"/>
          <path id="Trazado_1043033" data-name="Trazado 1043033" d="M2082.813,890.993a4.028,4.028,0,0,0-1.479,1.508,1.95,1.95,0,0,0,.1,2.024,2.674,2.674,0,0,0,1.958.8,10.371,10.371,0,0,0,5.263-.974,3.368,3.368,0,0,0,1.828-1.67C2092.3,887.9,2084.605,889.826,2082.813,890.993Z" transform="translate(-1855.52 -730.235)" fill="#e8a987"/>
          <path id="Trazado_1043034" data-name="Trazado 1043034" d="M2016.419,856.092c-.037-2.115,1.631-3.84,3.277-5.168s3.5-2.676,4.1-4.705a25.858,25.858,0,0,1,.587-2.536,1.9,1.9,0,0,1,1.992-1.321,2.3,2.3,0,0,1,1.331,1.341c1.6,3.188.646,7.961-1,11.128C2022.807,854.7,2019.925,854.377,2016.419,856.092Z" transform="translate(-1810.319 -697.197)" fill="#e8a987"/>
          <path id="Trazado_1043035" data-name="Trazado 1043035" d="M1821.92,1063.786c1.854,5.982,1.686,12.4,1.009,18.625a9.4,9.4,0,0,1-.962,3.735,3.373,3.373,0,0,1-3.176,1.824c-2.225-.3-3.019-3.216-4.957-4.35-1.66-.971-3.784-.431-5.527.379s-3.458,1.888-5.379,1.95c-3.935.127-6.712-4.056-7.258-7.955s.286-7.919-.48-11.782c-.571-2.878-2-5.929-.755-8.588,1.9-4.071,11.663-8.919,16.01-7.7C1815.971,1051.469,1820.393,1058.7,1821.92,1063.786Z" transform="translate(-1654.856 -842.128)" fill="#a57bb7"/>
          <path id="Trazado_1043036" data-name="Trazado 1043036" d="M1614.548,1142.987c.2,2.629,3.213,4.354,3.485,6.976a4.681,4.681,0,0,1-1.725,3.857,10.892,10.892,0,0,1-3.885,1.979,11.465,11.465,0,0,1-4.841.714,5,5,0,0,1-3.976-2.557c-.936-1.946-.227-4.624-1.795-6.109-1-.947-2.532-.985-3.8-1.513a5.311,5.311,0,0,1-1.657-8.217c2.448-2.481,6.343-2.327,8.828-4.89,2.424-2.5,3.074-5.764,7.369-5.03,3.157.54,6.333,3.833,5.811,7.066C1617.888,1138.165,1614.31,1139.809,1614.548,1142.987Z" transform="translate(-1515.878 -896.886)" fill="#a57bb7"/>
          <path id="Trazado_1043037" data-name="Trazado 1043037" d="M1846.029,1281.092c-2.712,1.56-6.166,1.273-9.06.084-2.568-1.055-5.041-3.081-5.382-5.835-.378-3.045,1.936-6.14.931-9.039-.247-.713-.685-1.354-.881-2.083a1.808,1.808,0,0,1,.578-2.028c.6-.364,1.427-.148,2.033-.507.985-.582.68-2.036.709-3.179.068-2.612,2.889-4.664,5.467-4.242a6,6,0,0,1,4.7,5.532,7.262,7.262,0,0,0,.27,2.383c.413.988,1.42,1.562,2.244,2.245C1852.228,1268.233,1851.21,1278.113,1846.029,1281.092Z" transform="translate(-1681.134 -985.012)" fill="#f797a5"/>
          <path id="Trazado_1043038" data-name="Trazado 1043038" d="M1682.3,1025.793c-1.177,3.064,1.111,6.628.022,9.725-.995,2.831-4.284,4-7.172,4.818-2.1.59-4.541,1.125-6.291-.171-2.321-1.718-1.933-5.569-4.1-7.481-2.013-1.779-5.307-1.092-7.534-2.6a5.551,5.551,0,0,1-1.953-5.856,10.008,10.008,0,0,1,3.729-5.263C1665.862,1013.545,1687.414,1012.485,1682.3,1025.793Z" transform="translate(-1557.843 -817.988)" fill="#cbd86f"/>
          <path id="Trazado_1043039" data-name="Trazado 1043039" d="M1507.186,1315.526c.891-2.676,3.342-5.006,6.162-4.942,1.409.033,2.777.64,4.183.534,2.488-.187,4.28-2.479,6.628-3.324a6.249,6.249,0,0,1,7.966,5.165c.246,3.279-2.17,6.144-2.821,9.368-.415,2.058-.443,4.744-2.411,5.475-1.715.637-3.417-.851-5.175-1.358-1.844-.532-3.809.045-5.626.667s-3.719,1.3-5.61.97C1505.885,1327.271,1506.077,1318.854,1507.186,1315.526Z" transform="translate(-1454.016 -1022.247)" fill="#cbd86f"/>
          <path id="Trazado_1043040" data-name="Trazado 1043040" d="M1794.433,1066.856a11.233,11.233,0,0,1,3.792-3.912c-3.008,9.657,2.375,20.536,11.035,24.866,4.122,1.953,9.3,1.662,13.765,2.9-.031.31-.062.62-.1.929a9.394,9.394,0,0,1-.962,3.735,3.374,3.374,0,0,1-3.176,1.823c-2.225-.3-3.018-3.216-4.957-4.35-1.66-.971-3.784-.431-5.527.379s-3.458,1.888-5.379,1.95c-3.935.127-6.712-4.056-7.258-7.956s.286-7.919-.48-11.782C1794.617,1072.567,1793.189,1069.515,1794.433,1066.856Z" transform="translate(-1654.855 -851.361)" opacity="0.1"/>
          <path id="Trazado_1043041" data-name="Trazado 1043041" d="M1596.284,1161.67a6.134,6.134,0,0,0,2.059,2.254c2.137,1.425,5.343,0,6.768,1.781,1.425,1.425,1.781,4.63,3.562,5.7a9.192,9.192,0,0,0,8.513-.178,5.081,5.081,0,0,1,.859,2.2,4.682,4.682,0,0,1-1.725,3.857,10.892,10.892,0,0,1-3.886,1.979,11.47,11.47,0,0,1-4.841.714,5,5,0,0,1-3.976-2.557c-.936-1.946-.227-4.624-1.795-6.109-1-.947-2.532-.985-3.8-1.513A5.319,5.319,0,0,1,1596.284,1161.67Z" transform="translate(-1515.889 -920.349)" opacity="0.1"/>
          <path id="Trazado_1043042" data-name="Trazado 1043042" d="M1832.513,1270.539c-.247-.713-.685-1.354-.881-2.083a1.808,1.808,0,0,1,.578-2.028c.6-.364,1.427-.148,2.034-.507.985-.582.68-2.036.709-3.179a4.039,4.039,0,0,1,.976-2.472,4.209,4.209,0,0,1,.318,1.046c0,5.343-1.425,10.686.712,15.672,2.555,4.854,8.04,5.31,12.779,3.6a8.927,8.927,0,0,1-3.713,4.737c-2.712,1.56-6.166,1.273-9.06.084-2.568-1.055-5.041-3.081-5.382-5.836C1831.206,1276.533,1833.519,1273.44,1832.513,1270.539Z" transform="translate(-1681.13 -989.249)" opacity="0.2"/>
          <path id="Trazado_1043043" data-name="Trazado 1043043" d="M1655.272,1039.018a8.005,8.005,0,0,1,1.24-2.673,9.443,9.443,0,0,0,1.589,4.027c2.493,3.206,6.411,1.781,9.617,2.494,4.274,1.069,6.768,6.055,11.754,4.63a12.3,12.3,0,0,0,2.908-1.445,8.495,8.495,0,0,1-.062,4.253c-1,2.831-4.284,4-7.172,4.818-2.1.59-4.541,1.125-6.291-.171-2.32-1.718-1.932-5.569-4.1-7.481-2.013-1.779-5.307-1.092-7.534-2.6A5.552,5.552,0,0,1,1655.272,1039.018Z" transform="translate(-1557.837 -832.774)" opacity="0.2"/>
          <path id="Trazado_1043044" data-name="Trazado 1043044" d="M1531.547,1337.08c-.7,1.962-1.831,3.869-2.246,5.922s-.443,4.744-2.411,5.475c-1.715.637-3.417-.851-5.175-1.358-1.844-.532-3.81.045-5.626.667s-3.719,1.3-5.61.969c-3.179-.559-4.067-4.755-3.946-8.392a11.8,11.8,0,0,0,2.508,1.7C1517.125,1346.1,1526.833,1343.821,1531.547,1337.08Z" transform="translate(-1454.014 -1042.922)" opacity="0.2"/>
          <path id="Trazado_1043045" data-name="Trazado 1043045" d="M1834.075,1057.362a7.147,7.147,0,0,1,3.874.82,16.45,16.45,0,0,1,8.618,9.9c.484,1.564.589,3.574-.744,4.526a3.047,3.047,0,0,1-3.136.008,8.963,8.963,0,0,1-2.434-2.206q-3.312-3.842-6.624-7.684C1831.955,1060.781,1829.831,1057.892,1834.075,1057.362Z" transform="translate(-1681.165 -847.433)" fill="#fff" opacity="0.15"/>
          <path id="Trazado_1043046" data-name="Trazado 1043046" d="M1691.883,1020.827c1.082.554,2.219,1.442,2.214,2.658a2.535,2.535,0,0,1-1.785,2.189,7.43,7.43,0,0,1-2.979.224l-11.855-.716c-1.47-.089-3.607-.925-2.531-2.782.683-1.178,3.632-2.062,4.844-2.453A16.028,16.028,0,0,1,1691.883,1020.827Z" transform="translate(-1571.502 -820.766)" fill="#fff" opacity="0.15"/>
          <path id="Trazado_1043047" data-name="Trazado 1043047" d="M1629.688,1137.317a5.682,5.682,0,0,1,4.5-.139,3.98,3.98,0,0,1,2.434,3.62,3.083,3.083,0,0,1-2.952,2.954c-.829-.022-1.6-.428-2.427-.517-1.732-.187-5.974,2.6-6.585-.28C1624.212,1140.856,1628.061,1138.03,1629.688,1137.317Z" transform="translate(-1536.54 -902.953)" fill="#fff" opacity="0.15"/>
          <path id="Trazado_1043048" data-name="Trazado 1043048" d="M1537.477,1315.471a6.588,6.588,0,0,0-3.272,1.415,9.684,9.684,0,0,1-3.155,1.711,10.468,10.468,0,0,1-3.2.017,5.711,5.711,0,0,0-3.142.426,2.305,2.305,0,0,0-1.067,2.85c.573,1.365,2.172,1.282,3.378.906,1.83-.571,3.7-.88,5.576-1.266,2.371-.488,6.079-1.355,7.234-3.793C1540.508,1316.3,1538.734,1315.4,1537.477,1315.471Z" transform="translate(-1465.864 -1027.819)" fill="#fff" opacity="0.2"/>
          <path id="Trazado_1043049" data-name="Trazado 1043049" d="M1862.548,1263.263a11.937,11.937,0,0,0,.265,3.545,6.683,6.683,0,0,0,2.054,2.566,7.936,7.936,0,0,1,2.161,2.49,2.553,2.553,0,0,1-.506,3.036c-1.069.821-2.609.266-3.8-.363a5.78,5.78,0,0,1-2.538-2.1,6.133,6.133,0,0,1-.465-3.177q.12-3.688.239-7.377c.035-1.064.705-1.965,1.681-1.105A3.616,3.616,0,0,1,1862.548,1263.263Z" transform="translate(-1700.809 -989.364)" fill="#fff" opacity="0.2"/>
        </g>
      </g>
    </g>
  </g>
</svg>
