<svg xmlns="http://www.w3.org/2000/svg" xmlns:xlink="http://www.w3.org/1999/xlink" width="93.934" height="93.934" viewBox="0 0 93.934 93.934">
  <defs>
    <filter id="Trazado_982547" x="0" y="0" width="93.934" height="93.934" filterUnits="userSpaceOnUse">
      <feOffset dy="3" input="SourceAlpha"/>
      <feGaussianBlur stdDeviation="3" result="blur"/>
      <feFlood flood-opacity="0.161"/>
      <feComposite operator="in" in2="blur"/>
      <feComposite in="SourceGraphic"/>
    </filter>
  </defs>
  <g id="Grupo_1182799" data-name="Grupo 1182799" transform="translate(-191.066 -2445)">
    <g id="Grupo_1179591" data-name="Grupo 1179591" transform="translate(8 318.467)">
      <g id="Grupo_1175227" data-name="Grupo 1175227" transform="translate(-5.967 140.533)">
        <g id="Grupo_1167337" data-name="Grupo 1167337" transform="translate(198.033 1992)">
          <g id="Grupo_1166720" data-name="Grupo 1166720">
            <g id="Grupo_1164305" data-name="Grupo 1164305">
              <g id="Grupo_1163948" data-name="Grupo 1163948">
                <g id="Grupo_1158168" data-name="Grupo 1158168">
                  <g id="Grupo_1152576" data-name="Grupo 1152576">
                    <g id="Grupo_1148633" data-name="Grupo 1148633">
                      <g id="Grupo_1148525" data-name="Grupo 1148525">
                        <g transform="matrix(1, 0, 0, 1, -9, -6)" filter="url(#Trazado_982547)">
                          <g id="Trazado_982547-2" data-name="Trazado 982547" transform="translate(9 6)" fill="#fdfbec">
                            <path d="M 37.966796875 74.43359375 C 33.04315185546875 74.43359375 28.26757431030273 73.46962738037109 23.77274131774902 71.56847381591797 C 19.43047523498535 69.73184967041016 15.53040790557861 67.10224914550781 12.18087482452393 63.75271987915039 C 8.831341743469238 60.4031867980957 6.201741218566895 56.50312042236328 4.365118980407715 52.16086196899414 C 2.463963508605957 47.66601943969727 1.499996900558472 42.89044189453125 1.499996900558472 37.966796875 C 1.499996900558472 33.04315185546875 2.463963508605957 28.26757431030273 4.365118980407715 23.77274131774902 C 6.201741218566895 19.43047523498535 8.831341743469238 15.53040790557861 12.18087482452393 12.18087482452393 C 15.53040790557861 8.831341743469238 19.43047523498535 6.201741218566895 23.77274131774902 4.365118980407715 C 28.26757431030273 2.463963508605957 33.04315185546875 1.499996900558472 37.966796875 1.499996900558472 C 42.89044189453125 1.499996900558472 47.66601943969727 2.463963508605957 52.16086196899414 4.365118980407715 C 56.50312042236328 6.201741218566895 60.4031867980957 8.831341743469238 63.75271987915039 12.18087482452393 C 67.10224914550781 15.53040790557861 69.73184967041016 19.43047523498535 71.56847381591797 23.77274131774902 C 73.46962738037109 28.26757431030273 74.43359375 33.04315185546875 74.43359375 37.966796875 C 74.43359375 42.89044189453125 73.46962738037109 47.66601943969727 71.56847381591797 52.16086196899414 C 69.73184967041016 56.50313186645508 67.10224914550781 60.4031867980957 63.75271987915039 63.75271987915039 C 60.4031867980957 67.10224914550781 56.50313186645508 69.73184967041016 52.16086196899414 71.56847381591797 C 47.66601943969727 73.46962738037109 42.89044189453125 74.43359375 37.966796875 74.43359375 Z" stroke="none"/>
                            <path d="M 37.966796875 3 C 33.2449836730957 3 28.66600799560547 3.924095153808594 24.35705947875977 5.746635437011719 C 20.19359588623047 7.507637023925781 16.45379638671875 10.02928161621094 13.24153518676758 13.24153518676758 C 10.02927398681641 16.45379638671875 7.507621765136719 20.19359588623047 5.746635437011719 24.35705947875977 C 3.924095153808594 28.66600799560547 3 33.2449836730957 3 37.966796875 C 3 42.6886100769043 3.924095153808594 47.26758575439453 5.746635437011719 51.57653427124023 C 7.507621765136719 55.73999786376953 10.02927398681641 59.47979736328125 13.24153518676758 62.69205856323242 C 16.45379638671875 65.90431976318359 20.19359588623047 68.42597198486328 24.35705947875977 70.18695831298828 C 28.66600799560547 72.00949859619141 33.2449836730957 72.93359375 37.966796875 72.93359375 C 42.6886100769043 72.93359375 47.26758575439453 72.00949859619141 51.57653427124023 70.18695831298828 C 55.73999786376953 68.42597198486328 59.47979736328125 65.90431976318359 62.69205856323242 62.69205856323242 C 65.90431976318359 59.47979736328125 68.42597198486328 55.73999786376953 70.18695831298828 51.57653427124023 C 72.00949859619141 47.26758575439453 72.93359375 42.6886100769043 72.93359375 37.966796875 C 72.93359375 33.2449836730957 72.00949859619141 28.66600799560547 70.18695831298828 24.35705947875977 C 68.42597198486328 20.19359588623047 65.90431976318359 16.45379638671875 62.69205856323242 13.24153518676758 C 59.47979736328125 10.02928161621094 55.73999786376953 7.507637023925781 51.57653427124023 5.746635437011719 C 47.26758575439453 3.924095153808594 42.6886100769043 3 37.966796875 3 M 37.966796875 0 C 58.93528366088867 0 75.93359375 16.99832153320312 75.93359375 37.966796875 C 75.93359375 58.93528366088867 58.93528366088867 75.93359375 37.966796875 75.93359375 C 16.99831008911133 75.93359375 0 58.93528366088867 0 37.966796875 C 0 16.99832153320312 16.99831008911133 0 37.966796875 0 Z" stroke="none" fill="#84792b"/>
                          </g>
                        </g>
                      </g>
                    </g>
                  </g>
                </g>
              </g>
            </g>
          </g>
        </g>
      </g>
    </g>
    <g id="teatro_1_" data-name="teatro (1)" transform="translate(213.964 2462.801)">
      <g id="Grupo_1182797" data-name="Grupo 1182797" transform="translate(0.725 3.076)">
        <path id="Trazado_1043271" data-name="Trazado 1043271" d="M219.063,182.282a24.514,24.514,0,0,0,6.745-28.617,2.123,2.123,0,0,0-1.152-1.214v.1c-1.2-.353-2.134-.746-3.359-.986a40.82,40.82,0,0,0-19.339.89,1.806,1.806,0,0,0-1.152,1.022,24.97,24.97,0,0,0,6.841,28.9,8.979,8.979,0,0,0,6.229,2.113A8.573,8.573,0,0,0,219.063,182.282Z" transform="translate(-180.45 -137.288)" fill="#739ad6"/>
        <path id="Trazado_1043272" data-name="Trazado 1043272" d="M368.333,160.656a1.806,1.806,0,0,0-1.152-1.022q-1.807-.53-3.647-.889.624.163,1.244.343a1.869,1.869,0,0,1,1.192,1.057,25.837,25.837,0,0,1-7.079,29.909,9.285,9.285,0,0,1-2.778,1.619,8.972,8.972,0,0,0,5.378-2.112A24.97,24.97,0,0,0,368.333,160.656Z" transform="translate(-322.687 -144.471)" fill="#5a84c8"/>
        <path id="Trazado_1043273" data-name="Trazado 1043273" d="M283.119,335.174a7.269,7.269,0,0,1,6.512,4.035.4.4,0,0,0,.76-.179v-.018a7.272,7.272,0,0,0-14.544,0v.018a.4.4,0,0,0,.76.179,7.27,7.27,0,0,1,6.512-4.035Z" transform="translate(-250.118 -300.876)" fill="#e5646e"/>
        <path id="Trazado_1043274" data-name="Trazado 1043274" d="M27.836,41.488a24.654,24.654,0,0,0,6.745-28.713v-.1a1.672,1.672,0,0,0-1.152-.926l-.1-.192a33.221,33.221,0,0,0-3.263-.89,40.822,40.822,0,0,0-19.339.89,1.806,1.806,0,0,0-1.152,1.022,24.97,24.97,0,0,0,6.841,28.9,8.975,8.975,0,0,0,5.8,2.123,8.484,8.484,0,0,0,5.612-2.123Z" transform="translate(-7.562 -9.91)" fill="#ffe07d"/>
        <path id="Trazado_1043275" data-name="Trazado 1043275" d="M177.1,19.766a1.806,1.806,0,0,0-1.152-1.022q-1.807-.53-3.647-.889c.416.108.831.222,1.244.343a1.869,1.869,0,0,1,1.192,1.057,25.837,25.837,0,0,1-7.079,29.909,9.285,9.285,0,0,1-2.778,1.619,8.971,8.971,0,0,0,5.378-2.112,24.969,24.969,0,0,0,6.841-28.9Z" transform="translate(-149.798 -17.093)" fill="#ffd064"/>
        <path id="Trazado_1043276" data-name="Trazado 1043276" d="M79.024,206.534a8.634,8.634,0,0,1-7.734-4.792.478.478,0,0,0-.9.212v.021a8.637,8.637,0,1,0,17.274,0v-.021a.478.478,0,0,0-.9-.212A8.634,8.634,0,0,1,79.024,206.534Z" transform="translate(-64.362 -183.109)" fill="#e5646e"/>
      </g>
      <g id="Grupo_1182798" data-name="Grupo 1182798" transform="translate(-0.001 2.351)">
        <path id="Trazado_1043277" data-name="Trazado 1043277" d="M383.486,268.908a4.827,4.827,0,0,0,3.424-1.416.719.719,0,0,0-1.017-1.017,3.408,3.408,0,0,1-4.814,0,.719.719,0,1,0-1.017,1.017A4.827,4.827,0,0,0,383.486,268.908Z" transform="translate(-343.423 -240.955)"/>
        <path id="Trazado_1043278" data-name="Trazado 1043278" d="M276.329,324.216a8,8,0,0,0-7.991,7.991v.02a1.122,1.122,0,0,0,2.124.5,6.553,6.553,0,0,1,11.735,0,1.113,1.113,0,0,0,1,.618,1.137,1.137,0,0,0,.259-.03,1.116,1.116,0,0,0,.866-1.088v-.018A8,8,0,0,0,276.329,324.216Zm0,3.434a7.94,7.94,0,0,0-6.417,3.225,6.554,6.554,0,0,1,12.833,0A7.94,7.94,0,0,0,276.329,327.65Z" transform="translate(-242.604 -293.349)"/>
        <path id="Trazado_1043279" data-name="Trazado 1043279" d="M57.674,115.237a3.408,3.408,0,0,1,4.814,0,.719.719,0,1,0,1.017-1.017,4.848,4.848,0,0,0-6.849,0,.719.719,0,1,0,1.017,1.017Z" transform="translate(-51.033 -102.211)"/>
        <path id="Trazado_1043280" data-name="Trazado 1043280" d="M195.683,114.221a4.848,4.848,0,0,0-6.849,0,.719.719,0,0,0,1.017,1.017,3.4,3.4,0,0,1,4.814,0,.719.719,0,1,0,1.017-1.017Z" transform="translate(-170.534 -102.212)"/>
        <path id="Trazado_1043281" data-name="Trazado 1043281" d="M72.233,204.53a9.367,9.367,0,0,0,9.356-9.356v-.013l-.719,0,.719-.012a1.2,1.2,0,0,0-2.266-.531,7.917,7.917,0,0,1-14.18,0,1.2,1.2,0,0,0-2.266.533v.021a9.367,9.367,0,0,0,9.356,9.356Zm0-4.078a9.3,9.3,0,0,0,7.854-4.27,7.918,7.918,0,0,1-15.707,0A9.3,9.3,0,0,0,72.233,200.452Z" transform="translate(-56.847 -175.585)"/>
        <path id="Trazado_1043282" data-name="Trazado 1043282" d="M3.4,6.03A1.083,1.083,0,0,1,4.1,5.415a40.027,40.027,0,0,1,22.581,0,1.083,1.083,0,0,1,.693.615,24.433,24.433,0,0,1,1.006,2.815.719.719,0,1,0,1.382-.4,25.9,25.9,0,0,0-1.066-2.982,2.517,2.517,0,0,0-1.61-1.429,41.462,41.462,0,0,0-23.391,0A2.517,2.517,0,0,0,2.08,5.463a25.635,25.635,0,0,0,.707,21.742.719.719,0,1,0,1.283-.651A24.2,24.2,0,0,1,3.4,6.03Z" transform="translate(0.001 -2.351)"/>
        <path id="Trazado_1043283" data-name="Trazado 1043283" d="M87.455,99.387a2.517,2.517,0,0,0-1.61-1.429,41.658,41.658,0,0,0-7.271-1.444.719.719,0,1,0-.153,1.43,40.2,40.2,0,0,1,7.019,1.394,1.083,1.083,0,0,1,.693.615,24.25,24.25,0,0,1-6.644,28.072,8.253,8.253,0,0,1-10.679,0,24.127,24.127,0,0,1-7.632-11.739,9.858,9.858,0,0,0,.9-.674,25.714,25.714,0,0,0,4.567-5.037,4.845,4.845,0,0,0,4.591-1.275.719.719,0,0,0-1.017-1.017,3.412,3.412,0,0,1-2.725.98,25.629,25.629,0,0,0,3.629-11.432,40.28,40.28,0,0,1,4.143-.1.719.719,0,1,0,.04-1.438c-1.367-.038-2.749-.007-4.118.091a25.6,25.6,0,0,0-.323-4.487.719.719,0,1,0-1.42.229,24.255,24.255,0,0,1-8.294,22.387,8.368,8.368,0,0,1-1.177.831l-.025.015a8.25,8.25,0,0,1-9.477-.846,24.253,24.253,0,0,1-4.444-4.944.719.719,0,1,0-1.192.806,25.689,25.689,0,0,0,4.707,5.237,9.684,9.684,0,0,0,10.35,1.4,25.556,25.556,0,0,0,7.989,12.114,9.687,9.687,0,0,0,12.535,0,25.688,25.688,0,0,0,7.038-29.737Z" transform="translate(-40.424 -82.763)"/>
      </g>
    </g>
  </g>
</svg>
