<svg xmlns="http://www.w3.org/2000/svg" xmlns:xlink="http://www.w3.org/1999/xlink" width="93.934" height="93.934" viewBox="0 0 93.934 93.934">
  <defs>
    <filter id="Trazado_982547" x="0" y="0" width="93.934" height="93.934" filterUnits="userSpaceOnUse">
      <feOffset dy="3" input="SourceAlpha"/>
      <feGaussianBlur stdDeviation="3" result="blur"/>
      <feFlood flood-opacity="0.161"/>
      <feComposite operator="in" in2="blur"/>
      <feComposite in="SourceGraphic"/>
    </filter>
  </defs>
  <g id="Grupo_1183414" data-name="Grupo 1183414" transform="translate(-1030.815 -3887)">
    <g id="Grupo_1182035" data-name="Grupo 1182035" transform="translate(847.749 1760.467)">
      <g id="Grupo_1175227" data-name="Grupo 1175227" transform="translate(-5.967 140.533)">
        <g id="Grupo_1167337" data-name="Grupo 1167337" transform="translate(198.033 1992)">
          <g id="Grupo_1166720" data-name="Grupo 1166720">
            <g id="Grupo_1164305" data-name="Grupo 1164305">
              <g id="Grupo_1163948" data-name="Grupo 1163948">
                <g id="Grupo_1158168" data-name="Grupo 1158168">
                  <g id="Grupo_1152576" data-name="Grupo 1152576">
                    <g id="Grupo_1148633" data-name="Grupo 1148633">
                      <g id="Grupo_1148525" data-name="Grupo 1148525">
                        <g transform="matrix(1, 0, 0, 1, -9, -6)" filter="url(#Trazado_982547)">
                          <g id="Trazado_982547-2" data-name="Trazado 982547" transform="translate(9 6)" fill="#fdfbec">
                            <path d="M 37.966796875 74.43359375 C 33.04315185546875 74.43359375 28.26757431030273 73.46962738037109 23.77274131774902 71.56847381591797 C 19.43047523498535 69.73184967041016 15.53040790557861 67.10224914550781 12.18087482452393 63.75271987915039 C 8.831341743469238 60.4031867980957 6.201741218566895 56.50312042236328 4.365118980407715 52.16086196899414 C 2.463963508605957 47.66601943969727 1.499996900558472 42.89044189453125 1.499996900558472 37.966796875 C 1.499996900558472 33.04315185546875 2.463963508605957 28.26757431030273 4.365118980407715 23.77274131774902 C 6.201741218566895 19.43047523498535 8.831341743469238 15.53040790557861 12.18087482452393 12.18087482452393 C 15.53040790557861 8.831341743469238 19.43047523498535 6.201741218566895 23.77274131774902 4.365118980407715 C 28.26757431030273 2.463963508605957 33.04315185546875 1.499996900558472 37.966796875 1.499996900558472 C 42.89044189453125 1.499996900558472 47.66601943969727 2.463963508605957 52.16086196899414 4.365118980407715 C 56.50312042236328 6.201741218566895 60.4031867980957 8.831341743469238 63.75271987915039 12.18087482452393 C 67.10224914550781 15.53040790557861 69.73184967041016 19.43047523498535 71.56847381591797 23.77274131774902 C 73.46962738037109 28.26757431030273 74.43359375 33.04315185546875 74.43359375 37.966796875 C 74.43359375 42.89044189453125 73.46962738037109 47.66601943969727 71.56847381591797 52.16086196899414 C 69.73184967041016 56.50313186645508 67.10224914550781 60.4031867980957 63.75271987915039 63.75271987915039 C 60.4031867980957 67.10224914550781 56.50313186645508 69.73184967041016 52.16086196899414 71.56847381591797 C 47.66601943969727 73.46962738037109 42.89044189453125 74.43359375 37.966796875 74.43359375 Z" stroke="none"/>
                            <path d="M 37.966796875 3 C 33.2449836730957 3 28.66600799560547 3.924095153808594 24.35705947875977 5.746635437011719 C 20.19359588623047 7.507637023925781 16.45379638671875 10.02928161621094 13.24153518676758 13.24153518676758 C 10.02927398681641 16.45379638671875 7.507621765136719 20.19359588623047 5.746635437011719 24.35705947875977 C 3.924095153808594 28.66600799560547 3 33.2449836730957 3 37.966796875 C 3 42.6886100769043 3.924095153808594 47.26758575439453 5.746635437011719 51.57653427124023 C 7.507621765136719 55.73999786376953 10.02927398681641 59.47979736328125 13.24153518676758 62.69205856323242 C 16.45379638671875 65.90431976318359 20.19359588623047 68.42597198486328 24.35705947875977 70.18695831298828 C 28.66600799560547 72.00949859619141 33.2449836730957 72.93359375 37.966796875 72.93359375 C 42.6886100769043 72.93359375 47.26758575439453 72.00949859619141 51.57653427124023 70.18695831298828 C 55.73999786376953 68.42597198486328 59.47979736328125 65.90431976318359 62.69205856323242 62.69205856323242 C 65.90431976318359 59.47979736328125 68.42597198486328 55.73999786376953 70.18695831298828 51.57653427124023 C 72.00949859619141 47.26758575439453 72.93359375 42.6886100769043 72.93359375 37.966796875 C 72.93359375 33.2449836730957 72.00949859619141 28.66600799560547 70.18695831298828 24.35705947875977 C 68.42597198486328 20.19359588623047 65.90431976318359 16.45379638671875 62.69205856323242 13.24153518676758 C 59.47979736328125 10.02928161621094 55.73999786376953 7.507637023925781 51.57653427124023 5.746635437011719 C 47.26758575439453 3.924095153808594 42.6886100769043 3 37.966796875 3 M 37.966796875 0 C 58.93528366088867 0 75.93359375 16.99832153320312 75.93359375 37.966796875 C 75.93359375 58.93528366088867 58.93528366088867 75.93359375 37.966796875 75.93359375 C 16.99831008911133 75.93359375 0 58.93528366088867 0 37.966796875 C 0 16.99832153320312 16.99831008911133 0 37.966796875 0 Z" stroke="none" fill="#84792b"/>
                          </g>
                        </g>
                      </g>
                    </g>
                  </g>
                </g>
              </g>
            </g>
          </g>
        </g>
      </g>
    </g>
    <g id="pareja" transform="translate(1051.605 3904.857)">
      <g id="Grupo_1183412" data-name="Grupo 1183412" transform="translate(0.763 0.762)">
        <path id="Trazado_1045309" data-name="Trazado 1045309" d="M134.345,17.012l-1.007,3.071L131.433,25.9a3.053,3.053,0,0,1-3.053,3.053h-3.924a.764.764,0,0,1-.746-.921,3.065,3.065,0,0,0-2.795-3.669,2.961,2.961,0,0,0-.355,0A3.068,3.068,0,0,0,117.7,28.04a.762.762,0,0,1-.747.915h-3.924a3.053,3.053,0,0,1-3.053-3.053V21.978a.762.762,0,0,0-.918-.746,3.07,3.07,0,0,1-3.675-2.822,3.067,3.067,0,0,1,3.06-3.247,3.014,3.014,0,0,1,.618.063.763.763,0,0,0,.915-.748V10.553A3.053,3.053,0,0,1,113.031,7.5H128.38a3.055,3.055,0,0,1,3.053,3.053Z" transform="translate(-95.419 -7.5)" fill="#a29cde"/>
        <path id="Trazado_1045310" data-name="Trazado 1045310" d="M289.775,29.8l-1.006,3.071a1.894,1.894,0,0,1-1.905-1.4,2.5,2.5,0,0,0-2.519-1.986h-1.54a4.384,4.384,0,0,1-4.384-4.384,3.36,3.36,0,0,1,3.36-3.36h4.627a3.034,3.034,0,0,1,.456,1.6Z" transform="translate(-250.85 -20.291)" fill="#827cd2"/>
        <path id="Trazado_1045311" data-name="Trazado 1045311" d="M120.08,22.318a4.209,4.209,0,0,0,.48,2.045A3.068,3.068,0,0,0,117.7,28.04a.762.762,0,0,1-.747.915h-3.924a3.053,3.053,0,0,1-3.053-3.053V21.978a.762.762,0,0,0-.918-.746,3.07,3.07,0,0,1-3.675-2.822,3.067,3.067,0,0,1,3.06-3.247,3.014,3.014,0,0,1,.618.063.763.763,0,0,0,.915-.748V10.553A3.053,3.053,0,0,1,113.031,7.5h8.332a2.176,2.176,0,0,0-1.283,2.263Z" transform="translate(-95.419 -7.5)" fill="#827cd2"/>
        <path id="Trazado_1045312" data-name="Trazado 1045312" d="M315.076,43.743v4.61a1.526,1.526,0,0,1-1.527,1.527h-5.361a1.54,1.54,0,0,0-1.228.621,6.1,6.1,0,0,1-4.886,2.443h-1.557v-7.21l.174-.966-.174-1.02v-.005a1.527,1.527,0,0,0-1.527-1.527h-2.3a3.071,3.071,0,0,1-3.07-3.07,1.525,1.525,0,0,1,1.527-1.527h6.926a6.11,6.11,0,0,1,5.6,3.665,1.537,1.537,0,0,0,1.405.932h4.472a1.527,1.527,0,0,1,1.527,1.527Z" transform="translate(-264.503 -34.555)" fill="#ffddcf"/>
        <path id="Trazado_1045313" data-name="Trazado 1045313" d="M162.722,263.946a3.066,3.066,0,0,1-3.675,2.822.764.764,0,0,0-.918.747v3.924a3.053,3.053,0,0,1-3.053,3.053H139.727a3.053,3.053,0,0,1-3.053-3.053v-.012l-1.573-5.04,1.572-4.159h0V256.09a3.053,3.053,0,0,1,3.053-3.053h3.942a.753.753,0,0,0,.73-.916,3.115,3.115,0,0,1-.06-.733,3.083,3.083,0,0,1,2.882-2.944,3.068,3.068,0,0,1,3.246,3.06,3.087,3.087,0,0,1-.062.618.762.762,0,0,0,.747.915h3.924a3.053,3.053,0,0,1,3.053,3.053v3.924a.762.762,0,0,0,.915.747,3.069,3.069,0,0,1,3.678,3.184Z" transform="translate(-122.115 -223.919)" fill="#fad989"/>
        <path id="Trazado_1045314" data-name="Trazado 1045314" d="M146.292,271.688a3.875,3.875,0,0,0,1.176,2.8h-7.741a3.053,3.053,0,0,1-3.053-3.053v-.012l-1.573-5.04,1.572-4.159h0v-6.139a3.053,3.053,0,0,1,3.053-3.053h3.941a.753.753,0,0,0,.73-.916,3.115,3.115,0,0,1-.06-.733,3.083,3.083,0,0,1,2.882-2.944,3.049,3.049,0,0,1,1.344.225c-.927.429-2.274,1.658-2.274,5.177Z" transform="translate(-122.115 -223.92)" fill="#f6ca56"/>
        <path id="Trazado_1045315" data-name="Trazado 1045315" d="M28.956,325.267a3.071,3.071,0,0,1-3.07,3.07h-2.3a1.527,1.527,0,0,0-1.527,1.527v0l-.413,1.316.413.648v7.234H20.5a6.1,6.1,0,0,1-4.887-2.443,1.537,1.537,0,0,0-1.183-.62H9.028A1.527,1.527,0,0,1,7.5,334.474v-4.61a1.527,1.527,0,0,1,1.527-1.527H13.5a1.5,1.5,0,0,0,.482-.079,1.551,1.551,0,0,0,.923-.854,6.109,6.109,0,0,1,5.6-3.664h6.926a1.525,1.525,0,0,1,1.527,1.527Z" transform="translate(-7.501 -291.557)" fill="#db9e82"/>
        <path id="Trazado_1045316" data-name="Trazado 1045316" d="M14.433,375.874H9.028A1.527,1.527,0,0,1,7.5,374.346v-4.61a1.527,1.527,0,0,1,1.527-1.527H13.5a1.5,1.5,0,0,0,.482-.079c-.693,1.154-1.911,4.065.452,7.744Z" transform="translate(-7.501 -331.429)" fill="#c8866a"/>
      </g>
      <g id="Grupo_1183413" data-name="Grupo 1183413" transform="translate(0 -0.001)">
        <path id="Trazado_1045317" data-name="Trazado 1045317" d="M137.726,7.661h-.279a.784.784,0,0,0-.795.74.763.763,0,0,0,.763.787h.311a.763.763,0,0,1,.763.763v4.61a.763.763,0,0,1-.763.763h-5.361a2.318,2.318,0,0,0-1.839.926,5.3,5.3,0,0,1-4.275,2.138h-.794V11.611a6.6,6.6,0,0,0,3.034.642.783.783,0,0,0,.792-.669.764.764,0,0,0-.758-.857,5.01,5.01,0,0,1-2.443-.514,1.484,1.484,0,0,1-.713-.889,2.294,2.294,0,0,0-2.2-1.663h-2.3a2.31,2.31,0,0,1-2.307-2.322.76.76,0,0,1,.763-.748h6.926a5.347,5.347,0,0,1,4.9,3.207,2.3,2.3,0,0,0,2.1,1.39h.566a.784.784,0,0,0,.795-.74.763.763,0,0,0-.763-.787h-.6a.776.776,0,0,1-.706-.475,6.873,6.873,0,0,0-6.3-4.122h-.868A3.823,3.823,0,0,0,121.641,0H110.563a.784.784,0,0,0-.795.74.763.763,0,0,0,.763.787h11.11A2.293,2.293,0,0,1,123.8,3.064h-4.462a2.31,2.31,0,0,0-2.307,2.312,3.838,3.838,0,0,0,3.834,3.812h2.3a.763.763,0,0,1,.763.763v9.2a2.3,2.3,0,0,1-2.29,2.3l-3.922-.007a3.829,3.829,0,1,0-7.5.007h-3.924a2.29,2.29,0,0,1-2.29-2.29V15.24a1.526,1.526,0,0,0-1.833-1.494,2.266,2.266,0,0,1-1.859-.433,2.3,2.3,0,0,1,1.862-4.078A1.526,1.526,0,0,0,104,7.74V3.815a2.29,2.29,0,0,1,2.29-2.29h.645a.784.784,0,0,0,.795-.74A.763.763,0,0,0,106.969,0h-.677a3.821,3.821,0,0,0-3.816,3.816l0,3.925a3.827,3.827,0,1,0,0,7.5v3.924a3.816,3.816,0,0,0,3.816,3.816h3.924a1.525,1.525,0,0,0,1.495-1.831,2.3,2.3,0,1,1,4.512-.006,1.527,1.527,0,0,0,1.494,1.836h3.924a3.826,3.826,0,0,0,3.74-3.065h.87a6.814,6.814,0,0,0,5.5-2.748.773.773,0,0,1,.619-.317h5.361a2.29,2.29,0,0,0,2.29-2.29V9.951A2.29,2.29,0,0,0,137.726,7.661Z" transform="translate(-87.916 0.001)"/>
        <path id="Trazado_1045318" data-name="Trazado 1045318" d="M37.541,253.276v-3.924a3.821,3.821,0,0,0-3.816-3.816H29.8a3.829,3.829,0,1,0-7.5,0c0,.01,0,0-3.923,0a3.823,3.823,0,0,0-3.742,3.065h-.868a6.872,6.872,0,0,0-6.3,4.122.778.778,0,0,1-.707.475H2.29A2.292,2.292,0,0,0,0,255.488v4.61a2.292,2.292,0,0,0,2.29,2.29H7.651a.77.77,0,0,1,.618.316,6.818,6.818,0,0,0,5.5,2.749h.87a3.826,3.826,0,0,0,3.74,3.065h11.14a.763.763,0,0,0,0-1.527H18.376a2.3,2.3,0,0,1-2.29-2.3v-9.2a.764.764,0,0,1,.763-.763h2.3a3.838,3.838,0,0,0,3.834-3.834,2.292,2.292,0,0,0-2.29-2.29H16.213a2.293,2.293,0,0,1,2.163-1.539h3.942a1.516,1.516,0,0,0,1.478-1.831,2.3,2.3,0,1,1,4.511,0,1.525,1.525,0,0,0,1.495,1.833h3.924a2.292,2.292,0,0,1,2.29,2.29v3.924a1.525,1.525,0,0,0,1.831,1.495,2.3,2.3,0,1,1,0,4.511,1.527,1.527,0,0,0-1.834,1.495V264.7a2.292,2.292,0,0,1-2.29,2.29h-.647a.763.763,0,0,0,0,1.527h.647a3.821,3.821,0,0,0,3.816-3.816l0-3.923a3.829,3.829,0,1,0,0-7.5Zm-16.085-2.4a2.31,2.31,0,0,1-2.307,2.322h-2.3a2.294,2.294,0,0,0-2.2,1.663,1.471,1.471,0,0,1-.694.878,4.962,4.962,0,0,1-2.439.524.781.781,0,0,0-.785.735.763.763,0,0,0,.763.791,6.621,6.621,0,0,0,3.068-.642v6.778h-.794a5.3,5.3,0,0,1-4.276-2.139,2.314,2.314,0,0,0-1.838-.926H2.29a.763.763,0,0,1-.763-.763v-4.61a.763.763,0,0,1,.763-.763H6.761a2.3,2.3,0,0,0,2.105-1.391,5.346,5.346,0,0,1,4.9-3.206h6.927a.76.76,0,0,1,.763.748Z" transform="translate(0 -216.417)"/>
        <path id="Trazado_1045319" data-name="Trazado 1045319" d="M186.022,419.881V421.1a.763.763,0,0,0,1.527,0v-1.221a.763.763,0,1,0-1.527,0Z" transform="translate(-167.091 -376.465)"/>
        <path id="Trazado_1045320" data-name="Trazado 1045320" d="M312.446,421.1v-1.221a.763.763,0,1,0-1.527,0V421.1a.763.763,0,0,0,1.527,0Z" transform="translate(-279.277 -376.465)"/>
        <path id="Trazado_1045321" data-name="Trazado 1045321" d="M235.545,431.022a1.456,1.456,0,0,1-2.2,0,.763.763,0,0,0-1.151,1,2.985,2.985,0,0,0,4.5,0,.763.763,0,0,0-1.151-1Z" transform="translate(-208.395 -386.922)"/>
      </g>
    </g>
  </g>
</svg>
