<svg xmlns="http://www.w3.org/2000/svg" xmlns:xlink="http://www.w3.org/1999/xlink" width="93.934" height="93.934" viewBox="0 0 93.934 93.934">
  <defs>
    <filter id="Trazado_982547" x="0" y="0" width="93.934" height="93.934" filterUnits="userSpaceOnUse">
      <feOffset dy="3" input="SourceAlpha"/>
      <feGaussianBlur stdDeviation="3" result="blur"/>
      <feFlood flood-opacity="0.161"/>
      <feComposite operator="in" in2="blur"/>
      <feComposite in="SourceGraphic"/>
    </filter>
  </defs>
  <g id="Grupo_1182803" data-name="Grupo 1182803" transform="translate(-611.066 -2445)">
    <g id="Grupo_1179592" data-name="Grupo 1179592" transform="translate(428 318.467)">
      <g id="Grupo_1175227" data-name="Grupo 1175227" transform="translate(-5.967 140.533)">
        <g id="Grupo_1167337" data-name="Grupo 1167337" transform="translate(198.033 1992)">
          <g id="Grupo_1166720" data-name="Grupo 1166720">
            <g id="Grupo_1164305" data-name="Grupo 1164305">
              <g id="Grupo_1163948" data-name="Grupo 1163948">
                <g id="Grupo_1158168" data-name="Grupo 1158168">
                  <g id="Grupo_1152576" data-name="Grupo 1152576">
                    <g id="Grupo_1148633" data-name="Grupo 1148633">
                      <g id="Grupo_1148525" data-name="Grupo 1148525">
                        <g transform="matrix(1, 0, 0, 1, -9, -6)" filter="url(#Trazado_982547)">
                          <g id="Trazado_982547-2" data-name="Trazado 982547" transform="translate(9 6)" fill="#fdfbec">
                            <path d="M 37.966796875 74.43359375 C 33.04315185546875 74.43359375 28.26757431030273 73.46962738037109 23.77274131774902 71.56847381591797 C 19.43047523498535 69.73184967041016 15.53040790557861 67.10224914550781 12.18087482452393 63.75271987915039 C 8.831341743469238 60.4031867980957 6.201741218566895 56.50312042236328 4.365118980407715 52.16086196899414 C 2.463963508605957 47.66601943969727 1.499996900558472 42.89044189453125 1.499996900558472 37.966796875 C 1.499996900558472 33.04315185546875 2.463963508605957 28.26757431030273 4.365118980407715 23.77274131774902 C 6.201741218566895 19.43047523498535 8.831341743469238 15.53040790557861 12.18087482452393 12.18087482452393 C 15.53040790557861 8.831341743469238 19.43047523498535 6.201741218566895 23.77274131774902 4.365118980407715 C 28.26757431030273 2.463963508605957 33.04315185546875 1.499996900558472 37.966796875 1.499996900558472 C 42.89044189453125 1.499996900558472 47.66601943969727 2.463963508605957 52.16086196899414 4.365118980407715 C 56.50312042236328 6.201741218566895 60.4031867980957 8.831341743469238 63.75271987915039 12.18087482452393 C 67.10224914550781 15.53040790557861 69.73184967041016 19.43047523498535 71.56847381591797 23.77274131774902 C 73.46962738037109 28.26757431030273 74.43359375 33.04315185546875 74.43359375 37.966796875 C 74.43359375 42.89044189453125 73.46962738037109 47.66601943969727 71.56847381591797 52.16086196899414 C 69.73184967041016 56.50313186645508 67.10224914550781 60.4031867980957 63.75271987915039 63.75271987915039 C 60.4031867980957 67.10224914550781 56.50313186645508 69.73184967041016 52.16086196899414 71.56847381591797 C 47.66601943969727 73.46962738037109 42.89044189453125 74.43359375 37.966796875 74.43359375 Z" stroke="none"/>
                            <path d="M 37.966796875 3 C 33.2449836730957 3 28.66600799560547 3.924095153808594 24.35705947875977 5.746635437011719 C 20.19359588623047 7.507637023925781 16.45379638671875 10.02928161621094 13.24153518676758 13.24153518676758 C 10.02927398681641 16.45379638671875 7.507621765136719 20.19359588623047 5.746635437011719 24.35705947875977 C 3.924095153808594 28.66600799560547 3 33.2449836730957 3 37.966796875 C 3 42.6886100769043 3.924095153808594 47.26758575439453 5.746635437011719 51.57653427124023 C 7.507621765136719 55.73999786376953 10.02927398681641 59.47979736328125 13.24153518676758 62.69205856323242 C 16.45379638671875 65.90431976318359 20.19359588623047 68.42597198486328 24.35705947875977 70.18695831298828 C 28.66600799560547 72.00949859619141 33.2449836730957 72.93359375 37.966796875 72.93359375 C 42.6886100769043 72.93359375 47.26758575439453 72.00949859619141 51.57653427124023 70.18695831298828 C 55.73999786376953 68.42597198486328 59.47979736328125 65.90431976318359 62.69205856323242 62.69205856323242 C 65.90431976318359 59.47979736328125 68.42597198486328 55.73999786376953 70.18695831298828 51.57653427124023 C 72.00949859619141 47.26758575439453 72.93359375 42.6886100769043 72.93359375 37.966796875 C 72.93359375 33.2449836730957 72.00949859619141 28.66600799560547 70.18695831298828 24.35705947875977 C 68.42597198486328 20.19359588623047 65.90431976318359 16.45379638671875 62.69205856323242 13.24153518676758 C 59.47979736328125 10.02928161621094 55.73999786376953 7.507637023925781 51.57653427124023 5.746635437011719 C 47.26758575439453 3.924095153808594 42.6886100769043 3 37.966796875 3 M 37.966796875 0 C 58.93528366088867 0 75.93359375 16.99832153320312 75.93359375 37.966796875 C 75.93359375 58.93528366088867 58.93528366088867 75.93359375 37.966796875 75.93359375 C 16.99831008911133 75.93359375 0 58.93528366088867 0 37.966796875 C 0 16.99832153320312 16.99831008911133 0 37.966796875 0 Z" stroke="none" fill="#84792b"/>
                          </g>
                        </g>
                      </g>
                    </g>
                  </g>
                </g>
              </g>
            </g>
          </g>
        </g>
      </g>
    </g>
    <g id="nino_1_" data-name="nino (1)" transform="translate(604.368 2463.75)">
      <g id="Grupo_1182801" data-name="Grupo 1182801" transform="translate(32.265 0.74)">
        <path id="Trazado_1043284" data-name="Trazado 1043284" d="M94.467,366.593s-6.168,1.471-6.168,10.39h8.116V371.33Z" transform="translate(-83.439 -331.175)" fill="#475066"/>
        <path id="Trazado_1043285" data-name="Trazado 1043285" d="M343.142,365.348s6.393,1.594,6.393,10.513h-8.116v-10.39Z" transform="translate(-311.593 -330.052)" fill="#475066"/>
        <path id="Trazado_1043286" data-name="Trazado 1043286" d="M47.582,28.057a20.557,20.557,0,0,1,41.114,0Z" transform="translate(-46.738 -7.5)" fill="#d3918a"/>
        <path id="Trazado_1043287" data-name="Trazado 1043287" d="M56.9,27.994c0-7.2,3.425-14.794,8.891-19.124A20.586,20.586,0,0,0,47.582,29.292h9.359C56.914,28.863,56.9,28.43,56.9,27.994Z" transform="translate(-46.738 -8.735)" fill="#cb827c"/>
        <circle id="Elipse_12483" data-name="Elipse 12483" cx="4.86" cy="4.86" r="4.86" transform="translate(33.082 15.805)" fill="#ffbe9c"/>
        <path id="Trazado_1043288" data-name="Trazado 1043288" d="M120.179,96.685a1.535,1.535,0,0,0-1.8-.407,5.227,5.227,0,0,1-2.175.464,5.011,5.011,0,0,1-3.2-1.106,1.547,1.547,0,0,0-1.979,0,5.193,5.193,0,0,1-6.407,0,1.547,1.547,0,0,0-1.979,0,5.011,5.011,0,0,1-3.2,1.106,5.227,5.227,0,0,1-2.175-.464,1.537,1.537,0,0,0-1.805.41,16.215,16.215,0,1,0,24.73,0Z" transform="translate(-86.414 -86.62)" fill="#ffd3bc"/>
        <path id="Trazado_1043289" data-name="Trazado 1043289" d="M59.757,131.272a19.759,19.759,0,0,1-10.572-17.5,25.489,25.489,0,0,1,1.8-9.242,5.078,5.078,0,0,1-1.12-.359,1.537,1.537,0,0,0-1.805.41,16.182,16.182,0,0,0-3.173,5.841,4.86,4.86,0,1,0,.057,9.5A16.164,16.164,0,0,0,59.757,131.272Z" transform="translate(-39.025 -94.515)" fill="#ffbe9c"/>
        <ellipse id="Elipse_12484" data-name="Elipse 12484" cx="3.358" cy="2.674" rx="3.358" ry="2.674" transform="translate(8.942 22.318)" fill="#fd8b9b"/>
        <ellipse id="Elipse_12485" data-name="Elipse 12485" cx="3.358" cy="2.674" rx="3.358" ry="2.674" transform="translate(27.144 22.318)" fill="#fd8b9b"/>
        <ellipse id="Elipse_12486" data-name="Elipse 12486" cx="1.782" cy="1.995" rx="1.782" ry="1.995" transform="translate(19.618 20.943)" fill="#303646"/>
        <path id="Trazado_1043290" data-name="Trazado 1043290" d="M187.429,295.849v-1.06a2.017,2.017,0,0,0-2.706-1.9c-.782.284-1.809.657-3.163,1.146a7.791,7.791,0,0,1-5.3,0l-2.974-1.079a2.016,2.016,0,0,0-2.7,1.9v6.428h16.85v-5.435Z" transform="translate(-157.603 -264.633)" fill="#ecebfd"/>
        <path id="Trazado_1043291" data-name="Trazado 1043291" d="M161.2,326.385a7.779,7.779,0,0,1-2.747-.465l-5.575-2.022a1.53,1.53,0,0,0-2.051,1.438v9.332a3.246,3.246,0,0,0,2.139,3.051l5.487,1.991a7.778,7.778,0,0,0,2.747.465l5.092-8.51Z" transform="translate(-139.801 -292.607)" fill="#7ce0fd"/>
        <path id="Trazado_1043292" data-name="Trazado 1043292" d="M264.132,323.9l-5.576,2.023a7.753,7.753,0,0,1-2.556.465v13.79a7.752,7.752,0,0,0,2.556-.465l5.488-1.991a3.246,3.246,0,0,0,2.139-3.052v-9.332A1.53,1.53,0,0,0,264.132,323.9Z" transform="translate(-234.599 -292.606)" fill="#2ecdf9"/>
        <path id="Trazado_1043293" data-name="Trazado 1043293" d="M328.441,439.367h4.374a3.212,3.212,0,1,1,0,6.424h-4.374a3.212,3.212,0,1,1,0-6.424Z" transform="translate(-297 -396.771)" fill="#ffd3bc"/>
        <path id="Trazado_1043294" data-name="Trazado 1043294" d="M175.4,294.347l-2.12-.769a2.016,2.016,0,0,0-2.7,1.9V301.9h2.727C173.473,298.564,174.115,296.1,175.4,294.347Z" transform="translate(-157.604 -265.251)" fill="#d1d1fd"/>
        <path id="Trazado_1043295" data-name="Trazado 1043295" d="M155.459,331.144a24.559,24.559,0,0,1,.626-6.083l-3.205-1.163a1.53,1.53,0,0,0-2.051,1.438v9.333a3.246,3.246,0,0,0,2.139,3.052l5.487,1.991c.083.03.168.057.252.085A13.1,13.1,0,0,1,155.459,331.144Z" transform="translate(-139.801 -292.607)" fill="#2ecdf9"/>
        <path id="Trazado_1043296" data-name="Trazado 1043296" d="M84.88,439.367H80.506a3.212,3.212,0,1,0,0,6.424H84.88a3.212,3.212,0,0,0,0-6.424Z" transform="translate(-73.519 -396.771)" fill="#ffd3bc"/>
        <g id="Grupo_1182800" data-name="Grupo 1182800" transform="translate(3.775 42.687)">
          <path id="Trazado_1043297" data-name="Trazado 1043297" d="M85.769,444.477a6.415,6.415,0,0,1-6.018-4.2,3.212,3.212,0,0,0,.756,6.334H84.88a3.213,3.213,0,0,0,3.143-2.547A6.394,6.394,0,0,1,85.769,444.477Z" transform="translate(-77.294 -440.282)" fill="#ffbe9c"/>
          <path id="Trazado_1043298" data-name="Trazado 1043298" d="M333.7,444.477a6.415,6.415,0,0,1-6.018-4.2,3.212,3.212,0,0,0,.756,6.334h4.374a3.213,3.213,0,0,0,3.143-2.547A6.394,6.394,0,0,1,333.7,444.477Z" transform="translate(-300.774 -440.282)" fill="#ffbe9c"/>
        </g>
      </g>
      <g id="Grupo_1182802" data-name="Grupo 1182802" transform="translate(31.525 0)">
        <path id="Trazado_1043299" data-name="Trazado 1043299" d="M162.661,210.243a.74.74,0,0,0,.74-.74v-1.3a.74.74,0,0,0-1.479,0v1.3A.74.74,0,0,0,162.661,210.243Z" transform="translate(-149.06 -186.999)"/>
        <path id="Trazado_1043300" data-name="Trazado 1043300" d="M232.95,217.8a2.743,2.743,0,1,0-2.522-2.734A2.638,2.638,0,0,0,232.95,217.8Zm0-3.989a1.277,1.277,0,1,1-1.043,1.255A1.165,1.165,0,0,1,232.95,213.809Z" transform="translate(-210.81 -191.386)"/>
        <path id="Trazado_1043301" data-name="Trazado 1043301" d="M335.819,210.243a.74.74,0,0,0,.74-.74v-1.3a.74.74,0,0,0-1.479,0v1.3A.74.74,0,0,0,335.819,210.243Z" transform="translate(-305.139 -186.999)"/>
        <path id="Trazado_1043302" data-name="Trazado 1043302" d="M37.125,27a5.547,5.547,0,0,0,.555-.029,16.866,16.866,0,0,0,4.872,7.148v1.5a8.562,8.562,0,0,0-2.332,1.384,10.632,10.632,0,0,0-3.59,6.586A3.949,3.949,0,0,0,39.251,50.5h4.374a3.958,3.958,0,0,0,3.862-3.114l3.18,1.154a8.529,8.529,0,0,0,5.807,0l3.357-1.218A3.958,3.958,0,0,0,63.706,50.5H68.08A3.949,3.949,0,0,0,70.7,43.592a12.17,12.17,0,0,0-1.319-3.84.74.74,0,1,0-1.292.721,10.042,10.042,0,0,1,.9,2.227,4.244,4.244,0,0,0-.908-.1H64.589V37.191a6.85,6.85,0,0,1,1.825,1.17.74.74,0,1,0,.988-1.1,8.361,8.361,0,0,0-2.814-1.654V34.262a16.911,16.911,0,0,0,5.058-7.286,5.6,5.6,0,0,0,5.072-8.881A21.283,21.283,0,0,0,41.59,3.764a.74.74,0,1,0,.841,1.217,19.825,19.825,0,0,1,30.46,11.507,5.6,5.6,0,0,0-3.172-.662,16.836,16.836,0,0,0-3.126-5.5,2.281,2.281,0,0,0-2.674-.6,4.484,4.484,0,0,1-4.6-.538,2.287,2.287,0,0,0-2.926,0,4.452,4.452,0,0,1-5.461,0,2.288,2.288,0,0,0-2.926,0,4.484,4.484,0,0,1-4.6.538,2.281,2.281,0,0,0-2.677.6,16.834,16.834,0,0,0-3.123,5.5,5.656,5.656,0,0,0-3.171.661,19.913,19.913,0,0,1,5.752-9.709.74.74,0,1,0-1.007-1.084,21.356,21.356,0,0,0-6.574,12.4A5.6,5.6,0,0,0,37.125,27Zm33.018-9.719a4.12,4.12,0,1,1-.053,8.237,17.087,17.087,0,0,0,.053-8.237ZM42.552,37.234V42.6h-3.3a4.282,4.282,0,0,0-.909.1A8.241,8.241,0,0,1,42.552,37.234Zm1.073,11.786H39.252a2.472,2.472,0,1,1,0-4.945h4.374A2.475,2.475,0,0,1,46.093,46.4v0A2.474,2.474,0,0,1,43.625,49.021Zm9.3-1.481a7.028,7.028,0,0,1-1.755-.392L47.51,45.82a3.96,3.96,0,0,0-3.478-3.2V33.469a.791.791,0,0,1,1.059-.743h0l5.575,2.023a8.637,8.637,0,0,0,2.259.485ZM51.17,33.358l-5.19-1.883v-.512a1.275,1.275,0,0,1,1.712-1.2l2.975,1.079a8.521,8.521,0,0,0,5.806,0c1.355-.489,2.383-.862,3.165-1.146a1.276,1.276,0,0,1,1.713,1.2v.51L55.97,33.358A7.046,7.046,0,0,1,51.17,33.358Zm8.666,12.388-3.867,1.4a7.008,7.008,0,0,1-1.564.372v-12.3a8.632,8.632,0,0,0,2.069-.469l5.576-2.022h0a.79.79,0,0,1,1.056.744v9.173a3.962,3.962,0,0,0-3.273,3.1Zm8.244-1.67a2.472,2.472,0,0,1,0,4.945H63.706a2.472,2.472,0,0,1,0-4.945ZM41.863,11.287a.8.8,0,0,1,.933-.216,5.961,5.961,0,0,0,6.159-.746.807.807,0,0,1,1.033,0,5.929,5.929,0,0,0,7.354,0,.807.807,0,0,1,1.033,0,5.959,5.959,0,0,0,6.16.746.794.794,0,0,1,.93.213,15.475,15.475,0,0,1-1.1,21.2,2.288,2.288,0,0,0-1.532-1.223V30.9a2.758,2.758,0,0,0-3.7-2.59c-.781.284-1.808.657-3.162,1.145a7.043,7.043,0,0,1-4.8,0L48.2,28.371a2.758,2.758,0,0,0-3.7,2.591v.257a2.3,2.3,0,0,0-1.669,1.153,15.508,15.508,0,0,1-.969-21.086Zm-4.675,6a17.15,17.15,0,0,0,.049,8.237,4.12,4.12,0,1,1-.049-8.237Z" transform="translate(-31.525 0)"/>
      </g>
    </g>
  </g>
</svg>
