<svg xmlns="http://www.w3.org/2000/svg" xmlns:xlink="http://www.w3.org/1999/xlink" width="93.934" height="93.934" viewBox="0 0 93.934 93.934">
  <defs>
    <filter id="Trazado_982547" x="0" y="0" width="93.934" height="93.934" filterUnits="userSpaceOnUse">
      <feOffset dy="3" input="SourceAlpha"/>
      <feGaussianBlur stdDeviation="3" result="blur"/>
      <feFlood flood-opacity="0.161"/>
      <feComposite operator="in" in2="blur"/>
      <feComposite in="SourceGraphic"/>
    </filter>
    <clipPath id="clip-path">
      <path id="path9501" d="M0-682.665H51.724v51.724H0Z" transform="translate(0 682.665)"/>
    </clipPath>
  </defs>
  <g id="Grupo_1182804" data-name="Grupo 1182804" transform="translate(-1031.066 -2445)">
    <g id="Grupo_1179593" data-name="Grupo 1179593" transform="translate(848 318.467)">
      <g id="Grupo_1175227" data-name="Grupo 1175227" transform="translate(-5.967 140.533)">
        <g id="Grupo_1167337" data-name="Grupo 1167337" transform="translate(198.033 1992)">
          <g id="Grupo_1166720" data-name="Grupo 1166720">
            <g id="Grupo_1164305" data-name="Grupo 1164305">
              <g id="Grupo_1163948" data-name="Grupo 1163948">
                <g id="Grupo_1158168" data-name="Grupo 1158168">
                  <g id="Grupo_1152576" data-name="Grupo 1152576">
                    <g id="Grupo_1148633" data-name="Grupo 1148633">
                      <g id="Grupo_1148525" data-name="Grupo 1148525">
                        <g transform="matrix(1, 0, 0, 1, -9, -6)" filter="url(#Trazado_982547)">
                          <g id="Trazado_982547-2" data-name="Trazado 982547" transform="translate(9 6)" fill="#fdfbec">
                            <path d="M 37.966796875 74.43359375 C 33.04315185546875 74.43359375 28.26757431030273 73.46962738037109 23.77274131774902 71.56847381591797 C 19.43047523498535 69.73184967041016 15.53040790557861 67.10224914550781 12.18087482452393 63.75271987915039 C 8.831341743469238 60.4031867980957 6.201741218566895 56.50312042236328 4.365118980407715 52.16086196899414 C 2.463963508605957 47.66601943969727 1.499996900558472 42.89044189453125 1.499996900558472 37.966796875 C 1.499996900558472 33.04315185546875 2.463963508605957 28.26757431030273 4.365118980407715 23.77274131774902 C 6.201741218566895 19.43047523498535 8.831341743469238 15.53040790557861 12.18087482452393 12.18087482452393 C 15.53040790557861 8.831341743469238 19.43047523498535 6.201741218566895 23.77274131774902 4.365118980407715 C 28.26757431030273 2.463963508605957 33.04315185546875 1.499996900558472 37.966796875 1.499996900558472 C 42.89044189453125 1.499996900558472 47.66601943969727 2.463963508605957 52.16086196899414 4.365118980407715 C 56.50312042236328 6.201741218566895 60.4031867980957 8.831341743469238 63.75271987915039 12.18087482452393 C 67.10224914550781 15.53040790557861 69.73184967041016 19.43047523498535 71.56847381591797 23.77274131774902 C 73.46962738037109 28.26757431030273 74.43359375 33.04315185546875 74.43359375 37.966796875 C 74.43359375 42.89044189453125 73.46962738037109 47.66601943969727 71.56847381591797 52.16086196899414 C 69.73184967041016 56.50313186645508 67.10224914550781 60.4031867980957 63.75271987915039 63.75271987915039 C 60.4031867980957 67.10224914550781 56.50313186645508 69.73184967041016 52.16086196899414 71.56847381591797 C 47.66601943969727 73.46962738037109 42.89044189453125 74.43359375 37.966796875 74.43359375 Z" stroke="none"/>
                            <path d="M 37.966796875 3 C 33.2449836730957 3 28.66600799560547 3.924095153808594 24.35705947875977 5.746635437011719 C 20.19359588623047 7.507637023925781 16.45379638671875 10.02928161621094 13.24153518676758 13.24153518676758 C 10.02927398681641 16.45379638671875 7.507621765136719 20.19359588623047 5.746635437011719 24.35705947875977 C 3.924095153808594 28.66600799560547 3 33.2449836730957 3 37.966796875 C 3 42.6886100769043 3.924095153808594 47.26758575439453 5.746635437011719 51.57653427124023 C 7.507621765136719 55.73999786376953 10.02927398681641 59.47979736328125 13.24153518676758 62.69205856323242 C 16.45379638671875 65.90431976318359 20.19359588623047 68.42597198486328 24.35705947875977 70.18695831298828 C 28.66600799560547 72.00949859619141 33.2449836730957 72.93359375 37.966796875 72.93359375 C 42.6886100769043 72.93359375 47.26758575439453 72.00949859619141 51.57653427124023 70.18695831298828 C 55.73999786376953 68.42597198486328 59.47979736328125 65.90431976318359 62.69205856323242 62.69205856323242 C 65.90431976318359 59.47979736328125 68.42597198486328 55.73999786376953 70.18695831298828 51.57653427124023 C 72.00949859619141 47.26758575439453 72.93359375 42.6886100769043 72.93359375 37.966796875 C 72.93359375 33.2449836730957 72.00949859619141 28.66600799560547 70.18695831298828 24.35705947875977 C 68.42597198486328 20.19359588623047 65.90431976318359 16.45379638671875 62.69205856323242 13.24153518676758 C 59.47979736328125 10.02928161621094 55.73999786376953 7.507637023925781 51.57653427124023 5.746635437011719 C 47.26758575439453 3.924095153808594 42.6886100769043 3 37.966796875 3 M 37.966796875 0 C 58.93528366088867 0 75.93359375 16.99832153320312 75.93359375 37.966796875 C 75.93359375 58.93528366088867 58.93528366088867 75.93359375 37.966796875 75.93359375 C 16.99831008911133 75.93359375 0 58.93528366088867 0 37.966796875 C 0 16.99832153320312 16.99831008911133 0 37.966796875 0 Z" stroke="none" fill="#84792b"/>
                          </g>
                        </g>
                      </g>
                    </g>
                  </g>
                </g>
              </g>
            </g>
          </g>
        </g>
      </g>
    </g>
    <g id="g9495" transform="translate(1049.361 3145.803)">
      <g id="g9497" transform="translate(0 -682.665)">
        <g id="g9499" clip-path="url(#clip-path)">
          <g id="g9505" transform="translate(8.2 7.067)">
            <path id="path9507" d="M-481.827-19.142a1.568,1.568,0,0,0-1.995-1.509l-26.65,4.065a2.632,2.632,0,0,0-1.917,2.533v25.3a6.246,6.246,0,0,0-2.668-.6,6.271,6.271,0,0,0-6.271,6.271,6.271,6.271,0,0,0,6.271,6.271,6.27,6.27,0,0,0,6.268-6.156h0V-6.258h0l23.355-3.134V8.547a6.246,6.246,0,0,0-2.668-.6,6.271,6.271,0,0,0-6.271,6.271,6.271,6.271,0,0,0,6.271,6.271,6.27,6.27,0,0,0,6.268-6.156h0Z" transform="translate(521.327 20.712)" fill="#67e693"/>
          </g>
          <g id="g9509" transform="translate(35.786 0.758)">
            <path id="path9511" d="M-45.953-11.128a3.6,3.6,0,0,1-2.87,2.857,1.133,1.133,0,0,0-.9,1.119v.06a1.133,1.133,0,0,0,.9,1.109,3.6,3.6,0,0,1,2.864,2.854,1.132,1.132,0,0,0,1.11.914h.072a1.13,1.13,0,0,0,1.108-.9,3.6,3.6,0,0,1,2.856-2.869,1.129,1.129,0,0,0,.913-1.1v-.1a1.129,1.129,0,0,0-.913-1.1,3.6,3.6,0,0,1-2.856-2.869,1.134,1.134,0,0,0-1.122-.9h-.072a1.128,1.128,0,0,0-1.1.912" transform="translate(49.72 12.04)" fill="#9f86ff"/>
          </g>
          <g id="g9513" transform="translate(4.025 13.454)">
            <path id="path9515" d="M-36.091-8.74A2.83,2.83,0,0,1-38.344-6.5a.89.89,0,0,0-.7.879v.047a.89.89,0,0,0,.709.871,2.83,2.83,0,0,1,2.25,2.242.889.889,0,0,0,.872.717h.056a.887.887,0,0,0,.87-.7A2.83,2.83,0,0,1-32.05-4.7a.886.886,0,0,0,.717-.861v-.078A.886.886,0,0,0-32.05-6.5a2.83,2.83,0,0,1-2.243-2.254.89.89,0,0,0-.881-.7h-.057a.886.886,0,0,0-.861.716" transform="translate(39.049 9.456)" fill="#ffd17f"/>
          </g>
          <g id="g9517" transform="translate(7.934 25.451)">
            <path id="path9519" d="M-46.453-23.226a1.9,1.9,0,0,1-1.9,1.9,1.9,1.9,0,0,1-1.9-1.9,1.9,1.9,0,0,1,1.9-1.9,1.9,1.9,0,0,1,1.9,1.9" transform="translate(50.261 25.131)" fill="#9f86ff"/>
          </g>
          <g id="g9521" transform="translate(36.775 22.446)">
            <path id="path9523" d="M-46.453-23.226a1.9,1.9,0,0,1-1.9,1.9,1.9,1.9,0,0,1-1.9-1.9,1.9,1.9,0,0,1,1.9-1.9,1.9,1.9,0,0,1,1.9,1.9" transform="translate(50.261 25.131)" fill="#ffbae7"/>
          </g>
          <g id="g9525" transform="translate(22.468 1.862)">
            <path id="path9527" d="M-62.284-31.142a2.553,2.553,0,0,1-2.553,2.553,2.553,2.553,0,0,1-2.553-2.553,2.553,2.553,0,0,1,2.553-2.553,2.553,2.553,0,0,1,2.553,2.553" transform="translate(67.39 33.695)" fill="#ff9ee1"/>
          </g>
          <g id="g9529" transform="translate(25.543 14.962)">
            <path id="path9531" d="M0,0,.146,1.189" fill="none" stroke="#000" stroke-linecap="round" stroke-linejoin="round" stroke-miterlimit="10" stroke-width="1"/>
          </g>
          <g id="g9533" transform="translate(38.679 13.343)">
            <path id="path9535" d="M0,0,.146,1.189" fill="none" stroke="#000" stroke-linecap="round" stroke-linejoin="round" stroke-miterlimit="10" stroke-width="1"/>
          </g>
          <g id="g9537" transform="translate(30.626 15.059)">
            <path id="path9539" d="M-39.547,0A2.163,2.163,0,0,1-41.08.917,2.163,2.163,0,0,1-42.789.4" transform="translate(42.789)" fill="none" stroke="#000" stroke-linecap="round" stroke-linejoin="round" stroke-miterlimit="10" stroke-width="1"/>
          </g>
          <g id="g9541" transform="translate(4.025 13.454)">
            <path id="path9543" d="M-36.091-8.74A2.83,2.83,0,0,1-38.344-6.5a.89.89,0,0,0-.7.879v.047a.89.89,0,0,0,.709.871,2.83,2.83,0,0,1,2.25,2.242.889.889,0,0,0,.872.717h.056a.887.887,0,0,0,.87-.7A2.83,2.83,0,0,1-32.05-4.7a.886.886,0,0,0,.717-.861v-.078A.886.886,0,0,0-32.05-6.5a2.83,2.83,0,0,1-2.243-2.254.89.89,0,0,0-.881-.7h-.057A.886.886,0,0,0-36.091-8.74Z" transform="translate(39.049 9.456)" fill="none" stroke="#000" stroke-linecap="round" stroke-linejoin="round" stroke-miterlimit="10" stroke-width="1"/>
          </g>
          <g id="g9545" transform="translate(7.933 25.451)">
            <path id="path9547" d="M-46.453-23.226a1.9,1.9,0,0,1-1.9,1.9,1.9,1.9,0,0,1-1.9-1.9,1.9,1.9,0,0,1,1.9-1.9A1.9,1.9,0,0,1-46.453-23.226Z" transform="translate(50.261 25.131)" fill="none" stroke="#000" stroke-linecap="round" stroke-linejoin="round" stroke-miterlimit="10" stroke-width="1"/>
          </g>
          <g id="g9549" transform="translate(36.775 22.446)">
            <path id="path9551" d="M-46.453-23.226a1.9,1.9,0,0,1-1.9,1.9,1.9,1.9,0,0,1-1.9-1.9,1.9,1.9,0,0,1,1.9-1.9A1.9,1.9,0,0,1-46.453-23.226Z" transform="translate(50.261 25.131)" fill="none" stroke="#000" stroke-linecap="round" stroke-linejoin="round" stroke-miterlimit="10" stroke-width="1"/>
          </g>
          <g id="g9553" transform="translate(22.468 1.862)">
            <path id="path9555" d="M-62.284-31.142a2.553,2.553,0,0,1-2.553,2.553,2.553,2.553,0,0,1-2.553-2.553,2.553,2.553,0,0,1,2.553-2.553A2.553,2.553,0,0,1-62.284-31.142Z" transform="translate(67.39 33.695)" fill="none" stroke="#000" stroke-linecap="round" stroke-linejoin="round" stroke-miterlimit="10" stroke-width="1"/>
          </g>
          <g id="g9557" transform="translate(20.742 15.042)">
            <path id="path9559" d="M0-178.8v-8.179l23.355-3.134v17.939a6.245,6.245,0,0,0-2.668-.6,6.271,6.271,0,0,0-6.271,6.271,6.271,6.271,0,0,0,6.271,6.271,6.27,6.27,0,0,0,6.268-6.156h0v-27.074" transform="translate(0 193.454)" fill="none" stroke="#000" stroke-linecap="round" stroke-linejoin="round" stroke-miterlimit="10" stroke-width="1"/>
          </g>
          <g id="g9561" transform="translate(8.2 7.067)">
            <path id="path9563" d="M-481.827-60.477v-3.389a1.568,1.568,0,0,0-1.995-1.509l-2.534.387a3.63,3.63,0,0,0-1.328,2.172,1.13,1.13,0,0,1-1.108.9h-.072a1.132,1.132,0,0,1-1.11-.914,3.753,3.753,0,0,0-.677-1.5l-19.82,3.023a2.632,2.632,0,0,0-1.917,2.533v25.3a6.245,6.245,0,0,0-2.668-.6,6.271,6.271,0,0,0-6.271,6.271,6.271,6.271,0,0,0,6.271,6.271,6.27,6.27,0,0,0,6.268-6.156h0V-39.776" transform="translate(521.327 65.435)" fill="none" stroke="#000" stroke-linecap="round" stroke-linejoin="round" stroke-miterlimit="10" stroke-width="1"/>
          </g>
          <g id="g9565" transform="translate(35.785 0.758)">
            <path id="path9567" d="M-45.953-11.128a3.6,3.6,0,0,1-2.87,2.857,1.133,1.133,0,0,0-.9,1.119v.06a1.133,1.133,0,0,0,.9,1.109,3.6,3.6,0,0,1,2.864,2.854,1.132,1.132,0,0,0,1.11.914h.072a1.13,1.13,0,0,0,1.108-.9,3.6,3.6,0,0,1,2.856-2.869,1.129,1.129,0,0,0,.913-1.1v-.1a1.129,1.129,0,0,0-.913-1.1,3.6,3.6,0,0,1-2.856-2.869,1.134,1.134,0,0,0-1.122-.9h-.072A1.128,1.128,0,0,0-45.953-11.128Z" transform="translate(49.72 12.04)" fill="none" stroke="#000" stroke-linecap="round" stroke-linejoin="round" stroke-miterlimit="10" stroke-width="1"/>
          </g>
        </g>
      </g>
    </g>
  </g>
</svg>
