<svg xmlns="http://www.w3.org/2000/svg" xmlns:xlink="http://www.w3.org/1999/xlink" width="113" height="113" viewBox="0 0 113 113">
  <defs>
    <filter id="Trazado_982547" x="0" y="0" width="113" height="113" filterUnits="userSpaceOnUse">
      <feOffset dy="3" input="SourceAlpha"/>
      <feGaussianBlur stdDeviation="3" result="blur"/>
      <feFlood flood-opacity="0.161"/>
      <feComposite operator="in" in2="blur"/>
      <feComposite in="SourceGraphic"/>
    </filter>
  </defs>
  <g id="Grupo_1183257" data-name="Grupo 1183257" transform="translate(-272 -5338.614)">
    <g id="Grupo_1181935" data-name="Grupo 1181935" transform="translate(0 2335.614)">
      <g id="Grupo_1175141" data-name="Grupo 1175141" transform="translate(0.5 395.985)">
        <g id="Grupo_1173988" data-name="Grupo 1173988" transform="translate(280.5 2613.015)">
          <g id="Grupo_1172010" data-name="Grupo 1172010">
            <g id="Grupo_1171046" data-name="Grupo 1171046">
              <g id="Grupo_1148525" data-name="Grupo 1148525">
                <g transform="matrix(1, 0, 0, 1, -9, -6)" filter="url(#Trazado_982547)">
                  <g id="Trazado_982547-2" data-name="Trazado 982547" transform="translate(9 6)" fill="#effbfe">
                    <path d="M 47.5 93.5 C 41.28937149047852 93.5 35.26533508300781 92.28397369384766 29.59518623352051 89.88570404052734 C 24.11771965026855 87.56893157958984 19.19813346862793 84.25196075439453 14.97309303283691 80.02691650390625 C 10.74804019927979 75.80186462402344 7.431066513061523 70.88229370117188 5.114293098449707 65.40481567382812 C 2.716026782989502 59.73468017578125 1.5 53.71062850952148 1.5 47.5 C 1.5 41.28937149047852 2.716026782989502 35.26533508300781 5.114293098449707 29.59518623352051 C 7.431066513061523 24.11771965026855 10.74804019927979 19.19813346862793 14.97309303283691 14.97309303283691 C 19.19813346862793 10.74804019927979 24.11771965026855 7.431066513061523 29.59518623352051 5.114293098449707 C 35.26533508300781 2.716026782989502 41.28937149047852 1.5 47.5 1.5 C 53.71062850952148 1.5 59.73468017578125 2.716026782989502 65.40481567382812 5.114293098449707 C 70.88229370117188 7.431066513061523 75.80186462402344 10.74804019927979 80.02691650390625 14.97309303283691 C 84.25196075439453 19.19813346862793 87.56893157958984 24.11771965026855 89.88570404052734 29.59518623352051 C 92.28397369384766 35.26533508300781 93.5 41.28937149047852 93.5 47.5 C 93.5 53.71062850952148 92.28397369384766 59.73468017578125 89.88570404052734 65.40481567382812 C 87.56893157958984 70.88229370117188 84.25196075439453 75.80186462402344 80.02691650390625 80.02691650390625 C 75.80186462402344 84.25196075439453 70.88229370117188 87.56893157958984 65.40481567382812 89.88570404052734 C 59.73468017578125 92.28397369384766 53.71062850952148 93.5 47.5 93.5 Z" stroke="none"/>
                    <path d="M 47.5 3 C 41.49121475219727 3 35.66376876831055 4.176155090332031 30.17950439453125 6.495796203613281 C 24.88084411621094 8.736953735351562 20.12152099609375 11.94598388671875 16.03375244140625 16.03375244140625 C 11.94598388671875 20.12152099609375 8.736953735351562 24.88084411621094 6.495796203613281 30.17950439453125 C 4.176155090332031 35.66376876831055 3 41.49121475219727 3 47.5 C 3 53.50878524780273 4.176155090332031 59.33623123168945 6.495796203613281 64.82049560546875 C 8.736953735351562 70.11915588378906 11.94598388671875 74.87847900390625 16.03375244140625 78.96624755859375 C 20.12152099609375 83.05401611328125 24.88084411621094 86.26304626464844 30.17950439453125 88.50419616699219 C 35.66376876831055 90.82384490966797 41.49121475219727 92 47.5 92 C 53.50878524780273 92 59.33623123168945 90.82384490966797 64.82049560546875 88.50419616699219 C 70.11915588378906 86.26304626464844 74.87847900390625 83.05401611328125 78.96624755859375 78.96624755859375 C 83.05401611328125 74.87847900390625 86.26304626464844 70.11915588378906 88.50419616699219 64.82049560546875 C 90.82384490966797 59.33623123168945 92 53.50878524780273 92 47.5 C 92 41.49121475219727 90.82384490966797 35.66376876831055 88.50419616699219 30.17950439453125 C 86.26304626464844 24.88084411621094 83.05401611328125 20.12152099609375 78.96624755859375 16.03375244140625 C 74.87847900390625 11.94598388671875 70.11915588378906 8.736953735351562 64.82049560546875 6.495796203613281 C 59.33623123168945 4.176155090332031 53.50878524780273 3 47.5 3 M 47.5 0 C 73.7335205078125 0 95 21.2664794921875 95 47.5 C 95 73.7335205078125 73.7335205078125 95 47.5 95 C 21.2664794921875 95 0 73.7335205078125 0 47.5 C 0 21.2664794921875 21.2664794921875 0 47.5 0 Z" stroke="none" fill="#397b86"/>
                  </g>
                </g>
              </g>
            </g>
          </g>
        </g>
      </g>
    </g>
    <g id="arcoiris" transform="translate(295.959 5358.188)">
      <g id="Grupo_1183252" data-name="Grupo 1183252" transform="translate(0.939 3.093)">
        <path id="Trazado_1044887" data-name="Trazado 1044887" d="M66.309,51.156a3.4,3.4,0,0,0,3.4-3.4V41A31.1,31.1,0,1,0,7.5,40.757v7a3.4,3.4,0,0,0,3.4,3.4h3.241l3.405-2.273h42.4l3.128,2.273Z" transform="translate(-7.5 -9.655)" fill="#fd8b9b"/>
        <path id="Trazado_1044888" data-name="Trazado 1044888" d="M109.461,87.15v10.4h-6.637V87.15a17.828,17.828,0,0,0-35.656,0v10.4H60.53V87.15a24.465,24.465,0,0,1,48.931,0Z" transform="translate(-53.893 -56.048)" fill="#fae09d"/>
        <path id="Trazado_1044889" data-name="Trazado 1044889" d="M149.216,133.543v10.4h-6.637v-10.4a11.191,11.191,0,1,0-22.381,0v10.4H113.56v-10.4a17.828,17.828,0,1,1,35.656,0Z" transform="translate(-100.285 -102.44)" fill="#71d9b8"/>
        <path id="Trazado_1044890" data-name="Trazado 1044890" d="M188.971,179.927v10.4h-6.637v-10.4a4.553,4.553,0,1,0-9.107,0v10.4H166.59v-10.4a11.191,11.191,0,1,1,22.381,0Z" transform="translate(-146.678 -148.824)" fill="#7ce0fd"/>
        <path id="Trazado_1044891" data-name="Trazado 1044891" d="M228.727,226.32v10.4H219.62v-10.4a4.553,4.553,0,1,1,9.107,0Z" transform="translate(-193.071 -195.217)" fill="#c6a7ef"/>
        <path id="Trazado_1044892" data-name="Trazado 1044892" d="M75.288,294.174c-3,2.028-5.873,1.03-7.875-.307a1.746,1.746,0,0,1,.18-3.007,6.573,6.573,0,0,0,.842-.505,5.611,5.611,0,0,0,2.287-4.1,5.587,5.587,0,0,1,9.421-3.514Z" transform="translate(-59.237 -247.206)" fill="#fd8b9b"/>
        <path id="Trazado_1044893" data-name="Trazado 1044893" d="M136.1,275.608a15.056,15.056,0,0,1,30.014,0L151.1,278.591Z" transform="translate(-120.002 -230.211)" fill="#fd8b9b"/>
        <path id="Trazado_1044894" data-name="Trazado 1044894" d="M140.021,280.575a16.373,16.373,0,0,1,6.468-13.05A15.066,15.066,0,0,0,136.1,280.647l3.937.783Q140.021,281,140.021,280.575Z" transform="translate(-120.002 -235.25)" fill="#e75b70"/>
        <path id="Trazado_1044895" data-name="Trazado 1044895" d="M165.821,334.354a15.056,15.056,0,0,1-30.112,0c0-.408.017-.813.049-1.213,3.642-.114,10.393-1,15.007-5.612,4.614,4.614,11.365,5.5,15.007,5.612C165.8,333.541,165.821,333.947,165.821,334.354Z" transform="translate(-119.662 -287.744)" fill="#ffdcce"/>
        <path id="Trazado_1044896" data-name="Trazado 1044896" d="M139.68,369.617c0-.1,0-.208,0-.311a30.006,30.006,0,0,1-3.927.383c-.032.4-.049.8-.049,1.213a15.062,15.062,0,0,0,11.405,14.609c-4.876-2.971-7.434-9.309-7.434-15.894Z" transform="translate(-119.662 -324.292)" fill="#ffcabd"/>
      </g>
      <g id="Grupo_1183253" data-name="Grupo 1183253" transform="translate(0 2.154)">
        <path id="Trazado_1044897" data-name="Trazado 1044897" d="M188.888,393.68a.939.939,0,0,0-.939.939v1.456a.939.939,0,0,0,1.877,0v-1.456A.939.939,0,0,0,188.888,393.68Z" transform="translate(-164.425 -344.676)"/>
        <path id="Trazado_1044898" data-name="Trazado 1044898" d="M309.99,393.68a.939.939,0,0,0-.939.939v1.456a.939.939,0,0,0,1.877,0v-1.456A.939.939,0,0,0,309.99,393.68Z" transform="translate(-270.37 -344.676)"/>
        <path id="Trazado_1044899" data-name="Trazado 1044899" d="M238.087,405.2a.939.939,0,0,0-1.324.091,1.709,1.709,0,0,1-2.581,0,.939.939,0,0,0-1.415,1.233,3.587,3.587,0,0,0,5.411,0A.939.939,0,0,0,238.087,405.2Z" transform="translate(-203.431 -354.551)"/>
        <path id="Trazado_1044900" data-name="Trazado 1044900" d="M54.539,11.549a31.669,31.669,0,0,0-22.5-9.395H32A31.891,31.891,0,0,0,11.986,9.226a.939.939,0,1,0,1.177,1.463A30.217,30.217,0,0,1,32,4.032h.039a29.807,29.807,0,0,1,21.171,8.846A30.652,30.652,0,0,1,59.789,22.6a30.059,30.059,0,0,1,2.416,11.839V41.2a2.46,2.46,0,0,1-2.457,2.457h-2.3V34.2a25.433,25.433,0,0,0-25.39-25.4h-.014a25.431,25.431,0,0,0-25.4,25.4v9.46h-2.3A2.46,2.46,0,0,1,1.877,41.2v-7a29.989,29.989,0,0,1,8.587-21.054A.939.939,0,1,0,9.121,11.83,31.856,31.856,0,0,0,0,34.2v7a4.34,4.34,0,0,0,4.335,4.335H9.509a5.636,5.636,0,0,1-.634.374,2.684,2.684,0,0,0-.281,4.627,8.7,8.7,0,0,0,4.822,1.627,6.887,6.887,0,0,0,2.743-.576,16,16,0,1,0,31.328-6.052H59.748A4.34,4.34,0,0,0,64.083,41.2V34.439a31.928,31.928,0,0,0-2.566-12.574,32.524,32.524,0,0,0-6.978-10.315ZM16.1,48.416c-.031.384-.048.831-.051,1.127-1.983,1.138-4.137.947-6.412-.571a.807.807,0,0,1,.078-1.387,6.538,6.538,0,0,0,3.644-5.355h0a4.652,4.652,0,0,1,1.49-2.988h0a4.647,4.647,0,0,1,2.585-1.189,4.575,4.575,0,0,1,2.988.661A15.911,15.911,0,0,0,16.1,48.416ZM32.041,28.7A5.5,5.5,0,0,0,26.549,34.2v.482A15.943,15.943,0,0,0,21.828,37.4l-.038-.028V34.2a10.252,10.252,0,1,1,20.5,0v3.231l-.013-.01a15.942,15.942,0,0,0-4.747-2.739V34.2A5.5,5.5,0,0,0,32.041,28.7Zm3.613,5.417a16.109,16.109,0,0,0-7.225,0,3.613,3.613,0,0,1,7.225,0Zm-3.613,1.467A14.119,14.119,0,0,1,45.987,47.5c-4.812-.329-9.845-1.845-13.282-5.283a.939.939,0,0,0-1.327,0C27.951,45.641,22.932,47.166,18.1,47.5A14.116,14.116,0,0,1,32.041,35.586Zm0,28.234A14.128,14.128,0,0,1,17.931,49.389c5.067-.306,10.313-1.82,14.111-5.219,3.8,3.4,9.085,4.922,14.113,5.219q0,.157,0,.314A14.133,14.133,0,0,1,32.041,63.82ZM55.568,43.655h-4.76V34.2a18.777,18.777,0,0,0-2.155-8.725.939.939,0,1,0-1.661.876A16.893,16.893,0,0,1,48.931,34.2v9.46H46.852a15.956,15.956,0,0,0-2.682-4.378V34.2a12.129,12.129,0,1,0-24.259,0v2.237a6.454,6.454,0,0,0-2.363-.277,6.649,6.649,0,0,0-2.4.631V34.2A16.881,16.881,0,0,1,44.968,23.339.939.939,0,0,0,46.4,22.13,18.759,18.759,0,0,0,13.275,34.2v3.945a6.507,6.507,0,0,0-1.785,3.911h0a5.185,5.185,0,0,1-.419,1.6H8.515V34.2a23.527,23.527,0,0,1,47.053.212Z" transform="translate(0 -2.154)"/>
      </g>
    </g>
  </g>
</svg>
