<svg xmlns="http://www.w3.org/2000/svg" xmlns:xlink="http://www.w3.org/1999/xlink" width="108" height="108" viewBox="0 0 108 108">
  <defs>
    <filter id="Trazado_904820" x="0" y="0" width="108" height="108" filterUnits="userSpaceOnUse">
      <feOffset dy="3" input="SourceAlpha"/>
      <feGaussianBlur stdDeviation="3" result="blur"/>
      <feFlood flood-opacity="0.161"/>
      <feComposite operator="in" in2="blur"/>
      <feComposite in="SourceGraphic"/>
    </filter>
  </defs>
  <g id="Grupo_1182815" data-name="Grupo 1182815" transform="translate(-193.227 -3846)">
    <g id="Grupo_1179600" data-name="Grupo 1179600" transform="translate(-7.227 3090.33)">
      <g id="Grupo_1173787" data-name="Grupo 1173787" transform="translate(209.455 761.67)">
        <g id="Grupo_1171910" data-name="Grupo 1171910" transform="translate(0)">
          <g id="Grupo_1167341" data-name="Grupo 1167341">
            <g id="Grupo_1166792" data-name="Grupo 1166792">
              <g transform="matrix(1, 0, 0, 1, -9, -6)" filter="url(#Trazado_904820)">
                <g id="Trazado_904820-2" data-name="Trazado 904820" transform="translate(9 6)" fill="#edf3fc">
                  <path d="M 44.99999618530273 88.50003051757812 C 39.12687301635742 88.50003051757812 33.43022155761719 87.35010528564453 28.06829643249512 85.08219909667969 C 22.88852119445801 82.89134216308594 18.23629570007324 79.75461578369141 14.24084663391113 75.75916290283203 C 10.24540901184082 71.76371765136719 7.108683586120605 67.11150360107422 4.917821407318115 61.93172836303711 C 2.649921178817749 56.56978988647461 1.499996185302734 50.87313842773438 1.499996185302734 45.00001525878906 C 1.499996185302734 39.12689208984375 2.649921178817749 33.43024063110352 4.917821407318115 28.06831550598145 C 7.108683586120605 22.88854026794434 10.24540901184082 18.23631477355957 14.24084663391113 14.24086570739746 C 18.23629570007324 10.24541568756104 22.88852119445801 7.10869026184082 28.06829643249512 4.917840480804443 C 33.43022155761719 2.649927854537964 39.12687301635742 1.50000274181366 44.99999618530273 1.50000274181366 C 50.87311935424805 1.50000274181366 56.56977081298828 2.649927854537964 61.93169784545898 4.917840480804443 C 67.11147308349609 7.10869026184082 71.76369476318359 10.24541568756104 75.75914764404297 14.24086570739746 C 79.75458526611328 18.23631477355957 82.89131164550781 22.88854026794434 85.08216857910156 28.06831550598145 C 87.35007476806641 33.43024063110352 88.5 39.12689208984375 88.5 45.00001525878906 C 88.5 50.87313842773438 87.35007476806641 56.56978988647461 85.08216857910156 61.93172836303711 C 82.89131164550781 67.11150360107422 79.75458526611328 71.76371765136719 75.75914764404297 75.75916290283203 C 71.76369476318359 79.75461578369141 67.11147308349609 82.89134216308594 61.93169784545898 85.08219909667969 C 56.56977081298828 87.35010528564453 50.87311935424805 88.50003051757812 44.99999618530273 88.50003051757812 Z" stroke="none"/>
                  <path d="M 44.99999618530273 3 C 39.32870864868164 3 33.82865142822266 4.110061645507812 28.65262603759766 6.299346923828125 C 23.65165710449219 8.414573669433594 19.15968322753906 11.44334411621094 15.301513671875 15.301513671875 C 11.44333648681641 19.15968322753906 8.414566040039062 23.65165710449219 6.299339294433594 28.65262985229492 C 4.110054016113281 33.82867050170898 2.999992370605469 39.32872772216797 2.999992370605469 45.00001525878906 C 2.999992370605469 50.67130279541016 4.110054016113281 56.17136001586914 6.299339294433594 61.34738922119141 C 8.414566040039062 66.34837341308594 11.44333648681641 70.84033203125 15.301513671875 74.69850158691406 C 19.15968322753906 78.55668640136719 23.65165710449219 81.58545684814453 28.65262603759766 83.70068359375 C 33.82865142822266 85.88996887207031 39.32870864868164 87.00003051757812 44.99999618530273 87.00003051757812 C 50.67128372192383 87.00003051757812 56.17134094238281 85.88996887207031 61.34736633300781 83.70068359375 C 66.34834289550781 81.58545684814453 70.84030914306641 78.55668640136719 74.69847869873047 74.69850158691406 C 78.55665588378906 70.84033203125 81.58542633056641 66.34837341308594 83.70065307617188 61.34738922119141 C 85.88993835449219 56.17136001586914 87 50.67130279541016 87 45.00001525878906 C 87 39.32872772216797 85.88993835449219 33.82867050170898 83.70065307617188 28.65262985229492 C 81.58542633056641 23.65165710449219 78.55665588378906 19.15968322753906 74.69847869873047 15.301513671875 C 70.84030914306641 11.44334411621094 66.34834289550781 8.414573669433594 61.34736633300781 6.299346923828125 C 56.17134094238281 4.110061645507812 50.67128372192383 3 44.99999618530273 3 M 44.99999618530273 0 C 69.85281372070312 0 90 20.14718627929688 90 45.00001525878906 C 90 69.85282897949219 69.85281372070312 90.00003051757812 44.99999618530273 90.00003051757812 C 20.14717864990234 90.00003051757812 -7.62939453125e-06 69.85282897949219 -7.62939453125e-06 45.00001525878906 C -7.62939453125e-06 20.14718627929688 20.14717864990234 0 44.99999618530273 0 Z" stroke="none" fill="#5692e8"/>
                </g>
              </g>
            </g>
          </g>
        </g>
      </g>
    </g>
    <g id="bailar" transform="translate(219.211 3866.001)">
      <g id="Grupo_1182813" data-name="Grupo 1182813" transform="translate(0.84 0.819)">
        <path id="Trazado_1043358" data-name="Trazado 1043358" d="M22.5,232.981c.324-.139.64-.259.948-.363V242.5l-5.556-.761.246-.737a1.641,1.641,0,0,0-1.393-2.151l-3.093-.309a1.645,1.645,0,0,0-1.323.472l-1.778,1.778a1.8,1.8,0,0,1-2.691-2.375l2.328-2.993a4.92,4.92,0,0,1,3.885-1.9h5.812A6.644,6.644,0,0,0,22.5,232.981Z" transform="translate(-7.48 -207.998)" fill="#b07058"/>
        <path id="Trazado_1043359" data-name="Trazado 1043359" d="M212.8,233.246l-2.314,2.975a4.921,4.921,0,0,1-3.885,1.9h-4.211a1.641,1.641,0,0,0-1.6,1.285l-.307,1.382-3.269-.447V229.458a7.3,7.3,0,0,1,3.2,1.683,6.652,6.652,0,0,0,3.765,1.679l2.843.283a1.64,1.64,0,0,0,1.323-.472l1.762-1.761a1.8,1.8,0,0,1,2.694,2.376Z" transform="translate(-176.461 -205.183)" fill="#c8866a"/>
        <path id="Trazado_1043360" data-name="Trazado 1043360" d="M95.622,316.028l6.322.866v9.234l-.595.174-.871,8.431a2.12,2.12,0,0,1-2.109,1.9H98.1a2.119,2.119,0,0,1-2.111-1.925l-1.152-12.5a13.111,13.111,0,0,1,.594-5.6Z" transform="translate(-85.211 -282.286)" fill="#c8866a"/>
        <path id="Trazado_1043361" data-name="Trazado 1043361" d="M194.681,339.682l-.213,3.348a2.119,2.119,0,0,1-4.216.143l-.487-3.689a2.6,2.6,0,0,0-.713-1.323,6,6,0,0,0-.623-.579l-2.918-2.387-.609.178v-8.085l4.615.632-.14.63a1.641,1.641,0,0,0,.375,1.446l3.313,4.6A6.8,6.8,0,0,1,194.681,339.682Z" transform="translate(-165.498 -292.314)" fill="#db9e82"/>
        <path id="Trazado_1043362" data-name="Trazado 1043362" d="M101.739,233.6,100.6,238l-9.9-1.548-6.832-1.068a19.381,19.381,0,0,1,1.041-6.673,3.285,3.285,0,0,1,1.252-1.507h0l.9.184,3.425-3.117-.289-2.713a8.809,8.809,0,0,0-.442-3.235l1.225.112,7.833.712s-2.661,5.989.988,8.994a1.632,1.632,0,0,1,.357,2.074,1.607,1.607,0,0,0,.3,2.107C100.949,232.8,101.358,233.2,101.739,233.6Z" transform="translate(-75.517 -195.262)" fill="#fce3a0"/>
        <path id="Trazado_1043363" data-name="Trazado 1043363" d="M90.7,236.321c0,.043,0,.085,0,.128l-6.832-1.068a19.381,19.381,0,0,1,1.041-6.673,3.28,3.28,0,0,1,1.589-1.7c5.511-2.7,3.263-8.691,3.263-8.691l1.225.112,3.29,4.1S90.557,225.5,90.7,236.321Z" transform="translate(-75.516 -195.262)" fill="#fdcb89"/>
        <path id="Trazado_1043364" data-name="Trazado 1043364" d="M147.847,362.835a11.378,11.378,0,0,1-7.1,2.21,17.458,17.458,0,0,1-4.017-.451l-3.013-2.227,1.379-2.933.023-.012.739-.37a.81.81,0,0,1,.933.151l1.486,1.486a.81.81,0,0,0,1.145,0l1.428-1.428a.81.81,0,0,1,1.021-.1l1.366.911a.81.81,0,0,0,1.021-.1l1.872-1.872a21.8,21.8,0,0,1,2.041,2.48A1.641,1.641,0,0,1,147.847,362.835Z" transform="translate(-119.915 -319.755)" fill="#ffb25a"/>
        <path id="Trazado_1043365" data-name="Trazado 1043365" d="M92.318,365.836c-2.455-.563-4.154-1.446-6.752-1.358a1.639,1.639,0,0,1-1.69-1.58c-.019-.517-.031-1.124-.023-1.782h0l1.223-.733,1.289-.774a.81.81,0,0,1,1.09.245l.758,1.136.02.03.045.068a.807.807,0,0,0,1.035.275l1.271-.634.1-.05q-.011.668,0,1.379A5.116,5.116,0,0,0,92.318,365.836Z" transform="translate(-75.498 -320.997)" fill="#ff9c20"/>
        <path id="Trazado_1043366" data-name="Trazado 1043366" d="M86.809,10.788a18.045,18.045,0,0,1-9.891,9.248,16.5,16.5,0,0,1-4.121.887s-5.147.533-2.437-5.666c1.094-2.5,3.418-3.48,6.029-3.85,3.857-.546,8.343.233,10.419-.619Z" transform="translate(-62.782 -10.428)" fill="#59697f"/>
        <path id="Trazado_1043367" data-name="Trazado 1043367" d="M76.919,25.077a16.5,16.5,0,0,1-4.121.887s-5.147.533-2.437-5.666c1.094-2.5,3.418-3.48,6.029-3.85-.912,1.186-2.081,3.644.011,7.056A3.1,3.1,0,0,1,76.919,25.077Z" transform="translate(-62.783 -15.469)" fill="#455060"/>
        <path id="Trazado_1043368" data-name="Trazado 1043368" d="M161.276,17.092s5.156.433,2.326-5.713C161.4,6.587,154.711,7.574,150.21,7.6a1.64,1.64,0,0,0-1.292,2.635,16.768,16.768,0,0,0,12.358,6.862Z" transform="translate(-133.149 -7.497)" fill="#455060"/>
        <path id="Trazado_1043369" data-name="Trazado 1043369" d="M152.378,57.387c1.908,3.417,6.641,7.8,13.173,9.436,0,0,5.7,1.523,3.761-5.94-1.24-4.778-6.648-5.8-11.341-6.494Z" transform="translate(-136.531 -49.261)" fill="#4677d5"/>
        <path id="Trazado_1043370" data-name="Trazado 1043370" d="M72.533,51.662a19.987,19.987,0,0,1-7.683,8.585,18.7,18.7,0,0,1-5.018,2.046s-5.7,1.523-3.76-5.94A6.46,6.46,0,0,1,57.4,53.763l1.8-.074,3.881-3.009h0c2.6-.673,5.44-.924,7.675-1.346A1.64,1.64,0,0,1,72.533,51.662Z" transform="translate(-50.401 -44.732)" fill="#7293df"/>
        <path id="Trazado_1043371" data-name="Trazado 1043371" d="M64.85,71.455A18.7,18.7,0,0,1,59.833,73.5s-5.7,1.523-3.76-5.94c.864-3.328,3.75-4.832,7.008-5.674h0s-3.162,5.549,1.1,8.9A3.339,3.339,0,0,1,64.85,71.455Z" transform="translate(-50.401 -55.94)" fill="#4677d5"/>
        <path id="Trazado_1043372" data-name="Trazado 1043372" d="M97.685,130.2a10.727,10.727,0,0,1-1.873.091l-5.52-1.795a10.681,10.681,0,0,1-4.68-7.6c-.008-.063-.015-.127-.021-.19l4.9-3.123a13.415,13.415,0,0,0,4.291-2.442,1.643,1.643,0,0,1,1.787-.22A12.279,12.279,0,0,0,104.682,116a1.647,1.647,0,0,1,2,1.238q.115.512.18,1.043A10.738,10.738,0,0,1,97.685,130.2Z" transform="translate(-77.048 -103.023)" fill="#db9e82"/>
        <path id="Trazado_1043373" data-name="Trazado 1043373" d="M95.345,153.344A10.712,10.712,0,0,1,85.068,142.89a1.647,1.647,0,0,1,1.638-1.686,10.674,10.674,0,0,0,3.319-.565S87.833,148.954,95.345,153.344Z" transform="translate(-76.582 -126.077)" fill="#c8866a"/>
        <path id="Trazado_1043374" data-name="Trazado 1043374" d="M418.286,433.835a1.729,1.729,0,0,1-2.26-.933l-2.5-6.007,3.8-1.581,1.947,6.422A1.729,1.729,0,0,1,418.286,433.835Z" transform="translate(-369.121 -379.621)" fill="#db9e82"/>
        <path id="Trazado_1043375" data-name="Trazado 1043375" d="M332.311,433.835a1.729,1.729,0,0,0,2.26-.933l2.5-6.007-3.8-1.581-1.947,6.422A1.729,1.729,0,0,0,332.311,433.835Z" transform="translate(-295.837 -379.621)" fill="#c8866a"/>
        <path id="Trazado_1043376" data-name="Trazado 1043376" d="M315.786,334.356l-4.856,2.609a1.64,1.64,0,0,0-.864,1.446v2.729h-9.882v-2.729a1.64,1.64,0,0,0-.864-1.446l-4.856-2.609a1.647,1.647,0,1,1,1.56-2.9l1.784.959a4.333,4.333,0,0,0,4.517-.285,4.942,4.942,0,0,1,5.614.008,4.315,4.315,0,0,0,4.5.277l1.784-.958a1.647,1.647,0,0,1,1.56,2.9Z" transform="translate(-262.306 -295.85)" fill="#c8866a"/>
        <path id="Trazado_1043377" data-name="Trazado 1043377" d="M305.127,332.906s-1.832.7-1.907,3.629c0,.062,0,.125,0,.189v4.417h-3.032v-2.729a1.64,1.64,0,0,0-.864-1.446l-4.856-2.609a1.647,1.647,0,1,1,1.56-2.9l1.784.959a4.333,4.333,0,0,0,4.517-.285,4.9,4.9,0,0,1,1.541-.708C304.574,332.255,305.127,332.906,305.127,332.906Z" transform="translate(-262.307 -295.852)" fill="#b07058"/>
        <path id="Trazado_1043378" data-name="Trazado 1043378" d="M337.676,201.445a3.16,3.16,0,0,1-6.314-.213l-4.854,0h-1.468a3.153,3.153,0,0,1-5.27,2.344l1.1-4.5-1.355-.728a3.179,3.179,0,0,1,2.882-3.427,1.614,1.614,0,0,0,1.078-.534,3.152,3.152,0,0,1,2.354-1.051,3.209,3.209,0,0,1,1.1.2,3.278,3.278,0,0,1,.484.23,1.577,1.577,0,0,0,1.574,0,3.162,3.162,0,0,1,3.937.628,1.62,1.62,0,0,0,1.078.535,3.179,3.179,0,0,1,2.871,3.5,1.507,1.507,0,0,0,.255,1.027,3.15,3.15,0,0,1,.544,2Z" transform="translate(-285.383 -173.005)" fill="#59697f"/>
        <path id="Trazado_1043379" data-name="Trazado 1043379" d="M319.654,200.585a2.309,2.309,0,0,1,.44.644h-1.468a3.16,3.16,0,1,1-5.768-1.787,1.518,1.518,0,0,0,.255-1.028,3.178,3.178,0,0,1,2.874-3.5,1.614,1.614,0,0,0,1.078-.534,3.152,3.152,0,0,1,2.354-1.051,3.21,3.21,0,0,1,1.1.2,2.558,2.558,0,0,0-1.236,2.489,1.636,1.636,0,0,1-.184.9A3.017,3.017,0,0,0,319.654,200.585Z" transform="translate(-278.968 -173.005)" fill="#455060"/>
        <path id="Trazado_1043380" data-name="Trazado 1043380" d="M352.464,250.938a6.588,6.588,0,0,1-6.588,6.587l-2.932-.688h0a6.593,6.593,0,0,1-3.59-4.988l3.968-4.318a2.464,2.464,0,0,0,1.072-.675.729.729,0,0,1,.827-.174,1.642,1.642,0,0,0,1.317,0,.729.729,0,0,1,.827.174,2.479,2.479,0,0,0,1.975.783.722.722,0,0,1,.734.505,1.648,1.648,0,0,0,1.57,1.146h.005a.733.733,0,0,1,.737.612A6.582,6.582,0,0,1,352.464,250.938Z" transform="translate(-303.056 -220.47)" fill="#db9e82"/>
        <path id="Trazado_1043381" data-name="Trazado 1043381" d="M345.369,264.932a6.592,6.592,0,0,1-6.506-7.622.731.731,0,0,1,.736-.612h.007a1.652,1.652,0,0,0,1.57-1.148.719.719,0,0,1,.734-.5,2.487,2.487,0,0,0,.9-.108A9.065,9.065,0,0,0,345.369,264.932Z" transform="translate(-302.549 -227.877)" fill="#c8866a"/>
        <path id="Trazado_1043382" data-name="Trazado 1043382" d="M366.53,422.13l-3.492,1a1.332,1.332,0,0,1-1.474-.541,1.332,1.332,0,0,0-2.216,0,1.332,1.332,0,0,1-1.474.541l-.159-.045-.258-.073h0l-1.734-2.014,1.591-3.406,1.234-.022c.567.04,1.2.065,1.91.065a20.012,20.012,0,0,0,4.6-.453,1.331,1.331,0,0,1,1.574.873l.793,2.378A1.332,1.332,0,0,1,366.53,422.13Z" transform="translate(-317.637 -372.34)" fill="#8ce09f"/>
        <path id="Trazado_1043383" data-name="Trazado 1043383" d="M339.766,417.566a1.061,1.061,0,0,0-.8.85l-.642,3.015a1.873,1.873,0,0,0,.607,1.651l-3.333-.953a1.333,1.333,0,0,1-.9-1.7l.793-2.378a1.331,1.331,0,0,1,1.574-.873A16.8,16.8,0,0,0,339.766,417.566Z" transform="translate(-298.856 -372.34)" fill="#55d47b"/>
      </g>
      <g id="Grupo_1182814" data-name="Grupo 1182814" transform="translate(0.024 -0.001)">
        <path id="Trazado_1043384" data-name="Trazado 1043384" d="M55.714,36.707A2.465,2.465,0,0,0,52.373,35.7l-1.784.958a3.463,3.463,0,0,1-2.231.352,7.386,7.386,0,0,0,2.528-4.091A3.986,3.986,0,0,0,53.266,26.8a.691.691,0,0,1-.117-.471,4,4,0,0,0-3.62-4.414.8.8,0,0,1-.534-.263,4,4,0,0,0-4.96-.789.76.76,0,0,1-.75,0,4,4,0,0,0-4.959.787.8.8,0,0,1-.532.264,4.005,4.005,0,0,0-3.645,3.8l-2.006,1.977a.817.817,0,0,1-.662.236l-2.843-.283a5.722,5.722,0,0,1-2.2-.688,11.53,11.53,0,0,0,1.981-1.684.82.82,0,0,0-1.2-1.121,9.876,9.876,0,0,1-17.079-6.534.826.826,0,0,1,.824-.847,13.1,13.1,0,0,0,8.134-3.2.824.824,0,0,1,.9-.11,13.08,13.08,0,0,0,8.666,1.138.826.826,0,0,1,1.005.62,9.8,9.8,0,0,1-.522,5.961.82.82,0,1,0,1.513.633,11.486,11.486,0,0,0,.727-2.495A3.549,3.549,0,0,0,34,18.018c.957-1.212,1.1-3.158.415-5.784A7.285,7.285,0,0,0,32.742,9.13c.441-1.193.206-2.794-.7-4.772A7.133,7.133,0,0,0,26.647.383C23.784-.246,20.447.084,17.9.1a2.438,2.438,0,0,0-1.721.716c-2.891.155-6.889.8-8.509,4.507a6.987,6.987,0,0,0-.746,4.361,7.343,7.343,0,0,0-1.2,2.556c-.677,2.608-.543,4.546.4,5.759a3.521,3.521,0,0,0,2.55,1.311,11.536,11.536,0,0,0,3.205,6.221l-4.438,0A5.7,5.7,0,0,0,2.9,27.741L.57,30.735A2.619,2.619,0,0,0,4.49,34.194l1.778-1.778a.819.819,0,0,1,.662-.236l3.093.31a.815.815,0,0,1,.35.12,4.57,4.57,0,0,0-1.129,1.97A.82.82,0,1,0,10.8,35.1c.061-.183.126-.358.194-.521A2.457,2.457,0,0,1,12.185,33.3a6.961,6.961,0,0,0,4.025-5.045,11.468,11.468,0,0,0,6.191.406,6.557,6.557,0,0,0,2.211,5.662.808.808,0,0,1,.165,1.033,2.43,2.43,0,0,0,.436,3.1c.251.251.481.481.7.7l-1.294,1.294-1.36-.907a1.635,1.635,0,0,0-2.056.2l-1.421,1.421L18.3,39.689a1.629,1.629,0,0,0-1.881-.306L14.3,40.445l-.817-1.226a1.63,1.63,0,0,0-2.194-.492l-1.217.731c.016-.268.034-.531.057-.785a.82.82,0,0,0-1.634-.146A34.088,34.088,0,0,0,8.4,42.749a2.465,2.465,0,0,0,1.635,2.229l.768,8.338a2.926,2.926,0,0,0,2.928,2.67H14a2.932,2.932,0,0,0,2.924-2.637l.708-6.857a17.969,17.969,0,0,0,5.753.341,2.36,2.36,0,0,1,.911,1.279l.485,3.673a2.939,2.939,0,0,0,5.848-.2l.214-3.358a8.059,8.059,0,0,0-.93-4.416,2.452,2.452,0,0,0-.143-2.648,26.9,26.9,0,0,0-3.4-3.872.8.8,0,0,1-.171-1.119,2.486,2.486,0,0,0,.311-1.555.913.913,0,0,1,.354-.041h4.112a5.7,5.7,0,0,0,4.405-2.064,3.936,3.936,0,0,0,1.05.406,7.385,7.385,0,0,0,2.53,4.093,3.42,3.42,0,0,1-2.234-.353L34.946,35.7a2.467,2.467,0,1,0-2.336,4.346l4.855,2.609a.821.821,0,0,1,.432.724v1.589a2.141,2.141,0,0,0-1.2,1.3l-.792,2.377a2.132,2.132,0,0,0,.277,1.91l-.649,2.14a2.549,2.549,0,0,0,4.794,1.719l.814-1.959a2.143,2.143,0,0,0,2.088-.938.511.511,0,0,1,.851,0,2.143,2.143,0,0,0,2.087.936l.815,1.961A2.549,2.549,0,0,0,51.78,52.7l-.649-2.141a2.132,2.132,0,0,0,.277-1.91l-.793-2.377a2.141,2.141,0,0,0-1.2-1.3V43.381a.82.82,0,0,1,.432-.723l.633-.34a.82.82,0,1,0-.776-1.445l-.634.34a2.459,2.459,0,0,0-1.3,2.168v1.543a23.115,23.115,0,0,1-8.242,0V43.38a2.459,2.459,0,0,0-1.3-2.168L33.386,38.6a.827.827,0,1,1,.783-1.457l1.784.959a5.16,5.16,0,0,0,4.816,0,7.382,7.382,0,0,0,5.776,0,5.15,5.15,0,0,0,4.819,0l1.784-.958a.827.827,0,1,1,.783,1.457l-.85.457a.82.82,0,1,0,.777,1.445l.85-.457a2.465,2.465,0,0,0,1.005-3.34Zm-23-19.7a1.817,1.817,0,0,1-1.163.637,11.546,11.546,0,0,0-.278-2.787A2.466,2.466,0,0,0,28.28,13a11.258,11.258,0,0,1-7.106-.805,22.393,22.393,0,0,0,2.536-4.087,2.47,2.47,0,0,0,.245-1.061c3.935.685,7.9,1.879,8.871,5.6C33.364,14.72,33.325,16.226,32.712,17ZM17.9,1.736C22.461,1.715,28.6.8,30.548,5.044a6.875,6.875,0,0,1,.773,2.847C29.037,6.3,25.956,5.689,23.2,5.257a2.438,2.438,0,0,0-2.155-.642c-.656.124-1.368.233-2.118.344a18.351,18.351,0,0,1-1.663-1.9.82.82,0,0,1,.642-1.32ZM9.17,5.976c.9-2.067,2.858-3.153,6.283-3.467a2.457,2.457,0,0,0,.5,1.538q.472.623.992,1.207c-2.88.451-6.126,1.107-8.446,2.851a8.679,8.679,0,0,1,.67-2.13ZM7.411,16.991c-.6-.78-.64-2.282-.105-4.344,1.394-5.374,8.84-5.438,14.043-6.42a.819.819,0,0,1,.884,1.167,20.587,20.587,0,0,1-2.8,4.345,2.461,2.461,0,0,0-1.385.571,11.46,11.46,0,0,1-7.088,2.814,2.464,2.464,0,0,0-2.452,2.5,1.781,1.781,0,0,1-1.1-.634Zm4.364,14.676a2.463,2.463,0,0,0-1.589-.81l-3.094-.31a2.454,2.454,0,0,0-1.984.709L3.329,33.035a.978.978,0,0,1-1.463-1.293l2.329-2.994a4.073,4.073,0,0,1,3.237-1.583c5.764,0,6.064.012,6.457-.027.252.159.509.309.771.447A5.288,5.288,0,0,1,11.775,31.667Zm25.854,22.61a.906.906,0,0,1-.521-1.1l.516-1.7,1.926.55-.733,1.763A.911.911,0,0,1,37.629,54.277Zm12.061,0a.909.909,0,0,1-1.188-.49l-.733-1.764,1.926-.55.516,1.7A.906.906,0,0,1,49.69,54.277Zm-1.236-7.823a.51.51,0,0,1,.605.335l.793,2.377a.511.511,0,0,1-.344.653l-3.492,1a.509.509,0,0,1-.566-.208,2.153,2.153,0,0,0-3.581,0,.51.51,0,0,1-.566.208l-3.493-1a.511.511,0,0,1-.344-.653l.792-2.377a.509.509,0,0,1,.605-.335A24.519,24.519,0,0,0,48.454,46.454ZM15.292,53.181A1.3,1.3,0,0,1,14,54.346h-.272a1.293,1.293,0,0,1-1.294-1.18l-.741-8.041a17.936,17.936,0,0,1,4.333.953ZM29.2,48.135l-.213,3.348a1.3,1.3,0,0,1-2.584.087l-.487-3.689a3.157,3.157,0,0,0-.617-1.408,11.384,11.384,0,0,0,3.367-1.495,6.567,6.567,0,0,1,.535,3.155Zm-.934-4.885a10.54,10.54,0,0,1-6.594,2.039c-4.957,0-6.825-1.942-10.8-1.808a.819.819,0,0,1-.843-.79c-.016-.433-.023-.863-.023-1.287l2.106-1.264.816,1.225a1.631,1.631,0,0,0,2.084.554l2.126-1.063,1.48,1.48a1.632,1.632,0,0,0,2.305,0l1.422-1.422,1.358.906a1.634,1.634,0,0,0,2.057-.2l1.267-1.267a21.45,21.45,0,0,1,1.4,1.773.819.819,0,0,1-.165,1.129Zm2.708-10.312H26.768a2.457,2.457,0,0,0-1.007.218c-.035-.032-.069-.065-.106-.1-1.288-1.061-1.813-2.706-1.568-4.89.25-.095.5-.2.74-.309a7.407,7.407,0,0,0,3.647,1.411l2.841.282a2.448,2.448,0,0,0,1.987-.707l.064-.064a4.007,4.007,0,0,0,.79,2.643,4.129,4.129,0,0,1-3.177,1.512Zm5.364-2.813a7.458,7.458,0,0,0-.087.995,2.35,2.35,0,0,1-.85-3.4,2.332,2.332,0,0,0,.393-1.584,2.359,2.359,0,0,1,2.122-2.593,2.431,2.431,0,0,0,1.625-.8,2.349,2.349,0,0,1,2.915-.463,2.4,2.4,0,0,0,2.4,0,2.348,2.348,0,0,1,2.916.465,2.437,2.437,0,0,0,1.623.8,2.359,2.359,0,0,1,2.123,2.589,2.33,2.33,0,0,0,.393,1.587,2.348,2.348,0,0,1-.849,3.4,7.448,7.448,0,0,0-.087-1,1.547,1.547,0,0,0-1.544-1.3.826.826,0,0,1-.8-.577,1.541,1.541,0,0,0-1.57-1.073,1.665,1.665,0,0,1-1.319-.522,1.551,1.551,0,0,0-1.756-.366.824.824,0,0,1-.659,0,1.551,1.551,0,0,0-1.756.367,1.664,1.664,0,0,1-1.319.522,1.54,1.54,0,0,0-1.57,1.073.835.835,0,0,1-.789.577A1.547,1.547,0,0,0,36.343,30.124Zm1.608.335a2.458,2.458,0,0,0,2.273-1.649,3.276,3.276,0,0,0,2.509-1,2.47,2.47,0,0,0,1.854,0,3.275,3.275,0,0,0,2.509,1,2.459,2.459,0,0,0,2.273,1.649,5.768,5.768,0,1,1-11.417,0Z" transform="translate(-0.024 0.001)"/>
        <path id="Trazado_1043385" data-name="Trazado 1043385" d="M239.218,157.334a.82.82,0,0,0-.739.894l.124,1.307a.82.82,0,0,0,1.633-.155l-.124-1.307A.821.821,0,0,0,239.218,157.334Z" transform="translate(-212.397 -140.124)"/>
        <path id="Trazado_1043386" data-name="Trazado 1043386" d="M114.877,169.1a.82.82,0,0,0-.739.894l.124,1.306a.82.82,0,1,0,1.633-.155l-.124-1.306A.82.82,0,0,0,114.877,169.1Z" transform="translate(-101.655 -150.607)"/>
        <path id="Trazado_1043387" data-name="Trazado 1043387" d="M164.75,173.6a1.567,1.567,0,0,1-2.354.223.82.82,0,0,0-1.13,1.19,3.208,3.208,0,0,0,4.817-.456.82.82,0,0,0-1.333-.956Z" transform="translate(-143.405 -154.306)"/>
      </g>
    </g>
  </g>
</svg>
