<svg xmlns="http://www.w3.org/2000/svg" xmlns:xlink="http://www.w3.org/1999/xlink" width="505" height="327" viewBox="0 0 505 327">
  <defs>
    <clipPath id="clip-path">
      <rect id="Rectángulo_416036" data-name="Rectángulo 416036" width="505" height="327" transform="translate(915 1556)" fill="#fff" stroke="#707070" stroke-width="1"/>
    </clipPath>
  </defs>
  <g id="Enmascarar_grupo_1098831" data-name="Enmascarar grupo 1098831" transform="translate(-915 -1556)" clip-path="url(#clip-path)">
    <g id="Grupo_1183220" data-name="Grupo 1183220" transform="translate(-14.456 -28.608)">
      <ellipse id="Elipse_12529" data-name="Elipse 12529" cx="241" cy="205.5" rx="241" ry="205.5" transform="translate(940.956 1677.608)" fill="#f6f9ff" opacity="0.47"/>
      <g id="OBJECTS" transform="translate(941.234 1563.765)">
        <g id="Grupo_1183203" data-name="Grupo 1183203" transform="translate(0 103.813)">
          <g id="Grupo_1183197" data-name="Grupo 1183197" transform="translate(36.763 142.258)">
            <path id="Trazado_1044623" data-name="Trazado 1044623" d="M244.09,412.7c3.19,7.091,2.3,14.4-1.977,16.327s-10.339-2.26-13.53-9.351-2.3-14.4,1.977-16.327S240.9,405.612,244.09,412.7Z" transform="translate(-133.514 -371.698)" fill="#4aacd1"/>
            <path id="Trazado_1044624" data-name="Trazado 1044624" d="M235.5,391.5s11.96,11.726,7.63,21.829-21.468,5.945-26.88-6.679Z" transform="translate(-130.614 -368.529)" fill="#d99ca2"/>
            <path id="Trazado_1044625" data-name="Trazado 1044625" d="M235.5,391.5l-19.25,15.15a20.787,20.787,0,0,0,7.226,8.807c9.634-4.195,17.294-17.109,17.294-17.109h0A37.772,37.772,0,0,0,235.5,391.5Z" transform="translate(-130.614 -368.529)" fill="#af6781"/>
            <path id="Trazado_1044626" data-name="Trazado 1044626" d="M137,408.067s1.23,11.125,14.686,19.3,14.886,2.587,14.886,2.587l5.009-10.912L144.023,405Z" transform="translate(-108.552 -372.287)" fill="#433959"/>
            <path id="Trazado_1044627" data-name="Trazado 1044627" d="M138.548,404.967,117.333,446.58l16.357,10.9s21.853-22.929,27.4-36.881C161.093,420.6,149.42,403.523,138.548,404.967Z" transform="translate(-103.077 -372.254)" fill="#d99ca2"/>
            <path id="Trazado_1044628" data-name="Trazado 1044628" d="M145.856,404.967l-2.272,4.455h0s13.266,9.99,19.094,21.5A58.833,58.833,0,0,0,168.4,420.6S156.727,403.523,145.856,404.967Z" transform="translate(-110.385 -372.254)" fill="#af6781"/>
            <path id="Trazado_1044629" data-name="Trazado 1044629" d="M125.738,439.819l-8.405,16.487,16.357,10.9S139.7,460.9,146.211,452.9C141.392,442.936,131.374,440.423,125.738,439.819Z" transform="translate(-103.077 -381.98)" fill="#f8ffe1"/>
            <path id="Trazado_1044630" data-name="Trazado 1044630" d="M146.561,378.669s-5.953,14.793-9.561,16.777c0,0,21.621,4.453,29.572,21.89l14.987-32.646L191.6,402.843s23.332-.765,29.466-18.152l-15.194-25.024Z" transform="translate(-108.552 -359.667)" fill="#514769"/>
            <path id="Trazado_1044631" data-name="Trazado 1044631" d="M209.107,359.667l-59.312,19s-.452,1.124-1.181,2.789h0s23.138,11.755,32.805,10.582l3.374-7.35,3.138,5.671h0s18.694-16.234,22.807-27.929c.007-.018.011-.035.017-.053Z" transform="translate(-111.785 -359.667)" fill="#433959"/>
            <path id="Trazado_1044632" data-name="Trazado 1044632" d="M130.206,469.909s-13.8-16.964-31.061-11.526c0,0-5.472,3.755,4.029,10.971a56.145,56.145,0,0,0,20.806,9.381S129.032,476.93,130.206,469.909Z" transform="translate(-97.577 -386.849)" fill="#4aacd1"/>
            <path id="Trazado_1044633" data-name="Trazado 1044633" d="M110.271,464.33c-6.386-3.269-10.414-3.27-12.516-2.828-.554,1.8-.048,4.808,5.421,8.962a56.144,56.144,0,0,0,20.806,9.381,9.853,9.853,0,0,0,4.531-4.112C125.518,471.438,117.213,467.884,110.271,464.33Z" transform="translate(-97.578 -387.959)" fill="#39759a"/>
          </g>
          <g id="Grupo_1183198" data-name="Grupo 1183198" transform="translate(136.29 87.031)">
            <path id="Trazado_1044634" data-name="Trazado 1044634" d="M235.5,283.489s7.216-1.654,11.546,2.194,12.468,31.63,12.909,40.05c0,0,2.365,9.621-3.648,13.229s-9.26,2.165-9.26,2.165a3.141,3.141,0,0,1-3.969.285c-2.165-1.488-6.134-3.412-4.57-5.937s2.352-4.174,2.352-4.174-3.194-2.121-1.991-4.326,2.526-5.709,5.172-4.739l-8.54-14.062Z" transform="translate(-235.5 -283.135)" fill="#d99ca2"/>
            <path id="Trazado_1044635" data-name="Trazado 1044635" d="M235.5,283.489v24.685l2.368,3.9s10.917-14.982,5.671-28.316A17.46,17.46,0,0,0,235.5,283.489Z" transform="translate(-235.5 -283.136)" fill="#af6781"/>
            <line id="Línea_670" data-name="Línea 670" y1="3.969" x2="2.886" transform="translate(11.546 54.023)" fill="none" stroke="#914b60" stroke-linecap="round" stroke-linejoin="round" stroke-miterlimit="10" stroke-width="1"/>
            <line id="Línea_671" data-name="Línea 671" x2="4.45" transform="translate(8.539 39.101)" fill="none" stroke="#914b60" stroke-linecap="round" stroke-linejoin="round" stroke-miterlimit="10" stroke-width="1"/>
            <line id="Línea_672" data-name="Línea 672" x2="2.579" y2="1.198" transform="translate(5.359 48.166)" fill="none" stroke="#914b60" stroke-linecap="round" stroke-linejoin="round" stroke-miterlimit="10" stroke-width="1"/>
            <path id="Trazado_1044636" data-name="Trazado 1044636" d="M244.713,352.94s2.659-3.007,2.817-5.773" transform="translate(-238.065 -300.961)" fill="none" stroke="#914b60" stroke-linecap="round" stroke-linejoin="round" stroke-miterlimit="10" stroke-width="1"/>
            <line id="Línea_673" data-name="Línea 673" y1="3.369" x2="2.194" transform="translate(17.65 54.023)" fill="none" stroke="#914b60" stroke-linecap="round" stroke-linejoin="round" stroke-miterlimit="10" stroke-width="1"/>
          </g>
          <path id="Trazado_1044637" data-name="Trazado 1044637" d="M99.651,328.334a33.155,33.155,0,0,0,3.7,19.757c5.412,9.769,11.693,10.611,11.693,10.611l5.213-3.308L105.79,325.746C104.431,327.733,99.651,328.334,99.651,328.334Z" transform="translate(-61.32 -207.966)" fill="#39759a"/>
          <g id="Grupo_1183199" data-name="Grupo 1183199" transform="translate(38.331 84.722)">
            <path id="Trazado_1044638" data-name="Trazado 1044638" d="M130.533,298.011S102.7,316.063,99.75,315.581c0,0,17.613,16,15.391,30.368l16.721-10.611s3.571,18.141,2.08,23.432c0,0,22.274,10.8,37.067,5.993s27.782-27.181,27.782-27.181l-17.559-24.166,17.559.482s9.621-16.691,0-33.963l-32.232,4.829Z" transform="translate(-99.75 -279.935)" fill="#4aacd1"/>
            <path id="Trazado_1044639" data-name="Trazado 1044639" d="M150.25,304.334s.136,16.206,10.359,16.5,11.5-16.544,7.656-24.706Z" transform="translate(-113.808 -284.443)" fill="#d99ca2"/>
            <path id="Trazado_1044640" data-name="Trazado 1044640" d="M150.25,304.335a29.736,29.736,0,0,0,.345,3.778c3.547.376,12.98,1.074,19.653-1.174a25.04,25.04,0,0,0-1.983-10.81Z" transform="translate(-113.808 -284.443)" fill="#af6781"/>
            <path id="Trazado_1044641" data-name="Trazado 1044641" d="M146.732,316.885s.735,12.087,13.543,10.644,16.051-13.975,14.34-29.088" transform="translate(-112.829 -285.087)" fill="none" stroke="#39759a" stroke-linecap="round" stroke-linejoin="round" stroke-miterlimit="10" stroke-width="1"/>
            <line id="Línea_674" data-name="Línea 674" x1="2.165" y1="13.993" transform="translate(29.947 41.411)" fill="none" stroke="#39759a" stroke-linecap="round" stroke-linejoin="round" stroke-miterlimit="10" stroke-width="1"/>
            <path id="Trazado_1044642" data-name="Trazado 1044642" d="M196.868,316.5s1.6,6.074,11.4,7.1" transform="translate(-126.786 -290.114)" fill="none" stroke="#39759a" stroke-linecap="round" stroke-linejoin="round" stroke-miterlimit="10" stroke-width="1"/>
            <path id="Trazado_1044643" data-name="Trazado 1044643" d="M111.323,324.054s16.31,13.551,14.052,29.728" transform="translate(-102.972 -292.217)" fill="none" stroke="#39759a" stroke-linecap="round" stroke-linejoin="round" stroke-miterlimit="10" stroke-width="1"/>
            <path id="Trazado_1044644" data-name="Trazado 1044644" d="M226.667,281.83s9.381,12.15,0,32.114" transform="translate(-135.082 -280.463)" fill="none" stroke="#39759a" stroke-linecap="round" stroke-linejoin="round" stroke-miterlimit="10" stroke-width="1"/>
          </g>
          <g id="Grupo_1183201" data-name="Grupo 1183201" transform="translate(9.688)">
            <path id="Trazado_1044645" data-name="Trazado 1044645" d="M78.177,249.913S61.6,232.023,60.5,220.747c0,0-2.886-20.355,6.134-31.179s10.1-2.405,10.1-2.405,9.982-7.456,12.387-14.191,4.57-11.546,10.463-10.223,6.495,9.02,5.292,11.907c0,0,12.147-14.673,25.016-11.185,0,0,7.577,3.127,1.323,9.742,0,0,10.584-7.337,16.837-1.8s-3.368,8.9-3.368,8.9,12.389-2.285,13.952,2.767-9.982,11.425-9.982,11.425a31.508,31.508,0,0,1,1.564,19.379Z" transform="translate(-60.058 -162.529)" fill="#433959"/>
            <path id="Trazado_1044646" data-name="Trazado 1044646" d="M182,228.591s1.624-9.381,12.448-7.216,7.757,19.9-1.082,20.326l-9.561-5.976Z" transform="translate(-94.005 -178.82)" fill="#af6781"/>
            <path id="Trazado_1044647" data-name="Trazado 1044647" d="M197.491,229.462s-2.766-3.247-5.773-1.082-5.051,8.9-5.051,8.9" transform="translate(-95.304 -180.654)" fill="none" stroke="#914b60" stroke-linecap="round" stroke-linejoin="round" stroke-miterlimit="10" stroke-width="1"/>
            <path id="Trazado_1044648" data-name="Trazado 1044648" d="M139.628,208.75S153.88,221.2,154.06,230.759c0,0,17.5,3.428,14.071,19.844s-22.19,29.767-43.477,33.014-38.606-9.2-38.606-9.2-12.915,9.968-21.648-4.51c-6.855-11.365,3.428-24.174,15.154-19.664,0,0,6.675,2.526,7.938,5.593,0,0,9.2-10.644,1.8-24.9,0,0,13.711-8.84,14.252-15.515,0,0,17.5,3.608,21.288-4.149C124.835,211.276,137.824,213.08,139.628,208.75Z" transform="translate(-60.653 -175.396)" fill="#d99ca2"/>
            <path id="Trazado_1044649" data-name="Trazado 1044649" d="M135.289,211.276C131.5,219.033,114,215.425,114,215.425,113.461,222.1,99.75,230.94,99.75,230.94c12.267,1.624,17.319-10.644,17.319-10.644,11,2.886,20.838-5.051,20.838-5.051,11.426-.8,12.176-6.495,12.176-6.495C148.279,213.08,135.289,211.276,135.289,211.276Z" transform="translate(-71.108 -175.396)" fill="#af6781"/>
            <path id="Trazado_1044650" data-name="Trazado 1044650" d="M160.224,264.418a31.222,31.222,0,0,1-17.319,1.323c-9.5-2.044-12.989,2.886-13.951,8.419s3.848,13.831,19.243,12.628,17.8-11.666,18.161-16.6S162.811,263.564,160.224,264.418Z" transform="translate(-79.205 -190.835)" fill="#4a303e"/>
            <path id="Trazado_1044651" data-name="Trazado 1044651" d="M148.1,292.212c-1.027-3.581-5.346-6.926-11.028-8.135a18.934,18.934,0,0,0-7.519-.141C131.164,288.546,136.674,293.021,148.1,292.212Z" transform="translate(-79.405 -196.24)" fill="#ff6f89"/>
            <path id="Trazado_1044652" data-name="Trazado 1044652" d="M74.222,285.008s-4.33-6.495,1.323-9.5,10.223,2.96,10.223,2.96-4.69,3.294-.842,6.541" transform="translate(-63.56 -193.744)" fill="none" stroke="#914b60" stroke-linecap="round" stroke-linejoin="round" stroke-miterlimit="10" stroke-width="1"/>
            <path id="Trazado_1044653" data-name="Trazado 1044653" d="M160.969,264.423a31.222,31.222,0,0,1-17.319,1.323c-6.466-1.391-10.142.451-12.138,3.511a17.476,17.476,0,0,0,8.53,4.765c0-.006,0-.014,0-.02,0-2.547,1.5-4.612,3.353-4.612s3.353,2.065,3.353,4.612q0,.236-.017.466a40.335,40.335,0,0,0,14.6-4.634l.655-5.611A4.283,4.283,0,0,0,160.969,264.423Z" transform="translate(-79.95 -190.839)" fill="#f8ffe1"/>
            <path id="Trazado_1044654" data-name="Trazado 1044654" d="M151.833,300.833s3.127,1.564,4.931,0" transform="translate(-85.607 -201.031)" fill="none" stroke="#914b60" stroke-linecap="round" stroke-linejoin="round" stroke-miterlimit="10" stroke-width="1"/>
            <path id="Trazado_1044655" data-name="Trazado 1044655" d="M134.625,249.487s2.917-6.158,8.208-2.309" transform="translate(-80.816 -185.742)" fill="none" stroke="#914b60" stroke-linecap="round" stroke-linejoin="round" stroke-miterlimit="10" stroke-width="1"/>
            <path id="Trazado_1044656" data-name="Trazado 1044656" d="M168.133,236.758s3.151-5.172,7.842-2.405" transform="translate(-90.145 -182.297)" fill="none" stroke="#914b60" stroke-linecap="round" stroke-linejoin="round" stroke-miterlimit="10" stroke-width="1"/>
            <path id="Trazado_1044657" data-name="Trazado 1044657" d="M127.5,237.56s3.067-5.38,7.4-5.56" transform="translate(-78.833 -181.869)" fill="none" stroke="#433959" stroke-linecap="round" stroke-linejoin="round" stroke-miterlimit="10" stroke-width="1"/>
            <path id="Trazado_1044658" data-name="Trazado 1044658" d="M163.835,223.761s5.531-2.723,9.68,0" transform="translate(-88.948 -179.238)" fill="none" stroke="#433959" stroke-linecap="round" stroke-linejoin="round" stroke-miterlimit="10" stroke-width="1"/>
            <path id="Trazado_1044659" data-name="Trazado 1044659" d="M83.167,196.667s3.187,4.931,0,15.575" transform="translate(-66.491 -172.032)" fill="none" stroke="#514769" stroke-linecap="round" stroke-linejoin="round" stroke-miterlimit="10" stroke-width="1"/>
            <path id="Trazado_1044660" data-name="Trazado 1044660" d="M119.893,179.333s-1.744,8.78-5.893,13.11c0,0,7.3-6.314,11.225-3.428s-2.566,8.479-2.566,8.479" transform="translate(-75.075 -167.207)" fill="none" stroke="#514769" stroke-linecap="round" stroke-linejoin="round" stroke-miterlimit="10" stroke-width="1"/>
            <path id="Trazado_1044661" data-name="Trazado 1044661" d="M147.678,209.71a5.553,5.553,0,0,0-3.428-6.585" transform="translate(-83.496 -173.83)" fill="none" stroke="#514769" stroke-linecap="round" stroke-linejoin="round" stroke-miterlimit="10" stroke-width="1"/>
            <path id="Trazado_1044662" data-name="Trazado 1044662" d="M156.036,177.333s-5.4,3.909-6.821,7.066c0,0,8.447-4.239,10.551-1.894s-2.67,6.314-2.67,6.314" transform="translate(-84.878 -166.65)" fill="none" stroke="#514769" stroke-linecap="round" stroke-linejoin="round" stroke-miterlimit="10" stroke-width="1"/>
            <path id="Trazado_1044663" data-name="Trazado 1044663" d="M95.134,237.924s-5.713-5.5-11.967-3.739" transform="translate(-66.491 -182.38)" fill="none" stroke="#514769" stroke-linecap="round" stroke-linejoin="round" stroke-miterlimit="10" stroke-width="1"/>
            <path id="Trazado_1044664" data-name="Trazado 1044664" d="M159.217,244.851a7.407,7.407,0,0,1-2.383-5.351" transform="translate(-86.999 -183.957)" fill="none" stroke="#914b60" stroke-linecap="round" stroke-linejoin="round" stroke-miterlimit="10" stroke-width="1"/>
            <g id="Grupo_1183200" data-name="Grupo 1183200" transform="translate(25.816 37.445)">
              <path id="Trazado_1044665" data-name="Trazado 1044665" d="M145.512,237.5c1.043,6.514-2.954,12.57-8.926,13.527s-11.661-3.549-12.7-10.063,2.954-12.571,8.926-13.527S144.469,230.988,145.512,237.5Z" transform="translate(-103.595 -218.009)" fill="none" stroke="#fff" stroke-linecap="round" stroke-linejoin="round" stroke-miterlimit="10" stroke-width="1"/>
              <ellipse id="Elipse_12530" data-name="Elipse 12530" cx="10.953" cy="11.946" rx="10.953" ry="11.946" transform="matrix(0.987, -0.158, 0.158, 0.987, 45.166, 3.463)" fill="none" stroke="#fff" stroke-linecap="round" stroke-linejoin="round" stroke-miterlimit="10" stroke-width="1"/>
              <path id="Trazado_1044666" data-name="Trazado 1044666" d="M153.564,239.17s2.986-2.518,5.735-.919" transform="translate(-111.905 -220.906)" fill="none" stroke="#fff" stroke-linecap="round" stroke-linejoin="round" stroke-miterlimit="10" stroke-width="1"/>
              <line id="Línea_675" data-name="Línea 675" y1="11.763" x2="21.295" transform="translate(0 26.3)" fill="none" stroke="#fff" stroke-linecap="round" stroke-linejoin="round" stroke-miterlimit="10" stroke-width="1"/>
            </g>
            <path id="Trazado_1044667" data-name="Trazado 1044667" d="M158.667,249.181s.962-5.652,4.57-3.969,4.089,6.013,0,8.3" transform="translate(-87.509 -185.46)" fill="none" stroke="#914b60" stroke-linecap="round" stroke-linejoin="round" stroke-miterlimit="10" stroke-width="1"/>
          </g>
          <g id="Grupo_1183202" data-name="Grupo 1183202" transform="translate(0 103.224)">
            <path id="Trazado_1044668" data-name="Trazado 1044668" d="M84.963,322.719l-16.6-5.713s.361-4.811-2.1-6.976c0,0-.842-4.33-5.051-4.39a2.711,2.711,0,0,0-3.346,2.225s-7.057-3.488-8.5-1.082a6.952,6.952,0,0,0-.9,4.75s-4.048,2.946-.1,7.036c0,0-2.817,4.149,1.079,6.325,0,0,2.329,8.167,13.814,8.107,0,0,16.3,15.184,25.226,15,0,0,6.905-.815,10.263-6.09C98.743,341.916,93.622,329.365,84.963,322.719Z" transform="translate(-46.632 -305.575)" fill="#d99ca2"/>
            <path id="Trazado_1044669" data-name="Trazado 1044669" d="M113.531,348.53s-5.121-12.552-13.781-19.2c0,0,7.145,12.627,8.363,23.789A12.848,12.848,0,0,0,113.531,348.53Z" transform="translate(-61.419 -312.189)" fill="#af6781"/>
            <path id="Trazado_1044670" data-name="Trazado 1044670" d="M61.954,308.75s-2.066,6.074,1.3,8.6,4.931-4.3,4.931-4.3" transform="translate(-50.723 -306.459)" fill="none" stroke="#914b60" stroke-linecap="round" stroke-linejoin="round" stroke-miterlimit="10" stroke-width="1"/>
            <path id="Trazado_1044671" data-name="Trazado 1044671" d="M49.167,313.833s6.756.26,8.776.912" transform="translate(-47.338 -307.874)" fill="none" stroke="#914b60" stroke-linecap="round" stroke-linejoin="round" stroke-miterlimit="10" stroke-width="1"/>
            <path id="Trazado_1044672" data-name="Trazado 1044672" d="M49.029,322.82a77.907,77.907,0,0,1,10.172.932c4.51.812,3.26-2.909,3.26-2.909" transform="translate(-47.299 -309.826)" fill="none" stroke="#914b60" stroke-linecap="round" stroke-linejoin="round" stroke-miterlimit="10" stroke-width="1"/>
            <path id="Trazado_1044673" data-name="Trazado 1044673" d="M62.368,325.035s2.8,3.673,0,4.846-8.118,0-8.118,0" transform="translate(-48.753 -310.993)" fill="none" stroke="#914b60" stroke-linecap="round" stroke-linejoin="round" stroke-miterlimit="10" stroke-width="1"/>
            <path id="Trazado_1044674" data-name="Trazado 1044674" d="M63,332.354a9,9,0,0,1,5.654,1.891" transform="translate(-51.188 -313.029)" fill="none" stroke="#914b60" stroke-linecap="round" stroke-linejoin="round" stroke-miterlimit="10" stroke-width="1"/>
            <line id="Línea_676" data-name="Línea 676" y2="3.488" transform="translate(21.734 11.432)" fill="none" stroke="#914b60" stroke-linecap="round" stroke-linejoin="round" stroke-miterlimit="10" stroke-width="1"/>
          </g>
        </g>
        <g id="Grupo_1183210" data-name="Grupo 1183210" transform="translate(152.704 98.829)">
          <g id="Grupo_1183204" data-name="Grupo 1183204" transform="translate(60.766 164.252)">
            <path id="Trazado_1044675" data-name="Trazado 1044675" d="M438.277,417.27s4.069-5.455,8.713-4.007,12.464,20.913,9.052,23.306-10.534-4.676-10.534-4.676Z" transform="translate(-369.131 -391.529)" fill="#00a979"/>
            <path id="Trazado_1044676" data-name="Trazado 1044676" d="M379.492,433.513l8.941,11.829s4.166,6.638,14.243,4.364,26.467-16.174,26.467-16.174l-7.231-14.623-19.668,5.538Z" transform="translate(-352.766 -393.169)" fill="#c3838f"/>
            <path id="Trazado_1044677" data-name="Trazado 1044677" d="M441,433.533s0-10.715-7.231-14.623L422.1,422.2c1.571,3.1,6.136,12.568,7.249,20.08A145.357,145.357,0,0,0,441,433.533Z" transform="translate(-364.626 -393.169)" fill="#f8ffe1"/>
            <path id="Trazado_1044678" data-name="Trazado 1044678" d="M408.032,424.326l-5.788,1.629-22.752,9.066,6.793,8.988C399.183,440.621,407.078,426.157,408.032,424.326Z" transform="translate(-352.766 -394.677)" fill="#af6781"/>
            <path id="Trazado_1044679" data-name="Trazado 1044679" d="M342.455,396.58l23.862,33.385s23.156-4.207,31.506-17.275l-12.094-29.451Z" transform="translate(-342.455 -383.239)" fill="#ae8a7d"/>
            <path id="Trazado_1044680" data-name="Trazado 1044680" d="M386.19,389.225l-2.425-4.952-41.31,12.6,20.728,29C384.171,418.046,386.19,389.225,386.19,389.225Z" transform="translate(-342.455 -383.527)" fill="#7c6077"/>
          </g>
          <g id="Grupo_1183205" data-name="Grupo 1183205" transform="translate(1.951 163.109)">
            <path id="Trazado_1044681" data-name="Trazado 1044681" d="M311.667,409.515a35.352,35.352,0,0,0,11.118,20.445c10.049,9.381,20.22,6.495,20.22,6.495l7.495-4.732-29.9-28.65Z" transform="translate(-275.069 -387.618)" fill="#7c6077"/>
            <path id="Trazado_1044682" data-name="Trazado 1044682" d="M322.13,405.667,278.4,438.621l7.6,17.078s17.345-7.7,24.7-13.951,20.821-6.736,32.848-17.8Z" transform="translate(-265.808 -388.34)" fill="#c3838f"/>
            <path id="Trazado_1044683" data-name="Trazado 1044683" d="M334.444,405.667l-11.811,8.9h0s10.548,8.817,13.558,20.663c6.172-2.386,13.128-5.273,19.66-11.282Z" transform="translate(-278.122 -388.34)" fill="#af6781"/>
            <path id="Trazado_1044684" data-name="Trazado 1044684" d="M291.565,437.583,278.4,447.505l7.6,17.078a189.366,189.366,0,0,0,17.658-9.086C301.332,448.419,294.922,441.084,291.565,437.583Z" transform="translate(-265.807 -397.225)" fill="#f8ffe1"/>
            <path id="Trazado_1044685" data-name="Trazado 1044685" d="M332.353,388.639l-20.686,14.914s23.949,7.456,31.338,26.94c0,0,42.027-23.348,36.734-48.837Z" transform="translate(-275.069 -381.656)" fill="#fae0b3"/>
            <path id="Trazado_1044686" data-name="Trazado 1044686" d="M338.985,388.639l-3.494,2.519s32.447,6.47,51.256-3.1a22.285,22.285,0,0,0-.375-6.4Z" transform="translate(-281.701 -381.656)" fill="#ae8a7d"/>
            <path id="Trazado_1044687" data-name="Trazado 1044687" d="M311.667,432.821a11.721,11.721,0,0,0,5.652-1.327" transform="translate(-275.069 -395.53)" fill="none" stroke="#914b60" stroke-linecap="round" stroke-linejoin="round" stroke-miterlimit="10" stroke-width="1"/>
            <path id="Trazado_1044688" data-name="Trazado 1044688" d="M273.541,448.731s-8.466-8.9-11.593-6.254,1.731,25.5,5.8,27.181,13.392-3.848,13.392-3.848Z" transform="translate(-260.95 -398.451)" fill="#00a979"/>
            <path id="Trazado_1044689" data-name="Trazado 1044689" d="M261.948,442.644c-3.127,2.646,1.731,25.5,5.8,27.181a5.528,5.528,0,0,0,2.547.285c-1.819-17.979-5.694-24.885-8.26-27.524C262.005,442.606,261.975,442.621,261.948,442.644Z" transform="translate(-260.95 -398.618)" fill="#235435"/>
            <path id="Trazado_1044690" data-name="Trazado 1044690" d="M389.965,411.79s-5.851-9.316.222-18.457" transform="translate(-296.16 -384.907)" fill="none" stroke="#ae8a7d" stroke-linecap="round" stroke-linejoin="round" stroke-miterlimit="10" stroke-width="1"/>
          </g>
          <g id="Grupo_1183206" data-name="Grupo 1183206" transform="translate(13.893 97.474)">
            <path id="Trazado_1044691" data-name="Trazado 1044691" d="M421.527,300.427s6.119,6.254,4.074,20.686-10.223,15.932-10.223,15.932l-5.931-.7,4-36.537Z" transform="translate(-314.232 -293.235)" fill="#235435"/>
            <path id="Trazado_1044692" data-name="Trazado 1044692" d="M282.191,339.667A6.849,6.849,0,0,0,277.5,346.4c0,5.412,2.706,17.3,35.449,14.24l.324-19.321S293.736,339.787,282.191,339.667Z" transform="translate(-277.5 -304.332)" fill="#235435"/>
            <path id="Trazado_1044693" data-name="Trazado 1044693" d="M328.62,302.879s-11.907-.9-17.92,3.549-21.408,21.047-26.7,21.047c0,0,25.256,5.292,31.029,16.6l-1.308,21.167s18.386,6.735,37.389,2.405,26.218-9.141,26.218-9.141l-11.546-24.295,14.673,1.74s-4.54-17.615,6.149-36.618c0,0-15.32-.924-29.342-3.157C344.616,294.16,328.62,302.879,328.62,302.879Z" transform="translate(-279.31 -292.14)" fill="#00a979"/>
            <path id="Trazado_1044694" data-name="Trazado 1044694" d="M330.625,297.411l6.043,5.051s-6.785,10.584,6.109,12.989S357.6,297.219,354.469,290.7Z" transform="translate(-292.289 -290.7)" fill="#c3838f"/>
            <path id="Trazado_1044695" data-name="Trazado 1044695" d="M355.68,300.661c.317-3.975-.159-7.767-1.212-9.96l-23.844,6.711S339.917,304.492,355.68,300.661Z" transform="translate(-292.289 -290.7)" fill="#af6781"/>
            <line id="Línea_677" data-name="Línea 677" x2="6.109" y2="5.051" transform="translate(44.379 11.762)" fill="none" stroke="#914b60" stroke-linecap="round" stroke-linejoin="round" stroke-miterlimit="10" stroke-width="1"/>
            <path id="Trazado_1044696" data-name="Trazado 1044696" d="M326.771,351.021s.121-6.735,0-10.945-1.308-13.831.053-19.243" transform="translate(-291.051 -299.089)" fill="none" stroke="#235435" stroke-linecap="round" stroke-linejoin="round" stroke-miterlimit="10" stroke-width="1"/>
            <path id="Trazado_1044697" data-name="Trazado 1044697" d="M393.775,344.635a56.272,56.272,0,0,1-9.222-11.313" transform="translate(-307.302 -302.565)" fill="none" stroke="#235435" stroke-linecap="round" stroke-linejoin="round" stroke-miterlimit="10" stroke-width="1"/>
            <path id="Trazado_1044698" data-name="Trazado 1044698" d="M378.667,303.941s.38-5.634,3.257-7.928" transform="translate(-305.664 -292.179)" fill="none" stroke="#235435" stroke-linecap="round" stroke-linejoin="round" stroke-miterlimit="10" stroke-width="1"/>
            <path id="Trazado_1044699" data-name="Trazado 1044699" d="M412.9,299.8s-8.725,18.631-4,36.537" transform="translate(-313.691 -293.235)" fill="none" stroke="#235435" stroke-linecap="round" stroke-linejoin="round" stroke-miterlimit="10" stroke-width="1"/>
            <path id="Trazado_1044700" data-name="Trazado 1044700" d="M293.727,334.47s17.065,3.822,22.7,13.287" transform="translate(-282.017 -302.885)" fill="none" stroke="#235435" stroke-linecap="round" stroke-linejoin="round" stroke-miterlimit="10" stroke-width="1"/>
          </g>
          <g id="Grupo_1183207" data-name="Grupo 1183207" transform="translate(0)">
            <path id="Trazado_1044701" data-name="Trazado 1044701" d="M278.229,237.209s-3.563-10.644-14.387-4.871-5.457,29.767,11.907,27.241Z" transform="translate(-258.247 -176.501)" fill="#af6781"/>
            <path id="Trazado_1044702" data-name="Trazado 1044702" d="M268.744,242.443A8.05,8.05,0,0,1,273.078,241c3.969,0,5.592,4.885,5.592,4.885" transform="translate(-261.169 -179.39)" fill="none" stroke="#914b60" stroke-linecap="round" stroke-linejoin="round" stroke-miterlimit="10" stroke-width="1"/>
            <path id="Trazado_1044703" data-name="Trazado 1044703" d="M281.016,219.577s-8.84-7.216-4.51-19.664c0,0-7.577-3.428-7.757-10.463s5.232-11.546,9.922-10.824c0,0-4.69-12.087,4.69-16.056s17.229,3.969,17.229,3.969,4.684-12.087,15.466-10.824,11,11,11,11,6.093-7.216,13.85-5.592,10.644,7.4,10.1,11c0,0,8.847-2.165,13.353,2.526a13.789,13.789,0,0,1,3.785,10.463s12.809-1.984,14.071,9.2-6.495,19.844-15.7,18.4c0,0,.722,16.778-7.938,20.865Z" transform="translate(-261.169 -155.622)" fill="#4a303e"/>
            <path id="Trazado_1044704" data-name="Trazado 1044704" d="M288.574,210.567s-9.2,14.432-8.118,32.473c0,0-13.35,25.257,27.963,33.735,0,0,30.308,4.51,43.658-14.252,0,0,15.154,10.1,23.452.361s6.495-21.468,0-24.9-15.334-.541-19.484,9.02c0,0-9.381-.722-9.2-17.86,0,0-12.628-2.345-15.515-15.154,0,0-12.267,7.036-21.648-6.495C309.682,207.5,302.646,218.685,288.574,210.567Z" transform="translate(-263.857 -170.064)" fill="#c3838f"/>
            <path id="Trazado_1044705" data-name="Trazado 1044705" d="M355.753,229.148s-12.628-2.345-15.515-15.154c0,0-12.267,7.036-21.648-6.495a14.3,14.3,0,0,1-8.192,5.65,18.172,18.172,0,0,0,7.328-.237s10.136,8.178,19.421,6.254a29.062,29.062,0,0,0,18.787,14.325A39.378,39.378,0,0,1,355.753,229.148Z" transform="translate(-272.765 -170.064)" fill="#af6781"/>
            <path id="Trazado_1044706" data-name="Trazado 1044706" d="M404.6,267.02s3.969-9.02-3.247-9.02-10.1,7.831-10.1,7.831,6.855.648,4.509,6.782" transform="translate(-295.273 -184.123)" fill="none" stroke="#914b60" stroke-linecap="round" stroke-linejoin="round" stroke-miterlimit="10" stroke-width="1"/>
            <path id="Trazado_1044707" data-name="Trazado 1044707" d="M319.5,263.71s10.824-2.591,12.989-7.881c0,0,13.006,13.492,5.232,21.231a13.4,13.4,0,0,1-10.644,3.789S325.634,273.993,319.5,263.71Z" transform="translate(-275.299 -183.518)" fill="#4a303e"/>
            <path id="Trazado_1044708" data-name="Trazado 1044708" d="M343.18,268.224c-4.11.578-7.3,4.875-7.3,10.1a11.9,11.9,0,0,0,1.243,5.349,12.963,12.963,0,0,0,5.162-3.159C345.807,277,345.052,272.306,343.18,268.224Z" transform="translate(-279.857 -186.969)" fill="#ff6f89"/>
            <path id="Trazado_1044709" data-name="Trazado 1044709" d="M325.394,267.138s8.529-1.91,11.764-6.847a38.441,38.441,0,0,0-3.556-4.461c-1.444,3.527-6.736,5.853-10.1,7.013Z" transform="translate(-276.412 -183.518)" fill="#f8ffe1"/>
            <ellipse id="Elipse_12531" data-name="Elipse 12531" cx="2.075" cy="2.345" rx="2.075" ry="2.345" transform="translate(27.334 64.947)" fill="#4a303e"/>
            <path id="Trazado_1044710" data-name="Trazado 1044710" d="M335.632,245.5a2.5,2.5,0,1,1-2.5-2.5A2.5,2.5,0,0,1,335.632,245.5Z" transform="translate(-278.396 -179.947)" fill="#4a303e"/>
            <path id="Trazado_1044711" data-name="Trazado 1044711" d="M302.42,259.2s-2.075-2.616-.722-4.6,4.691-1.894,7.938.992" transform="translate(-270.215 -182.8)" fill="none" stroke="#914b60" stroke-linecap="round" stroke-linejoin="round" stroke-miterlimit="10" stroke-width="1"/>
            <path id="Trazado_1044712" data-name="Trazado 1044712" d="M308.154,250.382s4.579-3.726,4.579-8.507" transform="translate(-272.14 -179.634)" fill="none" stroke="#914b60" stroke-linecap="round" stroke-linejoin="round" stroke-miterlimit="10" stroke-width="1"/>
            <path id="Trazado_1044713" data-name="Trazado 1044713" d="M312.875,264.161s13.26-.7,17.77-8.332" transform="translate(-273.454 -183.518)" fill="none" stroke="#914b60" stroke-linecap="round" stroke-linejoin="round" stroke-miterlimit="10" stroke-width="1"/>
            <path id="Trazado_1044714" data-name="Trazado 1044714" d="M325.188,289.436s9.593.843,13.163-2.994" transform="translate(-276.882 -192.04)" fill="none" stroke="#914b60" stroke-linecap="round" stroke-linejoin="round" stroke-miterlimit="10" stroke-width="1"/>
            <path id="Trazado_1044715" data-name="Trazado 1044715" d="M337.563,294.943a11.009,11.009,0,0,0,5.969-1.443" transform="translate(-280.327 -194.005)" fill="none" stroke="#914b60" stroke-linecap="round" stroke-linejoin="round" stroke-miterlimit="10" stroke-width="1"/>
            <path id="Trazado_1044716" data-name="Trazado 1044716" d="M295.125,229.29a11.177,11.177,0,0,1,9.4-2.736" transform="translate(-268.513 -175.317)" fill="none" stroke="#4a303e" stroke-linecap="round" stroke-linejoin="round" stroke-miterlimit="10" stroke-width="1"/>
            <path id="Trazado_1044717" data-name="Trazado 1044717" d="M329.5,227.833s5.773.481,9.524,3.729" transform="translate(-278.083 -175.724)" fill="none" stroke="#4a303e" stroke-linecap="round" stroke-linejoin="round" stroke-miterlimit="10" stroke-width="1"/>
            <path id="Trazado_1044718" data-name="Trazado 1044718" d="M290.76,208.618a16,16,0,0,1-4.51-8.118" transform="translate(-266.042 -168.115)" fill="none" stroke="#7c6077" stroke-linecap="round" stroke-linejoin="round" stroke-miterlimit="10" stroke-width="1"/>
            <path id="Trazado_1044719" data-name="Trazado 1044719" d="M373.25,236.429s7.4,1.894,11.537-2.777" transform="translate(-290.262 -177.344)" fill="none" stroke="#7c6077" stroke-linecap="round" stroke-linejoin="round" stroke-miterlimit="10" stroke-width="1"/>
            <path id="Trazado_1044720" data-name="Trazado 1044720" d="M380.875,225.5s4.216,7.8,11.275,6.675c7.938-1.263,7.577-6.675,7.577-6.675" transform="translate(-292.385 -175.075)" fill="none" stroke="#7c6077" stroke-linecap="round" stroke-linejoin="round" stroke-miterlimit="10" stroke-width="1"/>
            <path id="Trazado_1044721" data-name="Trazado 1044721" d="M381.482,178.5s.281,4.72-3.287,7.231" transform="translate(-291.639 -161.991)" fill="none" stroke="#7c6077" stroke-linecap="round" stroke-linejoin="round" stroke-miterlimit="10" stroke-width="1"/>
            <path id="Trazado_1044722" data-name="Trazado 1044722" d="M312.612,170.75a25.031,25.031,0,0,0,0,11.546" transform="translate(-273.192 -159.833)" fill="none" stroke="#7c6077" stroke-linecap="round" stroke-linejoin="round" stroke-miterlimit="10" stroke-width="1"/>
            <path id="Trazado_1044723" data-name="Trazado 1044723" d="M321.083,204.995a8.69,8.69,0,0,1-1.624-6.495" transform="translate(-275.258 -167.559)" fill="none" stroke="#7c6077" stroke-linecap="round" stroke-linejoin="round" stroke-miterlimit="10" stroke-width="1"/>
            <path id="Trazado_1044724" data-name="Trazado 1044724" d="M282.5,187.5a8.411,8.411,0,0,0,4.961,3.788" transform="translate(-264.999 -164.496)" fill="none" stroke="#7c6077" stroke-linecap="round" stroke-linejoin="round" stroke-miterlimit="10" stroke-width="1"/>
            <path id="Trazado_1044725" data-name="Trazado 1044725" d="M384.553,242.438s10.154-1.624,14.078-1.443" transform="translate(-293.409 -179.385)" fill="none" stroke="#7c6077" stroke-linecap="round" stroke-linejoin="round" stroke-miterlimit="10" stroke-width="1"/>
            <line id="Línea_678" data-name="Línea 678" y1="0.767" x2="6.129" transform="translate(89.848 67.293)" fill="none" stroke="#7c6077" stroke-linecap="round" stroke-linejoin="round" stroke-miterlimit="10" stroke-width="1"/>
          </g>
          <g id="Grupo_1183208" data-name="Grupo 1183208" transform="translate(18.341 131.439)">
            <path id="Trazado_1044726" data-name="Trazado 1044726" d="M357.157,350.6s5.043,4.968,3.134,7.959-6.44-1.938-6.44-1.938Z" transform="translate(-303.203 -341.341)" fill="#914b60"/>
            <path id="Trazado_1044727" data-name="Trazado 1044727" d="M292.571,341.529s-12.392,8.794-7.943,22.024,31.33.481,32.924-2.766c0,0,6.235,4.57,12.153.842,0,0,1.468,2.285,4.715.842s3.969-3.608,2.405-5.773a4.741,4.741,0,0,0,.793-6.495s3.657-1.925,2.935-4.811-5.533-9.02-11.546-7.337-11.456,7.1-11.456,7.1L305.69,347.17S297.626,342.357,292.571,341.529Z" transform="translate(-283.664 -337.768)" fill="#c3838f"/>
            <path id="Trazado_1044728" data-name="Trazado 1044728" d="M288.925,348.264a34.578,34.578,0,0,1,18.229.358s-8.063-4.814-13.12-5.641A24.683,24.683,0,0,0,288.925,348.264Z" transform="translate(-285.128 -339.22)" fill="#af6781"/>
            <path id="Trazado_1044729" data-name="Trazado 1044729" d="M308.916,350.788s-11.681-.575-13.666,4.115" transform="translate(-286.889 -341.387)" fill="none" stroke="#914b60" stroke-linecap="round" stroke-linejoin="round" stroke-miterlimit="10" stroke-width="1"/>
            <line id="Línea_679" data-name="Línea 679" x1="5.611" y1="3.094" transform="translate(47.55 15.835)" fill="none" stroke="#914b60" stroke-linecap="round" stroke-linejoin="round" stroke-miterlimit="10" stroke-width="1"/>
            <line id="Línea_680" data-name="Línea 680" x1="5.724" y1="3.055" transform="translate(48.23 9.379)" fill="none" stroke="#914b60" stroke-linecap="round" stroke-linejoin="round" stroke-miterlimit="10" stroke-width="1"/>
            <line id="Línea_681" data-name="Línea 681" y1="1.864" x2="1.509" transform="translate(46.041 21.996)" fill="none" stroke="#914b60" stroke-linecap="round" stroke-linejoin="round" stroke-miterlimit="10" stroke-width="1"/>
          </g>
          <g id="Grupo_1183209" data-name="Grupo 1183209" transform="translate(114.005 77.963)">
            <path id="Trazado_1044730" data-name="Trazado 1044730" d="M416.311,317.138l12.983,1.37s8.178.481,12.749-8.659,4.57-21.127,4.57-21.127,4.931-1,7.7-7.738c0,0,3.969-.6,2.887-5.412a3.706,3.706,0,0,0,.187-5.412c-2.592-3.007-7.4-4.57-11.372-2.165,0,0,0-4.212-3.969-4.331s-.361,3.489-2.285,6.015-4.69,5.533-5.051,12.267c0,0-8.539,9.735-9.742,12.324l-3.352-.416S415.475,304.7,416.311,317.138Z" transform="translate(-416.233 -263.661)" fill="#c3838f"/>
            <path id="Trazado_1044731" data-name="Trazado 1044731" d="M458.008,286.861s-6.494.992-7.757-1.624,1.443-4.69,3.879-4.871,10.644.6,9.561,5.262" transform="translate(-425.614 -268.305)" fill="none" stroke="#914b60" stroke-linecap="round" stroke-linejoin="round" stroke-miterlimit="10" stroke-width="1"/>
            <path id="Trazado_1044732" data-name="Trazado 1044732" d="M452.6,279.475s-1.414-3.008,2.194-4.181,9.2-.572,12.448,3.368" transform="translate(-426.282 -266.751)" fill="none" stroke="#914b60" stroke-linecap="round" stroke-linejoin="round" stroke-miterlimit="10" stroke-width="1"/>
            <path id="Trazado_1044733" data-name="Trazado 1044733" d="M454.236,274.332s-1.318-2.38,2.29-4.665" transform="translate(-426.747 -265.333)" fill="none" stroke="#914b60" stroke-linecap="round" stroke-linejoin="round" stroke-miterlimit="10" stroke-width="1"/>
            <line id="Línea_682" data-name="Línea 682" x1="3.126" y2="0.531" transform="translate(27.254 25.06)" fill="none" stroke="#914b60" stroke-linecap="round" stroke-linejoin="round" stroke-miterlimit="10" stroke-width="1"/>
            <path id="Trazado_1044734" data-name="Trazado 1044734" d="M427.186,306.078s-3.307,4.815-2.946,9.866" transform="translate(-418.454 -275.469)" fill="none" stroke="#914b60" stroke-linecap="round" stroke-linejoin="round" stroke-miterlimit="10" stroke-width="1"/>
          </g>
        </g>
        <g id="Grupo_1183218" data-name="Grupo 1183218" transform="translate(307.845 110.408)">
          <g id="Grupo_1183211" data-name="Grupo 1183211" transform="translate(103.577 157.191)">
            <path id="Trazado_1044735" data-name="Trazado 1044735" d="M669.263,410.9l3.9-.9s6.2.722,6.02,10.644-2.342,15.645-4.959,15.58-7.522-13.112-7.522-13.112Z" transform="translate(-630.674 -395.207)" fill="#ff6f89"/>
            <path id="Trazado_1044736" data-name="Trazado 1044736" d="M616.907,402.389s-2.5,31.009,14.1,31.7,27.421-15.02,27.421-15.02,3.247-10.808-3.067-13.875l-9.02,1.276s3.608-10.116.361-16.971Z" transform="translate(-616.774 -389.5)" fill="#424082"/>
            <path id="Trazado_1044737" data-name="Trazado 1044737" d="M647.82,393.254A13.8,13.8,0,0,0,646.7,389.5l-29.8,12.889a68.739,68.739,0,0,0,.073,9.676c3.708-.824,10.446-2.78,15.652-6.871C640.209,399.242,647.82,393.254,647.82,393.254Z" transform="translate(-616.774 -389.5)" fill="#201e5d"/>
            <path id="Trazado_1044738" data-name="Trazado 1044738" d="M669.837,425.125s3.247-10.808-3.067-13.875l-9.02,1.276s5.672,9.929,3.3,21.364A41.851,41.851,0,0,0,669.837,425.125Z" transform="translate(-628.181 -395.555)" fill="#d99ca2"/>
          </g>
          <g id="Grupo_1183212" data-name="Grupo 1183212" transform="translate(36.985 160.944)">
            <path id="Trazado_1044739" data-name="Trazado 1044739" d="M567,394.7s-16.357,24.75-23.753,44.233l11.876,14.914s17.529-20.334,20.9-26.042,22.25-23.969,22.25-23.969Z" transform="translate(-529.713 -394.702)" fill="#424082"/>
            <path id="Trazado_1044740" data-name="Trazado 1044740" d="M570.335,401.344a53.328,53.328,0,0,0,24.354,13.64c5.6-5.807,11.124-11.147,11.124-11.147l-31.27-9.136S572.86,397.251,570.335,401.344Z" transform="translate(-537.253 -394.702)" fill="#201e5d"/>
            <path id="Trazado_1044741" data-name="Trazado 1044741" d="M554.925,463.809s8.366-9.7,14.649-17.587c-3.608-10.954-12.682-14.562-17.988-15.743a193.187,193.187,0,0,0-9.058,19.62Z" transform="translate(-529.512 -404.662)" fill="#d99ca2"/>
            <path id="Trazado_1044742" data-name="Trazado 1044742" d="M550.523,470.268a16.947,16.947,0,0,0-7.366-11.666c-4.662-3.024-15.274-7.337-18.281-3.247s12.339,18.4,20.962,18.04C545.838,473.394,550.072,473.394,550.523,470.268Z" transform="translate(-524.491 -411.121)" fill="#ff6f89"/>
            <path id="Trazado_1044743" data-name="Trazado 1044743" d="M545.84,474.07a6.856,6.856,0,0,0,3.138-.849c-1.111-4.123-6.607-9.554-12.811-13.583-6.026-3.913-9.674-3.8-11.488-3.248C522.708,460.891,537.451,474.421,545.84,474.07Z" transform="translate(-524.493 -411.796)" fill="#9a408f"/>
          </g>
          <g id="Grupo_1183213" data-name="Grupo 1183213" transform="translate(33.314 92.129)">
            <path id="Trazado_1044744" data-name="Trazado 1044744" d="M519.409,336.927s-.528,9.586,9.325,17.92c7.607,6.435,10.592,3.729,10.592,3.729l3.361-3-18.233-21.434Z" transform="translate(-519.404 -309.028)" fill="#9a408f"/>
            <path id="Trazado_1044745" data-name="Trazado 1044745" d="M549.886,302.817s-7.68,7.282-12.912,12.694-17.563,11.726-17.563,11.726,19.383,9.02,19.917,21.648l14.217-12.674,2.282,3.473-5.94,7.757a44.588,44.588,0,0,1,14.329,8.479l-9.2,17.68s13.53,11.365,30.308,11,25.617-15.334,40.23-16.6c0,0-6.615-48.348-48.709-68.669Z" transform="translate(-519.406 -299.339)" fill="#ff6f89"/>
            <path id="Trazado_1044746" data-name="Trazado 1044746" d="M563.167,306.294c.962.361,6.254,5.412,6.254,5.412a17.024,17.024,0,0,0,3.848,9.862s10.4-5.893,11.394-18.4Z" transform="translate(-531.587 -300.405)" fill="#d99ca2"/>
            <path id="Trazado_1044747" data-name="Trazado 1044747" d="M563.172,306.3a12.951,12.951,0,0,1,2.164,1.666h0a53.547,53.547,0,0,0,17.787,1.84,22.777,22.777,0,0,0,1.539-6.636l-21.495,3.127Z" transform="translate(-531.587 -300.405)" fill="#af6781"/>
            <line id="Línea_683" data-name="Línea 683" x2="6.254" y2="4.57" transform="translate(34.707 8.535)" fill="none" stroke="#af6781" stroke-linecap="round" stroke-linejoin="round" stroke-miterlimit="10" stroke-width="1"/>
            <path id="Trazado_1044748" data-name="Trazado 1044748" d="M561.643,366a28.081,28.081,0,0,0,13.126,17.078c10.824,6.134,11.907,2.646,11.907,2.646A50.825,50.825,0,0,0,561.643,366Z" transform="translate(-531.163 -317.897)" fill="#9a408f"/>
            <line id="Línea_684" data-name="Línea 684" y1="12.909" x2="11.129" transform="translate(36.42 27.437)" fill="none" stroke="#9a408f" stroke-linecap="round" stroke-linejoin="round" stroke-miterlimit="10" stroke-width="1"/>
            <path id="Trazado_1044749" data-name="Trazado 1044749" d="M596.333,379.913a61.576,61.576,0,0,0,16.718-34.788" transform="translate(-540.82 -312.085)" fill="none" stroke="#9a408f" stroke-linecap="round" stroke-linejoin="round" stroke-miterlimit="10" stroke-width="1"/>
            <line id="Línea_685" data-name="Línea 685" y1="5.997" x2="6.065" transform="translate(70.397 36.032)" fill="none" stroke="#9a408f" stroke-linecap="round" stroke-linejoin="round" stroke-miterlimit="10" stroke-width="1"/>
            <path id="Trazado_1044750" data-name="Trazado 1044750" d="M608.4,376.311a16.969,16.969,0,0,0,11.742,0c6.254-2.36,9.982-3.2,12.749-2.842" transform="translate(-544.178 -319.954)" fill="none" stroke="#9a408f" stroke-linecap="round" stroke-linejoin="round" stroke-miterlimit="10" stroke-width="1"/>
            <line id="Línea_686" data-name="Línea 686" x1="5.204" y1="6.491" transform="translate(28.934 30.382)" fill="none" stroke="#9a408f" stroke-linecap="round" stroke-linejoin="round" stroke-miterlimit="10" stroke-width="1"/>
            <path id="Trazado_1044751" data-name="Trazado 1044751" d="M577.167,321.388s10.343-3.007,19.6,2.526c0,0,2.3-14.406-1.434-21.394" transform="translate(-535.484 -300.224)" fill="none" stroke="#9a408f" stroke-linecap="round" stroke-linejoin="round" stroke-miterlimit="10" stroke-width="1"/>
            <path id="Trazado_1044752" data-name="Trazado 1044752" d="M557.134,309.533,551,321.055a17.392,17.392,0,0,1,18.882,2.285" transform="translate(-528.2 -302.177)" fill="none" stroke="#9a408f" stroke-linecap="round" stroke-linejoin="round" stroke-miterlimit="10" stroke-width="1"/>
            <path id="Trazado_1044753" data-name="Trazado 1044753" d="M528.99,332.61s17.867,6.643,18.138,20.961" transform="translate(-522.073 -308.601)" fill="none" stroke="#9a408f" stroke-linecap="round" stroke-linejoin="round" stroke-miterlimit="10" stroke-width="1"/>
            <path id="Trazado_1044754" data-name="Trazado 1044754" d="M566.712,359.381s20.212,3.456,25.905,19.27" transform="translate(-532.574 -316.054)" fill="none" stroke="#9a408f" stroke-linecap="round" stroke-linejoin="round" stroke-miterlimit="10" stroke-width="1"/>
          </g>
          <g id="Grupo_1183214" data-name="Grupo 1183214" transform="translate(18.229)">
            <path id="Trazado_1044755" data-name="Trazado 1044755" d="M612.62,194.236s14.947-9.83,26.974-5.173,19,17.405,14.432,27.989a206.942,206.942,0,0,1-9.141,18.582s8.6-1.2,10.552-5.563c0,0,4.12,19.012-14.642,22.841s-27.542-2.357-27.542-2.357Z" transform="translate(-530.269 -176.162)" fill="#faf492"/>
            <path id="Trazado_1044756" data-name="Trazado 1044756" d="M616.815,193.509a41.578,41.578,0,0,0-4.2,2.314l.612,54.273c1.069-1.248,2.153-2.521,3.27-3.846C641.587,216.483,622.035,197.7,616.815,193.509Z" transform="translate(-530.268 -177.748)" fill="#f5c05b"/>
            <path id="Trazado_1044757" data-name="Trazado 1044757" d="M612.3,196.715s17.606,10.068,6.458,31.957L604,202.694Z" transform="translate(-527.869 -178.641)" fill="#d064a5"/>
            <path id="Trazado_1044758" data-name="Trazado 1044758" d="M586.943,171.668l12.342,1.769s4.343,2.647,1.57,9.743a99.329,99.329,0,0,1-7.3,14.292l-8.058-1.751Z" transform="translate(-522.719 -171.668)" fill="#ff6f89"/>
            <path id="Trazado_1044759" data-name="Trazado 1044759" d="M584.448,195.721s-6.134-20.566,0-23.693S589.981,186.941,584.448,195.721Z" transform="translate(-521.667 -171.668)" fill="#9a408f"/>
            <path id="Trazado_1044760" data-name="Trazado 1044760" d="M616.721,179.93a24.586,24.586,0,0,1,5.158,8.829,5.806,5.806,0,0,1-2.988,6.874l-17.141,8.522-10.584-8.178Z" transform="translate(-524.296 -173.968)" fill="#ff6f89"/>
            <path id="Trazado_1044761" data-name="Trazado 1044761" d="M591.167,195.513s11.546-19.243,23.332-17.078S591.167,195.513,591.167,195.513Z" transform="translate(-524.297 -173.504)" fill="#9a408f"/>
            <path id="Trazado_1044762" data-name="Trazado 1044762" d="M516.8,253.627s-2.405-12.359-12.147-9.021-8.909,30.639,9.678,26.791Z" transform="translate(-498.499 -191.814)" fill="#af6781"/>
            <path id="Trazado_1044763" data-name="Trazado 1044763" d="M504.61,254.844s1.751-3.083,5.283-1.064,5.08,9.057,5.08,9.057" transform="translate(-500.2 -194.336)" fill="none" stroke="#914b60" stroke-linecap="round" stroke-linejoin="round" stroke-miterlimit="10" stroke-width="1"/>
            <path id="Trazado_1044764" data-name="Trazado 1044764" d="M515.057,231.748c-3.664,13.509,3.827,21.109,3.827,21.109a83.586,83.586,0,0,1,2.9-18.729A22.439,22.439,0,0,1,515.057,231.748Z" transform="translate(-502.828 -188.393)" fill="#faf492"/>
            <path id="Trazado_1044765" data-name="Trazado 1044765" d="M561.28,196.758s1.8-15.876-13.891-16.778-25.256,10.644-25.256,10.644-9.381,12.087-23.633,2.706c0,0-.541,30.488,29.767,26.519s28.684-11.185,28.684-11.185,1.443,19.664,20.205,22.911l3.067,8.778s4.691-12.026,14.432-12.747c0,0-1.64-23.11-15.876-31.21C568.316,190.444,561.28,196.758,561.28,196.758Z" transform="translate(-498.499 -173.968)" fill="#faf492"/>
            <path id="Trazado_1044766" data-name="Trazado 1044766" d="M598.808,238.753c-9.742.722-14.432,12.747-14.432,12.747l-3.067-8.778c-17.818-3.084-20.015-20.961-20.191-22.754.027,1.072-1.021,7.4-28.7,11.028a34.093,34.093,0,0,1-10.807-.147,83.649,83.649,0,0,0-2.9,18.729s-11.907,12.444,0,25.165,56.827,15.355,68.553-3.732l1.624-3.031s7.216,5.773,14.793.541S614.5,241.1,598.808,238.753Z" transform="translate(-502.652 -185.114)" fill="#d99ca2"/>
            <path id="Trazado_1044767" data-name="Trazado 1044767" d="M562.221,227.808s8.3,16.718,22.25,14.914c-17.818-3.084-20.015-20.961-20.191-22.754.027,1.072-1.02,7.4-28.7,11.028a34.093,34.093,0,0,1-10.807-.147S547.428,237.31,562.221,227.808Z" transform="translate(-505.814 -185.114)" fill="#af6781"/>
            <path id="Trazado_1044768" data-name="Trazado 1044768" d="M624.486,271.6s5.051-3.628,0-7.957c0,0-1.083-10.283,8.479-8.479" transform="translate(-533.562 -194.854)" fill="none" stroke="#af6781" stroke-linecap="round" stroke-linejoin="round" stroke-miterlimit="10" stroke-width="1"/>
            <path id="Trazado_1044769" data-name="Trazado 1044769" d="M541.036,269.657s-2.706-3.4,0-4.947,7.216,1.152,7.216,1.152" transform="translate(-510.006 -197.436)" fill="none" stroke="#af6781" stroke-linecap="round" stroke-linejoin="round" stroke-miterlimit="10" stroke-width="1"/>
            <path id="Trazado_1044770" data-name="Trazado 1044770" d="M547.011,261.69s3.119-3.7,3.239-7.607" transform="translate(-512.004 -194.611)" fill="none" stroke="#af6781" stroke-linecap="round" stroke-linejoin="round" stroke-miterlimit="10" stroke-width="1"/>
            <ellipse id="Elipse_12532" data-name="Elipse 12532" cx="2.165" cy="3.157" rx="2.165" ry="3.157" transform="translate(23.994 59.773)" fill="#4a303e"/>
            <path id="Trazado_1044771" data-name="Trazado 1044771" d="M567.04,260.434c-.447,1.668-1.851,2.741-3.134,2.4s-1.961-1.976-1.513-3.643,1.85-2.741,3.134-2.4S567.488,258.765,567.04,260.434Z" transform="translate(-516.248 -195.347)" fill="#4a303e"/>
            <path id="Trazado_1044772" data-name="Trazado 1044772" d="M528.75,243.678a10.471,10.471,0,0,1,8-2.706" transform="translate(-506.921 -190.941)" fill="none" stroke="#f3ec9b" stroke-linecap="round" stroke-linejoin="round" stroke-miterlimit="10" stroke-width="1"/>
            <path id="Trazado_1044773" data-name="Trazado 1044773" d="M568.75,242.833s6.074,0,9.2,4.36" transform="translate(-518.056 -191.479)" fill="none" stroke="#f3ec9b" stroke-linecap="round" stroke-linejoin="round" stroke-miterlimit="10" stroke-width="1"/>
            <path id="Trazado_1044774" data-name="Trazado 1044774" d="M553.167,280.724s5.533.06,7.878-3.307c0,0,6.013,10.463,3.007,12.868S553.167,280.724,553.167,280.724Z" transform="translate(-513.718 -201.107)" fill="#4a303e"/>
            <path id="Trazado_1044775" data-name="Trazado 1044775" d="M556.78,280.432l1.842,2.637a20.873,20.873,0,0,0,5.175-2.207c-.9-1.97-1.748-3.446-1.748-3.446A8.356,8.356,0,0,1,556.78,280.432Z" transform="translate(-514.724 -201.107)" fill="#fff"/>
            <path id="Trazado_1044776" data-name="Trazado 1044776" d="M567.069,292.748c1.358-1.087.874-3.817-.063-6.485-1.23,1.021-3.244,3.151-2.974,5.958C565.22,293.038,566.3,293.361,567.069,292.748Z" transform="translate(-516.736 -203.57)" fill="#ff6f89"/>
            <path id="Trazado_1044777" data-name="Trazado 1044777" d="M550.083,281.3a15.378,15.378,0,0,0,7.548-.959" transform="translate(-512.859 -201.92)" fill="none" stroke="#af6781" stroke-linecap="round" stroke-linejoin="round" stroke-miterlimit="10" stroke-width="1"/>
            <path id="Trazado_1044778" data-name="Trazado 1044778" d="M566.667,300.2s4.149.782,4.631-2.946" transform="translate(-517.476 -206.628)" fill="none" stroke="#af6781" stroke-linecap="round" stroke-linejoin="round" stroke-miterlimit="10" stroke-width="1"/>
            <line id="Línea_687" data-name="Línea 687" x1="3.608" y1="2.165" transform="translate(82.625 80.699)" fill="none" stroke="#af6781" stroke-linecap="round" stroke-linejoin="round" stroke-miterlimit="10" stroke-width="1"/>
            <path id="Trazado_1044779" data-name="Trazado 1044779" d="M518.478,233.2a24.1,24.1,0,0,0,10.118,1.833" transform="translate(-504.061 -188.797)" fill="none" stroke="#d29f4f" stroke-linecap="round" stroke-linejoin="round" stroke-miterlimit="10" stroke-width="1"/>
            <line id="Línea_688" data-name="Línea 688" y1="7.433" x2="2.511" transform="translate(58.466 27.421)" fill="none" stroke="#d29f4f" stroke-linecap="round" stroke-linejoin="round" stroke-miterlimit="10" stroke-width="1"/>
            <path id="Trazado_1044780" data-name="Trazado 1044780" d="M607.5,250.769s5.893.3,8.659-1.894" transform="translate(-528.844 -193.161)" fill="none" stroke="#d29f4f" stroke-linecap="round" stroke-linejoin="round" stroke-miterlimit="10" stroke-width="1"/>
            <line id="Línea_689" data-name="Línea 689" x1="2.165" y2="7.323" transform="translate(112.452 59.472)" fill="none" stroke="#d29f4f" stroke-linecap="round" stroke-linejoin="round" stroke-miterlimit="10" stroke-width="1"/>
            <path id="Trazado_1044781" data-name="Trazado 1044781" d="M498.5,198.5s5.877,9.5,19.476,6.495" transform="translate(-498.499 -179.138)" fill="none" stroke="#d29f4f" stroke-linecap="round" stroke-linejoin="round" stroke-miterlimit="10" stroke-width="1"/>
          </g>
          <g id="Grupo_1183215" data-name="Grupo 1183215" transform="translate(0 121.563)">
            <path id="Trazado_1044782" data-name="Trazado 1044782" d="M509.467,340.128l-17.433,10.081-9.587-1.243s-3.969-1.353-5.232,1.624-3.608,7.126-3.608,7.126-1.984,5.051,3.247,5.232c0,0-.208,3.458,4.573,1.925,0,0,.719,4.27,4.146,3.909l2.73-.966a4.941,4.941,0,0,0,4.156,1.808c2.706-.18,4.871-3.247,5.592-4.239s.722-3.518.722-3.518l22.317-12.828S514.929,342.475,509.467,340.128Z" transform="translate(-473.238 -340.128)" fill="#d99ca2"/>
            <path id="Trazado_1044783" data-name="Trazado 1044783" d="M523.444,340.128s5.159,5.511,6.561,11.819l5.062-2.91S528.906,342.475,523.444,340.128Z" transform="translate(-487.215 -340.128)" fill="#af6781"/>
            <line id="Línea_690" data-name="Línea 690" y1="2.942" x2="4.336" transform="translate(15.066 24.743)" fill="none" stroke="#af6781" stroke-linecap="round" stroke-linejoin="round" stroke-miterlimit="10" stroke-width="1"/>
            <line id="Línea_691" data-name="Línea 691" y1="5.984" x2="4.267" transform="translate(8.189 18.76)" fill="none" stroke="#af6781" stroke-linecap="round" stroke-linejoin="round" stroke-miterlimit="10" stroke-width="1"/>
            <line id="Línea_692" data-name="Línea 692" y1="8.066" x2="3.879" transform="translate(3.617 14.753)" fill="none" stroke="#af6781" stroke-linecap="round" stroke-linejoin="round" stroke-miterlimit="10" stroke-width="1"/>
            <path id="Trazado_1044784" data-name="Trazado 1044784" d="M474.791,392.184" transform="translate(-473.671 -354.62)" fill="none" stroke="#af6781" stroke-linecap="round" stroke-linejoin="round" stroke-miterlimit="10" stroke-width="1"/>
          </g>
          <g id="Grupo_1183216" data-name="Grupo 1183216" transform="translate(11.969 133.174)">
            <path id="Trazado_1044785" data-name="Trazado 1044785" d="M518.576,363.277c-.6-.12-4.931-.134-8.3-3.133s-9.056-6.689-15.187-.784-7.363,19.191-1.259,21.236,11.155,4.175,14.041,6.838,13.377,5.009,16.838-.885,8.178-13.969,3.407-18.491C524.965,365.071,518.576,363.277,518.576,363.277Z" transform="translate(-489.825 -356.219)" fill="#aaf4db"/>
            <path id="Trazado_1044786" data-name="Trazado 1044786" d="M533.883,390.979c3.315-5.644,7.776-13.287,3.957-17.9-2.433-1.233-6.3-1.922-10.58,2.169-5.757,5.5-5.379,15.193-2.176,19.366C528.552,394.838,532.124,393.973,533.883,390.979Z" transform="translate(-498.999 -360.648)" fill="#4fb2ac"/>
            <path id="Trazado_1044787" data-name="Trazado 1044787" d="M507.952,358.425s-18.206,7.414-14.836,24.46a3.992,3.992,0,0,0,5.031,3.1,5.659,5.659,0,0,0,2.954-2.374" transform="translate(-490.625 -356.833)" fill="none" stroke="#fff" stroke-linecap="round" stroke-linejoin="round" stroke-miterlimit="10" stroke-width="1"/>
            <path id="Trazado_1044788" data-name="Trazado 1044788" d="M514.072,360.572S504.7,363.7,507.2,385.2" transform="translate(-494.544 -357.431)" fill="none" stroke="#fff" stroke-linecap="round" stroke-linejoin="round" stroke-miterlimit="10" stroke-width="1"/>
            <path id="Trazado_1044789" data-name="Trazado 1044789" d="M510.942,387.925s2.905-18.793,10.554-22.551" transform="translate(-495.704 -358.767)" fill="none" stroke="#fff" stroke-linecap="round" stroke-linejoin="round" stroke-miterlimit="10" stroke-width="1"/>
            <path id="Trazado_1044790" data-name="Trazado 1044790" d="M516.886,383.823S523.71,367.8,532.005,369.2" transform="translate(-497.358 -359.807)" fill="none" stroke="#fff" stroke-linecap="round" stroke-linejoin="round" stroke-miterlimit="10" stroke-width="1"/>
          </g>
          <g id="Grupo_1183217" data-name="Grupo 1183217" transform="translate(40.231 140.896)">
            <path id="Trazado_1044791" data-name="Trazado 1044791" d="M532,397.5s2.181,5.4,2.077,7.062,6.127,2.492,4.777-4.569Z" transform="translate(-529.827 -375.432)" fill="#af6781"/>
            <path id="Trazado_1044792" data-name="Trazado 1044792" d="M554.313,366.919,543.79,377.09l-5.322-1.723s-2.436-.631-4.149,2.165a75.068,75.068,0,0,1-4.532,6.212,3.607,3.607,0,0,0-.758,2.781c.3,1.971,1.307,4.93,4.685,4.627,0,0,.966,3.789,5.567,2.706,0,0,2.5,4.059,6.075,1.263v-2.044c3.425.481,6.344-2.841,7.2-6.108,0,0,11.766-8.588,13.633-13.238C566.186,373.729,562.552,369.624,554.313,366.919Z" transform="translate(-528.989 -366.919)" fill="#d99ca2"/>
            <path id="Trazado_1044793" data-name="Trazado 1044793" d="M573.221,377.56a14.228,14.228,0,0,0,2.735-3.83s-3.634-4.106-11.873-6.81A62.229,62.229,0,0,1,573.221,377.56Z" transform="translate(-538.759 -366.919)" fill="#af6781"/>
            <line id="Línea_693" data-name="Línea 693" x2="6.675" y2="2.877" transform="translate(14.801 10.17)" fill="none" stroke="#af6781" stroke-linecap="round" stroke-linejoin="round" stroke-miterlimit="10" stroke-width="1"/>
            <path id="Trazado_1044794" data-name="Trazado 1044794" d="M535.4,398.343s-.812-3.879,0-5.593" transform="translate(-530.673 -374.11)" fill="none" stroke="#af6781" stroke-linecap="round" stroke-linejoin="round" stroke-miterlimit="10" stroke-width="1"/>
            <path id="Trazado_1044795" data-name="Trazado 1044795" d="M543.049,401.592s-1.173-5.3,0-6.89" transform="translate(-532.758 -374.653)" fill="none" stroke="#af6781" stroke-linecap="round" stroke-linejoin="round" stroke-miterlimit="10" stroke-width="1"/>
            <path id="Trazado_1044796" data-name="Trazado 1044796" d="M551.669,403.843v-5.051l2.233-.541" transform="translate(-535.303 -375.641)" fill="none" stroke="#af6781" stroke-linecap="round" stroke-linejoin="round" stroke-miterlimit="10" stroke-width="1"/>
          </g>
        </g>
        <g id="Grupo_1183219" data-name="Grupo 1183219" transform="translate(160.745 0)">
          <path id="Trazado_1044797" data-name="Trazado 1044797" d="M530.333,23.958s9.862,42.815,20.445,57.007c0,0,78.416,13.951,101.988,11.065,0,0-39.929-44.98-51.475-73.364C601.292,18.667,554.628,29.25,530.333,23.958Z" transform="translate(-342.033 -18.666)" fill="#00a979"/>
          <path id="Trazado_1044798" data-name="Trazado 1044798" d="M530.333,23.958S587.822,75.313,652.767,92.03c0,0-39.929-44.98-51.475-73.364C601.292,18.667,554.628,29.25,530.333,23.958Z" transform="translate(-342.033 -18.666)" fill="#d064a5"/>
          <line id="Línea_694" data-name="Línea 694" y1="62.299" x2="50.513" transform="translate(208.746 0.001)" fill="none" stroke="#153f4d" stroke-linecap="round" stroke-linejoin="round" stroke-miterlimit="10" stroke-width="1"/>
          <path id="Trazado_1044799" data-name="Trazado 1044799" d="M530.333,26s59.293,53.881,122.434,68.072" transform="translate(-342.033 -20.708)" fill="none" stroke="#153f4d" stroke-linecap="round" stroke-linejoin="round" stroke-miterlimit="10" stroke-width="1"/>
          <path id="Trazado_1044800" data-name="Trazado 1044800" d="M467.9,223.915c23.072-38.435,70.069-103.036,70.069-103.036" transform="translate(-324.652 -47.121)" fill="none" stroke="#f8ffe1" stroke-linecap="round" stroke-linejoin="round" stroke-miterlimit="10" stroke-width="1"/>
          <path id="Trazado_1044801" data-name="Trazado 1044801" d="M361,326.036s6.515.733,14.3,7.892c9.467,8.7,25.276,41.392,56.8,25.894,24.872-12.228-10.118-43.93-3.991-69.12" transform="translate(-294.893 -94.397)" fill="none" stroke="#f8ffe1" stroke-linecap="round" stroke-linejoin="round" stroke-miterlimit="10" stroke-width="1"/>
          <path id="Trazado_1044802" data-name="Trazado 1044802" d="M530.333,26l25.016,68.465,97.418-.393" transform="translate(-342.033 -20.708)" fill="none" stroke="#f8ffe1" stroke-linecap="round" stroke-linejoin="round" stroke-miterlimit="10" stroke-width="1"/>
          <line id="Línea_695" data-name="Línea 695" y1="73.757" x2="45.943" transform="translate(213.316 0.001)" fill="none" stroke="#f8ffe1" stroke-linecap="round" stroke-linejoin="round" stroke-miterlimit="10" stroke-width="1"/>
          <path id="Trazado_1044803" data-name="Trazado 1044803" d="M316.236,374.417s-1.458,29.934-29.7,29.73-19.263-29.018,10.04-15.092,36.619,69.384,90.458,48.74c17.727-6.8,59.476-45.295,59.476-45.295" transform="translate(-269.39 -117.702)" fill="none" stroke="#fff" stroke-linecap="round" stroke-linejoin="round" stroke-miterlimit="10" stroke-width="1"/>
        </g>
      </g>
    </g>
  </g>
</svg>
