<svg xmlns="http://www.w3.org/2000/svg" xmlns:xlink="http://www.w3.org/1999/xlink" width="110" height="110" viewBox="0 0 110 110">
  <defs>
    <filter id="Trazado_982547" x="0" y="0" width="110" height="110" filterUnits="userSpaceOnUse">
      <feOffset dy="3" input="SourceAlpha"/>
      <feGaussianBlur stdDeviation="3" result="blur"/>
      <feFlood flood-opacity="0.161"/>
      <feComposite operator="in" in2="blur"/>
      <feComposite in="SourceGraphic"/>
    </filter>
  </defs>
  <g id="Grupo_1182824" data-name="Grupo 1182824" transform="translate(-797 -4316)">
    <g id="Grupo_1179602" data-name="Grupo 1179602" transform="translate(0 94)">
      <g id="Grupo_1171898" data-name="Grupo 1171898" transform="translate(806 4228)">
        <g id="Grupo_1164700" data-name="Grupo 1164700" transform="translate(0 0)">
          <g id="Grupo_1160931" data-name="Grupo 1160931" transform="translate(0 0)">
            <g id="Grupo_1160749" data-name="Grupo 1160749" transform="translate(0 0)">
              <g id="Grupo_1158891" data-name="Grupo 1158891" transform="translate(0 0)">
                <g id="Grupo_1157406" data-name="Grupo 1157406" transform="translate(0 0)">
                  <g id="Grupo_1155793" data-name="Grupo 1155793">
                    <g id="Grupo_1154704" data-name="Grupo 1154704">
                      <g id="Grupo_1150790" data-name="Grupo 1150790">
                        <g id="Grupo_1154214" data-name="Grupo 1154214">
                          <g id="Grupo_1152583" data-name="Grupo 1152583">
                            <g id="Grupo_1146973" data-name="Grupo 1146973">
                              <g id="Grupo_1146954" data-name="Grupo 1146954">
                                <g transform="matrix(1, 0, 0, 1, -9, -6)" filter="url(#Trazado_982547)">
                                  <g id="Trazado_982547-2" data-name="Trazado 982547" transform="translate(9 6)" fill="#effbfe">
                                    <path d="M 46.00000762939453 90.49987030029297 C 39.99188613891602 90.49987030029297 34.16427612304688 89.32350921630859 28.67906188964844 87.00345611572266 C 23.38020706176758 84.76224517822266 18.62104797363281 81.55341339111328 14.53375434875488 77.46613311767578 C 10.44647407531738 73.37885284423828 7.237647533416748 68.61969757080078 4.996420860290527 63.32085418701172 C 2.676367521286011 57.83565521240234 1.500007629394531 52.008056640625 1.500007629394531 45.99993515014648 C 1.500007629394531 39.99181365966797 2.676367521286011 34.16421508789062 4.996420860290527 28.67901420593262 C 7.237647533416748 23.38017463684082 10.44647407531738 18.62101554870605 14.53375434875488 14.53373527526855 C 18.62104797363281 10.44645500183105 23.38020706176758 7.23762845993042 28.67906188964844 4.996415138244629 C 34.16427612304688 2.676361799240112 39.99188613891602 1.500001788139343 46.00000762939453 1.500001788139343 C 52.00812911987305 1.500001788139343 57.83573913574219 2.676361799240112 63.32095336914062 4.996415138244629 C 68.61980438232422 7.23762845993042 73.37896728515625 10.44645500183105 77.46626281738281 14.53373527526855 C 81.55354309082031 18.62101554870605 84.76236724853516 23.38017463684082 87.00359344482422 28.67901420593262 C 89.32364654541016 34.16421508789062 90.50000762939453 39.99181365966797 90.50000762939453 45.99993515014648 C 90.50000762939453 52.008056640625 89.32364654541016 57.83565521240234 87.00359344482422 63.32085418701172 C 84.76236724853516 68.61969757080078 81.55354309082031 73.37885284423828 77.46626281738281 77.46613311767578 C 73.37896728515625 81.55341339111328 68.61980438232422 84.76224517822266 63.32095336914062 87.00345611572266 C 57.83573913574219 89.32350921630859 52.00812911987305 90.49987030029297 46.00000762939453 90.49987030029297 Z" stroke="none"/>
                                    <path d="M 46.00000762939453 2.999992370605469 C 40.19372177124023 2.999992370605469 34.56270599365234 4.136489868164062 29.26339340209961 6.377906799316406 C 24.14333343505859 8.543502807617188 19.54443359375 11.64437866210938 15.59442138671875 15.59437561035156 C 11.6444091796875 19.54439544677734 8.543533325195312 24.14329528808594 6.377937316894531 29.26333618164062 C 4.136505126953125 34.56264877319336 3.000007629394531 40.19366455078125 3.000007629394531 45.99993515014648 C 3.000007629394531 51.80620574951172 4.136505126953125 57.43720626831055 6.377937316894531 62.73651885986328 C 8.543533325195312 67.8565673828125 11.6444091796875 72.45545959472656 15.59442138671875 76.40547943115234 C 19.54443359375 80.35547637939453 24.14333343505859 83.45635223388672 29.26339340209961 85.6219482421875 C 34.56270599365234 87.86336517333984 40.19372177124023 88.99986267089844 46.00000762939453 88.99986267089844 C 51.80629348754883 88.99986267089844 57.43730926513672 87.86336517333984 62.73663711547852 85.6219482421875 C 67.85668182373047 83.45635223388672 72.45559692382812 80.35547637939453 76.40560913085938 76.40547943115234 C 80.35560607910156 72.45545959472656 83.45649719238281 67.8565673828125 85.62209320068359 62.73651885986328 C 87.86351013183594 57.43720626831055 89.00000762939453 51.80620574951172 89.00000762939453 45.99993515014648 C 89.00000762939453 40.19366455078125 87.86351013183594 34.56264877319336 85.62209320068359 29.26333618164062 C 83.45649719238281 24.14329528808594 80.35560607910156 19.54439544677734 76.40560913085938 15.59437561035156 C 72.45559692382812 11.64437866210938 67.85668182373047 8.543502807617188 62.73663711547852 6.377906799316406 C 57.43730926513672 4.136489868164062 51.80629348754883 2.999992370605469 46.00000762939453 2.999992370605469 M 46.00000762939453 -7.62939453125e-06 C 71.40510559082031 -7.62939453125e-06 92.00000762939453 20.59486389160156 92.00000762939453 45.99993515014648 C 92.00000762939453 71.40499114990234 71.40510559082031 91.99986267089844 46.00000762939453 91.99986267089844 C 20.59492492675781 91.99986267089844 7.62939453125e-06 71.40499114990234 7.62939453125e-06 45.99993515014648 C 7.62939453125e-06 20.59486389160156 20.59492492675781 -7.62939453125e-06 46.00000762939453 -7.62939453125e-06 Z" stroke="none" fill="#397b86"/>
                                  </g>
                                </g>
                              </g>
                            </g>
                          </g>
                        </g>
                      </g>
                    </g>
                  </g>
                </g>
              </g>
            </g>
          </g>
        </g>
      </g>
    </g>
    <g id="cerebro" transform="translate(819.213 4323.608)">
      <g id="Grupo_1182823" data-name="Grupo 1182823" transform="translate(0.874 16.59)">
        <path id="Trazado_1043406" data-name="Trazado 1043406" d="M243.05,337.591c-.925,2.776-1.184,6.858-2.158,10.225-.959,3.316-2.611,5.939-6.277,5.939s-5.318-2.623-6.277-5.939c-.974-3.367-1.232-7.448-2.158-10.225Z" transform="translate(-200.664 -300.911)" fill="#d3d3ff"/>
        <path id="Trazado_1043407" data-name="Trazado 1043407" d="M243.05,337.591H226.18c.863,2.588,1.146,6.311,1.97,9.531h12.93C241.9,343.9,242.187,340.179,243.05,337.591Z" transform="translate(-200.664 -300.911)" fill="#b7baf0"/>
        <path id="Trazado_1043408" data-name="Trazado 1043408" d="M132.207,168.115a8.335,8.335,0,0,0,8.326-8.206,8.183,8.183,0,0,0-2.528-5.927,1.662,1.662,0,0,1-.495-1.387,8.214,8.214,0,0,0-8.01-9.11,1.689,1.689,0,0,1-1.4-.8,8.212,8.212,0,0,0-10.874-2.861,1.521,1.521,0,0,1-1.454,0,8.212,8.212,0,0,0-10.874,2.861,1.69,1.69,0,0,1-1.4.8,8.214,8.214,0,0,0-8.01,9.11,1.663,1.663,0,0,1-.495,1.387,8.182,8.182,0,0,0-2.528,5.927,8.335,8.335,0,0,0,8.326,8.206Z" transform="translate(-82.545 -125.345)" fill="#ffbdd7"/>
        <path id="Trazado_1043409" data-name="Trazado 1043409" d="M116.5,153.2c-1.876-2.537-1.967-9.549.283-13.218a1.518,1.518,0,0,1-1.01-.156A8.212,8.212,0,0,0,104.9,142.69a1.69,1.69,0,0,1-1.4.8,8.214,8.214,0,0,0-8.01,9.11,1.663,1.663,0,0,1-.495,1.387,8.182,8.182,0,0,0-2.528,5.927,8.335,8.335,0,0,0,8.326,8.206h17.376C114.283,163.754,114.885,156.664,116.5,153.2Z" transform="translate(-82.545 -125.347)" fill="#ff96c0"/>
        <g id="Grupo_1182821" data-name="Grupo 1182821" transform="translate(20.603 26.991)">
          <g id="Grupo_1182820" data-name="Grupo 1182820" transform="translate(0 0)">
            <ellipse id="Elipse_12501" data-name="Elipse 12501" cx="3.598" cy="2.865" rx="3.598" ry="2.865" fill="#fff"/>
            <ellipse id="Elipse_12502" data-name="Elipse 12502" cx="3.598" cy="2.865" rx="3.598" ry="2.865" transform="translate(19.5)" fill="#fff"/>
          </g>
        </g>
        <path id="Trazado_1043410" data-name="Trazado 1043410" d="M0,0H17.339V6.685H0Z" transform="translate(10.842 31.214) rotate(45)" fill="#5d6a84"/>
        <path id="Trazado_1043411" data-name="Trazado 1043411" d="M11.473,249.925l-3.161-3.161a2.824,2.824,0,0,1,0-3.994l3.537-3.537a2.824,2.824,0,0,1,3.994,0L19,242.394Z" transform="translate(-7.485 -213.299)" fill="#00b3fc"/>
        <path id="Trazado_1043412" data-name="Trazado 1043412" d="M11.381,254.881l-.763-.763a2.26,2.26,0,0,1,0-3.2L20,241.539a2.26,2.26,0,0,1,3.2,0l.763.763a2.26,2.26,0,0,1,0,3.2l-9.384,9.384a2.26,2.26,0,0,1-3.2,0Z" transform="translate(-9.668 -215.481)" fill="#30cdfa"/>
        <path id="Trazado_1043413" data-name="Trazado 1043413" d="M159.12,397.572l3.161,3.161a2.824,2.824,0,0,0,3.994,0l3.537-3.537a2.824,2.824,0,0,0,0-3.994l-3.161-3.161Z" transform="translate(-141.428 -347.241)" fill="#00b3fc"/>
        <path id="Trazado_1043414" data-name="Trazado 1043414" d="M130.332,373.833l.763.763a2.26,2.26,0,0,0,3.2,0l9.384-9.384a2.26,2.26,0,0,0,0-3.2l-.763-.763a2.26,2.26,0,0,0-3.2,0l-9.384,9.384A2.26,2.26,0,0,0,130.332,373.833Z" transform="translate(-115.414 -321.227)" fill="#30cdfa"/>
        <path id="Trazado_1043415" data-name="Trazado 1043415" d="M86.02,337.511a3.034,3.034,0,0,1,0-4.29l3.538-3.538a3.034,3.034,0,0,1,4.29,4.29l-3.538,3.538A3.034,3.034,0,0,1,86.02,337.511Z" transform="translate(-76.072 -293.14)" fill="#ffbdd7"/>
        <g id="Grupo_1182822" data-name="Grupo 1182822" transform="translate(11.986 0)">
          <path id="Trazado_1043416" data-name="Trazado 1043416" d="M275.5,32.2a3.034,3.034,0,0,1-3.034-3.034v-2.92a3.034,3.034,0,1,1,6.067,0v2.92A3.034,3.034,0,0,1,275.5,32.2Z" transform="translate(-253.539 -23.215)" fill="#f8d071"/>
          <path id="Trazado_1043417" data-name="Trazado 1043417" d="M113.164,79.059,111.1,76.995a3.034,3.034,0,1,1,4.29-4.29l2.064,2.064a3.034,3.034,0,1,1-4.29,4.29Z" transform="translate(-110.211 -66.146)" fill="#f8d071"/>
          <path id="Trazado_1043418" data-name="Trazado 1043418" d="M417.927,79.059a3.034,3.034,0,0,1,0-4.29l2.064-2.064a3.034,3.034,0,1,1,4.29,4.29l-2.064,2.064A3.034,3.034,0,0,1,417.927,79.059Z" transform="translate(-381.239 -66.145)" fill="#f8d071"/>
        </g>
      </g>
      <path id="Trazado_1043419" data-name="Trazado 1043419" d="M41.126,44.489A.875.875,0,0,0,42,43.614a.747.747,0,1,1,1.495,0,.875.875,0,1,0,1.75,0,2.5,2.5,0,0,0-5,0A.875.875,0,0,0,41.126,44.489Zm-6.3-18.037a3.913,3.913,0,0,0,3.909-3.909v-2.92a3.909,3.909,0,1,0-7.817,0v2.92A3.913,3.913,0,0,0,34.825,26.452Zm-2.159-6.828a2.159,2.159,0,0,1,4.317,0v2.92a2.159,2.159,0,0,1-4.317,0Zm21.79,10.5,2.064-2.064a3.909,3.909,0,1,0-5.528-5.528l-2.064,2.064a3.909,3.909,0,1,0,5.528,5.528Zm-4.29-4.29,2.064-2.064a2.159,2.159,0,0,1,3.053,3.053l-2.064,2.064a2.157,2.157,0,0,1-3.052,0h0a2.157,2.157,0,0,1,0-3.053ZM49.56,52.956a1.717,1.717,0,0,1,1.715-1.715.875.875,0,1,0,0-1.75,3.469,3.469,0,0,0-3.465,3.465.875.875,0,0,0,1.75,0ZM40.039,34.773a3.477,3.477,0,0,0-3,1.731.875.875,0,1,0,1.515.877,1.722,1.722,0,0,1,1.486-.858.875.875,0,0,0,0-1.75Zm-24.845-4.65a3.909,3.909,0,0,0,5.528-5.528L18.657,22.53a3.909,3.909,0,1,0-5.528,5.528Zm-.827-6.355a2.161,2.161,0,0,1,3.053,0l2.064,2.064a2.159,2.159,0,0,1-3.053,3.052L14.367,26.82a2.161,2.161,0,0,1,0-3.052Zm21.816,19.3a1.8,1.8,0,0,1-2.716,0,.875.875,0,0,0-1.319,1.15,3.549,3.549,0,0,0,5.355,0,.875.875,0,1,0-1.319-1.15ZM56.94,44.6a.791.791,0,0,1-.231-.657,9.089,9.089,0,0,0-8.865-10.083.814.814,0,0,1-.676-.387A9.087,9.087,0,0,0,35.134,30.3a.645.645,0,0,1-.618,0,9.1,9.1,0,0,0-4.964-1.078.875.875,0,0,0,.12,1.746,7.378,7.378,0,0,1,4.008.869,2.389,2.389,0,0,0,2.29,0A7.337,7.337,0,0,1,45.685,34.4a2.558,2.558,0,0,0,2.13,1.207,7.339,7.339,0,0,1,7.155,8.137,2.551,2.551,0,0,0,.759,2.116,7.248,7.248,0,0,1,.05,10.467,7.456,7.456,0,0,1-5.242,2.16h-19.9a3.112,3.112,0,0,0-.88-1.726L28.99,56a3.138,3.138,0,0,0-4.433,0l-1.71,1.71-2.434-2.434a3.905,3.905,0,0,0-3.9-3.9l-2.436-2.436,1.71-1.71a3.139,3.139,0,0,0,0-4.433,11.769,11.769,0,0,0-1.058-1.022,7.349,7.349,0,0,1,7.108-6.165,2.558,2.558,0,0,0,2.13-1.207,7.421,7.421,0,0,1,2.243-2.274.875.875,0,1,0-.95-1.47,9.184,9.184,0,0,0-2.775,2.813.814.814,0,0,1-.676.387,9.1,9.1,0,0,0-8.741,7.268,3.129,3.129,0,0,0-2.477.905l-.308.308-.431-.431a3.7,3.7,0,0,0-5.232,0L1.082,45.443a3.7,3.7,0,0,0,0,5.232l.431.431-.308.308a3.139,3.139,0,0,0,0,4.433l.763.763a3.138,3.138,0,0,0,4.433,0l1.71-1.71,1.662,1.662a3.908,3.908,0,0,0,5.447,5.447l1.662,1.662-1.71,1.71a3.139,3.139,0,0,0,0,4.433l.763.763a3.133,3.133,0,0,0,4.434,0l.308-.308.431.431a3.7,3.7,0,0,0,5.232,0l3.113-3.113a6.294,6.294,0,0,0,5.373,2.722,6.534,6.534,0,0,0,3.506-.935.875.875,0,1,0-.924-1.486,4.752,4.752,0,0,1-2.583.672,4.612,4.612,0,0,1-4.23-2.411,3.7,3.7,0,0,0-.719-4.216l-.431-.431a3.743,3.743,0,0,0,.963-1.265H40.95c-.189,1.014-.407,2.046-.688,3.016a14.676,14.676,0,0,1-.623,1.766.875.875,0,1,0,1.606.7,16.424,16.424,0,0,0,.7-1.975,35.457,35.457,0,0,0,.786-3.5h7.808A9.2,9.2,0,0,0,57,57.575,9,9,0,0,0,56.94,44.6ZM2.32,46.68l3.537-3.537a1.951,1.951,0,0,1,2.757,0l.431.431L2.751,49.868l-.431-.431A1.952,1.952,0,0,1,2.32,46.68Zm2.844,8.691a1.386,1.386,0,0,1-1.958,0l-.763-.763a1.386,1.386,0,0,1,0-1.958l9.384-9.384a1.386,1.386,0,0,1,1.958,0l.763.763a1.387,1.387,0,0,1,0,1.958Zm4.185-1.71,3.49-3.49,1.717,1.717a3.9,3.9,0,0,0-.815.624l-2.77,2.77Zm5.145,6.68a2.159,2.159,0,1,1-3.053-3.053l3.538-3.538A2.159,2.159,0,0,1,18.031,56.8Zm2.005.47,2.77-2.77a3.93,3.93,0,0,0,.624-.814l1.717,1.717-3.49,3.49Zm2.634,8.528a1.384,1.384,0,0,1-1.958,0l-.763-.763a1.386,1.386,0,0,1,0-1.958l9.384-9.384a1.386,1.386,0,0,1,1.958,0l.763.763a1.384,1.384,0,0,1,0,1.959Zm9.507-3.414L25.1,69.462a1.948,1.948,0,0,1-2.757,0l-.431-.431,6.293-6.293.431.431A1.952,1.952,0,0,1,28.639,65.926Zm.972-31.153a.875.875,0,1,0,0,1.75,1.722,1.722,0,0,1,1.486.858.875.875,0,1,0,1.515-.877,3.477,3.477,0,0,0-3-1.731ZM26.3,42.253v1.4a.875.875,0,0,0,1.75,0v-1.4a.875.875,0,1,0-1.75,0Z" transform="translate(0 0)"/>
    </g>
  </g>
</svg>
