<svg xmlns="http://www.w3.org/2000/svg" xmlns:xlink="http://www.w3.org/1999/xlink" width="110" height="110" viewBox="0 0 110 110">
  <defs>
    <filter id="Trazado_982547" x="0" y="0" width="110" height="110" filterUnits="userSpaceOnUse">
      <feOffset dy="3" input="SourceAlpha"/>
      <feGaussianBlur stdDeviation="3" result="blur"/>
      <feFlood flood-opacity="0.161"/>
      <feComposite operator="in" in2="blur"/>
      <feComposite in="SourceGraphic"/>
    </filter>
  </defs>
  <g id="Grupo_1182825" data-name="Grupo 1182825" transform="translate(-1112.804 -4316.032)">
    <g id="Grupo_1179603" data-name="Grupo 1179603" transform="translate(-0.196 94.275)">
      <g id="Grupo_1172349" data-name="Grupo 1172349" transform="translate(1122 4227.757)">
        <g id="Grupo_1164700" data-name="Grupo 1164700" transform="translate(0 0)">
          <g id="Grupo_1160931" data-name="Grupo 1160931" transform="translate(0 0)">
            <g id="Grupo_1160749" data-name="Grupo 1160749" transform="translate(0 0)">
              <g id="Grupo_1158891" data-name="Grupo 1158891" transform="translate(0 0)">
                <g id="Grupo_1157406" data-name="Grupo 1157406" transform="translate(0 0)">
                  <g id="Grupo_1155793" data-name="Grupo 1155793">
                    <g id="Grupo_1154704" data-name="Grupo 1154704">
                      <g id="Grupo_1150790" data-name="Grupo 1150790">
                        <g id="Grupo_1154214" data-name="Grupo 1154214">
                          <g id="Grupo_1152583" data-name="Grupo 1152583">
                            <g id="Grupo_1146973" data-name="Grupo 1146973">
                              <g id="Grupo_1146954" data-name="Grupo 1146954">
                                <g transform="matrix(1, 0, 0, 1, -9, -6)" filter="url(#Trazado_982547)">
                                  <g id="Trazado_982547-2" data-name="Trazado 982547" transform="translate(9 6)" fill="#effbfe">
                                    <path d="M 46.00000762939453 90.49987030029297 C 39.99188613891602 90.49987030029297 34.16427612304688 89.32350921630859 28.67906188964844 87.00345611572266 C 23.38020706176758 84.76224517822266 18.62104797363281 81.55341339111328 14.53375434875488 77.46613311767578 C 10.44647407531738 73.37885284423828 7.237647533416748 68.61969757080078 4.996420860290527 63.32085418701172 C 2.676367521286011 57.83565521240234 1.500007629394531 52.008056640625 1.500007629394531 45.99993515014648 C 1.500007629394531 39.99181365966797 2.676367521286011 34.16421508789062 4.996420860290527 28.67901420593262 C 7.237647533416748 23.38017463684082 10.44647407531738 18.62101554870605 14.53375434875488 14.53373527526855 C 18.62104797363281 10.44645500183105 23.38020706176758 7.23762845993042 28.67906188964844 4.996415138244629 C 34.16427612304688 2.676361799240112 39.99188613891602 1.500001788139343 46.00000762939453 1.500001788139343 C 52.00812911987305 1.500001788139343 57.83573913574219 2.676361799240112 63.32095336914062 4.996415138244629 C 68.61980438232422 7.23762845993042 73.37896728515625 10.44645500183105 77.46626281738281 14.53373527526855 C 81.55354309082031 18.62101554870605 84.76236724853516 23.38017463684082 87.00359344482422 28.67901420593262 C 89.32364654541016 34.16421508789062 90.50000762939453 39.99181365966797 90.50000762939453 45.99993515014648 C 90.50000762939453 52.008056640625 89.32364654541016 57.83565521240234 87.00359344482422 63.32085418701172 C 84.76236724853516 68.61969757080078 81.55354309082031 73.37885284423828 77.46626281738281 77.46613311767578 C 73.37896728515625 81.55341339111328 68.61980438232422 84.76224517822266 63.32095336914062 87.00345611572266 C 57.83573913574219 89.32350921630859 52.00812911987305 90.49987030029297 46.00000762939453 90.49987030029297 Z" stroke="none"/>
                                    <path d="M 46.00000762939453 2.999992370605469 C 40.19372177124023 2.999992370605469 34.56270599365234 4.136489868164062 29.26339340209961 6.377906799316406 C 24.14333343505859 8.543502807617188 19.54443359375 11.64437866210938 15.59442138671875 15.59437561035156 C 11.6444091796875 19.54439544677734 8.543533325195312 24.14329528808594 6.377937316894531 29.26333618164062 C 4.136505126953125 34.56264877319336 3.000007629394531 40.19366455078125 3.000007629394531 45.99993515014648 C 3.000007629394531 51.80620574951172 4.136505126953125 57.43720626831055 6.377937316894531 62.73651885986328 C 8.543533325195312 67.8565673828125 11.6444091796875 72.45545959472656 15.59442138671875 76.40547943115234 C 19.54443359375 80.35547637939453 24.14333343505859 83.45635223388672 29.26339340209961 85.6219482421875 C 34.56270599365234 87.86336517333984 40.19372177124023 88.99986267089844 46.00000762939453 88.99986267089844 C 51.80629348754883 88.99986267089844 57.43730926513672 87.86336517333984 62.73663711547852 85.6219482421875 C 67.85668182373047 83.45635223388672 72.45559692382812 80.35547637939453 76.40560913085938 76.40547943115234 C 80.35560607910156 72.45545959472656 83.45649719238281 67.8565673828125 85.62209320068359 62.73651885986328 C 87.86351013183594 57.43720626831055 89.00000762939453 51.80620574951172 89.00000762939453 45.99993515014648 C 89.00000762939453 40.19366455078125 87.86351013183594 34.56264877319336 85.62209320068359 29.26333618164062 C 83.45649719238281 24.14329528808594 80.35560607910156 19.54439544677734 76.40560913085938 15.59437561035156 C 72.45559692382812 11.64437866210938 67.85668182373047 8.543502807617188 62.73663711547852 6.377906799316406 C 57.43730926513672 4.136489868164062 51.80629348754883 2.999992370605469 46.00000762939453 2.999992370605469 M 46.00000762939453 -7.62939453125e-06 C 71.40510559082031 -7.62939453125e-06 92.00000762939453 20.59486389160156 92.00000762939453 45.99993515014648 C 92.00000762939453 71.40499114990234 71.40510559082031 91.99986267089844 46.00000762939453 91.99986267089844 C 20.59492492675781 91.99986267089844 7.62939453125e-06 71.40499114990234 7.62939453125e-06 45.99993515014648 C 7.62939453125e-06 20.59486389160156 20.59492492675781 -7.62939453125e-06 46.00000762939453 -7.62939453125e-06 Z" stroke="none" fill="#397b86"/>
                                  </g>
                                </g>
                              </g>
                            </g>
                          </g>
                        </g>
                      </g>
                    </g>
                  </g>
                </g>
              </g>
            </g>
          </g>
        </g>
      </g>
    </g>
    <g id="triangulo_1_" data-name="triangulo (1)" transform="translate(1130.877 4338.865)">
      <g id="Grupo_1182817" data-name="Grupo 1182817" transform="translate(9.34 -1.322)">
        <path id="Trazado_1043388" data-name="Trazado 1043388" d="M268.574,97.026,263.332,94,274,75.529a3.026,3.026,0,0,1,5.242,3.026Z" transform="translate(-234.903 -65.364)" fill="#ffcbbe"/>
        <path id="Trazado_1043389" data-name="Trazado 1043389" d="M163.785,265.5a3.026,3.026,0,0,1-2.148-3.7l5.475-20.614,5.85,1.553-5.475,20.614A3.026,3.026,0,0,1,163.785,265.5Z" transform="translate(-144.795 -213.335)" fill="#ffbbae"/>
        <path id="Trazado_1043390" data-name="Trazado 1043390" d="M317.646,280.709l-3.137,2.058-1.663-.782-1.944-.915-.766-.361-1.525-3.61-1.927-4.559a1.307,1.307,0,0,0-2.064-.48,14.622,14.622,0,0,1-3.111,2.116q-.065.034-.131.065s-6.536-.967-6.4-5.9l3.673-3.57,1.7-1.651,5.687-5.526a4.257,4.257,0,0,1,3.481,3.371C309.89,262.559,309.541,261.53,317.646,280.709Z" transform="translate(-262.91 -227.859)" fill="#c2eafb"/>
        <path id="Trazado_1043391" data-name="Trazado 1043391" d="M250.566,357.019q-.065.034-.131.065a11.431,11.431,0,0,1-1.472.6,1.3,1.3,0,0,0-.73.607l-2.91,5.264-4.832,2.922-3.071-2.924,4.612-8.34a5.918,5.918,0,0,1-.326-1.771l2.325-2.26A20.538,20.538,0,0,0,250.566,357.019Z" transform="translate(-211.967 -310.701)" fill="#91d4f2"/>
        <path id="Trazado_1043392" data-name="Trazado 1043392" d="M268.528,208.689l-7.927,7.927-.385.385c-.085.085-.173.168-.263.245,0,0-10.048-3.5-7.3-16.365l.729-.857.709-.834,2.483-2.92,11.142,6.367A3.841,3.841,0,0,1,268.528,208.689Z" transform="translate(-225.031 -173.58)" fill="#97aabb"/>
        <path id="Trazado_1043393" data-name="Trazado 1043393" d="M218.236,252.785a4.831,4.831,0,0,1-6.57-.245l-6.617-9.192,2.857-3.361,2.947-3.467.085-.1C211.234,240.9,212.675,247.77,218.236,252.785Z" transform="translate(-183.314 -209.12)" fill="#7a8fa5"/>
        <path id="Trazado_1043394" data-name="Trazado 1043394" d="M432.858,463.84a3.46,3.46,0,0,1-4.532-1.84l-1.3-3.082h7.51l.164.389A3.46,3.46,0,0,1,432.858,463.84Z" transform="translate(-379.797 -406.068)" fill="#ffddcf"/>
        <path id="Trazado_1043395" data-name="Trazado 1043395" d="M241.457,458.909,239.53,462.4a3.461,3.461,0,1,1-5.975-3.489h7.9Z" transform="translate(-208.1 -406.059)" fill="#ffcbbe"/>
        <path id="Trazado_1043396" data-name="Trazado 1043396" d="M255.5,236.022a4.292,4.292,0,0,1-2.762,1.256s-3.646-1.042-1.67-7.643l.085-.1.729-.857a4.41,4.41,0,0,1,.663-.036,4.324,4.324,0,0,1,2.955,7.379Z" transform="translate(-223.524 -202.234)" fill="#ffcbbe"/>
        <path id="Trazado_1043397" data-name="Trazado 1043397" d="M234.546,244.163a4.324,4.324,0,0,1-4.616-4.176l2.947-3.467.085-.1A28.2,28.2,0,0,0,234.546,244.163Z" transform="translate(-205.337 -209.12)" fill="#ffbbae"/>
        <ellipse id="Elipse_12496" data-name="Elipse 12496" cx="6.917" cy="5.37" rx="6.917" ry="5.37" transform="translate(6.887 2.144) rotate(-8.916)" fill="#d97c41"/>
        <circle id="Elipse_12497" data-name="Elipse 12497" cx="4.213" cy="4.213" r="4.213" transform="translate(23.985 9.608) rotate(-6.663)" fill="#ffcbbe"/>
        <circle id="Elipse_12498" data-name="Elipse 12498" cx="4.213" cy="4.213" r="4.213" transform="translate(0.997 30.809) rotate(-45)" fill="#ffddcf"/>
        <path id="Trazado_1043398" data-name="Trazado 1043398" d="M91.468,90.875a15.113,15.113,0,0,1-3.2,1.983h0s-29.5,4.631-11.293-26.229A14.327,14.327,0,0,1,93.966,70.56a13.809,13.809,0,0,1,2.542,4.9A14.707,14.707,0,0,1,91.468,90.875Z" transform="translate(-64.692 -57.704)" fill="#ffddcf"/>
        <path id="Trazado_1043399" data-name="Trazado 1043399" d="M64.858,102.627a14.59,14.59,0,0,1-12.932-.32,13.8,13.8,0,0,1-4.251-3.523,14.477,14.477,0,0,1,2.5-20.315,15.067,15.067,0,0,1,3.393-2.07C50.34,82.714,41.865,102.831,64.858,102.627Z" transform="translate(-41.283 -67.473)" fill="#ffcbbe"/>
        <path id="Trazado_1043400" data-name="Trazado 1043400" d="M78.9,40.517a18.762,18.762,0,0,1-9.008,1.352A2.35,2.35,0,0,0,67.54,43.48,27.952,27.952,0,0,1,64.9,49.133c-12.217-.187-4.418-12.32-4.418-12.32a5.456,5.456,0,0,1,3.486-.365l.025.006a4.866,4.866,0,0,0,4.243-1.023,4.29,4.29,0,0,1,3.693-.875,12.16,12.16,0,0,1,6.692,3.893C79.183,39.137,79.7,40.141,78.9,40.517Z" transform="translate(-53.18 -30.337)" fill="#e4996d"/>
        <path id="Trazado_1043401" data-name="Trazado 1043401" d="M27.487,67.388a43.36,43.36,0,0,1-6.7,8.595c-.871.83-1.762.044-2.462-.824-4.652-5.768-2.679-14.5,3.533-19.355a5.883,5.883,0,0,1,1.209-.736C22.709,58.729,23.018,64.35,27.487,67.388Z" transform="translate(-15.763 -48.593)" fill="#d97c41"/>
        <g id="Grupo_1182816" data-name="Grupo 1182816" transform="translate(8.626 12.882)">
          <ellipse id="Elipse_12499" data-name="Elipse 12499" cx="3.321" cy="2.645" rx="3.321" ry="2.645" transform="translate(0 17.421) rotate(-45)" fill="#ffa1ac"/>
          <ellipse id="Elipse_12500" data-name="Elipse 12500" cx="3.321" cy="2.645" rx="3.321" ry="2.645" transform="translate(12.728 4.696) rotate(-45)" fill="#ffa1ac"/>
        </g>
      </g>
      <g id="Grupo_1182818" data-name="Grupo 1182818" transform="translate(8.507 -1.17)">
        <path id="Trazado_1043402" data-name="Trazado 1043402" d="M64.959,52.7l-3.431-8.12a.86.86,0,0,0-1.584.669l2.762,6.537h-5.63l-3.223-7.629a2.165,2.165,0,0,0-3.42-.791,12.745,12.745,0,0,1-4.4,2.6,2.144,2.144,0,0,0-1.217,1.008l-2.659,4.811H36.231l3.555-6.429A5.667,5.667,0,0,0,45.1,43.84l8.3-8.3a4.653,4.653,0,0,0,1.374-3.237c.367.78.338,1.489.961,2.964l2.757,6.524a.86.86,0,0,0,1.584-.669L57.311,34.6a11.6,11.6,0,0,1-.588-1.865,5.091,5.091,0,0,0-3.27-3.775c-.621-.64-.616-.566-5.94-3.608l6.851-11.868c2.571-4.445-4.156-8.33-6.72-3.881l-5.351,9.268A14.7,14.7,0,0,0,41.7,16.6a5.062,5.062,0,0,0-5.545-8.154A11.173,11.173,0,0,0,31.393,4.35c-.926-3-4.538-4.846-8.465-4.233-3.42.535-6.076,2.748-6.655,5.471-1.827.834-4.687,3.56-6.3,7a.86.86,0,0,0,1.557.73,15.523,15.523,0,0,1,4.453-5.557,4.736,4.736,0,0,1,3.983-.932,5.7,5.7,0,0,0,4.98-1.194,3.421,3.421,0,0,1,2.942-.7,10.968,10.968,0,0,1,6.6,4.111,16.724,16.724,0,0,1-8.4,1.5,3.2,3.2,0,0,0-3.213,2.2c-2.138,6.454-6.739,11.289-9.651,13.851a11.054,11.054,0,0,1-2.776-9.968.86.86,0,0,0-1.689-.32,12.743,12.743,0,0,0,3.313,11.566,5.062,5.062,0,0,0,6.794,7.147,15.125,15.125,0,0,0,9.37,2.114l-2.9,10.916c-1.319,4.963,6.182,6.956,7.5,1.992l2.334-8.789c1.868,2.595,1.8,2.517,1.88,2.593a5.714,5.714,0,0,0,1.118.871l-4.235,7.66c-2.761,4.994,4.785,9.165,7.548,4.172l4.828-8.735a.436.436,0,0,1,.241-.2,14.472,14.472,0,0,0,5.009-2.946.445.445,0,0,1,.7.168l4.746,11.232c2.222,5.255,10.167,1.9,7.944-3.357ZM23.852,4.309a3.99,3.99,0,0,1-3.5.845,6.1,6.1,0,0,0-2.074-.121c1.744-3.521,7.833-4.5,10.6-1.617q-.3-.082-.6-.154a5.15,5.15,0,0,0-4.432,1.047Zm25.282,6.156a2.161,2.161,0,0,1,3.742,2.161L46.02,24.5,42.5,22.487q.018-.286.026-.572ZM40.9,28.375a3.458,3.458,0,0,1-4.239,5.268A15.976,15.976,0,0,0,40.9,28.375Zm.024-13.613a14.744,14.744,0,0,0-3.891-4.8A3.348,3.348,0,0,1,40.925,14.762ZM13.377,29.042a14.726,14.726,0,0,0,3.858,4.814A3.342,3.342,0,0,1,13.377,29.042Zm13.348,6.441a13.129,13.129,0,0,1-12.1-7.83c3.062-2.741,7.691-7.732,9.892-14.374a1.49,1.49,0,0,1,1.476-1.021,18.51,18.51,0,0,0,9.1-1.595,12.984,12.984,0,0,1,5.2,7.186c2.521,8.836-4.5,17.634-13.571,17.634Zm4.459,14.111a2.161,2.161,0,0,1-4.177-1.11l3.1-11.656a15.692,15.692,0,0,0,1.58-.44l2.2,3.054Zm2.143-13.864a15.993,15.993,0,0,0,1.83-1c5.294,3.9,11.424-3.733,6.473-8.062a15.427,15.427,0,0,0,.633-2.333l9.288,5.307a2.974,2.974,0,0,1,.627,4.687l-8.3,8.3a3.961,3.961,0,0,1-5.557.046Zm6.659,19.98A2.593,2.593,0,0,1,35.307,53.5h5.9ZM58.6,55.387,57.8,53.5h5.622A2.592,2.592,0,0,1,58.6,55.387Z" transform="translate(-8.507 0)"/>
        <path id="Trazado_1043403" data-name="Trazado 1043403" d="M97.487,210.674a.883.883,0,0,1-.627-.26,2.512,2.512,0,1,1,3.553-3.553.886.886,0,1,1-1.253,1.253.74.74,0,0,0-1.047,1.047.886.886,0,0,1-.626,1.512Z" transform="translate(-86.064 -182.456)"/>
        <path id="Trazado_1043404" data-name="Trazado 1043404" d="M186.983,121.167a.883.883,0,0,1-.627-.26,2.512,2.512,0,1,1,3.553-3.552.886.886,0,0,1-1.253,1.253.74.74,0,0,0-1.047,1.047.886.886,0,0,1-.627,1.512Z" transform="translate(-165.283 -103.227)"/>
        <path id="Trazado_1043405" data-name="Trazado 1043405" d="M156.936,180.819a.886.886,0,1,1,.121-1.768,1.4,1.4,0,0,0,1.495-1.495.886.886,0,0,1,.823-.945C161.289,176.482,160.3,181.048,156.936,180.819Z" transform="translate(-139.161 -156.329)"/>
      </g>
    </g>
  </g>
</svg>
