<svg xmlns="http://www.w3.org/2000/svg" xmlns:xlink="http://www.w3.org/1999/xlink" width="110" height="110" viewBox="0 0 110 110">
  <defs>
    <filter id="Trazado_982547" x="0" y="0" width="110" height="110" filterUnits="userSpaceOnUse">
      <feOffset dy="3" input="SourceAlpha"/>
      <feGaussianBlur stdDeviation="3" result="blur"/>
      <feFlood flood-opacity="0.161"/>
      <feComposite operator="in" in2="blur"/>
      <feComposite in="SourceGraphic"/>
    </filter>
  </defs>
  <g id="Grupo_1183433" data-name="Grupo 1183433" transform="translate(140.196 -4301.275)">
    <g id="Grupo_1179604" data-name="Grupo 1179604" transform="translate(-937.196 79.275)">
      <g id="Grupo_1171898" data-name="Grupo 1171898" transform="translate(806 4228)">
        <g id="Grupo_1164700" data-name="Grupo 1164700" transform="translate(0 0)">
          <g id="Grupo_1160931" data-name="Grupo 1160931" transform="translate(0 0)">
            <g id="Grupo_1160749" data-name="Grupo 1160749" transform="translate(0 0)">
              <g id="Grupo_1158891" data-name="Grupo 1158891" transform="translate(0 0)">
                <g id="Grupo_1157406" data-name="Grupo 1157406" transform="translate(0 0)">
                  <g id="Grupo_1155793" data-name="Grupo 1155793">
                    <g id="Grupo_1154704" data-name="Grupo 1154704">
                      <g id="Grupo_1150790" data-name="Grupo 1150790">
                        <g id="Grupo_1154214" data-name="Grupo 1154214">
                          <g id="Grupo_1152583" data-name="Grupo 1152583">
                            <g id="Grupo_1146973" data-name="Grupo 1146973">
                              <g id="Grupo_1146954" data-name="Grupo 1146954">
                                <g transform="matrix(1, 0, 0, 1, -9, -6)" filter="url(#Trazado_982547)">
                                  <g id="Trazado_982547-2" data-name="Trazado 982547" transform="translate(9 6)" fill="#effbfe">
                                    <path d="M 46.00000762939453 90.49987030029297 C 39.99188613891602 90.49987030029297 34.16427612304688 89.32350921630859 28.67906188964844 87.00345611572266 C 23.38020706176758 84.76224517822266 18.62104797363281 81.55341339111328 14.53375434875488 77.46613311767578 C 10.44647407531738 73.37885284423828 7.237647533416748 68.61969757080078 4.996420860290527 63.32085418701172 C 2.676367521286011 57.83565521240234 1.500007629394531 52.008056640625 1.500007629394531 45.99993515014648 C 1.500007629394531 39.99181365966797 2.676367521286011 34.16421508789062 4.996420860290527 28.67901420593262 C 7.237647533416748 23.38017463684082 10.44647407531738 18.62101554870605 14.53375434875488 14.53373527526855 C 18.62104797363281 10.44645500183105 23.38020706176758 7.23762845993042 28.67906188964844 4.996415138244629 C 34.16427612304688 2.676361799240112 39.99188613891602 1.500001788139343 46.00000762939453 1.500001788139343 C 52.00812911987305 1.500001788139343 57.83573913574219 2.676361799240112 63.32095336914062 4.996415138244629 C 68.61980438232422 7.23762845993042 73.37896728515625 10.44645500183105 77.46626281738281 14.53373527526855 C 81.55354309082031 18.62101554870605 84.76236724853516 23.38017463684082 87.00359344482422 28.67901420593262 C 89.32364654541016 34.16421508789062 90.50000762939453 39.99181365966797 90.50000762939453 45.99993515014648 C 90.50000762939453 52.008056640625 89.32364654541016 57.83565521240234 87.00359344482422 63.32085418701172 C 84.76236724853516 68.61969757080078 81.55354309082031 73.37885284423828 77.46626281738281 77.46613311767578 C 73.37896728515625 81.55341339111328 68.61980438232422 84.76224517822266 63.32095336914062 87.00345611572266 C 57.83573913574219 89.32350921630859 52.00812911987305 90.49987030029297 46.00000762939453 90.49987030029297 Z" stroke="none"/>
                                    <path d="M 46.00000762939453 2.999992370605469 C 40.19372177124023 2.999992370605469 34.56270599365234 4.136489868164062 29.26339340209961 6.377906799316406 C 24.14333343505859 8.543502807617188 19.54443359375 11.64437866210938 15.59442138671875 15.59437561035156 C 11.6444091796875 19.54439544677734 8.543533325195312 24.14329528808594 6.377937316894531 29.26333618164062 C 4.136505126953125 34.56264877319336 3.000007629394531 40.19366455078125 3.000007629394531 45.99993515014648 C 3.000007629394531 51.80620574951172 4.136505126953125 57.43720626831055 6.377937316894531 62.73651885986328 C 8.543533325195312 67.8565673828125 11.6444091796875 72.45545959472656 15.59442138671875 76.40547943115234 C 19.54443359375 80.35547637939453 24.14333343505859 83.45635223388672 29.26339340209961 85.6219482421875 C 34.56270599365234 87.86336517333984 40.19372177124023 88.99986267089844 46.00000762939453 88.99986267089844 C 51.80629348754883 88.99986267089844 57.43730926513672 87.86336517333984 62.73663711547852 85.6219482421875 C 67.85668182373047 83.45635223388672 72.45559692382812 80.35547637939453 76.40560913085938 76.40547943115234 C 80.35560607910156 72.45545959472656 83.45649719238281 67.8565673828125 85.62209320068359 62.73651885986328 C 87.86351013183594 57.43720626831055 89.00000762939453 51.80620574951172 89.00000762939453 45.99993515014648 C 89.00000762939453 40.19366455078125 87.86351013183594 34.56264877319336 85.62209320068359 29.26333618164062 C 83.45649719238281 24.14329528808594 80.35560607910156 19.54439544677734 76.40560913085938 15.59437561035156 C 72.45559692382812 11.64437866210938 67.85668182373047 8.543502807617188 62.73663711547852 6.377906799316406 C 57.43730926513672 4.136489868164062 51.80629348754883 2.999992370605469 46.00000762939453 2.999992370605469 M 46.00000762939453 -7.62939453125e-06 C 71.40510559082031 -7.62939453125e-06 92.00000762939453 20.59486389160156 92.00000762939453 45.99993515014648 C 92.00000762939453 71.40499114990234 71.40510559082031 91.99986267089844 46.00000762939453 91.99986267089844 C 20.59492492675781 91.99986267089844 7.62939453125e-06 71.40499114990234 7.62939453125e-06 45.99993515014648 C 7.62939453125e-06 20.59486389160156 20.59492492675781 -7.62939453125e-06 46.00000762939453 -7.62939453125e-06 Z" stroke="none" fill="#397b86"/>
                                  </g>
                                </g>
                              </g>
                            </g>
                          </g>
                        </g>
                      </g>
                    </g>
                  </g>
                </g>
              </g>
            </g>
          </g>
        </g>
      </g>
    </g>
    <g id="Grupo_1182828" data-name="Grupo 1182828">
      <g id="empatia_1_" data-name="empatia (1)" transform="translate(-115.768 4315.674)">
        <g id="Grupo_1182826" data-name="Grupo 1182826" transform="translate(0.896 8.958)">
          <path id="Trazado_1043420" data-name="Trazado 1043420" d="M140.6,25.544c-.535-8.57-10.413-13.252-18.079-7.293-7.661-5.955-17.544-1.282-18.078,7.293-.558,8.983,8.731,15.244,16.673,19.5a2.968,2.968,0,0,0,2.81,0c7.967-4.267,17.231-10.529,16.674-19.5Z" transform="translate(-92.845 -15.575)" fill="#fdaab8"/>
          <path id="Trazado_1043421" data-name="Trazado 1043421" d="M111.2,26.756a21.177,21.177,0,0,1,2.967-10.841,10.526,10.526,0,0,0-9.727,9.928c-.558,8.983,8.731,15.244,16.673,19.5a2.971,2.971,0,0,0,1.637.344A21.276,21.276,0,0,1,111.2,26.756Z" transform="translate(-92.846 -15.874)" fill="#fd8aa4"/>
          <path id="Trazado_1043422" data-name="Trazado 1043422" d="M37.177,236.315a17.283,17.283,0,1,1,0-24.088Z" transform="translate(-7.5 -184.198)" fill="#5f66a5"/>
          <path id="Trazado_1043423" data-name="Trazado 1043423" d="M256,212.227a17.283,17.283,0,1,1,0,24.088Z" transform="translate(-226.323 -184.198)" fill="#fd8aa4"/>
          <path id="Trazado_1043424" data-name="Trazado 1043424" d="M14.872,224.349a20.984,20.984,0,0,1,8.155-16.623A17.284,17.284,0,0,0,24.782,242.2H24.8a21.005,21.005,0,0,1-9.924-17.854Z" transform="translate(-7.5 -184.848)" fill="#4c578c"/>
          <path id="Trazado_1043425" data-name="Trazado 1043425" d="M154.58,115.841c0,1.535-1.571,2.774-3.5,2.768s-3.485-1.255-3.481-2.79,1.571-2.774,3.5-2.768S154.585,114.307,154.58,115.841Z" transform="translate(-130.87 -101.426)" fill="#e6e5f7"/>
          <path id="Trazado_1043426" data-name="Trazado 1043426" d="M305.965,116.316c0,1.535,1.553,2.783,3.481,2.79s3.493-1.233,3.5-2.768-1.553-2.784-3.481-2.79S305.97,114.781,305.965,116.316Z" transform="translate(-270.321 -101.863)" fill="#e6e5f7"/>
          <path id="Trazado_1043427" data-name="Trazado 1043427" d="M238.126,104.675c.005-1.739-1.253-1.906-2.807-1.911s-2.814.155-2.819,1.893a2.831,2.831,0,1,0,5.626.018Z" transform="translate(-205.629 -92.365)" fill="#303646"/>
          <path id="Trazado_1043428" data-name="Trazado 1043428" d="M224.848,262.9a17.228,17.228,0,0,1-4.888,12.044,17.283,17.283,0,0,1,0-24.088A17.231,17.231,0,0,1,224.848,262.9Z" transform="translate(-190.284 -222.826)" fill="#9296d6"/>
        </g>
        <g id="Grupo_1182827" data-name="Grupo 1182827" transform="translate(0 8.061)">
          <path id="Trazado_1043429" data-name="Trazado 1043429" d="M5.808,61.141a.894.894,0,0,0,.079-1.263A16.378,16.378,0,0,1,29.323,37.056a18.146,18.146,0,0,0,0,24A16.405,16.405,0,0,1,8.387,62.18a.9.9,0,1,0-1.071,1.434,18.2,18.2,0,0,0,23.257-1.277,18.167,18.167,0,0,0,25.558-25.8.9.9,0,0,0-1.3,1.234A16.378,16.378,0,0,1,31.822,61.054a18.143,18.143,0,0,0,0-24,16.4,16.4,0,0,1,20.418-1.5.9.9,0,1,0,1.015-1.474,18.068,18.068,0,0,0-9.012-3.142c3.781-3.8,5.564-7.86,5.3-12.083a11.294,11.294,0,0,0-6.7-9.761,12.291,12.291,0,0,0-12.271,1.419A12.292,12.292,0,0,0,18.3,9.1a11.293,11.293,0,0,0-6.7,9.76c-.263,4.224,1.519,8.28,5.3,12.083A18.15,18.15,0,0,0,4.544,61.062a.9.9,0,0,0,1.264.079ZM34.565,49.055A16.28,16.28,0,0,1,30.573,59.76a16.354,16.354,0,0,1,0-21.412A16.33,16.33,0,0,1,34.565,49.055ZM13.389,18.971a9.53,9.53,0,0,1,5.649-8.24,10.622,10.622,0,0,1,10.985,1.607.9.9,0,0,0,1.1,0A10.621,10.621,0,0,1,42.107,10.73a9.532,9.532,0,0,1,5.651,8.241c.261,4.2-1.744,8.123-6.13,11.975a18.007,18.007,0,0,0-11.055,4.826,18.014,18.014,0,0,0-11.056-4.826c-4.385-3.851-6.39-7.77-6.129-11.975Z" transform="translate(0 -8.061)"/>
          <path id="Trazado_1043430" data-name="Trazado 1043430" d="M49.041,339.241v-1.433a.9.9,0,1,0-1.791,0v1.433a.9.9,0,0,0,1.791,0Z" transform="translate(-41.607 -297.688)"/>
          <path id="Trazado_1043431" data-name="Trazado 1043431" d="M173.958,339.241v-1.433a.9.9,0,1,0-1.791,0v1.433a.9.9,0,0,0,1.791,0Z" transform="translate(-151.606 -297.688)"/>
          <path id="Trazado_1043432" data-name="Trazado 1043432" d="M96.1,351.244a3.5,3.5,0,0,0,2.642-1.2.9.9,0,0,0-1.351-1.177,1.711,1.711,0,0,1-2.583,0,.9.9,0,0,0-1.351,1.177A3.5,3.5,0,0,0,96.1,351.244Z" transform="translate(-82.105 -307.943)"/>
          <path id="Trazado_1043433" data-name="Trazado 1043433" d="M450.654,340.137a.9.9,0,0,0,.9-.9v-1.433a.9.9,0,0,0-1.791,0v1.433A.9.9,0,0,0,450.654,340.137Z" transform="translate(-396.046 -297.688)"/>
          <path id="Trazado_1043434" data-name="Trazado 1043434" d="M324.841,337.808v1.433a.9.9,0,0,0,1.791,0v-1.433a.9.9,0,0,0-1.791,0Z" transform="translate(-286.047 -297.688)"/>
          <path id="Trazado_1043435" data-name="Trazado 1043435" d="M374.985,348.864a1.711,1.711,0,0,1-2.583,0,.9.9,0,0,0-1.351,1.177,3.5,3.5,0,0,0,5.284,0,.9.9,0,0,0-1.35-1.177Z" transform="translate(-326.545 -307.943)"/>
          <path id="Trazado_1043436" data-name="Trazado 1043436" d="M228.7,102.123h.011a3.887,3.887,0,0,0,3.71-4.032c.009-2.8-2.59-2.806-3.7-2.809-2.139-.008-3.71.52-3.718,2.786a3.887,3.887,0,0,0,3.7,4.055Zm-1.569-4.853a4.274,4.274,0,0,1,1.585-.2c1.84.006,1.916.314,1.914,1.012a2.115,2.115,0,0,1-1.919,2.246h-.005a2.114,2.114,0,0,1-1.91-2.258C226.8,97.438,227.007,97.333,227.132,97.27Z" transform="translate(-198.134 -84.879)"/>
          <path id="Trazado_1043437" data-name="Trazado 1043437" d="M173.417,93.111h0a.9.9,0,0,0,.9-.893.766.766,0,0,1,.765-.763h0a.766.766,0,0,1,.763.767.9.9,0,0,0,.893.9h0a.9.9,0,0,0,.9-.893,2.559,2.559,0,0,0-2.548-2.564h-.008a2.559,2.559,0,0,0-2.556,2.548A.9.9,0,0,0,173.417,93.111Z" transform="translate(-151.92 -79.931)"/>
          <path id="Trazado_1043438" data-name="Trazado 1043438" d="M297.725,93.5h0a.9.9,0,0,0,.9-.893.765.765,0,1,1,1.53,0,.9.9,0,0,0,.893.9h0a.9.9,0,0,0,.9-.893,2.555,2.555,0,0,0-2.548-2.565h-.008a2.559,2.559,0,0,0-2.556,2.549A.9.9,0,0,0,297.725,93.5Z" transform="translate(-261.383 -80.273)"/>
        </g>
      </g>
    </g>
  </g>
</svg>
