<svg xmlns="http://www.w3.org/2000/svg" xmlns:xlink="http://www.w3.org/1999/xlink" width="110" height="110" viewBox="0 0 110 110">
  <defs>
    <filter id="Trazado_982547" x="0" y="0" width="110" height="110" filterUnits="userSpaceOnUse">
      <feOffset dy="3" input="SourceAlpha"/>
      <feGaussianBlur stdDeviation="3" result="blur"/>
      <feFlood flood-opacity="0.161"/>
      <feComposite operator="in" in2="blur"/>
      <feComposite in="SourceGraphic"/>
    </filter>
  </defs>
  <g id="Grupo_1182855" data-name="Grupo 1182855" transform="translate(140.196 -4661.275)">
    <g id="Grupo_1179606" data-name="Grupo 1179606" transform="translate(-937.196 439.275)">
      <g id="Grupo_1171898" data-name="Grupo 1171898" transform="translate(806 4228)">
        <g id="Grupo_1164700" data-name="Grupo 1164700" transform="translate(0 0)">
          <g id="Grupo_1160931" data-name="Grupo 1160931" transform="translate(0 0)">
            <g id="Grupo_1160749" data-name="Grupo 1160749" transform="translate(0 0)">
              <g id="Grupo_1158891" data-name="Grupo 1158891" transform="translate(0 0)">
                <g id="Grupo_1157406" data-name="Grupo 1157406" transform="translate(0 0)">
                  <g id="Grupo_1155793" data-name="Grupo 1155793">
                    <g id="Grupo_1154704" data-name="Grupo 1154704">
                      <g id="Grupo_1150790" data-name="Grupo 1150790">
                        <g id="Grupo_1154214" data-name="Grupo 1154214">
                          <g id="Grupo_1152583" data-name="Grupo 1152583">
                            <g id="Grupo_1146973" data-name="Grupo 1146973">
                              <g id="Grupo_1146954" data-name="Grupo 1146954">
                                <g transform="matrix(1, 0, 0, 1, -9, -6)" filter="url(#Trazado_982547)">
                                  <g id="Trazado_982547-2" data-name="Trazado 982547" transform="translate(9 6)" fill="#effbfe">
                                    <path d="M 46.00000762939453 90.49987030029297 C 39.99188613891602 90.49987030029297 34.16427612304688 89.32350921630859 28.67906188964844 87.00345611572266 C 23.38020706176758 84.76224517822266 18.62104797363281 81.55341339111328 14.53375434875488 77.46613311767578 C 10.44647407531738 73.37885284423828 7.237647533416748 68.61969757080078 4.996420860290527 63.32085418701172 C 2.676367521286011 57.83565521240234 1.500007629394531 52.008056640625 1.500007629394531 45.99993515014648 C 1.500007629394531 39.99181365966797 2.676367521286011 34.16421508789062 4.996420860290527 28.67901420593262 C 7.237647533416748 23.38017463684082 10.44647407531738 18.62101554870605 14.53375434875488 14.53373527526855 C 18.62104797363281 10.44645500183105 23.38020706176758 7.23762845993042 28.67906188964844 4.996415138244629 C 34.16427612304688 2.676361799240112 39.99188613891602 1.500001788139343 46.00000762939453 1.500001788139343 C 52.00812911987305 1.500001788139343 57.83573913574219 2.676361799240112 63.32095336914062 4.996415138244629 C 68.61980438232422 7.23762845993042 73.37896728515625 10.44645500183105 77.46626281738281 14.53373527526855 C 81.55354309082031 18.62101554870605 84.76236724853516 23.38017463684082 87.00359344482422 28.67901420593262 C 89.32364654541016 34.16421508789062 90.50000762939453 39.99181365966797 90.50000762939453 45.99993515014648 C 90.50000762939453 52.008056640625 89.32364654541016 57.83565521240234 87.00359344482422 63.32085418701172 C 84.76236724853516 68.61969757080078 81.55354309082031 73.37885284423828 77.46626281738281 77.46613311767578 C 73.37896728515625 81.55341339111328 68.61980438232422 84.76224517822266 63.32095336914062 87.00345611572266 C 57.83573913574219 89.32350921630859 52.00812911987305 90.49987030029297 46.00000762939453 90.49987030029297 Z" stroke="none"/>
                                    <path d="M 46.00000762939453 2.999992370605469 C 40.19372177124023 2.999992370605469 34.56270599365234 4.136489868164062 29.26339340209961 6.377906799316406 C 24.14333343505859 8.543502807617188 19.54443359375 11.64437866210938 15.59442138671875 15.59437561035156 C 11.6444091796875 19.54439544677734 8.543533325195312 24.14329528808594 6.377937316894531 29.26333618164062 C 4.136505126953125 34.56264877319336 3.000007629394531 40.19366455078125 3.000007629394531 45.99993515014648 C 3.000007629394531 51.80620574951172 4.136505126953125 57.43720626831055 6.377937316894531 62.73651885986328 C 8.543533325195312 67.8565673828125 11.6444091796875 72.45545959472656 15.59442138671875 76.40547943115234 C 19.54443359375 80.35547637939453 24.14333343505859 83.45635223388672 29.26339340209961 85.6219482421875 C 34.56270599365234 87.86336517333984 40.19372177124023 88.99986267089844 46.00000762939453 88.99986267089844 C 51.80629348754883 88.99986267089844 57.43730926513672 87.86336517333984 62.73663711547852 85.6219482421875 C 67.85668182373047 83.45635223388672 72.45559692382812 80.35547637939453 76.40560913085938 76.40547943115234 C 80.35560607910156 72.45545959472656 83.45649719238281 67.8565673828125 85.62209320068359 62.73651885986328 C 87.86351013183594 57.43720626831055 89.00000762939453 51.80620574951172 89.00000762939453 45.99993515014648 C 89.00000762939453 40.19366455078125 87.86351013183594 34.56264877319336 85.62209320068359 29.26333618164062 C 83.45649719238281 24.14329528808594 80.35560607910156 19.54439544677734 76.40560913085938 15.59437561035156 C 72.45559692382812 11.64437866210938 67.85668182373047 8.543502807617188 62.73663711547852 6.377906799316406 C 57.43730926513672 4.136489868164062 51.80629348754883 2.999992370605469 46.00000762939453 2.999992370605469 M 46.00000762939453 -7.62939453125e-06 C 71.40510559082031 -7.62939453125e-06 92.00000762939453 20.59486389160156 92.00000762939453 45.99993515014648 C 92.00000762939453 71.40499114990234 71.40510559082031 91.99986267089844 46.00000762939453 91.99986267089844 C 20.59492492675781 91.99986267089844 7.62939453125e-06 71.40499114990234 7.62939453125e-06 45.99993515014648 C 7.62939453125e-06 20.59486389160156 20.59492492675781 -7.62939453125e-06 46.00000762939453 -7.62939453125e-06 Z" stroke="none" fill="#397b86"/>
                                  </g>
                                </g>
                              </g>
                            </g>
                          </g>
                        </g>
                      </g>
                    </g>
                  </g>
                </g>
              </g>
            </g>
          </g>
        </g>
      </g>
    </g>
    <g id="ajustes" transform="translate(-116.836 4654.477)">
      <g id="Grupo_1182853" data-name="Grupo 1182853" transform="translate(0.927 31.916)">
        <g id="Grupo_1182851" data-name="Grupo 1182851" transform="translate(0 0)">
          <path id="Trazado_1043460" data-name="Trazado 1043460" d="M44.459,56.97A18.479,18.479,0,1,0,14.313,71.3a9.725,9.725,0,0,1,3.581,7.539v4.173H34.065V78.84a9.782,9.782,0,0,1,3.61-7.564A18.441,18.441,0,0,0,44.459,56.97Z" transform="translate(-7.5 -38.49)" fill="#f9ee80"/>
          <path id="Trazado_1043461" data-name="Trazado 1043461" d="M31.448,85.515A30.65,30.65,0,0,1,22.4,41.346,18.477,18.477,0,0,0,14.313,73.8a9.725,9.725,0,0,1,3.581,7.539v4.173Z" transform="translate(-7.5 -40.993)" fill="#fdc072"/>
        </g>
        <path id="Trazado_1043462" data-name="Trazado 1043462" d="M88.606,384.248H72.988a2.94,2.94,0,0,1,0-5.88H88.606a2.94,2.94,0,1,1,0,5.88Z" transform="translate(-62.317 -336.361)" fill="#2a4f95"/>
        <path id="Trazado_1043463" data-name="Trazado 1043463" d="M88.606,431.82H72.988a2.94,2.94,0,1,1,0-5.88H88.606a2.94,2.94,0,1,1,0,5.88Z" transform="translate(-62.317 -378.054)" fill="#00388b"/>
        <g id="Grupo_1182852" data-name="Grupo 1182852" transform="translate(29.229 13.648)">
          <path id="Trazado_1043464" data-name="Trazado 1043464" d="M274.832,161.711h-3.306a11.827,11.827,0,0,0-1.014-2.445l2.339-2.339a1.356,1.356,0,0,0,0-1.917l-2.756-2.756a1.356,1.356,0,0,0-1.917,0l-2.339,2.339a11.827,11.827,0,0,0-2.445-1.014v-3.306a1.356,1.356,0,0,0-1.356-1.356h-3.9a1.356,1.356,0,0,0-1.356,1.356v3.306a11.826,11.826,0,0,0-2.445,1.014L252,152.254a1.356,1.356,0,0,0-1.917,0l-2.756,2.756a1.356,1.356,0,0,0,0,1.917l2.339,2.339a11.828,11.828,0,0,0-1.014,2.445h-3.306a1.356,1.356,0,0,0-1.356,1.356v3.9a1.356,1.356,0,0,0,1.356,1.356h3.306a11.825,11.825,0,0,0,1.014,2.445l-2.339,2.339a1.356,1.356,0,0,0,0,1.917l2.756,2.756a1.356,1.356,0,0,0,1.917,0l2.339-2.339a11.828,11.828,0,0,0,2.445,1.014v3.306a1.356,1.356,0,0,0,1.356,1.356h3.9a1.356,1.356,0,0,0,1.356-1.356v-3.306a11.825,11.825,0,0,0,2.445-1.014l2.339,2.339a1.356,1.356,0,0,0,1.917,0l2.756-2.756a1.356,1.356,0,0,0,0-1.917l-2.339-2.339a11.829,11.829,0,0,0,1.014-2.445h3.306a1.356,1.356,0,0,0,1.356-1.356v-3.9A1.356,1.356,0,0,0,274.832,161.711Zm-14.743,8.959a5.654,5.654,0,1,1,5.654-5.654A5.654,5.654,0,0,1,260.089,170.67Z" transform="translate(-243.991 -148.917)" fill="#2a4f95"/>
          <path id="Trazado_1043465" data-name="Trazado 1043465" d="M253.758,165.016a15.439,15.439,0,0,1,9.636-14.307v-.436a1.356,1.356,0,0,0-1.356-1.356h-3.9a1.356,1.356,0,0,0-1.356,1.356v3.306a11.826,11.826,0,0,0-2.445,1.014L252,152.254a1.356,1.356,0,0,0-1.917,0l-2.756,2.756a1.356,1.356,0,0,0,0,1.917l2.339,2.339a11.828,11.828,0,0,0-1.014,2.445h-3.306a1.356,1.356,0,0,0-1.356,1.356v3.9a1.356,1.356,0,0,0,1.356,1.356h3.306a11.825,11.825,0,0,0,1.014,2.445l-2.339,2.339a1.356,1.356,0,0,0,0,1.917l2.756,2.756a1.356,1.356,0,0,0,1.917,0l2.339-2.339a11.828,11.828,0,0,0,2.445,1.014v3.306a1.356,1.356,0,0,0,1.356,1.356h3.9a1.356,1.356,0,0,0,1.356-1.356v-.436A15.438,15.438,0,0,1,253.758,165.016Z" transform="translate(-243.99 -148.917)" fill="#00388b"/>
        </g>
        <ellipse id="Elipse_12503" data-name="Elipse 12503" cx="3.824" cy="3.045" rx="3.824" ry="3.045" transform="translate(4.293 13.066)" fill="#ffa1ac"/>
        <ellipse id="Elipse_12504" data-name="Elipse 12504" cx="3.824" cy="3.045" rx="3.824" ry="3.045" transform="translate(25.019 13.066)" fill="#ffa1ac"/>
        <ellipse id="Elipse_12505" data-name="Elipse 12505" cx="2.03" cy="2.271" rx="2.03" ry="2.271" transform="translate(16.45 11.5)" fill="#3e4f61"/>
      </g>
      <g id="Grupo_1182854" data-name="Grupo 1182854" transform="translate(0 30.989)">
        <path id="Trazado_1043466" data-name="Trazado 1043466" d="M327.577,225.925a6.581,6.581,0,1,0,6.581,6.581A6.589,6.589,0,0,0,327.577,225.925Zm0,11.308a4.727,4.727,0,1,1,4.727-4.727A4.733,4.733,0,0,1,327.577,237.233Z" transform="translate(-281.323 -201.832)"/>
        <path id="Trazado_1043467" data-name="Trazado 1043467" d="M61,57.431H58.368a12.786,12.786,0,0,0-.556-1.341l1.86-1.859a2.286,2.286,0,0,0,0-3.228l-2.756-2.756a2.286,2.286,0,0,0-3.228,0l-1.859,1.859a12.786,12.786,0,0,0-1.341-.556V46.92A2.285,2.285,0,0,0,48.2,44.637h-3.9a2.285,2.285,0,0,0-2.283,2.283v2.629a12.821,12.821,0,0,0-1.341.556l-1.859-1.859c-.045-.045-.093-.087-.142-.128A19.412,19.412,0,0,0,19.544,30.989h-.131a19.389,19.389,0,0,0-12.33,4.457.927.927,0,0,0,1.181,1.429A17.513,17.513,0,0,1,36.741,47.627a2.269,2.269,0,0,0-1.148.619L32.837,51a2.286,2.286,0,0,0,0,3.228L34.7,56.09a12.8,12.8,0,0,0-.556,1.341H31.511a2.285,2.285,0,0,0-2.283,2.283v3.9a2.267,2.267,0,0,0,.361,1.227,10.672,10.672,0,0,0-3.024,7.427V73H12.247v-.731a10.607,10.607,0,0,0-3.922-8.257A17.5,17.5,0,0,1,1.854,50.4,17.312,17.312,0,0,1,5.669,39.519a.927.927,0,0,0-1.451-1.154,19.347,19.347,0,0,0,2.936,27.08,8.76,8.76,0,0,1,3.239,6.819v.924A3.863,3.863,0,0,0,9.09,79.8,3.864,3.864,0,0,0,11.6,86.609H21.845a.927.927,0,1,0,0-1.854H11.6a2.013,2.013,0,0,1,0-4.026H27.216a2.013,2.013,0,0,1,0,4.026h-1.7a.927.927,0,1,0,0,1.854h1.7A3.864,3.864,0,0,0,29.723,79.8a3.863,3.863,0,0,0-1.3-6.614v-.923a8.831,8.831,0,0,1,2.763-6.4,2.277,2.277,0,0,0,.329.027H34.14a12.8,12.8,0,0,0,.556,1.341L32.837,69.1a2.286,2.286,0,0,0,0,3.228l2.756,2.756a2.285,2.285,0,0,0,3.229,0l1.859-1.859a12.789,12.789,0,0,0,1.341.556v2.629a2.285,2.285,0,0,0,2.283,2.283h3.9a2.285,2.285,0,0,0,2.283-2.283V73.777a12.818,12.818,0,0,0,1.341-.556l1.859,1.859a2.285,2.285,0,0,0,3.228,0l2.756-2.756a2.286,2.286,0,0,0,0-3.228l-1.86-1.859a12.786,12.786,0,0,0,.556-1.341H61a2.285,2.285,0,0,0,2.283-2.283v-3.9A2.286,2.286,0,0,0,61,57.431ZM29.228,76.863a2.015,2.015,0,0,1-2.013,2.013H11.6a2.013,2.013,0,1,1,0-4.026H27.216A2.015,2.015,0,0,1,29.228,76.863Zm32.2-13.251a.429.429,0,0,1-.429.429H57.691a.927.927,0,0,0-.891.67,10.915,10.915,0,0,1-.934,2.253.927.927,0,0,0,.156,1.1l2.339,2.339a.429.429,0,0,1,0,.607L55.6,73.769a.429.429,0,0,1-.606,0l-2.339-2.339a.927.927,0,0,0-1.1-.156,10.919,10.919,0,0,1-2.253.934.927.927,0,0,0-.67.891v3.306a.429.429,0,0,1-.429.429H44.3a.429.429,0,0,1-.429-.429V73.1a.927.927,0,0,0-.67-.891,10.917,10.917,0,0,1-2.253-.934.927.927,0,0,0-1.1.156l-2.339,2.339a.429.429,0,0,1-.606,0l-2.756-2.756a.429.429,0,0,1,0-.607l2.339-2.339a.927.927,0,0,0,.156-1.1,10.919,10.919,0,0,1-.934-2.253.927.927,0,0,0-.891-.67H31.511a.429.429,0,0,1-.429-.429v-3.9a.429.429,0,0,1,.429-.429h3.306a.927.927,0,0,0,.891-.67,10.912,10.912,0,0,1,.934-2.253.927.927,0,0,0-.156-1.1l-2.339-2.339a.429.429,0,0,1,0-.607L36.9,49.556a.429.429,0,0,1,.606,0l2.339,2.339a.927.927,0,0,0,1.1.156,10.92,10.92,0,0,1,2.253-.934.927.927,0,0,0,.67-.891V46.92a.429.429,0,0,1,.429-.429h3.9a.429.429,0,0,1,.429.429v3.306a.927.927,0,0,0,.67.891,10.929,10.929,0,0,1,2.253.934.927.927,0,0,0,1.1-.156L55,49.556a.429.429,0,0,1,.606,0l2.756,2.756a.43.43,0,0,1,0,.607l-2.339,2.339a.927.927,0,0,0-.156,1.1,10.932,10.932,0,0,1,.934,2.253.927.927,0,0,0,.891.67H61a.429.429,0,0,1,.429.429v3.9Z" transform="translate(0 -30.989)"/>
        <path id="Trazado_1043468" data-name="Trazado 1043468" d="M139.008,127.233a2.966,2.966,0,1,0-2.957,3.2A3.088,3.088,0,0,0,139.008,127.233Zm-4.059,0a1.124,1.124,0,1,1,1.1,1.344A1.243,1.243,0,0,1,134.949,127.233Z" transform="translate(-116.645 -112.535)"/>
        <path id="Trazado_1043469" data-name="Trazado 1043469" d="M74.565,121.207a.927.927,0,0,0,.927-.927.774.774,0,0,1,1.549,0,.927.927,0,1,0,1.854,0,2.628,2.628,0,0,0-5.257,0A.927.927,0,0,0,74.565,121.207Z" transform="translate(-64.537 -106.941)"/>
        <path id="Trazado_1043470" data-name="Trazado 1043470" d="M198.537,120.28a.774.774,0,0,1,1.549,0,.927.927,0,1,0,1.854,0,2.628,2.628,0,0,0-5.257,0,.927.927,0,1,0,1.854,0Z" transform="translate(-172.374 -106.941)"/>
      </g>
    </g>
  </g>
</svg>
