<svg xmlns="http://www.w3.org/2000/svg" xmlns:xlink="http://www.w3.org/1999/xlink" width="190" height="197" viewBox="0 0 190 197">
  <defs>
    <clipPath id="clip-path">
      <rect id="Rectángulo_416034" data-name="Rectángulo 416034" width="190" height="197" transform="translate(810 5481)" fill="#fff" stroke="#707070" stroke-width="1"/>
    </clipPath>
  </defs>
  <g id="Enmascarar_grupo_1098829" data-name="Enmascarar grupo 1098829" transform="translate(-810 -5481)" clip-path="url(#clip-path)">
    <g id="Grupo_1183108" data-name="Grupo 1183108" transform="translate(810 5512.268)">
      <path id="Trazado_1044284" data-name="Trazado 1044284" d="M1109.478,257.82c-7.33,0-7.745-10.575-6.086-15.345,0,0-9.541-6.222-3.733-18.045s14.519-.622,15.763,2.074,12.652-10.163,19.082-9.541,6.637,7.467,8.089,7.467,10.96-2.489,16.473,1.245,1.564,7.467,2.709,9.333,9.649,3.941,3.426,10.371c0,0,10.371-1.037,11.408,4.148s-2.489,7.259-2.074,9.126,9.333,12.647-9.334,16.176c0,0-.544,28.418-24.021,17.218S1109.478,257.82,1109.478,257.82Z" transform="translate(-1029.3 -216.941)" fill="#a56a42"/>
      <path id="Trazado_1044285" data-name="Trazado 1044285" d="M1031.265,480.653l5.332,53.175h31.85c-3.5-9.251-13.326-35.083-16.377-41.689-3.733-8.089-10.993-8.711-10.993-8.711A42.452,42.452,0,0,0,1031.265,480.653Z" transform="translate(-896.881 -386.128)" fill="#3bad96"/>
      <path id="Trazado_1044286" data-name="Trazado 1044286" d="M1264.434,534.446H1305.4V481.617a74.162,74.162,0,0,0-8.05,2.255,22.747,22.747,0,0,0-12.069,9.714C1281.936,499.32,1269.86,523.523,1264.434,534.446Z" transform="translate(-1217.412 -386.747)" fill="#3bad96"/>
      <path id="Trazado_1044287" data-name="Trazado 1044287" d="M1107.621,529.734h67.59v-50.4a42.438,42.438,0,0,0-9.813-2.774,172.9,172.9,0,0,0-19.674-2.2A101.88,101.88,0,0,0,1119,476.9a74.148,74.148,0,0,0-8.05,2.256l-1.91,28.964-.514,7.86Z" transform="translate(-1031.013 -382.034)" fill="#3bad96"/>
      <path id="Trazado_1044288" data-name="Trazado 1044288" d="M1392.35,485.794l.078,3.517,1.058,46.884H1416.3c-2.562-7.635-12.233-36.664-14.761-47.774a14.013,14.013,0,0,1-.579-4.079Z" transform="translate(-1374.157 -388.495)" fill="#ffaf82"/>
      <path id="Trazado_1044290" data-name="Trazado 1044290" d="M1057.65,605.731c-8.847.194-15.6,10.415-6.581,22.63a1.676,1.676,0,0,0,3.009-.871,9.6,9.6,0,0,0-.162-2.677s2.281,2.593,3.734-.1c0,0,.933,2.281,3.526.311,0,0,1.037,2.9,4.045,1.141s5.912-11.615,2.9-16.489S1057.65,605.731,1057.65,605.731Z" transform="translate(-903.395 -466.328)" fill="#ffaf82"/>
      <path id="Trazado_1044291" data-name="Trazado 1044291" d="M1060.456,641.158a.648.648,0,0,0,.548-.3c2.759-4.35,3-10.139,3-10.383a.648.648,0,0,0-1.3-.047c0,.057-.237,5.687-2.8,9.736a.647.647,0,0,0,.2.894A.632.632,0,0,0,1060.456,641.158Z" transform="translate(-902.673 -481.818)" fill="#fe976a"/>
      <path id="Trazado_1044292" data-name="Trazado 1044292" d="M1076.5,638.062a.649.649,0,0,0,.635-.521,38.068,38.068,0,0,0,.453-11.521.648.648,0,0,0-1.284.179,37.459,37.459,0,0,1-.44,11.087.648.648,0,0,0,.509.763A.661.661,0,0,0,1076.5,638.062Z" transform="translate(-922.248 -479.031)" fill="#fe976a"/>
      <path id="Trazado_1044293" data-name="Trazado 1044293" d="M1089.843,638.723a.648.648,0,0,0,.579-.938c-1.652-3.3-.674-10.645-.663-10.719a.648.648,0,0,0-1.285-.176c-.043.317-1.043,7.811.788,11.474A.643.643,0,0,0,1089.843,638.723Z" transform="translate(-939.318 -479.589)" fill="#fe976a"/>
      <g id="Grupo_1183101" data-name="Grupo 1183101" transform="translate(77.514 126.09)">
        <path id="Trazado_1044294" data-name="Trazado 1044294" d="M1107.623,576.576a198.324,198.324,0,0,0,43.9,5.077,153.337,153.337,0,0,0,22.78-1.6v-7.9c-10.327,1.629-34.65,3.9-66.168-3.435Z" transform="translate(-1107.623 -568.716)" fill="#0091cc"/>
      </g>
      <path id="Trazado_1044295" data-name="Trazado 1044295" d="M1160.859,399.605v29.128s1.318,8.089,10.444,7.467a10.925,10.925,0,0,0,10.37-8.919V399.605h-20.814Z" transform="translate(-1056.558 -334.131)" fill="#ffaf82"/>
      <path id="Trazado_1044296" data-name="Trazado 1044296" d="M1160.86,399.605v27.024c12.47-.527,17.785-10.842,20.814-20.585v-6.439Z" transform="translate(-1056.56 -334.131)" fill="#fe976a"/>
      <path id="Trazado_1044297" data-name="Trazado 1044297" d="M1156.754,274.092c-9.333,16.334-13.067,57.4,13.067,57.4s33.6-21.467,27.534-46.2S1156.754,274.092,1156.754,274.092Z" transform="translate(-1070.244 -251.237)" fill="#ffaf82"/>
      <path id="Trazado_1044298" data-name="Trazado 1044298" d="M1117.746,372.084c2.671,8.244,17.315,5.84,18.2-3.415.857-8.979-9.362-12.81-16.074-6.9S1117.746,372.084,1117.746,372.084Z" transform="translate(-994.878 -308.039)" fill="#ffaf82"/>
      <path id="Trazado_1044299" data-name="Trazado 1044299" d="M1135.99,379.156a.649.649,0,0,0,.521-1.033c-.026-.035-2.642-3.658-1.232-6.368a.648.648,0,1,0-1.151-.6c-1.784,3.43,1.21,7.562,1.339,7.736A.644.644,0,0,0,1135.99,379.156Z" transform="translate(-1001.739 -315.656)" fill="#fe976a"/>
      <path id="Trazado_1044300" data-name="Trazado 1044300" d="M1141.866,382.31a8.791,8.791,0,0,0,2.792-.4.648.648,0,1,0-.418-1.227,11.579,11.579,0,0,1-5.391-.016.648.648,0,0,0-.313,1.258A15.191,15.191,0,0,0,1141.866,382.31Z" transform="translate(-1011.805 -321.966)" fill="#fe976a"/>
      <path id="Trazado_1044301" data-name="Trazado 1044301" d="M1229.09,402.373a13.333,13.333,0,0,0,6.52-1.964.648.648,0,0,0-.717-1.08c-.29.192-7.139,4.618-11.627-1.275a.648.648,0,1,0-1.031.785A8.3,8.3,0,0,0,1229.09,402.373Z" transform="translate(-1132.736 -332.972)" fill="#6a2810"/>
      <path id="Trazado_1044302" data-name="Trazado 1044302" d="M1189.02,373.991a4.093,4.093,0,0,0,1.888-.479,3.048,3.048,0,0,0,1.762-2.628,3.453,3.453,0,0,0-1.481-2.965,1.857,1.857,0,0,0-1.9-.117.648.648,0,0,0,.61,1.144.548.548,0,0,1,.6.071,2.161,2.161,0,0,1,.876,1.815,1.758,1.758,0,0,1-1.064,1.53,2.453,2.453,0,0,1-3.034-.42,3.72,3.72,0,0,1-.447-4.4,3.416,3.416,0,0,1,3.3-2.006,3.2,3.2,0,0,1,2.784,2.117.648.648,0,1,0,1.223-.429,4.491,4.491,0,0,0-3.91-2.98,4.716,4.716,0,0,0-4.547,2.691,5.008,5.008,0,0,0,.672,5.925A3.718,3.718,0,0,0,1189.02,373.991Z" transform="translate(-1077.722 -311.432)" fill="#fe976a"/>
      <path id="Trazado_1044303" data-name="Trazado 1044303" d="M1266.512,362.758a4.09,4.09,0,0,0,1.888-.479,3.047,3.047,0,0,0,1.762-2.628,3.454,3.454,0,0,0-1.482-2.965,1.856,1.856,0,0,0-1.9-.117.648.648,0,1,0,.609,1.144.546.546,0,0,1,.6.071,2.161,2.161,0,0,1,.876,1.815,1.757,1.757,0,0,1-1.064,1.531,2.454,2.454,0,0,1-3.034-.42,3.72,3.72,0,0,1-.447-4.4,3.417,3.417,0,0,1,3.3-2.006,3.2,3.2,0,0,1,2.783,2.117.648.648,0,0,0,1.224-.429,4.492,4.492,0,0,0-3.909-2.98,4.713,4.713,0,0,0-4.547,2.691,5.007,5.007,0,0,0,.671,5.925A3.714,3.714,0,0,0,1266.512,362.758Z" transform="translate(-1182.991 -304.227)" fill="#fe976a"/>
      <path id="Trazado_1044304" data-name="Trazado 1044304" d="M1247.5,361.335a.648.648,0,0,0,.368-1.182l-5.122-3.527,5.288-7.659a.648.648,0,0,0-1.067-.736l-5.657,8.193a.648.648,0,0,0,.166.9l5.656,3.895A.653.653,0,0,0,1247.5,361.335Z" transform="translate(-1151.836 -300.992)" fill="#6a2810"/>
      <path id="Trazado_1044305" data-name="Trazado 1044305" d="M1197.782,341.2c0,1.743.7,2.724,1.566,2.724s1.566-.981,1.566-2.724-.7-2.678-1.566-2.678S1197.782,339.459,1197.782,341.2Z" transform="translate(-1089.033 -294.943)" fill="#6a2810"/>
      <path id="Trazado_1044306" data-name="Trazado 1044306" d="M1256.861,333.666c0,1.743.7,2.724,1.566,2.724s1.566-.981,1.566-2.724-.7-2.678-1.566-2.678S1256.861,331.923,1256.861,333.666Z" transform="translate(-1169.29 -290.109)" fill="#6a2810"/>
      <path id="Trazado_1044307" data-name="Trazado 1044307" d="M1135.587,270.957c5.065-6.666,8.264-3.733,10.526,0s5.167.8,8.485-1.987,9.44-1.953,8.764,2.195,2.9,5.807,7.854,2.7,10.76,3.733,7.857,7.052-3.3,9.272,3.224,10.444,7.994-4.74,7.363-13.5-2.876-24.941-25.5-26.393-27.255,8.3-28.57,11.822S1135.587,270.957,1135.587,270.957Z" transform="translate(-1055.409 -238.993)" fill="#a56a42"/>
      <path id="Trazado_1044308" data-name="Trazado 1044308" d="M1142.5,271.563c1.957-2.2,3.6-2.833,5-2.562,1.661.325,2.981,1.924,4.067,3.726.909,1.5,1.924,1.867,3.03,1.6h0c1.522-.374,3.216-1.957,5.042-3.487a6.977,6.977,0,0,1,4.987-1.517c2.073.2,3.709,1.414,3.351,3.606-.452,2.78,1.1,4.383,3.7,4.059a9.528,9.528,0,0,0,3.771-1.492,4.686,4.686,0,0,1,3.162-.711c3.6.481,6.464,4.967,4.314,7.422-2.763,3.158-3.141,8.824,3.067,9.939a7.443,7.443,0,0,0,2.052.111c4.466-.4,5.481-5.634,4.955-12.961-.6-8.339-2.738-23.734-24.269-25.116q-1.948-.123-3.721-.136h-.061c-17.221.255-21.021,8.31-22.172,11.386A11.85,11.85,0,0,0,1142.5,271.563Z" transform="translate(-1061.341 -240.741)" fill="#fe976a"/>
      <path id="Trazado_1044309" data-name="Trazado 1044309" d="M1138.91,269.741c.152.756.3,1.223.3,1.223,1.9-2.5,3.534-3.647,4.956-3.915,2.377-.441,4.157,1.581,5.57,3.915a3.4,3.4,0,0,0,1.888,1.676h0c1.91.54,4.14-1.6,6.594-3.664a7.274,7.274,0,0,1,3.945-1.594c2.731-.251,5.263,1.041,4.818,3.789-.393,2.424.661,4,2.6,4.265a8.231,8.231,0,0,0,5.259-1.569,5.081,5.081,0,0,1,2.026-.748c4.334-.579,8.34,4.93,5.829,7.8-2.9,3.318-3.3,9.273,3.224,10.444.3.052.583.091.86.117,4.693-.423,5.76-5.92,5.207-13.62-.631-8.763-2.878-24.941-25.5-26.393q-2.047-.13-3.911-.143h-.065c-18.1.268-22.089,8.733-23.3,11.965A12.517,12.517,0,0,0,1138.91,269.741Z" transform="translate(-1059.034 -239.001)" fill="#a56a42"/>
      <path id="Trazado_1044310" data-name="Trazado 1044310" d="M1424.836,444.149c2.078,3.837,8.4,6.015,11,6.222s6.292,1.447,6.326,3.008l.078,3.517,9.109-.89a14.023,14.023,0,0,1-.579-4.079,17.492,17.492,0,0,1,2.8-7.882c2.7-4.356.311-8.4-1.763-6.534s-2.074,5.807-4.459,6.119-7.052-1.452-10.993-4.563-6.844-7.363-8.608-4.045c0,0-3.837-.519-2.7,3.837C1425.044,438.859,1422.757,440.312,1424.836,444.149Z" transform="translate(-1423.963 -356.079)" fill="#ffaf82"/>
      <path id="Trazado_1044311" data-name="Trazado 1044311" d="M1479.652,446a.648.648,0,0,0,.184-1.27c-8.936-2.651-9.9-8.742-9.913-8.8a.648.648,0,0,0-1.284.184c.041.284,1.1,6.978,10.828,9.863A.669.669,0,0,0,1479.652,446Z" transform="translate(-1465.503 -357.078)" fill="#fe976a"/>
      <path id="Trazado_1044312" data-name="Trazado 1044312" d="M1488.663,454.531a.648.648,0,0,0,.078-1.291c-6.283-.773-9-6.716-9.027-6.775a.648.648,0,0,0-1.185.525c.121.272,3.029,6.672,10.054,7.537A.71.71,0,0,0,1488.663,454.531Z" transform="translate(-1478.041 -363.948)" fill="#fe976a"/>
      <path id="Trazado_1044313" data-name="Trazado 1044313" d="M1106.46,578.933a.648.648,0,0,0,.648-.648V550.6a.648.648,0,0,0-1.3,0v27.689A.648.648,0,0,0,1106.46,578.933Z" transform="translate(-962.262 -430.586)" fill="#6a2810"/>
      <path id="Trazado_1044314" data-name="Trazado 1044314" d="M1289.255,572.2a.649.649,0,0,0,.646-.605l2.071-31.45a.648.648,0,0,0-1.294-.086l-2.071,31.45a.649.649,0,0,0,.6.69Z" transform="translate(-1212.647 -423.854)" fill="#6a2810"/>
    </g>
  </g>
</svg>
