<svg xmlns="http://www.w3.org/2000/svg" xmlns:xlink="http://www.w3.org/1999/xlink" width="108" height="108" viewBox="0 0 108 108">
  <defs>
    <filter id="Trazado_978624" x="0" y="0" width="108" height="108" filterUnits="userSpaceOnUse">
      <feOffset dy="3" input="SourceAlpha"/>
      <feGaussianBlur stdDeviation="3" result="blur"/>
      <feFlood flood-opacity="0.161"/>
      <feComposite operator="in" in2="blur"/>
      <feComposite in="SourceGraphic"/>
    </filter>
  </defs>
  <g id="Grupo_1183157" data-name="Grupo 1183157" transform="translate(-616 -6173)">
    <g id="Grupo_1179608" data-name="Grupo 1179608" transform="translate(0 4921)">
      <g id="Grupo_1172348" data-name="Grupo 1172348" transform="translate(0 806.5)">
        <g id="Grupo_1171897" data-name="Grupo 1171897" transform="translate(625 451.5)">
          <g id="Grupo_1171052" data-name="Grupo 1171052" transform="translate(0)">
            <g id="Grupo_1164581" data-name="Grupo 1164581">
              <g id="Grupo_1144123" data-name="Grupo 1144123">
                <g transform="matrix(1, 0, 0, 1, -9, -6)" filter="url(#Trazado_978624)">
                  <g id="Trazado_978624-2" data-name="Trazado 978624" transform="translate(9 6)" fill="#ebe9f0">
                    <path d="M 45 88.5 C 39.12687683105469 88.5 33.43022537231445 87.35007476806641 28.06830024719238 85.08217620849609 C 22.88852500915527 82.89131164550781 18.23629951477051 79.75458526611328 14.2408504486084 75.75914764404297 C 10.24541282653809 71.76370239257812 7.108687400817871 67.11147308349609 4.917825222015381 61.93170166015625 C 2.649924993515015 56.56977462768555 1.5 50.87312316894531 1.5 45 C 1.5 39.12687683105469 2.649924993515015 33.43022537231445 4.917825222015381 28.06830024719238 C 7.108687400817871 22.88852500915527 10.24541282653809 18.23629951477051 14.2408504486084 14.2408504486084 C 18.23629951477051 10.24541282653809 22.88852500915527 7.108687400817871 28.06830024719238 4.917825222015381 C 33.43022537231445 2.649924993515015 39.12687683105469 1.5 45 1.5 C 50.87312316894531 1.5 56.56977462768555 2.649924993515015 61.93170166015625 4.917825222015381 C 67.11147308349609 7.108687400817871 71.76370239257812 10.24541282653809 75.75914764404297 14.2408504486084 C 79.75458526611328 18.23629951477051 82.89131164550781 22.88852500915527 85.08217620849609 28.06830024719238 C 87.35007476806641 33.43022537231445 88.5 39.12687683105469 88.5 45 C 88.5 50.87312316894531 87.35007476806641 56.56977462768555 85.08217620849609 61.93170166015625 C 82.89131164550781 67.11147308349609 79.75458526611328 71.76370239257812 75.75914764404297 75.75914764404297 C 71.76370239257812 79.75458526611328 67.11147308349609 82.89131164550781 61.93170166015625 85.08217620849609 C 56.56977462768555 87.35007476806641 50.87312316894531 88.5 45 88.5 Z" stroke="none"/>
                    <path d="M 45 3 C 39.32871246337891 3 33.82865524291992 4.110054016113281 28.65262985229492 6.299339294433594 C 23.65165710449219 8.414573669433594 19.15968322753906 11.44334411621094 15.301513671875 15.301513671875 C 11.44334411621094 19.15968322753906 8.414573669433594 23.65165710449219 6.299339294433594 28.65262985229492 C 4.110054016113281 33.82865524291992 3 39.32871246337891 3 45 C 3 50.67128753662109 4.110054016113281 56.17134475708008 6.299339294433594 61.34737396240234 C 8.414573669433594 66.34834289550781 11.44334411621094 70.84031677246094 15.301513671875 74.698486328125 C 19.15968322753906 78.55665588378906 23.65165710449219 81.58542633056641 28.65262985229492 83.70066070556641 C 33.82865524291992 85.88994598388672 39.32871246337891 87 45 87 C 50.67128753662109 87 56.17134475708008 85.88994598388672 61.34737396240234 83.70066070556641 C 66.34834289550781 81.58542633056641 70.84031677246094 78.55665588378906 74.698486328125 74.698486328125 C 78.55665588378906 70.84031677246094 81.58542633056641 66.34834289550781 83.70066070556641 61.34737396240234 C 85.88994598388672 56.17134475708008 87 50.67128753662109 87 45 C 87 39.32871246337891 85.88994598388672 33.82865524291992 83.70066070556641 28.65262985229492 C 81.58542633056641 23.65165710449219 78.55665588378906 19.15968322753906 74.698486328125 15.301513671875 C 70.84031677246094 11.44334411621094 66.34834289550781 8.414573669433594 61.34737396240234 6.299339294433594 C 56.17134475708008 4.110054016113281 50.67128753662109 3 45 3 M 45 0 C 69.85281372070312 0 90 20.14718627929688 90 45 C 90 69.85281372070312 69.85281372070312 90 45 90 C 20.14718627929688 90 0 69.85281372070312 0 45 C 0 20.14718627929688 20.14718627929688 0 45 0 Z" stroke="none" fill="#453179"/>
                  </g>
                </g>
              </g>
            </g>
          </g>
        </g>
      </g>
    </g>
    <g id="Outline_47_" transform="translate(643.109 6194.425)">
      <g id="Grupo_1183155" data-name="Grupo 1183155" transform="translate(0.789 3.789)">
        <g id="Grupo_1183150" data-name="Grupo 1183150" transform="translate(16.734 0)">
          <path id="Trazado_1044560" data-name="Trazado 1044560" d="M245.868,89.184a1.684,1.684,0,1,0-3.368,0,20.381,20.381,0,0,0,1.237,6.606c.93-.827,1.858-1.657,2.744-2.522A15.116,15.116,0,0,1,245.868,89.184Z" transform="translate(-234.501 -79.396)" fill="#67d1b1"/>
          <path id="Trazado_1044561" data-name="Trazado 1044561" d="M228.7,147.626A55.222,55.222,0,0,1,226.8,142.3c-.886.865-1.813,1.7-2.744,2.522.441,1.308.966,2.639,1.52,4.041a57.619,57.619,0,0,1,4.821,23.56c0,2.675-1.151,4.21-3.157,4.21a3.276,3.276,0,0,1-3.368-3.473,1.684,1.684,0,0,0-3.368,0A6.646,6.646,0,0,0,227.236,180c3.248,0,6.525-2.343,6.525-7.578a60.559,60.559,0,0,0-5.057-24.8Z" transform="translate(-214.817 -128.429)" fill="#02b27d"/>
          <path id="Trazado_1044562" data-name="Trazado 1044562" d="M186.125,13.228a4.965,4.965,0,0,0-4.3-2.728,6.772,6.772,0,0,0-4.886,2.408,10.742,10.742,0,0,0-2.445,7.38,1.684,1.684,0,1,0,3.368,0,7.472,7.472,0,0,1,1.6-5.145,3.447,3.447,0,0,1,2.367-1.276,1.591,1.591,0,0,1,1.29.88c.432.853.1,2.093-.926,3.489a30.032,30.032,0,0,1-3.676,3.485,61.653,61.653,0,0,0-7.683,7.539c-2.917,3.611-4.335,7.01-4.335,10.393a11.592,11.592,0,0,0,5.014,9.965,14.817,14.817,0,0,0,8.041,2.573,1.684,1.684,0,1,0,0-3.368,11.437,11.437,0,0,1-6.113-1.966,8.279,8.279,0,0,1-3.574-7.2c0-2.581,1.173-5.289,3.587-8.276a59,59,0,0,1,7.269-7.111,30.219,30.219,0,0,0,4.182-4.032c2.456-3.336,1.818-5.821,1.219-7.006Z" transform="translate(-166.5 -10.5)" fill="#67d1b1"/>
          <g id="Grupo_1183149" data-name="Grupo 1183149" transform="translate(0 17.596)">
            <path id="Trazado_1044563" data-name="Trazado 1044563" d="M170.339,179.486c-2.581,3.377-3.839,6.577-3.839,9.761a11.592,11.592,0,0,0,5.014,9.965,14.817,14.817,0,0,0,8.041,2.573,1.682,1.682,0,0,0,1.406-.759,14.906,14.906,0,0,1-7.623-2.564,11.592,11.592,0,0,1-5.014-9.965c0-3.383,1.418-6.782,4.335-10.393.112-.139.227-.277.342-.414a13.964,13.964,0,0,1-2.608,1.769Z" transform="translate(-166.5 -177.69)" fill="#34c297"/>
          </g>
          <path id="Trazado_1044564" data-name="Trazado 1044564" d="M246.672,218.623a8.655,8.655,0,0,0-6.708-3.123,9.085,9.085,0,0,0-5.984,2.1,8.082,8.082,0,0,0-2.712,6.32,1.684,1.684,0,1,0,3.368,0c0-3.729,2.87-5.052,5.328-5.052,3.681,0,5.642,3.423,5.642,5.894,0,4.688-3.028,7.486-8.1,7.486a1.684,1.684,0,1,0,0,3.368c6.966,0,11.468-4.261,11.468-10.854A9.686,9.686,0,0,0,246.672,218.623Z" transform="translate(-224.451 -193.924)" fill="#67d1b1"/>
        </g>
        <g id="Grupo_1183154" data-name="Grupo 1183154" transform="translate(0 11.472)">
          <g id="Grupo_1183151" data-name="Grupo 1183151" transform="translate(38.731 1.684)">
            <ellipse id="Elipse_12515" data-name="Elipse 12515" cx="2.526" cy="1.684" rx="2.526" ry="1.684" transform="translate(0 3.368)" fill="#f79235"/>
            <ellipse id="Elipse_12516" data-name="Elipse 12516" cx="2.526" cy="1.684" rx="2.526" ry="1.684" transform="translate(8.42)" fill="#f79235"/>
          </g>
          <g id="Grupo_1183152" data-name="Grupo 1183152" transform="translate(0 30.312)">
            <ellipse id="Elipse_12517" data-name="Elipse 12517" cx="2.526" cy="1.684" rx="2.526" ry="1.684" transform="translate(0 3.368)" fill="#f79235"/>
            <ellipse id="Elipse_12518" data-name="Elipse 12518" cx="2.526" cy="1.684" rx="2.526" ry="1.684" transform="translate(8.42)" fill="#f79235"/>
          </g>
          <g id="Grupo_1183153" data-name="Grupo 1183153" transform="translate(3.368)">
            <ellipse id="Elipse_12519" data-name="Elipse 12519" cx="2.526" cy="1.684" rx="2.526" ry="1.684" transform="translate(0 3.368)" fill="#f79235"/>
            <ellipse id="Elipse_12520" data-name="Elipse 12520" cx="2.526" cy="1.684" rx="2.526" ry="1.684" transform="translate(8.42)" fill="#f79235"/>
          </g>
        </g>
      </g>
      <g id="Grupo_1183156" data-name="Grupo 1183156" transform="translate(0 3)">
        <path id="Trazado_1044565" data-name="Trazado 1044565" d="M166.466,29.479a.788.788,0,0,0,1-.489,19.856,19.856,0,0,1,3.473-5.945,43.629,43.629,0,0,1,4.185-4.414l0,0c.98-.914,1.966-1.778,2.886-2.578l.346-.3.165-.143a30.107,30.107,0,0,0,3.795-3.613c1.214-1.648,1.567-3.18.994-4.314a2.367,2.367,0,0,0-1.995-1.313,4.2,4.2,0,0,0-2.958,1.541,8.242,8.242,0,0,0-1.794,5.668,13.507,13.507,0,0,0,.092,1.56c-.517.45-1.052.92-1.594,1.409a16.1,16.1,0,0,1-.287-2.969,9.968,9.968,0,0,1,2.246-6.856,5.974,5.974,0,0,1,4.295-2.142,4.16,4.16,0,0,1,3.592,2.295c.517,1.023,1.055,3.187-1.151,6.183a29.756,29.756,0,0,1-4.041,3.885l-.225.2c-.513.445-1.043.906-1.591,1.392l-.007.006c-1.058.939-1.916,1.736-2.7,2.509l0,0-.012.012a37.425,37.425,0,0,0-2.852,3.114c-2.531,3.134-3.762,6-3.762,8.773a9.032,9.032,0,0,0,3.912,7.852,12.282,12.282,0,0,0,6.565,2.108,12.554,12.554,0,0,0,2.414-.224h0a8.51,8.51,0,0,0,3.576-1.553l.03-.024a7.83,7.83,0,0,0,2.865-6.474A6.715,6.715,0,0,0,182.1,27.97h-.02c-.182-.017-.373-.025-.57-.025a7.02,7.02,0,0,0-3.191.734l-.038.021a5.43,5.43,0,0,0-2.888,5.087.895.895,0,1,1-1.789,0,7.135,7.135,0,0,1,4.245-6.871,8.709,8.709,0,0,1,3.028-.738c.2-.014.416-.021.633-.021A7.879,7.879,0,0,1,187.612,29a9.063,9.063,0,0,1,1.422,2.318.789.789,0,1,0,1.454-.616,10.641,10.641,0,0,0-1.67-2.721,9.434,9.434,0,0,0-7.311-3.4l-.154,0c-.238-.617-.478-1.226-.737-1.882-.46-1.162-.9-2.269-1.271-3.332q.608-.534,1.188-1.036l.225-.2a30.353,30.353,0,0,0,4.278-4.141c2.707-3.676,1.969-6.484,1.289-7.831a5.772,5.772,0,0,0-5-3.161,7.566,7.566,0,0,0-5.476,2.673,11.508,11.508,0,0,0-2.644,7.9,18.33,18.33,0,0,0,.515,4.213,44.038,44.038,0,0,0-4,4.263,21.387,21.387,0,0,0-3.737,6.422A.789.789,0,0,0,166.466,29.479Zm11.5-4.312c-.169-.432-.334-.849-.485-1.234-.274-.694-.555-1.407-.822-2.11.435-.421.9-.857,1.414-1.325.336.916.708,1.858,1.072,2.778.2.5.385.975.568,1.446A10.215,10.215,0,0,0,177.969,25.167Zm3.472,4.357a54.49,54.49,0,0,1,2.284,10.6,6.733,6.733,0,0,1-1.715.792,53.759,53.759,0,0,0-2.358-11.092A5.774,5.774,0,0,1,181.441,29.524Zm4.919,5.1a6.9,6.9,0,0,1-1.211,4.15,55.641,55.641,0,0,0-1.955-8.938A5.419,5.419,0,0,1,186.359,34.627ZM175,26.87a8.849,8.849,0,0,0-2.983,6.915,2.473,2.473,0,1,0,4.947,0,3.978,3.978,0,0,1,1.279-3.17,52.187,52.187,0,0,1,2.209,10.626,11.615,11.615,0,0,1-1.407.083,10.592,10.592,0,0,1-5.661-1.824,7.532,7.532,0,0,1-3.237-6.557c0-2.393,1.116-4.938,3.412-7.781.55-.681,1.17-1.379,1.877-2.115.191.493.385.984.575,1.466.159.4.333.844.511,1.3A8.761,8.761,0,0,0,175,26.87Zm4.542-17.913a2.71,2.71,0,0,1,1.776-1.01.838.838,0,0,1,.586.447c.282.558-.038,1.554-.856,2.664a23.946,23.946,0,0,1-2.9,2.784c0-.088,0-.176,0-.264a6.72,6.72,0,0,1,1.4-4.621Z" transform="translate(-148.47 -3)"/>
        <path id="Trazado_1044566" data-name="Trazado 1044566" d="M184.312,281.684a.789.789,0,0,0-.789.789c0,4.138-1.851,7.306-5.212,8.924l-.006,0a11.368,11.368,0,0,1-3.11.955,14.616,14.616,0,0,1-2.35.183,13.978,13.978,0,0,1-7.589-2.431,10.83,10.83,0,0,1-4.677-9.318.789.789,0,1,0-1.579,0,12.351,12.351,0,0,0,5.351,10.612,15.643,15.643,0,0,0,8.493,2.716,16.794,16.794,0,0,0,1.714-.086c.012.524.019,1.058.019,1.6,0,1.56-.411,3.421-2.368,3.421a2.5,2.5,0,0,1-2.579-2.684,2.473,2.473,0,0,0-4.947,0,7.419,7.419,0,0,0,7.525,7.63,7.017,7.017,0,0,0,5.042-2.06,8.733,8.733,0,0,0,2.273-6.307c0-1.026-.022-2.048-.064-3.048,3.593-1.938,5.642-5.591,5.642-10.108A.789.789,0,0,0,184.312,281.684Zm-12.1,20.734a5.873,5.873,0,0,1-5.947-6.052.895.895,0,0,1,1.789,0,4.074,4.074,0,0,0,4.157,4.263c2.471,0,3.947-1.869,3.947-5,0-.625-.008-1.243-.024-1.846a13.158,13.158,0,0,0,1.774-.507c.025.777.039,1.564.039,2.353C177.945,300.64,174.855,302.418,172.209,302.418Z" transform="translate(-142.266 -250.846)"/>
        <path id="Trazado_1044567" data-name="Trazado 1044567" d="M382.7,64.136a.789.789,0,0,0-.736-.079l-8.42,3.368a.789.789,0,0,0-.5.733v6.3a4.237,4.237,0,0,0-1.737-.356c-1.859,0-3.315,1.086-3.315,2.473s1.456,2.473,3.315,2.473,3.315-1.086,3.315-2.473V68.692l6.841-2.736v5.136a4.237,4.237,0,0,0-1.737-.356c-1.859,0-3.315,1.086-3.315,2.473s1.456,2.473,3.315,2.473,3.315-1.086,3.315-2.473V64.79A.79.79,0,0,0,382.7,64.136ZM371.316,77.472c-1.06,0-1.737-.53-1.737-.895s.677-.895,1.737-.895,1.737.53,1.737.895S372.376,77.472,371.316,77.472Zm8.42-3.368c-1.06,0-1.737-.53-1.737-.895s.677-.895,1.737-.895,1.737.53,1.737.895S380.8,74.1,379.736,74.1Z" transform="translate(-329.27 -57.58)"/>
        <path id="Trazado_1044568" data-name="Trazado 1044568" d="M14.7,336.136a.789.789,0,0,0-.736-.079l-8.42,3.368a.789.789,0,0,0-.5.733v6.3a4.239,4.239,0,0,0-1.737-.356C1.456,346.1,0,347.19,0,348.577s1.456,2.473,3.315,2.473,3.315-1.086,3.315-2.473v-7.885l6.841-2.736v5.136a4.24,4.24,0,0,0-1.737-.356c-1.859,0-3.315,1.086-3.315,2.473s1.456,2.473,3.315,2.473,3.315-1.086,3.315-2.473v-8.42A.789.789,0,0,0,14.7,336.136ZM3.315,349.472c-1.06,0-1.737-.53-1.737-.895s.677-.895,1.737-.895,1.737.53,1.737.895S4.375,349.472,3.315,349.472Zm8.42-3.368c-1.06,0-1.737-.53-1.737-.895s.677-.895,1.737-.895,1.737.53,1.737.895S12.8,346.1,11.735,346.1Z" transform="translate(0 -300.952)"/>
        <path id="Trazado_1044569" data-name="Trazado 1044569" d="M47.051,57.22V48.8a.8.8,0,0,0-1.083-.733l-8.42,3.368a.789.789,0,0,0-.5.733v6.3a4.238,4.238,0,0,0-1.737-.356C33.456,58.115,32,59.2,32,60.588s1.456,2.473,3.315,2.473,3.315-1.086,3.315-2.473V52.7l6.841-2.736V55.1a4.238,4.238,0,0,0-1.737-.356c-1.859,0-3.315,1.086-3.315,2.473s1.456,2.473,3.315,2.473S47.051,58.607,47.051,57.22ZM35.315,61.483c-1.06,0-1.737-.53-1.737-.895s.677-.895,1.737-.895,1.737.53,1.737.895S36.375,61.483,35.315,61.483Zm8.42-3.368c-1.06,0-1.737-.53-1.737-.895s.677-.895,1.737-.895,1.737.53,1.737.895S44.8,58.115,43.735,58.115Z" transform="translate(-28.632 -43.275)"/>
      </g>
    </g>
  </g>
</svg>
