<svg xmlns="http://www.w3.org/2000/svg" width="393.249" height="205.676" viewBox="0 0 393.249 205.676">
  <g id="_24374539_2101_m40_i310_n019_s_c15_children_art_funny_carto" data-name="24374539_2101_m40_i310_n019_s_c15_children_art_funny_carto" transform="translate(-29.117 -6.625)">
    <g id="Grupo_1182670" data-name="Grupo 1182670" transform="translate(23.117 30.625)">
      <rect id="Rectángulo_415930" data-name="Rectángulo 415930" width="390" height="157.085" transform="translate(6 -24)" fill="#ffe8bf"/>
      <path id="Trazado_1042645" data-name="Trazado 1042645" d="M333.71,126.4s-21.665,26.53-17.023,24.982,17.686-20.782,20.782-21S320,156.244,326.194,152.927s26.308-26.972,30.067-26.751-20.56,30.067-11.938,27.856,27.856-26.53,21.887-29.4S356.04,118,343,128.609C343,128.608,343.88,120.207,333.71,126.4Z" transform="translate(-105.409 -56.173)" fill="#c7dff2"/>
      <path id="Trazado_1042646" data-name="Trazado 1042646" d="M432.1,93.111s-21.275,4.423-18.115,9.058S440.731,94.8,432.1,93.111Z" transform="translate(-154.159 -56.055)" fill="#ffd033"/>
      <path id="Trazado_1042647" data-name="Trazado 1042647" d="M443.285,119.319s-10.111,10.953-4.844,10.111S446.866,116.37,443.285,119.319Z" transform="translate(-156.713 -58.883)" fill="#ffd033"/>
      <path id="Trazado_1042648" data-name="Trazado 1042648" d="M510.371,47.9s-16.219,11.585-9.479,11.8S520.272,46.214,510.371,47.9Z" transform="translate(-163.557 -51.075)" fill="#ffd033"/>
      <path id="Trazado_1042649" data-name="Trazado 1042649" d="M522.307,78.677c-1.489-.053-12.428,1.9-9.9,4.423s16.219,2.738,18.746-.211S528.2,78.888,522.307,78.677Z" transform="translate(-164.96 -54.47)" fill="#ffd033"/>
      <path id="Trazado_1042650" data-name="Trazado 1042650" d="M476.77,67.148c.713-.218-8.3-2.884-16.179-.426-10.131,3.161-18.886,12.678-7.949,24.416,14.489,15.55,30.45-2.425,28.833-11.857s-20.742-6.031-20.742-6.031A107.55,107.55,0,0,1,476.77,67.148Z" transform="translate(-161.719 -55.731)" fill="#ffd033"/>
      <path id="Trazado_1042651" data-name="Trazado 1042651" d="M101.7,97.813c-.081.944-3.789,36-.632,37.265s2.211-7.9,3.789-9.791.315,9.791,2.211,13.58,9.474-15.474,6.948-37.9S102.645,86.761,101.7,97.813Z" transform="translate(-44.659 -63.368)" fill="#c5d653"/>
      <path id="Trazado_1042652" data-name="Trazado 1042652" d="M109.591,69.559a1.709,1.709,0,0,1-.188.434l-.625,1.2-2.358,4.367c-2.018,3.67-4.793,8.77-8.411,14.065a75.675,75.675,0,0,1-10.553,12.538c-1.549,1.419-2.829,2.538-3.772,3.24l-1.074.82a1.64,1.64,0,0,1-.395.258c-.01-.014.1-.13.332-.338l1.013-.892c.9-.746,2.14-1.9,3.65-3.346A83.11,83.11,0,0,0,97.594,89.337c3.6-5.268,6.419-10.329,8.515-13.955,1.044-1.817,1.892-3.286,2.5-4.289l.708-1.15A1.641,1.641,0,0,1,109.591,69.559Z" transform="translate(-46.612 -63.023)" fill="#80572f"/>
      <path id="Trazado_1042653" data-name="Trazado 1042653" d="M135.705,110.493c-.013.011-.134-.108-.351-.344l-.931-1.051c-.806-.916-1.928-2.278-3.275-3.994a137.627,137.627,0,0,1-17.463-29.188c-.875-2-1.545-3.631-1.971-4.774l-.486-1.318a1.83,1.83,0,0,1-.138-.472,1.817,1.817,0,0,1,.231.434l.573,1.28c.481,1.118,1.2,2.727,2.114,4.7a164.3,164.3,0,0,0,7.934,15.024,164.561,164.561,0,0,0,9.487,14.094c1.307,1.739,2.386,3.133,3.144,4.086.372.482.662.856.857,1.111A1.737,1.737,0,0,1,135.705,110.493Z" transform="translate(-48.463 -63.009)" fill="#80572f"/>
      <path id="Trazado_1042654" data-name="Trazado 1042654" d="M124.1,114.8c0-.148,2.5-.241,5.538-.648s5.479-.95,5.516-.807a19.021,19.021,0,0,1-5.451,1.306A19,19,0,0,1,124.1,114.8Z" transform="translate(-49.298 -65.829)" fill="#80572f"/>
      <path id="Trazado_1042655" data-name="Trazado 1042655" d="M142.475,152.718c-.013.01-.114-.093-.294-.3s-.445-.512-.76-.926a43.207,43.207,0,0,1-2.513-3.617,105.747,105.747,0,0,1-6.6-12.927c-2.333-5.159-4.419-9.841-5.907-13.24-.734-1.7-1.327-3.084-1.738-4.036a9.8,9.8,0,0,1-.575-1.509,9.882,9.882,0,0,1,.753,1.428l1.884,3.971c1.57,3.362,3.708,8.02,6.041,13.179a126.653,126.653,0,0,0,6.443,12.949c.947,1.589,1.774,2.839,2.368,3.687A11.156,11.156,0,0,1,142.475,152.718Z" transform="translate(-49.297 -66.011)" fill="#80572f"/>
      <path id="Trazado_1042656" data-name="Trazado 1042656" d="M120.235,160.425a21.519,21.519,0,0,1,2.98-.6c1.844-.328,4.385-.809,7.169-1.443s5.281-1.306,7.085-1.81a21.367,21.367,0,0,1,2.943-.754,15.8,15.8,0,0,1-2.839,1.095c-1.784.593-4.28,1.321-7.077,1.96s-5.363,1.065-7.227,1.3A15.82,15.82,0,0,1,120.235,160.425Z" transform="translate(-49.05 -68.554)" fill="#80572f"/>
      <path id="Trazado_1042657" data-name="Trazado 1042657" d="M93.271,112.041A20.829,20.829,0,0,1,88,111.4a16.927,16.927,0,0,1-3.609-1.114,3.514,3.514,0,0,1-.976-.648c-.184-.224-.236-.376-.209-.386s.143.088.337.238a5.1,5.1,0,0,0,.988.469,27.761,27.761,0,0,0,3.573.948A42.774,42.774,0,0,1,93.271,112.041Z" transform="translate(-46.675 -65.568)" fill="#80572f"/>
      <path id="Trazado_1042658" data-name="Trazado 1042658" d="M77.11,126.988a.545.545,0,0,0,.663.085c.419-.192,1.059-.608,1.816-1.076a46.713,46.713,0,0,0,10.63-9.1,26.89,26.89,0,0,1,1.922-2.2,12.376,12.376,0,0,1-1.648,2.43A36.987,36.987,0,0,1,79.768,126.3a12.886,12.886,0,0,1-1.944.958.726.726,0,0,1-.62-.076C77.09,127.08,77.1,126.989,77.11,126.988Z" transform="translate(-46.284 -65.917)" fill="#80572f"/>
      <path id="Trazado_1042659" data-name="Trazado 1042659" d="M470.339,78.293s.07.144.186.437a2.964,2.964,0,0,1,.178.558,4.605,4.605,0,0,1,.16.795,7.812,7.812,0,0,1-1.15,5.164,6.925,6.925,0,0,1-4.954,3.336,8.272,8.272,0,0,1-2.418-.037,9.435,9.435,0,0,1-4.726-2.382,9.287,9.287,0,0,1-1.82-2.286,9.879,9.879,0,0,1-1.024-2.9,13.792,13.792,0,0,1,4.575-12.381,22.736,22.736,0,0,1,6.391-4.112,27.783,27.783,0,0,1,7.741-2.242,13.638,13.638,0,0,1,8.322,1.35,16.333,16.333,0,0,1,6,6.455,24.022,24.022,0,0,1,1.858,18.118,21.873,21.873,0,0,1-4.534,8.247,23.275,23.275,0,0,1-7.287,5.525,24.61,24.61,0,0,1-8.51,2.359,22.673,22.673,0,0,1-8.419-.9,28.362,28.362,0,0,1-12.867-8.658,18.863,18.863,0,0,1-3.587-6.122,18.006,18.006,0,0,1-.877-6.488,22.418,22.418,0,0,1,3.36-10.648,31.166,31.166,0,0,1,5.4-6.519,41.575,41.575,0,0,1,4.148-3.385c.994-.714,1.549-1.042,1.549-1.042s-.123.105-.375.291l-1.116.828a45.859,45.859,0,0,0-4.077,3.442,31.419,31.419,0,0,0-5.3,6.522,22.234,22.234,0,0,0-3.25,10.524,17.706,17.706,0,0,0,.888,6.354,18.544,18.544,0,0,0,3.54,5.984,28.015,28.015,0,0,0,12.694,8.493,22.253,22.253,0,0,0,8.251.862,24.184,24.184,0,0,0,8.344-2.324A22.836,22.836,0,0,0,484.77,96.1a21.413,21.413,0,0,0,4.433-8.069,23.581,23.581,0,0,0-1.809-17.755,15.909,15.909,0,0,0-5.813-6.282,13.211,13.211,0,0,0-8.048-1.311,27.444,27.444,0,0,0-7.623,2.188,22.377,22.377,0,0,0-6.291,4.017,13.445,13.445,0,0,0-4.513,12.028,9.573,9.573,0,0,0,.972,2.81,8.994,8.994,0,0,0,1.746,2.218,9.179,9.179,0,0,0,4.565,2.342,8.014,8.014,0,0,0,2.337.055,7.149,7.149,0,0,0,2.064-.639,7.221,7.221,0,0,0,2.767-2.551,7.809,7.809,0,0,0,1.212-5.052A9.853,9.853,0,0,0,470.339,78.293Z" transform="translate(-157.442 -52.478)" fill="#80572f"/>
      <path id="Trazado_1042660" data-name="Trazado 1042660" d="M436.847,69.531a5.207,5.207,0,0,1-1.1-.3l-2.938-.967-9.675-3.227-9.7-3.152-2.938-.967a5.247,5.247,0,0,1-1.06-.413,5.156,5.156,0,0,1,1.114.235c.709.181,1.728.461,2.983.822,2.511.721,5.964,1.774,9.751,3.02s7.19,2.451,9.638,3.362c1.224.456,2.211.836,2.888,1.111A5.151,5.151,0,0,1,436.847,69.531Z" transform="translate(-153.695 -52.474)" fill="#80572f"/>
      <path id="Trazado_1042661" data-name="Trazado 1042661" d="M436.859,94.589a5.684,5.684,0,0,1-1.115.427l-3.086,1.01c-2.609.844-6.21,2.016-10.169,3.365s-7.526,2.622-10.106,3.547l-3.061,1.085a5.662,5.662,0,0,1-1.145.343,5.691,5.691,0,0,1,1.077-.517c.705-.3,1.733-.725,3.01-1.228,2.553-1.007,6.107-2.331,10.072-3.683s7.587-2.473,10.224-3.235c1.318-.381,2.389-.677,3.133-.866A5.653,5.653,0,0,1,436.859,94.589Z" transform="translate(-153.556 -56.217)" fill="#80572f"/>
      <path id="Trazado_1042662" data-name="Trazado 1042662" d="M447.1,116.747c.1.081-2.821,4.03-6.533,8.821s-6.807,8.608-6.911,8.527,2.821-4.03,6.533-8.821S446.994,116.666,447.1,116.747Z" transform="translate(-156.354 -58.65)" fill="#80572f"/>
      <path id="Trazado_1042663" data-name="Trazado 1042663" d="M478.994,137.045a10.418,10.418,0,0,1-.9-2.355,37.581,37.581,0,0,1-1.6-12.034,10.452,10.452,0,0,1,.255-2.51,17.7,17.7,0,0,1,.084,2.512,51.983,51.983,0,0,0,1.59,11.942A17.746,17.746,0,0,1,478.994,137.045Z" transform="translate(-161.056 -59.024)" fill="#80572f"/>
      <path id="Trazado_1042664" data-name="Trazado 1042664" d="M502.724,108.074a3.538,3.538,0,0,1-2.3-.424c-1.205-.533-1.937-1.337-1.849-1.426a15.978,15.978,0,0,1,2.044.988A16.193,16.193,0,0,1,502.724,108.074Z" transform="translate(-163.483 -57.494)" fill="#80572f"/>
      <path id="Trazado_1042665" data-name="Trazado 1042665" d="M535.015,80.773a4.353,4.353,0,0,1-1.026.158c-.663.071-1.624.154-2.811.241-2.376.175-5.663.357-9.3.471s-6.926.135-9.308.109c-1.191-.013-2.155-.036-2.821-.065a4.306,4.306,0,0,1-1.034-.093,4.357,4.357,0,0,1,1.034-.093l2.818-.087,9.3-.248,9.293-.33,2.818-.089A4.347,4.347,0,0,1,535.015,80.773Z" transform="translate(-164.597 -54.697)" fill="#80572f"/>
      <path id="Trazado_1042666" data-name="Trazado 1042666" d="M518.415,46.815c.07.112-4.625,3.166-10.485,6.822s-10.668,6.527-10.738,6.415,4.625-3.166,10.485-6.821S518.346,46.7,518.415,46.815Z" transform="translate(-163.331 -50.971)" fill="#80572f"/>
      <path id="Trazado_1042667" data-name="Trazado 1042667" d="M474.636,49.343a23.338,23.338,0,0,1-.008-4.715,23.427,23.427,0,0,1,.471-4.692,23.387,23.387,0,0,1,.007,4.715A23.363,23.363,0,0,1,474.636,49.343Z" transform="translate(-160.843 -50.216)" fill="#80572f"/>
      <path id="Trazado_1042668" data-name="Trazado 1042668" d="M448.932,53.558a18.542,18.542,0,0,1-3.323-4.393,18.57,18.57,0,0,1-2.317-5c.129-.056,1.169,2.169,2.728,4.751S449.042,53.47,448.932,53.558Z" transform="translate(-157.411 -50.681)" fill="#80572f"/>
      <path id="Trazado_1042669" data-name="Trazado 1042669" d="M376.591,135.072a.856.856,0,0,1-.07-.2l-.166-.592a9.08,9.08,0,0,0-.293-.953,13.487,13.487,0,0,0-.475-1.273,19.828,19.828,0,0,0-9.845-10.343,18.138,18.138,0,0,0-6.58-1.668,19.588,19.588,0,0,0-14.356,5.084l-.714.691-.2.19-.118-.241a14.521,14.521,0,0,0-5.19-5.824,14.749,14.749,0,0,0-3.359-1.661,14.2,14.2,0,0,0-3.5-.792,13.6,13.6,0,0,0-6.515.889,15.21,15.21,0,0,0-4.807,3.167,15.5,15.5,0,0,0-4.213,7.144,9.877,9.877,0,0,0-.279,1.288,6.758,6.758,0,0,0-.132.958c-.026.26-.046.459-.059.593a.814.814,0,0,1-.033.2.8.8,0,0,1-.006-.2c.005-.134.012-.335.022-.6a6.169,6.169,0,0,1,.1-.969,9.45,9.45,0,0,1,.247-1.307,15.614,15.614,0,0,1,9.044-10.569,13.88,13.88,0,0,1,6.67-.947,14.467,14.467,0,0,1,3.586.8,15.084,15.084,0,0,1,3.443,1.691,14.86,14.86,0,0,1,5.334,5.975l-.314-.051.73-.706a19.868,19.868,0,0,1,14.642-5.156,18.34,18.34,0,0,1,6.694,1.734,19.843,19.843,0,0,1,4.976,3.4A19.56,19.56,0,0,1,375.727,132,14.363,14.363,0,0,1,376.591,135.072Z" transform="translate(-105.311 -54.907)" fill="#80572f"/>
      <path id="Trazado_1042670" data-name="Trazado 1042670" d="M421.691,157.075c-.064.014-.257-.942-.777-2.414a14.432,14.432,0,0,0-3.057-5.178,9.664,9.664,0,0,0-5.208-2.827,13.5,13.5,0,0,0-2.509-.091,1.974,1.974,0,0,1,.668-.171,6.757,6.757,0,0,1,1.882-.009,9.4,9.4,0,0,1,5.446,2.83,13.46,13.46,0,0,1,3.038,5.361,15.325,15.325,0,0,1,.446,1.816A2.192,2.192,0,0,1,421.691,157.075Z" transform="translate(-131.847 -63.129)" fill="#80572f"/>
      <path id="Trazado_1042671" data-name="Trazado 1042671" d="M302.254,147c-.041-.015.042-.393.37-.918a4.88,4.88,0,0,1,4.082-2.2,1.731,1.731,0,0,1,.97.195A6.124,6.124,0,0,0,302.254,147Z" transform="translate(-101.535 -62.443)" fill="#80572f"/>
      <path id="Trazado_1042672" data-name="Trazado 1042672" d="M332.62,174.279a3.132,3.132,0,0,1-.421.794,8,8,0,0,1-1.655,1.814,11.494,11.494,0,0,1-7.611,2.407,18.505,18.505,0,0,1-7.718-2.255c-.914-.481-1.626-.916-2.108-1.232a3.748,3.748,0,0,1-.723-.53c.035-.057,1.114.621,2.954,1.518a19.615,19.615,0,0,0,7.611,2.113,11.676,11.676,0,0,0,7.427-2.235A12.229,12.229,0,0,0,332.62,174.279Z" transform="translate(-104.383 -70.982)" fill="#80572f"/>
      <path id="Trazado_1042673" data-name="Trazado 1042673" d="M419.388,170.2c.013,0,0,.083-.026.234a3.164,3.164,0,0,1-.178.654,6.657,6.657,0,0,1-1.337,2.1,14.375,14.375,0,0,1-7.043,4.041,8.548,8.548,0,0,1-2.351.228,13.738,13.738,0,0,1-2.166-.286,9.735,9.735,0,0,1-3.408-1.419,9.494,9.494,0,0,1-1.866-1.64,3.222,3.222,0,0,1-.547-.726,17.987,17.987,0,0,0,2.561,2.136,9.908,9.908,0,0,0,3.333,1.3,10.015,10.015,0,0,0,4.358.03A14.853,14.853,0,0,0,417.646,173a7.271,7.271,0,0,0,1.4-1.968A8.581,8.581,0,0,1,419.388,170.2Z" transform="translate(-129.129 -69.838)" fill="#80572f"/>
      <path id="Trazado_1042674" data-name="Trazado 1042674" d="M356.914,178.265a2.649,2.649,0,0,1-.808.339,7.6,7.6,0,0,1-2.376.295,10.025,10.025,0,0,1-3.472-.753,15.153,15.153,0,0,1-3.718-2.246,20.287,20.287,0,0,1-5.205-5.862,9.2,9.2,0,0,1-.842-2.238,4.547,4.547,0,0,1-.107-.641c-.015-.147-.017-.226,0-.228a14.366,14.366,0,0,0,1.193,2.975,21.8,21.8,0,0,0,5.207,5.691,15.566,15.566,0,0,0,3.613,2.22,10.273,10.273,0,0,0,3.348.809A10.453,10.453,0,0,0,356.914,178.265Z" transform="translate(-112.247 -68.919)" fill="#80572f"/>
      <path id="Trazado_1042675" data-name="Trazado 1042675" d="M385.316,145.352c-.9.225-20.085,23.689-15.965,25.621s19.827-18.8,19.827-18.8-13.132,18.668-7.467,16.738,17.124-24.076,7.982-20.986S387.376,144.837,385.316,145.352Z" transform="translate(-120.225 -62.848)" fill="#c7dff2"/>
      <g id="Grupo_1182667" data-name="Grupo 1182667" transform="translate(67.818 98.542)">
        <path id="Trazado_1042676" data-name="Trazado 1042676" d="M138.2,174.943a6.094,6.094,0,0,1-.6-.88,19.532,19.532,0,0,0-1.683-2.332,8.178,8.178,0,0,0-3.43-2.377,20.811,20.811,0,0,0-2.4-.733,18.575,18.575,0,0,0-2.634-.547,9.91,9.91,0,0,0-4.939,1.256,8.215,8.215,0,0,0-3.27,2.591,13.371,13.371,0,0,0-1.335,2.535,6.218,6.218,0,0,1-.441.969,5.093,5.093,0,0,1,.3-1.023,11.665,11.665,0,0,1,1.25-2.636,8.281,8.281,0,0,1,3.336-2.754,10.032,10.032,0,0,1,5.131-1.322,18.133,18.133,0,0,1,2.7.566,20.067,20.067,0,0,1,2.44.769,9.075,9.075,0,0,1,2.048,1.119,8.568,8.568,0,0,1,1.46,1.413,15.877,15.877,0,0,1,1.6,2.433A5.3,5.3,0,0,1,138.2,174.943Z" transform="translate(-117.439 -167.668)" fill="#80572f"/>
        <path id="Trazado_1042677" data-name="Trazado 1042677" d="M137.027,178.693a2.863,2.863,0,0,1-.673.461,13.513,13.513,0,0,1-2.007.956,21.962,21.962,0,0,1-7.188,1.34,50.108,50.108,0,0,1-7.3-.406l-1.25-.154a1.811,1.811,0,0,1-.943-.283.618.618,0,0,1-.227-.591c.039-.15.118-.191.122-.183s-.037.068-.045.195a.55.55,0,0,0,.239.459,1.768,1.768,0,0,0,.874.189l1.255.1a65.673,65.673,0,0,0,7.257.291,24.176,24.176,0,0,0,7.106-1.21C136.007,179.247,136.992,178.629,137.027,178.693Z" transform="translate(-117.432 -170.764)" fill="#80572f"/>
        <path id="Trazado_1042678" data-name="Trazado 1042678" d="M132.772,184.134a7.261,7.261,0,0,1,.6,1.089,20.973,20.973,0,0,1,1.308,3.139,9.517,9.517,0,0,1,.292,5.041,5.965,5.965,0,0,1-1.421,2.672,4.92,4.92,0,0,1-2.85,1.565,4.051,4.051,0,0,1-3.127-.882,3.376,3.376,0,0,1-1.294-2.729,15.013,15.013,0,0,1,.5-2.668c.183-.817.329-1.584.446-2.287.233-1.406.355-2.556.431-3.35a9.336,9.336,0,0,1,.139-1.235,1.031,1.031,0,0,1,.026.323c0,.211,0,.523-.014.923a33.184,33.184,0,0,1-.311,3.382c-.1.71-.232,1.486-.4,2.313a15.411,15.411,0,0,0-.455,2.606,3.019,3.019,0,0,0,1.176,2.43,3.691,3.691,0,0,0,2.832.794,4.576,4.576,0,0,0,2.629-1.442,5.647,5.647,0,0,0,1.352-2.5,9.44,9.44,0,0,0-.209-4.875,25.87,25.87,0,0,0-1.182-3.154A8.2,8.2,0,0,1,132.772,184.134Z" transform="translate(-119.918 -172.294)" fill="#80572f"/>
        <path id="Trazado_1042679" data-name="Trazado 1042679" d="M130,170.056s-8.6-.353-10.956,5.537,15.785,1.3,15.314-2S130,170.056,130,170.056Z" transform="translate(-117.827 -168.338)" fill="#f7ca79"/>
        <path id="Trazado_1042680" data-name="Trazado 1042680" d="M129.589,185.174s-2.041,7.382.314,9.267S132.416,182.19,129.589,185.174Z" transform="translate(-120.617 -172.469)" fill="#f7ca79"/>
      </g>
      <g id="Grupo_1182668" data-name="Grupo 1182668" transform="translate(130.845 60.032)">
        <path id="Trazado_1042681" data-name="Trazado 1042681" d="M210.2,123.033a2.193,2.193,0,0,1-1.719-2.069c-.088-1.922-.206-6.446.623-6.822,1.055-.477.98,4.939.98,4.939s2.456-4.976,3.247-4.931-1.568,5.375-1.568,5.375,3.847-3.961,3.751-2.681-2.841,3.95-2.841,3.95,3.32-1.283,2.857-.118C215.181,121.559,212.311,123.456,210.2,123.033Z" transform="translate(-206.021 -114.112)" fill="#ff8dc5"/>
        <path id="Trazado_1042682" data-name="Trazado 1042682" d="M206.52,121.49s.358-3.413-.915-3.206S205.684,122.237,206.52,121.49Z" transform="translate(-205.083 -115.281)" fill="#ff8dc5"/>
      </g>
      <g id="Grupo_1182669" data-name="Grupo 1182669" transform="translate(115.329 77.438)">
        <path id="Trazado_1042683" data-name="Trazado 1042683" d="M188.879,147.238c.979-.2,2.16-.4,2.205-1.4.088-1.922-.28-7.114-1.11-7.488-1.055-.477-.98,4.939-.98,4.939s-2.456-4.976-3.247-4.931,1.568,5.375,1.568,5.375-3.847-3.961-3.751-2.681,2.841,3.95,2.841,3.95-3.32-1.283-2.857-.118C183.9,145.764,186.772,147.661,188.879,147.238Z" transform="translate(-183.505 -138.318)" fill="#9677d4"/>
        <path id="Trazado_1042684" data-name="Trazado 1042684" d="M194.777,145.7s-.358-3.413.915-3.206S195.614,146.441,194.777,145.7Z" transform="translate(-186.659 -139.487)" fill="#9677d4"/>
      </g>
      <path id="Trazado_1042685" data-name="Trazado 1042685" d="M228.216,91.246a28.789,28.789,0,0,0-2.328-4.091,16.4,16.4,0,0,0-9.13-6.219,12.392,12.392,0,0,0-6.1-.009,9.709,9.709,0,0,0-4.3,2.476,10.319,10.319,0,0,0-2.383,3.974,3.3,3.3,0,0,1,.244-1.265,8.255,8.255,0,0,1,1.827-3.01,9.817,9.817,0,0,1,4.464-2.719,12.593,12.593,0,0,1,6.4-.043,16.142,16.142,0,0,1,9.339,6.564,14.465,14.465,0,0,1,1.628,3.106A4.152,4.152,0,0,1,228.216,91.246Z" transform="translate(-91.997 -48.657)" fill="#80572f"/>
      <path id="Trazado_1042686" data-name="Trazado 1042686" d="M249.948,79.147c-.047.109-1.7-.749-4.515-1.6a13.807,13.807,0,0,0-11.012,1.209,19.525,19.525,0,0,0-7.706,8.234c-1.356,2.622-1.853,4.408-1.959,4.372a4.553,4.553,0,0,1,.287-1.266,22.942,22.942,0,0,1,1.284-3.3,18.963,18.963,0,0,1,7.8-8.578,14.693,14.693,0,0,1,6.2-1.834,14.2,14.2,0,0,1,5.229.748,23.8,23.8,0,0,1,3.268,1.365A4.817,4.817,0,0,1,249.948,79.147Z" transform="translate(-89.076 -49.162)" fill="#80572f"/>
      <path id="Trazado_1042687" data-name="Trazado 1042687" d="M179.924,106.416a19.572,19.572,0,0,0-2.167-.293,4.276,4.276,0,0,0-2.294.558,2.822,2.822,0,0,0-1.442,2.412l-.366.046a5.867,5.867,0,0,0-5.092-4.5,5.868,5.868,0,0,0-3.283.72,7.207,7.207,0,0,0-2.323,2.133c-.011-.006.017-.078.082-.212a4.1,4.1,0,0,1,.334-.558,5.784,5.784,0,0,1,1.772-1.6,6.008,6.008,0,0,1,8.871,3.937l-.366.046a3.124,3.124,0,0,1,1.65-2.7,4.387,4.387,0,0,1,2.465-.518,6.969,6.969,0,0,1,1.613.3A1.859,1.859,0,0,1,179.924,106.416Z" transform="translate(-62.403 -51.316)" fill="#80572f"/>
      <path id="Trazado_1042688" data-name="Trazado 1042688" d="M329.511,120.437s-15.449,13.487-8.828,13.855S336.5,118.721,329.511,120.437Z" transform="translate(-106.252 -55.82)" fill="#c7dff2"/>
      <path id="Trazado_1042689" data-name="Trazado 1042689" d="M222.17,173.645s-6.65-4.134-5.033-7.189,8.268,3.595,8.268,3.595.539-7.369,4.493-8.268,1.617,8.806,1.617,8.806,8.268-2.7,8.268.719-7.548,4.852-7.548,4.852,5.572,7.01,1.438,8.627-6.729-6.845-6.729-6.845-7.216,7.882-10.436,5.218C213.216,180.437,222.17,173.645,222.17,173.645Z" transform="translate(-78.325 -70.064)" fill="#ff8dc5"/>
      <path id="Trazado_1042690" data-name="Trazado 1042690" d="M226.264,175.38a2.907,2.907,0,1,0,2.827-2.229A2.582,2.582,0,0,0,226.264,175.38Z" transform="translate(-80.228 -72.139)" fill="#ffd033"/>
      <path id="Trazado_1042691" data-name="Trazado 1042691" d="M223.156,202.349c-.069-.05.733-1.009,1.548-2.818a19.854,19.854,0,0,0,1.127-3.288,35.882,35.882,0,0,0,.74-4.205c.343-3.018.431-5.779.576-7.773.07-1,.134-1.8.2-2.361a3.8,3.8,0,0,1,.14-.86,3.785,3.785,0,0,1,.01.871c-.019.558-.046,1.366-.08,2.364-.075,1.995-.119,4.76-.465,7.8a32.3,32.3,0,0,1-.779,4.249,18.158,18.158,0,0,1-1.225,3.314,9.6,9.6,0,0,1-.656,1.19,5.923,5.923,0,0,1-.575.847A3.775,3.775,0,0,1,223.156,202.349Z" transform="translate(-79.315 -72.884)" fill="#80572f"/>
      <path id="Trazado_1042692" data-name="Trazado 1042692" d="M221.665,201.8c.508-.118-3.72-10.982-6.661-9.279S218.8,202.471,221.665,201.8Z" transform="translate(-76.821 -76.058)" fill="#c5d653"/>
      <path id="Trazado_1042693" data-name="Trazado 1042693" d="M138.9,203.867s1.917-7.449,4.437-8.873c0,0-1.151,8.216-2.191,9.146S138.9,203.867,138.9,203.867Z" transform="translate(-55.646 -76.803)" fill="#c5d653"/>
      <path id="Trazado_1042694" data-name="Trazado 1042694" d="M369.144,80.344s-7.005-10.263-4.887-12.707S368.7,69.5,368.7,69.5s.536-4.9,3.958-3.421C375.706,67.4,369.144,80.344,369.144,80.344Z" transform="translate(-118.844 -40.509)" fill="#ff8dc5"/>
      <path id="Trazado_1042695" data-name="Trazado 1042695" d="M334.893,101.778s-2.141-8.045-.259-9.118,2.39,2.169,2.39,2.169,1.43-2.975,3.263-1.281C341.922,95.059,334.893,101.778,334.893,101.778Z" transform="translate(-110.417 -47.992)" fill="#9677d4"/>
      <path id="Trazado_1042696" data-name="Trazado 1042696" d="M406.692,152.927s4.6-4.068,8.842,1.592-3.752,16.149-7.112,12.79,3.575-12.082,1.276-11.2-7.073,9.727-6.543,5.128A18.232,18.232,0,0,1,406.692,152.927Z" transform="translate(-129.873 -64.587)" fill="#c7dff2"/>
      <path id="Trazado_1042888" data-name="Trazado 1042888" d="M369.144,80.344s-7.005-10.263-4.887-12.707S368.7,69.5,368.7,69.5s.536-4.9,3.958-3.421C375.706,67.4,369.144,80.344,369.144,80.344Z" transform="translate(-153.857 -55.047)" fill="#ff8dc5"/>
      <path id="Trazado_1042889" data-name="Trazado 1042889" d="M222.17,173.645s-6.65-4.134-5.033-7.189,8.268,3.595,8.268,3.595.539-7.369,4.493-8.268,1.617,8.806,1.617,8.806,8.268-2.7,8.268.719-7.548,4.852-7.548,4.852,5.572,7.01,1.438,8.627-6.729-6.845-6.729-6.845-7.216,7.882-10.436,5.218C213.216,180.437,222.17,173.645,222.17,173.645Z" transform="translate(-130.781 -151.767)" fill="#ff8dc5"/>
      <path id="Trazado_1042890" data-name="Trazado 1042890" d="M226.264,175.38a2.907,2.907,0,1,0,2.827-2.229A2.582,2.582,0,0,0,226.264,175.38Z" transform="translate(-132.684 -153.842)" fill="#ffd033"/>
    </g>
    <g id="Grupo_1182679" data-name="Grupo 1182679" transform="translate(357.223 75.279)">
      <ellipse id="Elipse_12479" data-name="Elipse 12479" cx="32.572" cy="4.627" rx="32.572" ry="4.627" transform="translate(0 126.01)" fill="#c8dfe8" opacity="0.82"/>
      <path id="Trazado_1042697" data-name="Trazado 1042697" d="M513.489,269.52s1.858,3.837.895,4.456-8.89.322-9.853-.3-.926-4.729,4.789-4.056Z" transform="translate(-490.602 -143.599)" fill="#7d5740"/>
      <path id="Trazado_1042698" data-name="Trazado 1042698" d="M515.282,259.774c-.035.1-.943,7.937-.943,7.937a3.479,3.479,0,0,1-4.1.1l-1.3-8.664Z" transform="translate(-491.453 -141.79)" fill="#ffb700"/>
      <path id="Trazado_1042699" data-name="Trazado 1042699" d="M543.45,269a1.586,1.586,0,0,1,.94,1.357c.209,1.148.418,3.133-.209,3.551s-8.246,0-8.455-.2-1.565-5.667,7-4.167Z" transform="translate(-496.091 -143.508)" fill="#7d5740"/>
      <path id="Trazado_1042700" data-name="Trazado 1042700" d="M541.526,252.557s2.12,3.381,2.135,13.574c0,0-.821,1.387-4.1.358,0,0-2.764-9.642-2.828-9.771S541.526,252.557,541.526,252.557Z" transform="translate(-496.302 -140.64)" fill="#ffb700"/>
      <path id="Trazado_1042701" data-name="Trazado 1042701" d="M507.4,253.9s2.745,1.754,11.546-.182c-.324-7.231,1.237-23.31,2.98-35.976.731-5.3,1.318-9.885,1.567-12.754l-.314-.088L512.945,201.7a57.621,57.621,0,0,0-1.744,5.931c-.8,3.295-1.5,7.008-2.137,10.93A144.765,144.765,0,0,0,507.4,253.9Z" transform="translate(-491.108 -131.768)" fill="#89bed9"/>
      <path id="Trazado_1042702" data-name="Trazado 1042702" d="M522.642,206.319c.281,2.636,1.045,6.622,2.018,11.211,2.5,11.814,3.424,27.352,8.55,36.858,8.8,1.929,10.718-1.212,10.718-1.212-2.78-7.329-4.586-22.579-6.523-33.2-.747-4.026-1.39-7.925-1.921-11.428-.458-3.062-.828-5.81-1.093-8.085-1.559.771-5.473,2.724-8.479,4.227C524.523,205.379,523.325,205.981,522.642,206.319Z" transform="translate(-493.844 -131.552)" fill="#89bed9"/>
      <path id="Trazado_1042703" data-name="Trazado 1042703" d="M525.25,219.2l-.419-.815c.181-.094,4.4-2.4,3.44-10.608l.91-.107C530.222,216.551,525.453,219.092,525.25,219.2Z" transform="translate(-494.226 -132.809)" fill="#6ac"/>
      <g id="Grupo_1182671" data-name="Grupo 1182671" transform="translate(18.32 51.624)">
        <path id="Trazado_1042704" data-name="Trazado 1042704" d="M515.144,180.99l-.057.016.012-.012A.2.2,0,0,0,515.144,180.99Z" transform="translate(-510.846 -179.78)" fill="#c5d653"/>
        <path id="Trazado_1042705" data-name="Trazado 1042705" d="M534.856,203.841c-5.385,4.308-21.557,1-24.906-1.211,1.821-6.188,6.207-21.65,6.693-21.831,3.131-1.168,6.107-2.155,11.717-.011C532.859,182.507,533.723,196.341,534.856,203.841Z" transform="translate(-509.95 -179.524)" fill="#9677d4"/>
      </g>
      <g id="Grupo_1182672" data-name="Grupo 1182672" transform="translate(30.027 47.522)">
        <path id="Trazado_1042706" data-name="Trazado 1042706" d="M528.727,177.369c-.587.7-2.2,1.064-4.6.833.123-.75.258-2.842.306-3.626.023-.012.054-.023.05-.021.07.011,4.1.647,4.168.656Z" transform="translate(-524.13 -174.555)" fill="#eb8460"/>
      </g>
      <path id="Trazado_1042707" data-name="Trazado 1042707" d="M515.106,181.077c.012,0,.026-.007.038-.007l-.057.019.012-.012Z" transform="translate(-492.526 -128.17)" fill="#fa9a7a"/>
      <path id="Trazado_1042708" data-name="Trazado 1042708" d="M546.345,143.962c.072.288-4.675,6.4-22.3.647,0,0,6.905-2.014,6.042-7.48S546.345,143.962,546.345,143.962Z" transform="translate(-494.089 -120.26)" fill="#733b42"/>
      <g id="Grupo_1182673" data-name="Grupo 1182673" transform="translate(45.1 36.081)">
        <path id="Trazado_1042709" data-name="Trazado 1042709" d="M543.661,162.171s6.174-3.546,7.257.361c.793,2.861-4.9,7.743-7.445,6.255S543.661,162.171,543.661,162.171Z" transform="translate(-542.388 -160.696)" fill="#fa9a7a"/>
      </g>
      <g id="Grupo_1182674" data-name="Grupo 1182674" transform="translate(29.955 45.087)">
        <path id="Trazado_1042710" data-name="Trazado 1042710" d="M528.739,178.2c.328,1.008-4.56,1.1-4.661-.038-.177-2.006.377-4.542.514-6.555h3.926C528.59,173.653,528.72,176.163,528.739,178.2Z" transform="translate(-524.043 -171.606)" fill="#fa9a7a"/>
      </g>
      <g id="Grupo_1182675" data-name="Grupo 1182675" transform="translate(14.745 30.506)">
        <path id="Trazado_1042711" data-name="Trazado 1042711" d="M512.992,157.253s-4.475-5.537-6.9-2.287c-1.773,2.381,1.771,8.99,4.681,8.523S512.992,157.253,512.992,157.253Z" transform="translate(-505.62 -153.943)" fill="#fa9a7a"/>
      </g>
      <path id="Trazado_1042712" data-name="Trazado 1042712" d="M515.45,150.689s-3.2-10.4,10.821-8.2c0,0-6.142,4.469-6.172,6.211Z" transform="translate(-492.535 -121.386)" fill="#fa9a7a"/>
      <path id="Trazado_1042713" data-name="Trazado 1042713" d="M526.443,133.427c-11.337-1.8-18.651,9.472-16.755,18.877,1.4,6.964,4.187,14,9.689,15.952,11.807,4.181,18.45-2.168,22.988-10.681,6.656-12.49-.779-24.042-11.2-24.262C529.617,133.279,528.012,133.675,526.443,133.427Z" transform="translate(-491.532 -119.826)" fill="#a36a54"/>
      <g id="Grupo_1182676" data-name="Grupo 1182676" transform="translate(11.809 51.604)">
        <path id="Trazado_1042714" data-name="Trazado 1042714" d="M519.629,179.573c-8.783-.859-16.954,5.955-17.532,9.424s6.5,11.563,6.5,11.563l2.023-4.625-2.746-5.781,5.2-1.734S522.368,179.842,519.629,179.573Z" transform="translate(-502.063 -179.499)" fill="#9677d4"/>
        <path id="Trazado_1042715" data-name="Trazado 1042715" d="M511.74,199.407s1.721-.22,1.468,1.89-3.548,3.74-3.518,4.8-2.039-2.432-.875-3.338A22.092,22.092,0,0,0,511.74,199.407Z" transform="translate(-503.179 -182.971)" fill="#fa9a7a"/>
      </g>
      <g id="Grupo_1182677" data-name="Grupo 1182677" transform="translate(28.144 51.404)">
        <path id="Trazado_1042716" data-name="Trazado 1042716" d="M522.221,179.426c12.96-1.379,20.961,6.06,21.539,9.529s-6.5,11.563-6.5,11.563l-2.023-4.625,2.746-5.781-5.2-1.734S519.485,179.717,522.221,179.426Z" transform="translate(-521.85 -179.258)" fill="#9677d4"/>
        <path id="Trazado_1042717" data-name="Trazado 1042717" d="M537.07,199.608s-1.721-.22-1.468,1.89,3.548,3.74,3.518,4.8,2.373-2.548,1.209-3.454A37.369,37.369,0,0,1,537.07,199.608Z" transform="translate(-524.244 -182.807)" fill="#fa9a7a"/>
      </g>
      <g id="Grupo_1182678" data-name="Grupo 1182678" transform="translate(31.495)">
        <ellipse id="Elipse_12480" data-name="Elipse 12480" cx="7.755" cy="7.319" rx="7.755" ry="7.319" transform="translate(0.168)" fill="#a36a54"/>
        <path id="Trazado_1042718" data-name="Trazado 1042718" d="M526.268,132.113c-1.7,2.807,2.969,4.423,7.059,4.423s6.889-1.681,6.889-3.317-2.884-1.105-6.974-1.105S527.116,130.713,526.268,132.113Z" transform="translate(-525.909 -119.521)" fill="#ffb700"/>
      </g>
      <path id="Trazado_1042719" data-name="Trazado 1042719" d="M521.185,179s.068-1.611.634-1.586c1.4.064,4.885.825,7.93.381,0,0,.634-.127.253,1.713C530,179.5,524.737,180.14,521.185,179Z" transform="translate(-493.59 -127.532)" fill="#9789b3"/>
    </g>
    <g id="Grupo_1182697" data-name="Grupo 1182697" transform="translate(92.282 118.765)">
      <path id="Trazado_1042720" data-name="Trazado 1042720" d="M194.766,272.908c0,2.554-13.632,4.624-30.447,4.624s-30.447-2.07-30.447-4.624,13.632-4.624,30.447-4.624S194.766,270.355,194.766,272.908Z" transform="translate(-131.518 -186.719)" fill="#c8dfe8" opacity="0.75"/>
      <g id="Grupo_1182696" data-name="Grupo 1182696">
        <g id="Grupo_1182680" data-name="Grupo 1182680" transform="translate(40.63 74.715)">
          <path id="Trazado_1042721" data-name="Trazado 1042721" d="M182.209,267.731s6.254-2.791,7.851-5.372-.14-1.751-2.723-1.652c-2.388.092-6.475-.86-7.064,1.771C180.272,262.478,182.213,265.8,182.209,267.731Z" transform="translate(-180.272 -260.071)" fill="#9677d4"/>
          <path id="Trazado_1042722" data-name="Trazado 1042722" d="M181.5,261.036s-.026.8,2,1.094,6.367.117,7.263-1.25S182.34,259.812,181.5,261.036Z" transform="translate(-180.487 -259.979)" fill="#7760a3"/>
        </g>
        <path id="Trazado_1042723" data-name="Trazado 1042723" d="M173.728,263.058a11.807,11.807,0,0,1,5.392-.136c.685.2,2.73,1.638,2.252,2.935s-10.989,2.662-10.443.615A6.821,6.821,0,0,1,173.728,263.058Z" transform="translate(-138.003 -185.733)" fill="#abc6d4"/>
        <path id="Trazado_1042724" data-name="Trazado 1042724" d="M149.974,250.414s-13.627,10.616-9.507,16.8,17.429-1.268,18.7-1.743,3.01-13.31,3.01-13.31S154.57,248.513,149.974,250.414Z" transform="translate(-132.537 -183.494)" fill="#4a98c2"/>
        <path id="Trazado_1042725" data-name="Trazado 1042725" d="M162.127,253.7c-.257.386-9.91,9.266-9.009,15.7s22.651,4.762,32.3-1.287c0,0-.535-4.642-2.338-5.156a41.206,41.206,0,0,0-12.077.781s4.247-2.316,4.119-6.692S163.414,251.77,162.127,253.7Z" transform="translate(-134.878 -183.997)" fill="#6ac"/>
        <path id="Trazado_1042726" data-name="Trazado 1042726" d="M171.807,268.485a40.082,40.082,0,0,1-4.506-.243.992.992,0,0,1-.707-1.542c1.086-1.6,3.815-5.582,5.716-7.9,2.192-2.679,1.218-4.478,1.208-4.5l.8-.45c.054.1,1.288,2.367-1.3,5.525-1.877,2.294-4.588,6.246-5.667,7.838v.575l.052-.455c2.617.3,11.747.973,19.36-3.017l.424.809C181.919,267.889,175.961,268.485,171.807,268.485Z" transform="translate(-137.217 -184.191)" fill="#fff"/>
        <path id="Trazado_1042727" data-name="Trazado 1042727" d="M135.067,226.352a1.14,1.14,0,0,1-.206-1.606,3.56,3.56,0,0,1,2.979-1.429c2.592.089,2.324,2.234,2.324,2.234l5.63,5.719s5-4.021,5.9-4.289,3.753,2.592,3.753,2.592-1.788,4.469-8.936,6.255c0,0-2.145,1.34-7.864-6.7Z" transform="translate(-131.649 -178.845)" fill="#ba735b"/>
        <path id="Trazado_1042728" data-name="Trazado 1042728" d="M160.454,224.369a12.069,12.069,0,0,0-8.735,4.359s2.186,3.539,5.725,3.435S160.454,224.369,160.454,224.369Z" transform="translate(-134.643 -179.03)" fill="#ffd033"/>
        <path id="Trazado_1042729" data-name="Trazado 1042729" d="M152.157,245.9s12.65,6.023,22.758,4.662c0,0,2.138.195,1.166-4.471s-1.548-18.4-1.548-18.4-5.062-4.732-14-3.371C160.531,224.317,154.087,235.21,152.157,245.9Z" transform="translate(-134.72 -178.977)" fill="#ff8dc5"/>
        <path id="Trazado_1042730" data-name="Trazado 1042730" d="M187.965,180.28c.012,5.509,3.938,4.092,9.063,6.1,5.617,2.2,10.787-2.323,9.357-6.964a6,6,0,0,0-.357-.893,4.545,4.545,0,0,0-2.094-2.177,6.817,6.817,0,0,0-1.723-.562c-1.762-.383-3.5-.466-4.27-2.566a5.36,5.36,0,0,1-.217-.772,3.973,3.973,0,0,0-.191-.638c-.919-2.33-3.715-1.711-6.044.5l-.341-.408a1.655,1.655,0,0,0-2.892.728A41.622,41.622,0,0,0,187.965,180.28Z" transform="translate(-140.983 -169.567)" fill="#381d20"/>
        <path id="Trazado_1042731" data-name="Trazado 1042731" d="M178.808,185.129c0,5.506,5.693,7.648,11.2,7.648s7.785-4.37,6.692-8.331c-1.464-5.307-3.917-9.287-9.423-9.287S178.808,179.623,178.808,185.129Z" transform="translate(-139.386 -170.413)" fill="#ffd033"/>
        <g id="Grupo_1182681" data-name="Grupo 1182681" transform="translate(17.379 4.021)">
          <path id="Trazado_1042732" data-name="Trazado 1042732" d="M152.086,197.89c5.707-.33,14.805,3.143,22.377,6.664,5.369,2.747,8.875,1.609,12.116-2.491,8.438-11.738-1.684-18.677-1.775-19.246-.5-1.93-2.9-5.355-4.459-6.028-9.6-4.138-21.263-4.608-24.785,10.025C154.694,190.412,154.434,193.918,152.086,197.89Z" transform="translate(-152.086 -174.28)" fill="#381d20"/>
        </g>
        <g id="Grupo_1182682" data-name="Grupo 1182682" transform="translate(43.661 30.877)">
          <path id="Trazado_1042733" data-name="Trazado 1042733" d="M185.45,208.145s6.487-3.361,7.425.692c.686,2.969-5.368,7.721-7.912,6.084S185.45,208.145,185.45,208.145Z" transform="translate(-183.947 -206.837)" fill="#ba735b"/>
        </g>
        <path id="Trazado_1042734" data-name="Trazado 1042734" d="M191.211,210.891c-1.411-2.048-5.971,1.8-3.585,2.635a1.269,1.269,0,0,0,1.344-1.976A2.515,2.515,0,0,1,191.211,210.891Z" transform="translate(-140.811 -176.566)" fill="#95543d"/>
        <g id="Grupo_1182683" data-name="Grupo 1182683" transform="translate(28.663 39.567)">
          <path id="Trazado_1042735" data-name="Trazado 1042735" d="M170.559,224.138c.309,3.362-5.051,3.366-4.784-.039.239-2.053.386-4.662.527-6.728h4.029C170.406,219.471,170.54,222.048,170.559,224.138Z" transform="translate(-165.765 -217.371)" fill="#ba735b"/>
        </g>
        <g id="Grupo_1182684" data-name="Grupo 1182684" transform="translate(28.711 42.064)">
          <path id="Trazado_1042736" data-name="Trazado 1042736" d="M170.541,223.288c-.6.714-2.257,1.092-4.718.855.126-.769.265-2.916.315-3.721.024-.012.055-.023.051-.022.072.011,4.212.665,4.278.673Z" transform="translate(-165.823 -220.399)" fill="#95543d"/>
        </g>
        <g id="Grupo_1182685" data-name="Grupo 1182685" transform="translate(16.258 20.473)">
          <path id="Trazado_1042737" data-name="Trazado 1042737" d="M157.891,200.429s-.366-7.3-4.34-6.064c-2.91.9-3.964,8.528-1.267,9.9S157.891,200.429,157.891,200.429Z" transform="translate(-150.727 -194.225)" fill="#ba735b"/>
        </g>
        <g id="Grupo_1182686" data-name="Grupo 1182686" transform="translate(18.563 4.728)">
          <path id="Trazado_1042738" data-name="Trazado 1042738" d="M158.593,181.844s.157,8.824-4.124,15.893c-2.537,4.189.195,11.994,6.111,14.543,7.7,3.315,16.835,1.778,19.415-5.34,0,0,8.728-20.735-.651-29.089C174.116,173.194,159.444,174.536,158.593,181.844Z" transform="translate(-153.521 -175.138)" fill="#ba735b"/>
        </g>
        <g id="Grupo_1182687" data-name="Grupo 1182687" transform="translate(21.708 3.526)">
          <path id="Trazado_1042739" data-name="Trazado 1042739" d="M177.049,174.266c-18.97-3.045-22.453,6.678-17.955,8.587a39.228,39.228,0,0,0,9.992,2.966c6.537.891,9.648-.313,11.71,1.8,2.905,2.973-.275,12.155,1.039,16.28,0,0,3.295-9.4,4.48-7.929C188.976,199.267,187.213,175.9,177.049,174.266Z" transform="translate(-157.334 -173.68)" fill="#381d20"/>
        </g>
        <path id="Trazado_1042740" data-name="Trazado 1042740" d="M153.793,197.572c2.48.186,1.458,6.062-.469,4.424a1.269,1.269,0,0,1,1.029-2.156A2.514,2.514,0,0,0,153.793,197.572Z" transform="translate(-134.858 -174.337)" fill="#95543d"/>
        <g id="Grupo_1182694" data-name="Grupo 1182694" transform="translate(20.329 20.552)">
          <path id="Trazado_1042741" data-name="Trazado 1042741" d="M161.26,211.109c-1.1,2.069-6.659-1.139-5.418-3.128C156.944,205.911,162.5,209.119,161.26,211.109Z" transform="translate(-155.662 -196.595)" fill="#a9624a"/>
          <path id="Trazado_1042742" data-name="Trazado 1042742" d="M179.969,214.14c-.1,2.57-6.49,2.14-6.242-.42C173.824,211.151,180.217,211.581,179.969,214.14Z" transform="translate(-158.824 -197.415)" fill="#a9624a"/>
          <g id="Grupo_1182690" data-name="Grupo 1182690" transform="translate(2.409 4.501)">
            <g id="Grupo_1182689" data-name="Grupo 1182689">
              <g id="Grupo_1182688" data-name="Grupo 1182688">
                <path id="Trazado_1042743" data-name="Trazado 1042743" d="M163,203.049c-.794,3.646-5.176,2.642-4.3-.986C159.49,198.416,163.872,199.42,163,203.049Z" transform="translate(-158.582 -199.777)" fill="#231214"/>
              </g>
            </g>
            <path id="Trazado_1042744" data-name="Trazado 1042744" d="M160.957,201.617a.534.534,0,0,1-.7-.8A.534.534,0,0,1,160.957,201.617Z" transform="translate(-158.843 -199.934)" fill="#fbfbfb"/>
          </g>
          <g id="Grupo_1182693" data-name="Grupo 1182693" transform="translate(15.836 8.113)">
            <g id="Grupo_1182692" data-name="Grupo 1182692">
              <g id="Grupo_1182691" data-name="Grupo 1182691">
                <path id="Trazado_1042745" data-name="Trazado 1042745" d="M179.277,207.427c-.794,3.646-5.176,2.642-4.3-.986C175.767,202.795,180.15,203.8,179.277,207.427Z" transform="translate(-174.859 -204.156)" fill="#231214"/>
              </g>
            </g>
            <path id="Trazado_1042746" data-name="Trazado 1042746" d="M177.234,206a.534.534,0,0,1-.7-.8A.534.534,0,0,1,177.234,206Z" transform="translate(-175.12 -204.313)" fill="#fbfbfb"/>
          </g>
          <path id="Trazado_1042747" data-name="Trazado 1042747" d="M165.111,207.854c-.082,1.591,2.546,2.739,3.844,1.27A8.213,8.213,0,0,1,165.111,207.854Z" transform="translate(-157.316 -196.69)" fill="#b36344"/>
          <path id="Trazado_1042748" data-name="Trazado 1042748" d="M177.664,199.918s3.832-1.533,4.25,3A46.863,46.863,0,0,0,177.664,199.918Z" transform="translate(-159.515 -195.257)" fill="#231214"/>
          <path id="Trazado_1042749" data-name="Trazado 1042749" d="M159.353,195.766s2.373-3.376,5.2.19A47.024,47.024,0,0,0,159.353,195.766Z" transform="translate(-156.308 -194.32)" fill="#231214"/>
        </g>
        <path id="Trazado_1042750" data-name="Trazado 1042750" d="M163.482,212a3.218,3.218,0,0,0,.652,1.287,3.43,3.43,0,0,0,1.708,1.072,3.029,3.029,0,0,0,2.92-.577.775.775,0,0,0,.1-.074.408.408,0,0,0-.2-.7c-.388-.074-.907-.19-1.485-.338a17.621,17.621,0,0,1-2.367-.775,6.635,6.635,0,0,1-.734-.338A.406.406,0,0,0,163.482,212Z" transform="translate(-136.701 -176.776)" fill="#231214"/>
        <path id="Trazado_1042751" data-name="Trazado 1042751" d="M164.275,213.574a3.43,3.43,0,0,0,1.708,1.072,3.029,3.029,0,0,0,2.92-.577,6.388,6.388,0,0,0-1.98-.808,4.454,4.454,0,0,0-1.287-.083A3.379,3.379,0,0,0,164.275,213.574Z" transform="translate(-136.841 -177.067)" fill="#852b2e"/>
        <path id="Trazado_1042752" data-name="Trazado 1042752" d="M165.1,211.971v.008c.858,1.856,1.881,1.237,2.367.767A17.612,17.612,0,0,1,165.1,211.971Z" transform="translate(-136.985 -176.859)" fill="#fbfbfb"/>
        <path id="Trazado_1042753" data-name="Trazado 1042753" d="M197.444,174.182l4.8,8.476a17.707,17.707,0,0,0,2.834-4.506,9.19,9.19,0,0,0,.524-1.717,4.428,4.428,0,0,0-1.34-4.417c-2.087-1.851-3.856-1.18-5.062-.121a6.538,6.538,0,0,0-.593.6A8.336,8.336,0,0,0,197.444,174.182Z" transform="translate(-142.649 -169.66)" fill="#381d20"/>
        <path id="Trazado_1042754" data-name="Trazado 1042754" d="M155.325,188.91s1.215-7.214-1.139-10.934,1.67-4.176,2.354-3.8-.836-2.126,1.443-3.265,22.616-6.069,27.284,11.422c0,0-18.021-8.384-21.97-4.892s-5.163.836-6,3.873-2.05,8.2-2.05,8.2Z" transform="translate(-134.947 -169.406)" fill="#381d20"/>
        <path id="Trazado_1042755" data-name="Trazado 1042755" d="M180.651,232.619s5.006,9.924,2.723,13.262-11.593-1.142-12.12-2.372,2.485-2.123,2.485-2.123l4.718.542s-3.865-5.8-1.932-8.871S180.651,232.619,180.651,232.619Z" transform="translate(-138.053 -180.29)" fill="#ba735b"/>
        <path id="Trazado_1042756" data-name="Trazado 1042756" d="M164.648,238.839s-17.323-3.118-16.4,3,22.52,7.16,25.407,3.234S164.648,238.839,164.648,238.839Z" transform="translate(-134.029 -181.424)" fill="#dcedf5"/>
        <path id="Trazado_1042757" data-name="Trazado 1042757" d="M170.1,243.038s-1.229-.878-1.32-1.667c-.15-1.3,1.76.459,3.165.674,1.072.163,1.7.676,1.34,1.239-.671,1.05-4.9.98-4.655.082S170.1,243.038,170.1,243.038Z" transform="translate(-137.603 -181.923)" fill="#ba735b"/>
        <path id="Trazado_1042758" data-name="Trazado 1042758" d="M175.659,236.9c-.246-.071-1.576-10.468,1.159-9.921,1.414.283,5.673,4.766,6.294,8.244C183.111,235.226,178.453,237.71,175.659,236.9Z" transform="translate(-138.74 -179.483)" fill="#ffd033"/>
        <path id="Trazado_1042759" data-name="Trazado 1042759" d="M141.3,217.028s-7.99,13.189-6.214,12.555S144.467,215,141.3,217.028Z" transform="translate(-131.685 -177.709)" fill="#ff8dc5"/>
        <path id="Trazado_1042760" data-name="Trazado 1042760" d="M132.555,238.473a5.675,5.675,0,0,1-1.416-3.8c-.107-2.577,3.007-3.06,3.007-3.06l.644.215a4.561,4.561,0,0,1-.483,4.4A23.181,23.181,0,0,1,132.555,238.473Z" transform="translate(-131.039 -180.298)" fill="#381d20"/>
        <path id="Trazado_1042761" data-name="Trazado 1042761" d="M138.986,226.96s-2.564-1.006-3.217,0,.4,2.413,3.569,2.161S138.986,226.96,138.986,226.96Z" transform="translate(-131.818 -179.405)" fill="#ba735b"/>
        <path id="Trazado_1042762" data-name="Trazado 1042762" d="M153.28,242c-.07.524-.9.846-1.849.719s-1.667-.653-1.6-1.177.9-.845,1.849-.719S153.35,241.473,153.28,242Z" transform="translate(-134.312 -181.905)" fill="#ff8dc5"/>
        <path id="Trazado_1042763" data-name="Trazado 1042763" d="M154.134,244.941c0,.512,1.076.927,2.4.927s2.4-.415,2.4-.927-1.076-.927-2.4-.927S154.134,244.43,154.134,244.941Z" transform="translate(-135.066 -182.469)" fill="#abc6d4"/>
        <path id="Trazado_1042764" data-name="Trazado 1042764" d="M161.306,239.474c0,.48-.882.869-1.97.869s-1.97-.389-1.97-.869.882-.869,1.97-.869S161.306,238.994,161.306,239.474Z" transform="translate(-135.632 -181.522)" fill="#ffd033"/>
        <path id="Trazado_1042765" data-name="Trazado 1042765" d="M161.44,246c0,.592.869,1.072,1.941,1.072s1.941-.48,1.941-1.072-.869-1.072-1.941-1.072S161.44,245.407,161.44,246Z" transform="translate(-136.345 -182.629)" fill="#7760a3"/>
        <path id="Trazado_1042766" data-name="Trazado 1042766" d="M131.393,234.567s.256,2.9,1.9,2.828-.563-.011-.13,2.276c.367,1.941.839,3.672-.629,3.62-1.962-.07-.852-4.164-.706-4.024S130.3,234.361,131.393,234.567Z" transform="translate(-131.018 -180.814)" fill="#7760a3"/>
        <g id="Grupo_1182695" data-name="Grupo 1182695" transform="translate(48.186 76.184)">
          <path id="Trazado_1042767" data-name="Trazado 1042767" d="M191.629,269.75s6.108-3.1,7.573-5.756-.227-1.742-2.8-1.515c-2.381.21-6.509-.537-6.967,2.121C189.433,264.6,191.537,267.826,191.629,269.75Z" transform="translate(-189.433 -261.827)" fill="#9677d4"/>
          <path id="Trazado_1042768" data-name="Trazado 1042768" d="M190.578,263.134s.013.8,2.055.993,6.366-.2,7.192-1.609S191.356,261.871,190.578,263.134Z" transform="translate(-189.633 -261.76)" fill="#7760a3"/>
        </g>
      </g>
    </g>
    <g id="Grupo_1182713" data-name="Grupo 1182713" transform="translate(150.619 66.705)">
      <path id="Trazado_1042769" data-name="Trazado 1042769" d="M301.843,276.507c0,2.449-20.146,4.435-45,4.435s-45-1.986-45-4.435,20.146-4.435,45-4.435S301.843,274.057,301.843,276.507Z" transform="translate(-211.848 -135.346)" fill="#c8dfe8" opacity="0.72"/>
      <path id="Trazado_1042770" data-name="Trazado 1042770" d="M259.841,151.415s-6.707.04-5.258,9.059C255.806,168.086,259.841,151.415,259.841,151.415Z" transform="translate(-220.727 -110.155)" fill="#ffd033"/>
      <path id="Trazado_1042771" data-name="Trazado 1042771" d="M278.948,179.67a2.291,2.291,0,0,0-.957-3.165,8.143,8.143,0,0,0-3.018-1.324s-4.857-8.978-8.61-9.567S265.849,175.182,278.948,179.67Z" transform="translate(-222.925 -113.114)" fill="#fa916e"/>
      <g id="Grupo_1182699" data-name="Grupo 1182699" transform="translate(57.794 35.918)">
        <g id="Grupo_1182698" data-name="Grupo 1182698">
          <path id="Trazado_1042772" data-name="Trazado 1042772" d="M299.468,160.635l-13.834-15.3Z" transform="translate(-285.047 -144.803)" fill="#6199c7"/>
          <path id="Trazado_1042773" data-name="Trazado 1042773" d="M298.726,161.025l1.825.785-.65-1.846-13.834-15.3-1.174,1.062Z" transform="translate(-284.892 -144.663)" fill="#6199c7"/>
        </g>
        <path id="Trazado_1042774" data-name="Trazado 1042774" d="M302.372,165.064l1.479.822.76.419-.34-.744-.72-1.558Z" transform="translate(-288.541 -148.701)" fill="#facea5"/>
        <path id="Trazado_1042775" data-name="Trazado 1042775" d="M304.241,166.3l.76.419-.34-.744Z" transform="translate(-288.932 -149.112)" fill="#6199c7"/>
      </g>
      <path id="Trazado_1042776" data-name="Trazado 1042776" d="M294.163,158.72a.769.769,0,0,0,.036-.919c-.479-.688-1.465-1.863-2.629-1.863-1.646,0-2.116,2.7-2.116,2.7l-5.172,5.054s-8.56-8.064-11.852-8.417-2.959,9.475,10.206,13.941c0,0,3.644.353,9.051-7.4Z" transform="translate(-224.132 -110.96)" fill="#fa916e"/>
      <path id="Trazado_1042777" data-name="Trazado 1042777" d="M268.579,178.458s11.268,4.284,15.028,10.043c0,0,.935,3.743-5.295,5.154,0,0-19.9,4.04-26.479-.309s-1.71-15.475-1.71-15.475A30.437,30.437,0,0,0,268.579,178.458Z" transform="translate(-219.477 -115.679)" fill="#9677d4"/>
      <path id="Trazado_1042778" data-name="Trazado 1042778" d="M262.208,143.726l-.926,6.084a4.837,4.837,0,0,0,5.49.363l.726-4.86Z" transform="translate(-222.169 -108.55)" fill="#fa916e"/>
      <path id="Trazado_1042779" data-name="Trazado 1042779" d="M278.134,114.723c.4.419,6.286,5.172,3.061,10.27s-3.635,7.18-3.488,8.923-1.905,6.241-10.521,6.384-13.046-3.248-15.136-8.9C248.957,123.041,268.357,104.581,278.134,114.723Z" transform="translate(-220.173 -101.876)" fill="#fa9a7a"/>
      <path id="Trazado_1042780" data-name="Trazado 1042780" d="M278.909,112.321s3.042,6.384-2.356,10.647c-5.108,4.034-5.764,12.655-12.272,15.146-2.17.83-5.41.1-8.555-1.37,0,0-15.955-5.881-8.777-22.279S275.64,102.588,278.909,112.321Z" transform="translate(-218.789 -100.167)" fill="#e3791b"/>
      <path id="Trazado_1042781" data-name="Trazado 1042781" d="M280.152,133.6s.717-4.7-2-5.031-6.109,7.946-1.5,8.671S280.152,133.6,280.152,133.6Z" transform="translate(-224.903 -105.383)" fill="#fa9a7a"/>
      <path id="Trazado_1042782" data-name="Trazado 1042782" d="M279.587,133.332s.541,2.488-.757,1.893-.162-2-.162-2,.271-1.622-.757-1.73C277.91,131.493,279.424,130.3,279.587,133.332Z" transform="translate(-225.64 -105.948)" fill="#eb8460"/>
      <path id="Trazado_1042783" data-name="Trazado 1042783" d="M286.685,114.973s5.253-1.3,4.775,4.98-4.3,7.027-4.3,7.027-2.046-2.66-2.729-3.82S286.685,114.973,286.685,114.973Z" transform="translate(-226.981 -102.524)" fill="#e3791b"/>
      <path id="Trazado_1042784" data-name="Trazado 1042784" d="M280.141,113.826s.543-9.7-10.045-13.379-20.912,1.64-22.983,10.617c0,0-2.463-.4-3.966,3.509-1.413,3.674.662,13.063,5.611,16.63S280.141,113.826,280.141,113.826Z" transform="translate(-218.292 -99.268)" fill="#e3791b"/>
      <path id="Trazado_1042785" data-name="Trazado 1042785" d="M249.49,172.974s10.127,3.822,19.319-.055V171.4l-.008-.815-.016-7.437a54.5,54.5,0,0,0,4.652,3.426c.229.158.467.309.712.459h.008c.657.411,1.337.807,2,1.155,0,0,3.584-2.753,3.7-5.308,0,0-.459-.483-1.218-1.234-.182-.182-.38-.38-.6-.593a65.695,65.695,0,0,0-8.173-6.994c-3.331-2.223-5.554-2.295-5.554-2.295s-3.9.554-5.49-.364c0,0-6.883-2.1-9.074,18.79-.032.277-.055.554-.079.831C249.6,171.652,249.545,172.3,249.49,172.974Z" transform="translate(-219.707 -110.14)" fill="#ffd033"/>
      <g id="Grupo_1182700" data-name="Grupo 1182700" transform="translate(53.731 50.912)">
        <path id="Trazado_1042786" data-name="Trazado 1042786" d="M279.757,169.136c.229.158.467.309.712.459h.008a14.923,14.923,0,0,0,4.478-5.387c-.182-.182-.38-.38-.6-.593A14.185,14.185,0,0,1,279.757,169.136Z" transform="translate(-279.757 -163.614)" fill="#fff"/>
      </g>
      <g id="Grupo_1182701" data-name="Grupo 1182701" transform="translate(29.957 60.049)">
        <path id="Trazado_1042787" data-name="Trazado 1042787" d="M249.71,175.993a21.067,21.067,0,0,0,8.726,1.567,52.063,52.063,0,0,0,10.42-1.187l-.008-.815c-2.152.475-12.99,2.635-19.059-.4C249.757,175.439,249.734,175.716,249.71,175.993Z" transform="translate(-249.71 -175.162)" fill="#fff"/>
      </g>
      <path id="Trazado_1042788" data-name="Trazado 1042788" d="M290.477,191.306s6.58,8.32,7.055,16.712c.733,12.94-16.245-11.378-16.245-13.606S290.477,191.306,290.477,191.306Z" transform="translate(-226.345 -118.484)" fill="#9677d4"/>
      <path id="Trazado_1042789" data-name="Trazado 1042789" d="M280.8,193.134s4.517,9.6,3.073,17.878c-.919,5.273-2.482,3.606-4.967-.244-3.533-5.473-8.059-15.424-7.762-16.7C271.647,191.9,280.8,193.134,280.8,193.134Z" transform="translate(-224.224 -118.792)" fill="#9677d4"/>
      <g id="Grupo_1182712" data-name="Grupo 1182712" transform="translate(7.49 78.173)">
        <g id="Grupo_1182711" data-name="Grupo 1182711" transform="translate(0 1.246)">
          <g id="Grupo_1182702" data-name="Grupo 1182702" transform="translate(28.382 6.992)">
            <rect id="Rectángulo_415931" data-name="Rectángulo 415931" width="27.143" height="3.016" fill="#ffca45"/>
          </g>
          <g id="Grupo_1182703" data-name="Grupo 1182703" transform="translate(34.979 36.997)">
            <rect id="Rectángulo_415932" data-name="Rectángulo 415932" width="27.143" height="3.016" fill="#ffca45"/>
          </g>
          <g id="Grupo_1182708" data-name="Grupo 1182708">
            <g id="Grupo_1182704" data-name="Grupo 1182704" transform="translate(52.069 0.245)">
              <path id="Trazado_1042790" data-name="Trazado 1042790" d="M307.218,261.606h-5.923l-5.028-21.884-.693-3.019-6.2-26.982-.693-3.019-.579-2.527-.974-4.22,5.932.07.965,4.194Z" transform="translate(-287.123 -199.954)" fill="#ffca45"/>
            </g>
            <g id="Grupo_1182705" data-name="Grupo 1182705" transform="translate(24.236)">
              <path id="Trazado_1042791" data-name="Trazado 1042791" d="M272.066,261.541h-5.923l-2.352-10.249-2.957-12.872-1.027-4.431-.693-3.018-6.168-26.851-.044-.2-.65-2.816-.307-1.343,5.888-.114.333,1.457.658,2.852.035.167.579,2.518.694,3.019,3.659,15.891,2.545,11.091.413,1.772.29,1.246Z" transform="translate(-251.945 -199.644)" fill="#ffca45"/>
            </g>
            <g id="Grupo_1182706" data-name="Grupo 1182706" transform="translate(0 0.193)">
              <path id="Trazado_1042792" data-name="Trazado 1042792" d="M241.417,199.888l-.29,1.264-.641,2.772-.052.246-6.178,26.851-.693,3.018-6.335,27.553h-5.914l13.259-57.712.895-3.879Z" transform="translate(-221.314 -199.888)" fill="#ffb700"/>
            </g>
            <g id="Grupo_1182707" data-name="Grupo 1182707" transform="translate(27.807 0.131)">
              <path id="Trazado_1042793" data-name="Trazado 1042793" d="M276.562,199.88l-.974,4.22L275,206.671l-.693,3.019-6.2,26.982-.412,1.772-.29,1.246-2.668,11.635-2.36,10.249h-5.914l5.318-23.122,1.018-4.431.693-3.018,1.246-5.423,3.651-15.891.693-3.019.579-2.518.017-.1.676-2.922.307-1.325Z" transform="translate(-256.459 -199.81)" fill="#ffb700"/>
            </g>
          </g>
          <g id="Grupo_1182709" data-name="Grupo 1182709" transform="translate(16.039 1.459)">
            <rect id="Rectángulo_415933" data-name="Rectángulo 415933" width="27.143" height="3.016" fill="#ffb700"/>
          </g>
          <g id="Grupo_1182710" data-name="Grupo 1182710" transform="translate(9.582 31.328)">
            <rect id="Rectángulo_415934" data-name="Rectángulo 415934" width="27.143" height="3.016" fill="#ffb700"/>
          </g>
        </g>
        <path id="Trazado_1042794" data-name="Trazado 1042794" d="M284.117,204.154h-.377l-5.923-.044-6.107-.044-3.756-.026-2.158-.017-9.907-.07-5.923-.036-6.02-.044-3.132-.026-2.781-.017h-.15l.807-3.87.237-.009,5.949-.114,4.133-.079,5.888-.114h.228l11.653.131,5.906.07,4.159.044,5.932.07h.062Z" transform="translate(-224.773 -198.398)" fill="#ffb700"/>
        <path id="Trazado_1042795" data-name="Trazado 1042795" d="M281.468,205.245H235.161a3.588,3.588,0,0,1-3.588-3.588h0a3.588,3.588,0,0,1,3.588-3.588h46.307a3.588,3.588,0,0,1,3.588,3.588h0A3.589,3.589,0,0,1,281.468,205.245Z" transform="translate(-223.456 -198.069)" fill="#ffb700"/>
      </g>
      <path id="Trazado_1042796" data-name="Trazado 1042796" d="M297.9,214.276s.593,4.546,1.285,4.546,4.842,2.866,6.72,2.075-4.842-6.226-4.941-7.313Z" transform="translate(-229.815 -123.135)" fill="#db79a9"/>
      <path id="Trazado_1042797" data-name="Trazado 1042797" d="M280.83,215.268s-.332,3.034,2.075,3.807c.658.211,4.842,2.866,6.72,2.075s-3.53-5.268-3.629-6.355Z" transform="translate(-226.247 -123.388)" fill="#db79a9"/>
    </g>
    <g id="Grupo_1182724" data-name="Grupo 1182724" transform="translate(32.742 75.279)">
      <path id="Trazado_1042798" data-name="Trazado 1042798" d="M100.545,272.541c0,2.092-14.336,3.788-32.021,3.788s-32.021-1.7-32.021-3.788,14.336-3.788,32.021-3.788S100.545,270.448,100.545,272.541Z" transform="translate(-36.503 -143.475)" fill="#c8dfe8" opacity="0.78"/>
      <path id="Trazado_1042799" data-name="Trazado 1042799" d="M57.621,188.026c-.425.425-5.524,10.2,3.541,11.334s9.633-9.633,9.633-9.633Z" transform="translate(-39.06 -132.781)" fill="#fa9a7a"/>
      <path id="Trazado_1042800" data-name="Trazado 1042800" d="M83.687,266.633s-1.955,4.038-.942,4.689,13.535.652,14.548,0-3.206-5.289-9.219-4.581Z" transform="translate(-42.59 -143.194)" fill="#733b42"/>
      <path id="Trazado_1042801" data-name="Trazado 1042801" d="M82.731,256.906c.036.109.992,8.352.992,8.352a3.663,3.663,0,0,0,4.316.108l1.371-9.117Z" transform="translate(-42.626 -141.818)" fill="#9677d4"/>
      <path id="Trazado_1042802" data-name="Trazado 1042802" d="M53.684,267.4s-.77.219-.989,1.429-.44,3.3.219,3.736,11.7.11,11.919-.11-1.374-6.067-10.385-4.489Z" transform="translate(-38.619 -143.296)" fill="#733b42"/>
      <path id="Trazado_1042803" data-name="Trazado 1042803" d="M56.115,250.94s-2.23,3.558-2.246,14.283c0,0,.863,1.459,4.313.377,0,0,2.909-10.146,2.977-10.281S56.115,250.94,56.115,250.94Z" transform="translate(-38.803 -141.115)" fill="#9677d4"/>
      <path id="Trazado_1042804" data-name="Trazado 1042804" d="M71,210.8l.65.006C71.933,209.165,71.456,209.464,71,210.8Z" transform="translate(-41.072 -135.65)" fill="#fa9a7a"/>
      <path id="Trazado_1042805" data-name="Trazado 1042805" d="M92.578,254.162S86.4,257.439,77.142,255.4c.341-7.609-1.3-24.528-3.136-37.857-.77-5.573-1.387-10.4-1.649-13.421l.33-.093,10.766-3.375a60.663,60.663,0,0,1,1.835,6.241c.846,3.468,1.582,7.374,2.25,11.5C89.448,230.229,90.793,243.871,92.578,254.162Z" transform="translate(-41.252 -134.454)" fill="#89bed9"/>
      <path id="Trazado_1042806" data-name="Trazado 1042806" d="M73.045,205.584c-.3,2.774-1.1,6.969-2.123,11.8-2.63,12.432-4.176,30.561-4.946,37.741a27.327,27.327,0,0,1-16.9-1.929c2.926-7.712,6.4-22.062,8.438-33.242.787-4.237,1.463-8.339,2.021-12.026.482-3.222.871-6.114,1.15-8.508,1.641.812,5.76,2.867,8.922,4.449C71.065,204.594,72.326,205.228,73.045,205.584Z" transform="translate(-38.168 -134.29)" fill="#89bed9"/>
      <g id="Grupo_1182714" data-name="Grupo 1182714" transform="translate(19.695 46.942)">
        <path id="Trazado_1042807" data-name="Trazado 1042807" d="M84.2,179.922l.06.017-.013-.012A.268.268,0,0,1,84.2,179.922Z" transform="translate(-62.516 -178.65)" fill="#c5d653"/>
        <path id="Trazado_1042808" data-name="Trazado 1042808" d="M85.414,202.768c-3.529,2.331-20.543,5.8-26.209,1.271.114-.721.219-1.5.324-2.323.413-3.181.85-6.993,1.473-10.539.971-5.5,2.42-10.393,5.034-11.4.016-.008.024-.008.041-.016a22.012,22.012,0,0,1,3.036-.923,13.686,13.686,0,0,1,4.023-.357,2.489,2.489,0,0,1,.34.024,12.853,12.853,0,0,1,2.161.38,26.456,26.456,0,0,1,2.736.907c.267.1,1.643,4.557,3.173,9.729,1.141,3.861,2.372,8.126,3.286,11.268C85.042,201.521,85.244,202.185,85.414,202.768Z" transform="translate(-59.205 -178.456)" fill="#c5d653"/>
      </g>
      <path id="Trazado_1042809" data-name="Trazado 1042809" d="M84.241,180.009c-.013,0-.027-.007-.04-.007l.06.02-.013-.013Z" transform="translate(-42.821 -131.719)" fill="#fa9a7a"/>
      <path id="Trazado_1042810" data-name="Trazado 1042810" d="M68.6,178.219s-.049.211-.129.591c-.114.566-.291,1.506-.454,2.679a33.3,33.3,0,0,0-.089,9.244s-3.8.348-7.568.413a30.1,30.1,0,0,1-6.006-.348s2.153-9.754,10.6-12.085A14.549,14.549,0,0,1,68.6,178.219Z" transform="translate(-38.867 -131.482)" fill="#c5d653"/>
      <path id="Trazado_1042811" data-name="Trazado 1042811" d="M82.9,180.307l6.284-7.383,9.911-7.806,1.677,1.9s-1.051,6.565-11.153,16.135c-5.249,4.974-9.393,4.077-9.393,4.077Z" transform="translate(-42.295 -129.747)" fill="#fa9a7a"/>
      <path id="Trazado_1042812" data-name="Trazado 1042812" d="M63.27,210.04l6.171,1.142s-1.674,5.223-4.573,4.015S63.27,210.04,63.27,210.04Z" transform="translate(-40.01 -135.697)" fill="#6ac"/>
      <path id="Trazado_1042813" data-name="Trazado 1042813" d="M75.819,210.625l7-1.32s1.816,4.233-2.311,5.794C77.067,216.4,75.819,210.625,75.819,210.625Z" transform="translate(-41.711 -135.6)" fill="#6ac"/>
      <path id="Trazado_1042814" data-name="Trazado 1042814" d="M90.067,183.743a18.9,18.9,0,0,1-6.395,5.61,10.313,10.313,0,0,1-5.844,1.271L75.8,180.9l-.542-2.59v-.016c.114.016.226.032.34.041a14.772,14.772,0,0,0,2.258.016c.38-.016.769-.049,1.157-.089,1.837-.178,3.772-.5,5.107-.761,1.044-.2,1.732-.356,1.732-.356C88.82,178.765,90.067,183.743,90.067,183.743Z" transform="translate(-41.637 -131.34)" fill="#c5d653"/>
      <path id="Trazado_1042815" data-name="Trazado 1042815" d="M76.71,178.494a1.864,1.864,0,0,1-.1.364,3.8,3.8,0,0,1-1.959,2.185,6.4,6.4,0,0,1-3.036.729,7.048,7.048,0,0,1-1.983-.284,4.83,4.83,0,0,1-2.582-1.757,2.933,2.933,0,0,1-.477-1.02,14.5,14.5,0,0,1,3.643-.494s-.049.211-.129.591a13.686,13.686,0,0,1,4.023-.357v-.016c.114.016.226.032.34.041A14.644,14.644,0,0,0,76.71,178.494Z" transform="translate(-40.486 -131.482)" fill="#9677d4"/>
      <g id="Grupo_1182715" data-name="Grupo 1182715" transform="translate(6.033)">
        <path id="Trazado_1042816" data-name="Trazado 1042816" d="M82.626,152.171c-5.852-.338-15.18,3.222-22.944,6.834-5.505,2.816-9.1,1.649-12.423-2.554-8.651-12.035.152-19.7.246-20.288a17.021,17.021,0,0,1,2.25-5.142c8.177-12.364,30.47-6.419,34.081,8.583A20.489,20.489,0,0,1,82.626,152.171Z" transform="translate(-43.457 -124.346)" fill="#733b42"/>
      </g>
      <g id="Grupo_1182716" data-name="Grupo 1182716" transform="translate(28.747 42.622)">
        <path id="Trazado_1042817" data-name="Trazado 1042817" d="M69.639,176.439c.618.731,2.314,1.12,4.837.876-.129-.789-.272-2.99-.323-3.815-.024-.013-.056-.024-.053-.023-.074.011-4.319.681-4.386.691Z" transform="translate(-69.639 -173.476)" fill="#eb8460"/>
      </g>
      <g id="Grupo_1182717" data-name="Grupo 1182717" transform="translate(10.028 4.225)">
        <path id="Trazado_1042818" data-name="Trazado 1042818" d="M70.361,129.217s16.883,3.365,11.039,21.6c-2.668,8.321-2.367,15.319-21.492,8.734-5.192,4.189-14.907-7.738-10.9-18.486Z" transform="translate(-48.062 -129.217)" fill="#733b42"/>
      </g>
      <g id="Grupo_1182718" data-name="Grupo 1182718" transform="translate(13.077 4.343)">
        <path id="Trazado_1042819" data-name="Trazado 1042819" d="M77.306,136.229s-.161,9.048,4.228,16.3c2.6,4.3-.2,12.3-6.265,14.911-7.89,3.4-17.261,1.823-19.906-5.475,0,0-8.949-21.259.667-29.825C61.389,127.36,76.433,128.735,77.306,136.229Z" transform="translate(-51.576 -129.353)" fill="#fa9a7a"/>
      </g>
      <path id="Trazado_1042820" data-name="Trazado 1042820" d="M48.251,143.263c-.075.3,4.92,6.736,23.463.681,0,0-7.267-2.119-6.358-7.872S48.251,143.263,48.251,143.263Z" transform="translate(-38.059 -125.705)" fill="#733b42"/>
      <g id="Grupo_1182719" data-name="Grupo 1182719" transform="translate(8.427 32.587)">
        <path id="Trazado_1042821" data-name="Trazado 1042821" d="M53.293,162.108s-7.371-1.339-7.067,2.916c.222,3.116,7.588,5.949,9.587,3.577S53.293,162.108,53.293,162.108Z" transform="translate(-46.216 -161.909)" fill="#fa9a7a"/>
      </g>
      <g id="Grupo_1182720" data-name="Grupo 1182720" transform="translate(28.702 40.062)">
        <path id="Trazado_1042822" data-name="Trazado 1042822" d="M69.6,177.463c-.345,1.061,4.8,1.153,4.9-.04.187-2.112-.4-4.779-.54-6.9H69.836C69.76,172.678,69.623,175.321,69.6,177.463Z" transform="translate(-69.587 -170.525)" fill="#fa9a7a"/>
      </g>
      <g id="Grupo_1182721" data-name="Grupo 1182721" transform="translate(35.702 8.976)">
        <path id="Trazado_1042823" data-name="Trazado 1042823" d="M81.39,134.693c5.315,3.455,1.623,11.15.7,17.279,0,0-4.837-12.408-2.534-13.874s-1.9-3.214-1.9-3.214Z" transform="translate(-77.656 -134.693)" fill="#ffd033"/>
      </g>
      <g id="Grupo_1182722" data-name="Grupo 1182722" transform="translate(41.474 21.989)">
        <path id="Trazado_1042824" data-name="Trazado 1042824" d="M84.385,153.174s4.709-5.826,7.257-2.406c1.866,2.505-1.863,9.46-4.926,8.969S84.385,153.174,84.385,153.174Z" transform="translate(-84.309 -149.692)" fill="#fa9a7a"/>
      </g>
      <g id="Grupo_1182723" data-name="Grupo 1182723" transform="translate(9.43 5.754)">
        <path id="Trazado_1042825" data-name="Trazado 1042825" d="M54.072,131.021s6,6.773,1.385,8.73c-9.317,3.954,1.608,8.636-1.873,19.562,0,0-3.378-9.638-4.594-8.13C46.264,154.568,46.384,129.824,54.072,131.021Z" transform="translate(-47.372 -130.979)" fill="#733b42"/>
      </g>
      <path id="Trazado_1042826" data-name="Trazado 1042826" d="M82.1,150.013s3.364-10.944-11.386-8.631c0,0,6.463,4.7,6.494,6.535Z" transform="translate(-41.035 -126.56)" fill="#fa9a7a"/>
      <path id="Trazado_1042827" data-name="Trazado 1042827" d="M79.81,148.744s-3.592-11.039-8.694-8.487c-6.483,3.242-13.776,2.457-17.435-1.523-1.419-2.708-4.679-8.262,4.247-10.43S86.743,127.989,79.81,148.744Z" transform="translate(-38.545 -124.778)" fill="#733b42"/>
      <path id="Trazado_1042828" data-name="Trazado 1042828" d="M84.87,145.386s1.587,18.513-10.837,23.536-20.621-2.123-24.19-12.829,4.1-22.47,15.068-22.735S84.87,145.386,84.87,145.386Z" transform="translate(-38.153 -125.54)" fill="#733b42"/>
      <path id="Trazado_1042829" data-name="Trazado 1042829" d="M85.414,206.179c-3.529,2.331-20.543,5.8-26.209,1.271.114-.721.219-1.5.324-2.323,3.691,1.385,12.683,3.618,25.3-.922C85.042,204.932,85.244,205.6,85.414,206.179Z" transform="translate(-39.51 -134.924)" fill="#9677d4"/>
      <path id="Trazado_1042830" data-name="Trazado 1042830" d="M99.656,140.169l14.263.827-4.548,12.4-8.888-.206Z" transform="translate(-44.868 -126.442)" fill="#381d20"/>
      <path id="Trazado_1042831" data-name="Trazado 1042831" d="M100.4,154.952l3.112,5.8-2.278,13.022,4.064.239.485-13.62,3.683-5.04Z" transform="translate(-44.967 -128.4)" fill="#9677d4"/>
      <path id="Trazado_1042832" data-name="Trazado 1042832" d="M100.75,164.572s3.911-4.172,6-2.086-.456,5.345-3.324,6.061S100.685,164.9,100.75,164.572Z" transform="translate(-45.01 -129.321)" fill="#fa9a7a"/>
      <path id="Trazado_1042833" data-name="Trazado 1042833" d="M98.3,139.807s0,7.78,1.694,7.78.627-4.392,3.012-3.451,2.572.627,4.455-.062,1.819.753,3.012,1.506,1.883-.188,1.945,3.89,3.137-7.906,1.192-9.286-3.012-1.255-8.471-.691S98.234,137.422,98.3,139.807Z" transform="translate(-44.688 -126.26)" fill="#c5d653"/>
      <path id="Trazado_1042834" data-name="Trazado 1042834" d="M120.009,202.132c-.131-.441-4.045-11.124-7.814-11.767,0,0,3.953,7.447,4.321,11.308l-7.539-4.229s2.482,3.494,2.39,5.608S120.744,204.614,120.009,202.132Z" transform="translate(-46.103 -133.091)" fill="#c5d653"/>
    </g>
    <g id="Grupo_1182728" data-name="Grupo 1182728" transform="translate(296.811 112.173)">
      <ellipse id="Elipse_12481" data-name="Elipse 12481" cx="31.573" cy="4.485" rx="31.573" ry="4.485" transform="translate(2.283 89.398)" fill="#c8dfe8" opacity="0.79"/>
      <path id="Trazado_1042835" data-name="Trazado 1042835" d="M468.676,253.665h-38.64a3.629,3.629,0,0,1-3.629-3.629h0a3.629,3.629,0,0,1,3.629-3.629h38.64a3.629,3.629,0,0,1,3.629,3.629h0A3.629,3.629,0,0,1,468.676,253.665Z" transform="translate(-414.626 -175.591)" fill="#ffb700"/>
      <g id="Grupo_1182727" data-name="Grupo 1182727">
        <path id="Trazado_1042836" data-name="Trazado 1042836" d="M491.552,179.48s-1.265-2.754,0-3.648,2.6-1.935,3.8-1.488,1.8,5.276-2.226,6.136S491.552,179.48,491.552,179.48Z" transform="translate(-427.49 -161.175)" fill="#fa9a7a"/>
        <path id="Trazado_1042837" data-name="Trazado 1042837" d="M437.6,195.682c-2.876,0-9.277,10.847-10.627,13.548-.218.435-10.106,9.381-10.106,9.381s-5.333.152-5.181,4.266,7.009,0,7.009,0,7.866-5.486,11.319-8.939c2.535-2.535,5.595-6.3,7.574-8.279C442.925,200.326,440.1,195.68,437.6,195.682Z" transform="translate(-411.686 -165.459)" fill="#fa9a7a"/>
        <path id="Trazado_1042838" data-name="Trazado 1042838" d="M489.128,177.056s.664-.612-1.448-.126a4.074,4.074,0,0,0-2.754,2.679l-7.7,8.243s-12.538,6.9-15.122,9.257l7.566,5.412s5.768-5.459,11.2-10.17a5.006,5.006,0,0,0,1.043-1.252c1.285-2.187,5.09-8.724,5.472-10.118C487.39,180.982,490.491,179.173,489.128,177.056Z" transform="translate(-421.757 -161.676)" fill="#fa9a7a"/>
        <g id="Grupo_1182725" data-name="Grupo 1182725" transform="translate(55.126 9.965)">
          <path id="Trazado_1042839" data-name="Trazado 1042839" d="M482.618,180.121l18.894-8.847Z" transform="translate(-480.98 -170.548)" fill="#6199c7"/>
          <path id="Trazado_1042840" data-name="Trazado 1042840" d="M481.87,179.215l-1.3,1.532,1.977-.082,18.894-8.847-.679-1.451Z" transform="translate(-480.571 -170.367)" fill="#ff8dc5"/>
        </g>
        <path id="Trazado_1042841" data-name="Trazado 1042841" d="M458.071,244.046a57.372,57.372,0,0,1-7.53.784c-1.376.056-2.785.072-4.232.04-.256-.016-.52-.024-.784-.032-1.272-.048-2.569-.136-3.9-.264l-.936-.1a62.571,62.571,0,0,1-6.337-1.1c-13.1-2.937-25.806-9.834-21.565-14.339,4.065-4.321,15.515-.528,20.812,2.153,1.248.632,8.306-.832,7.858,1.336l3.377,1.857s.2-.08.584-.216c.216-.08.488-.176.816-.3,6.417-2.313,32.719-11.347,34.743-4.833C482.277,233.211,473.387,241.4,458.071,244.046Z" transform="translate(-411.74 -171.659)" fill="#6ac"/>
        <path id="Trazado_1042842" data-name="Trazado 1042842" d="M490.621,179.45l.642-2.25a.952.952,0,0,1,1-1.252c1.335-.042-.042,2,1.168,2.3S490.621,179.45,490.621,179.45Z" transform="translate(-427.453 -161.517)" fill="#fa9a7a"/>
        <path id="Trazado_1042843" data-name="Trazado 1042843" d="M482.263,182.874l-2.241.352-.872.144h-.016l.032-.024.648-.52,1.769-1.408Z" transform="translate(-425.158 -162.61)" fill="#fa9a7a"/>
        <path id="Trazado_1042844" data-name="Trazado 1042844" d="M480.026,183.578l-.872.144.016-.024.648-.52Z" transform="translate(-425.162 -162.961)" fill="#ff8dc5"/>
        <path id="Trazado_1042845" data-name="Trazado 1042845" d="M446.035,247.044a62.577,62.577,0,0,1-6.337-1.1c-2.009-2.273-.328-6.377-.328-6.377l9.418,3.017S448.852,245.891,446.035,247.044Z" transform="translate(-417.084 -174.225)" fill="#4a98c2"/>
        <path id="Trazado_1042846" data-name="Trazado 1042846" d="M467.272,247.063a57.373,57.373,0,0,1-7.53.784,8.838,8.838,0,0,1-1.721-4.585l9.786-1.432S469.329,244.8,467.272,247.063Z" transform="translate(-420.941 -174.676)" fill="#4a98c2"/>
        <g id="Grupo_1182726" data-name="Grupo 1182726" transform="translate(33.642 60.599)">
          <path id="Trazado_1042847" data-name="Trazado 1042847" d="M454.652,246.251c-.256-.016-.52-.024-.784-.032-.136-3.545-.184-8.122-.1-10.667a7.9,7.9,0,0,1,.176-1.913l.336.224.376.12c-.024.128-.048.584-.072,1.272C454.524,237.545,454.515,242.426,454.652,246.251Z" transform="translate(-453.724 -233.64)" fill="#4a98c2"/>
        </g>
        <path id="Trazado_1042848" data-name="Trazado 1042848" d="M440.6,199.117l-5.813,25.146s18.257,10.9,31.469,1.368c2.5-1.8-2.676-27.594-2.676-27.594Z" transform="translate(-416.3 -165.929)" fill="#ff8dc5"/>
        <path id="Trazado_1042849" data-name="Trazado 1042849" d="M448,158.285a11.3,11.3,0,0,0-7.907,6.376c-.648,1.385-.632,4.107-1.336,5.875-1.32,3.315-2.868,6.831-3.167,10.316-.743,8.673,5.13,6.088,2.429,14.229-3.331,10.038,7,16.155,13.516,11.843,4.284-2.835,5.575-1.021,8.824-1.3,6.919-.6,6.252-9.765,7.188-10.908,1.685-2.059.927-9.86-.554-15.872-.838-3.4,1.477-6.367-.672-11.144A16,16,0,0,0,448,158.285Z" transform="translate(-416.448 -157.915)" fill="#733b42"/>
        <path id="Trazado_1042850" data-name="Trazado 1042850" d="M451.129,175.6s-3.052-5.762-6.985-5.434c-2.446.2-2.241,11.35-.779,12.159,3.646,2.016,7.922-4.734,7.922-4.734s.135,1,1.672.234c0,0,4.844,7.673,7.368,5.587s3.4-11.328,1.188-12.017c-3.933-1.229-8.143,4.221-8.143,4.221S452.513,174.116,451.129,175.6Z" transform="translate(-417.797 -160.359)" fill="#9677d4"/>
        <path id="Trazado_1042851" data-name="Trazado 1042851" d="M455.771,177.811a1.552,1.552,0,1,1-1.5-1.934A1.761,1.761,0,0,1,455.771,177.811Z" transform="translate(-419.891 -161.503)" fill="#ff8dc5"/>
        <path id="Trazado_1042852" data-name="Trazado 1042852" d="M452.539,231.333c-9.89,0-18.953-5.3-19.094-5.382l.455-.763c.214.127,21.558,12.591,33.973-1.307l.662.591A20.593,20.593,0,0,1,452.539,231.333Z" transform="translate(-416.032 -171.091)" fill="#fff"/>
        <path id="Trazado_1042853" data-name="Trazado 1042853" d="M451.092,177.367c-.159.364-1.231.246-2.393-.263s-1.975-1.217-1.815-1.581,1.231-.246,2.393.263S451.251,177,451.092,177.367Z" transform="translate(-418.713 -161.39)" fill="#754ec7"/>
        <path id="Trazado_1042854" data-name="Trazado 1042854" d="M450.307,179.08c.2.344-.531,1.137-1.63,1.772s-2.151.87-2.35.526.531-1.137,1.63-1.772S450.108,178.736,450.307,179.08Z" transform="translate(-418.599 -162.111)" fill="#754ec7"/>
        <path id="Trazado_1042855" data-name="Trazado 1042855" d="M457.392,177.831c.159.364,1.231.246,2.393-.263s1.975-1.217,1.815-1.581-1.231-.246-2.393.263S457.233,177.468,457.392,177.831Z" transform="translate(-420.811 -161.483)" fill="#754ec7"/>
        <path id="Trazado_1042856" data-name="Trazado 1042856" d="M458.228,179.544c-.2.344.531,1.137,1.63,1.772s2.151.87,2.35.526-.531-1.137-1.63-1.772S458.426,179.2,458.228,179.544Z" transform="translate(-420.976 -162.204)" fill="#754ec7"/>
      </g>
      <rect id="Rectángulo_415935" data-name="Rectángulo 415935" width="5.456" height="19.35" transform="translate(16.433 77.992)" fill="#ffb700"/>
      <rect id="Rectángulo_415936" data-name="Rectángulo 415936" width="5.456" height="19.35" transform="translate(47.066 77.992)" fill="#ffb700"/>
    </g>
    <g id="Grupo_1182730" data-name="Grupo 1182730" transform="translate(233.117 112.173)">
      <path id="Trazado_1042857" data-name="Trazado 1042857" d="M365.977,249.853s-5.419,3.1-5.709,3.29-5.322,0-4.742,3.774,13.065-3.871,13.065-3.871Z" transform="translate(-331.649 -181.001)" fill="#fa916e"/>
      <path id="Trazado_1042858" data-name="Trazado 1042858" d="M388.315,237.879s5.01,11.167-3.293,12.169S383.018,236.734,388.315,237.879Z" transform="translate(-332.979 -180.373)" fill="#fa916e"/>
      <path id="Trazado_1042859" data-name="Trazado 1042859" d="M410.23,275.585c0,2.935-16.743,5.313-37.4,5.313s-37.4-2.378-37.4-5.313,16.743-5.313,37.4-5.313S410.23,272.65,410.23,275.585Z" transform="translate(-330.605 -182.065)" fill="#c8dfe8" opacity="0.66"/>
      <path id="Trazado_1042860" data-name="Trazado 1042860" d="M387.888,270.043c-7.885,5.212-28.443,1.128-28.443,1.128a25.819,25.819,0,0,1-10.369-5.6c-.265-.218-.512-.427-.739-.635a29.393,29.393,0,0,1-2.417-2.36c4.511-6.9,18.586-8.587,18.586-8.587a33.422,33.422,0,0,0,5.933,1.194c.341.038.682.066,1.014.095a36.552,36.552,0,0,0,15.164-1.991S395.774,264.829,387.888,270.043Z" transform="translate(-331.151 -181.179)" fill="#9677d4"/>
      <path id="Trazado_1042861" data-name="Trazado 1042861" d="M347.92,265.1s-5.026,4.846-1.969,8.577c4.713,5.751,29.995,3.379,29.995,3.379l-.282-4.788a30.065,30.065,0,0,0-3.28-1.5c-4.147-1.646-11.636-3.792-18.991-1.717Z" transform="translate(-331.101 -181.795)" fill="#fa916e"/>
      <path id="Trazado_1042862" data-name="Trazado 1042862" d="M374.565,271.322a5.489,5.489,0,0,1,1.863-1.92c1.5-.638,7.013,4.914,6.809,8.612-.174,3.142-2.689.046-5.747-.739Z" transform="translate(-332.644 -182.017)" fill="#7760a3"/>
      <path id="Trazado_1042863" data-name="Trazado 1042863" d="M385.992,268.14a2.783,2.783,0,0,0-2.262,3.215c.318,2.121,1.281,5.4,4.191,5.844C391.617,277.761,390.122,267.6,385.992,268.14Z" transform="translate(-333.12 -181.953)" fill="#7760a3"/>
      <g id="Grupo_1182729" data-name="Grupo 1182729" transform="translate(17.186 73.034)">
        <path id="Trazado_1042864" data-name="Trazado 1042864" d="M371.483,257.383c-.749,1.336-2.91,1.678-6.824,2.275-.929.142-1.953.3-3.081.493a29.061,29.061,0,0,0-12.369,5.468c-.265-.218-.512-.427-.739-.635a29.57,29.57,0,0,1,12.957-5.773c1.118-.19,2.152-.351,3.081-.493,3.393-.521,5.629-.863,6.151-1.8a2.117,2.117,0,0,0-.085-1.687,4.744,4.744,0,0,0-.227-.6l.872-.37a7.153,7.153,0,0,1,.37,1.062A2.627,2.627,0,0,1,371.483,257.383Z" transform="translate(-348.47 -254.264)" fill="#7760a3"/>
      </g>
      <path id="Trazado_1042865" data-name="Trazado 1042865" d="M337.041,238.192s7.38-10.831,9.681-11.119S336.657,240.877,337.041,238.192Z" transform="translate(-330.688 -179.813)" fill="#7760a3"/>
      <path id="Trazado_1042866" data-name="Trazado 1042866" d="M339.072,234.79a.921.921,0,0,1-.043-1.1c.573-.825,1.756-2.232,3.15-2.232,1.972,0,2.535,3.239,2.535,3.239l6.2,6.055s8.027-10.14,11.97-10.561,5.773,11.829-10,17.18c0,0-4.365.423-10.843-8.871Z" transform="translate(-330.783 -179.975)" fill="#fa916e"/>
      <path id="Trazado_1042867" data-name="Trazado 1042867" d="M371.218,227.267a39.27,39.27,0,0,1,6.511-.37C377.3,227.248,374.877,229.058,371.218,227.267Z" transform="translate(-332.47 -179.803)" fill="#ff8dc5"/>
      <path id="Trazado_1042868" data-name="Trazado 1042868" d="M386.887,249.254l.711,2.664-.01.009h-.009c-.029.028-.085.085-.161.152h-.009c-1.374,1.128-9.848,7.393-21.923.54l-.284-3.45-.493-6.094s4.1-10.691,1.194-14.766a22.71,22.71,0,0,1,2.4-.6c.578,1.365,2.777,2.37,5.4,2.37,3.024,0,5.5-1.355,5.554-3.043a11.643,11.643,0,0,1,1.583.275,5.674,5.674,0,0,1,.957.313c3.612,1.545,6.52,10.8,6.52,10.8l-1.621.882-2.152,1.175Z" transform="translate(-332.13 -179.811)" fill="#ff8dc5"/>
      <path id="Trazado_1042869" data-name="Trazado 1042869" d="M377.748,226.427l-.066.066c-.427.351-2.853,2.161-6.511.37l-.417-2.8L370.6,223l-.294-1.953,2.123-.635h.01l4.2-1.27.265,1.725.142.976.351,2.294Z" transform="translate(-332.422 -179.4)" fill="#fa916e"/>
      <path id="Trazado_1042870" data-name="Trazado 1042870" d="M354.072,190.724c-.484.5-7.531,6.2-3.667,12.3s4.354,8.6,4.177,10.689,2.283,7.477,12.6,7.647,15.63-3.891,18.133-10.658C389.026,200.689,365.785,178.574,354.072,190.724Z" transform="translate(-331.325 -177.734)" fill="#fa9a7a"/>
      <path id="Trazado_1042871" data-name="Trazado 1042871" d="M351.553,189.466s-3.645,7.648,2.823,12.756c8.158,6.445,5.81,17.551,24.95,16.5,0,0,19.114-7.046,10.515-26.69S355.468,177.806,351.553,189.466Z" transform="translate(-331.391 -177.307)" fill="#ffd033"/>
      <path id="Trazado_1042872" data-name="Trazado 1042872" d="M389.448,183.383c-.26,3.08-3.455,5.324-7.136,5.013s-6.454-3.06-6.193-6.139,3.455-5.324,7.136-5.013S389.708,180.3,389.448,183.383Z" transform="translate(-332.724 -177.215)" fill="#ff8dc5"/>
      <path id="Trazado_1042873" data-name="Trazado 1042873" d="M382.2,182c-.5,2.47,1.843,5.023,5.224,5.7s6.523-.774,7.019-3.245-1.843-5.023-5.224-5.7S382.7,179.527,382.2,182Z" transform="translate(-333.039 -177.286)" fill="#ffd033"/>
      <path id="Trazado_1042874" data-name="Trazado 1042874" d="M390.995,184.775c-.927,1.684.154,4.059,2.416,5.3s4.846.886,5.773-.8-.155-4.059-2.416-5.3S391.922,183.091,390.995,184.775Z" transform="translate(-333.483 -177.528)" fill="#ffd033"/>
      <path id="Trazado_1042875" data-name="Trazado 1042875" d="M397.451,187.911c1.546-1.087,3.85-.473,5.147,1.372s1.095,4.221-.451,5.307-3.85.473-5.147-1.372S395.905,189,397.451,187.911Z" transform="translate(-333.769 -177.744)" fill="#ffd033"/>
      <path id="Trazado_1042876" data-name="Trazado 1042876" d="M398.314,196.941a3.726,3.726,0,1,1,3,4.483A3.814,3.814,0,0,1,398.314,196.941Z" transform="translate(-333.879 -178.073)" fill="#ffd033"/>
      <path id="Trazado_1042877" data-name="Trazado 1042877" d="M399.36,200.875c-.068-1.033,1.353-1.969,3.172-2.088s3.35.622,3.417,1.656-1.353,1.969-3.172,2.088S399.428,201.909,399.36,200.875Z" transform="translate(-333.936 -178.338)" fill="#ff8dc5"/>
      <path id="Trazado_1042878" data-name="Trazado 1042878" d="M357.757,210.009s-.859-5.636,2.4-6.028,7.319,9.52,1.793,10.388S357.757,210.009,357.757,210.009Z" transform="translate(-331.761 -178.609)" fill="#fa9a7a"/>
      <path id="Trazado_1042879" data-name="Trazado 1042879" d="M398.878,211.65c-.165-2.515.587-10.736,4.392-9.949,4.455.92,3.726,4.694,3.891,7.208s.88,3.769-.939,3.888S399.043,214.164,398.878,211.65Z" transform="translate(-333.91 -178.488)" fill="#ffd033"/>
      <path id="Trazado_1042880" data-name="Trazado 1042880" d="M330.339,243.361c.155-.155,2.739-.642,3.715-3.158a3.219,3.219,0,0,1,3.236-2.26l.924.514A4.456,4.456,0,0,1,336.121,243,7.436,7.436,0,0,1,330.339,243.361Z" transform="translate(-330.339 -180.379)" fill="#381d20"/>
      <path id="Trazado_1042881" data-name="Trazado 1042881" d="M359.4,209.156s-.648,2.98.907,2.267.194-2.4.194-2.4-.324-1.944.907-2.073C361.413,206.953,359.6,205.527,359.4,209.156Z" transform="translate(-331.847 -178.75)" fill="#eb8460"/>
      <path id="Trazado_1042882" data-name="Trazado 1042882" d="M351.818,190.408s-6.293-1.553-5.72,5.966,5.149,8.417,5.149,8.417,2.452-3.187,3.269-4.576S351.818,190.408,351.818,190.408Z" transform="translate(-331.158 -177.895)" fill="#ffd033"/>
      <path id="Trazado_1042883" data-name="Trazado 1042883" d="M379.455,227.031c-.057,1.687-2.531,3.043-5.554,3.043-2.626,0-4.825-1-5.4-2.37.806-.171,1.678-.322,2.578-.436,3.659,1.791,6.084-.019,6.511-.37C378.241,226.917,378.876,226.955,379.455,227.031Z" transform="translate(-332.328 -179.804)" fill="#ffd033"/>
      <path id="Trazado_1042884" data-name="Trazado 1042884" d="M364.139,243.144s-.881.161-4.313,2.228l-.5-.72-4.947-7.165-.607-.882a29.925,29.925,0,0,1,2.91-2.588c1.308-1.071,2.891-2.3,4.379-3.327a25.188,25.188,0,0,1,2.834-1.744,10.38,10.38,0,0,1,1.441-.569C368.242,232.453,364.139,243.144,364.139,243.144Z" transform="translate(-331.56 -179.881)" fill="#db79a9"/>
      <path id="Trazado_1042885" data-name="Trazado 1042885" d="M389.2,238.446l-1.621.882-2.152,1.175-3.705-13.175a5.671,5.671,0,0,1,.957.313C386.3,229.186,389.2,238.446,389.2,238.446Z" transform="translate(-333.017 -179.827)" fill="#db79a9"/>
      <path id="Trazado_1042886" data-name="Trazado 1042886" d="M387.625,253.134l-.009.009h-.009c-.029.028-.085.085-.161.152h-.01c-1.374,1.128-9.847,7.393-21.923.54l-.284-3.45c3.45,1.545,13.241,5.611,21.686.085Z" transform="translate(-332.157 -181.028)" fill="#db79a9"/>
      <path id="Trazado_1042887" data-name="Trazado 1042887" d="M360.526,234.921a2.638,2.638,0,0,1-3.639-.692c-.019-.028-.028-.057-.047-.085,1.308-1.071,2.891-2.3,4.379-3.327a1.827,1.827,0,0,1,.54.6A2.653,2.653,0,0,1,360.526,234.921Z" transform="translate(-331.72 -180.008)" fill="#ffd033"/>
    </g>
  </g>
</svg>
