<svg xmlns="http://www.w3.org/2000/svg" xmlns:xlink="http://www.w3.org/1999/xlink" width="93.934" height="93.934" viewBox="0 0 93.934 93.934">
  <defs>
    <filter id="Trazado_982547" x="0" y="0" width="93.934" height="93.934" filterUnits="userSpaceOnUse">
      <feOffset dy="3" input="SourceAlpha"/>
      <feGaussianBlur stdDeviation="3" result="blur"/>
      <feFlood flood-opacity="0.161"/>
      <feComposite operator="in" in2="blur"/>
      <feComposite in="SourceGraphic"/>
    </filter>
  </defs>
  <g id="Grupo_1183237" data-name="Grupo 1183237" transform="translate(-189 -1304)">
    <g id="Grupo_1181743" data-name="Grupo 1181743" transform="translate(0 569)">
      <g id="Grupo_1175133" data-name="Grupo 1175133" transform="translate(-0.033 -1251)">
        <g id="Grupo_1167337" data-name="Grupo 1167337" transform="translate(198.033 1992)">
          <g id="Grupo_1166720" data-name="Grupo 1166720">
            <g id="Grupo_1164305" data-name="Grupo 1164305">
              <g id="Grupo_1163948" data-name="Grupo 1163948">
                <g id="Grupo_1158168" data-name="Grupo 1158168">
                  <g id="Grupo_1152576" data-name="Grupo 1152576">
                    <g id="Grupo_1148633" data-name="Grupo 1148633">
                      <g id="Grupo_1148525" data-name="Grupo 1148525">
                        <g transform="matrix(1, 0, 0, 1, -9, -6)" filter="url(#Trazado_982547)">
                          <g id="Trazado_982547-2" data-name="Trazado 982547" transform="translate(9 6)" fill="#fdfbec">
                            <path d="M 37.966796875 74.43359375 C 33.04315185546875 74.43359375 28.26757431030273 73.46962738037109 23.77274131774902 71.56847381591797 C 19.43047523498535 69.73184967041016 15.53040790557861 67.10224914550781 12.18087482452393 63.75271987915039 C 8.831341743469238 60.4031867980957 6.201741218566895 56.50312042236328 4.365118980407715 52.16086196899414 C 2.463963508605957 47.66601943969727 1.499996900558472 42.89044189453125 1.499996900558472 37.966796875 C 1.499996900558472 33.04315185546875 2.463963508605957 28.26757431030273 4.365118980407715 23.77274131774902 C 6.201741218566895 19.43047523498535 8.831341743469238 15.53040790557861 12.18087482452393 12.18087482452393 C 15.53040790557861 8.831341743469238 19.43047523498535 6.201741218566895 23.77274131774902 4.365118980407715 C 28.26757431030273 2.463963508605957 33.04315185546875 1.499996900558472 37.966796875 1.499996900558472 C 42.89044189453125 1.499996900558472 47.66601943969727 2.463963508605957 52.16086196899414 4.365118980407715 C 56.50312042236328 6.201741218566895 60.4031867980957 8.831341743469238 63.75271987915039 12.18087482452393 C 67.10224914550781 15.53040790557861 69.73184967041016 19.43047523498535 71.56847381591797 23.77274131774902 C 73.46962738037109 28.26757431030273 74.43359375 33.04315185546875 74.43359375 37.966796875 C 74.43359375 42.89044189453125 73.46962738037109 47.66601943969727 71.56847381591797 52.16086196899414 C 69.73184967041016 56.50313186645508 67.10224914550781 60.4031867980957 63.75271987915039 63.75271987915039 C 60.4031867980957 67.10224914550781 56.50313186645508 69.73184967041016 52.16086196899414 71.56847381591797 C 47.66601943969727 73.46962738037109 42.89044189453125 74.43359375 37.966796875 74.43359375 Z" stroke="none"/>
                            <path d="M 37.966796875 3 C 33.2449836730957 3 28.66600799560547 3.924095153808594 24.35705947875977 5.746635437011719 C 20.19359588623047 7.507637023925781 16.45379638671875 10.02928161621094 13.24153518676758 13.24153518676758 C 10.02927398681641 16.45379638671875 7.507621765136719 20.19359588623047 5.746635437011719 24.35705947875977 C 3.924095153808594 28.66600799560547 3 33.2449836730957 3 37.966796875 C 3 42.6886100769043 3.924095153808594 47.26758575439453 5.746635437011719 51.57653427124023 C 7.507621765136719 55.73999786376953 10.02927398681641 59.47979736328125 13.24153518676758 62.69205856323242 C 16.45379638671875 65.90431976318359 20.19359588623047 68.42597198486328 24.35705947875977 70.18695831298828 C 28.66600799560547 72.00949859619141 33.2449836730957 72.93359375 37.966796875 72.93359375 C 42.6886100769043 72.93359375 47.26758575439453 72.00949859619141 51.57653427124023 70.18695831298828 C 55.73999786376953 68.42597198486328 59.47979736328125 65.90431976318359 62.69205856323242 62.69205856323242 C 65.90431976318359 59.47979736328125 68.42597198486328 55.73999786376953 70.18695831298828 51.57653427124023 C 72.00949859619141 47.26758575439453 72.93359375 42.6886100769043 72.93359375 37.966796875 C 72.93359375 33.2449836730957 72.00949859619141 28.66600799560547 70.18695831298828 24.35705947875977 C 68.42597198486328 20.19359588623047 65.90431976318359 16.45379638671875 62.69205856323242 13.24153518676758 C 59.47979736328125 10.02928161621094 55.73999786376953 7.507637023925781 51.57653427124023 5.746635437011719 C 47.26758575439453 3.924095153808594 42.6886100769043 3 37.966796875 3 M 37.966796875 0 C 58.93528366088867 0 75.93359375 16.99832153320312 75.93359375 37.966796875 C 75.93359375 58.93528366088867 58.93528366088867 75.93359375 37.966796875 75.93359375 C 16.99831008911133 75.93359375 0 58.93528366088867 0 37.966796875 C 0 16.99832153320312 16.99831008911133 0 37.966796875 0 Z" stroke="none" fill="#84792b"/>
                          </g>
                        </g>
                      </g>
                    </g>
                  </g>
                </g>
              </g>
            </g>
          </g>
        </g>
      </g>
    </g>
    <g id="guitarra" transform="translate(213.985 1325.986)">
      <g id="Grupo_1183228" data-name="Grupo 1183228" transform="translate(3.835 3.803)">
        <g id="Grupo_1183221" data-name="Grupo 1183221" transform="translate(0.859 10.818)">
          <path id="Trazado_1044804" data-name="Trazado 1044804" d="M78.006,172.061c-2.808-1.954-6.18-2.6-8.442-.338a7.062,7.062,0,0,0-1.276,1.664,11.084,11.084,0,0,1-7.016,5.3,8.394,8.394,0,0,0-4.284,2.145c-3.79,3.586-2.73,9.468,1.534,13.832,4.3,4.4,10.177,5.622,13.888,1.911a8.375,8.375,0,0,0,2.3-4.446,11.287,11.287,0,0,1,5.366-7.054,6.334,6.334,0,0,0,1.444-1.082c2.381-2.381,1.76-5.78-.188-8.6" transform="translate(-54.658 -170.29)" fill="#ec9271"/>
        </g>
        <g id="Grupo_1183222" data-name="Grupo 1183222" transform="translate(21.977 27.775)">
          <path id="Trazado_1044805" data-name="Trazado 1044805" d="M301.466,369.481a.858.858,0,1,1,.793-1.187A.864.864,0,0,1,301.466,369.481Z" transform="translate(-300.605 -367.769)"/>
        </g>
        <path id="Trazado_1044806" data-name="Trazado 1044806" d="M0,0H7.878V4.713H0Z" transform="translate(30.364 6.433) rotate(-45)" fill="#bd7557"/>
        <g id="Grupo_1183223" data-name="Grupo 1183223" transform="translate(16.34 6.429)">
          <path id="Trazado_1044807" data-name="Trazado 1044807" d="M238.236,136.484l.053.053,14.027-14.028-3.333-3.332L234.956,133.2l.052.052" transform="translate(-234.956 -119.177)" fill="#fff"/>
        </g>
        <g id="Grupo_1183224" data-name="Grupo 1183224" transform="translate(5.28 28.689)">
          <path id="Trazado_1044808" data-name="Trazado 1044808" d="M111.445,384.573a.856.856,0,0,1-.607-.251l-4.443-4.443a.859.859,0,1,1,1.214-1.214l4.443,4.443a.859.859,0,0,1-.607,1.466Z" transform="translate(-106.143 -378.412)"/>
        </g>
        <g id="Grupo_1183225" data-name="Grupo 1183225" transform="translate(9.099 27.566)">
          <path id="Trazado_1044809" data-name="Trazado 1044809" d="M153.231,368.806a.856.856,0,0,1-.607-.251l-1.746-1.746a.859.859,0,0,1,1.214-1.214l1.746,1.746a.859.859,0,0,1-.607,1.466Z" transform="translate(-150.626 -365.343)"/>
        </g>
        <g id="Grupo_1183227" data-name="Grupo 1183227">
          <g id="Grupo_1183226" data-name="Grupo 1183226" transform="translate(11.647 20.627)">
            <path id="Trazado_1044810" data-name="Trazado 1044810" d="M187,285.68a3.927,3.927,0,1,0,0,5.554A3.928,3.928,0,0,0,187,285.68Z" transform="translate(-180.299 -284.53)" fill="#ffc857"/>
          </g>
          <path id="Trazado_1044811" data-name="Trazado 1044811" d="M84.787,48.494a.858.858,0,0,0-.252-.607L81.2,44.555a.859.859,0,0,0-1.214,0L78.762,45.78l-.355-.355a.859.859,0,1,0-1.214,1.214l.355.355-.654.654-.355-.355a.859.859,0,1,0-1.214,1.214l.355.355-6.927,6.927c-3.362-2.081-6.74-2.039-8.936.156a7.878,7.878,0,0,0-1.427,1.868,10.168,10.168,0,0,1-6.414,4.858,9.29,9.29,0,0,0-4.718,2.365,8.177,8.177,0,0,0-2.6,5.9,13.181,13.181,0,0,0,4.107,9.151,13.328,13.328,0,0,0,9.116,4.368h.053a8.229,8.229,0,0,0,5.94-2.451,9.259,9.259,0,0,0,2.54-4.9,6.45,6.45,0,0,1,.2-.782.859.859,0,1,0-1.636-.522,8.177,8.177,0,0,0-.251.992A7.548,7.548,0,0,1,62.662,80.8a6.546,6.546,0,0,1-4.726,1.947h-.043a11.622,11.622,0,0,1-7.9-3.851,11.475,11.475,0,0,1-3.618-7.917,6.5,6.5,0,0,1,2.061-4.691,7.577,7.577,0,0,1,3.85-1.924,11.874,11.874,0,0,0,7.618-5.741,6.207,6.207,0,0,1,1.125-1.46c2.069-2.069,4.892-1,6.465-.114L60.464,64.08a4.786,4.786,0,1,0,4.546,4.547L72.035,61.6c.873,1.585,1.914,4.441-.26,6.615a5.489,5.489,0,0,1-1.249.935c-.232.127-.467.269-.7.422a.859.859,0,1,0,.947,1.433c.192-.127.385-.244.576-.348a7.2,7.2,0,0,0,1.64-1.228,6.028,6.028,0,0,0,1.779-4.8,9.56,9.56,0,0,0-1.475-4.289l6.932-6.932.5.5A.859.859,0,0,0,81.944,52.7l-.5-.5.654-.654.5.5a.859.859,0,1,0,1.214-1.214l-.5-.5L84.535,49.1a.86.86,0,0,0,.251-.607ZM62.4,71.027a3.067,3.067,0,1,1,0-4.34A3.049,3.049,0,0,1,62.4,71.027Zm2.1-4.325a4.767,4.767,0,0,0-.889-1.229h0a4.767,4.767,0,0,0-1.229-.889L75.025,51.947l2.118,2.118ZM78.357,52.85l-2.118-2.118.654-.654L79.012,52.2Zm1.869-1.869-2.118-2.118.654-.654,2.118,2.118Zm-.249-3.987.619-.619,2.118,2.118-.619.619Z" transform="translate(-44.658 -44.303)"/>
        </g>
      </g>
      <g id="Grupo_1183231" data-name="Grupo 1183231" transform="translate(0 5.97)">
        <g id="Grupo_1183229" data-name="Grupo 1183229" transform="translate(0.449 9.811)">
          <circle id="Elipse_12533" data-name="Elipse 12533" cx="2.049" cy="2.049" r="2.049" transform="translate(0 3.991) rotate(-76.881)" fill="#b8ecff"/>
        </g>
        <g id="Grupo_1183230" data-name="Grupo 1183230">
          <circle id="Elipse_12534" data-name="Elipse 12534" cx="2.049" cy="2.049" r="2.049" transform="translate(6.736 10.002) rotate(-45)" fill="#6eb4c7"/>
          <path id="Trazado_1044812" data-name="Trazado 1044812" d="M12.544,70.4a.859.859,0,0,0-1.134-.813L4.681,71.868a.859.859,0,0,0-.583.813v6.491a2.908,2.908,0,1,0,1.717,2.653V73.3l5.011-1.7v5.294a2.908,2.908,0,1,0,1.717,2.653C12.544,79.5,12.544,70.4,12.544,70.4ZM2.908,83.015a1.19,1.19,0,1,1,1.19-1.19A1.192,1.192,0,0,1,2.908,83.015Zm6.729-2.278a1.19,1.19,0,1,1,1.19-1.19A1.192,1.192,0,0,1,9.636,80.737Z" transform="translate(0 -69.544)"/>
        </g>
      </g>
      <g id="Grupo_1183233" data-name="Grupo 1183233" transform="translate(31.894 29.183)">
        <g id="Grupo_1183232" data-name="Grupo 1183232" transform="translate(0.002 7.104)">
          <circle id="Elipse_12535" data-name="Elipse 12535" cx="2.049" cy="2.049" r="2.049" transform="translate(0 2.897) rotate(-45)" fill="#00dba8"/>
        </g>
        <path id="Trazado_1044813" data-name="Trazado 1044813" d="M379.566,340.9l-2.9-.982a.859.859,0,0,0-1.134.813v6.491a2.908,2.908,0,1,0,1.717,2.653v-7.946l1.766.6a.859.859,0,1,0,.551-1.627Zm-5.224,10.165a1.19,1.19,0,1,1,1.19-1.19A1.192,1.192,0,0,1,374.342,351.07Z" transform="translate(-371.434 -339.878)"/>
      </g>
      <g id="Grupo_1183236" data-name="Grupo 1183236" transform="translate(17.962 -0.001)">
        <g id="Grupo_1183234" data-name="Grupo 1183234" transform="translate(0.859 0.859)">
          <path id="Trazado_1044814" data-name="Trazado 1044814" d="M226.182,10.05a3.377,3.377,0,0,0-2.289,1.4A3.22,3.22,0,0,0,221.633,10a2.475,2.475,0,0,0-2.448,2.336,2.84,2.84,0,0,0,.509,1.8c.652,1.013,4.137,3.39,4.137,3.39s3.521-2.292,4.2-3.3a2.839,2.839,0,0,0,.548-1.785A2.475,2.475,0,0,0,226.182,10.05Z" transform="translate(-219.179 -10)" fill="#ff5d5d"/>
        </g>
        <g id="Grupo_1183235" data-name="Grupo 1183235">
          <path id="Trazado_1044815" data-name="Trazado 1044815" d="M214.691,9.238a.857.857,0,0,1-.484-.149c-.606-.413-3.664-2.531-4.375-3.635a3.708,3.708,0,0,1-.644-2.316A3.318,3.318,0,0,1,212.5,0a3.419,3.419,0,0,1,2.274,1.018,3.474,3.474,0,0,1,2.246-.969h.028a3.318,3.318,0,0,1,3.245,3.21,3.713,3.713,0,0,1-.693,2.3c-.739,1.1-3.831,3.142-4.444,3.54A.857.857,0,0,1,214.691,9.238Zm-2.223-7.522A1.622,1.622,0,0,0,210.9,3.248a1.967,1.967,0,0,0,.374,1.276A20.042,20.042,0,0,0,214.7,7.342,19.844,19.844,0,0,0,218.179,4.6a1.972,1.972,0,0,0,.4-1.269,1.621,1.621,0,0,0-1.548-1.566c-.684-.006-1.424.818-1.583,1.039a.859.859,0,0,1-1.417-.035,2.324,2.324,0,0,0-1.548-1.054h-.016Z" transform="translate(-209.181 0.001)"/>
        </g>
      </g>
    </g>
  </g>
</svg>
