<svg xmlns="http://www.w3.org/2000/svg" xmlns:xlink="http://www.w3.org/1999/xlink" width="93.934" height="93.934" viewBox="0 0 93.934 93.934">
  <defs>
    <filter id="Trazado_982547" x="0" y="0" width="93.934" height="93.934" filterUnits="userSpaceOnUse">
      <feOffset dy="3" input="SourceAlpha"/>
      <feGaussianBlur stdDeviation="3" result="blur"/>
      <feFlood flood-opacity="0.161"/>
      <feComposite operator="in" in2="blur"/>
      <feComposite in="SourceGraphic"/>
    </filter>
  </defs>
  <g id="Grupo_1183196" data-name="Grupo 1183196" transform="translate(-191.066 -6850)">
    <g id="Grupo_1179610" data-name="Grupo 1179610" transform="translate(8 4723.467)">
      <g id="Grupo_1175227" data-name="Grupo 1175227" transform="translate(-5.967 140.533)">
        <g id="Grupo_1167337" data-name="Grupo 1167337" transform="translate(198.033 1992)">
          <g id="Grupo_1166720" data-name="Grupo 1166720">
            <g id="Grupo_1164305" data-name="Grupo 1164305">
              <g id="Grupo_1163948" data-name="Grupo 1163948">
                <g id="Grupo_1158168" data-name="Grupo 1158168">
                  <g id="Grupo_1152576" data-name="Grupo 1152576">
                    <g id="Grupo_1148633" data-name="Grupo 1148633">
                      <g id="Grupo_1148525" data-name="Grupo 1148525">
                        <g transform="matrix(1, 0, 0, 1, -9, -6)" filter="url(#Trazado_982547)">
                          <g id="Trazado_982547-2" data-name="Trazado 982547" transform="translate(9 6)" fill="#fdfbec">
                            <path d="M 37.966796875 74.43359375 C 33.04315185546875 74.43359375 28.26757431030273 73.46962738037109 23.77274131774902 71.56847381591797 C 19.43047523498535 69.73184967041016 15.53040790557861 67.10224914550781 12.18087482452393 63.75271987915039 C 8.831341743469238 60.4031867980957 6.201741218566895 56.50312042236328 4.365118980407715 52.16086196899414 C 2.463963508605957 47.66601943969727 1.499996900558472 42.89044189453125 1.499996900558472 37.966796875 C 1.499996900558472 33.04315185546875 2.463963508605957 28.26757431030273 4.365118980407715 23.77274131774902 C 6.201741218566895 19.43047523498535 8.831341743469238 15.53040790557861 12.18087482452393 12.18087482452393 C 15.53040790557861 8.831341743469238 19.43047523498535 6.201741218566895 23.77274131774902 4.365118980407715 C 28.26757431030273 2.463963508605957 33.04315185546875 1.499996900558472 37.966796875 1.499996900558472 C 42.89044189453125 1.499996900558472 47.66601943969727 2.463963508605957 52.16086196899414 4.365118980407715 C 56.50312042236328 6.201741218566895 60.4031867980957 8.831341743469238 63.75271987915039 12.18087482452393 C 67.10224914550781 15.53040790557861 69.73184967041016 19.43047523498535 71.56847381591797 23.77274131774902 C 73.46962738037109 28.26757431030273 74.43359375 33.04315185546875 74.43359375 37.966796875 C 74.43359375 42.89044189453125 73.46962738037109 47.66601943969727 71.56847381591797 52.16086196899414 C 69.73184967041016 56.50313186645508 67.10224914550781 60.4031867980957 63.75271987915039 63.75271987915039 C 60.4031867980957 67.10224914550781 56.50313186645508 69.73184967041016 52.16086196899414 71.56847381591797 C 47.66601943969727 73.46962738037109 42.89044189453125 74.43359375 37.966796875 74.43359375 Z" stroke="none"/>
                            <path d="M 37.966796875 3 C 33.2449836730957 3 28.66600799560547 3.924095153808594 24.35705947875977 5.746635437011719 C 20.19359588623047 7.507637023925781 16.45379638671875 10.02928161621094 13.24153518676758 13.24153518676758 C 10.02927398681641 16.45379638671875 7.507621765136719 20.19359588623047 5.746635437011719 24.35705947875977 C 3.924095153808594 28.66600799560547 3 33.2449836730957 3 37.966796875 C 3 42.6886100769043 3.924095153808594 47.26758575439453 5.746635437011719 51.57653427124023 C 7.507621765136719 55.73999786376953 10.02927398681641 59.47979736328125 13.24153518676758 62.69205856323242 C 16.45379638671875 65.90431976318359 20.19359588623047 68.42597198486328 24.35705947875977 70.18695831298828 C 28.66600799560547 72.00949859619141 33.2449836730957 72.93359375 37.966796875 72.93359375 C 42.6886100769043 72.93359375 47.26758575439453 72.00949859619141 51.57653427124023 70.18695831298828 C 55.73999786376953 68.42597198486328 59.47979736328125 65.90431976318359 62.69205856323242 62.69205856323242 C 65.90431976318359 59.47979736328125 68.42597198486328 55.73999786376953 70.18695831298828 51.57653427124023 C 72.00949859619141 47.26758575439453 72.93359375 42.6886100769043 72.93359375 37.966796875 C 72.93359375 33.2449836730957 72.00949859619141 28.66600799560547 70.18695831298828 24.35705947875977 C 68.42597198486328 20.19359588623047 65.90431976318359 16.45379638671875 62.69205856323242 13.24153518676758 C 59.47979736328125 10.02928161621094 55.73999786376953 7.507637023925781 51.57653427124023 5.746635437011719 C 47.26758575439453 3.924095153808594 42.6886100769043 3 37.966796875 3 M 37.966796875 0 C 58.93528366088867 0 75.93359375 16.99832153320312 75.93359375 37.966796875 C 75.93359375 58.93528366088867 58.93528366088867 75.93359375 37.966796875 75.93359375 C 16.99831008911133 75.93359375 0 58.93528366088867 0 37.966796875 C 0 16.99832153320312 16.99831008911133 0 37.966796875 0 Z" stroke="none" fill="#84792b"/>
                          </g>
                        </g>
                      </g>
                    </g>
                  </g>
                </g>
              </g>
            </g>
          </g>
        </g>
      </g>
    </g>
    <g id="triangulo_2_" data-name="triangulo (2)" transform="translate(191.21 6870.127)">
      <path id="Trazado_1044613" data-name="Trazado 1044613" d="M54.411,14.785A18.657,18.657,0,0,0,47.219,7.66a1.379,1.379,0,0,0-2,1.013,3.168,3.168,0,0,0-.057.935c-2.926-.789-5.736.913-8.572,1.915a.928.928,0,0,0-.566.566c-1,2.836-2.7,5.646-1.915,8.572a3.165,3.165,0,0,0-.935.057,1.379,1.379,0,0,0-1.013,2,18.658,18.658,0,0,0,7.125,7.193Z" transform="translate(-6.777 -6.775)" fill="#4b5165"/>
      <path id="Trazado_1044614" data-name="Trazado 1044614" d="M259.67,261.972a149.8,149.8,0,0,0-5.774-15.715,5.864,5.864,0,0,0-1.513-5c-2.543-2.543-7.27-1.94-10.557,1.347s-3.89,8.013-1.347,10.557c.041.041.084.079.126.118-1.8,3.3-3.811,7.4-4.12,8.026a2.722,2.722,0,0,0,4.889,2.4c.917-1.872,3.188-6.4,4.744-9.136a9.805,9.805,0,0,0,4.41-2.277c1.588,4.083,3.6,9.772,3.8,10.749a2.722,2.722,0,1,0,5.339-1.068Z" transform="translate(-191.293 -216.568)" fill="#ffd3bd"/>
      <path id="Trazado_1044615" data-name="Trazado 1044615" d="M270.821,260.031c-1.217-3.755-3.984-11.209-5.209-13.774a5.864,5.864,0,0,0-1.513-5c-2.543-2.543-7.27-1.94-10.557,1.347s-3.89,8.013-1.347,10.557c.041.041.084.079.126.118-1.12,2.055-2.324,4.421-3.148,6.065a12.327,12.327,0,0,1,4.847,2.482c1.1-2.188,2.654-5.222,3.814-7.262a9.805,9.805,0,0,0,4.41-2.277c1.19,3.059,2.616,7.019,3.343,9.224A7.116,7.116,0,0,1,270.821,260.031Z" transform="translate(-203.009 -216.568)" fill="#4b5165"/>
      <path id="Trazado_1044616" data-name="Trazado 1044616" d="M151.508,259.1a2.758,2.758,0,1,1-4.674-2.929c.9-1.444,4.73-11.109,4.919-12.695a2.758,2.758,0,0,1,5.48.628C156.923,246.8,152.692,257.21,151.508,259.1Z" transform="translate(-110.159 -217.782)" fill="#ffd3bd"/>
      <path id="Trazado_1044617" data-name="Trazado 1044617" d="M278.848,64.537a2.758,2.758,0,0,1-3.812-3.987,106.131,106.131,0,0,0,8.133-11.25,2.758,2.758,0,1,1,4.743,2.816C286.408,54.652,280.737,62.729,278.848,64.537Z" transform="translate(-225.606 -43.325)" fill="#ffbe9d"/>
      <path id="Trazado_1044618" data-name="Trazado 1044618" d="M227.657,203.162c1.469-1.468,6.164-6.809,3.61-8.895-4.249-3.47-13.392-7.231-16.564-4.059s.589,12.314,4.059,16.564C220.848,209.325,226.188,204.63,227.657,203.162Z" transform="translate(-170.783 -170.781)" fill="#8eafe2"/>
      <path id="Trazado_1044619" data-name="Trazado 1044619" d="M220.046,195.55a14.8,14.8,0,0,0,3.5-5.488c-3.548-1.247-7.1-1.6-8.839.145s-1.392,5.292-.145,8.839a14.8,14.8,0,0,0,5.488-3.5Z" transform="translate(-170.784 -170.781)" fill="#7c93dd"/>
      <circle id="Elipse_12525" data-name="Elipse 12525" cx="3.481" cy="3.481" r="3.481" transform="translate(29.189 20.023)" fill="#ffd3bd"/>
      <circle id="Elipse_12526" data-name="Elipse 12526" cx="3.481" cy="3.481" r="3.481" transform="translate(44.516 4.696)" fill="#ffbe9d"/>
      <ellipse id="Elipse_12527" data-name="Elipse 12527" cx="10.932" cy="9.514" rx="10.932" ry="9.514" transform="translate(26.218 17.187) rotate(-45)" fill="#ffd3bd"/>
      <path id="Trazado_1044620" data-name="Trazado 1044620" d="M105.355,149.058c-10.561,8.248-17.763-1.481-18.613-5.859a9.446,9.446,0,0,0,1.818,10.1c3.716,3.716,10.189,3.267,14.458-1A12.348,12.348,0,0,0,105.355,149.058Z" transform="translate(-55.612 -129.386)" fill="#ffbe9d"/>
      <g id="Grupo_1183195" data-name="Grupo 1183195" transform="translate(33.756 8.228)">
        <g id="Grupo_1183194" data-name="Grupo 1183194" transform="translate(0 0)">
          <g id="Grupo_1183193" data-name="Grupo 1183193">
            <g id="Grupo_1183191" data-name="Grupo 1183191" transform="translate(0 11.887)">
              <path id="Trazado_1044621" data-name="Trazado 1044621" d="M125.083,209.094a2.905,2.905,0,1,1-3.6.408A2.593,2.593,0,0,1,125.083,209.094Z" transform="translate(-120.521 -208.536)" fill="#eda1ab"/>
            </g>
            <g id="Grupo_1183192" data-name="Grupo 1183192" transform="translate(9.812)">
              <ellipse id="Elipse_12528" data-name="Elipse 12528" cx="2.831" cy="2.255" rx="2.831" ry="2.255" transform="translate(0 4.004) rotate(-45)" fill="#eda1ab"/>
            </g>
          </g>
        </g>
      </g>
      <path id="Trazado_1044622" data-name="Trazado 1044622" d="M44.159,10.125a.723.723,0,0,0-1.023,1.023l.818.818a.723.723,0,0,0,1.023-1.023ZM35.64,18.643a.723.723,0,1,0-1.023,1.023l.818.818a.723.723,0,0,0,1.023-1.023Zm33.446,26.62c-.077-.386-.286-1.1-.583-2.014-1.221-3.773-3.937-11.049-5.158-13.681A6.59,6.59,0,0,0,61.892,24.5a2.691,2.691,0,0,0-.951-1.577,25.986,25.986,0,0,0-5.386-3.286c2.52-3.184,6.225-8.545,7.373-10.478a3.486,3.486,0,0,0-2.41-5.21.723.723,0,0,0-.242,1.426,2.038,2.038,0,0,1,1.408,3.045c-1.167,1.965-5.025,7.537-7.5,10.621a25.11,25.11,0,0,0-3.022-1.009,11.681,11.681,0,0,0,.44-2.286c1.953-2.526,4.938-6.706,6.392-9.079a.723.723,0,1,0-1.234-.756c-1.177,1.921-3.381,5.056-5.2,7.5a9.864,9.864,0,0,0-.571-2.277,4.2,4.2,0,0,0-4.966-6.668A20.13,20.13,0,0,0,40.782.247a2.1,2.1,0,0,0-3.06,1.541c-.01.061-.018.119-.026.174-2.866-.37-5.538,1.189-8.13,2.1A1.644,1.644,0,0,0,28.56,5.074c-.917,2.594-2.475,5.264-2.1,8.13l-.175.026a2.1,2.1,0,0,0-1.541,3.06,20.128,20.128,0,0,0,4.219,5.238A4.2,4.2,0,0,0,35.62,26.5a10.278,10.278,0,0,0,4.846.592A97.776,97.776,0,0,1,36.061,38,3.487,3.487,0,0,0,38.7,43.321a.723.723,0,0,0,.129-1.441,2.039,2.039,0,0,1-1.541-3.107A96.562,96.562,0,0,0,42.07,26.8q.231-.059.46-.127a27.436,27.436,0,0,0,2.051,5.314,89.242,89.242,0,0,1-3.637,8.583.723.723,0,1,0,1.275.684c.752-1.4,2.1-4.545,3.276-7.6a22.765,22.765,0,0,0,1.925,2.792,2.708,2.708,0,0,0,.842.691c-1.236,2.308-2.749,5.3-3.718,7.283a3.446,3.446,0,1,0,6.189,3.032c1.2-2.458,3.2-6.391,4.567-8.82a10.35,10.35,0,0,0,3.619-1.725c1.567,4.1,3.246,8.918,3.411,9.706a3.446,3.446,0,1,0,6.757-1.352ZM49.946,6.227a2.762,2.762,0,0,1,.345,3.478,9.046,9.046,0,0,0-1.372-1.762h0a9.138,9.138,0,0,0-2.7-1.87A2.754,2.754,0,0,1,49.946,6.227ZM26.016,15.609a.655.655,0,0,1,.486-.95,3.616,3.616,0,0,1,.67-.065.724.724,0,0,0,.853-.9c-.716-2.654.895-5.3,1.9-8.143a.2.2,0,0,1,.125-.125c2.833-1,5.487-2.615,8.142-1.9a.724.724,0,0,0,.9-.853,3.58,3.58,0,0,1,.065-.67.655.655,0,0,1,.95-.486A18.573,18.573,0,0,1,44.877,5.36c-.054.06-.106.122-.157.185-6.878-1.808-14.473,3.871-14.988,11.3a10.447,10.447,0,0,0,.3,3.384q-.094.076-.185.157a18.569,18.569,0,0,1-3.836-4.775Zm4.7,9.844a2.76,2.76,0,0,1-.154-3.731A9.158,9.158,0,0,0,34.195,25.8,2.761,2.761,0,0,1,30.72,25.453Zm2.739-2.05c-3.428-3.428-2.978-9.454,1-13.434,3.864-3.864,9.913-4.524,13.435-1,3.428,3.428,2.978,9.455-1,13.435-3.9,3.9-9.931,4.506-13.435,1ZM43.9,26.175A13.165,13.165,0,0,0,50.662,19.4a26.572,26.572,0,0,1,9.364,4.646c1.823,1.489-1.986,6.146-3.664,7.823s-6.334,5.486-7.823,3.664A26.572,26.572,0,0,1,43.9,26.175Zm5.536,20.643a2,2,0,1,1-3.59-1.759c.072-.148.328-.668.7-1.415a12.37,12.37,0,0,1,3.576,1.787c-.266.533-.5,1.006-.686,1.387ZM62.946,43.77c-.809-2.372-2.063-5.806-3.036-8.308a.724.724,0,0,0-1.152-.28,9.055,9.055,0,0,1-4.081,2.111.723.723,0,0,0-.48.35c-1.022,1.8-2.352,4.365-3.418,6.472A13.968,13.968,0,0,0,47.2,42.339c.727-1.441,1.65-3.239,2.535-4.879,3.088-.091,7.184-4.1,7.653-4.566.391-.391,3.238-3.3,4.229-6.045a5.817,5.817,0,0,1,.271,2.751.723.723,0,0,0,.065.4c.954,2,3.479,8.635,4.844,12.67a8.773,8.773,0,0,0-3.848,1.1ZM66.1,47.9a2,2,0,0,1-2.353-1.574c-.045-.216-.162-.614-.331-1.143a7.219,7.219,0,0,1,3.855-1.059c.2.628.337,1.122.4,1.424A2,2,0,0,1,66.1,47.9ZM41.255,13.845a.723.723,0,0,0-.672.771,1.381,1.381,0,0,1-1.474,1.474.723.723,0,1,0-.1,1.443,2.828,2.828,0,0,0,3.017-3.017A.723.723,0,0,0,41.255,13.845Z" transform="translate(0 0)"/>
    </g>
  </g>
</svg>
