<svg xmlns="http://www.w3.org/2000/svg" xmlns:xlink="http://www.w3.org/1999/xlink" width="93.934" height="93.934" viewBox="0 0 93.934 93.934">
  <defs>
    <filter id="Trazado_982547" x="0" y="0" width="93.934" height="93.934" filterUnits="userSpaceOnUse">
      <feOffset dy="3" input="SourceAlpha"/>
      <feGaussianBlur stdDeviation="3" result="blur"/>
      <feFlood flood-opacity="0.161"/>
      <feComposite operator="in" in2="blur"/>
      <feComposite in="SourceGraphic"/>
    </filter>
  </defs>
  <g id="Grupo_1183245" data-name="Grupo 1183245" transform="translate(-1029.033 -1304)">
    <g id="Grupo_1181745" data-name="Grupo 1181745" transform="translate(0 568.527)">
      <g id="Grupo_1175135" data-name="Grupo 1175135" transform="translate(840 -1250.527)">
        <g id="Grupo_1167337" data-name="Grupo 1167337" transform="translate(198.033 1992)">
          <g id="Grupo_1166720" data-name="Grupo 1166720">
            <g id="Grupo_1164305" data-name="Grupo 1164305">
              <g id="Grupo_1163948" data-name="Grupo 1163948">
                <g id="Grupo_1158168" data-name="Grupo 1158168">
                  <g id="Grupo_1152576" data-name="Grupo 1152576">
                    <g id="Grupo_1148633" data-name="Grupo 1148633">
                      <g id="Grupo_1148525" data-name="Grupo 1148525">
                        <g transform="matrix(1, 0, 0, 1, -9, -6)" filter="url(#Trazado_982547)">
                          <g id="Trazado_982547-2" data-name="Trazado 982547" transform="translate(9 6)" fill="#fdfbec">
                            <path d="M 37.966796875 74.43359375 C 33.04315185546875 74.43359375 28.26757431030273 73.46962738037109 23.77274131774902 71.56847381591797 C 19.43047523498535 69.73184967041016 15.53040790557861 67.10224914550781 12.18087482452393 63.75271987915039 C 8.831341743469238 60.4031867980957 6.201741218566895 56.50312042236328 4.365118980407715 52.16086196899414 C 2.463963508605957 47.66601943969727 1.499996900558472 42.89044189453125 1.499996900558472 37.966796875 C 1.499996900558472 33.04315185546875 2.463963508605957 28.26757431030273 4.365118980407715 23.77274131774902 C 6.201741218566895 19.43047523498535 8.831341743469238 15.53040790557861 12.18087482452393 12.18087482452393 C 15.53040790557861 8.831341743469238 19.43047523498535 6.201741218566895 23.77274131774902 4.365118980407715 C 28.26757431030273 2.463963508605957 33.04315185546875 1.499996900558472 37.966796875 1.499996900558472 C 42.89044189453125 1.499996900558472 47.66601943969727 2.463963508605957 52.16086196899414 4.365118980407715 C 56.50312042236328 6.201741218566895 60.4031867980957 8.831341743469238 63.75271987915039 12.18087482452393 C 67.10224914550781 15.53040790557861 69.73184967041016 19.43047523498535 71.56847381591797 23.77274131774902 C 73.46962738037109 28.26757431030273 74.43359375 33.04315185546875 74.43359375 37.966796875 C 74.43359375 42.89044189453125 73.46962738037109 47.66601943969727 71.56847381591797 52.16086196899414 C 69.73184967041016 56.50313186645508 67.10224914550781 60.4031867980957 63.75271987915039 63.75271987915039 C 60.4031867980957 67.10224914550781 56.50313186645508 69.73184967041016 52.16086196899414 71.56847381591797 C 47.66601943969727 73.46962738037109 42.89044189453125 74.43359375 37.966796875 74.43359375 Z" stroke="none"/>
                            <path d="M 37.966796875 3 C 33.2449836730957 3 28.66600799560547 3.924095153808594 24.35705947875977 5.746635437011719 C 20.19359588623047 7.507637023925781 16.45379638671875 10.02928161621094 13.24153518676758 13.24153518676758 C 10.02927398681641 16.45379638671875 7.507621765136719 20.19359588623047 5.746635437011719 24.35705947875977 C 3.924095153808594 28.66600799560547 3 33.2449836730957 3 37.966796875 C 3 42.6886100769043 3.924095153808594 47.26758575439453 5.746635437011719 51.57653427124023 C 7.507621765136719 55.73999786376953 10.02927398681641 59.47979736328125 13.24153518676758 62.69205856323242 C 16.45379638671875 65.90431976318359 20.19359588623047 68.42597198486328 24.35705947875977 70.18695831298828 C 28.66600799560547 72.00949859619141 33.2449836730957 72.93359375 37.966796875 72.93359375 C 42.6886100769043 72.93359375 47.26758575439453 72.00949859619141 51.57653427124023 70.18695831298828 C 55.73999786376953 68.42597198486328 59.47979736328125 65.90431976318359 62.69205856323242 62.69205856323242 C 65.90431976318359 59.47979736328125 68.42597198486328 55.73999786376953 70.18695831298828 51.57653427124023 C 72.00949859619141 47.26758575439453 72.93359375 42.6886100769043 72.93359375 37.966796875 C 72.93359375 33.2449836730957 72.00949859619141 28.66600799560547 70.18695831298828 24.35705947875977 C 68.42597198486328 20.19359588623047 65.90431976318359 16.45379638671875 62.69205856323242 13.24153518676758 C 59.47979736328125 10.02928161621094 55.73999786376953 7.507637023925781 51.57653427124023 5.746635437011719 C 47.26758575439453 3.924095153808594 42.6886100769043 3 37.966796875 3 M 37.966796875 0 C 58.93528366088867 0 75.93359375 16.99832153320312 75.93359375 37.966796875 C 75.93359375 58.93528366088867 58.93528366088867 75.93359375 37.966796875 75.93359375 C 16.99831008911133 75.93359375 0 58.93528366088867 0 37.966796875 C 0 16.99832153320312 16.99831008911133 0 37.966796875 0 Z" stroke="none" fill="#84792b"/>
                          </g>
                        </g>
                      </g>
                    </g>
                  </g>
                </g>
              </g>
            </g>
          </g>
        </g>
      </g>
    </g>
    <g id="teatro_2_" data-name="teatro (2)" transform="translate(1054.27 1328.26)">
      <g id="Grupo_1183244" data-name="Grupo 1183244" transform="translate(0 0.011)">
        <path id="Trazado_1044838" data-name="Trazado 1044838" d="M22.3,178.649a83.236,83.236,0,0,1-10.187-2.691,1.849,1.849,0,0,0-2.4,1.411L7.755,187.659a13.958,13.958,0,0,0,7.28,14.988,9.876,9.876,0,0,0,5.575,1.057,13.955,13.955,0,0,0,12.262-11.28l.321-1.692a128.822,128.822,0,0,0-10.9-12.083Z" transform="translate(-6.873 -160.936)" fill="#ff8e9e"/>
        <path id="Trazado_1044839" data-name="Trazado 1044839" d="M184,209.111c-.854-.14-1.554-.27-2.288-.414a16.084,16.084,0,0,0,10.9,12.083l.4-2.109Z" transform="translate(-166.285 -190.984)" fill="#ea5b70"/>
        <path id="Trazado_1044840" data-name="Trazado 1044840" d="M273.741,19.362,271.96,9.049A1.849,1.849,0,0,0,269.569,7.6a73.744,73.744,0,0,1-15,3.177c-4.409,9.179-1.563,18.972,8.456,24.406a9.861,9.861,0,0,0,3.185-.96,13.957,13.957,0,0,0,7.528-14.864Z" transform="translate(-231.123 -6.876)" fill="#a4e7ff"/>
        <path id="Trazado_1044841" data-name="Trazado 1044841" d="M191.811,46.01c-2.139.235-4.187.378-6.051.444a1.849,1.849,0,0,0-1.754,2.164c1.856,10.642,1.765,10.51,2.067,11.615A13.956,13.956,0,0,0,197.861,70.42a9.869,9.869,0,0,0,2.406,0A24.289,24.289,0,0,1,191.811,46.01Z" transform="translate(-168.362 -42.106)" fill="#5ad6ff"/>
        <path id="Trazado_1044842" data-name="Trazado 1044842" d="M412.208,166.412a2.529,2.529,0,1,1-2.763-1.514,2.258,2.258,0,0,1,2.763,1.514Z" transform="translate(-372.754 -150.861)" fill="#ffa1ac"/>
        <path id="Trazado_1044843" data-name="Trazado 1044843" d="M257.114,193.173a2.529,2.529,0,1,1-2.763-1.515A2.258,2.258,0,0,1,257.114,193.173Z" transform="translate(-230.824 -175.35)" fill="#ffa1ac"/>
        <path id="Trazado_1044844" data-name="Trazado 1044844" d="M208.824,356.008a2.567,2.567,0,0,1-4.916-.932,2,2,0,0,1,1.664-1.488,1.909,1.909,0,0,0,.739-.055C207.8,353.605,209.061,354.758,208.824,356.008Z" transform="translate(-186.575 -323.527)" fill="#fff"/>
        <path id="Trazado_1044845" data-name="Trazado 1044845" d="M50.858,324.2a2,2,0,0,1,1.006,1.995,2.567,2.567,0,0,1-4.916-.932,2.291,2.291,0,0,1,2.829-1.491,3,3,0,0,1,.418.11A1.9,1.9,0,0,0,50.858,324.2Z" transform="translate(-42.938 -296.241)" fill="#fff"/>
        <path id="Trazado_1044846" data-name="Trazado 1044846" d="M43.245,12.389,41.465,2.076A2.486,2.486,0,0,0,38.25.133c-1.55.5-3.047.934-4.575,1.32a.637.637,0,1,0,.311,1.235c1.556-.392,3.079-.832,4.656-1.343a1.213,1.213,0,0,1,1.568.949l1.78,10.312a13.238,13.238,0,0,1-7.185,14.186,9.2,9.2,0,0,1-5.231.9,13.269,13.269,0,0,1-11.25-9.724c-.291-1.063-.21-.981-2.054-11.555A1.213,1.213,0,0,1,17.419,5,82.1,82.1,0,0,0,31.055,3.362a.637.637,0,0,0-.26-1.246A80.8,80.8,0,0,1,17.374,3.723a2.487,2.487,0,0,0-2.358,2.909c1.328,7.613,1.659,9.714,1.855,10.715-1.536-.273-3.151-.612-4.727-1a.637.637,0,1,0-.3,1.237c1.8.436,3.642.817,5.368,1.109a14.589,14.589,0,0,0,8.783,9.416l-.619,3.265a13.237,13.237,0,0,1-11.7,10.765,9.22,9.22,0,0,1-5.215-.989,13.238,13.238,0,0,1-6.948-14.3L3.46,16.563a1.212,1.212,0,0,1,1.574-.926c1.256.421,2.569.823,3.9,1.2a.637.637,0,1,0,.343-1.226c-1.312-.367-2.6-.763-3.84-1.177a2.487,2.487,0,0,0-3.229,1.9L.257,26.615A14.582,14.582,0,0,0,7.87,42.287,10.486,10.486,0,0,0,13.8,43.411,14.584,14.584,0,0,0,26.626,31.617l.588-3.1a13.3,13.3,0,0,0,3.48.518,10.467,10.467,0,0,0,4.679-1.1,14.585,14.585,0,0,0,7.872-15.542Z" transform="translate(0 -0.011)"/>
        <path id="Trazado_1044847" data-name="Trazado 1044847" d="M274.528,167.655a.637.637,0,0,0,1.255-.216,1.81,1.81,0,0,0-3.567.615.637.637,0,1,0,1.255-.216.537.537,0,0,1,1.057-.183Z" transform="translate(-249.087 -151.854)"/>
        <path id="Trazado_1044848" data-name="Trazado 1044848" d="M396.049,146.3a.532.532,0,0,1,.219.347.637.637,0,1,0,1.255-.216,1.81,1.81,0,0,0-3.567.615.637.637,0,0,0,1.255-.216A.538.538,0,0,1,396.049,146.3Z" transform="translate(-360.493 -132.629)"/>
        <path id="Trazado_1044849" data-name="Trazado 1044849" d="M337.733,182.981a1.012,1.012,0,0,1-1.507.261.637.637,0,0,0-.8.988,2.287,2.287,0,0,0,3.4-.586.637.637,0,1,0-1.088-.662Z" transform="translate(-306.737 -167.171)"/>
        <path id="Trazado_1044850" data-name="Trazado 1044850" d="M120.054,347.6a.637.637,0,0,0,.9.009,1.989,1.989,0,0,1,3.41.646.637.637,0,1,0,1.162-.519,3.256,3.256,0,0,0-5.463-1.036A.637.637,0,0,0,120.054,347.6Z" transform="translate(-109.698 -316.293)"/>
        <path id="Trazado_1044851" data-name="Trazado 1044851" d="M75.054,312.092a1.288,1.288,0,0,1-1.91-.363.637.637,0,0,0-1.1.644,2.563,2.563,0,0,0,3.8.719.637.637,0,0,0-.788-1Z" transform="translate(-65.851 -284.983)"/>
        <path id="Trazado_1044852" data-name="Trazado 1044852" d="M203.355,337.269a.637.637,0,1,0-.786-1,1.287,1.287,0,0,1-1.91-.361.637.637,0,1,0-1.1.642A2.561,2.561,0,0,0,203.355,337.269Z" transform="translate(-182.542 -307.107)"/>
      </g>
    </g>
  </g>
</svg>
