<svg xmlns="http://www.w3.org/2000/svg" xmlns:xlink="http://www.w3.org/1999/xlink" width="108" height="108" viewBox="0 0 108 108">
  <defs>
    <filter id="Trazado_978624" x="0" y="0" width="108" height="108" filterUnits="userSpaceOnUse">
      <feOffset dy="3" input="SourceAlpha"/>
      <feGaussianBlur stdDeviation="3" result="blur"/>
      <feFlood flood-opacity="0.161"/>
      <feComposite operator="in" in2="blur"/>
      <feComposite in="SourceGraphic"/>
    </filter>
  </defs>
  <g id="Grupo_1183269" data-name="Grupo 1183269" transform="translate(-192.749 -1426)">
    <g id="Grupo_1181943" data-name="Grupo 1181943" transform="translate(-434.251 -1174)">
      <g id="Grupo_1168543" data-name="Grupo 1168543" transform="translate(431 -4452)">
        <g id="Grupo_1164524" data-name="Grupo 1164524" transform="translate(205 7058)">
          <g id="Grupo_1144123" data-name="Grupo 1144123">
            <g transform="matrix(1, 0, 0, 1, -9, -6)" filter="url(#Trazado_978624)">
              <g id="Trazado_978624-2" data-name="Trazado 978624" transform="translate(9 6)" fill="#edf3fc">
                <path d="M 45 88.5 C 39.12687683105469 88.5 33.43022537231445 87.35007476806641 28.06830024719238 85.08217620849609 C 22.88852500915527 82.89131164550781 18.23629951477051 79.75458526611328 14.2408504486084 75.75914764404297 C 10.24541282653809 71.76370239257812 7.108687400817871 67.11147308349609 4.917825222015381 61.93170166015625 C 2.649924993515015 56.56977462768555 1.5 50.87312316894531 1.5 45 C 1.5 39.12687683105469 2.649924993515015 33.43022537231445 4.917825222015381 28.06830024719238 C 7.108687400817871 22.88852500915527 10.24541282653809 18.23629951477051 14.2408504486084 14.2408504486084 C 18.23629951477051 10.24541282653809 22.88852500915527 7.108687400817871 28.06830024719238 4.917825222015381 C 33.43022537231445 2.649924993515015 39.12687683105469 1.5 45 1.5 C 50.87312316894531 1.5 56.56977462768555 2.649924993515015 61.93170166015625 4.917825222015381 C 67.11147308349609 7.108687400817871 71.76370239257812 10.24541282653809 75.75914764404297 14.2408504486084 C 79.75458526611328 18.23629951477051 82.89131164550781 22.88852500915527 85.08217620849609 28.06830024719238 C 87.35007476806641 33.43022537231445 88.5 39.12687683105469 88.5 45 C 88.5 50.87312316894531 87.35007476806641 56.56977462768555 85.08217620849609 61.93170166015625 C 82.89131164550781 67.11147308349609 79.75458526611328 71.76370239257812 75.75914764404297 75.75914764404297 C 71.76370239257812 79.75458526611328 67.11147308349609 82.89131164550781 61.93170166015625 85.08217620849609 C 56.56977462768555 87.35007476806641 50.87312316894531 88.5 45 88.5 Z" stroke="none"/>
                <path d="M 45 3 C 39.32871246337891 3 33.82865524291992 4.110054016113281 28.65262985229492 6.299339294433594 C 23.65165710449219 8.414573669433594 19.15968322753906 11.44334411621094 15.301513671875 15.301513671875 C 11.44334411621094 19.15968322753906 8.414573669433594 23.65165710449219 6.299339294433594 28.65262985229492 C 4.110054016113281 33.82865524291992 3 39.32871246337891 3 45 C 3 50.67128753662109 4.110054016113281 56.17134475708008 6.299339294433594 61.34737396240234 C 8.414573669433594 66.34834289550781 11.44334411621094 70.84031677246094 15.301513671875 74.698486328125 C 19.15968322753906 78.55665588378906 23.65165710449219 81.58542633056641 28.65262985229492 83.70066070556641 C 33.82865524291992 85.88994598388672 39.32871246337891 87 45 87 C 50.67128753662109 87 56.17134475708008 85.88994598388672 61.34737396240234 83.70066070556641 C 66.34834289550781 81.58542633056641 70.84031677246094 78.55665588378906 74.698486328125 74.698486328125 C 78.55665588378906 70.84031677246094 81.58542633056641 66.34834289550781 83.70066070556641 61.34737396240234 C 85.88994598388672 56.17134475708008 87 50.67128753662109 87 45 C 87 39.32871246337891 85.88994598388672 33.82865524291992 83.70066070556641 28.65262985229492 C 81.58542633056641 23.65165710449219 78.55665588378906 19.15968322753906 74.698486328125 15.301513671875 C 70.84031677246094 11.44334411621094 66.34834289550781 8.414573669433594 61.34737396240234 6.299339294433594 C 56.17134475708008 4.110054016113281 50.67128753662109 3 45 3 M 45 0 C 69.85281372070312 0 90 20.14718627929688 90 45 C 90 69.85281372070312 69.85281372070312 90 45 90 C 20.14718627929688 90 0 69.85281372070312 0 45 C 0 20.14718627929688 20.14718627929688 0 45 0 Z" stroke="none" fill="#5692e8"/>
              </g>
            </g>
          </g>
        </g>
      </g>
    </g>
    <g id="emociones" transform="translate(215.979 1429.381)">
      <g id="Grupo_1183264" data-name="Grupo 1183264" transform="translate(1.202 40.708)">
        <path id="Trazado_1044907" data-name="Trazado 1044907" d="M41.535,240.118c-.773,20.893-30.765,20.888-31.535,0a15.771,15.771,0,0,1,15.966-15.766,15.76,15.76,0,0,0,13.343,7.686A15.693,15.693,0,0,1,41.535,240.118Z" transform="translate(-10 -224.35)" fill="#00dff6"/>
      </g>
      <g id="Grupo_1183265" data-name="Grupo 1183265" transform="translate(30.771 40.708)">
        <path id="Trazado_1044908" data-name="Trazado 1044908" d="M285.569,240.119C285.46,256.438,263.8,261.783,256,247.75a15.925,15.925,0,0,0,0-15.263c.084-.151.171-.3.26-.452a15.758,15.758,0,0,0,13.219-7.681A15.772,15.772,0,0,1,285.569,240.119Z" transform="translate(-256 -224.351)" fill="#ff9db0"/>
      </g>
      <g id="Grupo_1183267" data-name="Grupo 1183267" transform="translate(15.042 16.861)">
        <g id="Grupo_1183266" data-name="Grupo 1183266" transform="translate(0 0)">
          <path id="Trazado_1044909" data-name="Trazado 1044909" d="M156.581,41.717a15.768,15.768,0,0,1-15.768,15.768c-20.893-.773-20.887-30.765,0-31.535A15.767,15.767,0,0,1,156.581,41.717Z" transform="translate(-125.146 -25.95)" fill="#fff09c"/>
        </g>
      </g>
      <g id="Grupo_1183268" data-name="Grupo 1183268" transform="translate(0 15.619)">
        <path id="Trazado_1044910" data-name="Trazado 1044910" d="M82.026,378.533l-.54.355a.672.672,0,0,1-.739,0l-1.081-.711a3.076,3.076,0,0,0-3.38,0l-1.081.71a.672.672,0,0,1-.739,0l-1.081-.711a3.076,3.076,0,0,0-3.38,0l-1.081.71a.672.672,0,0,1-.739,0l-.541-.355a1.2,1.2,0,1,0-1.321,2.009l.541.355a3.076,3.076,0,0,0,3.38,0l1.081-.711a.672.672,0,0,1,.739,0l1.081.711a3.076,3.076,0,0,0,3.38,0l1.081-.711a.673.673,0,0,1,.74,0l1.081.711a3.076,3.076,0,0,0,3.38,0l.541-.355a1.2,1.2,0,0,0-1.321-2.009Z" transform="translate(-57.873 -334.154)"/>
        <path id="Trazado_1044911" data-name="Trazado 1044911" d="M164.715,313.868h2.768a1.2,1.2,0,0,0,0-2.4h-2.768A1.2,1.2,0,0,0,164.715,313.868Z" transform="translate(-143.865 -275.904)"/>
        <path id="Trazado_1044912" data-name="Trazado 1044912" d="M76.989,313.868h2.768a1.2,1.2,0,0,0,0-2.4H76.989A1.2,1.2,0,0,0,76.989,313.868Z" transform="translate(-66.685 -275.904)"/>
        <path id="Trazado_1044913" data-name="Trazado 1044913" d="M46.187,39.584a17.074,17.074,0,0,0,.731-11.994,1.2,1.2,0,1,0-2.3.713c2.96,8.945-4.171,18.8-13.575,18.887a14.752,14.752,0,0,1-14.9-14.561C15.995,21.13,29.434,14,38.86,20.555a1.2,1.2,0,0,0,1.347-1.992C26.008,9.13,8.362,24.04,15.237,39.594A16.994,16.994,0,0,0,0,56.476c.05,16.5,21.326,23.124,30.767,9.868,9.545,13.309,30.728,6.563,30.774-9.868A16.992,16.992,0,0,0,46.187,39.584ZM16.97,71.042c-19.029-.694-19.41-27.85-.463-29.124A17.11,17.11,0,0,0,29.8,49.574,14.567,14.567,0,0,1,16.97,71.042Zm27.6,0a14.586,14.586,0,0,1-12.427-6.964,17.119,17.119,0,0,0,.3-14.568,16.861,16.861,0,0,0,12.468-7.6C63.966,43.055,63.656,70.344,44.572,71.042Z" transform="translate(0 -15.619)"/>
        <path id="Trazado_1044914" data-name="Trazado 1044914" d="M396.468,310.189a1.2,1.2,0,0,0,.556-.137l2.528-1.322a1.2,1.2,0,1,0-1.114-2.13l-2.528,1.322a1.2,1.2,0,0,0,.558,2.267Z" transform="translate(-347.754 -271.504)"/>
        <path id="Trazado_1044915" data-name="Trazado 1044915" d="M306.2,308.739l2.648,1.322a1.216,1.216,0,0,0,1.612-.538,1.2,1.2,0,0,0-.538-1.612l-2.648-1.322a1.2,1.2,0,1,0-1.074,2.151Z" transform="translate(-268.814 -271.503)"/>
        <path id="Trazado_1044916" data-name="Trazado 1044916" d="M319.064,372.033a12.73,12.73,0,0,0-15.427,0,1.2,1.2,0,1,0,1.554,1.834,10.318,10.318,0,0,1,12.321,0,1.2,1.2,0,0,0,1.551-1.836Z" transform="translate(-266.766 -326.902)"/>
        <path id="Trazado_1044917" data-name="Trazado 1044917" d="M203.638,101.5a1.2,1.2,0,0,0,1.2-1.2V97.532a1.2,1.2,0,0,0-2.4,0V100.3A1.2,1.2,0,0,0,203.638,101.5Z" transform="translate(-178.104 -86.635)"/>
        <path id="Trazado_1044918" data-name="Trazado 1044918" d="M290.771,100.3V97.532a1.2,1.2,0,0,0-2.4,0V100.3A1.2,1.2,0,0,0,290.771,100.3Z" transform="translate(-253.706 -86.635)"/>
        <path id="Trazado_1044919" data-name="Trazado 1044919" d="M187.979,183.018a1.2,1.2,0,0,0,.14,1.694,12.73,12.73,0,0,0,15.427,0,1.2,1.2,0,1,0-1.554-1.834,10.318,10.318,0,0,1-12.321,0A1.2,1.2,0,0,0,187.979,183.018Z" transform="translate(-165.133 -162.523)"/>
        <path id="Trazado_1044920" data-name="Trazado 1044920" d="M351.712,71.684a1.214,1.214,0,0,0,1.57.65,1.2,1.2,0,0,0-.92-2.22A1.214,1.214,0,0,0,351.712,71.684Z" transform="translate(-309.359 -63.486)"/>
      </g>
    </g>
  </g>
</svg>
