<svg xmlns="http://www.w3.org/2000/svg" xmlns:xlink="http://www.w3.org/1999/xlink" width="190" height="187" viewBox="0 0 190 187">
  <defs>
    <clipPath id="clip-path">
      <rect id="Rectángulo_416037" data-name="Rectángulo 416037" width="190" height="187" transform="translate(1216.515 2156)" fill="#fff" stroke="#707070" stroke-width="1" opacity="0.42"/>
    </clipPath>
  </defs>
  <g id="Enmascarar_grupo_1098833" data-name="Enmascarar grupo 1098833" transform="translate(-1216.515 -2156)" clip-path="url(#clip-path)">
    <g id="Grupo_1183270" data-name="Grupo 1183270" transform="translate(1251.539 2159.598)">
      <path id="Trazado_1044463" data-name="Trazado 1044463" d="M1988.649,1139.266c18.363-8.057,23.59,6.533,23.155,37.455s-1.96,58.455,15.9,43.273c0,0-2.178,11.385-15.46,12.256,0,0,8.275,6.315,15.46,1.307,0,0,2.831,18.51-17.42,28.309s-51.827,4.137-56.4-18.075,12.215-91.65,12.215-91.65Z" transform="translate(-1897.364 -1135.106)" fill="#6a2810"/>
      <path id="Trazado_1044464" data-name="Trazado 1044464" d="M2033.45,1142.432c5.39-7.676,13.066-3.43,15.352,4.736s-6.305,16.659-6.305,16.659Z" transform="translate(-1947.482 -1135.932)" fill="#3cac96"/>
      <path id="Trazado_1044465" data-name="Trazado 1044465" d="M1952.38,1397.321l-.685,27.61-.916,37.065-.01.449-.395-.014-.041-.436h-63.192c-3.243-11.9-.549-23.609,4.918-35.663a73.02,73.02,0,0,0,6.314-30.972,23.808,23.808,0,0,1,5.731-1.3,104.7,104.7,0,0,1,19.988-.44,198.234,198.234,0,0,1,20.311,2.078A71.289,71.289,0,0,1,1952.38,1397.321Z" transform="translate(-1855.359 -1294.948)" fill="#955027"/>
      <path id="Trazado_1044466" data-name="Trazado 1044466" d="M2081.189,1465.853H2048l-.01.449-.394-.014-.041-.435-2.6-29.153-3.326-37.146a71.944,71.944,0,0,1,7.976,1.624s10.888,0,15.026,9.8C2068.319,1419.72,2078.939,1457.747,2081.189,1465.853Z" transform="translate(-1952.581 -1298.806)" fill="#955027"/>
      <path id="Trazado_1044467" data-name="Trazado 1044467" d="M1853.753,1395.2l-10.535,67.937h-38.213c6.007-10.929,22.225-40.558,28.21-52.7,7.4-15.025,14.807-13.936,14.807-13.936A23.732,23.732,0,0,1,1853.753,1395.2Z" transform="translate(-1805.006 -1296.09)" fill="#955027"/>
      <path id="Trazado_1044468" data-name="Trazado 1044468" d="M2046.807,1477.24l-.917,37.065-.009.449-.395-.013-.041-.436h-7a68.061,68.061,0,0,1,4.4-29.153A41.827,41.827,0,0,1,2046.807,1477.24Z" transform="translate(-1950.472 -1347.257)" fill="#703316"/>
      <path id="Trazado_1044470" data-name="Trazado 1044470" d="M1969.639,1382.163c0,7.126-11.958,16.986-26.71,16.986s-26.71-9.86-26.71-16.986,11.958-8.819,26.71-8.819S1969.639,1375.036,1969.639,1382.163Z" transform="translate(-1874.37 -1282.459)" fill="#703316"/>
      <path id="Trazado_1044471" data-name="Trazado 1044471" d="M1969.639,1378.544c0,7.126-11.958,16.985-26.71,16.985s-26.71-9.859-26.71-16.985,11.958-8.82,26.71-8.82S1969.639,1371.42,1969.639,1378.544Z" transform="translate(-1874.37 -1280.202)" fill="#955027"/>
      <path id="Trazado_1044472" data-name="Trazado 1044472" d="M1974.167,1389.6c0,5.292-19.834,12.613-19.834,12.613s-19.835-7.322-19.835-12.613,8.88-6.55,19.835-6.55S1974.167,1384.305,1974.167,1389.6Z" transform="translate(-1885.769 -1288.511)" fill="#703316"/>
      <path id="Trazado_1044473" data-name="Trazado 1044473" d="M1980.785,1338.469c-.2,7.595-13.011,13.964-13.011,13.964-12.013-6.637-11.719-15.229-11.719-15.229,1.311-.9,2.077-4.577,2.527-8.584.63-5.639.63-11.9.63-11.9l20.688-11.3c-.245,3.335-.431,6.333-.563,9.028C1978.256,1336.87,1980.785,1338.469,1980.785,1338.469Z" transform="translate(-1899.213 -1240.094)" fill="#ffaf82"/>
      <path id="Trazado_1044474" data-name="Trazado 1044474" d="M1984.09,1305.41c-.245,3.335-.431,6.333-.563,9.028-4.328,7.686-11.333,16.051-20.755,14.178.63-5.639.63-11.9.63-11.9Z" transform="translate(-1903.403 -1240.091)" fill="#fe976a"/>
      <path id="Trazado_1044475" data-name="Trazado 1044475" d="M2086.663,1554.055c-9.289.2-16.376,10.935-6.91,23.759a1.76,1.76,0,0,0,3.16-.914,10.1,10.1,0,0,0-.17-2.811s2.4,2.722,3.92-.109c0,0,.98,2.4,3.7.327,0,0,1.089,3.049,4.246,1.2s6.207-12.2,3.049-17.312S2086.663,1554.055,2086.663,1554.055Z" transform="translate(-1973.567 -1395.117)" fill="#ffaf82"/>
      <path id="Trazado_1044476" data-name="Trazado 1044476" d="M2114.253,1590.04a.682.682,0,0,1-.575-1.045c2.7-4.25,2.941-10.163,2.944-10.221a.674.674,0,0,1,.705-.655.681.681,0,0,1,.655.7c-.01.257-.258,6.334-3.155,10.9A.678.678,0,0,1,2114.253,1590.04Z" transform="translate(-1997.453 -1410.171)" fill="#fe976a"/>
      <path id="Trazado_1044477" data-name="Trazado 1044477" d="M2104.411,1587.014a.647.647,0,0,1-.134-.013.68.68,0,0,1-.533-.8,39.241,39.241,0,0,0,.462-11.641.68.68,0,0,1,1.348-.188,39.994,39.994,0,0,1-.474,12.1A.682.682,0,0,1,2104.411,1587.014Z" transform="translate(-1991.315 -1407.469)" fill="#fe976a"/>
      <path id="Trazado_1044478" data-name="Trazado 1044478" d="M2092.207,1587.656a.68.68,0,0,1-.609-.377c-1.923-3.846-.873-11.714-.828-12.047a.681.681,0,0,1,1.349.185c-.011.077-1.039,7.783.7,11.254a.681.681,0,0,1-.609.985Z" transform="translate(-1983.027 -1408.005)" fill="#fe976a"/>
      <path id="Trazado_1044479" data-name="Trazado 1044479" d="M1830.489,1554.055c9.289.2,16.377,10.935,6.909,23.759a1.76,1.76,0,0,1-3.16-.914,10.089,10.089,0,0,1,.17-2.811s-2.4,2.723-3.919-.109c0,0-.98,2.4-3.7.327,0,0-1.089,3.049-4.247,1.2s-6.206-12.2-3.049-17.312S1830.489,1554.055,1830.489,1554.055Z" transform="translate(-1813.212 -1395.118)" fill="#ffaf82"/>
      <path id="Trazado_1044480" data-name="Trazado 1044480" d="M1834.9,1590.042a.68.68,0,0,1-.576-.317c-2.9-4.568-3.144-10.645-3.153-10.9a.68.68,0,0,1,1.359-.049c0,.059.248,5.971,2.944,10.221a.68.68,0,0,1-.211.939A.656.656,0,0,1,1834.9,1590.042Z" transform="translate(-1821.324 -1410.173)" fill="#fe976a"/>
      <path id="Trazado_1044481" data-name="Trazado 1044481" d="M1848.609,1587.014a.681.681,0,0,1-.667-.547,39.952,39.952,0,0,1-.475-12.1.68.68,0,1,1,1.347.188,39.368,39.368,0,0,0,.463,11.64.681.681,0,0,1-.534.8A.966.966,0,0,1,1848.609,1587.014Z" transform="translate(-1831.331 -1407.469)" fill="#fe976a"/>
      <path id="Trazado_1044482" data-name="Trazado 1044482" d="M1860.2,1587.656a.68.68,0,0,1-.608-.985c1.735-3.471.707-11.176.7-11.254a.681.681,0,0,1,1.348-.185c.045.333,1.1,8.2-.828,12.047A.669.669,0,0,1,1860.2,1587.656Z" transform="translate(-1839.007 -1408.006)" fill="#fe976a"/>
      <circle id="Elipse_12512" data-name="Elipse 12512" cx="1.728" cy="1.728" r="1.728" transform="translate(80.465 108.066)" fill="#703316"/>
      <circle id="Elipse_12513" data-name="Elipse 12513" cx="1.728" cy="1.728" r="1.728" transform="translate(53.897 108.683)" fill="#703316"/>
      <path id="Trazado_1044483" data-name="Trazado 1044483" d="M1951.09,1456.824a1.134,1.134,0,0,1-1.134-1.134v-30.7a1.134,1.134,0,1,1,2.269,0v30.7A1.137,1.137,0,0,1,1951.09,1456.824Z" transform="translate(-1895.41 -1313.959)" fill="#3cac96"/>
      <path id="Trazado_1044484" data-name="Trazado 1044484" d="M1951.716,1505.41c0,1.353-.755,2.45-1.687,2.45s-1.687-1.1-1.687-2.45.756-2.45,1.687-2.45S1951.716,1504.059,1951.716,1505.41Z" transform="translate(-1894.402 -1363.298)" fill="#fff"/>
      <path id="Trazado_1044485" data-name="Trazado 1044485" d="M2021.58,1455.184a1.134,1.134,0,0,1-1.134-1.134v-30.7a1.134,1.134,0,1,1,2.268,0v30.7A1.136,1.136,0,0,1,2021.58,1455.184Z" transform="translate(-1939.372 -1312.936)" fill="#3cac96"/>
      <path id="Trazado_1044486" data-name="Trazado 1044486" d="M2022.207,1503.77c0,1.353-.756,2.45-1.687,2.45s-1.688-1.1-1.688-2.45.756-2.45,1.688-2.45S2022.207,1502.419,2022.207,1503.77Z" transform="translate(-1938.365 -1362.275)" fill="#fff"/>
      <path id="Trazado_1044487" data-name="Trazado 1044487" d="M1891.409,1174.51c-7.458-8.462-4.955-19.567,0-26.972s14.318-6.75,14.318-6.75,10.017-13.719,31.357-7.187c20.61,6.309,23.512,39.646,11.1,54.658S1891.409,1174.51,1891.409,1174.51Z" transform="translate(-1855.962 -1131.838)" fill="#6a2810"/>
      <path id="Trazado_1044488" data-name="Trazado 1044488" d="M1949.235,1212.942c-1.325,16.438-10.917,28.31-30.829,28.31-19.036,0-22.979-20.751-20.333-39.188,1.163-8.138,3.611-15.826,6.611-21.078,0,0,36.259-14.206,42.627,11.762A64.061,64.061,0,0,1,1949.235,1212.942Z" transform="translate(-1862.591 -1160.071)" fill="#ffaf82"/>
      <path id="Trazado_1044489" data-name="Trazado 1044489" d="M2015.638,1279.45c2.8,8.655,18.178,6.132,19.107-3.586.9-9.427-9.829-13.449-16.877-7.246S2015.638,1279.45,2015.638,1279.45Z" transform="translate(-1935.371 -1215.29)" fill="#ffaf82"/>
      <path id="Trazado_1044490" data-name="Trazado 1044490" d="M2045.839,1286.284a.679.679,0,0,1-.548-.277c-.134-.183-3.279-4.52-1.405-8.122a.681.681,0,0,1,1.207.628c-1.481,2.846,1.266,6.648,1.294,6.687a.681.681,0,0,1-.146.951A.688.688,0,0,1,2045.839,1286.284Z" transform="translate(-1953.619 -1222.696)" fill="#fe976a"/>
      <path id="Trazado_1044491" data-name="Trazado 1044491" d="M2031.721,1289.1a15.966,15.966,0,0,1-3.5-.407.681.681,0,0,1,.329-1.321,12.17,12.17,0,0,0,5.66.016.681.681,0,1,1,.439,1.289A9.229,9.229,0,0,1,2031.721,1289.1Z" transform="translate(-1943.901 -1228.829)" fill="#fe976a"/>
      <path id="Trazado_1044492" data-name="Trazado 1044492" d="M1932.171,1309.311a8.712,8.712,0,0,1-7.2-3.709.68.68,0,1,1,1.083-.825c4.713,6.186,11.9,1.539,12.208,1.338a.68.68,0,0,1,.753,1.134A14,14,0,0,1,1932.171,1309.311Z" transform="translate(-1879.742 -1239.528)" fill="#6a2810"/>
      <path id="Trazado_1044493" data-name="Trazado 1044493" d="M1979.062,1281.187a3.9,3.9,0,0,1-2.8-1.195,5.257,5.257,0,0,1-.7-6.22,4.952,4.952,0,0,1,4.773-2.826,4.716,4.716,0,0,1,4.1,3.13.681.681,0,0,1-1.284.45,3.355,3.355,0,0,0-2.922-2.223,3.59,3.59,0,0,0-3.469,2.106,3.9,3.9,0,0,0,.469,4.624,2.577,2.577,0,0,0,3.186.441,1.844,1.844,0,0,0,1.116-1.607,2.267,2.267,0,0,0-.92-1.906.574.574,0,0,0-.63-.075.681.681,0,0,1-.641-1.2,1.95,1.95,0,0,1,1.995.124,3.627,3.627,0,0,1,1.556,3.114,3.2,3.2,0,0,1-1.85,2.759A4.288,4.288,0,0,1,1979.062,1281.187Z" transform="translate(-1910.943 -1218.588)" fill="#fe976a"/>
      <path id="Trazado_1044494" data-name="Trazado 1044494" d="M1901.572,1269.956a3.9,3.9,0,0,1-2.8-1.194,5.258,5.258,0,0,1-.7-6.22,4.953,4.953,0,0,1,4.773-2.826,4.717,4.717,0,0,1,4.105,3.129.681.681,0,1,1-1.285.451,3.354,3.354,0,0,0-2.923-2.223,3.594,3.594,0,0,0-3.469,2.106,3.905,3.905,0,0,0,.469,4.625,2.577,2.577,0,0,0,3.185.441,1.844,1.844,0,0,0,1.118-1.607,2.271,2.271,0,0,0-.92-1.905.573.573,0,0,0-.631-.074.68.68,0,1,1-.64-1.2,1.95,1.95,0,0,1,2,.123,3.629,3.629,0,0,1,1.555,3.113,3.2,3.2,0,0,1-1.85,2.759A4.29,4.29,0,0,1,1901.572,1269.956Z" transform="translate(-1862.615 -1211.584)" fill="#fe976a"/>
      <path id="Trazado_1044495" data-name="Trazado 1044495" d="M1931.461,1268.711a.674.674,0,0,1-.384-.12l-5.939-4.089a.682.682,0,0,1-.174-.947l5.939-8.6a.68.68,0,0,1,1.119.773l-5.551,8.041,5.377,3.7a.68.68,0,0,1-.387,1.241Z" transform="translate(-1879.746 -1208.438)" fill="#6a2810"/>
      <path id="Trazado_1044496" data-name="Trazado 1044496" d="M1978.91,1248.041c0,1.83.736,2.86,1.644,2.86s1.644-1.029,1.644-2.86-.736-2.812-1.644-2.812S1978.91,1246.212,1978.91,1248.041Z" transform="translate(-1913.468 -1202.557)" fill="#6a2810"/>
      <path id="Trazado_1044497" data-name="Trazado 1044497" d="M1950.46,1212.942c-15.318.568-21.643-24.757-21.643-24.757s-19.312,18.933-29.52,13.878c1.164-8.138,3.612-15.826,6.612-21.078,0,0,36.259-14.206,42.626,11.762A64.062,64.062,0,0,1,1950.46,1212.942Z" transform="translate(-1863.814 -1160.071)" fill="#fe976a"/>
      <path id="Trazado_1044498" data-name="Trazado 1044498" d="M1897.31,1192.783c10.113,5.671,29.866-13.7,29.866-13.7s6.48,25.937,22.2,24.728c0,0,6.916-5.783.7-24.728s-42.628-14.7-47.94-6.206S1897.31,1192.783,1897.31,1192.783Z" transform="translate(-1862.567 -1152.945)" fill="#6a2810"/>
      <path id="Trazado_1044499" data-name="Trazado 1044499" d="M1886.021,1516.181a.681.681,0,0,1-.656-.5c-2.926-10.739-1.352-22.217,4.954-36.123a.68.68,0,1,1,1.24.562c-6.169,13.6-7.719,24.787-4.881,35.2a.681.681,0,0,1-.478.835A.642.642,0,0,1,1886.021,1516.181Z" transform="translate(-1854.24 -1348.452)" fill="#6a2810"/>
      <path id="Trazado_1044500" data-name="Trazado 1044500" d="M1919.83,1240.51c0,1.83.736,2.86,1.644,2.86s1.644-1.03,1.644-2.86-.736-2.811-1.644-2.811S1919.83,1238.681,1919.83,1240.51Z" transform="translate(-1876.621 -1197.861)" fill="#6a2810"/>
    </g>
  </g>
</svg>
