<svg xmlns="http://www.w3.org/2000/svg" xmlns:xlink="http://www.w3.org/1999/xlink" width="108" height="108" viewBox="0 0 108 108">
  <defs>
    <filter id="Trazado_978624" x="0" y="0" width="108" height="108" filterUnits="userSpaceOnUse">
      <feOffset dy="3" input="SourceAlpha"/>
      <feGaussianBlur stdDeviation="3" result="blur"/>
      <feFlood flood-opacity="0.161"/>
      <feComposite operator="in" in2="blur"/>
      <feComposite in="SourceGraphic"/>
    </filter>
  </defs>
  <g id="Grupo_1183248" data-name="Grupo 1183248" transform="translate(-626 -2636)">
    <g id="Grupo_1181748" data-name="Grupo 1181748" transform="translate(-1 36)">
      <g id="Grupo_1168543" data-name="Grupo 1168543" transform="translate(431 -4452)">
        <g id="Grupo_1164524" data-name="Grupo 1164524" transform="translate(205 7058)">
          <g id="Grupo_1144123" data-name="Grupo 1144123">
            <g transform="matrix(1, 0, 0, 1, -9, -6)" filter="url(#Trazado_978624)">
              <g id="Trazado_978624-2" data-name="Trazado 978624" transform="translate(9 6)" fill="#fefcf6">
                <path d="M 45 88.5 C 39.12687683105469 88.5 33.43022537231445 87.35007476806641 28.06830024719238 85.08217620849609 C 22.88852500915527 82.89131164550781 18.23629951477051 79.75458526611328 14.2408504486084 75.75914764404297 C 10.24541282653809 71.76370239257812 7.108687400817871 67.11147308349609 4.917825222015381 61.93170166015625 C 2.649924993515015 56.56977462768555 1.5 50.87312316894531 1.5 45 C 1.5 39.12687683105469 2.649924993515015 33.43022537231445 4.917825222015381 28.06830024719238 C 7.108687400817871 22.88852500915527 10.24541282653809 18.23629951477051 14.2408504486084 14.2408504486084 C 18.23629951477051 10.24541282653809 22.88852500915527 7.108687400817871 28.06830024719238 4.917825222015381 C 33.43022537231445 2.649924993515015 39.12687683105469 1.5 45 1.5 C 50.87312316894531 1.5 56.56977462768555 2.649924993515015 61.93170166015625 4.917825222015381 C 67.11147308349609 7.108687400817871 71.76370239257812 10.24541282653809 75.75914764404297 14.2408504486084 C 79.75458526611328 18.23629951477051 82.89131164550781 22.88852500915527 85.08217620849609 28.06830024719238 C 87.35007476806641 33.43022537231445 88.5 39.12687683105469 88.5 45 C 88.5 50.87312316894531 87.35007476806641 56.56977462768555 85.08217620849609 61.93170166015625 C 82.89131164550781 67.11147308349609 79.75458526611328 71.76370239257812 75.75914764404297 75.75914764404297 C 71.76370239257812 79.75458526611328 67.11147308349609 82.89131164550781 61.93170166015625 85.08217620849609 C 56.56977462768555 87.35007476806641 50.87312316894531 88.5 45 88.5 Z" stroke="none"/>
                <path d="M 45 3 C 39.32871246337891 3 33.82865524291992 4.110054016113281 28.65262985229492 6.299339294433594 C 23.65165710449219 8.414573669433594 19.15968322753906 11.44334411621094 15.301513671875 15.301513671875 C 11.44334411621094 19.15968322753906 8.414573669433594 23.65165710449219 6.299339294433594 28.65262985229492 C 4.110054016113281 33.82865524291992 3 39.32871246337891 3 45 C 3 50.67128753662109 4.110054016113281 56.17134475708008 6.299339294433594 61.34737396240234 C 8.414573669433594 66.34834289550781 11.44334411621094 70.84031677246094 15.301513671875 74.698486328125 C 19.15968322753906 78.55665588378906 23.65165710449219 81.58542633056641 28.65262985229492 83.70066070556641 C 33.82865524291992 85.88994598388672 39.32871246337891 87 45 87 C 50.67128753662109 87 56.17134475708008 85.88994598388672 61.34737396240234 83.70066070556641 C 66.34834289550781 81.58542633056641 70.84031677246094 78.55665588378906 74.698486328125 74.698486328125 C 78.55665588378906 70.84031677246094 81.58542633056641 66.34834289550781 83.70066070556641 61.34737396240234 C 85.88994598388672 56.17134475708008 87 50.67128753662109 87 45 C 87 39.32871246337891 85.88994598388672 33.82865524291992 83.70066070556641 28.65262985229492 C 81.58542633056641 23.65165710449219 78.55665588378906 19.15968322753906 74.698486328125 15.301513671875 C 70.84031677246094 11.44334411621094 66.34834289550781 8.414573669433594 61.34737396240234 6.299339294433594 C 56.17134475708008 4.110054016113281 50.67128753662109 3 45 3 M 45 0 C 69.85281372070312 0 90 20.14718627929688 90 45 C 90 69.85281372070312 69.85281372070312 90 45 90 C 20.14718627929688 90 0 69.85281372070312 0 45 C 0 20.14718627929688 20.14718627929688 0 45 0 Z" stroke="none" fill="#86815c"/>
              </g>
            </g>
          </g>
        </g>
      </g>
    </g>
    <g id="impresion-de-la-mano_1_" data-name="impresion-de-la-mano (1)" transform="translate(651.392 2657.184)">
      <path id="Trazado_1044853" data-name="Trazado 1044853" d="M44.12,238.459c-5.624,4.2-13.435,3.132-19.828-3.261-5.259-5.259-8.12-9.894-7.244-14.6.727-3.9,4.05-5.068,6.982-6.063,3.74-1.269,3.46-5.134,7.582-6.274,4.1-1.135,8.79,1.02,13.691,5.921C54.771,223.654,50.384,233.787,44.12,238.459Z" transform="translate(-15.005 -183.521)" fill="#00ce8e"/>
      <path id="Trazado_1044854" data-name="Trazado 1044854" d="M44.121,239.458a17.191,17.191,0,0,0,1.5-1.263c-17.746.523-17.61-20.416-13.252-29.1q-.382.067-.758.171c-4.122,1.14-3.842,5.006-7.582,6.274-2.932.994-6.255,2.164-6.982,6.063-.876,4.7,1.985,9.336,7.244,14.6C30.685,242.59,38.5,243.653,44.121,239.458Z" transform="translate(-15.005 -184.52)" fill="#00c172"/>
      <path id="Trazado_1044855" data-name="Trazado 1044855" d="M182.981,19.225l4.788-8.293a4.125,4.125,0,1,1,7.145,4.125l-4.788,8.293a4.125,4.125,0,0,1-7.145-4.125Z" transform="translate(-162.042 -6.67)" fill="#ffbbd5"/>
      <path id="Trazado_1044856" data-name="Trazado 1044856" d="M356.774,218.681a4.125,4.125,0,0,1,1.51-5.635l8.318-4.8a4.125,4.125,0,1,1,4.125,7.145l-8.318,4.8A4.125,4.125,0,0,1,356.774,218.681Z" transform="translate(-316.414 -183.274)" fill="#827cd1"/>
      <path id="Trazado_1044857" data-name="Trazado 1044857" d="M364.115,225.483l-5.833,3.367A4.125,4.125,0,0,0,362.408,236l4.5-2.6C363.357,232.131,363.6,227.614,364.115,225.483Z" transform="translate(-316.413 -199.078)" fill="#625ac4"/>
      <path id="Trazado_1044858" data-name="Trazado 1044858" d="M369.2,372.534a4.126,4.126,0,0,1,3.75-4.469l5.8-.507a4.125,4.125,0,1,1,.719,8.219l-5.8.507A4.126,4.126,0,0,1,369.2,372.534Z" transform="translate(-327.929 -325.262)" fill="#ffb25a"/>
      <path id="Trazado_1044859" data-name="Trazado 1044859" d="M283.613,90.121a4.125,4.125,0,0,1,0-5.834l8.624-8.624a4.125,4.125,0,0,1,5.834,5.834l-8.624,8.624a4.125,4.125,0,0,1-5.834,0Z" transform="translate(-250.847 -64.926)" fill="#ff6e80"/>
      <path id="Trazado_1044860" data-name="Trazado 1044860" d="M7.5,90.175V84.059a4.125,4.125,0,1,1,8.25,0v6.115a4.125,4.125,0,0,1-8.25,0Z" transform="translate(-6.662 -69.794)" fill="#59d5ff"/>
      <g id="Grupo_1183247" data-name="Grupo 1183247" transform="translate(8.687 32.507)">
        <g id="Grupo_1183246" data-name="Grupo 1183246" transform="translate(0 0)">
          <ellipse id="Elipse_12538" data-name="Elipse 12538" cx="2.574" cy="3.232" rx="2.574" ry="3.232" transform="translate(0 3.639) rotate(-45)" fill="#fff"/>
          <ellipse id="Elipse_12539" data-name="Elipse 12539" cx="2.574" cy="3.232" rx="2.574" ry="3.232" transform="translate(12.384 16.025) rotate(-45)" fill="#fff"/>
        </g>
      </g>
      <path id="Trazado_1044861" data-name="Trazado 1044861" d="M187.6,29.957l-4.619,8a4.125,4.125,0,1,0,7.145,4.125l2.1-3.637c-3.961-1.132-5.42-5.572-4.626-8.488Z" transform="translate(-162.042 -25.401)" fill="#ff96c0"/>
      <path id="Trazado_1044862" data-name="Trazado 1044862" d="M11.625,104.476a4.125,4.125,0,0,0,4.125-4.125V98.063a6.724,6.724,0,0,1-7.111-6.671A4.11,4.11,0,0,0,7.5,94.236v6.115a4.125,4.125,0,0,0,4.125,4.125Z" transform="translate(-6.662 -79.97)" fill="#00c4fc"/>
      <path id="Trazado_1044863" data-name="Trazado 1044863" d="M290.328,102.348l-6.716,6.716a4.125,4.125,0,0,0,5.834,5.834l3.988-3.988C289.952,109.945,289.376,105.1,290.328,102.348Z" transform="translate(-250.847 -89.703)" fill="#f8475e"/>
      <path id="Trazado_1044864" data-name="Trazado 1044864" d="M377.977,378.139c-4-2.2-3.213-6.354-2.257-8.085l-2.769.242a4.125,4.125,0,1,0,.719,8.219Z" transform="translate(-327.929 -327.494)" fill="#ff8b43"/>
      <path id="Trazado_1044865" data-name="Trazado 1044865" d="M32.173,25.787a4.961,4.961,0,0,0,7.019,0l8.624-8.624A4.963,4.963,0,0,0,44.353,8.69h-.008a.838.838,0,0,0-.007,1.676,3.287,3.287,0,0,1,2.294,5.611L38.007,24.6a3.287,3.287,0,0,1-4.649-4.649l8.034-8.034a.838.838,0,0,0-1.185-1.185l-8.034,8.034a4.969,4.969,0,0,0,0,7.019ZM22.03,18.916A4.96,4.96,0,0,0,28.81,17.1L33.6,8.807A4.963,4.963,0,1,0,25,3.843l-4.788,8.293a4.961,4.961,0,0,0,1.817,6.78Zm-.365-5.942,4.788-8.293a3.287,3.287,0,1,1,5.693,3.287l-4.788,8.293a3.287,3.287,0,0,1-5.694-3.287Zm-16.7,12.37h0a4.969,4.969,0,0,0,4.963-4.963V14.266A4.96,4.96,0,0,0,4.964,9.3h0A4.969,4.969,0,0,0,0,14.266v6.115a4.96,4.96,0,0,0,4.963,4.963ZM1.676,20.381V14.266a3.287,3.287,0,0,1,6.574,0v6.115a3.287,3.287,0,0,1-6.574,0Zm49.068,21.08-5.8.507a4.963,4.963,0,0,0,.865,9.889l5.8-.507a4.964,4.964,0,0,0-.865-9.889Zm.719,8.219-5.8.507a3.287,3.287,0,1,1-.573-6.549l5.8-.507a3.287,3.287,0,0,1,.573,6.549ZM16.6,35.471a.7.7,0,0,1,0,.99.838.838,0,0,0,1.185,1.185,2.376,2.376,0,0,0-3.361-3.361.838.838,0,1,0,1.185,1.185.7.7,0,0,1,.99,0Zm39.945-9.41a4.96,4.96,0,0,0-6.78-1.817l-8.318,4.8a4.969,4.969,0,0,0-1.817,6.78h0a4.961,4.961,0,0,0,6.78,1.817l8.318-4.8a4.961,4.961,0,0,0,1.817-6.78Zm-2.655,5.328-8.318,4.8a3.286,3.286,0,0,1-4.49-1.2h0a3.285,3.285,0,0,1,1.2-4.49l8.318-4.8a3.287,3.287,0,1,1,3.287,5.694ZM26.326,47.369a.838.838,0,0,0,1.185,0,2.376,2.376,0,0,0-3.361-3.361.838.838,0,1,0,1.185,1.185.7.7,0,0,1,.99.99A.838.838,0,0,0,26.326,47.369ZM18.6,40.108a.839.839,0,0,0-.894.779,3,3,0,0,0,3.2,3.2.838.838,0,0,0-.115-1.672A1.324,1.324,0,0,1,19.381,41a.838.838,0,0,0-.779-.894ZM16.384,23.937a7.834,7.834,0,0,0-4.5,3.555,6.214,6.214,0,0,1-3.13,2.733c-2.832.961-6.712,2.276-7.537,6.7C.365,41.514,2.671,46.245,8.695,52.27a24,24,0,0,0,3.434,2.863.838.838,0,1,0,.944-1.385A22.3,22.3,0,0,1,9.88,51.084C4.288,45.492,2.125,41.22,2.868,37.235c.645-3.462,3.717-4.5,6.427-5.423a7.841,7.841,0,0,0,3.953-3.343,6.2,6.2,0,0,1,3.583-2.917c4.63-1.28,9.469,2.3,12.875,5.706,3.709,3.709,5.509,7.883,5.206,12.071a15.4,15.4,0,0,1-6.3,10.937,12.122,12.122,0,0,1-12.22,1.277.838.838,0,1,0-.631,1.553A13.924,13.924,0,0,0,29.617,55.61a17.1,17.1,0,0,0,6.967-12.16c.339-4.688-1.629-9.313-5.692-13.377-3.9-3.9-9.2-7.606-14.508-6.137Z"/>
    </g>
  </g>
</svg>
