<svg xmlns="http://www.w3.org/2000/svg" xmlns:xlink="http://www.w3.org/1999/xlink" width="400" height="320" viewBox="0 0 400 320">
  <defs>
    <clipPath id="clip-path">
      <rect id="Rectángulo_416054" data-name="Rectángulo 416054" width="400" height="320" transform="translate(180.058 3720)" fill="#fff" stroke="#707070" stroke-width="1"/>
    </clipPath>
  </defs>
  <g id="Enmascarar_grupo_1098838" data-name="Enmascarar grupo 1098838" transform="translate(-180.058 -3720)" clip-path="url(#clip-path)">
    <g id="Grupo_1183427" data-name="Grupo 1183427" transform="translate(-6524.078 173.775)">
      <path id="Trazado_1046619" data-name="Trazado 1046619" d="M373.1,101.259c-.23-1.262.859-1.654,1.539-2.3a21.8,21.8,0,0,1,15.506-6.1c42.339-.035,84.678.059,127.016-.08,10.213-.034,19.775,6.873,21.273,17.838a17.514,17.514,0,0,1,.093,2.358q.006,75.718,0,151.435c0,11.215-7.8,20-18.926,21.526a40.18,40.18,0,0,1-5.285.331q-8.171.044-16.342.066a3.887,3.887,0,0,1-2.635.577q-19,.017-38,0a4.861,4.861,0,0,1-2.5-.406c-.711-.712-.191-1.37.19-1.924,4.091-5.958,7.6-12.267,11.215-18.515a3.579,3.579,0,0,1,2.456-1.784,26.116,26.116,0,0,1,5.847-.7q22.939.031,45.877.009a19.952,19.952,0,0,0,2.929-.1,4.542,4.542,0,0,0-2.244-.233q-21.757-.018-43.514-.01c-.788,0-1.577.035-2.362-.035-1.76-.156-2.009-.477-1.726-2.235.4-2.481.116-4.98.215-7.468.1-2.393.523-2.885,2.943-2.895,9.385-.039,18.791-.4,28.149.122,6.194.343,12.3-.5,18.454-.263a35.8,35.8,0,0,0-5.8-.215,6.589,6.589,0,0,1-3.9-1.1,4.556,4.556,0,0,0-5.83.073,5.2,5.2,0,0,1-3.32,1.016c-9.254.008-18.508.028-27.762-.015-2.413-.011-2.875-.5-2.92-2.907-.049-2.69-.027-5.381,0-8.072a2.125,2.125,0,0,1,2.4-2.423c6.5-.023,12.995-.051,19.492.017a6.264,6.264,0,0,1,2.968.957,6.284,6.284,0,0,0,6.4.027,9.457,9.457,0,0,1,4.742-1.03c4.523.02,9.046.026,13.571-.159-3.385-.2-6.775-.15-10.164-.179-3.5-.03-5.324.686-4.417-4.649.332-1.955-.369-3.911-.335-5.882.045-2.609.645-3.252,3.28-3.285,3.675-.046,7.35-.033,10.472.017-3.415-.6-7.414-.3-11.4-.4a2.079,2.079,0,0,1-2.333-2.289q-.063-3.839,0-7.678c.029-1.562.867-2.227,2.367-2.245q3.938-.049,7.875,0a3.79,3.79,0,0,1,3.189,1.645c.329.447.519,1.068,1.264,1.242a4.393,4.393,0,0,0-1.538-4.519c-3.578-3.433-7.93-5.308-12.162-7.5-1.817-.939-2.106-.715-2.151,1.356-.036,1.64-.01,3.281-.022,4.922-.012,1.594-.7,2.453-2.36,2.461-8.729.039-17.458.077-26.186-.029-1.84-.022-2.47-.713-2.555-2.556-.118-2.556-.055-5.118-.024-7.677a2.066,2.066,0,0,1,2.279-2.336c.788-.016,1.575-.03,2.362-.03q20.084,0,40.167-.005a10.854,10.854,0,0,0,2.615-.13,5.289,5.289,0,0,0-2.382-.2q-20.084-.02-40.167-.01c-.788,0-1.575,0-2.362-.039a1.953,1.953,0,0,1-2.1-2.094,43.927,43.927,0,0,1,.007-5.116c.131-1.79.66-2.116,2.467-1.626,2.922.792,5.671,2.062,8.506,3.1.617.225,1.227.47,1.862.638.365.1.8.3,1.06-.128.172-.288.01-.645-.143-.937a10.612,10.612,0,0,0-5.087-4.756,69.98,69.98,0,0,0-8.289-3.109c-1.412-.449-1.95.027-1.95,1.438q0,3.938,0,7.876c-.006,4.756,0,4.758-4.852,4.758q-34.26,0-68.52-.005a9.8,9.8,0,0,1-3.318-.255c-1-.581-.692-1.464-.44-2.259,3.205-10.134,1.06-19.382-4.622-28.044-1.473-2.246-2.862-4.561-4.5-6.681-1.9-2.456-2.271-4.773-.159-7.234a29.976,29.976,0,0,0,5.69-17.611c-.075-6.464-1.645-12.411-6.229-17.26a3.815,3.815,0,0,1-.562-.8c-1.278-3.376-4.111-5.436-6.605-7.782-.373-.35-.892-.539-1.161-1.014-1.151-2-3.237-3-4.832-4.519C374.2,102.618,373.144,102.382,373.1,101.259Z" transform="translate(6520.122 3458)" fill="#5692e8"/>
      <path id="Trazado_1046620" data-name="Trazado 1046620" d="M414.114,570.8c-3.887,7.777-10.549,12.466-18.05,16.22-1.053.527-2.113,1.039-3.169,1.558a1.9,1.9,0,0,1-1.738.711,26.1,26.1,0,0,0-8.671,1.4,76.283,76.283,0,0,1-16.741,3.109c-3.825.216-7.552-.625-11.321-.969-1.5-.137-1.676.193-1.607,1.557a34.876,34.876,0,0,1-.886,11.287c-.5,1.272-.656,2.7-1.68,3.738a4.138,4.138,0,0,1-2.634.6c-6.685.067-13.354-.3-20.021-.717-5.947-.374-11.9-.629-17.834-1.239-8.864-.912-17.746-1.663-26.552-3.055a191.105,191.105,0,0,1-22.738-4.614,8.1,8.1,0,0,0-5.013.17c-2.344.851-4.73,1.577-7.07,2.448a7.4,7.4,0,0,0-4.788,4.34,2.35,2.35,0,0,1-.82,1.09c-3.3.759-6.661.436-9.967.277a60.3,60.3,0,0,1-11.878-1.359,29,29,0,0,1-14.524-8.138,26.207,26.207,0,0,1-6.376-13.964,49.336,49.336,0,0,1,.3-15.207,86.856,86.856,0,0,1,5.246-16.607,5.442,5.442,0,0,1,1.2-2c.8-.509,1.505-.039,2.221.246a36.36,36.36,0,0,0,11.843,2.424,6.067,6.067,0,0,0,3.368-.861,68.76,68.76,0,0,1,14.3-5.873c2.069-.626,4.277-.493,6.375-1.006,1.729-.33,3.5.019,5.227-.341a64.328,64.328,0,0,1,22.368,2.426c8.111,2.231,15.411,6.239,22.549,10.569,1.963,1.191,3.92,2.394,5.939,3.485,3.859,2.575,7.885,4.885,11.786,7.395,1.412.908,2.556.539,3.747-.383a46.063,46.063,0,0,0,15.294-20,55.7,55.7,0,0,0,2.55-8.2c.2-.761.346-1.54,1.139-1.953a57.058,57.058,0,0,1,11.888-1.43c8.313-.479,16.641-.617,24.954-.346,8.71.284,17.45.666,25.887,3.25,5.974,1.83,11.293,4.671,14.839,10.055,3.772,5.727,4.064,11.9,2.121,18.311A2.629,2.629,0,0,1,414.114,570.8Z" transform="translate(6602.389 3247.125)" fill="#25505f"/>
      <path id="Trazado_1046621" data-name="Trazado 1046621" d="M534.525,533.859c.857-2.871,1.757-5.7,1.692-8.785-.2-9.563-5.409-15.522-13.739-19.168-5.805-2.541-12.015-3.393-18.28-3.992a224.581,224.581,0,0,0-26.262-.709c-7.018.151-14.068.162-21.01,1.512a6.907,6.907,0,0,1-1.177.031c-.58-.865-.236-1.805-.12-2.677A47.4,47.4,0,0,0,453.7,479.1a2.835,2.835,0,0,1,1.056-3.464,19.7,19.7,0,0,0,4.153-4.685c2.059-2.754,1.416-5.865,1.167-8.918-.06-.743-.615-1.53.282-2.144a4.444,4.444,0,0,1,1.925-.314c8.841-.014,17.682-.03,26.523.008a5.7,5.7,0,0,1,1.165.118c.754.182,1.148.551.758,1.39a6.7,6.7,0,0,0-.989,2.3c.908-1.514,1.4-3,3.075-3.234q20.37.028,40.74.057c.852,0,1.7.04,2.555.063.3.89,1.473,1.325,1.254,2.512-.062.335.336.555.692.54,2.012-.083,3.541,1.768,6.053,1.088-1.211,1.471-1.751,2.608.1,3.284,1.046.382-.2.976.174,1.445a3.12,3.12,0,0,0,1.631-1.575c.666-1.081,1.935-.119,2.813-.77.146-.108.286,1.14.247,1.741-.081,1.263.489,1.6,1.64,1.512,2.676-.2,3.557.548,3.917,3.094a5.076,5.076,0,0,0,2.009,3.239,3.6,3.6,0,0,1,1.485,3.061c-.29,3.814,1.623,7.548.364,11.39-.244.746.727.335.859.772-2.812,1.469-3.71,3.773-3.08,6.824a9.032,9.032,0,0,1,0,2.734c-.046.441-.057,1.027-.6,1.115-.585.1-.67-.518-.817-.914a25.117,25.117,0,0,0-1.4-3.651,4.983,4.983,0,0,0-1.7-2.106c-1.013-.577-2.128-.922-3.071.026a2.175,2.175,0,0,0-.011,3.044,14.485,14.485,0,0,0,5.28,3.935c.612.308,1.454.328,1.515,1.282l-.384.078c1.5,2.249.317,4.395-.39,6.468a37.823,37.823,0,0,1-5.2,10.795,75.886,75.886,0,0,1-10.19,11.386c-.912.814-2.141,1.069-3,2.1C535.475,535.7,535.267,533.9,534.525,533.859Z" transform="translate(6481.978 3284.062)" fill="#dce8fa"/>
      <path id="Trazado_1046622" data-name="Trazado 1046622" d="M144.971,149.7c-.142-.465-.692-.974-.082-1.4a1.358,1.358,0,0,1,1.623.337c1.5,1.453,2.558,1.61,3.87-.363a2.469,2.469,0,0,1,3.226-.62c1.271.7,2.734,1.081,3.76-.6a.885.885,0,0,1,1.2-.376c1.087.525,2.138,1.141,3.062-.283.154-.238.476-.05.619.207.923,1.658,1.772-.03,2.637-.105,1.152-.1.373-.827.359-1.4-.022-.866.647-1.476,1.531-1.979.375.661-.6,1.882,1.319,1.745s.262,1.212-.022,1.829c1.77,1.042,2.869.167,3.754-1.161.39-.585.645-1.188-.591-1.145-1.215.042-1.262-.71-.671-1.539,1.181-1.661,2.9-1.761,4.68-1.424.555.106,1.026.244,1.42-.213a.706.706,0,0,0-.139-1.042.961.961,0,0,0-1.4.062,1.088,1.088,0,0,1-1.08.313,2.547,2.547,0,0,1-1.674-1.257.517.517,0,0,1,.161-.478c.607-.323,1.145.011,1.656.287a3.722,3.722,0,0,0,2.293.3c.591-.067,1.208-.975,1.735-.2a2.1,2.1,0,0,1-.035,2.409,3.226,3.226,0,0,0-.5,2.217,1.1,1.1,0,0,1-.05,1.611,1.956,1.956,0,0,0-1.072,1.707c-.134,1.352-.569,2.66-.69,4.021.057,2.1-.769,4.026-1.195,6.031-.607,1.217-1.533,2.337-1.164,3.852-.016,1.33.237,2.738-1.058,3.7-.981-.3-.6-1.193-.765-1.83a5.76,5.76,0,0,0-.731-2.433,15.8,15.8,0,0,0,.564,2.568,1.262,1.262,0,0,1-.5,1.719,2.732,2.732,0,0,1-2.462.195c-.692-.239-1.189-.788-.979-1.5.538-1.828-.642-1.79-1.813-1.8-1.705-.017-3.412-.064-5.115.015s-3.336.222-4.664,1.642a3.036,3.036,0,0,1-4.126-.136,4.006,4.006,0,0,0-5.039-.568,6.253,6.253,0,0,0-2.634,3.63,11.864,11.864,0,0,0-.283,5.037,2.853,2.853,0,0,1-.088.976c-.128.608-.414,1.241-.978,1.4-2.276.625-2.342,4.378-5.491,3.788-.75-.14-2.167-.349-2.226.522-.077,1.154,1.369.907,2.188,1.032,3.049.464,3.68,1.216,3.271,4.286a10.109,10.109,0,0,0,.04,2.737c.426,3.134-.56,4.176-3.654,3.845a3.384,3.384,0,0,0-2.435.421c-2.76,1.841-4.832,1.217-6.372-1.634a14.125,14.125,0,0,1-1.643-9.642c.128-.675.391-1.557-.586-1.822s-1.209.536-1.363,1.269c-.25,1.188-1.156,1.675-2.148,2.1-.291.124-.659.27-.613.671.044.378.42.437.717.566,2.469,1.069,2.527,1.479,2.378,4.153-.2,3.494-.881,6.964-.018,10.524.74,3.053-.991,5.689-3.863,6.837a1.53,1.53,0,0,1-1.324-.059c-1.4-.707-2.091-.163-2.284,1.281a2.053,2.053,0,0,1-.312.565c-1.017.775-2.043,1.634-2.884-.195a8.646,8.646,0,0,1-.062-2.133c-.04-.7,1.037-2.147-1.009-1.479-2.312.426-1.606,2.457-2.056,3.874-1.321,1.532-1.692,1.56-3.561.281a1.553,1.553,0,0,1-.327-.809,12.515,12.515,0,0,0-.108-1.75c-.325-1.58-1.191-2-2.823-1.359-.429.319-.912.553-1.34.872-1.218,2.412-.055,5.064,2.721,6.167.364.145.763.2,1.121.364.971.447,1.056,1.035.339,1.825-1.446,1.595-2.741,1.593-4.149-.053-.251-.294-.443-.7-.929-.543a.782.782,0,0,0-.527.762,10.042,10.042,0,0,0,.868,4.934c.693,1.165,2.537,1.907,4.167,2.232.383.077.785.044,1.172.13a1.565,1.565,0,0,1,1.343,1.264,1.711,1.711,0,0,1-.862,1.834c-1.236.836-2.533.317-3.822.206-1.373-.118-2.285-.542-2.58-2.131-.256-1.375-1.771-1.155-2.782-1.39a2.078,2.078,0,0,0-2.447,1.234,6.573,6.573,0,0,1-2.2,2.924,2.44,2.44,0,0,0-.706,1.991c-.082,3.488-2.534,5.943-3.8,8.909a1.5,1.5,0,0,1-.881.756c-1.566.565-2.024,1.056-.219,2.122,1.144.676.151,1.409-.575,2.05,1.874,0,2.048-2.283,3.823-2.43,1.907-.158,2.444,1.57,3.868,2.258.375-.666.26-1.591,1.024-2.013a3.5,3.5,0,0,1,2.3-.267c.835.126,1.408-.063,1.62-.97.57-2.437,2.128-2.537,3.919-2.175a44.479,44.479,0,0,0,7.013.733c2.212.094,4.213-1.017,6.413-.806.683.066.706-.432.451-.938-.3-.6-.888-.969-1.23-1.527a2.8,2.8,0,0,1-.093-2.993c.548-.954,1.417-.605,2.279-.432a3.18,3.18,0,0,0,3.794-2.218c.471-1.315,1.558-1.558,2.594-.563a4.9,4.9,0,0,1,1.118,1.837c.307.8.705,1.211,1.614.738.933-.485,1.309.1,1.506.911a1.377,1.377,0,0,1-.458,1.212c-1.252,1.131-2.47,2.3-3.74,3.413-.866-.221-1.336-.991-2.022-1.464-.381-.263-.771-.57-1.226-.222-.361.276-.281.7-.167,1.077a2.177,2.177,0,0,1-.73,2.761,7.055,7.055,0,0,1-1.118,1.605c.974-.219.639-1.138,1.087-1.579a1.513,1.513,0,0,1,1.778,1.1.96.96,0,0,1-.059.763c-2.165,2.593-3.151,5.815-4.694,8.739a1.075,1.075,0,0,1-.753.575c-1.512-2.009-1.483-3.461.113-5.073a1.843,1.843,0,0,0,.665-.935.956.956,0,0,0-.6-1.108c-.534-.238-.873.042-1.062.531a4.494,4.494,0,0,0-.356,1.714,2.166,2.166,0,0,1-1.422,2.31c-.952.383-1.029,1.026-.947,2.029a12.942,12.942,0,0,0,2.088,6.374,1.375,1.375,0,0,1-.213,1.1c-.951.212-1.841-.337-2.852-.11-1.048.235-1.353-.708-1.207-1.539a7.084,7.084,0,0,0-.392-4.4,1.885,1.885,0,0,1-.072-1.354c1.052-2.96-1.41-4.01-2.993-5.5-.742-.7-1.614.21-2.437.053a6.517,6.517,0,0,1-1.131-.076,4.775,4.775,0,0,0-4.225.948,4.814,4.814,0,0,1-2.527,1.377c-.829.079-.921,1.017-1.287,1.611-.446.725-1.032,1.406-1.879.785-1.088-.8-1.659-.06-2.35.514-1.394.225-2.165-.812-3.1-1.525a2.784,2.784,0,0,0-2.671-1.279,5.344,5.344,0,0,1-2.475-.451c-2.505-.983-4.428.084-4.915,2.691a8.49,8.49,0,0,1-.882,2.984,1.376,1.376,0,0,0-.247.937c.671,3.335.6,6.93,3.056,9.669a6.707,6.707,0,0,0,4.1,2.09c2.554,1.048,4.519,3.05,6.968,4.287,1.273.643,2.426,1.528,3.717,2.165a3.515,3.515,0,0,1,2.028,2.491c.371,5.864-.213,11.709-.283,17.563-.026,2.148.63,4.256.368,6.417-.2,1.681-.706,1.9-2.249.966a6.506,6.506,0,0,1-.855-3.919,17.36,17.36,0,0,0-.5-5.007,13.823,13.823,0,0,0-12.405-8.616,4.781,4.781,0,0,1-1.1-.108c-1.183,1.216-1.8.4-2.254-.677a42.279,42.279,0,0,0-2.691-6.209c-1.56-2.429-2.045-5.146-3.134-7.649-1.423-3.27-3.215-6.629-2.907-10.415.137-1.682-1.269-2.661-1.409-4.305a49.8,49.8,0,0,1,.126-11.044c.413-3.034,1.818-5.941,1.259-9.11a2.515,2.515,0,0,1,.663-2.2,15.2,15.2,0,0,0,3.811-6.881c.4-1.558,1.1-1.779,2.712-1.185.614-.834-1.539-1.173-.463-1.85,1.434-.9,2.249-3.013,4.384-2.556.841.18,1.356.291,1.629-.683a.736.736,0,0,1,.93-.542c1.246.527,1.817-.315,2.387-1.108a1.235,1.235,0,0,1,1.374-.467,4.628,4.628,0,0,0,4.868-2.956c.094-.215.347-.57.442-.544,2.228.591,2.676-1.583,3.8-2.555,2.326-2.011,5.205-2.536,7.945-3.465.419-.142,1.029-.025,1.057-.614.022-.46-.485-.542-.885-.586-.344-.038-.669-.134-.712-.531-.053-.494.415-.59.695-.845.879-.8,2.056.218,2.975-.573,1.36-1.17,2.844-2.4,3.118-4.151.284-1.815.809-3.665.354-5.6-.489-2.081.21-4.14.528-6.194.279-1.8.607-3.6.914-5.393.055-.319.017-.843.188-.925,1.975-.947,1.267-2.727,1.395-4.251a3.572,3.572,0,0,1,.235-1.142c1.955-4.371,3.336-9.193,6.7-12.621,1.944-1.978,3.45-4.383,5.7-6.069a2.448,2.448,0,0,1,2.3-.656,7.564,7.564,0,0,0,3.081.1c.824-.141.872.126.889.75.019.715.318,1.381,1.1,1.362.685-.016,1.522-.173,1.612-1.122.087-.916.671-1,1.384-.976.734.02,1.477.032,1.772-.866.131-.4.328-.747.834-.542.367.149.357.513.365.836.016.656.021,1.312.021,1.969,0,.8.477.994,1.165.943.726-.054.77-.558.783-1.12.016-.7-.651-1.338-.146-2.2.924.28,1.292,1.711,2.521,1.375a3.773,3.773,0,0,0,.942.789C145.611,150.048,145.193,150,144.971,149.7Z" transform="translate(6664.36 3436.233)" fill="#edf3fc"/>
      <path id="Trazado_1046623" data-name="Trazado 1046623" d="M158.039,233.846q.057-.544.114-1.089c.059-2.171.233-4.308,1.831-6.011,1.726-3.281,2.856-6.879,5.215-9.824q.17-.2.329-.4c.531-.63,1.355-1.055,1.407-2.019a1.522,1.522,0,0,1,.954-1.143c.775-1.928,3.055-2.491,3.93-4.328-.1-.556.259-.8.678-1,1.082-.5,1.425-1.559,1.886-2.526,3.352-4.932,4.528-10.673,6.072-16.278,1.775-6.447,4.458-12.422,8.992-17.453a24.857,24.857,0,0,1,2.387-2.321,21.649,21.649,0,0,1,1.884-1.632,23.988,23.988,0,0,1,4.654-3.492c.427-.288.879-.541,1.284-.862.335-.273.651-.569,1.006-.819,1.587-.993,3.034-2.179,4.523-3.306,3.106-3.255,6.088-6.594,7.886-10.807.324-.76.447-1.666,1.273-2.138a5.725,5.725,0,0,0,.534-3.369c.323-1.386.941-2.691,1.14-4.112.467-2.041,1.34-4,1.215-6.159a12.669,12.669,0,0,0,1.135-3.859,2.188,2.188,0,0,1,.858-1.645c.536-.468.288-1.1.341-1.665.757-.26.768-1.018,1.014-1.589,3.249-7.525,8.022-13.9,15.045-18.173,10.838-6.593,22.126-7.694,33.667-1.615a13.841,13.841,0,0,0,1.455.573c2.119,1.826,4.543,3.3,6.392,5.436.19.219.84.36.279.851-2.195-.183-4.016-1.481-6.116-2.009a28,28,0,0,0-22.1,3.439c-7.576,4.592-11.819,11.747-14.436,19.966a3.623,3.623,0,0,1-2.962,2.876c-4.434,1.04-7.539,5.65-7.8,10.936a29.691,29.691,0,0,0,.909,7.395c-.635,4.751-2.994,8.747-5.766,12.476a39.161,39.161,0,0,1-10.677,9.7,59.756,59.756,0,0,0-9.224,7.581,17.9,17.9,0,0,0-3.46,4.983,76.608,76.608,0,0,0-7.239,20.3c-.406,2.215-1.252,2.7-3.482,2.1a4.046,4.046,0,0,0-3.546.457c-1.405.92-3.323.781-4.57,2.131a52.684,52.684,0,0,0-4.567,5.131A38.672,38.672,0,0,0,165,240.324a28.473,28.473,0,0,0,9.428,22.279c.1.09.194.25.294.25,2.422,0,1.977,1.891,2.213,3.334-.172,1.679-.926,3.224-1.141,4.893-.829.846-1.629-.558-2.458-.032a6.354,6.354,0,0,1-3.211-2.736c-.092-1.25-1.1-1.666-2-2.179a2.877,2.877,0,0,1-1.518-1.822c.268-1.039-.621-1.063-1.2-1.358a1.59,1.59,0,0,1-.818-1.017c-.056-1.011-.765-1.516-1.539-1.974-3.661-5.533-6.1-11.446-5.719-18.247a10.283,10.283,0,0,0-.008-4.72A3.521,3.521,0,0,1,158.039,233.846Z" transform="translate(6622.472 3454.476)" fill="#295567"/>
      <path id="Trazado_1046624" data-name="Trazado 1046624" d="M90.256,634.567c-.31-4.248-1.465-8.349-2.2-12.524-.81-4.623-1.66-9.239-2.493-13.858.567-.854,1.434-.775,2.292-.748,8.77.281,17.543.173,26.311.06,3.063-.04,6.133-.376,9.21-.318a7.261,7.261,0,0,1,3.8.767c.894.944.576,2.031.367,3.105-1.294,7.7-2.812,15.356-4.151,23.05a19.034,19.034,0,0,1-.417,1.924c-.65,2.332-1.481,3.082-3.89,3.095-8.981.048-17.963.109-26.942-.121C89.924,638.2,90.273,636.307,90.256,634.567Z" transform="translate(6656.465 3214.056)" fill="#509099"/>
      <path id="Trazado_1046625" data-name="Trazado 1046625" d="M328.443,664.9c5.536.475,11.005,1.5,16.554,1.914,6.644.494,13.264,1.3,19.909,1.786,9.6.7,19.21,1.219,28.84,1.2.7,0,1.456.2,2.073-.35,2.435-.275,4.867-.834,7.321-.594,6.994.686,14,.255,21,.339,5.627.067,11.238.586,16.873.468a8.606,8.606,0,0,1,5.775,2.131c.443.926-.022,1.357-.865,1.581l-.778-.007c-2.311-1.019-4.705-.343-6.965-.014-2.917.425-5.858.259-8.763.776-5.046.9-10.18.575-15.271.683-3.306.07-6.624.605-9.947.029a11.372,11.372,0,0,0-4.1.315,31.747,31.747,0,0,1-6.217.477c-5.559-.013-11.152-.549-16.672.041-5.149.55-10.238-.151-15.354.033-6.023.217-12.053.145-18.08.187-9.052.063-18.1-.1-27.143-.4a7.465,7.465,0,0,1-2.106-.465,5.524,5.524,0,0,0-3.494-.108c-3.171,1.06-6.349.663-9.534.229-1.431-.2-2.856-.389-4.3-.482-.752-.048-1.681-.11-1.416-1.333a2.7,2.7,0,0,1,1.871-.524c1.121-.023,2.291.279,3.3-.5,2.283-1.228,4.853-1.515,7.314-2.069a190.754,190.754,0,0,0,19.016-5.206A4.938,4.938,0,0,1,328.443,664.9Z" transform="translate(6556.795 3186.681)" fill="#cbddf7"/>
      <path id="Trazado_1046626" data-name="Trazado 1046626" d="M488.374,651.968a40.575,40.575,0,0,0,.76-13.081c-.136-1.269.653-.693,1.078-.651,2.149.212,4.3.445,6.436.745,7.436,1.044,14.6-.477,21.655-2.493a41.608,41.608,0,0,1,11.541-1.791c5.215,1.047,10.161,3.119,15.468,3.872,4.04.574,5.427,4.26,3.063,7.576-.277.387-.634.717-.093,1.148.965,2.157-1.737,7.539-4.064,8.1a23.279,23.279,0,0,0-2.5-.488,2.987,2.987,0,0,1-2.462-1.993,1.56,1.56,0,0,1,.036-1.838,1.661,1.661,0,0,1,1.958-.493,14.552,14.552,0,0,0,2.2.677c-3.743-1.728-7.864-.643-11.894-.5-13.329.462-26.661,1.614-39.921-.849-1.1-.2-1.753-.069-1.944,1.174C489.585,651.722,489.318,652.423,488.374,651.968Z" transform="translate(6465.439 3201.003)" fill="#fdb9a0"/>
      <path id="Trazado_1046627" data-name="Trazado 1046627" d="M99.047,409.307c.373.239.849.752,1.1.66.578-.214.349-.9.324-1.381-.42-8.164.151-16.327.017-24.489a1.064,1.064,0,0,1,1.365-.029c.659,1.4.137,2.85.1,4.262-.209,9.056.413,18.1.423,27.147a41.522,41.522,0,0,1-.272,6.089c-.122.839-.432,1.87.7,2.4a1.694,1.694,0,0,1,1.017.812c-1.456,1.467-1.542,3.288-1.515,5.227.074,5.353.022,10.708.028,16.28a6.266,6.266,0,0,0,2.513-4.009c.148-.851-.018-2.049,1.351-2.221.755,1.256.438,2.644.5,3.985-.784,1.546-2.214,2.56-3.261,3.9a4.433,4.433,0,0,0-1.1,2.85c0,9.645,0,19.289.005,29.152.8-.624,1.039-1.692,2.038-1.8a.875.875,0,0,1,.692.7c-.046,1.531-1.047,2.646-1.708,3.906-.73,1.393-1.5,2.745-1.331,4.431.155,1.549.777,2.338,2.473,2.312,4.382-.065,8.766-.025,13.149-.02,2.552,0,5.1-.048,7.654.022,2.426.067,3.259.9,3.407,3.344a32.676,32.676,0,0,1,0,3.924c-.138,2.308-.988,3.185-3.257,3.329-1.108.07-2.219.147-3.332.163-14.155-.106-28.308-.286-42.459.125-.618-1.125-1.69-.732-2.617-.757-2.513-.067-2.856-.384-2.884-2.836q-.024-2.064-.012-4.128c.016-2.164.451-2.609,2.693-2.614,7.077-.015,14.155-.064,21.231.036,1.723.024,2.177-.434,2.226-2.168.077-2.693-1.321-4.736-2.415-6.936-1.047-2.1-2.177-4.166-3.27-6.246a1.034,1.034,0,0,1,1.16-.5c1.528,1.259,1.913,3.243,3.016,4.776.374.52.575,1.154,1.2,2.109-.074-5.914.254-11.382-.19-16.842a32.03,32.03,0,0,1,0-6.274,80.591,80.591,0,0,0,.134-10.414c-.026-1.686-1.461-2.94-1.487-4.639a.861.861,0,0,1,.676-.642c.432.111.91.356.807-.5-.7-5.8-.159-11.625-.341-17.436-.062-1.958.257-3.894.1-5.871-.245-3.031.178-6.135-1.188-9.017A.343.343,0,0,1,99.047,409.307Z" transform="translate(6661.875 3319.971)" fill="#57969e"/>
      <path id="Trazado_1046628" data-name="Trazado 1046628" d="M97.467,660.763q13.363-.021,26.726-.047c3.24-.01,3.46-.237,4-3.468a8.444,8.444,0,0,1,.427-1.283c2.132-1.014,4.473-.888,6.7-.921,6.33-.094,12.647-.731,18.984-.468a9.935,9.935,0,0,0,3.843-.618c7.152,7.449,16.354,9.231,26.12,9.415,3.336.063,6.675.036,10.013.049a9.556,9.556,0,0,1,1.588,3.657c.143,1.621,1.028,1.275,1.984.742a3.541,3.541,0,0,1,2.733.226.63.63,0,0,1-.217.984c-1.762,1.051-3.6,1.712-5.635.753h-.372c-3.972.367-8.076.78-11.9.041-7.343-1.419-14.753-.789-22.106-1.52-4.844-.482-9.727-.885-14.61-1.136a35.416,35.416,0,0,1-6.586-.839c-3.326-.812-6.76-.6-10.15-.784-.323-.018-.688.137-.975.006-2.883-1.31-6.074-.649-9.037-1.439-1.171-.312-2.351.135-3.527.015a42.937,42.937,0,0,1-8.445-1.352,1.9,1.9,0,0,0-1.312.184c-.724.257-1.708.292-2.05-.224-1.15-1.732-2.809-.936-4.271-1.131C98.676,661.51,97.755,661.839,97.467,660.763Z" transform="translate(6650.821 3191.868)" fill="#cbddf7"/>
      <path id="Trazado_1046629" data-name="Trazado 1046629" d="M88.578,522.348a.961.961,0,0,1-.866.444,2.727,2.727,0,0,0-2.636-1.227c-16.325-.626-24.457-13.119-25.333-24.715a102.913,102.913,0,0,1-.009-11.533l.023-.035a1.037,1.037,0,0,1,1.341.5,39.782,39.782,0,0,0,5.841,6.085c4.624,4.222,7.7,9.593,11.382,14.511.461.615.7,1.414,1.607,1.8.985-2.05,1.027-4.282,1.407-6.434.167-.942.064-2.481,1.073-2.461,1.145.023.795,1.6.862,2.468a26.885,26.885,0,0,1-.343,5.865,14,14,0,0,0-.094,3.529c.072.658.229,1.377.954,1.589s1.015-.469,1.349-.927a9.479,9.479,0,0,1,2.46-2.24c.37-.248.8-.524,1.2.006a12.02,12.02,0,0,1-.018,6.023A17.943,17.943,0,0,0,88.578,522.348Z" transform="translate(6668.791 3271.905)" fill="#4c8994"/>
      <path id="Trazado_1046630" data-name="Trazado 1046630" d="M588.48,665.765c.189-.037.509-.022.548-.119,1.041-2.6,3.557-4.562,3.367-7.7.211-.432.5-.858,1.024-.771,4.533.759,9.209.144,13.7,1.6,1.393.453,3.086-.02,4.641-.069,2.039,2.631,4.664,3.535,8.019,3.408a126.784,126.784,0,0,1,12.873-.057c3.2-.033,6.407-.094,9.608,0,1.476.041,2.506-.377,3.02-1.8.712.43,1.47.816,1.651,1.748-1.025.2-1.461,1.251-2.617,1.482a64.162,64.162,0,0,1-11.381,1.431c-3.959.066-7.756,1.343-11.747,1.016a15.932,15.932,0,0,0-5.455.83,28.136,28.136,0,0,1-9.533,1.1,28.136,28.136,0,0,0-5.018.535c-3.1.376-6.2.767-9.305,1.135-.946.112-2.038,1.417-2.8-.305-.021-.048-.355-.021-.487.061-.157.1-.226.335-.382.437-.9.59-6.066.568-6.806-.013.253-.4.857-.577.789-1.193.557-.46,1.109-.128,1.648.029,1.624.474,2.782.043,3.382-1.627C587.42,666.332,587.571,665.61,588.48,665.765Z" transform="translate(6421.326 3190.347)" fill="#5692e8"/>
      <path id="Trazado_1046631" data-name="Trazado 1046631" d="M673.219,596.177c-2.443,8.138-4.9,16.271-7.311,24.419a1.92,1.92,0,0,1-2.21,1.61q-8.466-.089-16.933.045c-1.3.02-1.615-.291-1.2-1.524.847-2.543,1.615-5.111,2.415-7.668.776-.092.609.495.621.9a11.086,11.086,0,0,0-.179,2.231,2.861,2.861,0,0,0,1.476-2.36,2.71,2.71,0,0,1,2.148-2.473c1.345-.324,2.3-1.489,3.653-1.82,2.416-.827,4.1-2.738,6.121-4.151,1.321-.925,2.8-1.725,3.629-3.222a9.363,9.363,0,0,1,3.992-2,1.823,1.823,0,0,0,1.416-1.247c.147-.746-.645-.678-1.072-.887-.671-.329-.759-.913-.165-1.159a9.358,9.358,0,0,1,3.634-1.029c.016,0,.049.1.043.154A.655.655,0,0,1,673.219,596.177Z" transform="translate(6390.976 3219.429)" fill="#265265"/>
      <path id="Trazado_1046632" data-name="Trazado 1046632" d="M282.462,681.507c2.1-.036,4.2-.068,5.934-1.534a.733.733,0,0,1,1.163-.01c.112.694.623.747,1.179.737,3.6-.066,7.094.965,10.721.9,1.642-.028,2.868-1.3,4.515-.909a46.459,46.459,0,0,0,9.459.869c5.636.165,11.268.381,16.909.3,3.966-.058,7.944.209,11.9.015,3.405-.168,6.815.22,10.218-.26a24.709,24.709,0,0,1,4.02.058c2.435.06,4.917-.245,7.293.164,1.824.314,3.431-.152,5.146-.279a50.491,50.491,0,0,1,9.593.015c2.977.352,5.894-.4,8.929.2,1.872.368,4.168-.576,6.267-.965a19.122,19.122,0,0,1,3.685.105c5.767.019,11.528-.293,17.289-.387,3.554-.058,7.016-.976,10.492-.889,2.714.068,5.286-.945,7.981-.527,1.1.171,2.278-1.137,3.346.126a3.371,3.371,0,0,1,.348.669c-2.218.438-4.5,1.448-6.6,1.3-1.816-.131-3.493.41-5.292.29-3.239-.216-6.574.658-9.79.532-1.921-.076-3.841.721-5.793.012a3.266,3.266,0,0,0-2.8.323,6.374,6.374,0,0,1-1.106.318c-1.224.467-2.349-1.16-3.881.2-.866.769-2.975.147-4.523.134a30.421,30.421,0,0,0-4.426.038c-1.517.207-3.056.259-4.588.34-5.077.268-10.158-.131-15.25.379a35.933,35.933,0,0,1-10.012-.382c-.8-.146-1.733.358-2.711.371-11.267.15-22.531.215-33.8-.045-3.7-.086-7.412.144-11.118.12-1.974-.013-3.946-.337-5.922-.382-3.158-.072-6.323.081-9.476-.065-3.423-.159-6.9.6-10.249-.266-1.824-.472-3.572.85-5.192-.017C285.068,682.427,282.855,684.117,282.462,681.507Z" transform="translate(6563.09 3180.147)" fill="#5692e8"/>
      <path id="Trazado_1046633" data-name="Trazado 1046633" d="M657.948,597.007c-1.658.514-2.781,2.09-4.664,2.246-.615.051-.826.941-.943,1.589-.08.444.069.985-.133,1.342-.534.944-1.27,2.282-2.284,2.048-.986-.227.217-1.441.011-2.216-.162-.609.713-1.2,0-1.8a1.546,1.546,0,0,1,.371-1.239,5.587,5.587,0,0,0,.876-3.077q1.493-4.955,2.985-9.91c4.585-3.779,9.232-7.477,13.982-11.048,1.723-1.3,3.454-2.578,5.171-3.879.411-.312,1.731-.53.7-1.667-.276-.3.254-.452.578-.483a9.1,9.1,0,0,0,2.519-.151c1.539.042,1.757,1.076,1.669,2.284a27.137,27.137,0,0,1-1.581,5.814c-.654,2.165-1.35,4.316-2.028,6.473L671.5,584.45c.08.168.09.236.13.265.625.469,2-.4,2.045.868a2.456,2.456,0,0,1-2.252,2.326,10.106,10.106,0,0,0-3.8,1.769c-.959.047-1.3-.757-1.8-1.324-1.174-1.317-2.269-2.7-3.437-4.142-1.085,3.3-2.029,6.587-3.015,9.866C659.053,595.118,658.967,596.3,657.948,597.007Z" transform="translate(6389.012 3232.271)" fill="#305e70"/>
      <path id="Trazado_1046634" data-name="Trazado 1046634" d="M88.632,509.337c-1.24,1.138-2.659,2.071-3.528,3.609-.716,1.267-1.548.671-2.116-.19-1.022-1.551-.684-3.334-.459-4.978a32.427,32.427,0,0,0,.188-8.388c-.939,1.081-.577,2.34-.82,3.46-.386,1.778-.708,3.569-1.067,5.354-.061.3-.076.734-.273.87-.421.289-.7-.157-.966-.418-1.6-1.579-2.405-3.719-3.828-5.441a37.881,37.881,0,0,1-4.256-5.852c-.942-1.733-2.55-2.649-3.761-4.021-1.377-1.56-2.925-2.969-4.378-4.464-1.165-1.2-2.3-2.426-3.447-3.641,3.21-.467,6.29.279,9.367,1.024,4.86,1.176,8.734,4.018,12.326,7.331,1.5.641,2.126,2.093,2.96,3.314a28.085,28.085,0,0,1,4.344,10.251C89.071,507.892,89.423,508.7,88.632,509.337Z" transform="translate(6668.627 3271.951)" fill="#60a9ab"/>
      <path id="Trazado_1046635" data-name="Trazado 1046635" d="M107.849,510.937c-.4-5.148-2.54-9.6-5.514-13.711-.494-.683-1-1.357-1.5-2.035a31,31,0,0,1-.383-6.72,27.8,27.8,0,0,1,9.5,1.864,1.976,1.976,0,0,1,1.169,2.079c1.852,2.606,1.873,5.556,1.844,8.605-.09,9.55-.021,19.1-.036,28.653a3.4,3.4,0,0,1-.389,2.406l-4.578-8.177c-1.736-2.232-.659-4.615-.3-6.921A26.051,26.051,0,0,0,107.849,510.937Z" transform="translate(6649.41 3270.351)" fill="#edf3fc"/>
      <path id="Trazado_1046636" data-name="Trazado 1046636" d="M86.472,663.285c1.423.763,2.961.134,4.421.373.528.086,1.539-.615,1.445.9-.021.328,1.579,1.069,2.524.333.245-.19.551-.636.72-.422,1.409,1.792,3.63.117,5.226,1.3.782.579,1.93.085,2.893.237,2.213.349,4.578-.526,6.668.864.484.322.823-.241,1.209-.437.868-.443,1.623-.689,2.452.221.878.965,2.339.869,3.4.89a75.75,75.75,0,0,1,10.475.662,128.676,128.676,0,0,0,13.311,1.369c5.824.32,11.629,1.154,17.452,1.28,3.333.072,6.681.169,10,.367,2.016.12,3.963,1.07,6.121.883,2.5-.216,5.023-.151,7.536-.207a1.13,1.13,0,0,1,1.046.412c.132,1.169-.289,1.523-1.548,1.554-4.245.1-8.381-.982-12.676-.871-2.1.054-4.6.626-6.785-.48-.739-.374-1.21.587-1.983.59a11.872,11.872,0,0,1-5.32-.705,3.457,3.457,0,0,0-2.4-.23,21.653,21.653,0,0,1-9.728-.474c-2.629-.743-5.034.732-7.536-.3-.878-.362-1.917-.311-2.479-1.3-.372.441.4,1.942-1.208.893a5.415,5.415,0,0,0-3.823-.671c-1.048.25-.785-.145-1.089-.674-.581-1.013-.931.589-1.932.305-1.511-.427-3.244.612-4.972-.641-.941-.682-2.512-.005-3.758.361-.691.2-1.412.639-1.69-.508a1.767,1.767,0,0,0-.251-.431c-1.571,1.562-3.331-.822-4.929.235-.764.505-1.363-.257-1.967-.425-.9-.251-1.6-.767-2.376.18-.22.267-.827.534-.991.047-.453-1.349-1.5-1.04-2.42-.967a4.537,4.537,0,0,1-3.8-1.27,1.108,1.108,0,0,0-1.252-.352c-2.687,1.265-5.13.09-7.654-.659a8.426,8.426,0,0,0-2.672.084c-.32.017-.747.2-.942.054a7.965,7.965,0,0,0-4.773-1.637c-.938-.055-1.054.91-1.8,1.064-.271-.336.848-1.34-.662-1.175-1.225.135-1.911-1.838-3.457-1.295a5.045,5.045,0,0,1-.206-.921c-.03-.832.708-.963,1.222-1.013,2.466-.237,4.856-1,7.354-1.01.691,0,1.462.252,2.043-.39C85.631,660.533,85.2,662.242,86.472,663.285Z" transform="translate(6661.816 3189.346)" fill="#5692e8"/>
      <path id="Trazado_1046637" data-name="Trazado 1046637" d="M102.429,472.838a4.374,4.374,0,0,0-4.285-2.4c-2.213.067-4.208-1.2-6.383-1.546-4.879-3.447-8.223-7.95-9.267-13.916a27.668,27.668,0,0,1-.186-7.754c1.2-.243,1.677.779,2.305,1.406A115.746,115.746,0,0,1,95.03,459.783a2.757,2.757,0,0,0,1.43,1.167c.509-.589.363-1.473.779-2.108.172-.263.305-.638.714-.532.362.094.448.448.481.772.108,1.052-.35,2.059-.267,3.111.046.574-.094,1.263.539,1.571.721.351,1.241-.155,1.691-.639.563-.605,1.023-1.581,1.931-.375a2.79,2.79,0,0,1,.489,1.658,27.805,27.805,0,0,0,.012,7.99Z" transform="translate(6658.099 3289.927)" fill="#4c8c95"/>
      <path id="Trazado_1046638" data-name="Trazado 1046638" d="M660.1,620.357c-5.379.026-10.759.108-16.138.055-2.531-.025-3.847-1.8-4.815-3.888,1.971,1.3,4.185,1.187,6.4,1.161,3.411-.04,6.822-.007,10.233-.012,4.085-.005,5.739-1.129,7.345-4.9,2.313-5.427,3.626-11.18,5.429-16.772,2.321-7.2,4.4-14.477,6.617-21.713a14.772,14.772,0,0,0,.99-5.171c-.017-.307-.106-.688.271-.862s.6.141.835.348a3.247,3.247,0,0,1,1.138,3.534c-1.939,6.569-3.941,13.12-5.881,19.69-1.2,4.061-2.812,8-3.569,12.191a8.52,8.52,0,0,1-.666,3.585c-.766,2.42-1.659,4.794-2.466,7.2A7.768,7.768,0,0,1,660.1,620.357Z" transform="translate(6393.937 3232.534)" fill="#b4d9da"/>
      <path id="Trazado_1046639" data-name="Trazado 1046639" d="M681.309,568.764c-.8.7-1.77.243-2.843.475.826.264,1.32.474.5,1.275a64.976,64.976,0,0,1-6.225,4.746c-3.836,2.927-7.6,5.938-11.394,8.921a9.151,9.151,0,0,1-2.985,1.81q2.03-6.737,4.062-13.474c1-3.3,1.572-3.735,4.976-3.741Q674.352,568.764,681.309,568.764Z" transform="translate(6384.826 3232.271)" fill="#537c88"/>
      <path id="Trazado_1046640" data-name="Trazado 1046640" d="M114.824,464.392a8.533,8.533,0,0,1-.607-6.537,6.957,6.957,0,0,0-.286-3.253c-.974-2.33-2.428-4.482-2.627-7.1a3.112,3.112,0,0,0-.345-3.22c-.764-1.261-.871-2.921-1.263-4.407-.1-.376-.068-.915-.311-1.106-2.246-1.757-.924-4.5-1.883-6.6-.33-.722.365-1.042.578-1.552,2.191-.721,4.207-.122,6.176.822a6.823,6.823,0,0,1,1.86,5.369c-.095,7.995-.075,15.991-.061,23.986,0,1.753.16,3.505.272,5.8C115.636,465.588,115.23,464.99,114.824,464.392Z" transform="translate(6646.104 3297.933)" fill="#edf3fc"/>
      <path id="Trazado_1046641" data-name="Trazado 1046641" d="M107.346,416.437c-2.1.046-4.111-.593-6.176-.822-7.193-3.319-8.649-9.5-8.269-16.591a.757.757,0,0,1,.793-.346c2.43,1.814,4.174,4.284,6.167,6.51.953,1.064,1.521,1.479,1.871-.342.09-.466.267-1.2.919-1.037.585.148.494.842.417,1.357a7.308,7.308,0,0,0-.162,2.332c.121.705.238,1.564,1.157,1.555.747-.007,1.075-.712,1.137-1.39.152-1.659.7-1.459,1.506-.373a9.006,9.006,0,0,1,.829,4.769,16.651,16.651,0,0,0,.374,4.277Z" transform="translate(6653.013 3312.943)" fill="#4b8b95"/>
      <path id="Trazado_1046642" data-name="Trazado 1046642" d="M99.476,455.208c1.075,2.292,2.327,4.519,2.627,7.1-1.046-.5-.675.64-1.049.933-.737.575-1.444,1.229-2.438.934-1.013-.3-.8-1.245-.769-1.993.06-1.271.217-2.537.383-4.345-.35.789-.462,1.082-.607,1.359-.4.768.166,2.264-.885,2.3-.91.034-1.6-1.217-2.239-2.026a104.3,104.3,0,0,0-12.026-12.548c1.412-.834,2.795-.033,4.141.175A19.279,19.279,0,0,1,99.476,455.208Z" transform="translate(6657.932 3290.229)" fill="#5ea5a9"/>
      <path id="Trazado_1046643" data-name="Trazado 1046643" d="M84.653,604.728c.087-.506.31-.824.9-.824q20.208-.006,40.416-.025c.457,0,.927-.031,1.257.388a1.874,1.874,0,0,1-.394,2.369c-9.077-1.081-18.151.516-27.232.016-4.309-.237-8.641.247-12.945-.272-.573-.069-1,.274-1.52.245C84.571,606.093,84.7,605.389,84.653,604.728Z" transform="translate(6656.899 3215.618)" fill="#427c8c"/>
      <path id="Trazado_1046644" data-name="Trazado 1046644" d="M640.183,532.8a21.154,21.154,0,0,1-5.622-3.267,9.27,9.27,0,0,1-1.434-1.33c-1.291-1.6-1.289-3.449-.054-4.363,1.252-.927,3.679-.395,4.705,1.07a26.324,26.324,0,0,1,2.623,5.905,25.146,25.146,0,0,0-.085-4.894c-.346-2.984,1.132-5.033,3.757-5.412,2.206,1.237,2.91,2.886,2.025,5.152A13.939,13.939,0,0,1,640.183,532.8Z" transform="translate(6397.253 3255.153)" fill="#5b97a0"/>
      <path id="Trazado_1046645" data-name="Trazado 1046645" d="M679,652.661c.009-.128-.012-.356.031-.369,4.016-1.188,5.065-4.632,6.17-8.053.855-2.648,1.769-5.276,2.657-7.914,1.513,4.006,2.058,8.266,3.241,12.359.161.56.313,1.122.468,1.683.374,2.286.374,2.3-2.028,2.3C686.023,652.679,682.51,652.666,679,652.661Z" transform="translate(6375.038 3200.23)" fill="#235465"/>
      <path id="Trazado_1046646" data-name="Trazado 1046646" d="M153.581,113.3c-1.669-2.642-3.311-5.3-4.74-8.084-.413-.806-.349-1.27.486-1.719,2.414-1.3,4.795-2.656,7.184-4,.788-.443,1.387-.529,1.867.485.805,1.7,1.73,3.353,2.6,5.025a1.5,1.5,0,0,1-1.069.76c-1.886-2.774-1.886-2.774-5-1.076-3.63,1.979-3.631,1.979-1.555,5.611.484.847.979,1.687,1.469,2.531C154.47,113.146,153.981,113.1,153.581,113.3Z" transform="translate(6626.576 3454.965)" fill="#569b9f"/>
      <path id="Trazado_1046647" data-name="Trazado 1046647" d="M660.81,519.362c.624-1.884-.063-3.607.034-5.355a5.322,5.322,0,0,1,2.526-4.16,2.659,2.659,0,0,1,2.965-.2,2.69,2.69,0,0,1,1.191,2.717c-.252,3.152-2.429,4.9-4.841,6.432A2.722,2.722,0,0,1,660.81,519.362Z" transform="translate(6383.663 3260.479)" fill="#55979f"/>
      <path id="Trazado_1046648" data-name="Trazado 1046648" d="M170.125,111.017a1.106,1.106,0,0,1,1.069-.76,25.215,25.215,0,0,0,3.223,5.312c1.368,1.529,1.424,3.225.022,4.227-1.165.832-2.422,1.09-3.5-.189-1.181-1.4-.851-2.747.962-4.112.156-.118.311-.238.465-.356Z" transform="translate(6616.365 3449.712)" fill="#31767e"/>
      <path id="Trazado_1046649" data-name="Trazado 1046649" d="M157.2,125.5c.088-1.028.807-.37,1.244-.465,1.418.462,3.255.356,3.154,2.7a2.625,2.625,0,0,1-1.666,2.606,2.59,2.59,0,0,1-3.08-.517,2.354,2.354,0,0,1-.129-3.069A1.924,1.924,0,0,0,157.2,125.5Z" transform="translate(6622.96 3442.762)" fill="#34727b"/>
      <path id="Trazado_1046650" data-name="Trazado 1046650" d="M657.092,654.628c-1.08.02-1.645-.511-1.486-1.561a2.191,2.191,0,0,1,2.4-2.044c1.062,0,1.628.486,1.487,1.546A2.27,2.27,0,0,1,657.092,654.628Z" transform="translate(6386.144 3193.26)" fill="#b6d8dd"/>
      <path id="Trazado_1046651" data-name="Trazado 1046651" d="M59.525,485.434q0,5.767.009,11.533A42.633,42.633,0,0,1,59.525,485.434Z" transform="translate(6669 3271.789)" fill="#60a9ab"/>
      <path id="Trazado_1046652" data-name="Trazado 1046652" d="M620.2,463.456c-.63-.21-1.76.368-1.758-.624,0-.976,1.116-.525,1.744-.565.661-.042,1.772-.238,1.749.635C621.908,463.86,620.78,463.208,620.2,463.456Z" transform="translate(6403.756 3282.808)" fill="#faefe8"/>
      <path id="Trazado_1046653" data-name="Trazado 1046653" d="M651.89,620.378c.55,1.315-.233,2.395-.626,3.543-.05-.031-.127-.05-.145-.094a3.075,3.075,0,0,1-.105-.372A10.48,10.48,0,0,1,651.89,620.378Z" transform="translate(6388.309 3207.793)" fill="#265265"/>
      <path id="Trazado_1046654" data-name="Trazado 1046654" d="M631.877,469.463c-.69-.215-1.384.472-2.279.23C630.4,468.726,631.147,469.151,631.877,469.463Z" transform="translate(6398.465 3279.537)" fill="#faefe8"/>
      <path id="Trazado_1046655" data-name="Trazado 1046655" d="M470.115,366.219c-.875.972-2.14,1.627-2.3,3.176a.934.934,0,0,1-1.217.7c-.767-.331-.18-.968-.015-1.317a23.468,23.468,0,0,1,1.525-2.461c-.09-1.02.6-1.691,1.1-2.449a207.625,207.625,0,0,0,10.7-18.086,1,1,0,0,0,.177-.774c-.4-.43-.959-.219-1.448-.22q-11.7-.018-23.392-.006c-2.669,0-2.593.028-2.472,2.607.138,2.933-.425,5.674-3.257,7.288a7.978,7.978,0,0,1-8.912-.272c-3.1-2.071-3.333-6.439-.63-9.658-4.424.064-8.854.027-13.283.022a4,4,0,0,1-1.92-.33,1.394,1.394,0,0,1-.665-1.146c.386-1.568,1.709-1.211,2.734-1.219,6.3-.054,12.6-.022,18.9-.027,2.886,0,2.886-.006,2.874-2.935-.008-1.838-.015-3.675,0-5.512.009-1.24-.554-1.8-1.782-1.784a18.91,18.91,0,0,1-2.361-.021c-2.139-.238-3.513.365-4.328,2.625-.892,2.472-4.213,4.269-6.722,3.948-2.867-.366-5.125-1.736-5.971-4.675a2.23,2.23,0,0,0-2.524-1.893c-1.376.047-2.756.037-4.133-.009-.916-.032-1.864-.024-2.476-.91a1.307,1.307,0,0,1-.02-1.045c.514-.768,1.333-.754,2.112-.791a36.005,36.005,0,0,1,3.737-.011,6.289,6.289,0,0,0,5.467-1.942c1.823-1.953,4.392-1.954,6.82-1.321,1.446.377,1.554-.218,1.524-1.321-.037-1.376.017-2.755-.018-4.131-.053-2.034-.238-2.242-2.3-2.253-5.706-.031-11.412-.007-17.118-.013a14.4,14.4,0,0,1-2.356-.094c-.738-.123-1.465-.324-1.494-1.259-.033-1.058.762-1.261,1.574-1.386a14.187,14.187,0,0,1,2.161-.079c5.64,0,11.281.008,16.921-.006,2.468-.006,2.593-.133,2.616-2.512q.031-3.147,0-6.3c-.027-2.356-.193-2.533-2.626-2.539-7.8-.019-15.609,0-23.414-.01a15.128,15.128,0,0,1-2.75-.109c-1.053-.4-2.322-.658-1.569-2.294a5.816,5.816,0,0,1,3.074-.421c8.127-.014,16.254,0,24.382-.012,2.776,0,2.874-.117,2.891-2.868.009-1.507.025-3.015-.005-4.522-.043-2.129-.224-2.337-2.414-2.347-6.947-.031-13.895,0-20.842-.019a37.207,37.207,0,0,1-6.67-.233c-.822-.151-1.722-.167-2.283-.963-.282-.945.185-1.47,1.005-1.8,7.2.264,14.4.116,21.6.148,2.49.011,4.981-.046,7.469.016,1.622.04,2.223-.645,2.16-2.226-.075-1.9.008-3.8-.025-5.7-.035-2.01-.223-2.216-2.308-2.226-6.618-.033-13.236.014-19.853-.035-1.111-.008-2.438.331-3.092-1.09-.034-.532-.029-1.041.662-1.157q23.134.033,46.268.063c9.385.008,18.771-.051,28.155.022,1.674.013,2.114-.5,2.064-2.111-.112-3.606.013-7.219-.061-10.828-.029-1.449.488-1.988,1.841-1.5,3.01,1.082,6.05,2.105,8.983,3.372a10.22,10.22,0,0,1,6.2,6.435c.112.367.42.753.149,1.109-.393.517-.87.06-1.243-.072-3.934-1.394-7.87-2.789-11.768-4.279-1.238-.473-1.474-.1-1.438,1.056.055,1.77.046,3.545-.022,5.315-.043,1.1.356,1.508,1.472,1.491,3.084-.047,6.169,0,9.253,0q17.621.006,35.243.007c.459,0,.92-.009,1.377.023a.683.683,0,0,1,.7.768.671.671,0,0,1-.732.73c-.853.026-1.706.043-2.559.043-14.308,0-28.615.027-42.922-.058-1.8-.01-2.246.528-2.15,2.223.139,2.486.082,4.987.02,7.479-.032,1.257.405,1.764,1.7,1.758q13.389-.06,26.777-.019c1.192,0,1.43-.5,1.4-1.538-.053-2.23.011-4.463-.037-6.693-.029-1.338.309-1.883,1.695-1.165,3.6,1.866,7.34,3.48,10.766,5.673a7.925,7.925,0,0,1,1.847,1.755c.885,1.111,1.777,2.108,3.373,1.991a.668.668,0,0,1,.771.46c.084.283-.014.626-.266.641-1.6.1-1.027,1.091-.869,1.957a7.036,7.036,0,0,1,.066,1.374c-.006.373.088.837-.412.985a.755.755,0,0,1-.92-.555c-1.318-3.552-4.229-3.493-7.256-3.3a31.062,31.062,0,0,1-4.329-.009c-1.493-.113-2.128.3-2.031,1.938a71.134,71.134,0,0,1,.016,7.281c-.063,1.454.368,1.961,1.871,1.909a122.428,122.428,0,0,1,12.576.281c.568.039,1.547-.324,1.508.684-.032.824-.93.518-1.453.523-4.135.038-8.271.108-12.4.011-1.684-.039-2.135.566-2.1,2.164.067,3.063.738,6.129.008,9.2-.281,1.18.531,1.231,1.406,1.229,3.938-.009,7.875.012,11.813.021a13.19,13.19,0,0,1,1.377.011c.579.063,1.494-.294,1.428.793-.06,1-.932.734-1.529.738q-6.4.032-12.8.007a10.828,10.828,0,0,0-6.017,1.237c-2.22,1.331-4.7.948-6.876-.508a4.017,4.017,0,0,0-2.37-.746c-6.432.031-12.864.053-19.295.008-1.3-.009-1.891.256-1.834,1.723.115,2.949.089,5.906.03,8.859-.024,1.222.268,1.745,1.634,1.736,9.647-.066,19.295-.063,28.943-.058a3.274,3.274,0,0,0,2.318-.815c2.124-1.828,4.232-2.01,6.395-.347a5.745,5.745,0,0,0,3.986,1.188c1.7-.062,3.414-.066,5.118,0,.816.034,2.21-.5,2.2.853-.007,1.259-1.354.634-2.071.657-14.417.463-28.836-.167-43.254.027-1.247.017-2.5.067-3.74-.013s-1.582.439-1.55,1.612c.068,2.492.555,5.145-.118,7.442-.883,3.013.772,2.38,2.366,2.379q22.938-.012,45.876.027c.848,0,2.456-.6,2.444.648-.014,1.463-1.672.793-2.582.8q-24.513.083-49.026.052c-1.862,0-3.581.741-5.414.839-.457.024-.656.395-.842.741A229.709,229.709,0,0,1,470.115,366.219Z" transform="translate(6504.68 3377.994)" fill="#f8fbfc"/>
      <path id="Trazado_1046656" data-name="Trazado 1046656" d="M361.765,131.23c5.823,5.94,7.633,13.3,7.024,21.273a27.83,27.83,0,0,1-5.728,15c-.818.823-1.2.185-1.613-.461-1-1.569-1.086-3.467-1.857-5.117a3.093,3.093,0,0,1,.006-1.738c1.114-5.759-.342-11.257-1.622-17.15-5.578,6.4-12.733,9.33-20.423,11.267a42.672,42.672,0,0,1-13.945,1,1.322,1.322,0,0,1-.936-.656c-.91-2.5-2.842-4.327-4.212-6.523-.055-3.3,1.473-6.129,3-8.822A27.833,27.833,0,0,1,341.2,125.063a28.327,28.327,0,0,1,10.547.28,24.069,24.069,0,0,1,7.629,3.36A8.508,8.508,0,0,1,361.765,131.23Z" transform="translate(6546.02 3442.869)" fill="#295463"/>
      <path id="Trazado_1046657" data-name="Trazado 1046657" d="M345.02,126.376a23.215,23.215,0,0,0-9.884-5.4,6.928,6.928,0,0,0-3.526-.851A27.682,27.682,0,0,0,303.23,136.47c-.521,1.13-1.146,2.206-1.607,3.373a3.165,3.165,0,0,0,.408,3.487,15.58,15.58,0,0,1,4.453,6.757c1.227,1.694.92,3.654.848,5.523-.243,6.3-4.209,11.366-9.865,12.751a11.24,11.24,0,0,1-1.283-.023c-3.951-.069-3.9-.074-3.488,3.821a42.072,42.072,0,0,1,.532,5.816,7.611,7.611,0,0,1-.172,1.7c-.212.662-.6.961-1.259.478a4.031,4.031,0,0,1-.837-2.365,62.787,62.787,0,0,1-.82-8.6,2.822,2.822,0,0,0-1.47-2.579,11.178,11.178,0,0,1-3.717-3.722,3.354,3.354,0,0,1-.7-2.191,18.021,18.021,0,0,1,.075-12.646,10.232,10.232,0,0,1,8.029-6.728c1.222-.22,1.213-1.008,1.438-1.744a39.361,39.361,0,0,1,7.737-14.623A28.928,28.928,0,0,1,326.014,114.5a22.854,22.854,0,0,1,11.112,3.325C340.358,120.118,343.495,122.5,345.02,126.376Z" transform="translate(6562.765 3447.723)" fill="#fbfdfc"/>
      <path id="Trazado_1046658" data-name="Trazado 1046658" d="M388.08,195.6c.709.058.752.563.794,1.117a14.6,14.6,0,0,0,1.288,3.832c.213.586.535.864,1.161.583-2.088,2.408-1.5,4.555.257,6.97a81.6,81.6,0,0,1,6.81,10.535,31.2,31.2,0,0,1,2.078,25.188,9,9,0,0,0-.215.949l-.4.8a7.218,7.218,0,0,1-1.127,3.434c-1.719,2.793-2.7,6.047-5.183,8.365-.5.213-.621.712-.841,1.136-.469,1.327-.444,3.009-2.366,3.294a3.989,3.989,0,0,1-1.033-2.077c-.871-2.979-2.536-5.581-3.894-8.333a2.493,2.493,0,0,1,.012-.975,82.26,82.26,0,0,0,1.232-20.373,43.643,43.643,0,0,0-1.946-11.407,34.329,34.329,0,0,1-.965-3.812,7.013,7.013,0,0,1,.6-3.23,11.807,11.807,0,0,0,.8-3.212c.031-1.039.325-2.177-.1-3.094-.511-1.09-1.759-.345-2.659-.57a10.5,10.5,0,0,1-3.975-2.4,1.275,1.275,0,0,1-.344-.47c-.053-1.12.627-1.317,1.525-1.159a5.716,5.716,0,0,1,1.244.564c2.421,1.072,3.719.612,4.944-1.749a12.529,12.529,0,0,0,1.055-2.523,2.16,2.16,0,0,1,.982-1.328Z" transform="translate(6517.757 3409.241)" fill="#1c4657"/>
      <path id="Trazado_1046659" data-name="Trazado 1046659" d="M485.142,200.276c0-2.2.068-4.282-.013-6.356-.215-5.495-.5-10.986-.745-16.479-.138-3.14-.21-6.283-.376-9.421a2.128,2.128,0,0,1,1.328-2.283c5.418-2.925,10.778-5.96,16.158-8.955.56-.312,1.122-.951,1.764-.646.814.387.411,1.29.421,1.958.056,3.675.025,7.352.081,11.027.079,5.243.158,10.488.346,15.728.056,1.567-.631,2-2.012,2.218-4.187.655-8.35,1.462-12.536,2.121-1.334.21-1.688.82-1.581,2.1.4,4.824.922,9.65,1.018,14.483.1,5.04-2.262,9.232-9.067,9.979-4.118.452-8.942-3.576-9.181-8-.328-6.076,5.8-10,11.1-8.561C482.906,199.469,483.94,199.873,485.142,200.276Z" transform="translate(6473.805 3427.993)" fill="#fbfcfc"/>
      <path id="Trazado_1046660" data-name="Trazado 1046660" d="M618.695,137.207a7.956,7.956,0,0,1,5.379-2.714c3.67-.257,6.392,3.759,5.43,7.307a10.467,10.467,0,0,1-4.383,6.061A40.539,40.539,0,0,1,617,152.2c-.426.169-.977.619-1.443.072-3.11-3.656-6.915-6.79-8.2-11.772-.8-3.1,1.017-6.321,2.706-7.168,2.668-1.338,4.664-.849,7.093,1.843C617.681,135.754,618.1,136.419,618.695,137.207Z" transform="translate(6409.103 3439.108)" fill="#fbfdfc"/>
      <path id="Trazado_1046661" data-name="Trazado 1046661" d="M542.673,224.054a7.421,7.421,0,0,1-7.7-7.412,7.576,7.576,0,0,1,7.415-7.56c4.621-.025,7.925,3.143,7.93,7.6C550.322,221.119,547.289,224.043,542.673,224.054Z" transform="translate(6443.34 3402.846)" fill="#fbfbfb"/>
      <path id="Trazado_1046662" data-name="Trazado 1046662" d="M616.67,207.508c-.019,3.23-2.364,5.445-5.834,5.463a5.9,5.9,0,0,1-5.719-5.945c.013-2.84,3.54-5.479,6.1-5.435A5.526,5.526,0,0,1,616.67,207.508Z" transform="translate(6410.075 3406.398)" fill="#fafcfb"/>
      <path id="Trazado_1046663" data-name="Trazado 1046663" d="M431.893,210.94a9.513,9.513,0,0,0,3.432,4.778c.32.24.671.448.656.9-.069,2.036-.279,4.016-1.771,5.622-.72.776-1.3.735-1.9-.083-.154-.211-.246-.523-.45-.632-4.074-2.183-2.434-5.021-.964-7.888A22.855,22.855,0,0,0,431.893,210.94Z" transform="translate(6493.456 3401.964)" fill="#f6f9f9"/>
      <path id="Trazado_1046664" data-name="Trazado 1046664" d="M432.224,130.565c3.168-.958,4.5-3.181,6.167-5.486a11.446,11.446,0,0,0,4.69,5.951c-2.974.989-4.713,3.012-6.583,5.287C435.747,133.967,434.859,131.951,432.224,130.565Z" transform="translate(6492.067 3442.683)" fill="#f7fafb"/>
      <path id="Trazado_1046665" data-name="Trazado 1046665" d="M365.189,455.631a16.419,16.419,0,0,1-4.465,5.1,1.953,1.953,0,0,0-.631,2.528,47.264,47.264,0,0,1,1.542,23.893c-1.038,3.416-1.555,7-3.264,10.2-1.174-.15-1.08-.939-.807-1.726a5.128,5.128,0,0,0,.619-2.136c-1.327.127-1.928,1.125-2.443,2.11a2.918,2.918,0,0,1-2.979,1.76,6.461,6.461,0,0,0-4.533,1.522c-1.366,1.13-1.87.881-2.466-1.016.4-.871.522-1.575-.837-1.329-1.861.338-3.7.861-5.56,1.114-1.922.26-3.959.965-5.771-.476-.527-.46,1.168.046.309-1-1.953-2.369-4.815-2.525-7.263-3.666-.7-.324-1.515-.388-2.075-1,.01-.968.842-.89,1.413-1.025,1.624-.383,2.975-1.366,4.5-1.957.428-.166.893-.444.757-1s-.665-.632-1.124-.552c-3.6.629-7.187.17-10.777-.109a23.05,23.05,0,0,0-8.713,1.234,10.892,10.892,0,0,1-9.081-.866,164.4,164.4,0,0,1-13.823-9.036c-9.442-6.623-18.911-13.211-28.164-20.1-1.05-.782-2.211-1.411-3.242-2.225-.557-.44-1.247-.781-1.265-1.639a8.911,8.911,0,0,1,1.555-3.1,49.332,49.332,0,0,0,4.994-9.415,2.652,2.652,0,0,1,.7-.958,45.237,45.237,0,0,0,8.361-3.511c7.615-3.677,15.627-6.372,23.37-9.723a4.087,4.087,0,0,1,3.246-.1c.636.629,0,1.039-.265,1.513-.232.416-.934.8-.343,1.311.5.427.969-.125,1.372-.415a41.4,41.4,0,0,1,3.64-2.662c.487-.276,1.1-.843,1.559-.244.439.567-.19,1.085-.6,1.468a30.65,30.65,0,0,1-3.043,2.475,33.578,33.578,0,0,0-6.08,6.365c-.323.4-.756.879-.223,1.362.425.385.861.011,1.224-.263a8.431,8.431,0,0,1,1.956-1.294c.305-.118.661-.2.894.116s.022.623-.151.892a7.678,7.678,0,0,1-1.434,1.325c-.651.6-1.716,1.234-1.03,2.226.635.919,1.533.087,2.27-.237.647-.285,1.166-.869,1.953-.83a.868.868,0,0,1,.548.606c.087.574-.959.977-.355,1.537.463.429,1.147.12,1.685-.094,3.174-1.266,6-3.215,9.072-4.681s5.96-3.3,8.982-4.874c.5-.261,1.191-.753,1.617-.225.539.669-.2,1.21-.656,1.608a51.515,51.515,0,0,1-4.7,3.558,29.96,29.96,0,0,0-4.831,4.013c-.251.268-.652.6-.364,1,.269.381.731.22,1.079.059a22.2,22.2,0,0,0,3.51-2.157c3.416-2.424,6.509-5.309,10.3-7.192a22.47,22.47,0,0,0,5.075-2.916,4.508,4.508,0,0,1,4.493-.578c2.266,2.282,4.06,4.969,6.249,7.321,5.471,5.879,9.737,12.668,14.446,19.125a154.3,154.3,0,0,0-12.18-17.314c-1.123-1.323-2.618-2.4-3.161-4.179.937-1.181,1.532.036,2.038.425,2.9,2.232,5.665,4.643,8.405,7.075q6.676,5.923,13.7,11.431C364.447,454.5,365.321,454.672,365.189,455.631Z" transform="translate(6576.091 3299.656)" fill="#f28c85"/>
      <path id="Trazado_1046666" data-name="Trazado 1046666" d="M146.491,475.761q.2-1.185.394-2.369a6.885,6.885,0,0,1,3.289-.346c1.779-.032,2.689-.751,2.6-2.622-.066-1.374.005-2.755,0-4.133-.008-2.309-.462-2.789-2.742-2.789-7.152,0-14.305-.057-21.455.082-1.838.036-2.362-.619-2.443-2.261a7.714,7.714,0,0,1,.886-4.537c.9-1.518,1.7-3.1,2.543-4.651.082-1.362,1-1.4,2.079-1.466,4.971-.3,9.769-1.268,13.837-4.383a25.319,25.319,0,0,0,10.321-20.27,55.825,55.825,0,0,0-.763-11.936c-.112-.6.045-1.379-.835-1.586-9.986,1.553-17.276,6.774-21.53,15.989a29.191,29.191,0,0,0-2.558,9.835,54.832,54.832,0,0,0,.576,9.2,3.862,3.862,0,0,1-1.613,4.116c-1.036.969-1.289,2.52-2.748,3.671,0-1.241,0-2.187,0-3.132-.007-8.5.137-17-.1-25.489-.088-3.139.625-5.56,3.077-7.478.665-.521,1.262-1.129,1.89-1.7.943-1.04,2.327-1.105,3.526-1.557a8.376,8.376,0,0,0,5.77-8.986c-.088-1.332-.605-1.533-1.754-1.13a12.968,12.968,0,0,0-6.664,5.789c-.411.653-.586,1.474-1.348,1.873-.219.606-.669,1.233-.617,1.814.249,2.781-2.147,3.979-3.2,5.948-.751-.287-.574-.817-.574-1.225,0-6.2.08-12.406,0-18.607a2.905,2.905,0,0,1,2.126-3.213c.881-.847,2.073-.719,3.132-.939,7.617-1.58,11.668-6,12.287-13.7a11.013,11.013,0,0,0-.707-5.154,14.344,14.344,0,0,0-10.763,5.362c-.213.311-.442.611-.676.906a13.61,13.61,0,0,0-2.825,6.48,32.836,32.836,0,0,0-.382,4.211c-.005.891-.04,1.824-.969,2.361-1.122,1.087-1.483.645-1.417-.7.248-5.1.34-10.211.144-15.313-.31-8.047-.056-16.092-.128-24.138,1.535-3.382,4.651-5.46,6.864-8.294,2.685-3.439,4.794-7.074,5.176-11.473.261-3.012-.093-5.912-2.782-7.964-.645-.492-1.756-.3-1.992-1.373.927.344,1.735-1.028,2.472-.421a49.04,49.04,0,0,1,3.854,3.85c.128.132.286.437.228.517-1.76,2.454,1.027,4.928-.059,7.433-.4.932-.13,2.085,1.3,1.214,1.173-.712,1.42.386,2.053.748.256,1.087-.668,2.083-.244,3.183a15.736,15.736,0,0,1-.067,4.705c-.063,6.684,2.179,12.635,5.767,18.159a2.966,2.966,0,0,1,1.3,1.934l.628.824c.468.493,1.221.742,1.328,1.546a3.627,3.627,0,0,0,1.417,1.6c.753.756,1.965,1.064,2.234,2.291a12.612,12.612,0,0,0,3.074,2.763c1.141.084,1.6.884,1.922,1.829.1,2.131-.589,4.139-1,6.189-1.136,5.657-2.557,11.269-2.742,17.077-.21,6.622,2.314,12.136,6.863,16.82.412.424.84.831,1.242,1.261a5.431,5.431,0,0,0,1.333,1.067c2.176,1.389,4.149,3.073,6.376,4.391,2.251,1.3,4.425,2.723,6.672,4.028.679.394,1.346.837,1.309,1.779a3.685,3.685,0,0,1-.532,1.463c-3.182,5.55-6.206,11.172-7.992,17.365-2.889,6.837-5.5,13.776-6.537,21.167a50.83,50.83,0,0,0,.053,12.691c-1.811.528-3.342-.289-4.844-1.081a3.9,3.9,0,0,0-2.2-.7c-3.319.338-6.3-1.049-9.4-1.821a3.6,3.6,0,0,1-3.017-3.807Q146.351,477.155,146.491,475.761Z" transform="translate(6637.237 3346.492)" fill="#edf3fc"/>
      <path id="Trazado_1046667" data-name="Trazado 1046667" d="M239.984,477.583c1.222,1.969,3.386,2.78,5.156,4.028,5.958,4.2,11.8,8.559,17.8,12.706,4.925,3.4,9.793,6.928,14.692,10.387a83.964,83.964,0,0,0,9.467,5.905,8.476,8.476,0,0,0,6.8.79,31.791,31.791,0,0,1,14.293-1.236,17.4,17.4,0,0,0,6.637-.272c.727-.184,1.622-.2,1.888.88.249,1.012-.361,1.33-1.164,1.678a33.9,33.9,0,0,1-6.307,2.475c-1.283.951-1.089,1.669.267,2.39a28.571,28.571,0,0,0,6.469,2.29c.811.206,1.711.2,2.344.882,1.747.752,3.565.457,5.33.214,1.915-.263,3.792-.793,5.688-1.2.794-.169,1.753-.642,2.258.312.5.936-.6,1.269-1.045,1.843-.779,1.092-2.039,1.492-3.111,2.162a9.69,9.69,0,0,0,1.369-.728c.657-.477,1.269-.688,1.893,0a1.6,1.6,0,0,1,.082,2,8.655,8.655,0,0,1-2.088,2.039c-.716.656-1.577,1.156-1.434,2.365a1.446,1.446,0,0,1-.778,1.294c-4.438,2.785-9.142,4.394-14.462,3.147-4.746-2.234-9.023-5.288-13.638-7.764a71.328,71.328,0,0,0-27.688-8.591c-3.149-.279-6.276-.144-9.41-.251-.545.19-.57-.122-.346-.44a1.438,1.438,0,0,1,1.252-.449,24.845,24.845,0,0,1,6.415.319c-5.512-1.443-10.394-4.4-15.563-6.687-2.083-.923-4.048-2.154-6.041-3.287-7.4-4.209-14.886-8.285-21.978-13.017-.979-.653-2.382-1.031-2.315-2.641,3.434-6.349,8.042-11.56,14.525-14.951A7.065,7.065,0,0,1,239.984,477.583Z" transform="translate(6591.423 3276.174)" fill="#fcbba1"/>
      <path id="Trazado_1046668" data-name="Trazado 1046668" d="M213.6,546.607c-.511-2.4.886-4.31,1.734-6.32A129.582,129.582,0,0,1,221.8,527.7c.685-.958,1.411-.379,2.043.015,7.727,4.819,16.044,8.478,24.242,12.371.771.366,1.589.6,2.381.9.419.16,1.107.185.866.974A57.114,57.114,0,0,0,239.5,544.94a47.012,47.012,0,0,0-7.776,3.552c-2.454,1.547-4.925,1.4-7.519,1.057A40.286,40.286,0,0,1,213.6,546.607Z" transform="translate(6595.799 3251.99)" fill="#cb6361"/>
      <path id="Trazado_1046669" data-name="Trazado 1046669" d="M160.728,614.428a4.829,4.829,0,0,0,3.9,3.559c3.1.675,6.093,2,9.37,1.513,1.129-.166,1.379,1.069,2.313,1.254,1.315.26,2.593.715,3.886,1.086a26.583,26.583,0,0,0,6.052,13.37c-.106.374.213.958-.587.975-.707.015-1.415.26-2.116.235-6.8-.243-13.585.428-20.383.464-2.138.012-4.277.476-6.439.333q1.244-7.185,2.49-14.37C159.7,620.039,160.221,617.234,160.728,614.428Z" transform="translate(6622.722 3210.615)" fill="#edf3fc"/>
      <path id="Trazado_1046670" data-name="Trazado 1046670" d="M251.661,531.084c-3.439-1.538-6.918-2.994-10.308-4.634-5.865-2.838-11.8-5.546-17.29-9.106-.6-.392-1.131-.933-1.935-.521-.985-1.679-2.906-2.069-4.34-3.131-1.142-.846-2.394-1.543-3.6-2.306,1.3-2.58,2.59-5.166,4.782-7.149-.164.909.509,1.291,1.112,1.656,4.386,2.656,8.692,5.432,13.147,7.992,5.013,2.88,10.015,5.8,15.114,8.509a124.783,124.783,0,0,0,15.566,7.107,2.227,2.227,0,0,1,1.111.74q-3.808,0-7.617,0c-.055,0-.152.039-.157.072a1.68,1.68,0,0,0,0,.325C255.431,531.324,253.516,530.825,251.661,531.084Z" transform="translate(6595.466 3262.872)" fill="#fa9f83"/>
      <path id="Trazado_1046671" data-name="Trazado 1046671" d="M289.147,669.086l-1.163.011-3.18-.007c-.961.438-1.49-.111-1.938-.846-.288-1.368-1.35-2.489-1.268-3.975.767-3.524,3.44-5.036,6.494-6.136a18.173,18.173,0,0,0,2.59-.891c4.958-2.707,9.846-1.172,14.758.128,5.362,1.419,10.84,2.253,16.3,3.187-4.044,2.3-8.62,2.931-13.016,4.107-4.8,1.284-9.64,2.422-14.463,3.623-.958.645-2.164.234-3.154.742Z" transform="translate(6563.501 3191.023)" fill="#fa9d85"/>
      <path id="Trazado_1046672" data-name="Trazado 1046672" d="M543.287,667.986c-.228.219-.564.4-.667.664-1.221,3.16-1.891,3.459-5.07,2.206a3.428,3.428,0,0,0-.564-.121c-2.562-1.579-5.357-1.9-8.334-2-10.589-.352-21.185-.154-31.766-.484-3.594-.112-7.216.453-10.792-.252q.6-1.579,1.2-3.158c1.238-.179.826-1.166.842-1.862.025-1.075.333-1.3,1.441-1.034,9.861,2.329,19.908,1.819,29.9,1.628,5.409-.1,10.851-.29,16.233-.814,2.864-.279,5.195.62,7.682,1.477.3.1.747.054.607.51-.182.592-.552.268-.916.1-.711-.321-1.464-.547-2.177-.863a2.15,2.15,0,0,0-2.4.157.678.678,0,0,0-.091,1.045c.69.685.651,2.118,2.119,2.02A3.841,3.841,0,0,1,543.287,667.986Z" transform="translate(6466.52 3188.126)" fill="#fb9d88"/>
      <path id="Trazado_1046673" data-name="Trazado 1046673" d="M392.591,570.226a26.718,26.718,0,0,0,11.649-2.045c.9-.411,1.7-.956,2.546-1.445.265-.154.662-.545.612-.711-.772-2.568,1.886-2.735,2.862-4.053a4.188,4.188,0,0,0,.948-1.39,1,1,0,0,0-.423-1.181c-.391-.31-.693-.113-1.059.092a7.908,7.908,0,0,1-3.212,1.156l4.605-2.708c.713.951,1.154,1.437,2.271.106s3.06-1.627,4.83-1.435a1.755,1.755,0,0,0,2.107-1.2,17.806,17.806,0,0,1,1.463-2.063,1.261,1.261,0,0,1,1.834-.421,1.286,1.286,0,0,1,.06,1.909c-.693.664-1.209,1.48-.085,2.279-1.889,5.706-5.381,10.409-9.414,14.725a36.3,36.3,0,0,1-7.137,6.12c-.609.382-1.076.714-1.755.3q-6.179-3.782-12.354-7.571C392.786,570.6,392.706,570.384,392.591,570.226Z" transform="translate(6510.863 3239.893)" fill="#e57874"/>
      <path id="Trazado_1046674" data-name="Trazado 1046674" d="M442.056,418.691h16.218c-.573.755-1.034,1.3-1.429,1.893a5.873,5.873,0,0,0,3.965,9.187c5.591.957,9.354-2.76,8.495-8.391-.388-2.538-.288-2.663,2.3-2.664,8.912,0,17.824,0,26.99,0A182.881,182.881,0,0,1,485.3,440.869l-30.683.011a8.746,8.746,0,0,1-1.475-2.733c-1.066-2.527-3.069-4.364-4.508-6.606-.607-2.257-2.238-3.954-3.285-5.973-.9-1.736-1.982-3.381-2.891-5.116C442.179,419.922,441.562,419.417,442.056,418.691Z" transform="translate(6487.492 3303.441)" fill="#5692e8"/>
      <path id="Trazado_1046675" data-name="Trazado 1046675" d="M424.083,424.564a35.493,35.493,0,0,1,4.743,6.768,5.889,5.889,0,0,1,.829,2.739c1.115,2.484.73,5.114.709,7.7a4.663,4.663,0,0,1-1.536,3.27c-4.942-3.411-9.385-7.461-13.973-11.3-3.531-2.953-6.921-6.105-10.5-9.028-.245-.2-.47-.5-.808-.132-.96.113-1.344-.65-1.847-1.222a37.855,37.855,0,0,1-4.624-7,46.515,46.515,0,0,0-6.74-9.325c-.6-.648-1.672-1.259-.731-2.421,1.339-.544,2.655-.155,3.974.088a55.236,55.236,0,0,1,14.924,6.79,114.507,114.507,0,0,1,10.309,7.133A17.836,17.836,0,0,1,424.083,424.564Z" transform="translate(6512.453 3310.249)" fill="#fcbba0"/>
      <path id="Trazado_1046676" data-name="Trazado 1046676" d="M543.371,514.309c-.014-1.5-.706-2.943-.4-4.46.177-.882.309-1.941,1.574-1.843,1.129.087,1.441.964,1.527,1.947.225,2.57-1.647,4.281-2.654,6.337-.254.519-.985.178-1.454.007a5.082,5.082,0,0,1-2.63-1.593,1.286,1.286,0,0,1,1.772-.079A1.631,1.631,0,0,0,543.371,514.309Z" transform="translate(6441.272 3261.087)" fill="#61979c"/>
      <path id="Trazado_1046677" data-name="Trazado 1046677" d="M542.2,516.8c-.07,1.619-1.115,1.594-2.082,1.006a2.918,2.918,0,0,0-1.955-.61,2.543,2.543,0,0,1-1.084-1.318,1.923,1.923,0,0,1,.362-2.319c.729-.6,1.464-.2,2.16.187C540.856,514.437,541.4,515.731,542.2,516.8Z" transform="translate(6442.444 3258.595)" fill="#599a9b"/>
      <path id="Trazado_1046678" data-name="Trazado 1046678" d="M174.835,200.369a1.259,1.259,0,0,1-.827.653c-.605-.037-1.186-.038-1.192.808l-4.694,3.577c-.813.251-1.583.55-1.738,1.542-6.7,6.111-9.964,14.05-12.081,22.623-1.178,4.769-2.476,9.511-5.527,13.524-.618.831-.908,1.932-1.97,2.4l-.829.838c-.927-1.842-1.662.231-2.593.1-.429-.951-.841-1.979-1.353-2.955-.3-.574-.739-1.181-1.53-.962-.821.228-.863.984-.709,1.618.259,1.067-.111,1.409-1.151,1.444-1.387.047-2.722,1.4-4.187.076-.248-.224-.789.178-.87.585-.177.887-.422,1.833.3,2.6.348.373.928.514,1.129,1.051.223.594.89,1.116.593,1.791-.4.914-1.147.231-1.726.176-2-.19-3.756,1.024-5.789.83-2.327-.222-4.65.013-6.985-.715-2.432-.757-3.124-.151-3.814,2.369-.247.9-.7,1.049-1.591.884-2.915-.538-3.179-.28-3.081,2.757a6.158,6.158,0,0,1-2.435-1.818c-1.357-1.718-3.111-1.453-3.927.6-.639,1.608-1.985.546-2.97.83-.06.017-.32-.3-.3-.432.052-.365.381-.475.706-.579.483-.154,1.166-.209,1.189-.828.026-.695-.635-.723-1.161-.742-.622-.023-1.049-.259-.952-.936.095-.657.286-1.363,1.116-1.4,1.384-.058,1.931-.747,2.037-2.1.11-1.4,1.6-1.986,2.139-3.35.689-1.737.615-3.63,1.413-5.2a16.842,16.842,0,0,1,3.6-5.009c1.522-1.345,3.412-.3,5.053.463.283.132.746.395.583.679-.5.865-.443,1.739.556,1.748,1.693.015,3.451,1.257,5.1-.122a1.168,1.168,0,0,0,.35-1.254.959.959,0,0,0-1.165-.815c-2.313.676-3.484-2.047-5.631-1.845-.133.013-.512-.58-.447-.787.513-1.626-.365-3.057-.55-4.579a1.777,1.777,0,0,1,1.011-2.129c1.077-.4,1.377.565,1.61,1.269.465,1.408,1.248,1.349,2.21.6.547-.426,1.324-.608,1.708-1.637-2.765-.143-4.258-1.989-5.625-3.992a3.085,3.085,0,0,1,1.029-3.479c.371,1.341.321,2.779,1.387,3.937,1.445,1.571,2.042,1.559,3.017-.369a.97.97,0,0,1,.394-.419c1.1.249,2.363,1.714,3.117-.442,1.506.516.376,2.105,1.233,2.957,1.383-.533,1.058-2.638,2.647-2.978.746,1.823,1.6.09,2.4.069.588.975-.267,1.548-.654,2.226-.476.834-1.21,1.5-1.8,2.479a10.5,10.5,0,0,0,4.336-2.287c.664-.595,1.436-1.345.873-2.346-.625-1.11-1.453-.3-2.2-.031a.637.637,0,0,1-.555-.044c.062-2.763.54-3.093,2.909-2,.176.08.336.256.51.266.575.033,3.518-2.822,3.688-3.4.555-1.9-.193-3.71-.244-5.519a45.715,45.715,0,0,1,.378-7.995c.449-2.995.539-3.027-2.36-3.832-.6-.167-1.169-.484-1.168-1.145a1.2,1.2,0,0,1,1.168-1.132c1.546-.19,2.342-.88,2.245-2.568-.08-1.4,1.106-.937,1.87-1.016.942-.1,1.361.392,1.232,1.287a19.5,19.5,0,0,0-.356,5.456,11.241,11.241,0,0,0,3.716,7.364,2.086,2.086,0,0,0,3.14-.341,2.838,2.838,0,0,1,3.3-.91c2.507.677,3.687-.532,3.1-3.059a7.23,7.23,0,0,1,0-3.463c.492-2.035-.383-3.068-2.408-3.206-.905-.062-1.8-.259-2.7-.411a1.222,1.222,0,0,1-1-1.282c-.047-.746.5-1.015,1.155-1.035.852-.026,1.707-.046,2.557-.007,1.422.065,2.49-.263,2.523-1.968.014-.748.611-1.022,1.178-1.123,2.227-.4,2.191-2.011,1.849-3.606a4.127,4.127,0,0,1,.3-3.365,2.241,2.241,0,0,0-.223-2.414c-.7-1.085-.425-1.76.957-1.7a3.3,3.3,0,0,0,2.947-1.172c.567-.669,3.95.114,4.63.9,1.341,1.55,3.1,1.522,4.286-.145.925-1.3,2.391-.956,3.562-1.086a38.026,38.026,0,0,1,7.069-.013c.792.062,3.248-.137,1.212,2a.748.748,0,0,0,.222,1.192,2.725,2.725,0,0,0,2.628.02.76.76,0,0,0,.154-1.32c-.711-.542-.724-1-.417-1.808.491-1.284-1.206-.587-1.406-1.339a2.178,2.178,0,0,1,2.938,2.026c.087.892-.288,1.84.3,2.675-1.6,5.38-4.962,9.562-9,13.286C177.608,197.647,176.4,199.254,174.835,200.369Z" transform="translate(6648.315 3417.177)" fill="#edf3fc"/>
      <path id="Trazado_1046679" data-name="Trazado 1046679" d="M115.537,329.009c5.16,1.156,6.035,6.575,4.994,11.488-1.044,4.929-4.083,8.67-7.3,12.316-1.413,1.6-3.336,2.782-4.108,4.937-.07.2-.559.245-.854.362l-1.029-.016c-.858-1.694-2.766-1.865-4.138-2.814-2.569-1.779-5.254-3.391-7.89-5.073-5.084-2.577-8.27-10.9-6.146-16.056a4.6,4.6,0,0,1,5.053-2.775c1.821.323,3.81.039,5.327,1.468a9.231,9.231,0,0,0,2.747,1.722c.586-.006.933.411,1.328.746,1.487,1.261,1.52,1.242,2.521-.473,1.907-3.268,4.58-5.437,8.474-5.82Z" transform="translate(6655.121 3345.972)" fill="#f18c85"/>
      <path id="Trazado_1046680" data-name="Trazado 1046680" d="M181.835,173.827c-.273-.439-.538-.884-.822-1.316-.675-1.026-1.36-1.471-2.492-.422a7.467,7.467,0,0,1-2.983,1.757c-1.492.431-2.047,1.2-1.091,2.718a26.48,26.48,0,0,1,1.486,3.168c-.169.723.354,2.006-1.261,1.557l-.389-.738a2.684,2.684,0,0,1-.713-1.984,17.829,17.829,0,0,0-2.292-3.976c-1.2-1.932-.468-2.672,1.111-3.416,1.973-1.382,4.2-2.329,6.222-3.638,1.435-.927,2.554.085,2.936,2.385.141.43.185.909.606,1.2a2.564,2.564,0,0,1,1.033,1.862,2.123,2.123,0,0,1-.493,1.281C182.234,174.459,182,174.2,181.835,173.827Z" transform="translate(6616.1 3422.71)" fill="#5da0a7"/>
      <path id="Trazado_1046681" data-name="Trazado 1046681" d="M107.472,407.3l-.869-.515c-.466.22-.07.513-.035.761a2.008,2.008,0,0,1-1.575,2.179c-1.054.318-1.555-.745-1.79-1.647-.335-1.285.111-2.559.346-4.014a2.935,2.935,0,0,0-.842,2.126c-.126,1.186-.971,1.112-1.46.478-2.139-2.769-4.834-5.06-6.788-7.98A13.859,13.859,0,0,1,107.472,407.3Z" transform="translate(6652.248 3312.934)" fill="#5aa4a8"/>
      <path id="Trazado_1046682" data-name="Trazado 1046682" d="M98.6,334.227c-1.052-.32-2.092-.682-3.156-.953-4.463-1.138-7.314,1.033-7.43,5.614-.107,4.242,1.794,7.642,4.474,10.714.6.686,1.25,1.326,1.877,1.987a7.211,7.211,0,0,1-5.375-3.244c-1.908-2.7-2.07-5.808-2.353-8.709-.2-2.008,1-4.316,1.675-6.45.256-.81,1.529-1.155,2.539-1.246,2.216-.2,4.215,1.183,6.481.909C97.7,332.806,98.177,333.744,98.6,334.227Z" transform="translate(6655.966 3344.591)" fill="#faefe7"/>
      <path id="Trazado_1046683" data-name="Trazado 1046683" d="M158.388,333.826l-1.831,6.011c-1.161-1.482-2.4-2.926-2.022-5.036a2.734,2.734,0,0,0-.453-1.875c-.389-.653-.185-1.371.392-1.471,2.244-.388,2.167-2.153,2.4-3.739.114-.791.046-1.655,1.16-1.71a1.789,1.789,0,0,1,1.785,1.3,1.527,1.527,0,0,1-.9,1.9C156.482,330.445,158.391,332.26,158.388,333.826Z" transform="translate(6624.068 3347.396)" fill="#faefe7"/>
      <path id="Trazado_1046684" data-name="Trazado 1046684" d="M192.483,179.637c.135-.415.012-.915.41-1.245,1.771,1.572,2.86,3.7,4.43,5.447a1.914,1.914,0,0,1-.437,2.765l-1.21,1.2c-1.274.2-2.669.862-3.432-.9a2.227,2.227,0,0,1,.647-3.374c1-.711.772-1.231.388-1.993C192.716,181.031,192.1,180.544,192.483,179.637Z" transform="translate(6606.125 3417.399)" fill="#347079"/>
      <path id="Trazado_1046685" data-name="Trazado 1046685" d="M137.89,261.414c-.1,1.033-.008,2.349-1.23,2.613-1.169.253-1.992-.741-2.688-1.64-.956-1.237-1.646-2.523-.88-4.124l1.208-.833c1.471-.757,2.245.14,2.915,1.243a6.379,6.379,0,0,1,.6,1.988Q137.852,261.038,137.89,261.414Z" transform="translate(6634.083 3380.05)" fill="#e89b8e"/>
      <path id="Trazado_1046686" data-name="Trazado 1046686" d="M177.186,192.6c1.171.089.545-1.278,1.261-1.557a8.088,8.088,0,0,0,1.431,1.453c1.19.8,2.25,1.772,1.349,3.523s-2.157,2.04-3.83,1.28c-.763-.064-1.05-.621-1.285-1.235-.462-1.145.468-1.991.647-3Z" transform="translate(6613.586 3411.402)" fill="#3d717f"/>
      <path id="Trazado_1046687" data-name="Trazado 1046687" d="M126.959,328.711c-2.448.912-4.859,1.85-6.659,3.909a16.943,16.943,0,0,0-1.967,3.146c-.665,1.21-1.255,1.32-2.111.218-.478-.615-1.054-1.154-1.586-1.727.533-1.312,1.037-2.676,2.559-.772.313.391.888.288.941-.109.368-2.764,3.174-2.61,4.705-3.968A3.644,3.644,0,0,1,126.959,328.711Z" transform="translate(6642.679 3346.283)" fill="#faefe7"/>
      <path id="Trazado_1046688" data-name="Trazado 1046688" d="M152.323,260.918c-.605,1.08-1.173,2.182-1.833,3.228-.262.416-.663.908-1.279.673-.542-.206-.371-.769-.43-1.2-.123-.891.233-1.843-.339-2.677.425-.876-.314-1.877.378-2.772a2.128,2.128,0,0,1,1.9-1.083c1.021.036,1.455.67,1.614,1.585Z" transform="translate(6626.647 3380.083)" fill="#e8a091"/>
      <path id="Trazado_1046689" data-name="Trazado 1046689" d="M171.207,316.8a.573.573,0,0,0-.258.035c-.289-.709-1-.855-1.576-1.181h0c.4-1,.938-1.963.248-3.072a.943.943,0,0,1,.355-1.487,1.376,1.376,0,0,1,1.635.139c.7.661,1.355,1.358,2.031,2.039l-.709,1.2A6.081,6.081,0,0,1,171.207,316.8Z" transform="translate(6616.721 3354.563)" fill="#faefe7"/>
      <path id="Trazado_1046690" data-name="Trazado 1046690" d="M183.082,168.993c-1.607-2.692-1.575-2.634-4.454-1.063-1.53.835-2.841,2.151-4.7,2.315-.079-1.1.82-1.152,1.522-1.457,1.389-.6,2.984-.919,3.388-2.811.134-.624.74-.861,1.574-.688,1.653.343,2.507,1.618,3.457,2.721C184.5,168.745,183.732,168.96,183.082,168.993Z" transform="translate(6614.565 3423.639)" fill="#fafcfb"/>
      <path id="Trazado_1046691" data-name="Trazado 1046691" d="M197.257,184.83a2.666,2.666,0,0,0-.528-3.384,29.739,29.739,0,0,1-3.464-4.828l-.765-1.963c.64-.048.954.156,1.293.824,1.03,2.031,2.008,4.1,3.921,5.577A2.246,2.246,0,0,1,197.257,184.83Z" transform="translate(6605.753 3419.175)" fill="#fafcfb"/>
      <path id="Trazado_1046692" data-name="Trazado 1046692" d="M200.108,164.99c-.415.877.6,2.057-.824,1.872-.889-.115-1.833-.7-.994-1.933.395-.581.066-.846-.432-.993-.535-.158-.813-.439-.576-.994a1.534,1.534,0,0,1,.978-.907c.608-.174.741.281.926.735C199.529,163.606,200.817,164.159,200.108,164.99Z" transform="translate(6603.526 3425.176)" fill="#fafcfb"/>
      <path id="Trazado_1046693" data-name="Trazado 1046693" d="M184.9,186.664c-.2,1-.523,1.751-1.655,1.53-.952-.186-1.723-.62-1.629-1.736.068-.795.145-1.562,1.411-1.446A1.786,1.786,0,0,1,184.9,186.664Z" transform="translate(6610.919 3414.266)" fill="#faefe7"/>
      <path id="Trazado_1046694" data-name="Trazado 1046694" d="M139.2,260.413c-.927-1.341-1.171-3.426-3.512-3.231,1.338-1.025,3.117-.587,3.45.953A3.049,3.049,0,0,1,139.2,260.413Z" transform="translate(6632.696 3380.298)" fill="#faefe7"/>
      <path id="Trazado_1046695" data-name="Trazado 1046695" d="M191.592,194.592a3.209,3.209,0,0,0,3.432.9c-1.133.708-2.5.565-3.719,1.01-.321.117-.81-.294-.927-.831C190.132,194.546,191.362,195.142,191.592,194.592Z" transform="translate(6606.775 3409.717)" fill="#faefe7"/>
      <path id="Trazado_1046696" data-name="Trazado 1046696" d="M273.333,151.509c-.63,1.847-.7,3.9-1.993,5.5.252-1.5.465-3.009.774-4.5C272.234,151.94,272.231,150.991,273.333,151.509Z" transform="translate(6568.364 3430.22)" fill="#fafcfb"/>
      <path id="Trazado_1046697" data-name="Trazado 1046697" d="M191.707,180.309l.794,1.905a2.053,2.053,0,0,1-2.33-1.1c-.413-.85.715-.771.863-1.3Z" transform="translate(6606.901 3416.727)" fill="#faefe7"/>
      <path id="Trazado_1046698" data-name="Trazado 1046698" d="M175.441,199.349l.914,1.171c-.554-.02-.835,1.619-1.543.333-.5-.912-1.922-1.906-.2-3.013C175.257,198.143,174.657,199.124,175.441,199.349Z" transform="translate(6614.629 3408.177)" fill="#faefe7"/>
      <path id="Trazado_1046699" data-name="Trazado 1046699" d="M175.132,188.825a1.813,1.813,0,0,1,.713,1.984c-.7.187-1.4.314-1.759-.538C173.658,189.251,174.6,189.174,175.132,188.825Z" transform="translate(6614.537 3412.452)" fill="#faefe7"/>
      <path id="Trazado_1046700" data-name="Trazado 1046700" d="M167.672,319.949c-.018.5.341.961.04,1.491-.272.479-.574.85-1.166.843-.328,0-.671-.049-.742-.446-.116-.644.322-.867.82-1.1a6.425,6.425,0,0,0,1.048-.783Z" transform="translate(6618.423 3350.268)" fill="#faefe7"/>
      <path id="Trazado_1046701" data-name="Trazado 1046701" d="M166.422,253.174a.731.731,0,0,1-.679.849,1.233,1.233,0,0,1-1.412-.757c-.171-.483.222-.678.657-.71C165.588,252.511,166.155,252.553,166.422,253.174Z" transform="translate(6619.131 3382.235)" fill="#faefe7"/>
      <path id="Trazado_1046702" data-name="Trazado 1046702" d="M267.9,173.827c.18,1.526.119,2.985-1.14,4.111C266.325,176.343,267.173,175.1,267.9,173.827Z" transform="translate(6570.594 3419.565)" fill="#faefe7"/>
      <path id="Trazado_1046703" data-name="Trazado 1046703" d="M87.49,288.432a1.408,1.408,0,0,1-1.379.9c-.411-.009-.934-.138-.86-.575.114-.663.821-.782,1.38-.914A.657.657,0,0,1,87.49,288.432Z" transform="translate(6656.618 3365.506)" fill="#fafcfb"/>
      <path id="Trazado_1046704" data-name="Trazado 1046704" d="M89.026,281.054c.59.02.812.362.749.9-.057.492-.425.637-.849.6-.484-.038-.956-.215-.906-.8C88.067,281.2,88.533,281.069,89.026,281.054Z" transform="translate(6655.304 3368.714)" fill="#fafcfb"/>
      <path id="Trazado_1046705" data-name="Trazado 1046705" d="M213.571,159.623a.766.766,0,0,1,.19,0c.594.156,1.524-.424,1.68.672a.757.757,0,0,1-.846.831c-.964-.036-1.024-.77-1.022-1.507Z" transform="translate(6595.761 3426.309)" fill="#fafcfb"/>
      <path id="Trazado_1046706" data-name="Trazado 1046706" d="M187.191,178.742c-.587.582-1.111-1.418-1.474.3-.068.323-.7.264-.976-.037s-.006-.6.217-.813C186.025,177.163,186.583,177.928,187.191,178.742Z" transform="translate(6609.491 3417.73)" fill="#faefe7"/>
      <path id="Trazado_1046707" data-name="Trazado 1046707" d="M176.19,197.946c-.128.568-.393.932-.7.151a5.569,5.569,0,0,1-.126-1.66l1.1-1.555C176.484,195.914,175.926,196.893,176.19,197.946Z" transform="translate(6613.879 3409.58)" fill="#fafcfb"/>
      <path id="Trazado_1046708" data-name="Trazado 1046708" d="M154.4,258.228l-1.613-1.585c.646-.346,1.448-.757,2.014-.271C155.544,257.012,154.186,257.514,154.4,258.228Z" transform="translate(6624.588 3380.524)" fill="#faefe7"/>
      <path id="Trazado_1046709" data-name="Trazado 1046709" d="M192.261,400.368c-6.793-5.634-9.482-12.887-8.49-21.58.791-6.93,2.627-13.666,3.835-20.518-.053-.423-.142-.852.23-1.193L189,351.928c.175-4.229,1.528-8.234,2.5-12.293,2.627-10.964,5.156-21.964,8.932-32.616,2.172-6.128,5.172-11.754,9.951-16.292,5.217-4.536,11.492-7.049,17.886-9.329a3.391,3.391,0,0,1,1.731-.206,13.139,13.139,0,0,1,3.515,2.121,67.119,67.119,0,0,0,10.565,6.405c4.518,2.154,8.978,4.625,14.079,5.293a2.753,2.753,0,0,1,1.465.944c3.671,4.263,7.811,8.115,11.11,12.706a46.894,46.894,0,0,1,6.989,14c.856,2.869,2.3,5.571,2.506,8.631-.977,1.623-2.74,2.208-4.263,3a41.192,41.192,0,0,1-17.181,4.966,38.911,38.911,0,0,1-23.973-6.44c-1.761-1.152-3.7-2.253-4.722-4.286-.029-.259.084-.551.021-.767-.093-.316,1.237-1.129-.335-1-.336.028-.369-.621-.33-1.018a7.283,7.283,0,0,1,.549-2.276,2.649,2.649,0,0,0,.081-.972,2.488,2.488,0,0,1-.13.71c-.122.232-.063-.026-.059.176.018,1-1.679-.721-1.313.88a5.907,5.907,0,0,1-.341,2.508c-1.133,5.115-2.978,10.021-4.414,15.047a8.274,8.274,0,0,0-.346,1.328c-1.809,6.283-3.851,12.493-5.812,18.727q-1.794,5.7-3.7,11.377c-.52,1.311-.446,2.841-1.452,3.974a4.888,4.888,0,0,1-2.666.019c.187.378.628.078.962.113.5.052.93.12.989.713a1,1,0,0,1-.715,1.05c-4.457,1.974-7.526,5.578-10.554,9.172a44.108,44.108,0,0,0-5.97,9.665C194.074,398.988,193.719,400.23,192.261,400.368Z" transform="translate(6609.988 3368.667)" fill="#f18b85"/>
      <path id="Trazado_1046710" data-name="Trazado 1046710" d="M204.831,279.847c-6.37,6.13-9.372,14.05-11.843,22.257-3.678,12.217-6.477,24.658-9.452,37.054-.137.569-.338,1.122-.509,1.682-.6-.831-.072-1.8-.392-2.7-.543.722-1.126.485-1.668-.037a30.788,30.788,0,0,1-8.58-13.324c-2.437-8.006-1.545-15.762,1.417-23.3,2.165-5.512,5.148-10.77,10.137-14.19,2.39-1.639,5.231-3.574,8.713-1.983,1.325.606,1.7-.694,1.9-1.768a69.263,69.263,0,0,1,9.5-24.271,4.035,4.035,0,0,1,1.531-1.491c.784.988.193,1.7-.5,2.358a8.042,8.042,0,0,0-2.372,7.7c.246,1.465.639,2.977-.641,4.252-.538.535-.074.925.345,1.281.388.33.995.634.773,1.229-.256.687-.992.772-1.642.868a3.489,3.489,0,0,1-.778-.057c-.5-.04-1.169-.884-1.478.039-.295.881.651.968,1.208,1.222,1.326.6,2.364-.2,3.185-.961,1.694-1.561,3.764-1.993,5.88-2.411a3.611,3.611,0,0,1,1.36-.1,1.209,1.209,0,0,1,1.106.961c.106.572-.328.767-.761.979a23.445,23.445,0,0,0-5.32,3.19A2.676,2.676,0,0,0,204.831,279.847Z" transform="translate(6615.959 3379.755)" fill="#1e495a"/>
      <path id="Trazado_1046711" data-name="Trazado 1046711" d="M229.592,253.59c-.471-.754-.218-1.162.49-1.7a25.641,25.641,0,0,1,5.381-3.227c.361-.155,1.272-.064.915-.909-.241-.57-.846-.468-1.385-.409a14.318,14.318,0,0,0-7.644,3.449c-1.491,1.243-2.52-.189-3.7-.388-.654-.109-.538-1.353-.04-2.059.522-.741.943-.561,1.52.082.8.889,1.682.142,2.524-.1.041-.667-.54-.678-.893-.879-1.137-.651-1.758-1.215-.2-2.2,1.245-.782.7-2.163.5-3.2-.679-3.466-.177-6.473,2.773-8.742.63-.485.487-1.159.515-1.8a63.133,63.133,0,0,1,10.733-8.726,36.713,36.713,0,0,0,10.45-10.672,34.308,34.308,0,0,0,4.3-9.71c1.305,2.474,2.932,4.676,5.546,5.88.983.452.85,1.187.868,1.946a63.1,63.1,0,0,0,1.27,11.437,3.255,3.255,0,0,1,.7,2.967c-1.24,4.483-2.569,8.975-5.339,12.772a18.318,18.318,0,0,1-10.071,6.7A55.084,55.084,0,0,0,229.592,253.59Z" transform="translate(6591.198 3406.011)" fill="#1a4354"/>
      <path id="Trazado_1046712" data-name="Trazado 1046712" d="M239.853,216.331c1.029-1.628,2.772-2.5,4.1-3.808a4.246,4.246,0,0,1,.564.42A27.242,27.242,0,0,1,239.853,216.331Z" transform="translate(6583.297 3401.214)" fill="#fafcfb"/>
      <path id="Trazado_1046713" data-name="Trazado 1046713" d="M189.992,424.7a1.394,1.394,0,0,1-.231,1.193l-1.644-1.6C189.082,422.881,189.34,424.692,189.992,424.7Z" transform="translate(6607.832 3301.04)" fill="#1e495a"/>
      <path id="Trazado_1046714" data-name="Trazado 1046714" d="M180.256,417.456a10.184,10.184,0,0,1-2.234-2.291C179.079,415.624,180.4,415.829,180.256,417.456Z" transform="translate(6612.619 3305.113)" fill="#1e495a"/>
      <path id="Trazado_1046715" data-name="Trazado 1046715" d="M174.128,410.72a4.157,4.157,0,0,1-1.328-1.546C174.885,409.554,174.966,409.648,174.128,410.72Z" transform="translate(6615.096 3307.954)" fill="#1e495a"/>
      <path id="Trazado_1046716" data-name="Trazado 1046716" d="M235.5,221.309c-.37-.234-.89-.479-.31-.951.486-.395,1.086-.764,1.5.143Z" transform="translate(6585.633 3397.698)" fill="#fafcfb"/>
      <path id="Trazado_1046717" data-name="Trazado 1046717" d="M223.765,230.884c-.121-1.117.447-1.621,1.738-1.542Z" transform="translate(6590.934 3393.241)" fill="#fafcfb"/>
      <path id="Trazado_1046718" data-name="Trazado 1046718" d="M172.862,320.032a7.248,7.248,0,0,1,1.723-2.324C175,319.217,173.654,319.418,172.862,320.032Z" transform="translate(6615.066 3351.331)" fill="#1e495a"/>
      <path id="Trazado_1046719" data-name="Trazado 1046719" d="M158.034,365.144a18.593,18.593,0,0,1,.067-4.705A6.882,6.882,0,0,1,158.034,365.144Z" transform="translate(6622.164 3331.066)" fill="#1e495a"/>
      <path id="Trazado_1046720" data-name="Trazado 1046720" d="M186.541,303.432l1.97-2.4C188.149,302.075,188.017,303.305,186.541,303.432Z" transform="translate(6608.579 3359.239)" fill="#1e495a"/>
      <path id="Trazado_1046721" data-name="Trazado 1046721" d="M170.43,405.861a5.028,5.028,0,0,1-1.3-1.934C170.108,404.2,170.9,404.605,170.43,405.861Z" transform="translate(6616.838 3310.443)" fill="#1e495a"/>
      <path id="Trazado_1046722" data-name="Trazado 1046722" d="M299.684,680.325a4.468,4.468,0,0,1,3.154-.742C302.083,681.09,300.72,680.011,299.684,680.325Z" transform="translate(6554.922 3179.724)" fill="#ddeded"/>
      <path id="Trazado_1046723" data-name="Trazado 1046723" d="M157.037,487.518c.743-.595.927,0,1.006.534,1.173,7.946,2.215,15.961-1.172,23.6-3.837,8.655-10.387,13.972-20.08,14.878-1.023.1-2.009.556-3.089.142-.874-.335-.89.8-1.466,1.035l-.486-.5c1.368-2,1.159-4.2.781-6.4a32.538,32.538,0,0,1-.208-7.253c1.406.483,1.724,1.852,2.351,2.948.533.931.989,1.1,1.733.2,1.229-1.492,2.035-3.138,1.465-5.065-.891-3.01-.164-6.12-.731-9.141-.1-.554.1-1.121.746-1.168s.905.562.966,1.051c.21,1.685.485,3.365.576,5.063a6.6,6.6,0,0,0,.732,3.216,10.819,10.819,0,0,0,1.539-2.424,171.793,171.793,0,0,1,13.494-18.975A10.832,10.832,0,0,1,157.037,487.518Z" transform="translate(6634.564 3270.918)" fill="#4a8792"/>
      <path id="Trazado_1046724" data-name="Trazado 1046724" d="M132.8,429.3l.519-.693c1.273.546.546,1.831.988,2.687.281.543.024,1.5.823,1.594.6.074.851-.713,1.187-1.176a47.717,47.717,0,0,1,8.333-8.953c.333-.053.682-.077.793.331a15.494,15.494,0,0,1-12.584,19.672,14.64,14.64,0,0,1-3.1.415,1.052,1.052,0,0,1-.9-.471c.733-2.29.274-4.73.879-7.036.279-.072.484.09.715.205,1.619.8,2.426.373,2.6-1.4a20.529,20.529,0,0,0-.414-3.665A2.218,2.218,0,0,1,132.8,429.3Z" transform="translate(6635.934 3301.526)" fill="#498794"/>
      <path id="Trazado_1046725" data-name="Trazado 1046725" d="M134.854,482.959a12.911,12.911,0,0,1,8.615-8.4c1.372-.445,1.7,0,1.742,1.314.186,6.4-2.8,9.786-9.888,11.1C134.374,485.726,135.108,484.284,134.854,482.959Z" transform="translate(6633.107 3277.027)" fill="#529d9c"/>
      <path id="Trazado_1046726" data-name="Trazado 1046726" d="M283.837,679.519l1.939.846c-.078.709-.614.9-1.08.612S283.213,680.521,283.837,679.519Z" transform="translate(6562.531 3179.746)" fill="#ddeded"/>
      <path id="Trazado_1046727" data-name="Trazado 1046727" d="M665.541,610.095l4.179-13.733,5.492,6.4c.027.8-.638,1.074-1.135,1.451-2.32,1.76-4.667,3.486-6.973,5.264A2.174,2.174,0,0,1,665.541,610.095Z" transform="translate(6381.419 3219.183)" fill="#f5fafb"/>
      <path id="Trazado_1046728" data-name="Trazado 1046728" d="M82.889,664.973c-.6.178-1.247.41-1.91.547-.36.075-.71-.224-.567-.564.4-.939,1.364-.406,2.043-.66C82.694,664.207,82.876,664.516,82.889,664.973Z" transform="translate(6658.925 3186.973)" fill="#fafcfb"/>
      <path id="Trazado_1046729" data-name="Trazado 1046729" d="M522.417,353.461c-5.969,0-11.939-.037-17.908.027a3.079,3.079,0,0,1-3.162-1.719c-1.6-2.86-4.412-4.2-7.357-5.221-4.077-1.413-8.182-2.744-12.282-4.089-1.859-.61-2.068-.3-1.921,1.7.2,2.676.16,5.368.234,8.053.023.84-.44,1.172-1.2,1.224-.2.014-.393.021-.59.018-1.768-.019-3.889.557-5.207-.223-1.441-.853-.214-3.165-.606-4.771-.515-2.107.1-4.174.014-6.256-.043-1.067.46-1.321,1.431-1.32q17.811.031,35.621,0a2.116,2.116,0,0,1,1.757.678c2.692,3.111,8.19,2.9,10.693.074a2.566,2.566,0,0,1,2.136-.75c9.315.007,18.631.026,27.946-.027,1.374-.008,1.915.569,1.513,1.73-.427,1.236.719,2.849-.279,3.494-.646.417-2.134-.59-3.274-.792a6.751,6.751,0,0,0-7.615,6.784c.075,1.435-.394,1.445-1.444,1.441-6.166-.026-12.333-.013-18.5-.013C522.417,353.488,522.417,353.475,522.417,353.461Z" transform="translate(6473.104 3340.352)" fill="#5692e8"/>
      <path id="Trazado_1046730" data-name="Trazado 1046730" d="M383.223,302.074a32.386,32.386,0,0,1,4.713,10.211c1.312,1.748,1.607,3.947,2.567,5.863.454.9.866,1.868,1.29,2.808a2.457,2.457,0,0,0,1.529,1.606,24.238,24.238,0,0,1,5.635,9.767,4.234,4.234,0,0,1,.19,2.863c-.4,1.131.484,2.151.372,3.271a2.98,2.98,0,0,1-.421,1.205c-3.126,3.832-7.547,5.015-12.115,5.782a26.488,26.488,0,0,1-11.8-1.095,3.082,3.082,0,0,1-1.552-1.136c-1.419-3.539-1.047-7.241-.752-10.871a45.3,45.3,0,0,1,3.439-13.482c2.01-4.914,3.982-9.846,5.639-14.9C382.2,303.235,382.387,302.428,383.223,302.074Z" transform="translate(6520.338 3358.745)" fill="#f08b86"/>
      <path id="Trazado_1046731" data-name="Trazado 1046731" d="M417.829,357.092q-.1-1.659-.21-3.319c-.259-4-2.121-7.332-4.394-10.476-.529-.732-1.326-1.282-1.228-2.33,9.373-.022,18.747-.032,28.12-.082,1.076-.006,1.517.294,1.492,1.443-.069,3.145-.1,6.294-.01,9.438.039,1.4-.447,1.78-1.8,1.767-6.359-.06-12.718-.028-19.077-.029-.524,0-1.049-.007-1.573.013-.508.019-1.113-.083-1.154.7-.039.761.5.811,1.05.826q.786.021,1.573.019c6.359,0,12.719.032,19.077-.042,1.435-.017,1.975.324,1.9,1.853-.127,2.673-.035,5.358-.035,8.428-1.687-1.711-3.57-1.726-5.461-1.571a5.964,5.964,0,0,0-4.557,3.031c-.433.655-1.147.529-1.793.535-2.1.016-4.2.012-6.293.04-.706.009-1.455-.159-2.079.355a1.048,1.048,0,0,1-.953-.852C419.424,363.629,417.871,360.56,417.829,357.092Z" transform="translate(6501.664 3340.34)" fill="#5692e8"/>
      <path id="Trazado_1046732" data-name="Trazado 1046732" d="M497.321,292.2c7.48,0,14.961.046,22.44-.033,1.506-.016,1.921.439,1.861,1.892-.111,2.686-.08,5.38-.029,8.069.021,1.107-.362,1.475-1.476,1.473q-22.932-.036-45.864.006c-1.025,0-1.587-.208-1.563-1.4.061-2.886.079-5.775.008-8.66-.035-1.438.825-1.358,1.789-1.356Q485.9,292.205,497.321,292.2Z" transform="translate(6472.877 3363.444)" fill="#5692e8"/>
      <path id="Trazado_1046733" data-name="Trazado 1046733" d="M472.676,322.308a29.3,29.3,0,0,0-.027-3.538c-.2-1.662.549-1.935,2.011-1.93,10.625.039,21.25,0,31.875,0,4.447,0,8.894,0,13.341.024.593,0,1.517-.292,1.568.674.064,1.22.39,2.536-.248,3.657-.31.545-.772-.175-1.143-.341a7.439,7.439,0,0,0-9.545,3.473,2.56,2.56,0,0,0-.382,1.3c.356,2.207-.841,2.352-2.608,2.342-10.887-.066-21.775-.082-32.662.016-1.882.017-2.421-.576-2.231-2.324a31.081,31.081,0,0,0,.023-3.342Z" transform="translate(6472.925 3351.752)" fill="#5692e8"/>
      <path id="Trazado_1046734" data-name="Trazado 1046734" d="M510.469,379.866c-5.308,0-10.618-.055-15.924.034-1.574.026-1.993-.486-1.983-2.017.019-2.808-.15-5.621-.359-8.423-.107-1.445.307-1.955,1.823-1.918,4,.1,7.994.029,11.992.025a5.667,5.667,0,0,0,1.566-.038c1.863-.556,3.185-.058,4,1.757.2.446.525,1.082,1.121.909.679-.2.435-.931.3-1.352-.419-1.281.323-1.246,1.2-1.245,4.325.005,8.651.02,12.975-.049,1.3-.021,1.685.373,1.592,1.706-.195,2.792-.295,5.6-.224,8.4.042,1.669-.351,2.279-2.158,2.236-5.305-.127-10.616-.045-15.924-.045C510.469,379.849,510.469,379.857,510.469,379.866Z" transform="translate(6463.63 3327.807)" fill="#5692e8"/>
      <path id="Trazado_1046735" data-name="Trazado 1046735" d="M405.616,327.2a1.082,1.082,0,0,1-1-.79c-.988-2.614-2.579-5.012-2.855-7.882l2.184-3.281c1.3.93,2.831.809,4.287.815,8.848.04,17.7.057,26.544-.008,1.533-.012,2.07.376,1.977,1.97a63.142,63.142,0,0,0,.014,7.075c.086,1.6-.363,2.126-2.048,2.114C425.017,327.145,415.316,327.2,405.616,327.2Z" transform="translate(6506.515 3352.496)" fill="#5692e8"/>
      <path id="Trazado_1046736" data-name="Trazado 1046736" d="M520.467,405.506H510.94c-5.249,0-10.5-.037-15.746.031-1.348.018-1.822-.353-1.823-1.755,0-2.746-.178-5.494-.353-8.237-.073-1.136.357-1.473,1.455-1.471,10.956.023,21.913.038,32.87-.028,1.676-.01,1.511.9,1.525,2,.019,1.544-.844,1-1.683.866-4.753-.75-8.159,3.064-6.886,7.669C520.363,404.822,520.389,405.073,520.467,405.506Z" transform="translate(6463.24 3315.128)" fill="#5692e8"/>
      <path id="Trazado_1046737" data-name="Trazado 1046737" d="M407.512,302.45c1.709-3.127,3.424-6.251,5.121-9.385.427-.788.794-1.608,1.189-2.414.247,1.19,1.21.784,1.907.787,7.2.033,14.407.092,21.608-.01,1.779-.025,2.245.5,2.153,2.209-.141,2.611-.061,5.237-.013,7.855.019,1.008-.328,1.379-1.359,1.375-9.3-.028-18.6-.007-27.9-.036A19.239,19.239,0,0,1,407.512,302.45Z" transform="translate(6503.787 3364.163)" fill="#5692e8"/>
      <path id="Trazado_1046738" data-name="Trazado 1046738" d="M585.141,327.8c-4.4,0-8.794-.017-13.191.01-1.023.006-1.44-.082-1.323-1.4a67,67,0,0,0,.059-7.868c-.039-1.3.25-1.85,1.711-1.848,8.921.009,17.842-.066,26.763-.149.947-.009,1.109.485,1.108,1.217,0,2.953-.047,5.907,0,8.859.018,1.206-.7,1.189-1.541,1.188Q591.934,327.789,585.141,327.8Z" transform="translate(6426.44 3351.885)" fill="#5692e8"/>
      <path id="Trazado_1046739" data-name="Trazado 1046739" d="M411.189,371.71c.956,3.009,1.924,6.015,2.86,9.03a3.784,3.784,0,0,0,.69,1.574l.179.816a8.108,8.108,0,0,1,1.639,2.811,60.569,60.569,0,0,0,3.265,7.039,11.635,11.635,0,0,1,.929,2.685l.493.747c2.027,3.839,4.2,7.593,6.573,11.229a1.919,1.919,0,0,1,.415,1.452c-3.884-4.71-8.776-8.2-13.861-11.457a63.71,63.71,0,0,0-16.384-7.915c.047-1.032.938-1.423,1.614-1.777,5.979-3.126,9.423-8.114,10.93-14.574a3.317,3.317,0,0,1,.348-.914Z" transform="translate(6508.304 3325.721)" fill="#bc5b5c"/>
      <path id="Trazado_1046740" data-name="Trazado 1046740" d="M436.022,405.964a71.84,71.84,0,0,1-5.833-12.536c2.3.793,4.675.293,7.009.32,1.413.016,2.12.329,2.345,1.843A5.911,5.911,0,0,0,445,400.424c2.465.252,5.885-1.589,6.408-3.964.546-2.479,1.9-2.932,4.032-2.662,1.733.22,3.966-.774,5.095.44,1.018,1.1.251,3.262.318,4.955a25.572,25.572,0,0,0,.1,4.123c.4,1.907-.477,1.942-1.956,1.928-7.087-.067-14.175-.039-21.262-.015C437.107,405.232,436.2,404.82,436.022,405.964Z" transform="translate(6493.032 3315.422)" fill="#5692e8"/>
      <path id="Trazado_1046741" data-name="Trazado 1046741" d="M480.6,374.575c-.21,1.424.931,3.906-.394,5.156-1.2,1.135-3.638.187-5.516.386-1.5.159-2.1-.3-2.027-1.927.133-2.879.093-5.769.026-8.652-.028-1.223.254-1.821,1.619-1.737,1.633.1,3.278.069,4.915.012,1-.035,1.429.294,1.391,1.341C480.557,370.79,480.6,372.431,480.6,374.575Z" transform="translate(6472.892 3327.579)" fill="#5692e8"/>
      <path id="Trazado_1046742" data-name="Trazado 1046742" d="M507.291,359.075c-5.2,0-9.957,0-14.715,0a1.024,1.024,0,0,1-1.129-1.079c-.009-.13-.007-.262-.018-.392-.487-5.633-.485-5.638,4.795-3.734,2.7.972,5.4,1.92,8.066,2.971A6.686,6.686,0,0,1,507.291,359.075Z" transform="translate(6464.085 3334.724)" fill="#5692e8"/>
      <path id="Trazado_1046743" data-name="Trazado 1046743" d="M635.351,312.329c-.93,0-1.861.044-2.787-.016a.848.848,0,0,1-.828-1.079c.133-.752.676-.655,1.192-.441.818.338,1.622.705,2.433,1.06Q635.357,312.091,635.351,312.329Z" transform="translate(6397.46 3354.683)" fill="#b6cfca"/>
      <path id="Trazado_1046744" data-name="Trazado 1046744" d="M359.567,178.6a10.175,10.175,0,0,1-1.843,4.434c-.942,1.514-2.871,1.54-5.253.23-.717-.394-1.466-1.141-1.847.321-.861,1.483-.225,3.075-.289,4.609-.125,2.982-.047,2.984-3.017,3.662a1.093,1.093,0,0,0-.9.576,2.386,2.386,0,0,0,2.962.555,2.337,2.337,0,0,0,1.231-2.623c-.162-2.249-.638-4.512.017-6.763.636-.078.871.472,1.261.791,1.349,1.1,2.827,2.005,4.64,1.589,1.5-.345,1.529.386,1.548,1.523a18.136,18.136,0,0,1-1.216,7.079,11.968,11.968,0,0,0-.407,1.692c-.362.518-.729,1.034-1.092,1.554-3.181,3.706-6.037,7.681-9.881,10.812a9.635,9.635,0,0,1-10.418,1.492c-1.027-.409-2.064-.815-3.062-1.3a62.6,62.6,0,0,1-9.916-7.532,9.569,9.569,0,0,1-2.3-4.008c-.489-2.81,1.279-5,2.165-7.39,1.307-3.532,2.895-6.965,4.4-10.425,1.4-3.237,3.643-5.528,7.453-5.8,1.876-.136,3.695-.57,5.492.571a2.8,2.8,0,0,0,2.819-.176c.792-.353,1.5.189,2.266.235a5.153,5.153,0,0,0-4.54-1.4c-.826.114-1.648.4-2.4-.207a.789.789,0,0,1-.1-.167c-.306-.981-.079-1.661,1.042-1.831-.277-.476-1.186-.924-.064-1.461a55.506,55.506,0,0,0,11.665-4.5,25.083,25.083,0,0,0,8.79-7.57c1.655,6.857,3.319,13.381,1.642,20.2l-.05.014c-1.413.052-2.743-.986-4.252-.246C357.312,177.537,358.752,177.371,359.567,178.6Z" transform="translate(6545.43 3427.464)" fill="#fdbaa0"/>
      <path id="Trazado_1046745" data-name="Trazado 1046745" d="M333.743,180.12c-.3.539-.391.973.448,1.043.558.047,1.158-.154,1.777.319-.747,1.093-3.57-.489-2.974,2.214.628.488,1.338.13,2.007.195,1.063.1,2.2.058,2.725,1.289a2.327,2.327,0,0,1-3.247.56c-1.872-1.87-3.866-.661-5.728-.568-3.388.168-5.233,2.595-6.52,5.4-1.252,2.727-2.27,5.56-3.431,8.331-.9,2.138-1.813,4.269-2.8,6.366a8.383,8.383,0,0,0-.361,3.08c-.863.077-1.041-.681-1.355-1.19a21.482,21.482,0,0,1-2.752-5.8,2.52,2.52,0,0,0-1.147-1.735.876.876,0,0,1-.314-.448c7.864-2.242,10.417-9.992,9.224-16.579a8.856,8.856,0,0,1-.043-1.365A73.75,73.75,0,0,0,333.743,180.12Z" transform="translate(6549.997 3416.581)" fill="#f6a388"/>
      <path id="Trazado_1046746" data-name="Trazado 1046746" d="M317.742,148.025c-1.723-.388-1.66-1.45-1.158-2.811,3.05-8.266,7.93-14.812,16.23-18.6,5.493-2.508,11.053-2.653,16.8-1.762.5.077,1.048.21,1.227.824-7.157-1.35-14.027-.57-20.207,3.414A28.036,28.036,0,0,0,317.742,148.025Z" transform="translate(6547.054 3443.027)" fill="#bad7dc"/>
      <path id="Trazado_1046747" data-name="Trazado 1046747" d="M348.727,270.363c-2.422,8-6.344,15.471-8.522,23.553-1.537,5.7-2.182,11.508-.707,17.365A42.907,42.907,0,0,0,346.788,324a1.093,1.093,0,0,1,.249.719c1.021,2.076,2.944,3.411,4.293,5.236,2.289,3.1,3.962,6.549,6.035,9.763a20.081,20.081,0,0,0,3.807,4.658,134,134,0,0,1,16.553,22.76,2.759,2.759,0,0,1-2.28-1.527,185.877,185.877,0,0,0-17.1-22.39c-1-1.092-1.8-2.36-2.69-3.547-1.635-1.144-2.262-3.025-3.235-4.616a75.056,75.056,0,0,0-8.017-10.176,101.724,101.724,0,0,1-8.659-13.127,3.008,3.008,0,0,1-.607-2.407c-2.191-6.641-3.985-13.428-7.761-19.452a71.237,71.237,0,0,0-9.059-11.06c-1.711-1.8-3.073-3.936-5.133-5.4-1.258-.506-1.724-1.744-2.477-2.707a50.34,50.34,0,0,1-9.894-23.28c-.393-2.378-.986-4.73-.66-7.171q-.14-1.523-.28-3.046c1.638-.159.262-1.433.747-2.018,1.171.33.728,1.378.951,2.13,1.176,4.442,1.462,9.049,2.532,13.518a47.614,47.614,0,0,0,10.862,21.07,31.839,31.839,0,0,0,2.45,2.816c3.458,4.029,7.266,7.762,10.3,12.149,3.9,5.633,6.256,11.951,8.149,18.465.42,1.444.914,2.865,1.273,4.322-.906-4.155-.433-8.285.271-12.406,1.072-6.27,3.78-11.991,6-17.878a91.612,91.612,0,0,0,3.522-10.219,1.769,1.769,0,0,1,.34-.43c.669-.047,1.314-.05,1.406.858C348.693,269.854,348.71,270.109,348.727,270.363Z" transform="translate(6554.833 3390.457)" fill="#faf1e7"/>
      <path id="Trazado_1046748" data-name="Trazado 1046748" d="M300.975,228.237c-.2-.748.1-1.6-.444-2.276-.264-2.862-.479-5.731-.812-8.585-.169-1.449.375-1.812,1.719-1.614a25.062,25.062,0,0,0,2.94.1c.692.665.365,1.413.182,2.154-.415,1.676-.825,3.352-1.288,5.015-.072.3-.179.583-.258.877-.223,1.057-.586,2.076-.9,3.107C301.95,227.57,301.9,228.346,300.975,228.237Z" transform="translate(6554.92 3399.701)" fill="#2b4656"/>
      <path id="Trazado_1046749" data-name="Trazado 1046749" d="M311.435,193.466c4.4-5.789,4.633-12.009,1.983-18.6C317.628,177.96,317.084,190.772,311.435,193.466Z" transform="translate(6549.35 3419.073)" fill="#90c8c0"/>
      <path id="Trazado_1046750" data-name="Trazado 1046750" d="M305.7,223.391q.765-3.693,1.53-7.386l.77.186.1.139c.962,1.253-.152,2.355-.266,3.529a14.412,14.412,0,0,1-.89,2.788C306.765,223.219,306.5,223.8,305.7,223.391Z" transform="translate(6552.072 3399.563)" fill="#f6a388"/>
      <path id="Trazado_1046751" data-name="Trazado 1046751" d="M389.942,267.865l-1.189-.9c-.533-.649-.293-1.381-.168-2.067,1.857-10.2,1.678-20.3-1.467-30.252-.194-.615-.43-1.26.063-1.865.054-.71.311-1.233,1.136-1.234a66.541,66.541,0,0,1,2.948,28.482A36.982,36.982,0,0,1,389.942,267.865Z" transform="translate(6513.567 3392.192)" fill="#e7f2f8"/>
      <path id="Trazado_1046752" data-name="Trazado 1046752" d="M391.044,195.854a15,15,0,0,0-4.969-.936c1.138-1.732,3.4-1.809,5.76-.278Z" transform="translate(6513.953 3410.211)" fill="#5f575b"/>
      <path id="Trazado_1046753" data-name="Trazado 1046753" d="M516.046,172.294c0,1.008.021,1.924,0,2.84-.1,3.568.595,2.727-2.937,3.437-3.38.68-6.8,1.181-10.178,1.853-1.32.262-2.031.094-1.886-1.452a8.364,8.364,0,0,0-.026-2.349c-.582-2.981.76-4.608,3.394-5.867,3.348-1.6,6.508-3.6,9.734-5.451,1.027-.589,1.637-1.231,1.687.83S515.915,170.3,516.046,172.294Z" transform="translate(6459.507 3423.882)" fill="#5692e8"/>
      <path id="Trazado_1046754" data-name="Trazado 1046754" d="M316.282,373.685c2.154,4.83,5.264,9.07,8.245,13.39.438.635.853,1.284,1.279,1.927-1.065.8-2.381.571-3.571.854-.631.15-1.3.162-1.943.284-8.95,1.69-10.736,2.654-18.21,9.757-.629.6-1.121,1.519-2.243,1.312a9.5,9.5,0,0,0-4.694.951c-7.968,3.233-16,6.318-23.805,9.933-1.09.5-1.918,1.884-3.433,1.129-.028-.014-.147.06-.147.093.008,2.657-1.922.883-2.9,1.273-.461-.413-.356-.956-.316-1.471.6-7.872-1.244-15.37-3.459-22.815-.408-1.372-1.074-2.69-.953-4.184a75.273,75.273,0,0,0,5.306-13.59c.183-.711.261-1.6,1.318-1.649a26.4,26.4,0,0,0,9.359,6.787,34.925,34.925,0,0,0,10.338,3.243c6.443.794,12.809.69,19.028-1.59a69.688,69.688,0,0,0,9.964-4.841A4.736,4.736,0,0,0,316.282,373.685Z" transform="translate(6573.689 3326.115)" fill="#df7977"/>
      <path id="Trazado_1046755" data-name="Trazado 1046755" d="M331.057,417.557c3.251-3.373,7.452-5.625,10.66-9.078.885-.953,2.45-1.069,3.805-1.32,3.819-.707,7.583-1.747,11.5-1.809a56.322,56.322,0,0,1,9.673,12.63c.453.786.882,1.585,1.321,2.379-2.139-.125-4,.059-5.643,1.933-.979,1.115-2.922,1.339-4.352,2.11-3.63,1.96-6.659,4.784-10.03,7.118-1.274.882-2.462,1.981-4.1,2.176-.427.051-.964.165-1.243-.332s.1-.852.39-1.207c2.147-2.614,5.065-4.287,7.687-6.323,1.151-.894,2.525-1.559,3.536-3.27-3.714,2.009-7.061,3.828-10.416,5.634q-4.138,2.227-8.292,4.423a7.1,7.1,0,0,1-1.289.465c-.883.264-1.985.648-2.515-.265-.616-1.061.909-1.181,1.254-1.881a46.767,46.767,0,0,1,6.637-5.077c2.75-1.856,5.453-3.787,7.175-4.882-2.55,1.664-6.186,4-9.639,6.611a19.941,19.941,0,0,1-4.54,2.975c-1.029.554-1.862,1.429-3.052,1.735-.667.171-1.341.422-1.791-.227a1.575,1.575,0,0,1,.2-2.153c.93-.888,1.925-1.708,2.8-2.683a5.254,5.254,0,0,0-2.524,1.56c-.574.565-1.271.854-1.916.263-.742-.679-.376-1.372.175-2.062a40.028,40.028,0,0,1,8.843-8.5,4.862,4.862,0,0,0,1.371-1.4c-1.979.541-3.333,2.019-4.924,3.116-.758.523-1.4,1.407-2.295.309s.432-1.4.815-2.031A10.516,10.516,0,0,1,331.057,417.557Z" transform="translate(6542.469 3309.768)" fill="#fcba9f"/>
      <path id="Trazado_1046756" data-name="Trazado 1046756" d="M251.1,398.621c1.154,4.611,2.793,9.092,3.686,13.775.944,4.952,1.561,9.914.749,14.95l-.44.82a4.05,4.05,0,0,1-2,1.156,28.169,28.169,0,0,1-10.877.232c-.7-.122-1.442-.231-1.753-1.037q3.53-11.089,7.057-22.179c.845-2.668,1.651-5.349,2.475-8.024.135-.294.254-.648.682-.494A.729.729,0,0,1,251.1,398.621Z" transform="translate(6583.007 3313.356)" fill="#1b4655"/>
      <path id="Trazado_1046757" data-name="Trazado 1046757" d="M239.2,455.923a24.4,24.4,0,0,0,13.893-.228,4.768,4.768,0,0,1,.74-.123c-1.545,4.454-4.139,8.334-6.7,12.233-1.2.223-1.931-.615-2.766-1.218-2.213-.538-3.456-2.4-5.1-3.722-.78-.84-1.942-1.519-1.281-2.978Q238.593,457.905,239.2,455.923Z" transform="translate(6584.273 3285.951)" fill="#f7f0eb"/>
      <path id="Trazado_1046758" data-name="Trazado 1046758" d="M394.693,555.428a24.936,24.936,0,0,1-9.6-3.022c-.629-.355-1.453-.7-1.346-1.5.128-.967,1.1-.93,1.863-1.034,3.72,1.268,7.924,1.6,10.394,5.327C395.6,555.564,395.12,555.341,394.693,555.428Z" transform="translate(6515.06 3241.232)" fill="#e17b71"/>
      <path id="Trazado_1046759" data-name="Trazado 1046759" d="M338.682,443.4c5.223-3.852,10.19-8.083,16.052-10.993l.284.4L339.05,443.768Z" transform="translate(6536.428 3296.939)" fill="#e48b73"/>
      <path id="Trazado_1046760" data-name="Trazado 1046760" d="M157.554,487.742c-2.557,3.935-5.8,7.342-8.564,11.112-1.084,1.476-1.885,3.156-2.885,4.7a68.409,68.409,0,0,0-5.375,8.756c-2.043-3.417-.933-7.252-2.439-10.476.68,3.211-.481,6.5.586,9.677.96,2.859-.8,4.877-2.4,6.851-.634.779-1.014-.138-1.278-.56-.824-1.317-1.576-2.679-2.355-4.024C134.408,499.394,143.811,489.652,157.554,487.742Z" transform="translate(6634.047 3270.694)" fill="#5aa6a7"/>
      <path id="Trazado_1046761" data-name="Trazado 1046761" d="M222.7,469.081l4.74,3.913a46.682,46.682,0,0,0-14.2,14.57c-1.523,2.43-2.821,5.011-4.782,7.149a48.041,48.041,0,0,1-6.244-4.336.731.731,0,0,1,.108-.9c3.356-4.192,5.632-9.145,9.22-13.168C214.592,472.885,218,469.971,222.7,469.081Z" transform="translate(6601.2 3279.544)" fill="#f08c85"/>
      <path id="Trazado_1046762" data-name="Trazado 1046762" d="M221.751,466.547c-.4,1.019-1.454.741-2.191,1.048-4.838,2.01-8.111,5.729-11.165,9.79-2.542,3.381-4.2,7.352-7.13,10.457a1.474,1.474,0,0,1-1.166-.886c1.9-1.573,2.418-3.98,3.543-6.005A49.569,49.569,0,0,1,216.108,466.5a10.3,10.3,0,0,1,2.072-1.1c.415-.2,1.217.075,1.084-.767-.1-.621-.722-.4-1.144-.468-.242-.042-.482-.094-.953-.187a8.67,8.67,0,0,1,2.946-.222C220.136,465,221.076,465.693,221.751,466.547Z" transform="translate(6602.149 3282.078)" fill="#d36a64"/>
      <path id="Trazado_1046763" data-name="Trazado 1046763" d="M148.672,422.784c-2.709,3.647-6.4,6.455-8.781,10.394-.711,1.178-1.419.937-1.7-.385-.3-1.383-.566-2.772-.846-4.159C140.156,424.819,144.122,423.236,148.672,422.784Z" transform="translate(6631.912 3301.5)" fill="#57a0a5"/>
      <path id="Trazado_1046764" data-name="Trazado 1046764" d="M133.592,435.228a21.319,21.319,0,0,1,.809,5.362c-.044,1.039-.42,2.11-1.423,2.344a2.039,2.039,0,0,1-2.447-1.337A12.84,12.84,0,0,1,133.592,435.228Z" transform="translate(6635.142 3295.599)" fill="#57a0a5"/>
      <path id="Trazado_1046765" data-name="Trazado 1046765" d="M382.78,390.124c-3.672-3.828-6.57-8.09-7.538-13.436,1.391,1.368,3.409,1.538,5.032,1.784a24.5,24.5,0,0,0,11.505-.614c3.109-1.029,6.048-2.265,8.314-4.731a19.237,19.237,0,0,1-6.107,12.412c-2.073,1.93-4.67,3.038-6.786,4.853A18.135,18.135,0,0,0,382.78,390.124Z" transform="translate(6519.09 3325.049)" fill="#e17977"/>
      <path id="Trazado_1046766" data-name="Trazado 1046766" d="M142,280.883a3,3,0,0,1-3.107,2.639c-1.647-.146-2.237-1.337-2.312-2.7a2.981,2.981,0,0,1,3.02-2.789A2.7,2.7,0,0,1,142,280.883Z" transform="translate(6632.275 3370.147)" fill="#ea9a8e"/>
      <path id="Trazado_1046767" data-name="Trazado 1046767" d="M157.175,263.4a7.524,7.524,0,0,0,.755-.6,1.436,1.436,0,0,1,2.228-.171,1.766,1.766,0,0,1,.22,2.476c-1.583,2.249-3.989,3.062-6.76,3.946,1.048-2.279,2.91-3.585,3.555-5.648Z" transform="translate(6624.192 3377.668)" fill="#ed9e91"/>
      <path id="Trazado_1046768" data-name="Trazado 1046768" d="M286.884,244.839c.708,3.909,1.263,7.853,2.157,11.719a49.262,49.262,0,0,0,9.821,19.8A18.1,18.1,0,0,1,299.916,278c-2.569.425-4.753-.883-6.957-1.756A92.01,92.01,0,0,1,271.9,264.23c1.693-.955,3.374-1.931,5.081-2.861,4.962-2.705,6.793-7.563,8.575-12.449C286.043,247.576,286.443,246.2,286.884,244.839Z" transform="translate(6568.1 3385.888)" fill="#fbbca2"/>
      <path id="Trazado_1046769" data-name="Trazado 1046769" d="M259.7,378.961c-.347-.181-.557-.851-1.106-.308,1.368-5.69,3.611-11.127,4.873-16.856.275-1.251-.223-2.656.7-3.773.514.173.085.96.864,1.026.454-.8.047-2.091,1.336-2.724-.327,2.019-.635,3.924-.954,5.9,1.061-.17.741-1.286,1.565-1.652.4,1.391-.935,2.237-.945,3.407-1.429,2.352-1.473,5.186-2.7,7.63a62.934,62.934,0,0,0-2.394,5.943A2.348,2.348,0,0,1,259.7,378.961Z" transform="translate(6574.409 3333.017)" fill="#c96764"/>
      <path id="Trazado_1046770" data-name="Trazado 1046770" d="M365.242,233.893c3.274,9.328,3.732,18.926,2.662,28.65-.205,1.862-.719,3.691-1.09,5.534l-.094.027c-.605.115-.986-.3-1.37-.63-3.677-3.162-8.211-4.527-12.662-6.072-2.71-.727-5.335-1.717-8.018-2.527a4.707,4.707,0,0,1-3.628-4.552c-.115-1.748-.637-3.473-.312-5.249a19.285,19.285,0,0,0,.3-2.64c.068-.667,0-1.447.906-1.681,1.989.624,3.772,1.816,5.888,2.1a8.775,8.775,0,0,0,7.263-2.185c3.4-2.935,6.149-6.447,9.067-9.815C364.464,234.492,364.574,233.864,365.242,233.893Z" transform="translate(6535.507 3391.08)" fill="#1a4555"/>
      <path id="Trazado_1046771" data-name="Trazado 1046771" d="M325.065,236.537c-.777,1.385-.022,3.023-.728,4.42-1.305.475-2.3-.311-3.253-.93a129.854,129.854,0,0,1-15.24-12.069c-1.35-1.2-.519-2.558-.646-3.852l.2-.448c1.445-.257.751-1.611,1.093-2.391a13.074,13.074,0,0,0,1.31-4.67c.854-.1,1.412.015,1.63,1.093a22.013,22.013,0,0,0,3.835,7.941c2.255,4.488,6.361,7.043,10.292,9.757C324.081,235.751,324.521,236.21,325.065,236.537Z" transform="translate(6552.374 3399.296)" fill="#f6957b"/>
      <path id="Trazado_1046772" data-name="Trazado 1046772" d="M364.123,234.038A45.39,45.39,0,0,1,360.08,237a2.368,2.368,0,0,1-3.232-.915,17,17,0,0,0-3.065-4.742C357.11,232.42,360.436,233.128,364.123,234.038Z" transform="translate(6529.267 3392.288)" fill="#f18f77"/>
      <path id="Trazado_1046773" data-name="Trazado 1046773" d="M344.147,194c1.943.68,2.883,1.881,4.012,2.814,1.563,1.292,3.236,2.224,5.364,1.705.394-.1.789-.254.987.243a.855.855,0,0,1-.509,1.128c-2.37,1.258-5.955,1.069-7.519-1.476C345.7,197.148,345.08,195.783,344.147,194Z" transform="translate(6533.836 3409.997)" fill="#28454b"/>
      <path id="Trazado_1046774" data-name="Trazado 1046774" d="M373.61,207.429c.516,2.494.157,5.053.644,7.569.307,1.585-1.066,2.3-2.35,2.675-1.511.435-2.63-.48-3.584-1.5-.373-.4-.043-.686.432-.772a5.831,5.831,0,0,1,1.525-.287c2.527.263,2.521-1.242,2.532-3.132.008-1.516-.867-3.3.795-4.565A.1.1,0,0,1,373.61,207.429Z" transform="translate(6522.449 3403.637)" fill="#f29580"/>
      <path id="Trazado_1046775" data-name="Trazado 1046775" d="M358.011,188.037a8.975,8.975,0,0,0-4.564-.845c-1,.008-.531-.319-.167-.64,4.4-.874,6.532-.4,8.221,1.926C360.189,189.276,359.164,188.027,358.011,188.037Z" transform="translate(6529.711 3413.724)" fill="#545761"/>
      <path id="Trazado_1046776" data-name="Trazado 1046776" d="M303.811,230.906c-.1,4.335,3.787,5.645,6.216,7.983a71.284,71.284,0,0,0,9.1,6.963,16.845,16.845,0,0,0,3.822,1.905c.115,1.7.283,3.39.33,5.087a4.039,4.039,0,0,0,3.115,4.024q4.177,1.379,8.352,2.767c1.644,2.167,1.131,4.472.258,6.687-1.495,3.79-4.872,5.058-8.453,5.987-2.763.717-5.623.224-8.4.709a53.932,53.932,0,0,1-9.415-12.816c-3.5-6.7-4.761-13.984-5.885-21.324-.177-1.155-.473-2.291-.714-3.435C303.115,234.086,303.172,232.388,303.811,230.906Z" transform="translate(6553.76 3392.496)" fill="#fdbba2"/>
      <path id="Trazado_1046777" data-name="Trazado 1046777" d="M332.593,298.932c.276-1.155,1.222-.793,1.934-.787a23.567,23.567,0,0,0,9.59-1.52c4.516-1.9,6.453-5.882,5.074-11.076,4.988,1.543,9.907,3.221,13.72,7.052-.989,5.508-3.4,10.526-5.447,15.663-2.873,7.207-5.109,14.535-4.7,22.42.071,1.362.233,2.719.232,4.107-1.5-2.611-2.124-5.529-3-8.349-2.439-7.832-6.042-14.991-11.74-21.008C336.281,303.349,334.476,301.1,332.593,298.932Z" transform="translate(6539.316 3366.582)" fill="#f18c85"/>
      <path id="Trazado_1046778" data-name="Trazado 1046778" d="M351.093,425.327c-4.808,3.181-9.155,6.949-13.76,10.366A52.317,52.317,0,0,1,351.093,425.327Z" transform="translate(6537.068 3300.294)" fill="#e19076"/>
    </g>
  </g>
</svg>
